<svg width="39" height="41" viewBox="0 0 39 41" fill="none" xmlns="http://www.w3.org/2000/svg">
<path d="M35.459 0.285706H3.54068C2.62054 0.285706 1.73809 0.651229 1.08745 1.30187C0.436813 1.9525 0.0712891 2.83495 0.0712891 3.75509V9.30611C0.0712891 10.2263 0.436813 11.1087 1.08745 11.7593C1.73809 12.41 2.62054 12.7755 3.54068 12.7755V18.3265C3.54068 19.2467 3.9062 20.1291 4.55684 20.7798C5.20747 21.4304 6.08993 21.7959 7.01007 21.7959H8.39782V28.0408C8.39466 28.974 8.62859 29.8926 9.07765 30.7107C9.52671 31.5287 10.1762 32.2192 10.9652 32.7175C9.47333 33.7722 9.78557 35.2224 9.78557 37.7551C9.78557 38.4912 10.078 39.1972 10.5985 39.7177C11.119 40.2382 11.825 40.5306 12.5611 40.5306H25.7448C26.4809 40.5306 27.1868 40.2382 27.7073 39.7177C28.2278 39.1972 28.5203 38.4912 28.5203 37.7551C28.5203 35.3196 28.8325 33.7722 27.3407 32.7175C28.127 32.2164 28.7743 31.5252 29.223 30.7078C29.6717 29.8905 29.9073 28.9732 29.908 28.0408V21.7959H31.9897C32.9098 21.7959 33.7922 21.4304 34.4429 20.7798C35.0935 20.1291 35.459 19.2467 35.459 18.3265V12.7755C36.3792 12.7755 37.2616 12.41 37.9123 11.7593C38.5629 11.1087 38.9284 10.2263 38.9284 9.30611V3.75509C38.9284 2.83495 38.5629 1.9525 37.9123 1.30187C37.2616 0.651229 36.3792 0.285706 35.459 0.285706ZM4.92843 18.3265V7.22448H8.55741C8.36263 7.44225 8.12419 7.61658 7.8576 7.73613C7.59101 7.85568 7.30223 7.91777 7.01007 7.91836C6.82604 7.91836 6.64955 7.99146 6.51942 8.12159C6.38929 8.25172 6.31619 8.42821 6.31619 8.61224V15.551C6.31619 15.735 6.38929 15.9115 6.51942 16.0417C6.64955 16.1718 6.82604 16.2449 7.01007 16.2449C7.56215 16.2449 8.09162 16.4642 8.482 16.8546C8.87238 17.245 9.0917 17.7744 9.0917 18.3265C9.0917 18.5105 9.1648 18.687 9.29493 18.8172C9.42506 18.9473 9.60155 19.0204 9.78557 19.0204H22.9692V20.4082H7.01007C6.45798 20.4082 5.92851 20.1888 5.53813 19.7985C5.14775 19.4081 4.92843 18.8786 4.92843 18.3265ZM22.2754 11.0408C22.2754 13.1224 21.0333 14.8571 19.4999 14.8571C17.9664 14.8571 16.7243 13.1433 16.7243 11.0408C16.7243 8.93836 17.9664 7.22448 19.4999 7.22448C21.0333 7.22448 22.2754 8.93836 22.2754 11.0408ZM19.4999 16.2449C23.2815 16.2449 25.0995 10.4371 22.3239 7.22448H28.8117C29.0341 7.7345 29.3758 8.18355 29.8082 8.53377C30.2405 8.88398 30.7507 9.12508 31.2958 9.23673V14.9265C30.9977 14.9932 30.7088 15.0957 30.4354 15.2318C29.4223 15.7384 30.2758 15.78 29.5888 14.2257C29.2628 13.5163 28.707 12.9376 28.0114 12.5832C27.3157 12.2288 26.5209 12.1194 25.7554 12.2726C24.9898 12.4259 24.2983 12.8329 23.7928 13.4278C23.2872 14.0227 22.997 14.7708 22.9692 15.551V17.6326H10.4101C10.2741 16.9659 9.94504 16.3539 9.46388 15.8727C8.98272 15.3915 8.37068 15.0625 7.70394 14.9265V9.23673C8.24901 9.12508 8.75923 8.88398 9.19156 8.53377C9.6239 8.18355 9.96566 7.7345 10.188 7.22448H16.6758C13.9488 10.4163 15.7044 16.2449 19.4999 16.2449ZM25.7448 33.5918C26.1128 33.5918 26.4658 33.738 26.7261 33.9983C26.9863 34.2585 27.1325 34.6115 27.1325 34.9796V37.7551C27.1325 38.1231 26.9863 38.4761 26.7261 38.7364C26.4658 38.9966 26.1128 39.1428 25.7448 39.1428H12.5611C12.193 39.1428 11.84 38.9966 11.5798 38.7364C11.3195 38.4761 11.1733 38.1231 11.1733 37.7551V34.9796C11.1733 34.6115 11.3195 34.2585 11.5798 33.9983C11.84 33.738 12.193 33.5918 12.5611 33.5918H25.7448ZM28.5203 28.0408C28.5203 29.145 28.0816 30.2039 27.3009 30.9847C26.5201 31.7654 25.4612 32.2041 24.357 32.2041H13.9488C12.8447 32.2041 11.7857 31.7654 11.005 30.9847C10.2242 30.2039 9.78557 29.145 9.78557 28.0408V21.7959H19.2848C18.2782 22.4965 17.4564 23.4306 16.8897 24.5182C16.3229 25.6057 16.0281 26.8144 16.0305 28.0408C16.0305 28.2248 16.1036 28.4013 16.2337 28.5315C16.3638 28.6616 16.5403 28.7347 16.7243 28.7347C16.9084 28.7347 17.0849 28.6616 17.215 28.5315C17.3451 28.4013 17.4182 28.2248 17.4182 28.0408C17.4182 26.3846 18.0762 24.7961 19.2473 23.625C20.4185 22.4539 22.0069 21.7959 23.6631 21.7959C23.8472 21.7959 24.0236 21.7228 24.1538 21.5927C24.2839 21.4626 24.357 21.2861 24.357 21.102C24.357 15.4261 24.1419 14.9196 24.9607 14.08C25.1441 13.8857 25.3647 13.7302 25.6093 13.6226C25.8539 13.515 26.1176 13.4576 26.3847 13.4537C26.6519 13.4498 26.9172 13.4996 27.1648 13.6C27.4124 13.7004 27.6374 13.8495 27.8264 14.0384C28.7354 14.9265 28.5203 14.5588 28.5203 28.0408ZM34.0713 18.3265C34.0713 18.8786 33.852 19.4081 33.4616 19.7985C33.0712 20.1888 32.5417 20.4082 31.9897 20.4082H29.908V18.3265C29.908 17.7744 30.1273 17.245 30.5177 16.8546C30.9081 16.4642 31.4376 16.2449 31.9897 16.2449C32.1737 16.2449 32.3502 16.1718 32.4803 16.0417C32.6104 15.9115 32.6835 15.735 32.6835 15.551V8.61224C32.6835 8.42821 32.6104 8.25172 32.4803 8.12159C32.3502 7.99146 32.1737 7.91836 31.9897 7.91836C31.6993 7.91305 31.413 7.84882 31.1482 7.72954C30.8834 7.61026 30.6456 7.43844 30.4492 7.22448C30.3868 7.15509 30.4492 7.22448 34.0713 7.22448V18.3265ZM37.5407 9.30611C37.5407 9.8582 37.3214 10.3877 36.931 10.7781C36.5406 11.1684 36.0111 11.3877 35.459 11.3877V7.22448C35.6431 7.22448 35.8196 7.15138 35.9497 7.02125C36.0798 6.89112 36.1529 6.71463 36.1529 6.5306C36.1529 6.34658 36.0798 6.17009 35.9497 6.03996C35.8196 5.90983 35.6431 5.83673 35.459 5.83673H3.54068C3.35665 5.83673 3.18016 5.90983 3.05003 6.03996C2.9199 6.17009 2.8468 6.34658 2.8468 6.5306C2.8468 6.71463 2.9199 6.89112 3.05003 7.02125C3.18016 7.15138 3.35665 7.22448 3.54068 7.22448V11.3877C2.98859 11.3877 2.45912 11.1684 2.06874 10.7781C1.67836 10.3877 1.45904 9.8582 1.45904 9.30611V3.75509C1.45904 3.20301 1.67836 2.67354 2.06874 2.28316C2.45912 1.89278 2.98859 1.67346 3.54068 1.67346H35.459C36.0111 1.67346 36.5406 1.89278 36.931 2.28316C37.3214 2.67354 37.5407 3.20301 37.5407 3.75509V9.30611Z" fill="white"/>
<path d="M1.28564 1.5H38.3214L37.7142 11.2143L35.2856 11.8214V6.35714H3.71422V11.8214L1.28564 11.2143L1.28564 1.5Z" fill="white"/>
<rect x="9.78564" y="33.0715" width="18.2143" height="7.28571" rx="3.64286" fill="white"/>
</svg>
