<svg width="25" height="35" viewBox="0 0 25 35" fill="none" xmlns="http://www.w3.org/2000/svg">
<path d="M24.0188 18.3836C23.2269 17.3596 22.0318 16.6562 20.4337 16.2738C22.4688 15.2358 23.3632 13.4739 23.1176 10.988C23.0355 10.0866 22.7864 9.30534 22.3697 8.64312C21.9526 7.98076 21.3899 7.44828 20.6792 7.04545C19.9691 6.64212 19.1968 6.33509 18.3641 6.12342C17.5312 5.91174 16.575 5.75805 15.496 5.66254V0.5H12.3414V5.51911C11.7952 5.51911 10.9621 5.53274 9.84231 5.56008V0.5H6.6873V5.66254C6.23647 5.67625 5.57418 5.68321 4.70015 5.68321L0.357178 5.66254V9.02234H2.63098C3.66897 9.02234 4.27673 9.4868 4.45425 10.4154V16.295C4.59101 16.295 4.70015 16.302 4.78216 16.3157H4.45425V24.5508C4.34511 25.2472 3.9491 25.5957 3.26615 25.5957H0.992486L0.357321 29.3447H4.45461C4.71414 29.3447 5.08948 29.3482 5.58136 29.3543C6.07294 29.3612 6.44154 29.3647 6.68744 29.3647V34.5886H9.84296V29.4261C10.4164 29.4401 11.2495 29.4468 12.3421 29.4468V34.5886H15.4967V29.3647C16.6169 29.3101 17.6104 29.2083 18.4772 29.0575C19.3445 28.9067 20.1744 28.6715 20.9664 28.3504C21.7582 28.0296 22.4205 27.6299 22.9531 27.1519C23.4859 26.6743 23.926 26.0662 24.2749 25.3286C24.6226 24.591 24.8448 23.7374 24.9401 22.7675C25.1184 20.8696 24.8109 19.4081 24.0188 18.3836ZM9.90366 9.24707C9.99931 9.24707 10.269 9.24363 10.7129 9.23674C11.157 9.22971 11.5256 9.22296 11.8192 9.21608C12.1129 9.20933 12.509 9.22641 13.0077 9.26738C13.5061 9.30835 13.926 9.3631 14.2674 9.43127C14.6087 9.49943 14.9846 9.61216 15.394 9.76923C15.804 9.92615 16.1316 10.1174 16.3771 10.3428C16.6232 10.5681 16.8314 10.855 17.0018 11.2033C17.1727 11.5515 17.2581 11.951 17.2581 12.4016C17.2581 12.784 17.1968 13.1324 17.074 13.4467C16.9515 13.7607 16.7666 14.0237 16.5211 14.2354C16.2755 14.4471 16.0223 14.6317 15.7628 14.7886C15.5035 14.9455 15.172 15.072 14.7693 15.1675C14.3666 15.2631 14.0149 15.3383 13.7146 15.3928C13.4141 15.4475 13.0387 15.4851 12.5879 15.5055C12.1371 15.5259 11.7955 15.5398 11.5635 15.5466C11.3312 15.5533 11.0138 15.5533 10.6107 15.5466C10.2076 15.5398 9.97233 15.5362 9.90388 15.5362V9.247L9.90366 9.24707ZM18.5184 23.1979C18.3883 23.5122 18.2213 23.7855 18.0166 24.0179C17.8115 24.2496 17.5416 24.4547 17.2072 24.632C16.8728 24.8098 16.5481 24.953 16.2343 25.0623C15.92 25.172 15.5409 25.267 15.0974 25.3493C14.653 25.4313 14.264 25.489 13.929 25.5233C13.5946 25.5576 13.1953 25.5848 12.7308 25.6054C12.2666 25.6255 11.9044 25.6359 11.6451 25.6359C11.3855 25.6359 11.0577 25.6322 10.6616 25.6255C10.2653 25.6191 10.0129 25.6157 9.90352 25.6157V18.6911C10.0127 18.6911 10.3371 18.6844 10.8766 18.6705C11.4163 18.6567 11.8565 18.6503 12.198 18.6503C12.5394 18.6503 13.0107 18.6705 13.6119 18.7118C14.2125 18.7524 14.7178 18.8136 15.1279 18.8956C15.5375 18.9777 15.9844 19.1038 16.4696 19.2747C16.9543 19.4454 17.3472 19.6536 17.6478 19.8994C17.9483 20.1457 18.2008 20.4593 18.4056 20.8418C18.6108 21.2241 18.7132 21.6613 18.7132 22.1531C18.7132 22.5359 18.6484 22.8836 18.5184 23.1979Z" fill="white"/>
</svg>
