<svg width="44" height="35" viewBox="0 0 44 35" fill="none" xmlns="http://www.w3.org/2000/svg">
<path d="M42.9926 4.16386C42.4368 3.50682 41.6584 3.10549 40.8007 3.03385L10.5916 0.511435C9.73378 0.439799 8.89979 0.706486 8.24267 1.26223C7.58823 1.81579 7.18748 2.59021 7.11359 3.44373L6.50581 9.14577H4.07899C2.30242 9.14577 0.857056 10.5911 0.857056 12.3677V31.2781C0.857056 33.0546 2.30242 34.5 4.07899 34.5H34.3933C36.17 34.5 37.6154 33.0546 37.6154 31.2781V28.2105L38.6911 28.3003C38.7818 28.3078 38.8721 28.3116 38.9615 28.3116C40.6178 28.3116 42.0297 27.0373 42.17 25.3576L43.7435 6.51284C43.8151 5.65514 43.5484 4.82098 42.9926 4.16386ZM4.07899 10.8215H34.3933C35.2459 10.8215 35.9397 11.5151 35.9397 12.3677V14.0908H2.53275V12.3677C2.53275 11.5151 3.2264 10.8215 4.07899 10.8215ZM2.53275 15.7665H35.9397V19.2427H2.53275V15.7665ZM34.3933 32.8243H4.07899C3.2264 32.8243 2.53275 32.1307 2.53275 31.2781V20.9183H35.9397V31.2781C35.9397 32.1307 35.2459 32.8243 34.3933 32.8243ZM42.0736 6.37334L40.5001 25.2181C40.4291 26.0677 39.68 26.7016 38.8305 26.6304L37.6154 26.5289V12.3677C37.6154 10.5911 36.17 9.14577 34.3933 9.14577H8.19106L8.78082 3.61264C8.78149 3.60627 8.78207 3.59999 8.78258 3.59354C8.85354 2.74388 9.60224 2.11013 10.4522 2.18135L40.6614 4.70377C41.073 4.73812 41.4466 4.93074 41.7133 5.2461C41.98 5.56147 42.108 5.96171 42.0736 6.37334Z" fill="white"/>
<path d="M32.4332 23.4094H24.3696C23.9068 23.4094 23.5317 23.7845 23.5317 24.2473V29.508C23.5317 29.9708 23.9068 30.3459 24.3696 30.3459H32.4332C32.896 30.3459 33.2711 29.9708 33.2711 29.508V24.2473C33.2711 23.7845 32.896 23.4094 32.4332 23.4094ZM31.5954 28.6702H25.2074V25.0851H31.5954V28.6702Z" fill="white"/>
</svg>
