<svg width="40" height="37" viewBox="0 0 40 37" fill="none" xmlns="http://www.w3.org/2000/svg">
<path fill-rule="evenodd" clip-rule="evenodd" d="M23.6348 34.5096C23.6348 33.1737 22.5461 32.0907 21.2031 32.0907H18.2254C17.5804 32.0907 16.9619 32.3455 16.5058 32.7992C16.0498 33.2528 15.7936 33.8681 15.7936 34.5096C15.7936 35.8456 16.8824 36.9286 18.2254 36.9286H21.2031C22.5461 36.9286 23.6348 35.8456 23.6348 34.5096ZM5.39786 28.2722C5.80404 28.303 6.29545 28.3208 6.78906 28.292C7.05202 29.6186 7.70531 30.849 8.68046 31.8191C9.97504 33.1067 11.7308 33.8302 13.5616 33.8302H14.4894C14.4485 34.0529 14.4275 34.2802 14.4275 34.5096C14.4275 34.7416 14.4485 34.9688 14.4888 35.1891H13.5616C11.3685 35.1891 9.26521 34.3225 7.71449 32.7799C6.47736 31.5492 5.67267 29.9688 5.39786 28.2722ZM4.70299 26.8262C3.62448 26.6454 2.62087 26.1353 1.83743 25.3559C0.843837 24.3676 0.285645 23.0271 0.285645 21.6293V18.4176C0.285645 17.0198 0.843837 15.6793 1.83743 14.691C2.83102 13.7026 4.17864 13.1473 5.5838 13.1473H5.93647C6.50021 6.06935 12.4534 0.5 19.7142 0.5C26.975 0.5 32.9282 6.06935 33.492 13.1473H33.8446C35.2498 13.1473 36.5974 13.7026 37.591 14.691C38.5846 15.6793 39.1428 17.0198 39.1428 18.4176V21.6293C39.1428 23.0271 38.5846 24.3676 37.591 25.3559C36.5974 26.3444 35.2498 26.8996 33.8446 26.8996H32.2812C31.6327 26.8996 31.1071 26.3767 31.1071 25.7317V14.2486C31.1071 7.98967 26.0063 2.91578 19.7142 2.91578C13.4221 2.91578 8.32133 7.98967 8.32133 14.2486V25.7317C8.32133 26.1871 8.05927 26.5817 7.67693 26.7743C6.62444 27.1376 4.99222 26.8748 4.70299 26.8262Z" fill="white"/>
</svg>
