<svg width="26" height="20" viewBox="0 0 26 20" fill="none" xmlns="http://www.w3.org/2000/svg">
<path d="M24.1245 0.201018L23.7056 0.352638L0.974178 8.52864C0.81309 8.57837 0.673084 8.68005 0.576103 8.81775C0.479122 8.95544 0.430649 9.12137 0.438281 9.28952C0.445914 9.45767 0.50922 9.61855 0.618278 9.74692C0.727336 9.8753 0.875981 9.96392 1.04091 9.9989L6.92514 11.607L8.02282 14.8232L9.1205 18.0394C9.18356 18.197 9.28421 18.3369 9.41373 18.447C9.54325 18.557 9.6977 18.6338 9.8637 18.6707C10.0297 18.7076 10.2022 18.7035 10.3662 18.6587C10.5303 18.6139 10.6809 18.5299 10.805 18.4138L13.8449 15.5468L19.8143 19.5877C20.5438 20.0839 21.5839 19.7164 21.7703 18.8985L25.7238 1.45993C25.9171 0.596149 25.0058 -0.113709 24.1245 0.201018ZM21.2226 4.07193L10.9523 12.4524L10.469 12.8475C10.3629 12.9315 10.2935 13.0535 10.2757 13.1875L10.1676 14.0789L9.8707 16.5829C9.87314 16.6134 9.86336 16.6435 9.84351 16.6668C9.82366 16.6901 9.79536 16.7045 9.76484 16.7069C9.73433 16.7094 9.70409 16.6996 9.68079 16.6798C9.65748 16.66 9.64302 16.6317 9.64058 16.6013L8.80523 14.0995L7.94228 11.5381C7.90578 11.4229 7.91063 11.2987 7.95599 11.1867C8.00135 11.0748 8.08439 10.9821 8.19081 10.9247L18.8777 4.80935L20.8889 3.66072C21.1812 3.49072 21.4804 3.86058 21.2226 4.07193Z" fill="white"/>
</svg>
