<svg width="44" height="39" viewBox="0 0 44 39" fill="none" xmlns="http://www.w3.org/2000/svg">
<path fill-rule="evenodd" clip-rule="evenodd" d="M5.72483 34.846C5.69812 34.9722 5.70839 35.1034 5.75441 35.2238C5.80042 35.3442 5.88021 35.4486 5.98412 35.5244C6.08802 35.6001 6.21157 35.6441 6.33981 35.6508C6.46805 35.6575 6.59548 35.6267 6.70666 35.5622L9.72252 33.8116L12.7391 35.5622C12.8503 35.6265 12.9776 35.6572 13.1057 35.6506C13.2338 35.644 13.3573 35.6003 13.4613 35.5248C13.5652 35.4489 13.645 35.3444 13.6911 35.224C13.7371 35.1035 13.7475 34.9723 13.721 34.846L12.9946 31.4241L15.5843 29.0845C15.6797 28.9982 15.7481 28.886 15.7813 28.7614C15.8145 28.6369 15.8111 28.5054 15.7714 28.3828C15.7317 28.2602 15.6575 28.1518 15.5577 28.0707C15.4579 27.9895 15.3369 27.9392 15.2092 27.9257L11.7442 27.5624L10.3289 24.3646C10.2767 24.2467 10.1916 24.1465 10.0839 24.0762C9.97622 24.0059 9.85052 23.9685 9.72207 23.9685C9.59361 23.9685 9.46791 24.0059 9.36021 24.0762C9.2525 24.1465 9.1674 24.2467 9.11523 24.3646L7.7006 27.5621L4.23558 27.9255C4.10791 27.9389 3.98685 27.9893 3.88707 28.0704C3.78728 28.1515 3.71305 28.2599 3.67335 28.3825C3.63365 28.5051 3.63019 28.6366 3.66338 28.7612C3.69658 28.8857 3.765 28.9979 3.86038 29.0842L6.45091 31.4241L5.72483 34.846ZM9.72252 22.0263C11.2556 22.0263 12.7543 22.4829 14.029 23.3383C15.3038 24.1936 16.2973 25.4094 16.8839 26.8318C17.4706 28.2543 17.6241 29.8195 17.325 31.3295C17.0258 32.8395 16.2876 34.2266 15.2035 35.3152C14.1194 36.4039 12.7382 37.1452 11.2345 37.4456C9.73084 37.7459 8.17227 37.5917 6.75588 37.0025C5.33949 36.4132 4.12889 35.4155 3.27718 34.1353C2.42547 32.8551 1.97089 31.3501 1.97094 29.8104C1.97323 27.7466 2.79061 25.768 4.24376 24.3086C5.69691 22.8492 7.66716 22.0283 9.72227 22.0259L9.72252 22.0263ZM22.9439 14.7754C23.6562 14.5893 24.3924 14.3979 25.1404 13.3392C25.2649 13.1626 25.3915 12.9844 25.52 12.8047C27.1831 10.4682 29.0684 7.81969 28.7065 5.08303C28.6899 4.95482 28.6484 4.74717 28.5855 4.43215C28.2784 2.89481 28.1347 1.88014 28.1586 1.40615C28.5632 1.40293 28.9676 1.42632 29.3691 1.47618C30.4088 1.64565 31.3272 2.45658 32.0983 3.88531C33.3134 6.13963 33.3159 7.72574 32.1066 10.1707C32.0004 10.3854 31.9505 10.6238 31.9616 10.8633C31.9727 11.1028 32.0445 11.3354 32.1702 11.5393C32.2959 11.7431 32.4713 11.9113 32.6798 12.0281C32.8883 12.1448 33.123 12.2062 33.3618 12.2064C33.3684 12.2064 33.375 12.2056 33.3809 12.2056C35.398 12.1788 36.8855 12.184 39.2388 12.2241C39.6289 12.3317 39.9866 12.534 40.2805 12.8131C40.5744 13.0923 40.7954 13.4397 40.9241 13.8249C41.0528 14.2101 41.0852 14.6211 41.0184 15.0218C40.9516 15.4224 40.7878 15.8005 40.5412 16.1226C40.483 16.1988 40.4418 16.2868 40.4205 16.3804C40.3992 16.4741 40.3984 16.5713 40.418 16.6653C40.4376 16.7594 40.4772 16.8481 40.5341 16.9253C40.591 17.0026 40.6638 17.0666 40.7476 17.1129C41.0896 17.3018 41.3711 17.5843 41.5595 17.9276C41.7478 18.2709 41.8351 18.6608 41.8113 19.052C41.7875 19.4432 41.6536 19.8196 41.425 20.1373C41.1965 20.455 40.8828 20.701 40.5205 20.8467C40.4229 20.8858 40.3359 20.9477 40.2667 21.0272C40.1975 21.1067 40.1482 21.2015 40.1226 21.3039C40.0971 21.4063 40.0961 21.5134 40.1198 21.6162C40.1435 21.7191 40.1911 21.8148 40.2589 21.8956C40.515 22.2021 40.672 22.5798 40.7089 22.9782C40.7458 23.3766 40.6609 23.7769 40.4655 24.1257C40.2702 24.4744 39.9736 24.7551 39.6153 24.9302C39.257 25.1053 38.8541 25.1666 38.4602 25.1059C38.3187 25.0838 38.1739 25.1083 38.0474 25.1756C37.9208 25.243 37.8194 25.3496 37.7581 25.4796C37.6969 25.6096 37.6791 25.756 37.7074 25.8969C37.7358 26.0379 37.8087 26.1659 37.9154 26.2618C38.1664 26.4877 38.3437 26.7844 38.424 27.1131C38.5043 27.4418 38.484 27.7872 38.3657 28.1042C38.2474 28.4211 38.0366 28.6948 37.7609 28.8895C37.4852 29.0842 37.1574 29.1908 36.8204 29.1953H24.5479C24.5362 29.1953 24.5236 29.1965 24.5123 29.1972C23.5681 29.248 22.7175 28.9515 21.9171 28.2927V15.1148C22.2488 14.9718 22.5924 14.8582 22.9439 14.7754ZM9.72252 38.9286C7.32912 38.9286 5.03252 37.9796 3.33227 36.2879C1.63201 34.5963 0.665637 32.2989 0.643339 29.8954C0.621041 27.4919 1.54462 25.1768 3.2132 23.4537C4.88177 21.7305 7.16036 20.7386 9.55335 20.6939V13.8559C9.55406 13.2614 9.78954 12.6915 10.2081 12.2711C10.6267 11.8507 11.1943 11.6142 11.7863 11.6135H20.8025C21.0982 11.6139 21.3817 11.7321 21.5906 11.9422C21.7996 12.1522 21.917 12.437 21.9171 12.734V13.686C22.1744 13.5991 22.4061 13.5373 22.6102 13.4851C23.2423 13.3199 23.5897 13.2291 24.0573 12.5671C24.1825 12.3898 24.3098 12.2106 24.4391 12.0295C25.9598 9.89362 27.6833 7.47299 27.39 5.25884C27.3794 5.1739 27.3328 4.9414 27.2831 4.69449C26.8088 2.32379 26.6522 1.01261 27.1103 0.422246C27.1874 0.321252 27.2855 0.238403 27.3978 0.179507C27.5101 0.12061 27.6339 0.087092 27.7604 0.0813005C28.3686 0.0551066 28.9778 0.0812943 29.5815 0.159576C31.0492 0.399072 32.289 1.4385 33.2662 3.25001C34.6909 5.89163 34.6991 7.92839 33.2964 10.764C33.2888 10.7749 33.285 10.788 33.2855 10.8013C33.2861 10.8146 33.291 10.8273 33.2994 10.8375C33.3052 10.8492 33.3144 10.8588 33.3259 10.8651C33.3373 10.8714 33.3503 10.8739 33.3633 10.8725C35.4177 10.8449 36.927 10.8501 39.3409 10.8918C39.3902 10.8927 39.4392 10.8991 39.487 10.911C40.0433 11.0479 40.5616 11.3093 41.003 11.6758C41.4444 12.0423 41.7976 12.5043 42.036 13.0272C42.2744 13.5502 42.3919 14.1206 42.3797 14.6956C42.3675 15.2706 42.2259 15.8355 41.9655 16.3477C42.3558 16.6851 42.6643 17.1073 42.8677 17.5824C43.071 18.0575 43.1638 18.5729 43.139 19.0894C43.1142 19.6059 42.9724 20.11 42.7245 20.5632C42.4766 21.0164 42.129 21.4069 41.7082 21.7049C41.9241 22.1452 42.0394 22.6283 42.0458 23.1191C42.0521 23.6098 41.9492 24.0958 41.7447 24.5415C41.5402 24.9873 41.2391 25.3815 40.8636 25.6955C40.488 26.0096 40.0474 26.2354 39.5738 26.3566C39.7614 26.8128 39.8348 27.3081 39.7876 27.7994C39.7405 28.2906 39.5741 28.7628 39.3031 29.1745C39.0322 29.5862 38.6649 29.925 38.2334 30.1611C37.8018 30.3973 37.3193 30.5236 36.8279 30.5291H24.5651C24.479 30.5342 24.3924 30.5358 24.3078 30.5358C23.4699 30.5367 22.6462 30.3192 21.9171 29.9046V30.5008C21.917 30.7977 21.7996 31.0825 21.5906 31.2925C21.3816 31.5026 21.0982 31.6208 20.8025 31.6211H18.6219C18.2032 33.682 17.0891 35.5345 15.4676 36.8659C13.8462 38.1973 11.8169 38.9259 9.72252 38.9286Z" fill="white"/>
</svg>
