<svg width="45" height="45" viewBox="0 0 45 45" fill="none" xmlns="http://www.w3.org/2000/svg">
<path d="M22.5507 0.642822C18.2178 0.642822 13.9821 1.92769 10.3794 4.33494C6.7767 6.7422 3.96873 10.1637 2.31058 14.1668C0.652437 18.17 0.21859 22.5749 1.06391 26.8246C1.90922 31.0742 3.99573 34.9778 7.05958 38.0417C10.1234 41.1055 14.027 43.192 18.2767 44.0374C22.5264 44.8827 26.9313 44.4488 30.9344 42.7907C34.9375 41.1325 38.3591 38.3246 40.7663 34.7219C43.1736 31.1191 44.4584 26.8835 44.4584 22.5506C44.4516 16.7424 42.1413 11.174 38.0342 7.06702C33.9272 2.96001 28.3589 0.649674 22.5507 0.642822ZM22.5507 40.4751C19.0056 40.4751 15.54 39.4238 12.5924 37.4543C9.6447 35.4847 7.34727 32.6853 5.9906 29.41C4.63394 26.1347 4.27897 22.5307 4.97059 19.0537C5.66222 15.5766 7.36936 12.3828 9.87615 9.87602C12.3829 7.36923 15.5768 5.66208 19.0538 4.97046C22.5308 4.27884 26.1348 4.63381 29.4101 5.99047C32.6854 7.34713 35.4848 9.64457 37.4544 12.5922C39.424 15.5399 40.4752 19.0054 40.4752 22.5506C40.4694 27.3027 38.5791 31.8585 35.2188 35.2187C31.8586 38.579 27.3028 40.4693 22.5507 40.4751Z" fill="white"/>
<path d="M24.5422 21.726V10.6008C24.5422 10.0726 24.3324 9.56602 23.9589 9.19252C23.5854 8.81902 23.0788 8.60919 22.5506 8.60919C22.0224 8.60919 21.5158 8.81902 21.1423 9.19252C20.7688 9.56602 20.559 10.0726 20.559 10.6008V22.5505C20.5591 23.0786 20.769 23.5851 21.1425 23.9586L27.1173 29.9334C27.493 30.2962 27.996 30.4969 28.5182 30.4924C29.0404 30.4878 29.54 30.2784 29.9092 29.9091C30.2785 29.5399 30.4879 29.0403 30.4925 28.5182C30.497 27.996 30.2963 27.4929 29.9335 27.1173L24.5422 21.726Z" fill="white"/>
</svg>
