<svg width="351" height="324" viewBox="0 0 351 324" fill="none" xmlns="http://www.w3.org/2000/svg">
<path opacity="0.2" d="M331 0C328.239 15 326 17.2385 311 20C326 22.7615 328.239 25 331 40C333.761 25 336 22.7615 351 20C336 17.2385 333.761 15 331 0Z" fill="#FFE600"/>
<path opacity="0.2" d="M12.5 20C10.7741 29.75 9.37494 31.205 0 33C9.37502 34.795 10.7741 36.25 12.5 46C14.2259 36.25 15.625 34.795 25 33C15.625 31.205 14.2258 29.75 12.5 20Z" fill="white"/>
<path opacity="0.2" d="M34.5 54C33.7406 58.125 33.125 58.7406 29 59.5C33.125 60.2594 33.7406 60.875 34.5 65C35.2594 60.875 35.875 60.2594 40 59.5C35.875 58.7406 35.2594 58.125 34.5 54Z" fill="#FFE600"/>
<path opacity="0.2" d="M320.5 305C319.188 312.125 318.125 313.188 311 314.5C318.125 315.812 319.188 316.875 320.5 324C321.812 316.875 322.875 315.812 330 314.5C322.875 313.188 321.812 312.125 320.5 305Z" fill="white"/>
</svg>
