<svg width="603" height="312" viewBox="0 0 603 312" fill="none" xmlns="http://www.w3.org/2000/svg">
<path opacity="0.2" d="M25.5 51C21.9791 70.125 19.1249 72.9791 0 76.5C19.125 80.0209 21.9791 82.875 25.5 102C29.0209 82.875 31.875 80.0209 51 76.5C31.875 72.9791 29.0207 70.125 25.5 51Z" fill="white"/>
<path opacity="0.2" d="M564.5 0C559.184 28.8751 554.875 33.1842 526 38.5C554.875 43.8158 559.184 48.1249 564.5 77C569.816 48.1249 574.125 43.8158 603 38.5C574.125 33.1842 569.816 28.8751 564.5 0Z" fill="#FFE600"/>
<path opacity="0.2" d="M583.5 273C580.808 287.625 578.625 289.808 564 292.5C578.625 295.192 580.808 297.375 583.5 312C586.192 297.375 588.375 295.192 603 292.5C588.375 289.808 586.192 287.625 583.5 273Z" fill="white"/>
<path opacity="0.2" d="M69.5 118C67.9122 126.625 66.6249 127.912 58 129.5C66.625 131.088 67.9122 132.375 69.5 141C71.0878 132.375 72.375 131.088 81 129.5C72.375 127.912 71.0878 126.625 69.5 118Z" fill="#FFE600"/>
</svg>
