<svg width="1303" height="588" viewBox="0 0 1303 588" fill="none" xmlns="http://www.w3.org/2000/svg">
<path opacity="0.2" d="M427 566C425.481 574.25 424.25 575.481 416 577C424.25 578.519 425.481 579.75 427 588C428.519 579.75 429.75 578.519 438 577C429.75 575.481 428.519 574.25 427 566Z" fill="white"/>
<path opacity="0.2" d="M435 0C432.377 14.25 430.25 16.3766 416 19C430.25 21.6234 432.377 23.75 435 38C437.623 23.75 439.75 21.6234 454 19C439.75 16.3766 437.623 14.25 435 0Z" fill="white"/>
<path opacity="0.2" d="M852 346C849.377 360.25 847.25 362.377 833 365C847.25 367.623 849.377 369.75 852 384C854.623 369.75 856.75 367.623 871 365C856.75 362.377 854.623 360.25 852 346Z" fill="white"/>
<path opacity="0.2" d="M1289 468C1287.07 478.5 1285.5 480.067 1275 482C1285.5 483.933 1287.07 485.5 1289 496C1290.93 485.5 1292.5 483.933 1303 482C1292.5 480.067 1290.93 478.5 1289 468Z" fill="#FFE600"/>
<path opacity="0.2" d="M21 271C18.1005 286.75 15.7499 289.1 0 292C15.75 294.9 18.1005 297.25 21 313C23.8995 297.25 26.25 294.9 42 292C26.25 289.1 23.8994 286.75 21 271Z" fill="#FFE600"/>
</svg>
