<svg width="340" height="851" viewBox="0 0 340 851" fill="none" xmlns="http://www.w3.org/2000/svg">
<path opacity="0.2" d="M18 0C15.5147 13.5 13.4999 15.5147 0 18C13.5 20.4853 15.5147 22.5 18 36C20.4853 22.5 22.5 20.4853 36 18C22.5 15.5147 20.4852 13.5 18 0Z" fill="#FFE600"/>
<path opacity="0.2" d="M174 335C171.239 350 169 352.239 154 355C169 357.761 171.239 360 174 375C176.761 360 179 357.761 194 355C179 352.239 176.761 350 174 335Z" fill="white"/>
<path opacity="0.2" d="M323.5 818C321.222 830.375 319.375 832.222 307 834.5C319.375 836.778 321.222 838.625 323.5 851C325.778 838.625 327.625 836.778 340 834.5C327.625 832.222 325.778 830.375 323.5 818Z" fill="#FFE600"/>
</svg>
