<svg width="1074" height="133" viewBox="0 0 1074 133" fill="none" xmlns="http://www.w3.org/2000/svg">
<path opacity="0.2" d="M23.5 51.0951C20.2553 68.5931 17.6249 71.2044 0 74.4258C17.625 77.6471 20.2553 80.2584 23.5 97.7565C26.7447 80.2584 29.375 77.6471 47 74.4258C29.375 71.2044 26.7446 68.5931 23.5 51.0951Z" fill="white"/>
<path opacity="0.2" d="M970.5 15.3545C967.255 32.8525 964.625 35.4638 947 38.6852C964.625 41.9065 967.255 44.5178 970.5 62.0158C973.745 44.5178 976.375 41.9065 994 38.6852C976.375 35.4638 973.745 32.8525 970.5 15.3545Z" fill="white"/>
<path opacity="0.2" d="M1060 101.728C1058.07 112.152 1056.5 113.708 1046 115.627C1056.5 117.546 1058.07 119.102 1060 129.526C1061.93 119.102 1063.5 117.546 1074 115.627C1063.5 113.708 1061.93 112.152 1060 101.728Z" fill="#FFE600"/>
<path opacity="0.2" d="M58 110.663C56.4812 118.853 55.25 120.076 47 121.584C55.25 123.091 56.4812 124.314 58 132.504C59.5188 124.314 60.75 123.091 69 121.584C60.75 120.076 59.5187 118.853 58 110.663Z" fill="white"/>
<path opacity="0.2" d="M143.5 0.462524C141.36 12.0038 139.625 13.7261 128 15.8509C139.625 17.9756 141.36 19.6979 143.5 31.2392C145.64 19.6979 147.375 17.9756 159 15.8509C147.375 13.7261 145.64 12.0038 143.5 0.462524Z" fill="#FFE600"/>
</svg>
