<svg width="887" height="464" viewBox="0 0 887 464" fill="none" xmlns="http://www.w3.org/2000/svg">
<path opacity="0.2" d="M26.5 0C22.8411 19.875 19.8749 22.8411 0 26.5C19.875 30.1589 22.8411 33.125 26.5 53C30.1589 33.125 33.125 30.1589 53 26.5C33.125 22.8411 30.1588 19.875 26.5 0Z" fill="#FFE600"/>
<path opacity="0.2" d="M665.5 53C661.565 74.375 658.375 77.5649 637 81.5C658.375 85.4351 661.565 88.625 665.5 110C669.435 88.625 672.625 85.4351 694 81.5C672.625 77.5649 669.435 74.375 665.5 53Z" fill="white"/>
<path opacity="0.2" d="M870.5 431C868.222 443.375 866.375 445.222 854 447.5C866.375 449.778 868.222 451.625 870.5 464C872.778 451.625 874.625 449.778 887 447.5C874.625 445.222 872.778 443.375 870.5 431Z" fill="#FFE600"/>
</svg>
