<svg width="394" height="252" viewBox="0 0 394 252" fill="none" xmlns="http://www.w3.org/2000/svg">
<path opacity="0.2" d="M12.5 153C10.7741 162.375 9.37494 163.774 0 165.5C9.37502 167.226 10.7741 168.625 12.5 178C14.2259 168.625 15.625 167.226 25 165.5C15.625 163.774 14.2258 162.375 12.5 153Z" fill="white"/>
<path opacity="0.2" d="M43 230C41.4812 238.191 40.25 239.413 32 240.921C40.25 242.429 41.4812 243.651 43 251.841C44.5188 243.651 45.75 242.429 54 240.921C45.75 239.413 44.5187 238.191 43 230Z" fill="white"/>
<path opacity="0.2" d="M161.5 32C159.36 43.5413 157.625 45.2636 146 47.3883C157.625 49.513 159.36 51.2354 161.5 62.7767C163.64 51.2354 165.375 49.513 177 47.3883C165.375 45.2636 163.64 43.5413 161.5 32Z" fill="#FFE600"/>
<path opacity="0.2" d="M272.5 0C269.255 17.4981 266.625 20.1094 249 23.3307C266.625 26.552 269.255 29.1633 272.5 46.6614C275.745 29.1633 278.375 26.552 296 23.3307C278.375 20.1094 275.745 17.4981 272.5 0Z" fill="white"/>
<path opacity="0.2" d="M380 155C378.067 165.424 376.5 166.98 366 168.899C376.5 170.818 378.067 172.374 380 182.798C381.933 172.374 383.5 170.818 394 168.899C383.5 166.98 381.933 165.424 380 155Z" fill="#FFE600"/>
</svg>
