<svg width="35" height="39" viewBox="0 0 35 39" fill="none" xmlns="http://www.w3.org/2000/svg">
<path d="M34.2167 16.5074L18.0252 0.307799C17.873 0.155609 17.6675 0.0714722 17.4523 0.0714722C17.237 0.0714722 17.0314 0.157278 16.8793 0.309392L0.73632 16.5074C0.504848 16.7388 0.436871 17.0868 0.561521 17.3895C0.687764 17.6921 0.982357 17.888 1.30927 17.888H10.211V38.1193C10.211 38.566 10.5736 38.9286 11.0203 38.9286H23.9683C24.4151 38.9286 24.7776 38.566 24.7776 38.1193V17.8879H33.6454C33.9723 17.8879 34.2669 17.6905 34.3931 17.3878C34.5194 17.0852 34.4481 16.7388 34.2167 16.5074Z" fill="white"/>
</svg>
