<svg width="131" height="32" viewBox="0 0 131 32" fill="none" xmlns="http://www.w3.org/2000/svg">
<g clip-path="url(#clip0_5_2199)">
<path d="M88.2101 10.2V12.58H82.3601V15.37H84.5501C88.4901 15.37 89.3301 17.98 89.3301 19.7C89.3301 21.11 88.3901 23.62 84.5501 23.62H79.6401V10.2H88.2101ZM82.3601 21.51H84.0601C85.5701 21.51 86.4601 20.86 86.4601 19.5C86.4601 18.14 85.5701 17.49 84.0601 17.49H82.3601V21.51Z" fill="#005187"/>
<path d="M98.0501 10.2L103.38 23.62H100.32L99.2001 20.59H93.6601L92.5401 23.62H89.6401L94.9401 10.2H98.0501ZM98.3901 18.37L96.4301 12.89H96.3801L94.5301 18.37H98.3901Z" fill="#005187"/>
<path d="M107.35 10.2V15.61H112.78V10.2H115.5V23.62H112.78V17.8H107.35V23.6H104.63V10.2H107.35Z" fill="#005187"/>
<path d="M121.5 10.2V15.92H121.55L126.41 10.2H129.65L124.06 16.28L130.01 23.62H126.56L121.57 16.96H121.52V23.62H118.8V10.2H121.49H121.5Z" fill="#005187"/>
<path d="M40.6602 23.17C39.4602 23.56 38.2602 23.74 37.1902 23.74C33.8502 23.74 30.2202 21.83 30.2202 16.95C30.2202 12.33 33.4802 10 37.6902 10C38.7302 10 39.6502 10.13 40.6702 10.47L40.5402 12.77C39.7602 12.46 38.8902 12.27 37.8802 12.27C34.8802 12.27 33.1002 14.18 33.1002 16.89C33.1002 20.13 35.2902 21.46 37.7002 21.46C38.8802 21.46 39.8202 21.17 40.4902 20.86L40.6702 23.16L40.6602 23.17Z" fill="#005187"/>
<path d="M72.0203 10.2V23.62H69.3003V12.39H64.0003V23.59H61.2803V10.2H72.0103H72.0203Z" fill="#005187"/>
<path d="M53.5804 10.2L50.2704 19.81L46.9804 10.2H42.3804V23.59H45.1004V12.1L48.9904 23.59H51.5704L55.4404 12.1H55.4604V23.59H58.1804V10.2H53.5804Z" fill="#005187"/>
<path d="M29.0599 0.719894C28.8999 0.539894 26.6799 1.62989 26.6799 1.62989C26.7099 1.59989 26.7299 1.57989 26.7799 1.54989C27.2199 1.25989 27.8999 0.869894 27.6399 0.559894C27.5099 0.399894 27.2199 0.479894 26.3899 0.999894C25.9999 1.23989 23.9399 2.11989 21.7899 3.05989C20.0399 3.83989 16.8299 5.24989 16.5399 5.58989L16.5099 5.61989C16.4799 5.66989 16.4599 5.71989 16.4299 5.79989C16.3299 6.05989 16.1899 6.44989 16.0899 6.91989V6.96989C16.0899 6.96989 16.0899 7.01989 16.0599 7.06989C15.9299 7.71989 15.7999 8.50989 15.6899 9.38989C15.2999 12.0499 14.9299 15.9999 14.9299 15.9999C14.9299 15.9999 14.8299 18.6899 14.5899 19.9699C14.5399 20.2099 14.4899 20.3899 14.4299 20.5199C14.3999 20.5999 14.3999 20.6499 14.3799 20.6999C14.2999 20.9399 14.1699 21.1699 14.0099 21.3499C13.5099 21.8999 12.3099 21.7199 11.9699 21.6899C11.1899 21.5899 10.4299 21.0399 10.3199 20.8799C10.2199 20.7199 9.6699 19.9899 8.9899 19.9099C8.7799 19.8799 7.9499 20.0399 7.6599 20.0399C7.3699 20.0399 7.0099 19.6199 6.5599 19.5999C6.1199 19.5499 5.4099 19.9899 5.4099 19.9899C5.4099 19.9899 7.1299 20.6399 7.3699 20.9599C7.5799 21.2499 8.0999 21.9999 8.7299 22.2899C9.3599 22.5799 11.5799 25.1399 11.5799 25.1399C11.5799 25.1399 12.0199 25.6099 12.7799 26.2099C12.1299 26.4499 11.4499 26.5999 10.7199 26.6799C5.7099 27.2299 1.4999 23.9099 0.949901 18.9799C0.819901 17.9099 0.899901 16.8099 1.1599 15.7899C1.4699 14.5599 1.9399 13.3599 2.7499 12.3399C4.2399 10.4599 6.2999 9.22989 8.6799 8.96989C10.1399 8.80989 11.6299 9.01989 12.9899 9.56989C12.9899 9.40989 12.9599 9.25989 12.9599 9.09989C11.5999 8.5799 10.1099 8.36989 8.6299 8.54989C6.1799 8.83989 3.9799 10.0399 2.4399 11.9699C1.3199 13.2999 0.659901 14.9199 0.459901 16.6199C0.409901 16.8599 0.409901 17.0399 0.379901 17.3299C0.329901 17.8999 0.349901 18.9999 0.409901 19.5999C0.959901 24.6099 5.4799 28.2199 10.4899 27.6399C11.5599 27.5099 12.5499 27.2199 13.4699 26.7799C14.1999 27.2999 15.0599 27.8799 16.0299 28.2899C18.3799 29.3299 21.2799 29.4399 21.9299 29.5199C23.2599 29.6999 24.4899 31.4299 24.8499 31.7699C25.2199 32.1099 27.7499 31.5599 27.7499 31.5599C27.7499 31.5599 27.5699 31.0399 27.4599 30.3799C27.3499 29.7199 26.6199 29.4099 26.4899 29.2599C26.3599 29.0999 23.0999 27.6099 22.5699 27.2799C22.0499 26.9699 21.3899 26.2599 20.7199 25.1099C20.0499 23.9599 20.3299 23.0699 20.4299 22.8599C20.5599 22.6499 20.8199 22.5999 20.9499 22.3099C21.1099 22.0199 20.9799 21.9999 20.9799 21.8399C20.9799 21.6799 21.0299 21.5799 21.1599 21.3399C21.2899 21.0799 21.2399 21.0999 21.2399 21.0999L21.2699 20.7899C21.2999 20.4799 21.2699 20.7899 21.3199 20.6899L21.3699 20.5899C21.3699 20.5899 21.3399 20.4299 21.4199 20.3299C21.4699 20.2299 21.3399 20.1199 21.3699 19.9899C21.3999 19.8599 21.4199 19.8899 21.4699 19.6199C21.5199 19.3599 21.4999 19.4899 21.4999 19.2299C21.5299 18.9699 21.5799 19.0699 21.7099 18.9199C21.8399 18.7699 21.5799 18.5499 21.5799 18.5499C21.5799 18.5499 21.6099 18.4199 21.8199 17.9499C22.0299 17.4499 21.8199 17.9499 21.8699 17.7399C21.9199 17.5299 21.7899 17.3699 21.7699 17.1699C21.7399 16.9599 21.7999 17.0399 21.8499 16.7799C21.8999 16.5199 21.8499 16.7799 21.9299 16.5399C22.0099 16.2999 21.9799 16.1999 21.9799 16.1999L21.8999 15.7299L21.9799 15.5999C22.0599 15.4399 21.9799 15.1799 21.9799 15.1799L21.7699 14.6099C21.7699 14.6099 21.7699 14.3499 21.7999 14.2199C21.8299 14.0899 21.6199 13.5099 21.6199 13.5099L21.7499 12.9399L21.5699 12.0999L21.4399 11.3899C21.4399 11.3899 21.4099 10.2899 21.4099 9.87989C21.4099 9.46989 21.4099 8.93989 21.4599 8.38989C21.5399 7.81989 23.1599 7.13989 23.3399 6.79989C23.4999 6.48989 22.3499 6.82989 22.3499 6.82989C22.3499 6.82989 24.4099 6.22989 24.5399 5.96989C24.6399 5.78989 23.2099 6.06989 23.2099 6.06989C23.7599 5.93989 25.2499 5.56989 25.7399 5.15989C26.3099 4.65989 24.7499 5.02989 24.4899 5.10989C24.7499 5.02989 26.4699 4.55989 26.7099 4.06989C26.8399 3.77989 25.4299 3.98989 25.4299 3.98989C26.1399 3.80989 26.9999 3.54989 27.5199 3.27989C28.5399 2.75989 28.5899 2.36989 28.4099 2.25989C28.1999 2.15989 26.4999 2.72989 26.4999 2.72989C26.4699 2.75989 26.4499 2.75989 26.4199 2.75989C26.4699 2.72989 26.4999 2.72989 26.4999 2.72989C26.9999 2.54989 27.5199 2.30989 27.8299 2.09989C28.4799 1.57989 29.2899 1.02989 29.0299 0.689894L29.0599 0.719894ZM26.4199 1.75989L26.6299 1.65989C26.5299 1.70989 26.4499 1.75989 26.4199 1.75989Z" fill="#005187"/>
<path d="M24.6798 0.0399521C24.5198 -0.140048 23.4798 0.379952 23.4798 0.379952C23.4798 0.379952 17.1098 3.45995 14.2898 4.99995C13.6898 5.33995 12.9298 5.83995 12.9298 6.82995C12.8998 10.02 13.5298 14.69 13.8398 17.14C14.1498 19.59 14.3598 20.61 14.3598 20.72C14.3898 20.64 14.4898 20.41 14.5698 19.99C14.8298 18.71 14.9098 16.02 14.9098 16.02C14.9098 16.02 15.2998 12.05 15.6698 9.40995C15.9298 7.62995 16.1398 6.19995 16.5098 5.64995C16.7498 5.27995 21.8898 3.05995 22.7798 2.64995C23.8998 2.09995 24.0298 1.93995 24.0598 1.57995C24.0898 1.21995 22.9098 1.60995 22.9098 1.60995C22.9098 1.60995 23.9298 1.05995 24.2898 0.799952C24.6598 0.559952 24.8398 0.249952 24.6798 0.0399521ZM3.41977 11.61L5.06977 9.25995L3.05977 11.27L2.14977 7.87995L2.30977 11.33L0.609766 10.21L2.14977 11.8L0.00976562 12.43L2.17977 12.3L0.369766 14.82L2.50977 12.68L3.39977 15.81L3.23977 12.68L4.85977 13.72L3.28977 12.1L5.45977 11.5L3.41977 11.6V11.61Z" fill="#009FE3"/>
</g>
<defs>
<clipPath id="clip0_5_2199">
<rect width="130.02" height="31.9" fill="white"/>
</clipPath>
</defs>
</svg>
