<svg width="56" height="56" viewBox="0 0 56 56" fill="none" xmlns="http://www.w3.org/2000/svg">
<g clip-path="url(#clip0_1_93)">
<path d="M35.83 25.8H29.24V19.21C29.24 18.26 28.47 17.49 27.52 17.49C26.57 17.49 25.8 18.26 25.8 19.21V25.8H19.21C18.26 25.8 17.49 26.57 17.49 27.52C17.49 28.47 18.26 29.24 19.21 29.24H25.8V35.83C25.8 36.78 26.57 37.55 27.52 37.55C28.47 37.55 29.24 36.78 29.24 35.83V29.24H35.83C36.78 29.24 37.55 28.47 37.55 27.52C37.55 26.57 36.78 25.8 35.83 25.8Z" fill="white"/>
<path d="M27.52 0C12.34 0 0 12.34 0 27.52C0 42.7 12.34 55.04 27.52 55.04C42.7 55.04 55.04 42.7 55.04 27.52C55.04 12.34 42.69 0 27.52 0ZM27.52 51.59C14.24 51.59 3.44 40.79 3.44 27.51C3.44 14.23 14.24 3.44 27.52 3.44C40.8 3.44 51.6 14.24 51.6 27.52C51.6 40.8 40.8 51.6 27.52 51.6V51.59Z" fill="white"/>
</g>
<defs>
<clipPath id="clip0_1_93">
<rect width="55.03" height="55.03" fill="white"/>
</clipPath>
</defs>
</svg>
