<svg width="34" height="20" viewBox="0 0 34 20" fill="none" xmlns="http://www.w3.org/2000/svg">
<g clip-path="url(#clip0_10_417227)">
<path d="M0.956475 0.177778H5.14109C5.14109 0.177778 6.18724 0.177778 6.53098 1.21481C6.87472 2.25185 9.4901 9.31852 11.5675 10.6963C13.6598 12.0741 13.3011 10 13.3011 8.62222V3.0963C13.3011 3.0963 13.3011 1.71852 12.2549 1.37778C11.5226 1.14074 11.5525 0 12.9574 0H18.8756C18.8756 0 19.7424 0 19.7424 0.859259V8.96296C19.7424 8.96296 19.9217 10.6815 21.3116 9.3037C22.3578 8.26667 25.1376 4.47407 25.84 2.75556C26.5424 1.03704 27.2299 0 27.9323 0H32.4607C32.4607 0 33.8505 0.340741 33.1631 1.71852C32.4756 3.0963 29.5314 7.80741 28.9934 8.62222C28.291 9.65926 27.9472 10 27.9472 10.6963C27.9472 11.3926 28.6497 12.0741 29.3371 12.7704C30.0246 13.4667 32.8193 16.563 33.1631 17.2593C33.5068 17.9556 34.8967 20.0148 33.1631 20.0148H28.6347C28.6347 20.0148 27.9323 20.0148 27.2448 19.3185C26.5574 18.6222 23.4189 15.1852 22.3727 14.4889C21.3266 13.7926 19.9367 13.4519 19.9367 14.8296V18.6222C19.9367 18.6222 19.9367 20 17.5007 20C14.3771 20 9.54988 18.3556 5.67911 13.0963C1.83823 7.92593 0.448343 3.45185 0.0896615 2.07407C-0.26902 0.696296 0.448343 0 0.956475 0.177778Z" fill="white"/>
</g>
<defs>
<clipPath id="clip0_10_417227">
<rect width="34" height="20" fill="white"/>
</clipPath>
</defs>
</svg>
