<svg width="71" height="73" viewBox="0 0 71 73" fill="none" xmlns="http://www.w3.org/2000/svg">
<g clip-path="url(#clip0_5_2662)">
<path d="M35.4199 72.82C32.8299 72.82 30.3199 72.53 27.9699 71.94C27.8599 71.91 27.7899 71.8 27.8099 71.68C27.8399 71.57 27.9599 71.49 28.0699 71.52C30.3899 72.09 32.8599 72.38 35.4199 72.38C43.7099 72.38 51.2299 68.83 56.5799 62.38C56.6599 62.29 56.7899 62.28 56.8799 62.35C56.9699 62.43 56.9799 62.56 56.9099 62.65C51.4799 69.2 43.8499 72.81 35.4299 72.81L35.4199 72.82ZM24.7499 70.92C24.7499 70.92 24.6999 70.92 24.6699 70.91C20.3499 69.24 16.6499 66.51 13.6799 62.8C13.6099 62.71 13.6199 62.57 13.7099 62.5C13.7999 62.43 13.9399 62.44 14.0099 62.53C16.9399 66.18 20.5799 68.87 24.8199 70.51C24.9299 70.55 24.9799 70.68 24.9399 70.79C24.9099 70.87 24.8299 70.93 24.7399 70.93L24.7499 70.92ZM35.6299 69.75C34.9099 69.75 33.2599 69.66 32.5399 69.47C32.4299 69.44 32.3599 69.32 32.3899 69.21C32.4199 69.1 32.5399 69.03 32.6499 69.06C33.3199 69.24 34.9499 69.33 35.6299 69.33C42.6799 69.33 48.0499 66.15 51.5899 59.87C52.0099 59.12 52.4099 58.32 52.7799 57.48C52.8299 57.37 52.9499 57.32 53.0599 57.37C53.1699 57.42 53.2199 57.54 53.1699 57.65C52.7899 58.5 52.3899 59.32 51.9599 60.08C48.3399 66.5 42.8399 69.76 35.6299 69.76V69.75ZM29.2199 68.77C29.2199 68.77 29.1699 68.77 29.1499 68.76C24.8099 67.31 21.3399 64.27 18.8399 59.71C18.4199 58.95 18.0299 58.13 17.6599 57.29C17.6099 57.18 17.6599 57.06 17.7699 57.01C17.8799 56.96 17.9999 57.01 18.0499 57.12C18.4099 57.95 18.7999 58.75 19.2099 59.5C21.6599 63.96 25.0399 66.94 29.2799 68.35C29.3899 68.39 29.4499 68.51 29.4199 68.62C29.3899 68.71 29.3099 68.77 29.2199 68.77ZM54.7699 52.59C54.7699 52.59 54.7299 52.59 54.7199 52.59C54.6099 52.56 54.5399 52.44 54.5699 52.33C54.7199 51.75 54.8699 51.14 54.9999 50.54C55.7699 47 56.1599 43.07 56.1599 38.84C56.1599 29.39 54.1199 7.4 35.2699 7.4C28.3999 7.4 23.0699 10.67 19.4499 17.11C16.4199 22.5 14.7499 29.98 14.7499 38.17C14.7499 42.84 15.1999 47.16 16.0999 51.02C16.1299 51.14 16.0599 51.25 15.9399 51.28C15.8299 51.31 15.7099 51.24 15.6799 51.12C14.7799 47.23 14.3199 42.87 14.3199 38.17C14.3199 29.91 16.0099 22.36 19.0699 16.9C22.7699 10.31 28.2199 6.97 35.2599 6.97C54.4999 6.97 56.5799 29.25 56.5799 38.83C56.5799 43.08 56.1899 47.05 55.4099 50.62C55.2799 51.23 55.1299 51.84 54.9799 52.43C54.9499 52.53 54.8699 52.59 54.7699 52.59ZM7.87988 51.21C7.78988 51.21 7.69988 51.15 7.66988 51.06C6.55988 47.18 5.99988 43.01 5.99988 38.64C5.99988 32.53 7.24988 26.6 9.60988 21.49C9.62988 21.44 9.83988 21.22 9.94988 21.27C10.0599 21.32 10.1199 21.41 10.0699 21.52C7.68988 26.61 6.42988 32.53 6.42988 38.64C6.42988 42.96 6.98988 47.1 8.07988 50.94C8.10988 51.05 8.04988 51.17 7.92988 51.2C7.90988 51.2 7.88988 51.2 7.86988 51.2L7.87988 51.21ZM63.0299 50.38C63.0299 50.38 62.9899 50.38 62.9699 50.38C62.8599 50.35 62.7899 50.23 62.8299 50.11C63.9199 46.39 64.4799 42.43 64.4799 38.36C64.4799 32.99 63.5499 27.94 61.7299 23.34L61.6899 23.24C61.6499 23.13 61.7699 23.18 61.8799 23.13C61.9899 23.09 62.0399 22.97 62.0799 23.08C62.0999 23.14 62.1299 23.2 62.1499 23.25C63.9799 27.88 64.8999 32.96 64.8999 38.36C64.8999 42.48 64.3399 46.47 63.2399 50.23C63.2099 50.32 63.1299 50.38 63.0299 50.38ZM59.9399 19.29C59.8699 19.29 59.7899 19.25 59.7499 19.18C59.5999 18.92 59.4499 18.66 59.2999 18.4C58.9899 17.89 58.6699 17.38 58.3399 16.9C58.2699 16.8 58.2999 16.67 58.3999 16.6C58.4999 16.53 58.6299 16.56 58.6999 16.66C59.0299 17.15 59.3599 17.67 59.6699 18.18C59.8299 18.44 59.9799 18.7 60.1299 18.97C60.1899 19.07 60.1499 19.2 60.0499 19.26C60.0199 19.28 59.9799 19.29 59.9499 19.29H59.9399ZM12.7799 16.61C12.7799 16.61 12.6899 16.6 12.6599 16.57C12.5599 16.5 12.5399 16.37 12.6099 16.27C15.9999 11.44 20.5099 7.86 25.6699 5.92C26.5899 5.57 28.9499 4.63 31.0099 3.32C32.9799 2.07 34.6199 0.57 34.6399 0.55L35.1799 0.05C35.2599 -0.03 35.3999 -0.02 35.4799 0.05L35.9899 0.57C35.9899 0.57 37.4999 2.11 39.5099 3.35C41.3999 4.52 43.8199 5.39 45.1199 5.87C50.2199 7.72 54.6899 11.12 58.0499 15.71C58.1199 15.81 58.0999 15.94 57.9999 16.01C57.8999 16.08 57.7699 16.06 57.6999 15.96C54.3899 11.44 49.9899 8.09 44.9699 6.27C43.6599 5.79 41.2099 4.91 39.2799 3.72C37.2499 2.47 35.6899 0.89 35.6799 0.88L35.3099 0.51L34.9199 0.87C34.9199 0.87 33.2499 2.41 31.2299 3.68C29.1399 5.01 26.7499 5.97 25.8099 6.32C20.7299 8.23 16.2799 11.76 12.9499 16.52C12.9099 16.58 12.8399 16.61 12.7699 16.61H12.7799ZM39.4899 71.19C39.5599 71.18 46.0899 70.12 50.8499 64.83C53.2699 62.14 53.7699 60.66 53.2899 57.65L53.2199 57.2C52.9199 55.36 52.8199 54.74 53.6199 53.83C54.0199 53.38 54.3599 53.08 54.6299 52.84C54.9899 52.52 55.2499 52.28 55.3699 51.93C55.4799 51.61 55.4099 51.33 55.3599 51.11C55.3099 50.91 55.2899 50.79 55.3499 50.69C55.3599 50.69 55.4199 50.66 55.5599 50.67C56.0099 50.71 56.7199 51.09 57.0599 51.58C57.5599 52.3 57.9699 53.85 57.9699 53.86C57.9899 53.92 58.0299 53.97 58.0799 54C58.1299 54.03 58.1999 54.03 58.2599 54L59.1399 53.65C59.2499 53.61 59.2999 53.48 59.2599 53.37C59.2199 53.26 59.0899 53.21 58.9799 53.25L58.3199 53.51C58.1799 53.03 57.8399 51.94 57.4099 51.32C56.9599 50.67 56.0399 50.23 55.4899 50.23C55.2099 50.23 55.0699 50.35 55.0099 50.44C54.8399 50.7 54.8999 50.96 54.9599 51.2C55.0099 51.4 55.0499 51.58 54.9899 51.79C54.9099 52.03 54.7099 52.21 54.3699 52.51C54.0899 52.76 53.7499 53.06 53.3299 53.53C52.3899 54.59 52.5199 55.37 52.8299 57.25L52.8999 57.7C53.3699 60.59 52.8999 61.93 50.5699 64.53C45.9199 69.7 39.5299 70.74 39.4599 70.75C39.3399 70.77 39.2599 70.88 39.2799 70.99C39.2999 71.1 39.3899 71.17 39.4899 71.17C39.4999 71.17 39.5099 71.17 39.5199 71.17L39.4899 71.19ZM52.3699 67.04C55.6899 64.48 57.2999 62.19 58.7099 60.17C59.8599 58.53 60.8499 57.12 62.5199 55.92C64.8799 54.23 67.4399 54.55 68.8199 54.72C69.5899 54.82 70.0599 54.87 70.1299 54.5C70.1699 54.32 70.0999 54.11 69.9099 53.87C69.3599 53.13 67.6999 51.99 66.1099 51.83C65.1099 51.73 64.3799 52.26 63.8999 52.82C63.9399 52.51 63.9699 52.16 63.9499 51.8C63.8899 50.58 63.4099 49.84 63.3899 49.81C63.3499 49.75 63.2899 49.7 63.1999 49.72C63.1299 49.72 63.0599 49.76 63.0199 49.83C63.0199 49.83 62.5099 50.73 61.8599 51.1C61.6399 51.23 61.3199 51.27 60.9699 51.31C60.3299 51.38 59.5299 51.48 59.1799 52.26C58.9399 52.8 58.9499 53.51 58.9699 54.25C58.9899 55.04 58.9399 55.83 58.7099 56.49C58.0799 58.3 56.8699 59.21 56.8499 59.23C56.7599 59.3 56.8299 59.35 56.9199 59.28C56.9799 59.23 58.4999 58 59.0999 56.67C59.4299 55.94 59.4099 55.08 59.3999 54.24C59.3899 53.54 59.3699 52.89 59.5799 52.43C59.8299 51.87 60.4099 51.8 61.0199 51.73C61.4099 51.68 61.7799 51.64 62.0799 51.47C62.5599 51.19 62.9599 50.69 63.1899 50.36C63.3199 50.66 63.4899 51.17 63.5299 51.83C63.5899 52.94 63.1999 53.97 63.1899 53.98C63.1499 54.09 63.1999 54.21 63.3099 54.26C63.4199 54.3 63.5399 54.26 63.5899 54.14C63.5899 54.12 64.4299 52.12 66.0799 52.27C67.4899 52.41 69.0599 53.45 69.5699 54.14C69.6599 54.26 69.6899 54.34 69.6999 54.38C69.5499 54.4 69.1899 54.35 68.8599 54.31C67.4199 54.13 64.7499 53.8 62.2599 55.59C60.5299 56.83 59.5199 58.27 58.3499 59.94C56.9499 61.94 55.3699 64.2 52.0999 66.72C52.0099 66.79 51.9899 66.93 52.0599 67.02C52.0999 67.07 52.1699 67.1 52.2299 67.1C52.2799 67.1 52.3199 67.09 52.3599 67.06L52.3699 67.04ZM12.0799 53.99C12.1299 53.96 12.1699 53.91 12.1899 53.85C12.1899 53.83 12.5999 52.29 13.0999 51.57C13.4399 51.08 14.1499 50.71 14.5999 50.66C14.7399 50.65 14.7999 50.67 14.8099 50.68C14.8199 50.7 14.8199 50.71 14.8199 50.71C14.8199 50.73 14.7599 50.8 14.7199 50.85C14.5899 51 14.3799 51.25 14.5099 51.64C14.5499 51.75 14.6699 51.81 14.7799 51.78C14.8899 51.74 14.9499 51.62 14.9199 51.51C14.8699 51.36 14.9199 51.28 15.0499 51.13C15.1699 50.99 15.3599 50.76 15.1599 50.46C15.0999 50.36 14.9599 50.25 14.6799 50.25C14.1299 50.25 13.1999 50.7 12.7599 51.34C12.3299 51.96 11.9899 53.05 11.8499 53.53L11.1899 53.27C11.0799 53.23 10.9599 53.27 10.9099 53.39C10.8699 53.5 10.9099 53.62 11.0299 53.67L11.9099 54.02C11.9099 54.02 11.9599 54.04 11.9899 54.04C12.0199 54.04 12.0599 54.04 12.0899 54.02L12.0799 53.99ZM26.9899 70.26C27.0399 70.15 26.9899 70.03 26.8799 69.98C24.4199 68.91 21.8299 67.65 19.5999 65.17C17.2999 62.62 16.9599 60.53 17.1299 57.58C17.1299 57.46 17.1399 57.34 17.1499 57.22C17.1499 57.1 17.0699 57 16.9499 56.99C16.8299 56.99 16.7299 57.07 16.7199 57.19C16.7199 57.31 16.6999 57.43 16.6999 57.55C16.5299 60.55 16.8899 62.81 19.2799 65.45C21.5699 67.99 24.1999 69.27 26.6999 70.36C26.7299 70.37 26.7599 70.38 26.7899 70.38C26.8699 70.38 26.9499 70.33 26.9899 70.25V70.26ZM17.8999 66.71C17.9699 66.62 17.9599 66.48 17.8599 66.41C17.0699 65.8 15.9199 64.86 15.0099 63.79C14.2199 62.86 13.4799 61.88 12.7699 60.93C11.2399 58.88 9.78988 56.95 7.85988 55.56C5.36988 53.77 2.68988 54.1 1.25988 54.28C0.939881 54.32 0.569881 54.36 0.419881 54.35C0.429881 54.3 0.469881 54.23 0.549881 54.11C1.05988 53.42 2.63988 52.38 4.03988 52.24C5.67988 52.08 6.51988 54.09 6.52988 54.11C6.56988 54.22 6.69988 54.27 6.80988 54.23C6.91988 54.19 6.96988 54.06 6.92988 53.95C6.92988 53.94 6.53988 52.92 6.58988 51.8C6.61988 51.14 6.78988 50.63 6.92988 50.33C7.15988 50.66 7.55988 51.16 8.03988 51.44C8.33988 51.61 8.69988 51.66 9.09988 51.7C9.70988 51.77 10.2899 51.84 10.5399 52.4C10.7399 52.86 10.7299 53.51 10.7199 54.21C10.6999 55.04 10.6899 55.91 11.0199 56.64C11.6199 57.96 13.1299 59.19 13.1999 59.25C13.2899 59.32 13.3299 59.25 13.2399 59.17C13.2299 59.16 11.9099 57.98 11.3599 56.6C11.0999 55.95 11.1399 55.01 11.1599 54.22C11.1799 53.47 11.1899 52.77 10.9499 52.23C10.5999 51.45 9.79988 51.35 9.15988 51.28C8.80988 51.24 8.48988 51.2 8.26988 51.07C7.61988 50.69 7.11988 49.81 7.10988 49.8C7.06988 49.74 7.00988 49.69 6.92988 49.69C6.84988 49.69 6.78988 49.72 6.73988 49.78C6.71988 49.81 6.23988 50.55 6.17988 51.77C6.15988 52.13 6.17988 52.48 6.22988 52.79C5.74988 52.23 5.01988 51.7 4.01988 51.8C2.43988 51.95 0.769881 53.1 0.219881 53.84C0.0398807 54.08 -0.0301193 54.29 -0.000119313 54.47C0.0798807 54.85 0.539881 54.79 1.30988 54.69C2.68988 54.52 5.24988 54.2 7.60988 55.89C9.47988 57.24 10.9099 59.14 12.4199 61.16C13.1399 62.12 13.8799 63.11 14.6799 64.04C15.6099 65.13 16.7899 66.09 17.5899 66.72C17.6299 66.75 17.6799 66.77 17.7199 66.77C17.7799 66.77 17.8499 66.74 17.8899 66.69L17.8999 66.71ZM19.3099 56.53C20.1899 55.86 20.7399 54.67 20.7899 53.34C20.8399 51.77 20.1799 50.28 18.9899 49.25C17.3799 47.86 15.4199 47.88 15.3399 47.88C15.2199 47.88 15.1299 47.98 15.1299 48.1C15.1299 48.22 15.2299 48.31 15.3399 48.31C15.3399 48.31 17.2199 48.3 18.7099 49.58C19.8099 50.53 20.4099 51.9 20.3599 53.34C20.3199 54.54 19.8299 55.61 19.0499 56.21C18.0999 56.93 16.4399 57.07 15.2599 56.52C14.6399 56.23 13.9499 55.61 13.8399 54.4C13.7499 53.35 14.0599 52.55 14.6499 52.04C15.7499 51.08 17.6199 51.41 17.6399 51.41C17.7199 51.42 17.7899 51.4 17.8399 51.34C17.8899 51.28 17.8999 51.2 17.8699 51.13C17.8599 51.09 17.5099 50.24 16.8699 49.82C16.2499 49.42 15.6099 49.3 15.5899 49.3C15.4699 49.28 15.3599 49.36 15.3399 49.47C15.3199 49.59 15.3999 49.7 15.5099 49.72C15.5099 49.72 16.0899 49.82 16.6299 50.18C16.9299 50.37 17.1599 50.7 17.2999 50.95C16.6299 50.9 15.2899 50.91 14.3599 51.72C13.6699 52.32 13.2899 53.23 13.3999 54.42C13.5099 55.54 14.0399 56.43 15.0599 56.91C15.5999 57.16 16.2299 57.28 16.8599 57.28C17.7599 57.28 18.6599 57.03 19.2899 56.55L19.3099 56.53ZM8.21988 23.45C8.12988 23.45 8.03988 23.44 7.98988 23.4C7.90988 23.35 7.87988 23.31 7.87988 23.08C7.87988 22.88 7.57988 21.92 6.32988 21.37C4.59988 20.6 3.21988 18.92 2.51988 17.53C1.80988 16.11 1.20988 12.27 2.97988 9.42C4.27988 7.33 6.50988 6.26 9.62988 6.26C12.7499 6.26 15.6699 7.65 18.1899 10.4C18.2699 10.49 18.2599 10.62 18.1799 10.7C18.0899 10.78 17.9599 10.77 17.8799 10.69C15.4399 8.03 12.6699 6.68 9.62988 6.68C6.58988 6.68 4.55988 7.67 3.34988 9.63C1.69988 12.3 2.25988 16.02 2.90988 17.33C3.64988 18.82 5.03988 20.37 6.49988 20.97C7.83988 21.52 8.12988 22.41 8.22988 22.68C8.27988 22.8 8.29988 22.91 8.30988 23.01C8.49988 22.98 8.82988 22.87 8.94988 22.68C9.23988 22.23 8.85988 21.54 8.84988 21.53C8.80988 21.46 8.80988 21.37 8.84988 21.31C8.88988 21.24 8.96988 21.21 9.04988 21.22C9.06988 21.22 11.0499 21.44 12.2799 20.23C13.3299 19.2 13.1199 17.49 12.6399 16.61C12.4199 16.2 12.1199 16.05 11.9499 16.11C11.7899 16.17 11.7399 16.41 11.7999 16.72C11.9399 17.37 12.1299 18.25 11.6799 18.81C11.4099 19.14 10.9499 19.31 10.3099 19.31C8.45988 19.31 7.65988 18.46 7.63988 18.43C7.59988 18.37 7.83988 18.43 7.86988 18.36C7.89988 18.29 7.95988 18.24 8.02988 18.23C8.26988 18.18 8.90988 17.98 9.01988 17.62C9.06988 17.46 9.06988 17.3 9.04988 17.16C9.03988 17.18 9.01988 17.19 8.99988 17.21C8.79988 17.4 8.52988 17.49 8.17988 17.47C7.73988 17.45 6.93988 17.04 6.22988 16.2C5.68988 15.56 4.81988 14.17 5.06988 12.12C5.21988 10.9 5.79988 9.95 6.75988 9.38C7.96988 8.66 9.76988 8.59 11.3499 9.22C12.5599 9.7 14.1599 11.04 15.6499 12.81C15.7299 12.9 15.7099 13.04 15.6199 13.11C15.5299 13.19 15.3899 13.17 15.3199 13.08C13.8799 11.36 12.3299 10.06 11.1899 9.61C9.73988 9.04 8.07988 9.09 6.97988 9.74C6.12988 10.24 5.62988 11.06 5.49988 12.16C5.26988 14.05 6.06988 15.32 6.55988 15.91C7.14988 16.61 7.83988 17.01 8.19988 17.03C8.41988 17.04 8.58988 16.99 8.69988 16.89C8.84988 16.75 8.85988 16.54 8.85988 16.54C8.85988 16.44 8.92988 16.36 9.01988 16.34C9.10988 16.32 9.20988 16.36 9.25988 16.44C9.27988 16.47 9.62988 17.09 9.42988 17.74C9.29988 18.16 8.86988 18.4 8.52988 18.53C8.81988 18.69 9.36988 18.89 10.3099 18.89C10.8099 18.89 11.1599 18.77 11.3399 18.55C11.6599 18.15 11.4999 17.38 11.3699 16.82C11.2299 16.17 11.5099 15.82 11.7799 15.72C12.1299 15.59 12.6399 15.75 12.9899 16.41C13.5299 17.41 13.7599 19.35 12.5499 20.54C11.4999 21.58 10.0099 21.68 9.32988 21.67C9.43988 22 9.53988 22.5 9.26988 22.92C9.05988 23.25 8.52988 23.45 8.18988 23.45H8.21988ZM9.22988 21.51C9.26988 21.4 9.21988 21.28 9.10988 21.23C6.66988 20.27 5.19988 19.37 3.96988 17.08C2.43988 14.24 3.83988 10.38 3.85988 10.34C3.90988 10.23 3.92988 10.17 3.94988 10.14C3.97988 10.1 3.89988 10.16 3.81988 10.31C3.73988 10.47 1.95988 14.25 3.58988 17.28C4.87988 19.67 6.46988 20.65 8.94988 21.62C8.97988 21.62 8.99988 21.63 9.02988 21.63C9.11988 21.63 9.19988 21.58 9.22988 21.49V21.51ZM8.41988 18.62C8.46988 18.51 8.41988 18.43 8.30988 18.38C8.26988 18.36 4.67988 16.76 4.67988 13.1C4.67988 11.19 5.35988 9.98 5.91988 9.3C6.53988 8.56 7.15988 8.27 7.16988 8.27C7.27988 8.22 7.23988 8.19 7.12988 8.24C7.01988 8.29 4.25988 9.49 4.24988 13.1C4.23988 17.05 8.13988 18.79 8.17988 18.8C8.20988 18.81 8.19988 18.75 8.22988 18.75C8.30988 18.75 8.38988 18.7 8.42988 18.62H8.41988ZM12.5299 18.27C12.5299 17.59 11.8399 16.73 11.7699 16.63C11.6999 16.54 11.5599 16.53 11.4699 16.6C11.3799 16.67 11.3699 16.81 11.4399 16.9C11.6299 17.13 12.1099 17.82 12.1099 18.27C12.1099 18.85 11.8899 20.2 9.83988 20.2C7.54988 20.2 5.31988 17.79 5.29988 17.76C5.22988 17.67 5.17988 17.61 5.15988 17.61C5.15988 17.61 5.15988 17.66 5.23988 17.78C5.31988 17.9 7.33988 20.63 9.82988 20.63C12.3199 20.63 12.5299 18.83 12.5299 18.28V18.27ZM61.8899 23.44C61.5499 23.44 61.0199 23.24 60.8099 22.91C60.5399 22.49 60.6299 21.98 60.7499 21.66C60.0699 21.67 58.5899 21.57 57.5299 20.53C56.3199 19.34 56.5499 17.4 57.0899 16.4C57.4499 15.74 57.9599 15.58 58.2999 15.71C58.5799 15.81 58.8599 16.17 58.7099 16.81C58.5899 17.37 58.4199 18.14 58.7399 18.54C58.9199 18.77 59.2699 18.88 59.7699 18.88C60.7099 18.88 61.2599 18.68 61.5499 18.52C61.2099 18.39 60.7799 18.15 60.6499 17.74C60.4499 17.09 60.7999 16.46 60.8199 16.44C60.8699 16.36 60.9699 16.32 61.0599 16.34C61.1499 16.37 61.2199 16.45 61.2199 16.55C61.2199 16.55 61.2199 16.76 61.3799 16.9C61.4899 17 61.6599 17.05 61.8799 17.04C62.2399 17.02 62.9299 16.62 63.5199 15.92C64.0199 15.33 64.8199 14.06 64.5799 12.17C64.4399 11.07 63.9499 10.25 63.0999 9.75C61.9999 9.09 60.3399 9.04 58.8899 9.62C57.8599 10.03 56.5099 11.11 55.1799 12.59C55.0999 12.68 54.9699 12.69 54.8799 12.61C54.7899 12.53 54.7799 12.4 54.8599 12.31C56.2299 10.78 57.6399 9.65 58.7299 9.22C60.2999 8.6 62.0999 8.66 63.3199 9.38C64.2699 9.95 64.8599 10.89 65.0099 12.12C65.2599 14.17 64.3899 15.55 63.8499 16.2C63.1399 17.04 62.3499 17.45 61.8999 17.47C61.5499 17.49 61.2799 17.4 61.0799 17.21C61.0599 17.19 61.0499 17.18 61.0299 17.16C61.0099 17.3 61.0099 17.46 61.0599 17.62C61.1699 17.99 61.8199 18.19 62.0499 18.23C62.1199 18.24 62.1799 18.29 62.2099 18.36C62.2399 18.43 62.3599 18.43 62.3199 18.49C62.2999 18.52 61.6199 19.31 59.7699 19.31C59.1299 19.31 58.6699 19.14 58.3999 18.81C57.9499 18.25 58.1399 17.37 58.2799 16.72C58.3499 16.41 58.2899 16.17 58.1299 16.11C57.9599 16.05 57.6599 16.2 57.4399 16.61C56.9599 17.49 56.7499 19.2 57.7999 20.23C59.0299 21.44 61.0099 21.22 61.0299 21.22C61.1099 21.22 61.1899 21.25 61.2299 21.31C61.2699 21.37 61.2799 21.46 61.2299 21.53C61.2299 21.53 60.8399 22.23 61.1299 22.68C61.2499 22.87 61.5899 22.99 61.7799 23.01C61.8299 22.71 62.0999 22.32 62.1699 22.23C62.4299 21.88 62.9199 21.47 63.6499 21.05C65.0799 20.24 66.4499 18.76 67.1699 17.33C67.8499 15.97 68.4399 12.33 66.7899 9.65C65.5799 7.68 63.4399 6.68 60.4499 6.68C57.4599 6.68 54.9099 7.9 52.5599 10.31C52.4799 10.4 52.3399 10.4 52.2599 10.31C52.1799 10.23 52.1699 10.09 52.2599 10.01C54.6999 7.52 57.4499 6.25 60.4599 6.25C63.6099 6.25 65.8699 7.32 67.1599 9.42C68.7699 12.03 68.4299 15.8 67.5599 17.52C66.7899 19.05 65.5099 20.48 63.8699 21.44C62.7699 22.08 62.2199 22.9 62.1999 23.08C62.1899 23.27 62.1999 23.32 62.0799 23.39C62.0199 23.42 61.9399 23.44 61.8499 23.44H61.8899ZM61.1499 21.62C63.6299 20.65 65.2199 19.67 66.5099 17.28C68.1399 14.25 66.5099 10.97 66.4399 10.83C66.3899 10.72 66.3499 10.68 66.3499 10.68C66.3299 10.68 66.3699 10.75 66.4099 10.87C66.4199 10.9 67.6599 14.24 66.1299 17.08C64.8999 19.37 63.4299 20.27 60.9899 21.23C60.8799 21.27 60.8299 21.4 60.8699 21.51C60.8999 21.59 60.9799 21.65 61.0699 21.65C61.0999 21.65 61.1199 21.65 61.1499 21.64V21.62ZM61.8999 18.79C61.8999 18.79 65.8699 17.03 65.8699 13.08C65.8699 9.13 63.0799 8.17 62.9699 8.12C62.8599 8.07 62.7999 8.06 62.7999 8.06C62.7999 8.08 62.8799 8.13 62.9899 8.17C62.9899 8.17 63.6099 8.48 64.2299 9.21C64.7999 9.89 65.4499 11.16 65.4499 13.07C65.4499 16.73 61.8399 18.34 61.8099 18.36C61.6999 18.41 61.6599 18.49 61.7099 18.6C61.7399 18.68 61.8199 18.73 61.9099 18.73C61.9399 18.73 61.8899 18.79 61.9199 18.78L61.8999 18.79ZM64.8499 17.78C64.9199 17.69 64.9699 17.61 64.9599 17.6C64.9299 17.59 64.8799 17.67 64.8099 17.76C64.7899 17.79 62.5799 20.19 60.2899 20.19C58.2399 20.19 58.0199 18.84 58.0199 18.26C58.0199 17.81 58.4999 17.12 58.6899 16.89C58.7599 16.8 58.7499 16.66 58.6599 16.59C58.5699 16.52 58.4299 16.53 58.3599 16.62C58.2799 16.72 57.5899 17.57 57.5899 18.26C57.5899 18.81 57.7799 20.61 60.2899 20.61C62.7999 20.61 64.7699 17.88 64.8599 17.77L64.8499 17.78ZM28.2399 71.84C30.9199 71.15 32.8799 69.12 34.1099 67.65C35.7499 65.7 37.2399 61.67 37.2999 61.5C37.4199 61.14 49.1699 25.54 51.4499 18.7C51.5999 18.24 51.7999 17.76 52.0299 17.27C52.0599 17.2 52.0599 17.12 52.0099 17.06L49.7899 13.78C49.7499 13.72 49.6799 13.68 49.6099 13.69C49.5399 13.69 49.4699 13.73 49.4299 13.79C47.7499 16.57 46.9499 19.12 46.9499 19.14L35.0099 53.37L23.1599 19.13C23.1599 19.13 22.4799 16.95 21.0599 14.44C21.0199 14.37 20.9499 14.33 20.8799 14.33C20.7999 14.33 20.7299 14.37 20.6899 14.43L18.5199 18.09C18.4899 18.15 18.4799 18.21 18.4999 18.27C18.5499 18.41 18.5999 18.55 18.6499 18.68C20.5599 24.43 28.8299 49.21 32.3099 59.62C32.3199 59.69 32.3499 59.76 32.3799 59.84C32.4499 60.02 32.5399 60.27 32.5599 60.67L31.0199 65.23C29.5099 69.21 26.4999 70.37 24.2399 70.65C19.3799 71.24 15.0699 69.83 11.4499 66.46C7.01988 62.33 7.94988 55.83 7.95988 55.77C7.97988 55.65 7.89988 55.54 7.77988 55.53C7.65988 55.51 7.54988 55.59 7.53988 55.71C7.52988 55.78 6.55988 62.5 11.1599 66.78C14.8799 70.24 19.2999 71.69 24.2899 71.08C26.6699 70.79 29.8399 69.57 31.4299 65.38L32.9799 60.78C32.9799 60.78 32.9899 60.73 32.9899 60.71C32.9799 60.22 32.8599 59.91 32.7899 59.71C32.7699 59.64 32.7399 59.59 32.7299 59.54C32.7299 59.54 32.7299 59.52 32.7299 59.51C29.2599 49.11 20.9799 24.31 19.0699 18.56C19.0299 18.45 18.9899 18.34 18.9499 18.23L20.8699 14.98C22.1399 17.3 22.7399 19.24 22.7499 19.27L34.8099 54.08C34.8399 54.17 34.9199 54.22 35.0099 54.22C35.0999 54.22 35.1799 54.16 35.2099 54.08L47.3499 19.27C47.3499 19.27 48.0799 16.92 49.6199 14.3L51.5799 17.2C51.3599 17.67 51.1799 18.13 51.0299 18.56C48.7599 25.4 36.9999 61 36.8799 61.35C36.8599 61.39 35.3599 65.47 33.7599 67.37C32.5599 68.79 30.6799 70.76 28.1099 71.42C21.5799 73.1 16.2299 72.12 11.2599 68.35C5.12988 63.7 6.49988 55.31 6.51988 55.23C6.53988 55.11 6.45988 55 6.34988 54.98C6.22988 54.96 6.11988 55.04 6.09988 55.15C6.07988 55.24 4.66988 63.88 10.9999 68.69C14.4899 71.34 18.1699 72.64 22.2899 72.64C24.1699 72.64 26.1399 72.37 28.2199 71.83L28.2399 71.84ZM26.3299 71.9C30.3399 70.99 32.2899 67.01 33.0899 64.72C33.1599 64.51 33.0499 64.28 32.8399 64.21C32.6299 64.14 32.3999 64.25 32.3299 64.46C31.5799 66.59 29.7899 70.3 26.1499 71.12C21.3399 72.21 17.1099 71.51 13.2299 68.98C10.4299 67.16 8.81988 65.4 8.01988 63.28C6.73988 59.89 6.79988 57.24 6.99988 55.31C7.01988 55.09 6.85988 54.89 6.63988 54.87C6.41988 54.85 6.21988 55.01 6.19988 55.23C5.98988 57.25 5.92988 60.03 7.26988 63.57C8.13988 65.86 9.83988 67.74 12.7899 69.66C15.6299 71.51 18.6399 72.43 21.9099 72.43C23.3299 72.43 24.7999 72.26 26.3299 71.91V71.9ZM15.3699 48.58C15.3699 48.58 17.0499 48.3 19.0699 49.91C20.0499 50.69 18.3399 48.88 17.6299 48.55C16.9199 48.21 15.3699 48 15.2999 48.02C15.2299 48.04 15.3699 48.59 15.3699 48.59V48.58ZM36.1199 64.1L49.4799 23.96C49.4799 23.96 50.1599 21.23 51.4899 18.08C51.6299 17.75 51.7799 17.43 51.9299 17.1C51.9299 17.09 51.9199 17.08 51.9099 17.06C51.5499 16.36 50.7799 15.32 50.1999 14.54C49.4299 15.73 48.8099 16.84 48.2499 18.45C46.1999 24.3 39.9799 42.21 35.4499 55.28C34.0699 51.35 25.7299 27.54 22.6399 18.74C22.0899 17.18 21.4799 15.75 20.7099 14.58L19.2099 17.36C19.3699 17.77 21.3299 23.58 21.3299 23.58L33.6199 60.58C32.6399 63.41 31.8199 65.79 31.2499 67.45C30.2199 70.45 25.9899 72.04 25.9899 72.04C25.9899 72.04 30.2899 71.11 32.1799 69.47C33.4899 68.33 36.1299 64.09 36.1299 64.09L36.1199 64.1ZM28.4199 69.11C22.8899 67.11 19.2299 62.7 16.9399 57.21H16.7999C16.5599 63.03 20.2999 67.94 26.4199 70.3C26.5999 70.37 28.6399 69.19 28.4299 69.11H28.4199ZM19.4699 53.45C19.7599 51.69 18.9499 50.44 18.7299 50.64C18.7099 50.66 19.0899 51.07 18.9199 51.93C18.7999 52.55 18.3299 53.17 17.5399 53C17.2299 52.93 17.1299 52.37 16.6199 52.37C15.6399 52.37 15.0399 52.94 15.0399 53.93C15.0399 54.92 15.9199 55.72 16.9999 55.72C18.0799 55.72 19.2299 54.84 19.4599 53.45H19.4699ZM16.0399 12.5L17.4999 11.15C14.3699 8.52 11.3799 7.66 9.52988 7.92C5.77988 8.44 5.42988 11.22 5.42988 11.22C5.42988 11.22 6.44988 8.75 9.55988 8.75C12.1599 8.75 14.3199 10.34 16.0399 12.49V12.5ZM60.5699 7.93C59.1599 7.74 56.1499 8.4 53.2699 10.79L54.9399 12.42C55.6799 11.56 56.4699 10.81 57.3299 10.22C58.3499 9.51 59.6299 8.96 60.8499 8.96C63.9599 8.96 64.8499 11.46 64.8499 11.46C64.8499 11.46 64.4099 8.44 60.5699 7.93ZM57.1799 19.72C56.6099 18.65 57.3499 16.43 57.3499 16.43C54.1599 12.02 49.9099 8.65 44.7699 6.79C43.3799 6.29 40.9299 5.39 38.9799 4.19C36.8499 2.88 35.2799 1.27 35.2799 1.27C35.2799 1.27 33.5899 2.83 31.5199 4.14C29.6099 5.36 27.3699 6.31 25.9999 6.83C20.7299 8.81 16.3399 12.48 13.1099 17.26C13.1099 17.26 13.6899 18.59 12.7699 20.05C12.2399 20.89 10.7799 21.32 10.7799 21.32C8.31988 26.38 6.97988 32.31 6.97988 38.63C6.97988 43.17 7.58988 47.48 8.78988 51.41C9.00988 51.47 9.16988 51.51 9.26988 51.52C10.0099 51.59 10.4099 51.21 10.7599 52.33L11.1099 53.45L11.9899 53.8C11.9899 53.8 12.5599 51.45 13.4599 50.9C14.3199 50.37 14.9099 50.33 15.0599 50.77C14.1599 46.71 13.7899 42.38 13.7899 38.17C13.7899 23.07 19.4899 6.43 35.2799 6.43C52.1899 6.43 57.1399 23.26 57.1399 38.84C57.1399 42.77 56.7899 46.75 55.9999 50.49C56.0799 50.53 56.1599 50.57 56.2399 50.63C56.9999 51.25 57.4899 51.32 57.7599 52.22C57.8199 52.42 58.0299 53.67 58.2999 53.67C58.4699 53.67 58.7499 53.48 58.9599 53.43C59.1699 53.38 59.3699 52.38 59.4999 52.19C59.7099 51.89 60.1999 51.8 60.1999 51.8L61.8599 51.4C63.2199 47.39 63.9399 42.98 63.9399 38.35C63.9399 32.17 62.6699 26.37 60.2999 21.41C60.2999 21.41 58.1099 21.41 57.1899 19.72H57.1799ZM35.1999 5.23C34.6599 5.23 34.2299 4.79 34.2299 4.26C34.2299 3.73 34.6699 3.29 35.1999 3.29C35.7299 3.29 36.1699 3.73 36.1699 4.26C36.1699 4.79 35.7299 5.23 35.1999 5.23ZM53.2299 58.61C49.9699 65.48 44.3799 70.28 35.5399 70.28C34.4399 70.28 32.8399 70.1 31.8299 69.96C31.4099 70.17 31.2999 70.22 30.9699 70.36C30.4499 70.58 30.1199 71.09 29.7299 71.25C31.4099 71.6 33.2299 71.79 35.1799 71.79C42.9199 71.79 48.1999 68.44 51.9499 63.42C53.3499 61.55 53.0399 59.77 53.2599 59.05C53.2599 59.05 53.4399 58.14 53.2199 58.6L53.2299 58.61Z" fill="white"/>
</g>
<defs>
<clipPath id="clip0_5_2662">
<rect width="70.13" height="72.82" fill="white"/>
</clipPath>
</defs>
</svg>
