<svg width="17" height="28" viewBox="0 0 17 28" fill="none" xmlns="http://www.w3.org/2000/svg">
<g clip-path="url(#clip0_10_417221)">
<path d="M8.60936 0C12.8125 0.045283 16.25 3.23019 16.2656 7.42642C16.2656 11.517 12.9531 14.8377 8.59373 14.8679C4.29686 14.883 0.828106 11.5472 0.874981 7.33585C0.937481 3.29057 4.31248 0 8.60936 0ZM8.60936 4.46792C6.89061 4.42264 5.53123 5.70566 5.48436 7.39623C5.43748 8.98113 6.79686 10.3698 8.42186 10.4151C10.1406 10.4604 11.6094 9.17736 11.6406 7.59245C11.6875 5.84151 10.3906 4.49811 8.60936 4.45283V4.46792Z" fill="white"/>
<path d="M11.672 20.2868C12.1251 20.7698 12.5938 21.2981 13.0938 21.7811C14.0001 22.6566 14.9532 23.4868 15.8438 24.3774C16.422 24.966 16.5313 25.7057 16.2813 26.4604C16.0157 27.2604 15.4376 27.7736 14.5626 27.9245C13.8126 28.0604 13.172 27.8792 12.5938 27.3811C11.3126 26.2491 10.0313 25.1321 8.73446 24C8.65634 23.9245 8.57821 23.8642 8.48446 23.7887C7.59384 24.5585 6.71883 25.3283 5.85946 26.083C5.31258 26.566 4.79696 27.0792 4.21883 27.517C3.56258 28.0151 2.81258 28.1057 2.03133 27.8189C1.28133 27.5321 0.79696 26.9736 0.64071 26.2038C0.48446 25.4189 0.718835 24.7396 1.32821 24.1811C2.60946 23.0038 3.87508 21.7962 5.15633 20.6189C5.25008 20.5283 5.35946 20.4679 5.50008 20.3774C4.59383 20.0906 3.76571 19.8792 2.98446 19.5774C2.14071 19.2604 1.26571 18.9434 0.625085 18.2943C8.4504e-05 17.6604 -0.156165 16.8755 0.17196 16.0453C0.500085 15.2151 1.17196 14.7321 2.07821 14.6566C2.40633 14.6264 2.78133 14.7774 3.07821 14.9132C4.17196 15.4415 5.29696 15.8642 6.51571 16.0453C7.65634 16.2264 8.79696 16.2566 9.95321 16.1208C11.3907 15.9547 12.7188 15.5019 14.0157 14.883C14.8907 14.4604 15.8126 14.6717 16.4376 15.3811C17.3751 16.4528 17.1251 17.9623 15.8595 18.717C14.7345 19.3811 13.0001 20.0453 11.6876 20.3019L11.672 20.2868Z" fill="white"/>
</g>
<defs>
<clipPath id="clip0_10_417221">
<rect width="17" height="28" fill="white"/>
</clipPath>
</defs>
</svg>
