<svg width="545" height="1003" viewBox="0 0 545 1003" fill="none" xmlns="http://www.w3.org/2000/svg">
<g style="mix-blend-mode:multiply" opacity="0.1">
<mask id="mask0_1_133" style="mask-type:luminance" maskUnits="userSpaceOnUse" x="-9" y="0" width="554" height="1003">
<path d="M544.71 0H-8.08997V1002.54H544.71V0Z" fill="white"/>
</mask>
<g mask="url(#mask0_1_133)">
<path d="M-1.85986 994.3C-37.1799 994.3 -71.2999 990.29 -103.28 982.38C-104.84 982 -105.79 980.42 -105.4 978.86C-105.01 977.3 -103.41 976.33 -101.88 976.74C-70.3599 984.54 -36.7099 988.49 -1.85986 988.49C111.03 988.49 213.31 940.13 286.14 852.31C287.17 851.07 289 850.91 290.24 851.93C291.48 852.96 291.65 854.79 290.62 856.03C216.66 945.2 112.79 994.31 -1.86987 994.31L-1.85986 994.3ZM-147.08 968.43C-147.43 968.43 -147.79 968.37 -148.13 968.23C-206.9 945.47 -257.25 908.32 -297.78 857.81C-298.78 856.56 -298.59 854.72 -297.33 853.72C-296.08 852.72 -294.24 852.92 -293.24 854.17C-253.36 903.87 -203.83 940.41 -146.03 962.8C-144.53 963.38 -143.79 965.07 -144.37 966.56C-144.82 967.71 -145.92 968.42 -147.08 968.42V968.43ZM1.07013 952.45C-8.75986 952.45 -31.2199 951.16 -40.9699 948.6C-42.5299 948.19 -43.4499 946.6 -43.0399 945.05C-42.6399 943.49 -41.0499 942.54 -39.4899 942.98C-30.3499 945.38 -8.21988 946.64 1.07013 946.64C97.0001 946.64 170.1 903.31 218.32 817.85C224.06 807.67 229.53 796.71 234.57 785.27C235.22 783.79 236.95 783.14 238.41 783.78C239.88 784.43 240.55 786.14 239.9 787.62C234.79 799.23 229.23 810.37 223.39 820.72C174.06 908.14 99.2601 952.47 1.07013 952.47V952.45ZM-86.2399 939.14C-86.5499 939.14 -86.8499 939.09 -87.1599 938.99C-146.31 919.31 -193.55 877.84 -227.56 815.74C-233.26 805.35 -238.64 794.26 -243.58 782.78C-244.21 781.31 -243.53 779.59 -242.05 778.96C-240.58 778.35 -238.87 779.01 -238.23 780.49C-233.37 791.79 -228.07 802.71 -222.46 812.94C-189.17 873.72 -143.03 914.27 -85.3199 933.47C-83.7999 933.98 -82.9699 935.62 -83.4799 937.15C-83.8799 938.37 -85.0199 939.14 -86.2399 939.14ZM261.56 718.9C261.31 718.9 261.06 718.87 260.81 718.8C259.26 718.39 258.33 716.8 258.74 715.25C260.84 707.31 262.8 699.11 264.59 690.89C275.06 642.7 280.37 589.13 280.37 531.68C280.37 403 252.66 103.71 -4.00989 103.71C-97.5999 103.71 -170.05 148.18 -219.35 235.89C-260.59 309.28 -283.31 411.09 -283.31 522.56C-283.31 586.12 -277.13 644.99 -264.94 697.52C-264.58 699.09 -265.55 700.65 -267.12 701.01C-268.66 701.36 -270.24 700.41 -270.61 698.83C-282.9 645.86 -289.13 586.55 -289.13 522.55C-289.13 410.1 -266.15 307.28 -224.43 233.03C-174.03 143.35 -99.8699 97.88 -4.0199 97.88C257.9 97.88 286.18 401.24 286.18 531.66C286.18 589.53 280.83 643.51 270.27 692.11C268.47 700.41 266.48 708.69 264.36 716.72C264.02 718.02 262.84 718.89 261.55 718.89L261.56 718.9ZM-376.84 700.11C-378.11 700.11 -379.27 699.28 -379.64 698C-394.74 645.24 -402.39 588.36 -402.39 528.94C-402.39 445.7 -385.41 365.05 -353.26 295.53C-352.93 294.81 -350.06 291.81 -348.61 292.49C-347.15 293.17 -346.31 294.39 -346.99 295.85C-379.43 365.08 -396.57 445.69 -396.57 528.94C-396.57 587.82 -388.99 644.16 -374.04 696.4C-373.6 697.94 -374.49 699.55 -376.04 700C-376.31 700.07 -376.58 700.11 -376.84 700.11ZM374 688.76C373.73 688.76 373.45 688.72 373.18 688.64C371.64 688.19 370.76 686.57 371.21 685.03C386.09 634.36 393.63 580.52 393.63 525.01C393.63 451.91 381.03 383.13 356.19 320.54C356 320.07 355.82 319.61 355.63 319.14C355.03 317.65 356.75 318.31 358.25 317.71C359.73 317.11 360.43 315.48 361.03 316.97C361.34 317.75 361.66 318.54 361.97 319.33C386.84 382.35 399.45 451.53 399.45 525C399.45 581.06 391.83 635.46 376.8 686.66C376.43 687.93 375.27 688.75 374.01 688.75L374 688.76ZM331.87 265.55C330.85 265.55 329.86 265.02 329.33 264.07C327.33 260.51 325.29 256.99 323.2 253.49C319.03 246.53 314.65 239.64 310.16 233.02C309.26 231.69 309.61 229.88 310.94 228.98C312.27 228.07 314.08 228.43 314.98 229.76C319.52 236.48 323.97 243.46 328.19 250.51C330.3 254.05 332.37 257.62 334.39 261.22C335.18 262.62 334.68 264.39 333.28 265.18C332.83 265.44 332.34 265.55 331.86 265.55H331.87ZM-310.18 229.11C-310.76 229.11 -311.34 228.94 -311.85 228.58C-313.17 227.66 -313.49 225.84 -312.56 224.53C-266.47 158.75 -204.98 110.02 -134.74 83.6C-122.23 78.89 -90.0999 66.03 -62.0999 48.22C-35.2599 31.15 -12.9499 10.73 -12.7299 10.53L-5.37988 3.77999C-4.22989 2.70999 -2.43991 2.75999 -1.3399 3.87999L5.6601 11C5.87009 11.22 26.2601 31.94 53.6001 48.83C79.3601 64.74 112.29 76.66 129.98 83.07C199.42 108.22 260.29 154.54 306.01 217.02C306.96 218.32 306.68 220.14 305.38 221.09C304.08 222.04 302.26 221.75 301.31 220.46C256.28 158.92 196.35 113.3 127.99 88.54C110.1 82.06 76.8001 70 50.5401 53.78C22.9401 36.74 1.69012 15.27 1.49011 15.06L-3.50989 9.95999L-8.77991 14.8C-8.99991 15.01 -31.5799 35.7 -58.9699 53.12C-87.4399 71.22 -120.01 84.27 -132.69 89.04C-201.83 115.04 -262.38 163.05 -307.79 227.86C-308.35 228.67 -309.26 229.1 -310.18 229.1V229.11Z" fill="#C09973"/>
<path d="M53.03 972.11C51.62 972.11 50.38 971.08 50.16 969.65C49.91 968.06 51 966.58 52.59 966.33C53.46 966.2 140.43 952 203.8 881.59C235.66 846.18 241.9 827.94 235.55 788.64L234.56 782.54C230.35 756.91 228.6 746.3 241.42 731.88C247.11 725.47 251.82 721.29 255.6 717.93C260.18 713.86 262.94 711.4 264.05 708.08C264.97 705.31 264.36 702.77 263.71 700.08C262.94 696.88 262.06 693.26 264.39 689.77C265.27 688.46 267.11 686.88 270.92 686.85H271.04C278.58 686.85 291.13 692.93 297.23 701.74C303.03 710.12 307.71 725 309.59 731.51L318.58 727.91C320.05 727.31 321.76 728.03 322.36 729.53C322.96 731.02 322.23 732.72 320.74 733.31L308.73 738.11C307.95 738.42 307.08 738.38 306.34 738C305.59 737.62 305.05 736.94 304.84 736.14C304.79 735.93 299.28 714.89 292.45 705.04C287.84 698.39 278.18 693.3 272.04 692.71C270.18 692.54 269.36 692.87 269.22 693.01C268.36 694.3 268.7 695.94 269.37 698.71C270.11 701.76 271.02 705.56 269.57 709.91C267.97 714.71 264.4 717.88 259.47 722.27C255.8 725.53 251.24 729.59 245.77 735.74C234.8 748.09 236.19 756.53 240.3 781.59L241.3 787.71C247.92 828.74 241.1 848.84 208.13 885.48C143.33 957.47 54.38 971.94 53.49 972.08C53.34 972.1 53.19 972.11 53.04 972.11H53.03Z" fill="#C09973"/>
<path d="M227.07 916.2C226.2 916.2 225.33 915.81 224.76 915.07C223.78 913.8 224.02 911.97 225.29 910.99C269.82 876.69 291.38 845.9 310.4 818.74C326.32 796.01 340.07 776.38 363.59 759.47C397.52 735.07 433.9 739.61 453.45 742.05C457.87 742.6 462.8 743.2 464.83 742.96C464.66 742.35 464.21 741.29 463.02 739.68C456.07 730.32 434.62 716.13 415.45 714.28C393.07 712.17 381.71 739.43 381.6 739.71C380.99 741.18 379.3 741.89 377.83 741.32C376.35 740.73 375.61 739.05 376.19 737.57C376.24 737.43 381.56 723.51 380.8 708.34C380.35 699.36 378.03 692.48 376.24 688.39C373.15 692.86 367.73 699.66 361.16 703.5C357.13 705.85 352.1 706.43 346.79 707.05C338.42 708.02 330.52 708.94 327.13 716.58C324.37 722.79 324.55 731.75 324.74 741.23C324.97 752.59 325.21 764.35 320.71 774.24C312.51 792.27 291.94 809.02 291.07 809.73C289.82 810.75 288.9 810.08 290.15 809.07C290.35 808.91 306.89 796.51 315.41 771.84C318.53 762.81 319.14 752.07 318.92 741.35C318.71 731.2 318.52 721.61 321.81 714.21C326.56 703.54 337.41 702.27 346.12 701.26C350.82 700.72 355.26 700.2 358.23 698.47C367.02 693.34 373.9 681.26 373.97 681.14C374.47 680.26 375.39 679.7 376.4 679.66C377.5 679.51 378.37 680.11 378.93 680.95C379.21 681.37 385.79 691.41 386.62 708.04C386.87 712.96 386.54 717.71 385.95 721.96C392.5 714.39 402.41 707.16 416.02 708.49C437.6 710.57 460.27 726.21 467.7 736.21C470.17 739.53 471.13 742.33 470.64 744.78C469.61 749.91 463.25 749.12 452.75 747.81C434 745.47 399.09 741.12 367.01 764.18C344.29 780.51 330.81 799.77 315.19 822.06C295.93 849.56 274.1 880.74 228.86 915.58C228.33 915.99 227.71 916.18 227.09 916.18L227.07 916.2Z" fill="#C09973"/>
<path d="M358.55 322.24C353.9 322.24 346.71 319.55 343.82 315.03C340.14 309.29 341.43 302.42 342.96 297.98C333.68 298.18 313.49 296.7 299.15 282.59C282.74 266.43 285.8 240.02 293.22 226.42C298.1 217.48 305.03 215.26 309.75 217C313.55 218.42 317.31 223.2 315.39 232.03C313.73 239.66 311.46 250.12 315.86 255.59C318.36 258.69 323.09 260.26 329.92 260.26C342.69 260.26 350.16 257.6 354.18 255.38C349.58 253.65 343.68 250.39 341.93 244.69C339.19 235.79 343.97 227.32 344.18 226.96C344.83 225.82 346.18 225.26 347.45 225.6C348.72 225.94 349.61 227.09 349.61 228.41C349.61 228.41 349.69 231.31 351.73 233.21C353.22 234.61 355.52 235.24 358.53 235.09C363.36 234.85 372.83 229.44 380.85 219.9C387.62 211.85 398.5 194.51 395.33 168.85C393.48 153.83 386.69 142.74 375.14 135.88C360.11 126.95 337.6 126.23 317.8 134.05C303.8 139.58 285.41 154.34 267.34 174.55C266.27 175.75 264.42 175.85 263.23 174.78C262.03 173.71 261.93 171.87 263 170.67C281.65 149.8 300.85 134.48 315.66 128.64C337.08 120.19 361.59 121.07 378.11 130.88C391.1 138.6 399.05 151.48 401.1 168.14C404.53 195.99 392.67 214.87 385.3 223.65C375.69 235.07 364.84 240.6 358.82 240.9C354.09 241.14 350.36 239.95 347.67 237.39C347.45 237.18 347.24 236.96 347.04 236.74C346.79 238.67 346.82 240.83 347.48 242.97C349.01 247.96 357.77 250.68 361.02 251.31C362 251.5 362.81 252.18 363.18 253.1C363.55 254.03 365.23 254.1 364.64 254.9C364.33 255.32 355.07 266.06 329.92 266.06C321.24 266.06 314.99 263.76 311.33 259.22C305.18 251.58 307.79 239.56 309.7 230.78C310.63 226.51 309.85 223.23 307.71 222.44C305.33 221.56 301.37 223.6 298.32 229.19C291.78 241.19 288.97 264.4 303.23 278.43C319.98 294.92 346.89 291.96 347.16 291.91C348.24 291.8 349.32 292.28 349.92 293.19C350.53 294.1 350.57 295.28 350.03 296.24C349.98 296.33 344.76 305.71 348.71 311.89C350.4 314.52 354.96 316.07 357.56 316.4C358.22 312.25 361.96 307.04 362.88 305.79C366.38 301.08 373.06 295.44 383.07 289.77C402.51 278.76 421.18 258.65 431.01 239.1C440.29 220.65 448.29 171.03 425.8 134.54C409.26 107.71 380.23 94.11 339.5 94.11C298.77 94.11 264.11 110.73 232.1 143.49C230.97 144.65 229.13 144.66 227.99 143.54C226.84 142.42 226.82 140.57 227.94 139.43C261.09 105.5 298.63 88.29 339.51 88.29C382.39 88.29 413.09 102.82 430.76 131.48C452.64 166.98 447.98 218.3 436.21 241.7C425.72 262.56 408.31 282.05 385.99 295.01C371 303.71 363.53 314.94 363.26 317.4C363.12 319.98 363.2 320.71 361.66 321.59C360.91 322.02 359.82 322.22 358.54 322.22L358.55 322.24Z" fill="#C09973"/>
<path d="M347.51 297.72C346.35 297.72 345.25 297.02 344.8 295.87C344.21 294.38 344.95 292.69 346.45 292.1C379.71 279.09 399.66 266.78 416.44 235.61C437.28 196.9 420.47 151.48 420.31 151.03C419.76 149.4 419.21 148.56 419.45 148.48C419.45 148.48 419.99 149.11 420.64 150.58C421.49 152.49 443.74 197.18 421.56 238.37C404.02 270.94 382.37 284.29 348.56 297.52C348.21 297.65 347.85 297.72 347.5 297.72H347.51Z" fill="#C09973"/>
<path d="M358.57 258.33C357.43 258.33 356.36 257.66 355.89 256.55C355.27 255.07 355.81 253.94 357.29 253.31C357.78 253.1 406.9 231.2 406.9 181.36C406.9 155.31 398.04 138.01 390.32 128.76C381.94 118.72 373.53 114.59 373.44 114.55C371.98 113.89 370.79 113.25 370.89 113C370.89 113 371.76 113.16 373.23 113.83C374.75 114.52 412.72 127.65 412.72 181.36C412.72 235.07 359.26 258.81 358.72 259.03C358.35 259.19 358.95 258.32 358.57 258.32V258.33Z" fill="#C09973"/>
<path d="M336.66 283.9C302.54 283.9 299.89 259.36 299.89 251.84C299.89 242.53 309.24 230.86 310.31 229.56C311.33 228.32 313.16 228.14 314.4 229.16C315.64 230.18 315.82 232.01 314.81 233.25C312.28 236.34 305.71 245.71 305.71 251.84C305.71 259.73 308.73 278.08 336.66 278.08C367.84 278.08 397.96 245.34 398.24 244.99C399.24 243.73 399.97 242.64 400.32 242.8C400.58 242.91 399.89 244 398.89 245.25C397.68 246.76 370.65 283.89 336.66 283.89V283.9Z" fill="#C09973"/>
<path d="M-180.25 991.99C-236.32 991.99 -286.36 974.27 -333.91 938.17C-420.18 872.69 -400.88 755.07 -400.67 753.9C-400.39 752.32 -398.89 751.27 -397.31 751.53C-395.73 751.8 -394.67 753.31 -394.94 754.89C-395.14 756.04 -413.81 870.22 -330.4 933.53C-262.7 984.91 -189.79 998.21 -100.95 975.37C-66.0299 966.39 -40.3399 939.57 -24.0499 920.18C-2.35989 894.36 18.1501 838.79 18.3601 838.24C19.9401 833.45 179.97 348.82 210.93 255.66C212.91 249.69 215.41 243.46 218.38 237.08L191.63 197.55C170.73 233.22 160.84 264.89 160.74 265.22L-4.5899 739.16C-4.9899 740.33 -6.09988 741.11 -7.3299 741.11C-8.56989 741.11 -9.66992 740.33 -10.0699 739.15L-174.25 265.32C-174.36 264.95 -182.59 238.58 -199.86 206.93L-226.04 251.14C-225.48 252.66 -224.95 254.16 -224.46 255.66C-198.46 333.9 -85.7499 671.6 -38.4999 813.16C-38.4599 813.28 -38.4299 813.41 -38.3999 813.54C-38.2799 814.18 -37.9799 814.92 -37.6499 815.83C-36.6099 818.64 -35.0499 822.87 -34.8799 829.48C-34.8799 829.82 -34.9199 830.16 -35.0299 830.48L-56.1499 893.15C-77.7199 950.1 -120.87 966.74 -153.29 970.68C-221.27 978.96 -281.43 959.25 -332.05 912.11C-394.67 853.79 -381.54 762.31 -381.4 761.39C-381.15 759.81 -379.67 758.73 -378.09 758.95C-376.5 759.19 -375.41 760.68 -375.65 762.26C-375.78 763.15 -388.43 851.66 -328.09 907.85C-278.78 953.77 -220.21 972.95 -153.99 964.91C-123.17 961.16 -82.1199 945.32 -61.6199 891.19L-40.6999 829.12C-40.9099 823.76 -42.1699 820.35 -43.0899 817.84C-43.4999 816.73 -43.8499 815.77 -44.0599 814.82C-91.3499 673.15 -203.97 335.7 -229.96 257.48C-230.58 255.62 -231.25 253.74 -231.96 251.86C-232.27 251.03 -232.19 250.11 -231.74 249.35L-202.27 199.59C-201.74 198.69 -200.81 198.16 -199.73 198.16C-198.69 198.17 -197.74 198.74 -197.23 199.64C-177.95 233.79 -168.79 263.2 -168.7 263.5L-7.28992 729.33L155.25 263.4C155.32 263.16 166.12 228.5 189.02 190.62C189.53 189.77 190.44 189.24 191.43 189.22C192.44 189.18 193.36 189.68 193.91 190.5L224.15 235.19C224.73 236.04 224.81 237.14 224.37 238.07C221.19 244.75 218.54 251.28 216.47 257.49C185.51 350.65 25.4801 835.27 23.8701 840.15C22.9901 842.56 2.7601 897.33 -19.5799 923.92C-36.3799 943.93 -62.9499 971.61 -99.4899 981C-127.88 988.3 -154.69 991.98 -180.24 991.98L-180.25 991.99Z" fill="#C09973"/>
<path d="M7.87018 875.66L189.7 329.26C189.7 329.26 198.9 292.04 217.07 249.17C218.95 244.73 220.98 240.27 223.1 235.83C223.01 235.66 222.91 235.51 222.82 235.34C217.96 225.82 207.38 211.68 199.57 201.08C189.03 217.25 180.64 232.4 172.97 254.28C145.03 333.98 60.4302 577.72 -1.21982 755.72C-19.9798 702.19 -133.6 378.08 -175.59 258.33C-183.02 237.13 -191.35 217.65 -201.93 201.66L-222.32 239.56C-220.17 245.15 -193.51 324.28 -193.51 324.28L-26.2498 828.01C-39.5798 866.53 -50.7698 898.91 -58.5598 921.49C-72.6398 962.32 -130.17 983.99 -130.17 983.99C-130.17 983.99 -71.5798 971.38 -45.9598 948.96C-28.1698 933.4 7.86017 875.66 7.86017 875.66H7.87018Z" fill="#C09973"/>
<path d="M340.56 110.9C321.43 108.36 280.34 117.36 241.22 149.77L263.98 171.96C274 160.31 284.87 150.03 296.46 141.97C310.39 132.29 327.73 124.86 344.38 124.86C386.68 124.86 398.88 158.96 398.88 158.96C398.88 158.96 392.95 117.87 340.57 110.91L340.56 110.9Z" fill="#C09973"/>
<path d="M294.41 271.41C286.59 256.91 296.69 226.68 296.69 226.68C253.31 166.69 195.35 120.8 125.47 95.49C106.59 88.65 73.2401 76.49 46.6501 60.07C17.7001 42.19 -3.77994 20.25 -3.77994 20.25C-3.77994 20.25 -26.8399 41.45 -54.9999 59.36C-81.0099 75.9 -111.46 88.96 -130.09 95.96C-201.86 122.96 -261.63 172.85 -305.6 237.94C-305.6 237.94 -297.72 256.07 -310.26 275.96C-317.5 287.45 -337.4 293.24 -337.4 293.24C-370.84 362.16 -389.18 442.91 -389.18 528.93C-389.18 590.73 -380.84 649.43 -364.59 702.84C-361.65 703.67 -359.36 704.21 -358.04 704.35C-348 705.34 -342.51 700.17 -337.7 715.38L-332.9 730.59L-320.89 735.39C-320.89 735.39 -313.15 703.45 -300.9 695.92C-289.15 688.69 -281.22 688.13 -279.18 694.11C-291.4 638.82 -296.53 579.9 -296.53 522.55C-296.53 316.93 -218.95 90.48 -4.01993 90.48C226.17 90.48 293.58 319.53 293.58 531.67C293.58 585.21 288.83 639.35 278.11 690.28C279.25 690.77 280.34 691.35 281.32 692.15C291.68 700.63 298.28 701.57 302.05 713.82C302.87 716.49 305.78 733.59 309.37 733.54C311.64 733.51 315.52 730.97 318.36 730.24C321.22 729.5 323.94 716.01 325.76 713.35C328.55 709.26 335.3 708.06 335.3 708.06L357.88 702.64C376.35 648.04 386.23 588 386.23 525C386.23 440.85 368.89 361.94 336.7 294.37C336.7 294.37 306.83 294.39 294.42 271.4L294.41 271.41ZM-4.83994 74.24C-12.1599 74.24 -18.0999 68.31 -18.0999 60.98C-18.0999 53.65 -12.1699 47.72 -4.83994 47.72C2.49005 47.72 8.42007 53.66 8.42007 60.98C8.42007 68.3 2.49005 74.24 -4.83994 74.24Z" fill="#C09973"/>
<path d="M240.63 800.91C196.28 894.44 120.09 959.84 -0.230011 959.84C-15.2 959.84 -37.05 957.41 -50.67 955.54C-56.34 958.42 -57.83 959.04 -62.42 961.02C-69.45 964.05 -73.96 970.95 -79.24 973.13C-56.38 977.89 -31.63 980.48 -5.07001 980.48C100.34 980.48 172.14 934.94 223.27 866.51C242.28 841.07 238.05 816.86 241.12 807.04C241.12 807.04 243.58 794.68 240.62 800.91H240.63Z" fill="#C09973"/>
</g>
</g>
</svg>
