<svg width="251" height="312" viewBox="0 0 251 312" fill="none" xmlns="http://www.w3.org/2000/svg">
<g clip-path="url(#clip0_10_417224)">
<path d="M67.9495 202.964L61.5041 185.221H63.3729L68.9411 200.534L74.166 185.221H74.8906L68.4453 202.964C67.5935 205.634 66.5002 207.288 65.2035 207.288C65.0256 207.288 64.8349 207.262 64.6569 207.186V205.711C64.8094 205.787 65.0128 205.813 65.1781 205.813C66.1824 205.813 67.3774 204.884 67.9495 202.964ZM88.061 185.247C89.3577 185.247 90.6544 185.819 91.6587 186.976C92.2562 188.172 92.9808 189.431 93.8834 190.448L94.0614 190.372C93.2605 188.719 92.7393 186.595 92.6122 184.903H92.3071L91.8367 186.379C90.8578 185.348 89.5357 184.878 88.1373 184.878C84.5142 184.878 80.3952 188.096 80.3952 193.73C80.3952 199.873 84.0692 203.053 88.0356 203.053C90.7053 203.053 93.108 201.704 93.9089 199.008L93.5148 198.906C92.8156 201.285 90.7688 202.709 88.0737 202.709C84.4506 202.709 82.5055 199.708 82.5055 193.743C82.5055 187.778 85.3023 185.272 88.0737 185.272L88.061 185.247ZM106.863 184.967L113.308 202.709H111.44L109.368 197.088H102.528L100.608 202.709H99.9347L106.38 184.967H106.876H106.863ZM109.215 196.655L105.872 187.434L102.681 196.655H109.228H109.215ZM125.22 190.08C125.22 188.375 124.966 186.735 124.369 185.386V185.208H130.166V202.302H132.683C131.907 204.223 131.882 206.156 131.882 208.229H131.704C131.208 206.652 130.776 205.151 130.776 203.701C130.776 203.383 130.801 203.027 130.852 202.696H121.33C121.381 203.053 121.406 203.396 121.406 203.739C121.406 205.189 120.987 206.665 120.504 208.216H120.326C120.326 206.143 120.3 204.223 119.525 202.289L120.122 202.264C122.449 202.264 125.195 195.739 125.195 190.067L125.22 190.08ZM121.152 202.302H128.297V185.641H125.805C125.83 186.086 125.831 186.544 125.831 186.989C125.831 194.086 123.835 200.878 121.165 202.302H121.152ZM142.433 185.208V191.58H144.582C148.955 191.58 151.256 194.455 151.256 197.278C151.256 200.102 149.107 202.696 144.582 202.696H140.565V185.208H142.433ZM142.433 192V202.264H144.582C147.557 202.264 149.031 199.72 149.031 197.164C149.031 194.607 147.531 191.987 144.582 191.987H142.433V192ZM162.812 202.696H158.896V185.208H168.863C169.232 187.46 169.956 189.711 170.859 191.949L170.681 192C169.206 189.927 167.96 187.828 167.16 185.628H160.765V193.475H162.837C167.134 193.475 169.283 195.778 169.283 198.067C169.283 200.356 167.134 202.684 162.812 202.684V202.696ZM160.765 202.277H162.939C165.736 202.277 167.134 200.204 167.134 198.105C167.134 196.007 165.736 193.908 162.939 193.908H160.765V202.277ZM183.05 184.967L189.496 202.709H187.627L185.555 197.088H178.715L176.796 202.709H176.122L182.567 184.967H183.063H183.05ZM185.402 196.655L182.059 187.434L178.855 196.655H185.402ZM25.3746 237.075C25.3746 246.601 19.4632 251.714 12.6746 251.714C5.88597 251.714 0.0126953 246.601 0.0126953 237.075C0.0126953 227.549 5.92411 222.436 12.6746 222.436C19.425 222.436 25.3746 227.549 25.3746 237.075ZM21.993 237.075C21.993 227.828 18.8148 222.995 12.6619 222.995C6.5089 222.995 3.36885 227.828 3.36885 237.075C3.36885 246.321 6.5089 251.154 12.6619 251.154C18.8148 251.154 21.993 246.334 21.993 237.075ZM59.343 233.984L59.6227 233.908C58.7836 230.728 58.0081 227.154 57.8556 223.046H38.2017C38.0364 227.154 37.2737 230.728 36.4346 233.908L36.7143 233.984C38.4814 231.008 40.0069 227.625 40.935 223.733H46.5285V251.205H49.5415V223.733H55.1351C56.0631 227.638 57.5886 231.008 59.3557 233.984H59.343ZM79.4418 238.525H75.2974V251.193H72.2845V223.034H79.4418C85.9126 223.034 88.9636 226.773 88.9636 230.601C88.9636 234.429 85.671 238.525 79.4418 238.525ZM79.0858 237.838C83.4717 237.838 85.7219 234.302 85.7219 230.754C85.7219 227.205 83.5098 223.72 79.0858 223.72H75.3102V237.838H79.0858ZM96.5404 251.193H95.4598L105.833 222.639H106.634L117.008 251.193H113.995L110.664 242.137H99.655L96.5531 251.193H96.5404ZM99.8711 241.463H110.41L105.02 226.62L99.8711 241.463ZM136.179 230.881C136.179 228.146 135.772 225.488 134.806 223.313V223.034H144.137V250.544H148.192C146.946 253.647 146.908 256.738 146.908 260.083H146.629C145.828 257.552 145.141 255.135 145.141 252.808C145.141 252.286 145.179 251.727 145.268 251.193H129.949C130.026 251.752 130.064 252.324 130.064 252.884C130.064 255.212 129.377 257.59 128.615 260.083H128.335C128.335 256.751 128.297 253.647 127.051 250.544L128.017 250.506C131.755 250.506 136.179 240.013 136.179 230.881ZM129.632 250.544H141.124V223.72H137.107C137.145 224.445 137.145 225.17 137.145 225.895C137.145 237.317 133.929 248.255 129.632 250.557V250.544ZM176.389 235.663H164.083V223.034H161.07V251.193H164.083V236.35H176.389V251.193H179.402V223.034H176.389V235.663ZM218.201 237.075C218.201 246.601 212.29 251.714 205.501 251.714C198.713 251.714 192.839 246.601 192.839 237.075C192.839 227.549 198.751 222.436 205.501 222.436C212.252 222.436 218.201 227.549 218.201 237.075ZM214.82 237.075C214.82 227.828 211.641 222.995 205.488 222.995C199.335 222.995 196.195 227.828 196.195 237.075C196.195 246.321 199.335 251.154 205.488 251.154C211.641 251.154 214.82 246.334 214.82 237.075ZM250.72 240.255C248.305 243.638 246.423 247.046 244.974 250.506H234.079V236.35H243.449V235.663H234.079V223.72H243.69C244.974 226.251 246.703 228.744 248.953 231.199L249.233 231.084C247.784 228.426 246.779 225.781 246.423 223.046H231.066V251.205H247.707C248.267 247.466 249.474 243.841 251 240.344L250.72 240.267V240.255ZM50.9526 115.93C50.8763 115.549 51.0288 115.116 51.4102 114.595C52.5671 113.03 56.1139 110.588 59.4828 110.258C61.6058 110.054 63.1568 111.186 64.1738 112.356C64.0848 111.695 64.034 110.944 64.0721 110.181C64.1992 107.587 65.229 106.01 65.2798 105.946C65.3688 105.819 65.4959 105.73 65.6739 105.743C65.8265 105.743 65.979 105.832 66.0553 105.972C66.0553 105.972 66.3604 106.506 66.8435 107.116C64.7586 99.2943 63.6907 90.9127 63.6907 82.1877C63.6907 70.6901 65.7756 59.5105 69.7293 49.5645C69.2843 49.768 68.8139 49.8952 68.4326 49.8952C68.2292 49.8952 68.0512 49.8698 67.9495 49.7935C67.7842 49.679 67.7206 49.59 67.7079 49.1194C67.7079 48.6997 67.0596 46.652 64.4026 45.4819C60.7287 43.8539 57.7793 40.2799 56.3046 37.3038C54.7918 34.2768 53.5333 26.1114 57.2708 20.0447C60.0295 15.5931 64.784 13.3292 71.4073 13.3292C78.0307 13.3292 84.0946 16.2418 89.4213 21.9524C94.3029 17.9461 99.7186 14.7792 105.516 12.6043C107.473 11.8666 112.482 9.85705 116.868 7.07168C121.063 4.40077 124.547 1.2084 124.585 1.18297L125.729 0.127321C125.907 -0.0380205 126.186 -0.0253019 126.364 0.14004L127.458 1.24656C127.458 1.24656 130.674 4.51524 134.946 7.16071C138.975 9.64084 144.111 11.5105 146.883 12.5152C152.464 14.5375 157.689 17.4373 162.418 21.113C167.541 15.962 173.325 13.3419 179.618 13.3419C186.318 13.3419 191.11 15.6186 193.869 20.0955C197.289 25.6408 196.564 33.6663 194.721 37.3165C193.081 40.5725 190.36 43.6249 186.877 45.6472C184.538 47.0081 183.368 48.7633 183.33 49.1448C183.317 49.4501 183.317 49.59 183.216 49.6917C187.042 59.4723 188.975 70.1941 188.975 81.5772C188.975 89.9842 187.869 98.1623 185.695 105.882C185.72 105.908 185.746 105.921 185.771 105.946C185.809 106.01 186.839 107.587 186.979 110.181C187.017 110.944 186.966 111.695 186.877 112.356C187.894 111.173 189.445 110.041 191.568 110.245C194.937 110.576 198.484 113.018 199.641 114.582C200.022 115.103 200.174 115.536 200.098 115.917C199.933 116.719 198.941 116.592 197.301 116.388C194.378 116.019 188.924 115.345 183.902 118.944C180.355 121.501 178.245 124.503 175.804 127.987C174.66 129.628 173.452 131.345 172.016 133.138C172.003 133.189 172.016 133.24 171.965 133.291C171.05 134.398 170.096 135.441 169.13 136.458C168.723 136.89 168.304 137.336 167.846 137.768C156.697 148.846 142.154 154.887 126.275 154.887C120.758 154.887 115.431 154.264 110.435 153.018C110.397 153.018 110.359 152.979 110.321 152.967C106.151 153.984 102.185 154.518 98.4092 154.518C89.6501 154.518 81.8318 151.746 74.4075 146.111C60.9321 135.873 63.945 117.495 63.9831 117.317C63.9831 117.278 64.0085 117.24 64.0213 117.202C60.004 115.6 56.1012 116.07 53.7748 116.363C52.1349 116.566 51.1433 116.693 50.978 115.892L50.9526 115.93ZM65.801 118.105C65.4196 122.175 65.3688 127.669 68.013 134.627C69.7166 139.129 73.1363 142.881 79.0858 146.76C87.3491 152.153 96.337 153.641 106.571 151.313C113.181 149.813 116.932 143.835 118.864 139.294C119.881 136.344 121.089 132.846 122.449 128.929L96.3243 50.2005C96.3243 50.2005 92.8918 39.9874 92.002 37.4691L91.2392 38.7664C91.3282 39.0081 91.4044 39.237 91.4807 39.4787C95.5361 51.7012 113.143 104.483 120.529 126.601C120.529 126.627 120.529 126.639 120.542 126.665C120.555 126.766 120.606 126.881 120.656 127.021C120.822 127.453 121.063 128.115 121.089 129.158C121.089 129.208 121.089 129.259 121.063 129.31L117.758 139.103C116.626 142.092 115.114 144.356 113.41 146.086C113.372 146.137 113.334 146.188 113.283 146.213C109.94 149.533 105.91 150.805 102.592 151.212C91.9765 152.509 82.5691 149.431 74.6618 142.054C65.6358 133.647 66.6782 120.852 66.9198 118.792C66.5511 118.537 66.1697 118.296 65.7883 118.08L65.801 118.105ZM67.7715 119.453C67.5045 122.506 67.1486 133.838 75.2847 141.418C82.9251 148.541 91.9892 151.542 102.236 150.359C96.8455 148.134 91.913 145.119 87.5144 141.342C85.8998 140.045 83.8658 138.289 82.1877 136.331C80.4842 134.334 78.9078 132.235 77.3823 130.188C74.344 126.118 71.4455 122.277 67.7715 119.453ZM82.6454 109.227C83.1666 108.96 83.7005 108.757 84.2472 108.617C82.353 100.375 81.3868 91.1544 81.3868 81.1957C81.3868 63.6186 84.9718 47.555 91.4934 35.9429C99.3626 21.927 110.957 14.8173 125.919 14.8173C166.829 14.8173 171.253 62.2322 171.253 82.6074C171.253 91.3324 170.465 99.485 168.939 106.862C169.27 106.862 169.651 106.951 170.058 107.091C171.685 99.2179 172.41 90.8745 172.41 82.6074C172.41 49.4501 161.884 13.6599 125.919 13.6599C92.3452 13.6599 80.23 49.0558 80.23 81.183C80.23 89.7935 80.98 98.6202 82.7344 106.964C82.9632 107.053 83.103 107.18 83.1793 107.307C83.6115 107.956 83.192 108.452 82.9378 108.744C82.7852 108.922 82.6835 109.062 82.6454 109.202V109.227ZM125.78 11.1289C126.924 11.1289 127.852 10.2005 127.852 9.05578C127.852 7.91111 126.924 6.98265 125.78 6.98265C124.636 6.98265 123.707 7.91111 123.707 9.05578C123.707 10.2005 124.636 11.1289 125.78 11.1289ZM180.114 46.0924C179.898 46.0924 179.643 46.0924 179.376 46.0924C179.554 46.4739 179.707 46.8682 179.885 47.2497C179.91 46.83 179.999 46.423 180.114 46.1051V46.0924ZM163.651 125.634C163.625 125.037 163.562 124.413 163.473 123.752C162.825 125.151 162.151 126.512 161.426 127.784C153.722 141.444 142.039 148.375 126.695 148.375C125.157 148.375 121.648 148.172 120.122 147.778C120.046 147.752 119.983 147.714 119.932 147.663C119.461 148.096 118.966 148.528 118.444 148.935C118.495 148.91 118.546 148.884 118.61 148.859C120.733 149.151 124.152 149.533 126.492 149.533C144.874 149.533 156.646 139.739 163.638 125.634H163.651ZM90.5781 39.6822C85.2134 50.8109 82.2767 65.3865 82.2767 81.1957C82.2767 88.5216 82.8106 95.4405 83.8404 101.851C84.8828 101.889 88.3661 102.232 91.3027 104.763C93.8453 106.951 95.231 110.131 95.1293 113.476C95.0403 116.299 93.8707 118.843 91.9892 120.267C91.2519 120.827 90.3112 121.234 89.3069 121.488C90.0696 123.269 90.8959 124.973 91.7731 126.576C96.9218 135.975 104.028 142.27 112.902 145.31C114.465 143.682 115.851 141.571 116.893 138.811L120.161 129.107C120.122 128.267 119.932 127.733 119.792 127.339C119.728 127.161 119.678 127.021 119.639 126.868C112.253 104.725 94.6589 51.9938 90.6035 39.7712C90.6035 39.7458 90.5781 39.7076 90.5654 39.6822H90.5781ZM112.202 146.022C103.304 142.855 96.159 136.471 90.9849 127.021C90.095 125.393 89.256 123.663 88.4805 121.87C88.4551 121.806 88.4424 121.743 88.4424 121.679C88.0991 121.73 87.7559 121.755 87.4127 121.781C87.3999 122.01 87.3745 122.251 87.3618 122.493V122.595C92.2054 133.774 99.8076 142.716 111.109 146.913C111.478 146.633 111.847 146.328 112.202 145.997V146.022ZM87.7559 108.35C87.4508 107.816 86.9677 107.129 86.3321 106.709C85.6964 106.302 85.0481 106.048 84.5904 105.908C84.7684 106.76 84.9464 107.612 85.1371 108.439C86.1668 108.286 87.1203 108.299 87.7686 108.35H87.7559ZM156.468 30.3976C153.201 35.9683 151.663 40.9159 151.637 40.9668L125.805 115.04C125.754 115.18 125.64 115.256 125.513 115.294C125.843 116.248 126.123 117.049 126.326 117.622C135.963 89.8062 149.171 51.714 153.532 39.2625C154.625 36.1464 155.82 33.8952 157.269 31.6059L156.443 30.3976H156.468ZM155.96 29.4691C149.349 21.3165 139.764 15.7203 125.907 15.7203C113.385 15.7203 103.304 20.8332 95.8285 30.8936C98.7651 36.1464 100.164 40.6361 100.176 40.6869L125.386 113.488L150.773 40.6742C150.773 40.6742 152.438 35.3197 155.947 29.4564L155.96 29.4691ZM164.248 113.895C165.138 112.89 165.876 112.242 166.46 111.72C166.651 111.555 166.816 111.402 166.956 111.275C167.198 110.359 167.414 109.406 167.63 108.464C167.566 108.096 167.579 107.701 167.833 107.32C167.859 107.282 167.884 107.256 167.922 107.218C169.524 99.7521 170.338 91.485 170.338 82.6202C170.338 71.5804 169.016 52.528 161.223 37.5709C160.892 38.3213 160.6 39.059 160.358 39.7712C155.527 54.334 130.521 130.073 130.267 130.836C130.127 131.218 126.975 139.778 123.479 143.924C122.69 144.865 121.737 145.921 120.669 146.964C122.233 147.294 125.335 147.472 126.708 147.472C141.696 147.472 153.112 140.706 160.651 127.339C161.553 125.749 162.405 124.032 163.193 122.251C163.206 122.226 163.231 122.2 163.244 122.175L163.193 121.832C162.532 117.825 162.265 116.172 164.261 113.921L164.248 113.895ZM80.3698 115.676C80.5986 118.258 82.0733 119.568 83.3827 120.191C85.8744 121.361 89.4213 121.068 91.4426 119.542C93.108 118.283 94.1377 116.007 94.2267 113.437C94.3157 110.652 93.2478 107.994 91.3027 106.022C87.9974 103.479 85.1752 103.275 84.0946 103.313C84.1836 103.835 84.2853 104.369 84.3743 104.878C84.8447 104.992 85.8363 105.285 86.8152 105.921C88.1881 106.811 88.9255 108.63 88.9509 108.706C89.0145 108.859 88.989 109.037 88.8746 109.164C88.7729 109.291 88.6077 109.355 88.4424 109.317C88.4042 109.317 84.4125 108.604 82.0733 110.652C80.8275 111.733 80.1537 113.437 80.3571 115.676H80.3698ZM185.313 107.091C184.83 107.79 183.979 108.846 182.961 109.456C182.339 109.825 181.55 109.914 180.711 110.016C179.402 110.169 178.169 110.309 177.635 111.504C177.203 112.471 177.228 113.87 177.266 115.358C177.304 117.138 177.342 118.97 176.631 120.522C175.347 123.345 172.13 125.952 172.003 126.067C171.812 126.232 171.66 126.118 171.863 125.965C171.889 125.94 174.482 124.007 175.804 120.14C176.287 118.728 176.389 117.049 176.351 115.371C176.351 114.989 176.338 114.607 176.338 114.239L174.762 114.875C174.635 114.925 174.508 114.913 174.393 114.862C174.279 114.798 174.19 114.696 174.164 114.569C174.164 114.531 173.3 111.25 172.232 109.711C171.507 108.668 170.007 107.879 169.041 107.778C168.901 107.778 168.812 107.778 168.749 107.778C168.698 108.006 168.634 108.235 168.583 108.464C168.596 108.541 168.609 108.604 168.634 108.706C168.749 109.177 168.889 109.774 168.66 110.461C168.405 111.212 167.859 111.708 167.083 112.394C166.511 112.903 165.799 113.539 164.948 114.506C163.231 116.439 163.447 117.749 164.096 121.666L164.248 122.62C165.278 129.03 164.223 132.172 159.062 137.895C158.922 138.048 158.782 138.188 158.642 138.34C150.887 147.103 140.399 152.738 125.754 152.738C121.635 152.738 117.783 152.331 114.236 151.606C113.55 151.937 112.838 152.216 112.101 152.471C116.601 153.463 121.343 153.997 126.263 153.997C139.395 153.997 151.612 149.8 161.693 141.991C161.719 141.952 161.719 141.914 161.757 141.889C163.892 140.248 165.685 138.658 167.236 137.119C167.643 136.712 168.049 136.293 168.444 135.886C171.278 132.871 173.249 130.073 175.054 127.479C177.546 123.93 179.694 120.852 183.368 118.22C188.669 114.404 194.352 115.116 197.403 115.498C198.09 115.587 198.865 115.676 199.183 115.638C199.157 115.536 199.081 115.371 198.903 115.129C197.823 113.666 194.466 111.453 191.466 111.161C187.97 110.83 186.191 115.091 186.178 115.129C186.089 115.358 185.822 115.472 185.593 115.383C185.364 115.294 185.25 115.027 185.339 114.798C185.339 114.773 186.178 112.598 186.063 110.232C185.987 108.833 185.631 107.752 185.351 107.116L185.313 107.091ZM188.034 81.5645C188.034 70.2322 186.089 59.5613 182.262 49.8316C181.779 49.768 181.233 49.5772 180.788 49.272C184.754 58.9636 186.877 69.9397 186.877 81.5645C186.877 91.1162 185.415 100.21 182.695 108.541C183.457 108.032 184.118 107.218 184.525 106.646C184.525 106.62 184.525 106.595 184.525 106.582C186.852 98.6583 188.021 90.2513 188.021 81.5772L188.034 81.5645ZM163.104 21.6599C163.549 22.016 163.994 22.3849 164.439 22.7537C170.49 17.8316 176.796 16.4453 179.745 16.8396C186.381 17.7171 188.25 22.1178 188.708 23.7458C188.936 24.3817 189.114 25.0558 189.203 25.7935C189.737 30.1432 187.881 33.0939 186.737 34.4675C185.237 36.2481 183.546 37.113 182.606 37.1639C181.868 37.202 181.283 37.0113 180.864 36.617C180.826 36.5788 180.8 36.5534 180.762 36.5152C180.724 36.8205 180.724 37.1512 180.826 37.4946C181.067 38.2704 182.44 38.7028 182.936 38.7919H182.949C184.754 37.8125 190.093 34.3658 190.093 27.8539C190.093 23.7839 188.708 21.0749 187.5 19.6377C186.191 18.0733 184.881 17.4246 184.868 17.4119C184.64 17.3102 184.449 17.2084 184.474 17.1702C184.474 17.1702 184.614 17.1957 184.843 17.2974C185.085 17.3992 191.009 19.4596 191.009 27.8539C191.009 35.1671 184.678 38.9191 182.987 39.7966C182.275 40.3181 180.775 41.0939 178.08 41.0939C176.72 41.0939 175.753 40.7378 175.181 40.0256C174.686 39.4151 174.558 38.6138 174.584 37.7998C174.419 38.1814 174.304 38.5502 174.304 38.8682C174.304 40.1019 174.774 42.9636 179.135 42.9636C184.004 42.9636 188.708 37.8507 188.758 37.7871C188.911 37.5963 189.025 37.4183 189.089 37.4437C189.127 37.4564 189.025 37.6345 188.86 37.8253C188.669 38.0669 184.449 43.8666 179.135 43.8666C173.821 43.8666 173.389 40.0256 173.389 38.8555C173.389 37.52 174.597 35.9047 174.94 35.4723C175.054 34.8491 174.94 34.3785 174.622 34.264C174.253 34.1241 173.63 34.4421 173.16 35.3197C172.143 37.1893 171.698 40.8268 173.923 43.0144C176.376 45.431 180.216 45.1766 180.724 45.1257C185.885 43.1035 188.987 41.1702 191.606 36.3245C194.861 30.2704 192.229 23.1734 192.216 23.1098C192.127 22.8555 192.038 22.7283 192.076 22.7156C192.076 22.7156 192.165 22.8173 192.267 23.0462C192.394 23.3388 195.878 30.334 192.407 36.7696C189.699 41.8062 186.356 43.9047 181.169 45.9397C180.991 46.3086 180.508 47.4532 181.029 48.2545C181.296 48.6615 182.008 48.9032 182.415 48.954C182.517 48.3054 183.101 47.4914 183.241 47.3006C183.788 46.5629 184.83 45.6854 186.394 44.7951C189.432 43.078 192.343 39.9365 193.882 36.8714C195.331 33.9842 196.577 26.2386 193.068 20.528C190.487 16.3308 185.949 14.2068 179.593 14.2068C173.579 14.2068 168.037 16.7124 163.117 21.6472L163.104 21.6599ZM168.533 26.5566C170.592 28.6551 172.512 30.9318 174.291 33.3483C174.52 33.3229 174.736 33.3483 174.94 33.4246C175.499 33.6408 176.046 34.3276 175.855 35.5741C176.529 36.5788 177.19 37.6218 177.826 38.6647C178.118 39.1607 178.41 39.6695 178.703 40.1655C180.33 40.0892 181.334 39.733 181.894 39.4151C181.169 39.148 180.254 38.6392 179.974 37.7489C179.542 36.3626 180.292 35.0399 180.33 34.9763C180.432 34.7982 180.648 34.7092 180.838 34.7601C181.042 34.8109 181.182 34.989 181.182 35.2052C181.182 35.2052 181.182 35.6631 181.512 35.9556C181.741 36.1718 182.097 36.2736 182.58 36.2481C183.33 36.21 184.818 35.3706 186.063 33.8698C187.119 32.6106 188.822 29.9016 188.326 25.8952C188.034 23.5423 186.979 21.8125 185.174 20.7442C182.822 19.3451 179.313 19.2307 176.211 20.4644C174.075 21.3038 171.304 23.5295 168.545 26.5566H168.533ZM175.893 39.4532C176.224 39.8602 176.821 40.0892 177.635 40.1528C177.431 39.8094 177.241 39.466 177.037 39.1226C176.58 38.3594 176.084 37.609 175.601 36.8714C175.448 37.838 175.397 38.8427 175.893 39.4532ZM78.6282 34.9C78.8316 35.2815 78.9968 35.7267 79.1494 36.21C85.9888 26.2768 95.1928 18.6583 106.227 14.5121C109.139 13.4183 113.893 11.3706 117.961 8.78869C122.36 5.9906 125.958 2.67104 125.958 2.67104C125.958 2.67104 129.314 6.10506 133.84 8.89044C137.997 11.4596 143.196 13.3547 146.158 14.423C156.913 18.3149 165.85 25.3483 172.601 34.5184C172.855 34.1496 173.135 33.8698 173.414 33.679C166.41 24.2036 157.129 17.1702 146.552 13.3419C143.755 12.3245 138.556 10.4421 134.45 7.91111C130.14 5.25292 126.822 1.89521 126.784 1.85705L126.008 1.05578L125.182 1.8189C125.182 1.8189 121.623 5.08758 117.338 7.80936C112.889 10.6329 107.804 12.6806 105.821 13.4183C95.1039 17.4501 85.7092 24.8777 78.6282 34.8873V34.9ZM76.0475 33.4246C76.6196 33.2084 77.395 33.3865 78.0815 34.1241C79.7342 31.8094 81.5012 29.6345 83.3827 27.6122C80.3698 24.0764 77.1789 21.4055 74.8016 20.4644C71.7124 19.2434 68.191 19.3578 65.8392 20.7442C64.034 21.8125 62.9788 23.555 62.6864 25.8952C62.1906 29.9016 63.8941 32.6106 64.9493 33.8698C66.2078 35.3578 67.6825 36.21 68.4326 36.2481C68.9029 36.2736 69.2589 36.1718 69.5004 35.9556C69.8183 35.6631 69.831 35.2052 69.831 35.2052C69.831 35.0017 69.9708 34.8237 70.1742 34.7728C70.3776 34.7219 70.581 34.8109 70.6827 34.989C70.7081 35.0399 71.4582 36.3753 71.0387 37.7617C70.759 38.652 69.8437 39.1607 69.119 39.4278C69.742 39.7712 70.9115 40.1909 72.9074 40.1909C73.9753 40.1909 74.7127 39.9493 75.1068 39.466C75.7932 38.6138 75.4373 36.9731 75.183 35.7903C74.8779 34.4167 75.4754 33.6663 76.0602 33.4373L76.0475 33.4246ZM84.743 26.1877C81.1326 21.8253 76.6704 18.6329 71.2929 18.6329C70.759 18.6329 70.2632 18.6838 69.7801 18.7474C71.5345 18.6583 73.3905 18.9381 75.1195 19.6249C77.6112 20.6043 80.9165 23.3388 84.0056 26.9509C84.2472 26.6965 84.5014 26.4421 84.743 26.1877ZM69.9581 48.2545C70.4666 47.4532 69.9962 46.3086 69.8183 45.9397C64.6315 43.892 61.288 41.7935 58.5802 36.7696C55.1096 30.334 58.9107 22.2831 59.076 21.9524C59.2286 21.6345 59.3938 21.5073 59.343 21.5836C59.3048 21.6345 59.2413 21.7744 59.1396 22.0033C59.1014 22.0796 56.1267 30.2958 59.3811 36.3372C61.9872 41.1957 65.1018 43.1162 70.2632 45.1385C70.7844 45.1893 74.6237 45.431 77.0645 43.0272C79.2892 40.8396 78.857 37.202 77.8273 35.3324C77.3442 34.4548 76.734 34.1369 76.3653 34.2768C76.0475 34.3912 75.9331 34.8745 76.0475 35.485C76.3907 35.9175 77.5984 37.5327 77.5984 38.8682C77.5984 40.0383 77.1789 43.8793 71.8523 43.8793C66.5257 43.8793 62.2415 38.0669 62.0762 37.8125C61.9109 37.5582 61.8982 37.4564 61.8982 37.4564C61.9364 37.4564 62.0254 37.5836 62.1906 37.7744C62.2288 37.8253 66.9833 42.9636 71.8523 42.9636C76.2128 42.9636 76.6831 40.0892 76.6831 38.8682C76.6831 38.5502 76.5687 38.1687 76.4034 37.7998C76.4289 38.6138 76.3017 39.4151 75.8059 40.0256C75.2339 40.7378 74.255 41.0939 72.9074 41.0939C70.4285 41.0939 68.8394 40.369 67.9876 39.8221C66.4367 39.0335 59.9532 35.2815 59.9786 27.8539C60.004 20.1591 65.8646 17.6154 66.1061 17.5137C66.335 17.4119 66.424 17.4628 66.1951 17.5645C66.1824 17.5645 64.8476 18.1877 63.5382 19.7521C62.3305 21.202 60.8939 23.7712 60.8939 27.8412C60.8939 34.3658 66.246 37.8125 68.0385 38.7919C68.0385 38.7919 68.0512 38.7919 68.0639 38.7919C68.5724 38.6901 69.9454 38.2704 70.1742 37.4946C70.2759 37.1639 70.2759 36.8205 70.2378 36.528C70.2123 36.5661 70.1742 36.5915 70.1361 36.6297C69.7165 37.024 69.1445 37.2148 68.3944 37.1766C67.4537 37.1257 65.7629 36.2609 64.2628 34.4803C63.1059 33.1067 61.2626 30.1559 61.7965 25.8062C61.9745 24.4071 62.4194 23.1734 63.1059 22.1559C63.9704 20.3117 66.0934 17.59 71.2548 16.865C75.1067 16.3308 81.2724 18.0733 87.7559 23.3769C88.0737 23.0971 88.3915 22.8173 88.7221 22.5375C83.5861 17.0431 77.7764 14.245 71.4201 14.245C65.0637 14.245 60.6397 16.3563 58.059 20.528C54.5376 26.2132 55.7453 34.1241 57.131 36.8968C58.7073 40.0637 61.6567 43.3578 64.7713 44.6424C67.6189 45.8125 68.2292 47.7076 68.4453 48.2927C68.547 48.5598 68.5978 48.7887 68.6233 48.9795C69.0301 48.9286 69.7293 48.6869 69.9962 48.2799L69.9581 48.2545ZM70.9878 46.5629C71.0641 46.3976 71.1277 46.2323 71.1912 46.0796C71.0768 46.0796 70.9497 46.0796 70.848 46.0796C70.8988 46.2195 70.9497 46.3849 70.9878 46.5629ZM64.5933 82.175C64.5933 91.3706 65.7756 100.185 68.1148 108.35C68.1148 108.363 68.1148 108.375 68.1148 108.401C68.2419 108.503 68.3817 108.592 68.5088 108.681C68.7631 108.833 69.1063 108.922 69.475 108.986C67.0087 100.744 65.7375 91.7013 65.7375 82.1877C65.7375 68.9222 68.5343 56.4707 73.6321 45.7998C73.1363 45.9143 72.6532 45.9906 72.2082 46.0415C67.2249 56.8014 64.5806 69.2911 64.5806 82.1877L64.5933 82.175ZM51.8552 115.625C52.173 115.663 52.9358 115.574 53.635 115.485C56.2156 115.167 60.6905 114.62 65.229 116.77C65.318 116.795 65.4069 116.833 65.4832 116.884C66.2078 117.24 66.9325 117.673 67.6571 118.181H67.6825C71.776 121.145 74.8525 125.253 78.1197 129.615C78.946 130.722 79.7977 131.841 80.6622 132.96C80.6876 132.986 80.7258 132.973 80.7512 133.011C83.0141 135.822 85.4676 138.366 88.1246 140.63C88.417 140.859 88.6966 141.088 88.9509 141.291C88.9636 141.304 88.9636 141.329 88.9763 141.342C93.4131 144.992 98.3456 147.892 103.749 149.991C103.812 150.016 103.863 150.054 103.901 150.092C104.791 149.914 105.719 149.673 106.647 149.342C103.418 148.057 100.519 146.429 97.9896 144.522C95.9048 143.084 93.8834 141.38 91.9638 139.256C86.8914 133.622 86.116 128.827 86.4846 122.442C86.4973 122.226 86.51 122.01 86.5228 121.806C85.2896 121.768 84.0692 121.526 83.0268 121.03C80.8529 120.013 79.7087 118.118 79.4926 115.739C79.2511 113.208 80.0647 111.262 81.5267 109.991C81.6157 109.914 81.7174 109.851 81.8191 109.774C81.6029 108.999 82.0098 108.477 82.2767 108.172C82.353 108.083 82.4801 107.93 82.4801 107.879C82.4801 107.879 82.4801 107.854 82.4547 107.828C82.442 107.816 82.3148 107.752 82.0225 107.79C81.069 107.879 79.5562 108.681 78.8316 109.724C77.7637 111.262 76.912 114.557 76.8992 114.582C76.8611 114.709 76.7848 114.811 76.6704 114.875C76.6068 114.913 76.5306 114.925 76.467 114.925C76.4162 114.925 76.3526 114.925 76.3017 114.887L74.7254 114.251C74.7254 114.62 74.7254 115.002 74.7127 115.383C74.6745 117.062 74.5728 119.072 75.1322 120.445C76.3145 123.358 79.1113 125.876 79.1367 125.902C79.3274 126.054 79.2511 126.22 79.0604 126.067C78.9206 125.952 75.7042 123.345 74.433 120.522C73.7338 118.97 73.7719 117.138 73.7973 115.358C73.8228 113.87 73.8609 112.471 73.4287 111.504C72.8947 110.309 71.6616 110.169 70.3522 110.016C69.5259 109.914 68.7377 109.825 68.102 109.456C67.0723 108.859 66.2333 107.79 65.7502 107.091C65.4705 107.727 65.1018 108.808 65.0383 110.207C64.9239 112.572 65.7502 114.747 65.7629 114.773C65.8519 115.002 65.7375 115.269 65.5086 115.358C65.2798 115.447 65.0128 115.332 64.9239 115.103C64.9111 115.065 63.1314 110.792 59.6354 111.135C56.6352 111.428 53.2917 113.641 52.1984 115.103C52.0077 115.358 51.9442 115.523 51.9187 115.612L51.8552 115.625ZM87.1203 118.537C89.4213 118.537 91.8621 116.668 92.3452 113.704C92.9554 109.965 91.2392 107.307 90.7688 107.727C90.7307 107.765 91.5443 108.642 91.1756 110.474C90.9087 111.784 89.9171 113.107 88.2517 112.751C87.5779 112.611 87.3745 111.415 86.3066 111.415C84.209 111.415 82.9632 112.636 82.9632 114.735C82.9632 116.833 84.832 118.537 87.133 118.537H87.1203ZM21.9803 310.283H22.8447V303.39H27.1671V310.283H28.0315V302.588H21.9676V310.283H21.9803ZM38.1636 305.056C38.1636 306.709 36.7779 307.574 35.1379 307.574H33.2692V310.283H32.4047V302.588H35.2778C37.0067 302.588 38.1509 303.517 38.1509 305.043L38.1636 305.056ZM37.2864 305.056C37.2864 303.962 36.4601 303.39 35.2269 303.39H33.2819V306.773H35.1761C36.4474 306.773 37.2864 306.086 37.2864 305.056ZM42.8037 308.973V302.588H41.9393V310.283H42.791L47.3676 303.898V310.283H48.2193V302.588H47.393L42.8037 308.973ZM56.2665 306.786L53.4697 302.588H52.5925V310.283H53.4443V304.064L56.2411 308.172H56.2792L59.076 304.051V310.283H59.9405V302.588H59.0633L56.2665 306.786ZM71.8142 306.429C71.8142 308.553 70.2251 310.41 67.8859 310.41C65.5468 310.41 63.9704 308.579 63.9704 306.429C63.9704 304.28 65.5595 302.448 67.8986 302.448C70.2378 302.448 71.8142 304.28 71.8142 306.429ZM70.9115 306.429C70.9115 304.687 69.6403 303.25 67.8859 303.25C66.1316 303.25 64.873 304.661 64.873 306.429C64.873 308.197 66.1443 309.609 67.8986 309.609C69.653 309.609 70.9115 308.197 70.9115 306.429ZM81.5902 305.043C81.5902 306.696 80.2045 307.561 78.5646 307.561H76.6958V310.27H75.8314V302.576H78.7044C80.4334 302.576 81.5775 303.504 81.5775 305.03L81.5902 305.043ZM80.7131 305.043C80.7131 303.949 79.8867 303.377 78.6536 303.377H76.7085V306.76H78.6027C79.874 306.76 80.7131 306.073 80.7131 305.043ZM88.9 309.596C87.2093 309.596 85.9253 308.197 85.9253 306.417C85.9253 304.636 87.1965 303.237 88.9 303.237C89.9425 303.237 90.6671 303.682 91.3155 304.293L91.8875 303.682C91.1248 302.957 90.3112 302.436 88.9128 302.436C86.6499 302.436 85.0227 304.242 85.0227 306.417C85.0227 308.592 86.6626 310.398 88.8746 310.398C90.273 310.398 91.1502 309.902 91.9511 309.088L91.379 308.477C90.6417 309.177 89.9552 309.584 88.9 309.584V309.596ZM102.058 302.576H100.939L96.5277 307.167V302.576H95.6632V310.27H96.5277V308.21L98.1676 306.557L101.117 310.283H102.198L98.7651 305.959L102.058 302.601V302.576ZM106.609 308.96V302.576H105.744V310.27H106.596L111.173 303.886V310.27H112.024V302.576H111.198L106.609 308.96ZM117.262 306.786H121.457V305.997H117.262V303.377H121.953V302.588H116.398V310.283H122.004V309.495H117.262V306.798V306.786ZM137.183 305.043C137.183 306.696 135.797 307.561 134.157 307.561H132.289V310.27H131.424V302.576H134.297C136.026 302.576 137.17 303.504 137.17 305.03L137.183 305.043ZM136.306 305.043C136.306 303.949 135.479 303.377 134.246 303.377H132.301V306.76H134.195C135.467 306.76 136.306 306.073 136.306 305.043ZM141.823 306.786H146.018V305.997H141.823V303.377H146.514V302.588H140.959V310.283H146.565V309.495H141.823V306.798V306.786ZM154.129 306.328C154.828 306.073 155.54 305.552 155.54 304.522C155.54 303.339 154.472 302.461 152.947 302.461C151.726 302.461 150.925 302.83 150.163 303.479L150.671 304.076C151.345 303.479 152.07 303.212 152.934 303.212C153.938 303.212 154.663 303.797 154.663 304.585C154.663 305.501 153.887 306.035 152.781 306.035H151.93V306.747H152.781C153.951 306.747 154.854 307.167 154.854 308.159C154.854 309.075 154.002 309.647 153.061 309.647C151.955 309.647 151.142 309.278 150.366 308.553L149.845 309.164C150.747 309.991 151.726 310.41 153.048 310.41C154.65 310.41 155.744 309.444 155.744 308.223C155.744 307.205 155.044 306.607 154.129 306.328ZM160.549 308.96V302.576H159.684V310.27H160.524L165.1 303.886V310.27H165.952V302.576H165.126L160.536 308.96H160.549ZM176.338 309.482H177.342L177.215 311.987H176.491V310.27H170.249L170.096 311.987H169.359V309.482H170.147C170.884 308.312 171.317 306.417 171.317 303.924V302.588H176.351V309.482H176.338ZM175.474 303.377H172.143V304.382C172.143 306.366 171.762 308.439 171.126 309.495H175.474V303.39V303.377ZM181.678 306.798H185.873V306.01H181.678V303.39H186.368V302.601H180.813V310.296H186.419V309.507H181.678V306.811V306.798ZM195.661 306.01H191.225V302.588H190.36V310.283H191.225V306.824H195.661V310.283H196.526V302.588H195.661V306.01ZM207.027 302.588H206.162V309.482H201.764V302.588H200.899V310.283H207.167V312H207.891L208.018 309.495H207.014V302.601L207.027 302.588ZM212.366 308.973V302.588H211.502V310.283H212.353L216.93 303.898V310.283H217.782V302.588H216.955L212.366 308.973ZM223.019 308.973V302.588H222.155V310.283H223.007L227.583 303.898V310.283H228.435V302.588H227.609L223.019 308.973ZM97.5193 279.886H151.866V278.436H97.5193V279.886Z" fill="#C09973"/>
</g>
<defs>
<clipPath id="clip0_10_417224">
<rect width="251" height="312" fill="white"/>
</clipPath>
</defs>
</svg>
