<svg width="561" height="1164" viewBox="0 0 561 1164" fill="none" xmlns="http://www.w3.org/2000/svg">
<g opacity="0.15" clip-path="url(#clip0_7_237469)">
<path d="M565.74 1163.18C524.3 1163.18 484.26 1158.47 446.74 1149.19C444.91 1148.74 443.79 1146.89 444.25 1145.06C444.7 1143.23 446.58 1142.09 448.38 1142.57C485.36 1151.72 524.85 1156.36 565.74 1156.36C698.2 1156.36 818.219 1099.61 903.69 996.57C904.9 995.12 907.049 994.93 908.5 996.12C909.95 997.32 910.15 999.48 908.95 1000.93C822.16 1105.56 700.28 1163.19 565.75 1163.19L565.74 1163.18ZM395.34 1132.82C394.93 1132.82 394.51 1132.75 394.11 1132.59C325.15 1105.88 266.07 1062.29 218.51 1003.03C217.33 1001.56 217.56 999.41 219.04 998.23C220.51 997.05 222.66 997.29 223.84 998.76C270.64 1057.07 328.76 1099.96 396.58 1126.23C398.34 1126.91 399.21 1128.89 398.53 1130.65C398 1132 396.71 1132.83 395.35 1132.83L395.34 1132.82ZM569.18 1114.07C557.65 1114.07 531.3 1112.56 519.85 1109.55C518.02 1109.07 516.94 1107.2 517.42 1105.38C517.9 1103.55 519.75 1102.44 521.59 1102.95C532.32 1105.77 558.28 1107.25 569.19 1107.25C681.76 1107.25 767.529 1056.4 824.12 956.12C830.859 944.17 837.27 931.31 843.18 917.89C843.94 916.16 845.969 915.39 847.68 916.14C849.409 916.9 850.19 918.92 849.43 920.64C843.43 934.27 836.909 947.33 830.06 959.48C772.169 1062.06 684.4 1114.07 569.19 1114.07H569.18ZM466.73 1098.45C466.37 1098.45 466.01 1098.4 465.65 1098.27C396.24 1075.18 340.81 1026.52 300.9 953.65C294.22 941.45 287.9 928.44 282.11 914.98C281.37 913.25 282.17 911.24 283.9 910.5C285.63 909.78 287.63 910.56 288.38 912.29C294.08 925.55 300.31 938.37 306.88 950.37C345.94 1021.68 400.08 1069.27 467.81 1091.8C469.6 1092.4 470.56 1094.33 469.97 1096.12C469.49 1097.55 468.16 1098.45 466.73 1098.45ZM874.84 840.02C874.55 840.02 874.26 839.99 873.96 839.91C872.14 839.43 871.05 837.56 871.53 835.74C873.99 826.42 876.299 816.8 878.39 807.16C890.67 750.62 896.9 687.76 896.9 620.34C896.9 469.35 864.38 118.16 563.21 118.16C453.39 118.16 368.38 170.35 310.53 273.27C262.14 359.39 235.48 478.85 235.48 609.65C235.48 684.23 242.73 753.3 257.04 814.95C257.47 816.79 256.32 818.62 254.49 819.05C252.68 819.46 250.82 818.34 250.39 816.5C235.97 754.35 228.66 684.75 228.66 609.66C228.66 477.71 255.62 357.06 304.58 269.94C363.72 164.71 450.74 111.35 563.21 111.35C870.55 111.35 903.729 467.31 903.729 620.36C903.729 688.27 897.45 751.61 885.07 808.63C882.95 818.37 880.62 828.09 878.14 837.51C877.74 839.04 876.35 840.05 874.84 840.05V840.02ZM125.74 817.97C124.25 817.97 122.89 816.99 122.46 815.49C104.75 753.58 95.7695 686.84 95.7695 617.11C95.7695 519.44 115.69 424.81 153.42 343.23C153.81 342.39 157.17 338.86 158.88 339.66C160.59 340.46 161.58 341.89 160.78 343.6C122.72 424.84 102.6 519.42 102.6 617.11C102.6 686.2 111.49 752.31 129.03 813.61C129.55 815.42 128.5 817.31 126.68 817.83C126.37 817.92 126.05 817.96 125.74 817.96V817.97ZM1006.77 804.65C1006.45 804.65 1006.13 804.61 1005.81 804.51C1004 803.98 1002.97 802.08 1003.5 800.27C1020.95 740.81 1029.81 677.64 1029.81 612.51C1029.81 526.74 1015.03 446.03 985.88 372.59C985.66 372.04 985.44 371.5 985.229 370.95C984.529 369.2 986.549 369.97 988.299 369.27C990.039 368.57 990.859 366.65 991.56 368.41C991.93 369.33 992.299 370.25 992.659 371.18C1021.85 445.13 1036.64 526.31 1036.64 612.52C1036.64 678.31 1027.7 742.13 1010.06 802.21C1009.62 803.7 1008.26 804.66 1006.78 804.66L1006.77 804.65ZM957.33 308.06C956.13 308.06 954.979 307.43 954.349 306.32C952 302.14 949.609 298.01 947.159 293.91C942.269 285.75 937.13 277.66 931.859 269.89C930.81 268.33 931.21 266.21 932.78 265.15C934.34 264.08 936.46 264.5 937.52 266.06C942.85 273.94 948.07 282.13 953.02 290.4C955.5 294.55 957.93 298.74 960.299 302.97C961.229 304.62 960.64 306.7 959 307.62C958.469 307.92 957.9 308.06 957.33 308.06ZM203.96 265.29C203.28 265.29 202.6 265.09 202.01 264.67C200.46 263.59 200.09 261.46 201.17 259.92C255.25 182.74 327.4 125.56 409.82 94.55C424.5 89.03 462.2 73.94 495.06 53.04C526.55 33.01 552.74 9.05 553 8.81L561.62 0.890001C562.97 -0.359999 565.07 -0.299998 566.36 1.01L574.57 9.36C574.82 9.61 598.74 33.94 630.82 53.74C661.039 72.4 699.68 86.4 720.44 93.92C801.93 123.43 873.349 177.79 926.99 251.1C928.099 252.62 927.77 254.76 926.25 255.87C924.719 256.99 922.589 256.65 921.479 255.13C868.639 182.91 798.32 129.39 718.109 100.34C697.12 92.74 658.049 78.59 627.229 59.56C594.849 39.56 569.91 14.38 569.67 14.13L563.8 8.15L557.61 13.83C557.35 14.07 530.86 38.36 498.72 58.79C465.31 80.03 427.1 95.34 412.21 100.94C331.08 131.45 260.03 187.78 206.75 263.83C206.09 264.78 205.02 265.28 203.95 265.28L203.96 265.29Z" fill="#C09973"/>
<path d="M191.39 862.81C190.96 862.81 190.53 862.73 190.12 862.57L176.03 856.93C174.28 856.23 173.43 854.24 174.13 852.49C174.84 850.73 176.84 849.89 178.57 850.59L189.12 854.81C191.32 847.16 196.81 829.7 203.62 819.88C210.78 809.55 225.51 802.41 234.35 802.41H234.49C238.96 802.45 241.12 804.29 242.15 805.83C245.38 810.68 242.25 814.39 240.37 816.61C238.4 818.95 237.49 820.19 238.31 822.65C238.91 824.44 237.94 826.37 236.15 826.97C234.36 827.57 232.43 826.6 231.83 824.81C229.76 818.6 233.13 814.6 235.15 812.21C235.7 811.55 236.64 810.44 236.7 810.04C236.7 810.03 236.64 809.87 236.47 809.61C236.33 809.48 235.37 809.06 233.18 809.28C225.98 809.97 214.64 815.94 209.23 823.75C201.23 835.32 194.76 860 194.7 860.25C194.45 861.2 193.81 862 192.94 862.44C192.46 862.69 191.93 862.81 191.4 862.81H191.39Z" fill="#C09973"/>
<path d="M428.049 1124.38C427.589 1124.38 427.129 1124.29 426.679 1124.1C386.719 1106.67 344.659 1086.24 308.079 1045.6C269.989 1003.28 264.139 967.25 266.899 919.33C267.019 917.3 267.149 915.37 267.279 913.53C267.409 911.65 269.059 910.21 270.929 910.37C272.809 910.51 274.229 912.14 274.089 914.02C273.959 915.84 273.839 917.74 273.719 919.73C270.989 966.95 276.469 1000.27 313.159 1041.03C348.829 1080.66 390.149 1100.7 429.419 1117.84C431.149 1118.59 431.939 1120.61 431.179 1122.34C430.619 1123.62 429.359 1124.39 428.049 1124.39V1124.38Z" fill="#C09973"/>
<path d="M283.28 1067.01C282.55 1067.01 281.8 1066.78 281.18 1066.29C268.38 1056.29 249.64 1040.98 234.72 1023.51C221.95 1008.56 210.1 992.74 198.64 977.43C174.47 945.15 151.63 914.66 121.74 893.17C84.0997 866.11 43.1397 871.22 21.1297 873.96C8.78967 875.5 1.33967 876.43 0.129674 870.4C-0.450326 867.53 0.679674 864.24 3.57967 860.35C12.2897 848.61 38.8997 830.27 64.2197 827.82C80.1297 826.27 91.8097 834.75 99.4997 843.62C98.8197 838.63 98.4297 833.05 98.7197 827.29C99.6997 807.79 107.42 796 107.75 795.51C108.41 794.52 109.42 793.93 110.72 793.99C111.9 794.03 112.98 794.69 113.57 795.72C113.65 795.86 121.72 810.04 132.05 816.05C135.54 818.09 140.75 818.69 146.26 819.33C156.49 820.52 169.21 822 174.79 834.52C178.65 843.2 178.42 854.45 178.18 866.36C177.92 878.94 177.15 894.01 181.37 904.39C190.28 926.31 211.22 945.18 211.46 945.37C212.93 946.55 212.34 947.79 210.87 946.59C209.85 945.76 185.7 926.11 176.09 904.95C170.81 893.34 171.09 879.54 171.36 866.21C171.59 855.08 171.8 844.57 168.56 837.28C164.58 828.31 155.31 827.23 145.49 826.1C139.25 825.37 133.35 824.69 128.63 821.94C120.91 817.44 114.55 809.46 110.93 804.21C108.83 809 106.1 817.08 105.58 827.61C104.69 845.41 110.93 861.74 110.99 861.91C111.67 863.66 110.81 865.62 109.06 866.31C107.32 866.99 105.35 866.16 104.64 864.43C104.51 864.1 91.1397 832.02 64.9197 834.6C42.4297 836.78 17.2497 853.43 9.09968 864.41C7.69968 866.3 7.16967 867.54 6.96967 868.26C9.32967 868.54 15.1297 867.83 20.3197 867.19C43.2497 864.33 85.9397 859 125.76 887.63C156.51 909.73 179.65 940.63 204.14 973.34C215.54 988.56 227.32 1004.29 239.95 1019.07C254.46 1036.07 272.85 1051.09 285.41 1060.9C286.9 1062.06 287.16 1064.21 286 1065.69C285.32 1066.55 284.32 1067 283.3 1067L283.28 1067.01Z" fill="#C09973"/>
<path d="M269.6 914.66C259.54 914.66 249.48 912.72 240.91 908.7C224.58 901.05 216.01 886.81 214.33 868.95C212.54 849.96 218.6 835.37 229.59 825.79C244.48 812.82 265.93 812.59 276.61 813.43C274.34 809.45 270.69 804.22 265.91 801.13C257.15 795.48 248.05 793.82 247.96 793.8C246.11 793.47 244.87 791.7 245.19 789.85C245.52 788 247.28 786.77 249.14 787.08C249.56 787.16 259.64 788.96 269.61 795.4C279.92 802.05 285.42 815.74 285.65 816.32C286.1 817.47 285.9 818.78 285.11 819.74C284.33 820.7 283.08 821.17 281.86 820.93C281.55 820.86 251.63 815.6 234.05 830.96C224.72 839.1 219.63 851.83 221.15 868.64C222.9 888.03 233.97 897.91 243.81 902.52C262.56 911.3 289.14 909.14 304.32 897.62C316.8 888.14 324.61 871.03 325.21 851.83C325.94 828.81 316.31 806.94 298.81 791.83C275.08 771.35 245.35 771.47 245.03 771.54H244.98C243.12 771.54 241.59 770.04 241.56 768.18C241.53 766.3 243.04 764.75 244.92 764.72C246.2 764.71 277.55 764.46 303.26 786.67C322.33 803.13 332.81 826.96 332.02 852.06C331.35 873.29 322.54 892.37 308.43 903.07C298.41 910.68 284 914.67 269.59 914.67L269.6 914.66Z" fill="#C09973"/>
<path d="M131.32 374.59C129.82 374.59 128.5 374.41 127.65 373.85C126.39 373.01 125.96 372.37 125.83 368.8C125.92 365.64 120.97 350.31 101.01 341.46C73.4203 329.23 51.3002 302.39 40.1702 280.1C28.8302 257.37 19.3202 196.02 47.4702 150.51C68.1702 117.05 103.89 100.08 153.65 100.08C203.41 100.08 250.12 122.36 290.44 166.29C291.71 167.68 291.62 169.84 290.23 171.12C288.84 172.38 286.68 172.3 285.4 170.91C246.44 128.45 202.11 106.91 153.65 106.91C105.19 106.91 72.6502 122.79 53.2802 154.1C26.8702 196.79 35.8702 256.17 46.2802 277.05C58.1302 300.8 80.2503 325.58 103.65 335.16C125.05 343.93 129.63 358.14 131.26 362.52C132 364.51 132.44 366.25 132.59 367.72C135.66 367.3 140.9 365.5 142.85 362.44C147.44 355.26 141.36 344.2 141.3 344.09C140.66 342.97 140.71 341.59 141.42 340.52C142.13 339.45 143.4 338.91 144.66 339.01C144.99 339.06 176.63 342.48 196.22 323.19C212.95 306.73 209.65 279.49 201.98 265.41C198.4 258.85 193.73 256.45 190.95 257.48C188.45 258.41 187.53 262.26 188.62 267.27C190.86 277.57 193.93 291.69 186.71 300.65C182.42 305.98 175.08 308.67 164.9 308.67C135.39 308.67 122.6 295.08 122.24 294.59C121.55 293.65 125.44 294.55 125.87 293.46C126.3 292.37 127.25 291.58 128.4 291.36C132.21 290.62 142.48 287.43 144.28 281.57C145.05 279.07 145.09 276.54 144.79 274.27C144.56 274.52 144.31 274.77 144.06 275.02C140.9 278.02 136.57 279.45 130.98 279.14C123.92 278.79 111.18 272.3 99.9103 258.89C91.2603 248.59 77.3302 226.44 81.3602 193.76C83.7702 174.21 93.1003 159.09 108.34 150.04C127.72 138.53 156.48 137.49 181.62 147.41C200.88 155.01 226.57 176.45 250.35 204.74C251.56 206.18 251.38 208.34 249.93 209.55C248.48 210.75 246.33 210.58 245.12 209.13C222.04 181.67 197.36 160.97 179.11 153.76C155.88 144.59 129.47 145.43 111.82 155.91C98.2702 163.96 90.3102 176.97 88.1302 194.59C84.4202 224.71 97.1803 245.05 105.13 254.5C114.54 265.7 125.65 272.04 131.32 272.32C134.88 272.51 137.55 271.75 139.3 270.12C141.7 267.88 141.79 264.49 141.79 264.45C141.82 262.91 142.87 261.57 144.35 261.19C145.84 260.8 147.39 261.44 148.16 262.78C148.4 263.2 154.01 273.14 150.8 283.58C148.74 290.26 141.82 294.09 136.42 296.12C141.12 298.72 149.9 301.84 164.89 301.84C172.9 301.84 178.45 299.99 181.38 296.36C186.55 289.95 183.89 277.68 181.94 268.72C179.69 258.36 184.1 252.75 188.56 251.09C194.09 249.04 202.24 251.64 207.96 262.14C216.66 278.09 220.25 309.1 201 328.05C184.17 344.61 160.35 346.26 149.59 346.11C151.39 351.33 152.9 359.38 148.59 366.11C145.19 371.41 136.76 374.57 131.3 374.57L131.32 374.59Z" fill="#C09973"/>
<path d="M144.271 345.81C143.851 345.81 143.441 345.73 143.021 345.58C103.351 330.05 77.9509 314.4 57.3709 276.17C31.3409 227.84 59.8409 167.42 61.0809 164.89C62.2509 162.51 63.5009 161.57 63.0909 162.13C62.7909 162.55 62.3609 163.56 61.6009 165.28C61.3309 165.88 38.9409 227.56 63.3709 272.93C83.0609 309.5 106.481 323.94 145.501 339.21C147.251 339.9 148.121 341.88 147.431 343.64C146.901 344.99 145.611 345.81 144.251 345.81H144.271Z" fill="#C09973"/>
<path d="M131.291 299.59C130.851 299.59 130.931 300.56 130.501 300.38C129.871 300.12 67.5206 272.35 67.7506 209.28C67.9706 151.55 111.951 132.45 113.741 131.65C115.451 130.87 116.091 131.29 114.381 132.07C114.281 132.12 104.281 136.75 94.4406 148.52C85.3806 159.37 74.5706 178.72 74.5706 209.28C74.5706 267.76 132.041 293.45 132.621 293.7C134.351 294.44 135.161 295.77 134.431 297.51C133.881 298.81 132.621 299.59 131.281 299.59H131.291Z" fill="#C09973"/>
<path d="M157.011 329.6C117.131 329.6 84.8306 285.96 83.6206 284.04C82.4006 282.1 82.3105 281.38 82.3105 281.38C82.5605 281.39 83.2906 282.32 84.4706 283.8C84.8006 284.21 120.431 322.78 157.011 322.78C189.791 322.78 193.331 301.25 193.331 291.99C193.331 284.79 185.631 273.8 182.661 270.18C181.471 268.72 181.681 266.57 183.141 265.38C184.601 264.2 186.751 264.4 187.941 265.86C189.191 267.39 200.161 281.07 200.161 292C200.161 300.83 197.051 329.62 157.011 329.62V329.6Z" fill="#C09973"/>
<path d="M356.419 1160.47C290.629 1160.47 231.919 1139.67 176.109 1097.32C74.8794 1020.48 97.5294 882.48 97.7694 881.09C98.0994 879.24 99.8594 878 101.719 878.31C103.579 878.63 104.819 880.4 104.499 882.26C104.269 883.61 82.3594 1017.59 180.239 1091.88C259.679 1152.17 345.239 1167.78 449.469 1140.98C490.449 1130.44 520.589 1098.97 539.709 1076.22C565.169 1045.92 589.229 980.72 589.469 980.07C591.319 974.44 779.099 405.78 815.439 296.47C817.769 289.47 820.699 282.15 824.179 274.67L792.799 228.29C768.269 270.15 756.669 307.31 756.559 307.69L562.559 863.81C562.079 865.18 560.789 866.1 559.339 866.1C557.889 866.1 556.589 865.18 556.119 863.8L363.449 307.78C363.319 307.35 353.669 276.4 333.389 239.27L302.669 291.14C303.319 292.92 303.949 294.69 304.529 296.45C335.039 388.26 467.289 784.52 522.739 950.62C522.789 950.77 522.829 950.92 522.859 951.07C522.999 951.82 523.349 952.7 523.739 953.76C524.959 957.05 526.789 962.02 526.989 969.78C526.989 970.18 526.939 970.58 526.809 970.96L502.029 1044.49C476.719 1111.31 426.079 1130.84 388.049 1135.47C308.279 1145.19 237.689 1122.06 178.289 1066.74C104.809 998.31 120.219 890.96 120.379 889.88C120.669 888.02 122.409 886.75 124.269 887.02C126.129 887.3 127.419 889.05 127.129 890.91C126.969 891.95 112.139 995.82 182.939 1061.74C240.799 1115.63 309.529 1138.13 387.229 1128.69C423.399 1124.29 471.559 1105.7 495.609 1042.19L520.159 969.36C519.919 963.07 518.439 959.07 517.349 956.13C516.869 954.83 516.449 953.7 516.219 952.59C460.729 786.36 328.579 390.38 298.079 298.61C297.349 296.43 296.569 294.23 295.729 292.01C295.369 291.04 295.459 289.96 295.989 289.07L330.569 230.68C331.189 229.63 332.279 229 333.549 229C334.769 229.01 335.889 229.68 336.479 230.73C359.099 270.8 369.849 305.32 369.959 305.66L559.359 852.27L750.089 305.54C750.169 305.26 762.849 264.59 789.709 220.14C790.309 219.14 791.379 218.52 792.539 218.49C793.719 218.44 794.809 219.03 795.449 219.99L830.929 272.43C831.609 273.43 831.709 274.72 831.189 275.81C827.459 283.65 824.339 291.31 821.919 298.59C785.589 407.9 597.819 976.56 595.919 982.29C594.889 985.12 571.149 1049.38 544.929 1080.59C525.219 1104.07 494.039 1136.55 451.169 1147.57C417.859 1156.14 386.399 1160.46 356.419 1160.46V1160.47Z" fill="#C09973"/>
<path d="M350.139 1156.93C297.939 1156.93 249.829 1142.25 204.429 1112.67C157.279 1081.94 130.079 1051.94 116.239 1015.4C94.8094 958.82 95.8594 914.49 99.1894 882.19C99.5494 878.67 102.749 876.17 106.209 876.48C109.729 876.84 112.289 879.98 111.919 883.5C108.739 914.4 107.719 956.79 128.209 1010.87C141.029 1044.71 166.689 1072.8 211.429 1101.95C273.509 1142.41 341.029 1153.59 417.869 1136.14C475.969 1122.94 504.629 1063.77 516.539 1029.69C517.709 1026.36 521.359 1024.6 524.689 1025.76C528.029 1026.93 529.789 1030.58 528.619 1033.91C515.839 1070.49 484.809 1134.05 420.699 1148.62C396.329 1154.16 372.839 1156.94 350.139 1156.94V1156.93Z" fill="#C09973"/>
<path d="M245.671 776.04C245.671 776.04 272.441 771.59 304.791 797.27C320.511 809.75 293.101 780.83 281.811 775.47C270.521 770.11 245.681 766.72 244.551 767C243.421 767.28 245.681 776.03 245.681 776.03L245.671 776.04Z" fill="#C09973"/>
<path d="M577.17 1023.97L790.53 382.83C790.53 382.83 801.33 339.16 822.65 288.85C824.86 283.64 827.24 278.41 829.73 273.19C829.62 272.99 829.51 272.82 829.4 272.61C823.69 261.44 811.29 244.84 802.12 232.41C789.76 251.39 779.91 269.16 770.91 294.84C738.12 388.36 638.86 674.37 566.52 883.23C544.5 820.42 411.18 440.1 361.91 299.59C353.19 274.71 343.41 251.85 331 233.09L307.07 277.57C309.59 284.13 340.88 376.98 340.88 376.98L537.15 968.05C521.51 1013.25 508.38 1051.24 499.24 1077.75C482.72 1125.66 415.21 1151.08 415.21 1151.08C415.21 1151.08 483.95 1136.28 514.02 1109.98C534.89 1091.72 577.17 1023.97 577.17 1023.97Z" fill="#C09973"/>
<path d="M454.169 1104C365.849 1071.98 307.379 1001.64 270.769 913.89H268.469C264.589 1006.9 324.409 1085.37 422.119 1122.93C424.989 1124.03 457.509 1105.21 454.169 1104Z" fill="#C09973"/>
<path d="M311.161 853.81C315.751 825.77 302.821 805.74 299.311 808.94C299.011 809.22 305.091 815.82 302.341 829.58C300.371 839.44 292.861 849.38 280.341 846.68C275.311 845.59 273.731 836.65 265.721 836.65C249.991 836.65 240.561 845.78 240.561 861.55C240.561 877.32 254.581 890.12 271.881 890.12C289.181 890.12 307.521 876.09 311.171 853.82L311.161 853.81Z" fill="#C09973"/>
<path d="M256.39 199.73L279.79 178.17C229.77 136.18 182.07 122.46 152.44 126.6C92.5999 134.98 86.9199 179.39 86.9199 179.39C86.9199 179.39 103.28 139.99 152.91 139.99C194.52 139.99 228.9 165.38 256.4 199.73H256.39Z" fill="#C09973"/>
<path d="M913.39 314.94C904.21 297.92 916.07 262.45 916.07 262.45C865.16 192.06 797.159 138.21 715.169 108.52C693.01 100.49 653.88 86.23 622.68 66.96C588.71 45.98 563.5 20.24 563.5 20.24C563.5 20.24 536.45 45.11 503.4 66.13C472.88 85.54 437.14 100.86 415.29 109.08C331.07 140.76 260.94 199.3 209.34 275.68C209.34 275.68 218.59 296.95 203.87 320.29C195.37 333.77 172.03 340.57 172.03 340.57C132.79 421.44 111.27 516.19 111.27 617.13C111.27 689.65 121.06 758.53 140.12 821.2C143.57 822.18 146.25 822.81 147.8 822.97C159.58 824.13 166.03 818.06 171.67 835.91L177.31 853.76L191.4 859.4C191.4 859.4 200.48 821.93 214.85 813.08C228.64 804.59 237.94 803.94 240.33 810.95C225.99 746.07 219.97 676.94 219.97 609.65C219.97 368.37 311 102.65 563.2 102.65C833.31 102.65 912.4 371.42 912.4 620.34C912.4 683.17 906.83 746.69 894.25 806.46C895.58 807.03 896.87 807.72 898.02 808.66C910.18 818.61 917.92 819.71 922.34 834.09C923.3 837.23 926.719 857.28 930.93 857.23C933.589 857.19 938.139 854.22 941.479 853.36C944.829 852.5 948.029 836.66 950.159 833.54C953.44 828.74 961.349 827.33 961.349 827.33L987.84 820.97C1009.51 756.9 1021.11 686.45 1021.11 612.53C1021.11 513.78 1000.76 421.19 962.99 341.9C962.99 341.9 927.93 341.93 913.38 314.95L913.39 314.94ZM562.25 83.58C553.66 83.58 546.7 76.62 546.7 68.03C546.7 59.44 553.66 52.48 562.25 52.48C570.84 52.48 577.8 59.44 577.8 68.03C577.8 76.62 570.84 83.58 562.25 83.58Z" fill="#C09973"/>
<path d="M850.289 936.26C798.249 1046.01 708.849 1122.75 567.669 1122.75C550.099 1122.75 524.459 1119.89 508.479 1117.7C501.819 1121.08 500.069 1121.81 494.689 1124.13C486.439 1127.69 481.149 1135.78 474.959 1138.33C501.789 1143.92 530.829 1146.96 561.989 1146.96C685.679 1146.96 769.919 1093.52 829.929 1013.22C852.239 983.36 847.279 954.96 850.879 943.44C850.879 943.44 853.759 928.93 850.289 936.25V936.26Z" fill="#C09973"/>
</g>
<defs>
<clipPath id="clip0_7_237469">
<rect width="1120.3" height="1163.18" fill="white"/>
</clipPath>
</defs>
</svg>
