<svg width="153" height="36" viewBox="0 0 153 36" fill="none" xmlns="http://www.w3.org/2000/svg">
<path d="M28.7686 8.70855C28.8399 8.65841 28.8755 8.61543 28.8791 8.61185C28.9005 8.5832 28.8435 8.5832 28.8292 8.55096C28.8185 8.51873 28.79 8.49724 28.758 8.49008C29.1499 8.27518 30.3152 7.51947 30.3152 6.0976C30.3152 5.20579 30.0123 4.61483 29.7521 4.29966C29.4671 3.95583 29.182 3.81615 29.1784 3.81257C29.1285 3.79108 29.0893 3.76959 29.0929 3.75884C29.0929 3.75884 29.1214 3.766 29.1713 3.78749C29.2248 3.80898 30.5147 4.26026 30.5147 6.0976C30.5147 7.69855 29.1357 8.51873 28.7686 8.70855ZM85.5909 11.3446H85.3307L87.8323 4.42143H88.0247L90.5262 11.3446H89.7993L88.9939 9.15266H86.3356L85.5873 11.3446H85.5909ZM86.3962 8.98433H88.9369L87.6363 5.38845L86.3962 8.98433ZM28.0595 3.68721C27.4145 3.60125 26.0391 3.90569 24.7242 4.98373C24.9807 5.20221 25.2337 5.43501 25.476 5.67497C26.0925 4.9909 26.7268 4.48948 27.215 4.29249C27.9419 4.00239 28.7758 4.03462 29.3388 4.36771C29.6595 4.56111 29.8876 4.84763 30.0158 5.20937C29.9232 4.86912 29.5276 3.88061 28.0595 3.68363V3.68721ZM27.9277 9.60036C29.0822 9.60036 30.0016 8.33249 30.0443 8.27876C30.08 8.23579 30.1014 8.19997 30.0942 8.19639C30.0835 8.18923 30.0586 8.22862 30.023 8.2716C30.0123 8.28235 28.9896 9.40337 27.9277 9.40337C26.9762 9.40337 26.8765 8.7766 26.8765 8.5044C26.8765 8.43635 26.9014 8.35398 26.937 8.2716C26.9442 8.10327 26.9798 7.93135 27.0119 7.78451C27.0119 7.77735 27.0119 7.77018 27.0119 7.7666C26.937 7.85972 26.6769 8.2143 26.6769 8.5044C26.6769 8.76227 26.766 9.60036 27.9277 9.60036ZM42.249 12.5516C42.1813 12.5516 42.1029 12.5408 42.0459 12.5122V13.0888C42.1136 13.1174 42.192 13.1282 42.2597 13.1282C42.7657 13.1282 43.1898 12.4835 43.5212 11.4413L46.0227 4.51813H45.7412L43.7136 10.4957L41.5506 4.51813H40.8237L43.3252 11.4413C43.1007 12.1934 42.6375 12.5516 42.249 12.5516ZM30.8176 8.04238C31.573 6.63483 30.8176 5.10551 30.7855 5.04104C30.7642 4.9909 30.7463 4.96941 30.7463 4.96941C30.7392 4.96941 30.757 5.00164 30.7748 5.05536C30.7784 5.06969 31.3521 6.62409 30.643 7.94568C30.0729 9.00582 29.3958 9.42844 28.2733 9.87256H28.2876C28.3232 9.86897 28.3624 9.8833 28.3802 9.91553C28.4016 9.94777 28.4016 9.98717 28.3838 10.0194C28.3838 10.0194 28.3767 10.0301 28.3695 10.0481C29.4991 9.60036 30.2261 9.14192 30.8176 8.04238ZM26.3633 29.1592C26.3633 29.1592 26.3705 29.1377 26.374 29.127C26.1816 29.3705 25.9678 29.6177 25.729 29.872C25.9464 29.6427 26.1602 29.4064 26.3633 29.1592ZM1.8506 7.95284C1.14148 6.63125 1.79002 4.83331 1.80071 4.8154C1.82209 4.76526 1.83635 4.73661 1.84347 4.72228C1.85417 4.70437 1.81853 4.73302 1.78646 4.80107C1.75083 4.87629 0.924114 6.63483 1.67956 8.04238C2.27108 9.1455 2.99802 9.60394 4.12762 10.0481C4.1205 10.0337 4.11337 10.0194 4.11337 10.0194C4.09555 9.98717 4.09555 9.94777 4.11337 9.91553C4.13475 9.8833 4.17039 9.86897 4.20602 9.87256H4.22027C3.0978 9.43202 2.42075 9.0094 1.8506 7.94568V7.95284ZM59.4105 9.15266H56.7521L56.0038 11.3446H55.7437L58.2452 4.42143H58.4376L60.9392 11.3446H60.2122L59.4069 9.15266H59.4105ZM59.3534 8.98791L58.0528 5.39203L56.8127 8.98791H59.3534ZM73.0904 11.3482H71.5296V4.52171H72.2566V7.00731H73.0904C74.7866 7.00731 75.681 8.12834 75.681 9.23146C75.681 10.3346 74.8472 11.3482 73.0904 11.3482ZM72.2566 11.1834H73.0904C74.245 11.1834 74.8187 10.1877 74.8187 9.19564C74.8187 8.20355 74.2378 7.17923 73.0904 7.17923H72.2566V11.187V11.1834ZM57.6822 19.335C57.6109 21.1795 57.2688 22.7912 56.8911 24.2203L57.0158 24.2561C57.8069 22.9166 58.4911 21.398 58.908 19.6395H61.4095V31.9994H62.7601V19.6395H65.2616C65.6749 21.3944 66.3591 22.9166 67.1538 24.2561L67.2785 24.2203C66.9008 22.7912 66.5587 21.1795 66.4874 19.335H57.6822ZM67.4923 11.1941H68.4722C68.1729 11.9463 68.1622 12.6948 68.1622 13.5043H68.0945C67.9021 12.8918 67.7346 12.3044 67.7346 11.7385C67.7346 11.6132 67.7453 11.4771 67.7631 11.3482H64.0678C64.0857 11.4843 64.0963 11.6204 64.0963 11.7565C64.0963 12.3223 63.9324 12.899 63.7471 13.5007H63.6794C63.6794 12.6912 63.6687 11.9391 63.3694 11.1906L63.601 11.1798C64.5026 11.1798 65.5716 8.63692 65.5716 6.42352C65.5716 5.76093 65.4754 5.11625 65.2402 4.58976V4.52171H67.4923V11.1906V11.1941ZM66.7654 4.69005H65.7961C65.8068 4.86554 65.8068 5.04104 65.8068 5.21653C65.8068 7.98508 65.03 10.6354 63.993 11.1941H66.7689V4.68646L66.7654 4.69005ZM51.1362 4.53246C51.6422 4.53246 52.1447 4.7581 52.5331 5.20579C52.7647 5.67497 53.0462 6.16207 53.3954 6.55962L53.4631 6.53097C53.1531 5.88629 52.95 5.05895 52.9001 4.39636H52.7825L52.5972 4.97299C52.2195 4.57186 51.7063 4.3892 51.1611 4.3892C49.7536 4.3892 48.1536 5.64632 48.1536 7.84181C48.1536 10.2415 49.579 11.4771 51.1219 11.4771C52.1589 11.4771 53.0925 10.9506 53.4025 9.89763L53.2457 9.85823C52.9749 10.7859 52.1803 11.341 51.1326 11.341C49.7251 11.341 48.9697 10.1698 48.9697 7.84181C48.9697 5.5138 50.0565 4.53604 51.1326 4.53604L51.1362 4.53246ZM8.29326 30.9214C8.32889 30.9572 8.33602 31.0109 8.30395 31.0503C8.28613 31.0754 8.25406 31.0897 8.22555 31.0897C8.20417 31.0897 8.18279 31.0825 8.16497 31.0682C8.1044 31.0216 8.03313 30.9643 7.96542 30.9106C8.92755 31.7415 10.0037 32.4041 11.1832 32.8948C11.201 32.8948 11.2188 32.8948 11.2366 32.8912C11.3329 32.8805 11.4326 32.8626 11.5324 32.8447C11.5253 32.8375 11.5181 32.8267 11.5075 32.8196C10.3315 32.3611 9.25538 31.7272 8.28969 30.9285L8.29326 30.9214ZM32.3891 25.0655C32.4746 25.1801 32.5067 25.2732 32.4888 25.3592C32.4532 25.5347 32.2358 25.506 31.8795 25.4631C31.2417 25.3843 30.055 25.2338 28.9611 26.0218C28.1878 26.5805 27.7281 27.2395 27.1972 28.0024C26.9477 28.3605 26.684 28.7366 26.374 29.1306C26.3847 29.0912 26.3812 29.0518 26.3491 29.0231C26.3063 28.9873 26.2457 28.9945 26.2101 29.0375C26.007 29.2846 25.7968 29.5174 25.5794 29.743C26.203 29.0804 26.6377 28.4608 27.0333 27.8878C27.5749 27.1106 28.0417 26.4408 28.8435 25.8606C29.998 25.0261 31.2345 25.1801 31.9009 25.2661C32.0505 25.284 32.218 25.3055 32.2893 25.2983C32.2822 25.2768 32.2679 25.241 32.2287 25.1873C31.9935 24.8685 31.263 24.3814 30.6109 24.3206C29.8484 24.2489 29.4635 25.1801 29.4599 25.1909C29.4386 25.241 29.3815 25.2661 29.3317 25.2446C29.2818 25.2231 29.2568 25.1658 29.2746 25.1157C29.2746 25.1121 29.4564 24.6357 29.4314 24.1164C29.4172 23.8084 29.3388 23.5756 29.2746 23.4359C29.1677 23.5899 28.986 23.8227 28.7615 23.9516C28.6261 24.0304 28.4551 24.0519 28.2733 24.0734C27.9883 24.1057 27.721 24.1379 27.6034 24.3993C27.5108 24.6107 27.5143 24.9187 27.5214 25.241C27.5286 25.6278 27.5357 26.0325 27.386 26.3692C27.1081 26.9852 26.4061 27.5583 26.3776 27.5833C26.3348 27.6192 26.3028 27.5941 26.3455 27.5619C26.3526 27.5547 26.9157 27.1321 27.2043 26.2904C27.3112 25.9824 27.3326 25.6135 27.3219 25.2482C27.3219 25.1622 27.3219 25.0798 27.3219 25.001L26.9798 25.1407C26.9549 25.1515 26.9228 25.1515 26.8978 25.1371C26.8729 25.1228 26.8551 25.1013 26.848 25.0727C26.848 25.0655 26.6591 24.3456 26.4275 24.009C26.2707 23.7797 25.9429 23.6078 25.7326 23.5863C25.7041 23.5863 25.6827 23.5863 25.6685 23.5863C25.6685 23.5792 25.6685 23.572 25.672 23.5648C25.6863 23.5075 25.6934 23.4431 25.7041 23.3858C25.7754 23.3858 25.8609 23.4037 25.95 23.4359C26.3063 21.7132 26.4631 19.8866 26.4631 18.0815C26.4631 10.8288 24.1683 2.99597 16.3395 2.99597C9.02732 2.99597 6.39039 10.7393 6.39039 17.7699C6.39039 19.6538 6.55431 21.5842 6.9356 23.4108C6.98548 23.4323 7.01755 23.461 7.03537 23.486C7.12802 23.6257 7.03537 23.7368 6.98548 23.8012C6.95341 23.8406 6.9356 23.8693 6.92491 23.9015C7.03537 23.8442 7.15296 23.7976 7.27056 23.769C7.27056 23.7797 7.27056 23.7905 7.27768 23.7976C7.28837 23.8514 7.34539 23.8836 7.39528 23.8729C7.44873 23.8621 7.4808 23.8084 7.47011 23.7547C7.47011 23.7475 7.47011 23.7368 7.46655 23.7296C7.69104 23.6974 7.89772 23.6974 8.03669 23.7081C7.97255 23.5935 7.86565 23.4395 7.72667 23.3499C7.59126 23.264 7.45585 23.2103 7.35608 23.178C7.34183 23.1064 7.32757 23.0312 7.31332 22.9596C7.42022 22.9882 7.6269 23.0491 7.83358 23.1852C8.1329 23.3786 8.29326 23.7797 8.29682 23.7941C8.31107 23.8263 8.30395 23.8657 8.28257 23.8943C8.26119 23.923 8.22199 23.9373 8.18992 23.9302C8.18279 23.9302 7.31332 23.7762 6.80375 24.2238C6.53293 24.4602 6.38683 24.8327 6.42959 25.3234C6.47948 25.8893 6.80019 26.1758 7.08526 26.3119C7.63046 26.5662 8.40016 26.5053 8.83846 26.1686C9.19837 25.8929 9.42642 25.395 9.44424 24.8327C9.46206 24.2238 9.23044 23.6436 8.80995 23.2103C8.09371 22.6587 7.4808 22.6086 7.24561 22.6157C7.23849 22.5763 7.2278 22.5369 7.22067 22.4975C7.16365 22.494 7.12089 22.494 7.12089 22.494C7.12089 22.494 7.11377 22.494 7.1102 22.4904C7.09951 22.4295 7.09239 22.365 7.1102 22.3614C7.11733 22.3614 7.15296 22.3614 7.19929 22.3686C7.19573 22.3435 7.19216 22.3185 7.1886 22.297C7.41666 22.3077 8.1721 22.3793 8.80995 22.9345C9.36228 23.4144 9.66517 24.1092 9.64379 24.8399C9.62597 25.4595 9.36941 26.0146 8.95962 26.3262C8.79926 26.4516 8.59615 26.5375 8.37522 26.5948C8.35384 26.5483 8.29682 26.5232 8.24693 26.5447C8.2113 26.559 8.19704 26.5948 8.19348 26.6342C8.11509 26.6486 8.04025 26.6521 7.96186 26.6593C7.9583 26.7094 7.95473 26.7596 7.95117 26.8169C7.95117 26.8241 7.95117 26.8312 7.95117 26.842C9.0095 29.2882 10.6629 31.2437 13.1217 32.1642C13.2036 32.0997 13.282 32.0352 13.364 31.9636C13.4174 31.9815 13.4638 32.0066 13.5172 32.0245C13.5279 32.0245 13.5386 32.0281 13.5493 32.0281C13.5671 32.0281 13.5814 32.0209 13.5956 32.0137C12.8687 32.7408 11.9885 33.0201 11.2651 33.1061C8.95249 33.389 6.90709 32.7157 5.18596 31.104C3.21539 29.2595 3.45058 26.4552 3.50046 26.0146C3.4185 25.9573 3.33655 25.9072 3.25459 25.8606C3.16907 26.7524 3.16194 27.9558 3.73565 29.478C4.10624 30.4629 4.851 31.2831 6.14808 32.1319C7.94761 33.3103 9.90392 33.6362 12.1346 33.1276C13.5742 32.7981 14.3903 31.4908 14.8107 30.4987C15.0317 29.8541 15.2954 29.0876 15.5911 28.2316L9.89323 10.9828C9.89323 10.9828 9.14135 8.74078 8.95249 8.19997L8.78501 8.48291C8.80283 8.53306 8.82064 8.58678 8.83846 8.63692C9.72219 11.3123 13.5564 22.8593 15.1635 27.698C15.1635 27.7015 15.1635 27.7051 15.1635 27.7123C15.1671 27.7338 15.1778 27.7588 15.1885 27.7911C15.2241 27.8878 15.2776 28.031 15.2811 28.2567C15.2811 28.2674 15.2811 28.2782 15.2776 28.2925L14.5577 30.4343C14.3119 31.0897 13.9805 31.5839 13.6099 31.9636C13.617 31.9564 13.6241 31.9493 13.6277 31.9385C13.6455 31.8848 13.617 31.8311 13.5635 31.8132C13.5422 31.806 13.5208 31.7953 13.4994 31.7881C13.8379 31.4335 14.1408 30.9715 14.3689 30.3662L15.0816 28.2424C15.0744 28.0597 15.0317 27.9415 14.9996 27.8555C14.9854 27.8161 14.9747 27.7839 14.9675 27.7517C13.3604 22.9094 9.5262 11.3696 8.64247 8.69423C8.64247 8.68706 8.63891 8.6799 8.63535 8.67274C8.72799 8.48291 8.82064 8.29667 8.91685 8.11759C8.91329 8.10327 8.90617 8.08536 8.9026 8.0782L9.59747 6.78167C9.62241 6.81749 9.64379 6.86047 9.66874 6.89987C9.70437 6.84972 9.74357 6.80316 9.7792 6.75302C10.4206 7.9027 10.7235 8.88405 10.7271 8.89479L16.2183 24.822L21.7487 8.89121C21.7487 8.89121 22.1122 7.72004 22.8783 6.43785C22.9888 6.57394 23.0957 6.71362 23.199 6.85689C23.2204 6.82465 23.2382 6.79242 23.2596 6.76018C23.5269 7.12192 23.8868 7.60543 24.0507 7.93135C24.0507 7.93852 24.0578 7.9421 24.0614 7.94926C24.0329 8.01015 24.0079 8.06745 23.9794 8.12834C23.9937 8.15699 24.0079 8.18206 24.0222 8.21072C23.9509 8.37547 23.8868 8.53664 23.8333 8.69064C22.7785 11.8746 17.3372 28.4465 17.2802 28.6113C17.2517 28.6936 16.5604 30.5668 15.8014 31.4765C15.6303 31.6842 15.4237 31.9134 15.192 32.1427C15.1706 32.1391 15.1457 32.1319 15.1243 32.1283C15.1172 32.1283 15.1101 32.1283 15.1029 32.1283C15.0709 32.1642 15.0388 32.2 15.0067 32.2322C15.0067 32.2573 15.0174 32.2752 15.0352 32.2895C14.9319 32.3862 14.8214 32.4793 14.7074 32.5725C14.7181 32.5653 14.7288 32.5617 14.743 32.5545C15.2063 32.619 15.951 32.7014 16.4606 32.7014C20.4623 32.7014 23.028 30.5596 24.5496 27.4723C24.5424 27.3434 24.5317 27.2073 24.5104 27.0604C24.5496 26.9781 24.5888 26.8957 24.628 26.8097C24.6493 26.7596 24.628 26.7023 24.5781 26.6772C24.5353 26.6593 24.4854 26.6772 24.4605 26.7166L24.4462 26.6342C24.3037 25.7568 24.2431 25.395 24.6814 24.9008C24.8738 24.6823 25.0342 24.539 25.1625 24.4244C25.2017 24.3886 25.2373 24.3564 25.2694 24.3277V24.3349C25.2551 24.3886 25.2836 24.4423 25.3371 24.4566C25.3442 24.4566 25.3549 24.4566 25.362 24.4566C25.4048 24.4566 25.4475 24.428 25.4582 24.3814C25.5152 24.163 25.5687 23.9373 25.6186 23.7117C25.6221 23.7296 25.6221 23.7439 25.6293 23.7654C25.6542 23.8693 25.6863 23.9982 25.6364 24.1486C25.583 24.3134 25.4618 24.4208 25.2943 24.5713C25.1696 24.6823 25.0128 24.822 24.8275 25.0333C24.4533 25.4559 24.5032 25.7424 24.6422 26.602L24.6778 26.8097C24.9023 28.2137 24.6707 28.9014 23.5482 30.1513C23.5269 30.1728 23.5055 30.1943 23.4841 30.2194C21.7915 32.1534 19.5002 33.3998 16.2967 33.3998C15.3987 33.3998 14.5613 33.3103 13.788 33.1527C13.6384 33.2243 13.4852 33.2888 13.3212 33.3425C13.2143 33.3174 13.1074 33.2995 13.0041 33.2744C12.9506 33.2601 12.8972 33.2923 12.8829 33.3461C12.8722 33.3926 12.8972 33.432 12.9364 33.4535C12.0242 33.6792 11.1618 33.7938 10.3351 33.7938C8.42867 33.7938 6.72535 33.1885 5.10756 31.9528C2.17131 29.7144 2.83054 25.6923 2.83767 25.6529C2.83767 25.6421 2.84836 25.6386 2.85192 25.6314C1.97532 25.2768 1.12366 25.3843 0.614096 25.4452C0.257755 25.4881 0.0403865 25.5168 0.00475233 25.3413C-0.0130647 25.2589 0.019006 25.1622 0.104528 25.0476C0.35753 24.7038 1.12723 24.1701 1.86129 24.0985C2.32097 24.0519 2.6595 24.2991 2.88399 24.5605C2.86261 24.4137 2.85192 24.2525 2.86261 24.0842C2.89112 23.5147 3.11561 23.1709 3.12274 23.1565C3.14056 23.1279 3.17263 23.11 3.20826 23.1136C3.2439 23.1136 3.2724 23.1351 3.29022 23.1637C3.29022 23.1637 3.35793 23.2819 3.46127 23.4144C3.48977 23.5219 3.51828 23.6329 3.54679 23.7403C3.55748 23.7833 3.60024 23.812 3.643 23.812C3.65013 23.812 3.66082 23.812 3.67151 23.8084C3.7214 23.7941 3.74634 23.7439 3.73921 23.6938C3.76772 23.7153 3.79623 23.7368 3.8283 23.7547C3.88531 23.7869 3.95658 23.8084 4.03854 23.8227C3.50403 22.0176 3.22608 20.0406 3.22608 17.9597C3.22608 15.0586 3.83542 12.3331 4.94365 9.99791C5.23585 9.92986 5.56012 9.80093 5.82737 9.53589C6.28705 9.08103 6.29418 8.39337 6.14452 7.90628C7.63403 5.73228 9.63667 4.06327 12.0384 3.15714C12.6727 2.91718 13.7096 2.46948 14.5934 1.90718C15.5519 1.29473 16.3359 0.571258 16.3359 0.571258C16.3359 0.571258 17.0664 1.3198 18.0499 1.93225C18.955 2.49455 20.0882 2.91001 20.7296 3.14281C23.0707 3.99522 25.0164 5.53171 26.4845 7.54096C26.4667 7.56603 26.4489 7.59111 26.4346 7.61976C26.1816 8.08536 26.0783 8.98791 26.6377 9.53947C27.0546 9.95135 27.6141 10.0481 27.9669 10.0624C28.0061 10.1448 28.0417 10.2307 28.0773 10.3167C28.0702 10.4241 28.088 10.5423 28.1557 10.6462C28.1842 10.6892 28.227 10.7285 28.2733 10.7608C29.1357 12.8811 29.5989 15.2807 29.5989 17.8236C29.5989 19.9117 29.2818 21.903 28.6867 23.726C28.8542 23.6114 29.0003 23.4323 29.0893 23.307C29.0822 23.3571 29.1072 23.4037 29.1535 23.418C29.1642 23.418 29.1713 23.4216 29.182 23.4216C29.2248 23.4216 29.264 23.3929 29.2782 23.3499C29.2996 23.2819 29.3174 23.2103 29.3352 23.1386C29.3388 23.1422 29.3459 23.1458 29.3495 23.153C29.3602 23.1673 29.5811 23.5111 29.6096 24.0806C29.6167 24.2489 29.6096 24.4101 29.5882 24.5569C29.8127 24.2991 30.1477 24.0519 30.6109 24.0949C31.345 24.1665 32.1147 24.7002 32.3677 25.044L32.3891 25.0655ZM16.2611 25.2231C16.3323 25.4308 16.3965 25.6063 16.4392 25.7317C18.5381 19.6466 21.4138 11.3123 22.3652 8.58678C22.6039 7.9027 22.8641 7.41203 23.1776 6.91061L22.9995 6.64558C22.2868 7.86689 21.9518 8.94851 21.9483 8.95926L16.3252 25.1622C16.3145 25.1909 16.2896 25.2088 16.2611 25.2195V25.2231ZM6.73248 24.0125C6.68616 23.8442 6.77524 23.7296 6.83226 23.6615C6.85007 23.6436 6.87502 23.6114 6.87858 23.5971C6.87858 23.5971 6.87858 23.5935 6.87145 23.5827C6.86789 23.5792 6.83938 23.5684 6.77524 23.572C6.565 23.5935 6.23717 23.7654 6.08038 23.9946C5.84875 24.3313 5.65989 25.0512 5.65989 25.0583C5.65277 25.087 5.63495 25.1085 5.61001 25.1228C5.59575 25.13 5.5815 25.1336 5.56368 25.1336C5.55299 25.1336 5.53874 25.1336 5.52805 25.1264L5.18596 24.9867C5.18596 25.0691 5.18596 25.1515 5.18596 25.2338C5.17883 25.5992 5.15745 26.0397 5.27861 26.3405C5.53874 26.9781 6.14452 27.5296 6.15164 27.5332C6.19441 27.569 6.17659 27.6048 6.13383 27.569C6.10532 27.5439 5.40333 26.9709 5.12538 26.3549C4.97215 26.0182 4.97928 25.6135 4.98997 25.2267C4.9971 24.9008 5.00422 24.5963 4.90801 24.385C4.79398 24.1236 4.52316 24.0913 4.23809 24.0591C4.05636 24.0376 3.88531 24.0197 3.7499 23.9373C3.52541 23.8048 3.34011 23.572 3.23677 23.4216C3.17619 23.5613 3.0978 23.7976 3.07998 24.1021C3.05504 24.6214 3.23677 25.0977 3.23677 25.1013C3.25815 25.1515 3.22964 25.2088 3.17976 25.2303C3.12987 25.2518 3.07285 25.2267 3.05147 25.1765C3.04791 25.1658 2.6595 24.231 1.90049 24.3062C1.24838 24.3707 0.517884 24.8542 0.282699 25.173C0.243501 25.2267 0.225684 25.2625 0.222121 25.284C0.289826 25.2912 0.457306 25.2732 0.610533 25.2518C1.17355 25.1801 2.14637 25.0619 3.13343 25.5311C3.15481 25.5383 3.17263 25.5454 3.18688 25.5562C3.34724 25.635 3.50759 25.7317 3.66438 25.8463C4.55523 26.491 5.22516 27.3899 5.93784 28.3426C6.11957 28.5826 6.30131 28.8297 6.49017 29.0733C6.45454 29.0446 6.40465 29.0375 6.36901 29.0697C6.32625 29.1055 6.31912 29.1664 6.35476 29.2094C6.85007 29.8326 7.39171 30.3913 7.97255 30.8927C7.61977 30.6098 7.18504 30.2337 6.82513 29.8039C6.45454 29.367 6.11245 28.9085 5.77749 28.4608C5.11469 27.5726 4.48397 26.7309 3.68576 26.1113C3.62875 26.7775 3.55035 29.2559 5.32137 30.9178C6.98548 32.4757 8.95962 33.1312 11.1903 32.8733C11.2758 32.9091 11.3578 32.9485 11.4433 32.9807C11.454 32.9843 11.4683 32.9879 11.479 32.9879C11.5181 32.9879 11.5573 32.9628 11.5716 32.9234C11.5859 32.884 11.5716 32.8447 11.5395 32.8196C11.7355 32.7802 11.9386 32.7265 12.1489 32.6548C11.4469 32.3719 10.8162 32.0173 10.2638 31.5983C9.81127 31.2831 9.36941 30.9106 8.95249 30.445C7.84783 29.213 7.68035 28.1636 7.75874 26.7668C7.75874 26.7166 7.76587 26.6736 7.76944 26.6271C7.50218 26.6199 7.23492 26.5662 7.00686 26.4552C6.53293 26.2331 6.28349 25.8176 6.23717 25.2983C6.18371 24.7432 6.36189 24.3205 6.67903 24.0412C6.70041 24.0233 6.72179 24.0125 6.74317 23.9946L6.73248 24.0125ZM16.7635 1.97881C16.7635 1.7281 16.5604 1.52395 16.3109 1.52395C16.0615 1.52395 15.8584 1.7281 15.8584 1.97881C15.8584 2.22952 16.0615 2.43367 16.3109 2.43367C16.5604 2.43367 16.7635 2.22952 16.7635 1.97881ZM51.938 25.6457C51.938 29.9364 49.2904 32.2322 46.2472 32.2322C43.204 32.2322 40.5742 29.9328 40.5742 25.6457C40.5742 21.3586 43.2219 19.0592 46.2472 19.0592C49.2725 19.0592 51.938 21.3586 51.938 25.6457ZM50.4271 25.6457C50.4271 21.484 49.0053 19.31 46.2508 19.31C43.4962 19.31 42.0923 21.4804 42.0923 25.6457C42.0923 29.8111 43.4962 31.9815 46.2508 31.9815C49.0053 31.9815 50.4271 29.8111 50.4271 25.6457ZM82.5192 4.52171C82.6653 5.39919 82.9468 6.27668 83.296 7.15416L83.2283 7.17206C82.6546 6.36263 82.17 5.54246 81.86 4.68646H79.3763V7.74869H80.1816C81.8493 7.74869 82.6831 8.64408 82.6831 9.54305C82.6831 10.442 81.8493 11.3482 80.1709 11.3482H78.6493V4.52171H82.5192ZM79.3763 7.91345V11.1798H80.2208C81.3076 11.1798 81.8493 10.3704 81.8493 9.55022C81.8493 8.73004 81.3076 7.91345 80.2208 7.91345H79.3763ZM138.304 25.6457C138.304 29.9364 135.657 32.2322 132.614 32.2322C129.571 32.2322 126.941 29.9328 126.941 25.6457C126.941 21.3586 129.588 19.0592 132.614 19.0592C135.639 19.0592 138.304 21.3586 138.304 25.6457ZM136.794 25.6457C136.794 21.484 135.372 19.31 132.617 19.31C129.863 19.31 128.459 21.4804 128.459 25.6457C128.459 29.8111 129.863 31.9815 132.617 31.9815C135.372 31.9815 136.794 29.8111 136.794 25.6457ZM119.579 25.0118H114.07V19.3279H112.719V31.9958H114.07V25.3162H119.579V31.9958H120.929V19.3314H119.579V25.0154V25.0118ZM80.431 22.7303C80.431 24.5032 78.9558 26.294 76.1621 26.294H74.3055V31.9958H72.955V19.3314H76.1585C79.0591 19.3314 80.4275 21.0148 80.4275 22.7339L80.431 22.7303ZM78.9736 22.802C78.9736 21.2082 77.983 19.6359 76.0017 19.6359H74.3091V25.9896H76.0017C77.9652 25.9896 78.9736 24.3958 78.9736 22.8055V22.802ZM152.875 27.0748C151.796 28.5933 150.947 30.1334 150.299 31.6914H145.421V25.3198H149.615V25.0118H145.421V19.6359H149.725C150.303 20.7748 151.076 21.8994 152.084 23.0025L152.209 22.9488C151.56 21.7562 151.111 20.5599 150.947 19.3279H144.07V31.9958H151.525C151.778 30.3125 152.316 28.6829 153 27.1106L152.875 27.0748ZM8.09371 30.7566C7.52356 30.2623 6.98905 29.7108 6.50086 29.0983C6.4973 29.0912 6.48661 29.0912 6.48304 29.0876C6.63983 29.2917 6.80019 29.4923 6.96767 29.6893C7.32045 30.1048 7.74805 30.4772 8.09371 30.753V30.7566ZM88.3311 19.1488L92.9778 31.9994H91.6273L90.1342 27.9272H85.1989L83.8127 31.9994H83.3281L87.9748 19.1488H88.3347H88.3311ZM90.0238 27.6192L87.6113 20.9396L85.3058 27.6192H90.0238ZM105.133 31.7093H106.95C106.391 33.1025 106.373 34.4957 106.373 36H106.248C105.888 34.8611 105.582 33.7723 105.582 32.7229C105.582 32.4865 105.599 32.2322 105.635 31.9994H98.7755C98.8111 32.2537 98.829 32.508 98.829 32.7587C98.829 33.8081 98.5225 34.8754 98.1804 36H98.0557C98.0557 34.4993 98.0379 33.1061 97.4784 31.7093L97.9096 31.6914C99.5844 31.6914 101.566 26.9673 101.566 22.8593C101.566 21.6272 101.384 20.4346 100.953 19.4568V19.3314H105.129V31.7093H105.133ZM103.782 19.6395H101.983C102 19.9654 102 20.2913 102 20.6172C102 25.7568 100.561 30.6814 98.633 31.7129H103.782V19.6395ZM8.28613 30.9106C8.22912 30.864 8.16141 30.8103 8.09371 30.7566C8.15785 30.8139 8.22555 30.8676 8.28969 30.9214C8.28969 30.9214 8.28969 30.9142 8.28257 30.9106H8.28613ZM13.6206 31.96C13.6206 31.96 13.6027 31.9779 13.5921 31.9887C13.6027 31.9815 13.6134 31.9708 13.6206 31.96ZM8.14003 24.668C7.99393 24.6357 7.94761 24.3743 7.71598 24.3743C7.25987 24.3743 6.98548 24.6393 6.98548 25.1013C6.98548 25.5633 7.39171 25.9323 7.89416 25.9323C8.3966 25.9323 8.92755 25.524 9.03445 24.8757C9.16629 24.0591 8.79214 23.4753 8.69236 23.5684C8.68523 23.5756 8.85984 23.769 8.78145 24.1701C8.72443 24.4566 8.50706 24.7468 8.14359 24.668H8.14003ZM25.4262 23.726C25.444 23.6544 25.4618 23.5863 25.476 23.5147C25.4796 23.4968 25.4832 23.4753 25.4867 23.4538C25.4796 23.461 25.4725 23.4681 25.4689 23.4753C25.4155 23.5577 25.4119 23.6436 25.4262 23.726ZM2.17487 6.0976C2.17487 5.20579 2.48845 4.64349 2.75215 4.32831C3.03722 3.98448 3.32586 3.85196 3.32942 3.84838C3.37931 3.82689 3.36149 3.81257 3.3116 3.83764C3.25815 3.86271 1.98601 4.41785 1.97888 6.10118C1.97176 7.72721 3.38287 8.54738 3.72496 8.7193C3.61806 8.65125 3.5646 8.59394 3.56104 8.58678C3.53966 8.55813 3.65369 8.58678 3.66438 8.55454C3.67507 8.52589 3.70001 8.5044 3.73208 8.49724C3.34367 8.28593 2.17844 7.53022 2.17844 6.10118L2.17487 6.0976ZM8.90973 27.6908C8.72087 27.3398 8.53913 26.9673 8.37165 26.5805C8.31107 26.5948 8.25406 26.6056 8.18992 26.6163C8.18992 26.6307 8.18279 26.645 8.18992 26.6593C8.3574 27.0533 8.53913 27.4293 8.73512 27.7875C9.86116 29.854 11.4184 31.2473 13.3569 31.9421C13.4103 31.8955 13.4602 31.8418 13.5101 31.7881C11.5752 31.1219 10.0286 29.7466 8.90616 27.6908H8.90973ZM4.56236 9.40337C3.50046 9.40337 2.47064 8.27876 2.45995 8.26802C2.42431 8.22504 2.40293 8.19639 2.3958 8.19639C2.3958 8.19639 2.3958 8.21788 2.435 8.27518C2.47064 8.33249 3.40781 9.60394 4.56236 9.60394C5.71691 9.60394 5.81312 8.76586 5.81312 8.50798C5.81312 8.21788 5.54943 7.8633 5.47816 7.77018C5.47816 7.77735 5.47816 7.78451 5.47816 7.78809C5.51023 7.93494 5.54586 8.10685 5.55299 8.27518C5.58862 8.35756 5.61357 8.43993 5.61357 8.50798C5.61357 8.7766 5.51023 9.40695 4.5588 9.40695L4.56236 9.40337ZM3.47552 23.4323C3.02297 21.7203 2.78778 19.8902 2.78778 17.9776C2.78778 15.4598 3.24033 13.0172 4.10268 10.8396C4.00647 10.8861 3.90313 10.9112 3.82117 10.9112C3.77841 10.9112 3.73921 10.9076 3.71427 10.8897C3.67863 10.8646 3.66438 10.8467 3.66082 10.7429C3.66082 10.6498 3.51828 10.2056 2.94101 9.94777C2.13924 9.58961 1.50139 8.80884 1.17712 8.16057C0.849282 7.49799 0.571335 5.71079 1.38736 4.38561C1.98601 3.41143 3.02297 2.91718 4.46615 2.91718C5.90933 2.91718 7.23136 3.55469 8.39303 4.80466C9.45493 3.92717 10.6309 3.23235 11.8923 2.75601C12.3164 2.59484 13.4103 2.15431 14.3653 1.54544C15.2776 0.961648 16.0366 0.263244 16.0437 0.256081L16.2931 0.0268617C16.3323 -0.00895389 16.3929 -0.00895389 16.4321 0.0268617L16.6708 0.270407C16.6708 0.270407 17.3728 0.986718 18.3029 1.56335C19.1795 2.10774 20.2984 2.51604 20.9006 2.73452C22.1157 3.17505 23.2525 3.81257 24.2823 4.61483C25.3977 3.48664 26.6591 2.91359 28.0275 2.91359C29.4849 2.91359 30.529 3.41143 31.1312 4.3892C31.8759 5.60334 31.7156 7.3583 31.3165 8.15699C30.9601 8.86972 30.3686 9.53589 29.6096 9.98C29.1 10.2773 28.847 10.6605 28.8363 10.7465C28.8328 10.8145 28.8363 10.8432 28.8114 10.8682C29.6417 13.01 30.0657 15.3559 30.0657 17.8451C30.0657 19.686 29.8234 21.4732 29.353 23.1601C29.3352 23.1422 29.3103 23.1279 29.2818 23.1315C29.2461 23.1315 29.2176 23.153 29.1998 23.1816C29.1998 23.1816 29.1642 23.2425 29.1072 23.3249C29.1072 23.3213 29.1072 23.3177 29.1072 23.3141C29.6132 21.5807 29.8697 19.7397 29.8697 17.8415C29.8697 15.3631 29.4457 13.0279 28.6154 10.9005C28.5121 10.8861 28.3909 10.8467 28.2947 10.7787C28.2341 10.6283 28.1664 10.4814 28.0987 10.3346C28.1023 10.2415 28.1237 10.1519 28.1486 10.0839C28.1023 10.0839 28.0488 10.0839 27.9883 10.0839C27.9704 10.0445 27.9526 10.0015 27.9348 9.9621C27.9348 9.9621 26.9192 9.9621 26.4952 9.17773C26.2279 8.68348 26.5736 7.64841 26.5736 7.64841C26.5522 7.61976 26.5273 7.59111 26.5059 7.55887C26.5629 7.4765 26.6235 7.41561 26.684 7.37263C25.1589 5.29891 23.1384 3.76242 20.8365 2.92076C20.2271 2.6987 19.094 2.28682 18.2031 1.73168C17.2659 1.14789 16.5426 0.41367 16.5354 0.406506L16.3644 0.23101L16.1862 0.395762C16.1862 0.395762 15.4094 1.11207 14.4793 1.70661C13.5101 2.32622 12.4019 2.77033 11.9707 2.93508C9.63667 3.81615 7.59126 5.44217 6.05187 7.63408C6.09819 7.71646 6.13383 7.81674 6.1659 7.92061C6.14095 7.95642 6.11601 7.98866 6.09107 8.02447C6.09107 8.02447 6.35832 8.64408 5.93071 9.32458C5.68484 9.71855 5.00779 9.91553 5.00779 9.91553C4.99353 9.94777 4.97928 9.98 4.96503 10.0122C4.85456 10.0373 4.75122 10.0552 4.65501 10.066C3.56817 12.419 2.99446 15.1518 2.99446 17.974C2.99446 19.9869 3.25102 21.9137 3.76059 23.7009V23.7081C3.65369 23.6257 3.56104 23.5219 3.48621 23.4287L3.47552 23.4323ZM26.8729 7.29742C26.9228 7.29384 26.9727 7.29742 27.0154 7.31533C27.1366 7.36189 27.2506 7.51231 27.2114 7.78093C27.3611 8.00299 27.5036 8.2322 27.6426 8.46142C27.7067 8.56887 27.7673 8.6799 27.8315 8.78735C28.1842 8.76944 28.4052 8.69423 28.5263 8.62617C28.3695 8.56529 28.17 8.45426 28.1094 8.26086C28.0168 7.95642 28.1807 7.66632 28.1842 7.65557C28.2056 7.61618 28.2519 7.59827 28.2947 7.60901C28.3375 7.61976 28.3695 7.65916 28.3695 7.70572C28.3695 7.70572 28.3695 7.806 28.4408 7.87047C28.4907 7.91703 28.5691 7.93852 28.6724 7.93494C28.8363 7.92777 29.1571 7.74153 29.4314 7.41561C29.6631 7.13983 30.0301 6.54887 29.9232 5.67139C29.859 5.15923 29.6274 4.77958 29.2355 4.5432C28.7259 4.23877 27.9597 4.2137 27.2863 4.48232C26.823 4.66498 26.2172 5.15207 25.6186 5.81465C26.0676 6.27309 26.4845 6.77093 26.8729 7.301V7.29742ZM27.2221 8.63334C27.2934 8.72288 27.4217 8.77302 27.5998 8.78735C27.5571 8.71213 27.5143 8.63692 27.4716 8.56171C27.3718 8.39337 27.2649 8.2322 27.158 8.06745C27.1223 8.27876 27.1152 8.49724 27.2221 8.63334ZM27.1722 7.73079C27.1722 7.73079 27.158 7.73079 27.1509 7.72362C27.1615 7.7272 27.1687 7.73437 27.1794 7.74153C27.1794 7.74153 27.1794 7.73437 27.1722 7.73079ZM27.0796 7.72004C27.0796 7.72004 27.101 7.71288 27.1117 7.71288C27.101 7.71288 27.0903 7.71288 27.0796 7.72004ZM24.4355 4.74377C24.5317 4.82256 24.6315 4.90136 24.7277 4.98373C24.7135 4.99448 24.6992 5.00522 24.685 5.01597L25.4226 5.73944C25.4226 5.73944 25.4226 5.73228 25.4226 5.7287C25.4404 5.71079 25.4582 5.69288 25.476 5.67139C25.4903 5.68214 25.501 5.69646 25.5152 5.70721C25.8395 5.33473 26.1887 5.00522 26.5629 4.74377C27.0368 4.41427 27.6283 4.15998 28.1914 4.15998C29.631 4.15998 30.0443 5.32756 30.0443 5.32756C30.0443 5.32756 30.0372 5.281 30.0158 5.20937C30.0622 5.34547 30.1014 5.48515 30.1192 5.64274C30.2368 6.59543 29.8341 7.24011 29.5811 7.54096C29.2533 7.93135 28.8862 8.12118 28.6796 8.13192C28.5192 8.13908 28.3909 8.09969 28.3018 8.01373C28.2947 8.00657 28.2876 7.9994 28.2805 7.99224C28.2733 8.05671 28.2733 8.13192 28.2947 8.20713C28.3482 8.37905 28.6439 8.47217 28.7544 8.49366C28.676 8.53664 28.6261 8.56171 28.6225 8.56171C28.5727 8.5832 28.5548 8.62259 28.5762 8.67274C28.5905 8.71213 28.6297 8.73362 28.6689 8.73362C28.6831 8.73362 28.6617 8.76227 28.6724 8.75869C28.6724 8.75869 28.7081 8.74437 28.7615 8.71571C28.6083 8.83032 28.2805 8.99866 27.6925 8.99866C27.3967 8.99866 27.1829 8.91986 27.0618 8.76586C26.9549 8.62976 26.9264 8.45784 26.9335 8.27876C26.9798 8.1749 27.044 8.07103 27.0974 7.98866C27.0725 7.94926 27.0475 7.90628 27.0226 7.87047C26.9941 7.83107 27.0048 7.77735 27.0404 7.74511C27.0368 7.74511 27.0297 7.74511 27.0261 7.75228C27.0261 7.75586 27.0154 7.7666 27.0083 7.77377C27.0333 7.63767 27.0083 7.5338 26.937 7.50873C26.8551 7.48008 26.7197 7.54813 26.6163 7.73795C26.3954 8.14983 26.2992 8.94135 26.7838 9.42128C27.3183 9.94777 28.1522 9.89405 28.2662 9.8833H28.2555C28.2056 9.90837 28.1807 9.96568 28.1985 10.0158C28.2127 10.0552 28.2519 10.0803 28.2911 10.0803C28.3018 10.0803 28.3161 10.0803 28.3268 10.0731C28.341 10.0695 28.3517 10.0624 28.3624 10.0588C28.3232 10.1412 28.2199 10.3883 28.3303 10.5638C28.3874 10.6533 28.5441 10.7071 28.6297 10.7178C28.651 10.5745 28.7793 10.399 28.8114 10.3561C28.929 10.1949 29.1571 10.0015 29.4991 9.80809C30.1619 9.43202 30.7962 8.74437 31.1312 8.07462C31.4483 7.44426 31.7192 5.7466 30.953 4.50022C30.39 3.58335 29.4029 3.11774 28.0168 3.11774C26.7054 3.11774 25.4974 3.6693 24.4248 4.74735L24.4355 4.74377ZM4.38419 8.26086C4.32361 8.45426 4.12406 8.56887 3.96727 8.62617C4.10268 8.70139 4.35925 8.79451 4.79398 8.79451C5.02561 8.79451 5.18596 8.74079 5.27148 8.63334C5.42114 8.4471 5.34275 8.08894 5.2893 7.82749C5.22516 7.52664 5.35344 7.36189 5.48172 7.31533C5.60644 7.26877 5.77749 7.30816 5.92359 7.46933C6.28349 6.96433 6.66834 6.48799 7.07813 6.04387C6.42246 5.27026 5.72403 4.68646 5.20734 4.47873C4.53385 4.21012 3.76772 4.23519 3.25815 4.53962C2.86618 4.77242 2.63455 5.15207 2.57041 5.66781C2.46351 6.54529 2.8341 7.13625 3.06216 7.41203C3.33655 7.73795 3.65725 7.92419 3.82117 7.93135C3.92451 7.93852 4.0029 7.91345 4.05279 7.86689C4.12406 7.80242 4.12406 7.70213 4.12406 7.70213C4.12406 7.65916 4.15613 7.61976 4.19889 7.60543C4.24165 7.59469 4.28798 7.6126 4.30936 7.65199C4.31649 7.66274 4.4804 7.95284 4.38419 8.25727V8.26086ZM4.15257 10.5602C4.26303 10.3847 4.1597 10.134 4.1205 10.0552C4.13475 10.0588 4.14544 10.066 4.15613 10.0695C4.16682 10.0731 4.18108 10.0767 4.19177 10.0767C4.23096 10.0767 4.27016 10.0516 4.28441 10.0122C4.3058 9.9621 4.28085 9.90479 4.2274 9.8833H4.21671C4.33074 9.88688 5.16814 9.94419 5.69909 9.4177C6.18372 8.93777 6.0875 8.14267 5.86657 7.73437C5.76323 7.54455 5.62782 7.47291 5.54586 7.50515C5.47816 7.53022 5.44965 7.63408 5.4746 7.77018L5.45678 7.74869C5.42114 7.70572 5.36057 7.70213 5.31781 7.73437C5.27504 7.77018 5.26792 7.83107 5.30355 7.87405C5.36057 7.94568 5.47816 8.11043 5.54943 8.27518C5.55655 8.45426 5.52805 8.62617 5.42114 8.76227C5.29642 8.91628 5.08262 8.99508 4.79042 8.99508C4.24878 8.99508 3.90313 8.83749 3.71783 8.71571C3.76059 8.7372 3.7891 8.75153 3.79266 8.75153C3.80692 8.75511 3.80335 8.73004 3.81404 8.73004C3.85324 8.73004 3.88888 8.70855 3.90669 8.66915C3.92807 8.61901 3.90669 8.57961 3.85324 8.55813C3.85324 8.55813 3.79979 8.53305 3.72496 8.49366C3.72496 8.49366 3.72496 8.49366 3.73208 8.49366C3.84255 8.47217 4.14188 8.37905 4.19177 8.20713C4.21315 8.1355 4.21671 8.06029 4.20602 7.99582C4.19889 8.00299 4.19177 8.01015 4.18464 8.01731C4.09199 8.10327 3.96727 8.14625 3.80692 8.1355C3.6038 8.12476 3.23321 7.93494 2.90537 7.54455C2.65593 7.24369 2.2497 6.59902 2.3673 5.64632C2.40293 5.34547 2.50271 5.08402 2.64524 4.85838C2.54903 5.06969 2.52765 5.22728 2.52765 5.22728C2.52765 5.22728 2.93032 4.26026 4.11337 4.10267C4.49466 4.08476 4.89732 4.14565 5.27504 4.29607C5.81668 4.51097 6.53649 5.10909 7.20998 5.90061C7.26343 5.84331 7.32044 5.79317 7.3739 5.73944C7.39528 5.76809 7.42022 5.79317 7.4416 5.82182L8.11865 5.19505C8.08658 5.16639 8.05451 5.14849 8.02244 5.11983C8.09371 5.05895 8.16497 4.99806 8.23624 4.93717C7.11733 3.73019 5.84875 3.11774 4.46259 3.11774C3.07642 3.11774 2.11429 3.57976 1.55127 4.49306C0.78514 5.73586 1.04527 7.46575 1.34816 8.07462C1.69025 8.76586 2.33166 9.48933 3.01228 9.76869C3.63231 10.023 3.76416 10.4384 3.81404 10.5674C3.83542 10.6247 3.84968 10.6748 3.85324 10.7178C3.94233 10.7071 4.09555 10.6533 4.149 10.5638L4.15257 10.5602ZM4.37706 10.1913C4.39132 10.1555 4.40557 10.1197 4.42339 10.0839C4.39844 10.0839 4.36994 10.0839 4.34856 10.0839C4.35925 10.1161 4.36994 10.1519 4.37706 10.1913ZM4.43051 3.68721C3.29378 3.84838 2.8341 4.45724 2.64881 4.85838C2.77709 4.66139 2.94457 4.49306 3.15125 4.37129C3.42207 4.21012 3.75703 4.12058 4.11337 4.10267C4.21671 4.08835 4.32718 4.0776 4.44121 4.0776C5.61357 4.0776 6.58638 4.77959 7.3739 5.73586C7.58414 5.52097 7.80151 5.31324 8.026 5.11625C6.61133 3.95583 5.26792 3.56902 4.43051 3.68721ZM25.4867 23.4574C25.5224 23.418 25.5829 23.3786 25.6898 23.3786H25.7005C26.0355 21.7633 26.2101 19.9833 26.2101 18.0743C26.2101 13.6153 25.248 3.2431 16.3395 3.2431C13.0789 3.2431 10.556 4.79749 8.84202 7.8633C7.42378 10.4026 6.63983 13.9161 6.63983 17.7627C6.63983 19.9403 6.85007 21.9567 7.26343 23.7618C7.32757 23.7439 7.39171 23.7332 7.45585 23.7224C7.41309 23.5434 7.38459 23.3535 7.34895 23.1709C7.25987 23.1422 7.19929 23.1315 7.19929 23.1315C7.14584 23.1207 7.1102 23.0706 7.11733 23.0169C7.12802 22.9631 7.17791 22.9273 7.23136 22.9345C7.23136 22.9345 7.26343 22.9417 7.30263 22.9524C7.28125 22.8378 7.2563 22.7232 7.23492 22.605C7.16722 22.605 7.12802 22.6121 7.12802 22.6121C7.12802 22.6121 7.1102 22.5441 7.09951 22.476C7.04962 22.4689 7.01043 22.4331 7.01043 22.3829C7.01043 22.3292 7.05319 22.2826 7.10664 22.2826C7.1102 22.2826 7.13515 22.2826 7.17435 22.2826C6.94985 20.8787 6.83226 19.3637 6.83226 17.7627C6.83226 14.3029 7.47011 11.1154 8.63891 8.6799C8.62109 8.62259 8.59971 8.56529 8.57833 8.50798C8.56764 8.47933 8.5712 8.4471 8.58546 8.42203L9.58678 6.72079C9.60459 6.68855 9.63667 6.67065 9.6723 6.67065C9.70793 6.67065 9.74 6.68855 9.75782 6.72079C9.76495 6.73511 9.77207 6.74944 9.7792 6.76018C11.4077 4.55753 13.6027 3.44008 16.3288 3.44008C19.347 3.44008 21.4351 4.66498 22.8748 6.44501C22.8819 6.43426 22.889 6.42352 22.8961 6.40919C22.914 6.38054 22.946 6.36263 22.9781 6.36263C23.0137 6.36263 23.0422 6.37696 23.0636 6.40561L24.0934 7.93494C24.1148 7.96359 24.1148 8.00299 24.1006 8.03164C24.0721 8.09252 24.0471 8.15341 24.0186 8.2143C25.7184 11.4878 26.0034 15.6568 26.0034 18.0707C26.0034 20.0119 25.8253 21.8206 25.476 23.4538L25.4867 23.4574ZM24.2003 31.2186C24.1718 31.2186 24.1398 31.2043 24.122 31.1792C24.0934 31.1434 24.1006 31.0969 24.1255 31.061C21.9304 32.7694 19.2721 33.6863 16.4107 33.6863C15.3417 33.6863 14.3083 33.5717 13.3284 33.3532C13.25 33.3783 13.1716 33.4105 13.0896 33.432C13.0397 33.4464 12.9934 33.4535 12.9435 33.4643C12.9506 33.4643 12.9542 33.475 12.9613 33.4786C14.0482 33.7508 15.2098 33.8869 16.4107 33.8869C19.9421 33.8869 23.167 32.508 25.615 29.9866C25.2409 30.3734 24.8026 30.7781 24.2609 31.1971C24.2431 31.2115 24.2217 31.2186 24.2003 31.2186ZM24.1255 31.061C24.5994 30.6921 25.052 30.2803 25.4832 29.8361C25.1126 30.223 24.6778 30.6205 24.1398 31.036C24.1326 31.0431 24.1326 31.0503 24.1255 31.0575V31.061ZM25.6328 23.5863C25.6115 23.6186 25.615 23.6687 25.6293 23.726C25.64 23.6759 25.6542 23.6257 25.6649 23.5756C25.6471 23.5756 25.6364 23.5828 25.6328 23.5863ZM23.901 27.8555C22.2618 30.7781 19.7746 32.2573 16.5105 32.2573C16.2147 32.2573 15.5377 32.2179 15.1956 32.1462C15.1457 32.1964 15.0958 32.2465 15.0424 32.2967C15.0531 32.3074 15.0637 32.3217 15.078 32.3253C15.4094 32.4149 16.172 32.4578 16.5069 32.4578C19.8459 32.4578 22.3901 30.9428 24.0685 27.9522C24.2253 27.6729 24.3714 27.3756 24.5139 27.0712C24.5032 27.0031 24.4961 26.9315 24.4819 26.8563L24.4605 26.7274C24.4605 26.7274 24.4498 26.7345 24.4462 26.7381C24.2752 27.1285 24.0899 27.5046 23.8939 27.852L23.901 27.8555ZM25.4582 24.1021C25.4903 24.009 25.4689 23.9194 25.4475 23.8299C25.4404 23.7976 25.4333 23.7618 25.4262 23.726C25.3798 23.9337 25.3335 24.1415 25.2801 24.342C25.3727 24.2561 25.4297 24.188 25.4582 24.1021Z" fill="#263059"/>
</svg>
