<svg width="882" height="915" viewBox="0 0 882 915" fill="none" xmlns="http://www.w3.org/2000/svg">
<path d="M879.177 676.792C872.319 667.556 851.37 653.13 831.435 651.202C818.862 649.975 809.714 656.646 803.66 663.631C804.203 659.698 804.502 655.316 804.274 650.777C803.51 635.438 797.424 626.164 797.165 625.778C797.062 625.621 796.936 625.479 796.81 625.338C809.612 579.752 816.115 531.508 816.115 481.839C816.115 414.59 804.652 351.234 782.057 293.456C782.623 292.819 782.608 291.985 782.71 290.215C782.954 287.941 789.859 277.581 803.707 269.55C824.326 257.593 840.41 239.595 850.102 220.338C860.974 198.737 865.281 151.358 845.063 118.594C828.743 92.1397 800.377 78.7197 760.76 78.7197C723.545 78.7197 689.33 94.1535 659.035 124.581C631.062 102.94 600.177 85.823 567.198 73.8897C550.853 67.9742 520.433 56.9692 496.641 42.2826C471.384 26.6994 452.552 7.56838 452.356 7.37172L445.892 0.803302C444.876 -0.227191 443.223 -0.27439 442.16 0.708906L435.374 6.93907C435.169 7.12786 414.558 25.9757 389.758 41.732C363.888 58.1727 334.207 70.0431 322.65 74.3853C288.371 87.2704 256.352 105.898 227.498 129.56C196.038 95.8369 160.208 78.7275 120.978 78.7275C81.7472 78.7275 53.6803 92.0767 37.3834 118.398C15.2213 154.197 22.7084 202.458 31.6362 220.338C40.3909 237.864 57.8057 258.977 79.5349 268.606C95.2492 275.568 99.1463 287.627 99.0754 290.113C99.1778 292.921 99.5163 293.432 100.508 294.085C101.177 294.526 102.209 294.667 103.398 294.667C105.602 294.667 108.413 294.014 111.003 292.811C87.6597 351.533 75.4016 417.563 75.4016 485.458C75.4016 536.959 81.637 586.391 93.9423 632.551C91.171 629.011 89.4548 625.998 89.4233 625.943C88.9666 625.133 88.1164 624.614 87.1795 624.582C86.156 624.527 85.3608 624.999 84.8412 625.778C84.5893 626.164 78.5036 635.438 77.732 650.777C77.5037 655.316 77.8107 659.698 78.3461 663.623C72.2997 656.638 63.1042 649.975 50.5705 651.194C30.6364 653.122 9.68661 667.549 2.82933 676.784C0.546188 679.852 -0.335576 682.432 0.113179 684.689C1.05793 689.433 6.9311 688.701 16.6462 687.49C30.3766 685.783 53.4756 682.919 77.2203 692.391C77.1101 692.611 77.0235 692.847 76.9762 693.099C76.7873 694.184 58.9473 802.748 138.652 863.193C182.591 896.515 228.813 912.869 280.609 912.869C302.975 912.869 326.397 909.809 351.11 903.752C351.299 903.854 351.496 903.941 351.716 903.988C381.256 911.288 412.779 914.993 445.404 914.993C551.318 914.993 647.281 869.667 715.602 787.353C715.909 786.984 716.09 786.543 716.168 786.103C724.553 775.593 731.583 765.571 738.275 756.022C752.699 735.443 765.161 717.665 786.143 702.593C815.784 681.307 848.039 685.327 865.352 687.482C875.059 688.685 880.932 689.417 881.885 684.682C882.334 682.424 881.452 679.836 879.169 676.776L879.177 676.792ZM790.04 629.546C789.992 629.711 789.969 629.869 789.945 630.034C787.552 633.432 783.718 638.183 779.254 641.18C795.33 592.024 803.904 538.218 803.904 481.839C803.904 413.245 791.402 348.434 768.003 291.261C770.617 293.07 773.932 294.227 776.719 294.565C799.29 351.95 810.738 414.936 810.738 481.839C810.738 533.081 803.77 582.773 790.032 629.538L790.04 629.546ZM446.915 883.213C433.083 883.213 412.897 880.963 400.316 879.24C400.001 879.398 399.702 879.547 399.418 879.697C402.465 877.25 405.37 874.741 408.134 872.192C408.449 872.483 408.826 872.711 409.267 872.829C418.282 875.197 439.027 876.385 448.104 876.385C538.808 876.385 607.908 835.472 653.484 754.779C657.712 747.298 661.767 739.368 665.601 731.14C666.113 735.05 666.467 738.731 666.64 742.232C625.292 825.497 555.593 883.221 446.915 883.221V883.213ZM94.5564 701.712C93.1708 713.929 87.0456 789.54 140.361 839.146C187.126 882.654 242.708 900.857 305.503 893.211C325.153 890.82 349.079 883.386 368.832 863.696C369.218 863.468 369.549 863.138 369.777 862.737C379.744 852.542 388.593 839.161 395.238 821.643L414.747 763.801C414.849 763.503 414.896 763.188 414.889 762.873C414.731 756.769 413.29 752.859 412.33 750.271C412.023 749.43 411.747 748.745 411.637 748.155C411.613 748.037 411.582 747.919 411.543 747.801C367.895 617.133 263.768 305.428 239.748 233.207C239.292 231.823 238.803 230.43 238.284 229.03L242.819 221.376C248.031 236.283 268.358 296.555 268.358 296.555L422.88 761.512C414.833 784.742 407.638 805.548 401.599 822.996C390.097 849.773 367.95 884.873 328.972 893.722C268.469 907.449 215.311 898.655 166.444 866.827C131.228 843.897 111.026 821.8 100.926 795.18C85.3451 754.086 85.5655 721.567 87.8565 697.496C90.0924 698.762 92.3205 700.17 94.5406 701.704L94.5564 701.712ZM184.803 805.139C194.306 816.262 205.785 826.268 215.153 833.851C241.449 856.577 270.862 874.717 303.117 888.066C242.661 894.95 189.141 877.195 144.014 835.212C95.8633 790.413 98.0204 723.36 99.5872 705.394C121.316 722.094 138.385 744.851 156.398 768.891C165.42 780.926 174.75 793.379 184.803 805.139ZM184.26 653.672C198.101 641.597 221.656 645.735 221.9 645.782C222.869 645.971 223.845 645.601 224.459 644.846C225.081 644.091 225.238 643.061 224.884 642.156C224.703 641.7 220.373 630.923 212.256 625.7C206.454 621.955 200.612 620.209 197.817 619.524C197.227 616.456 196.66 613.365 196.109 610.258C202.47 610.053 219.389 611.241 239.079 626.502C250.416 638.128 256.549 653.743 256.029 670.097C255.557 685.201 249.4 698.668 239.583 706.117C227.632 715.179 206.706 716.879 191.944 709.972C184.189 706.345 175.474 698.573 174.104 683.321C172.907 670.097 176.923 660.083 184.26 653.68V653.672ZM629.008 186.725C620.426 200.247 613.404 213.51 606.932 231.941C581.117 305.507 502.97 530.493 446.018 694.79C444.821 691.384 443.207 686.782 441.231 681.149C441.995 680.89 442.625 680.292 442.9 679.498L595.634 242.033C595.729 241.734 604.861 212.503 624.166 179.574L629.008 186.725ZM590.525 240.358L440.365 670.436L291.253 240.452C291.166 240.185 282.884 213.604 265.461 182.516C309.683 123.054 369.391 92.9578 443.412 92.9578C525.385 92.9578 582.077 125.981 621.174 174.099C600.405 208.703 590.596 240.137 590.533 240.358H590.525ZM234.442 234.253C234.513 234.466 234.591 234.686 234.662 234.898C258.675 307.088 362.723 618.58 406.402 749.343C406.591 750.216 406.913 751.105 407.291 752.128C408.149 754.448 409.315 757.595 409.504 762.535L390.176 819.826C384.003 836.117 375.808 848.648 366.588 858.261C314.076 840.302 272.027 803.094 241.606 747.597C236.434 738.165 231.537 728.096 227.057 717.673C232.985 716.155 238.449 713.708 242.834 710.381C253.935 701.964 260.879 686.955 261.407 670.255C262.029 650.518 253.778 631.772 238.764 618.816C221.412 603.847 200.825 601.849 194.652 601.589C188.511 563.665 185.402 522.8 185.402 479.566C185.402 386.106 202.722 300.008 234.442 234.238V234.253ZM355.921 867.826C289.103 843.031 244.173 790.232 215.46 724.241C215.476 723.99 215.484 723.746 215.5 723.502C215.586 722.078 215.673 720.725 215.767 719.411C217.83 719.294 219.877 719.073 221.893 718.751C221.893 719.097 221.963 719.443 222.105 719.773C226.663 730.369 231.639 740.603 236.898 750.193C267.492 806.004 309.667 843.747 362.306 862.469C360.219 864.389 358.086 866.174 355.921 867.834V867.826ZM202.218 640.386C201.084 635.462 200.014 630.474 198.99 625.432C201.722 626.289 205.572 627.776 209.351 630.207C213.114 632.638 215.988 636.752 217.775 639.883C213.925 639.584 208.312 639.458 202.218 640.386ZM663.814 719.537L664.136 721.52C664.018 721.685 663.908 721.858 663.821 722.047C659.169 732.603 654.114 742.72 648.816 752.12C604.263 831.004 536.737 871.004 448.112 871.004C440.098 871.004 421.762 869.99 412.487 868.054C418.825 861.848 424.344 855.625 429.028 850.048C449.671 825.497 468.353 774.948 469.172 772.722C470.66 768.214 618.489 320.886 647.099 234.898C648.509 230.651 650.225 226.245 652.217 221.73C698.415 310.101 706.138 422.779 706.138 487.983C706.138 540.342 701.352 589.2 691.92 633.235C691.715 633.456 691.526 633.684 691.385 633.896C689.818 636.248 689.826 638.671 690.219 640.952C688.96 646.451 687.613 651.902 686.212 657.236C685.338 658.046 684.362 658.919 683.268 659.895C679.772 662.994 675.426 666.856 670.167 672.772C658.326 686.082 659.94 695.867 663.829 719.529L663.814 719.537ZM711.5 487.991C711.5 367.604 685.378 87.585 443.412 87.585C354.866 87.585 286.356 129.56 239.795 212.338C201.25 280.87 180.024 375.777 180.024 479.574C180.024 538.312 185.724 592.771 196.951 641.448C193.778 642.258 190.574 643.407 187.519 645.011C187.764 644.193 188.362 643.422 189.244 642.376C190.724 640.63 193.18 637.711 190.645 633.896C190.149 633.149 189.307 632.315 187.913 631.772C177.576 582.529 173.191 530.391 173.191 479.566C173.191 289.766 244.858 80.7413 443.412 80.7413C656.067 80.7413 718.333 292.166 718.333 487.975C718.333 536.755 714.051 586.053 704.414 632.528C702.021 631.717 699.753 631.253 697.817 631.214C706.886 587.626 711.492 539.476 711.492 487.975L711.5 487.991ZM430.406 53.5158C430.406 46.7586 435.886 41.2836 442.648 41.2836C449.411 41.2836 454.891 46.7586 454.891 53.5158C454.891 60.273 449.411 65.748 442.648 65.748C435.886 65.748 430.406 60.273 430.406 53.5158ZM762.603 278.604C761.65 276.464 760.682 274.348 759.69 272.232C761.288 272.303 762.729 272.311 763.957 272.279C763.343 274.057 762.776 276.252 762.595 278.604H762.603ZM760.768 84.1081C798.393 84.1081 825.216 96.6628 840.497 121.426C861.274 155.102 853.881 200.9 845.307 217.939C836.23 235.976 818.98 254.549 801.022 264.704C791.772 269.935 785.607 275.151 782.372 279.493C781.513 280.641 778.065 285.456 777.451 289.287C775.05 288.98 770.838 287.556 769.279 285.125C766.279 280.437 769.003 273.758 770.098 271.477C800.786 259.386 820.547 247.013 836.584 217.254C857.077 179.228 836.513 137.985 835.734 136.215C835.136 134.854 834.64 134.272 834.64 134.272C834.419 134.351 834.923 135.121 835.435 136.632C835.577 137.057 851.11 178.976 831.86 214.706C816.414 243.363 798.054 254.753 767.531 266.71C764.532 266.993 741.779 268.496 727.277 254.234C714.106 241.286 716.696 219.858 722.742 208.782C725.561 203.622 729.222 201.734 731.418 202.544C733.292 203.244 734.032 205.997 733.371 209.647C731.355 212.196 724.183 221.84 724.183 229.675C724.183 236.621 726.631 259.268 758.154 259.268C789.678 259.268 814.517 224.995 815.642 223.602C816.571 222.446 817.201 221.439 816.965 221.337C816.642 221.195 815.965 222.202 815.044 223.359C814.784 223.681 786.961 253.896 758.162 253.896C732.355 253.896 729.568 236.959 729.568 229.675C729.568 227.787 730.253 225.561 731.245 223.327C731.072 228.149 731.843 232.861 734.772 236.495C738.149 240.68 743.928 242.804 751.943 242.804C768.003 242.804 777.049 238.069 781.198 235.016C791.52 229.667 828.428 207.508 828.428 164.62C828.428 115.047 793.346 102.917 791.945 102.287C790.591 101.674 789.788 101.524 789.788 101.524C789.693 101.752 790.795 102.342 792.142 102.956C792.22 102.995 799.991 106.81 807.738 116.069C814.871 124.604 823.059 140.573 823.059 164.62C823.059 202.937 791.583 223.366 780.805 229.235C780.765 229.227 780.726 229.203 780.687 229.195C777.687 228.613 769.594 226.104 768.177 221.494C767.563 219.52 767.539 217.522 767.767 215.744C767.948 215.948 768.145 216.145 768.35 216.342C770.838 218.702 774.278 219.803 778.648 219.583C784.214 219.307 794.236 214.202 803.117 203.653C809.927 195.551 820.886 178.127 817.713 152.42C817.162 147.92 816.123 143.727 814.658 139.857C811.667 129.882 800.369 104.71 761.768 99.5891C744.306 97.2685 707.02 105.371 671.261 134.445C668.648 132.227 666.002 130.056 663.326 127.924C692.471 98.8418 725.246 84.0924 760.8 84.0924L760.768 84.1081ZM740.724 120.97C759.013 113.749 779.813 114.417 793.693 122.661C804.36 128.994 810.635 139.228 812.344 153.088C815.264 176.774 805.219 192.782 798.968 200.208C791.559 209.018 782.812 214.005 778.348 214.234C775.561 214.375 773.444 213.785 772.066 212.503C770.176 210.741 770.106 208.074 770.106 208.066C770.106 206.847 769.287 205.785 768.114 205.47C766.933 205.164 765.697 205.675 765.091 206.729C764.902 207.059 760.485 214.879 763.012 223.091C764.634 228.346 770.082 231.359 774.333 232.955C771.019 234.788 765.13 236.936 755.486 237.376C753.793 234.379 752.069 231.406 750.313 228.464C746.605 222.273 742.7 216.137 738.716 210.214C739.913 202.827 736.622 198.768 733.284 197.525C732.135 197.101 730.836 196.943 729.474 197.077C718.948 182.752 707.555 169.348 695.4 156.943C711.681 139.015 728.135 125.941 740.732 120.978L740.724 120.97ZM737.228 217.71C740.126 222.139 742.96 226.662 745.692 231.217C746.904 233.247 748.101 235.3 749.282 237.361C744.377 236.999 740.889 235.591 738.921 233.144C735.977 229.494 736.26 223.445 737.228 217.71ZM324.547 79.4276C336.262 75.0225 366.352 62.9869 392.656 46.2709C417.959 30.192 438.814 11.0925 439.019 10.9037L443.892 6.43562L448.514 11.1397C448.703 11.3364 468.33 31.1439 493.83 46.8766C518.094 61.8463 548.854 72.9772 565.379 78.9556C627.898 101.579 682.787 143.09 724.238 199.044C722.553 200.168 720.9 201.789 719.396 203.992C679.52 149.839 626.63 108.384 563.049 85.3746C545.602 79.0579 514.796 67.8405 490.232 52.682C463.488 36.1783 443.64 15.9303 443.64 15.9303C443.64 15.9303 422.344 35.494 396.324 52.0291C372.296 67.2977 344.159 79.349 326.956 85.8151C261.777 110.311 207.328 155.236 166.908 213.832C166.026 211.008 164.956 208.428 163.751 206.226C205.596 147.086 261.162 103.247 324.555 79.4276H324.547ZM143.258 211.402C144.793 218.45 146.887 228.102 142.817 233.144C140.51 236 136.141 237.455 129.835 237.455C118.033 237.455 111.121 234.993 107.421 232.955C111.672 231.359 117.12 228.346 118.742 223.091C121.269 214.879 116.852 207.059 116.663 206.729C116.057 205.683 114.837 205.171 113.664 205.478C112.499 205.777 111.672 206.831 111.648 208.043C111.648 208.066 111.578 210.741 109.688 212.503C108.31 213.793 106.208 214.383 103.406 214.234C98.9416 214.013 90.1948 209.018 82.7864 200.216C76.5353 192.782 66.4817 176.782 69.4025 153.088C71.1188 139.228 77.3856 128.986 88.0534 122.661C101.949 114.417 122.741 113.764 141.03 120.97C155.091 126.516 173.994 142.225 191.818 163.134C180.686 175.098 170.215 187.936 160.46 201.577C156.461 197.242 151.847 196.275 148.47 197.525C144.959 198.831 141.487 203.252 143.258 211.394V211.402ZM195.526 159.216C177.253 137.883 157.736 121.796 142.998 115.983C132.677 111.908 121.576 110.193 111.152 110.759C114.05 110.366 117.12 110.146 120.379 110.146C152.154 110.146 178.584 128.946 199.896 154.732C198.423 156.211 196.967 157.714 195.518 159.224L195.526 159.216ZM103.343 285.188C102.067 281.743 98.4613 270.565 81.6133 263.666C63.1908 256.13 45.7838 236.637 36.4466 217.954C28.243 201.537 21.1653 154.827 41.9576 121.237C57.2074 96.6078 83.7941 84.116 120.978 84.116C158.161 84.116 193.015 100.58 223.373 133.029C221.444 134.657 219.523 136.309 217.625 137.985C179.214 106.669 142.825 96.419 120.017 99.6049C89.6752 103.853 77.0156 119.853 71.851 130.708C67.7413 136.797 65.096 144.097 64.0647 152.443C60.8919 178.151 71.851 195.582 78.6689 203.677C87.5416 214.218 97.5717 219.323 103.13 219.606C107.531 219.858 110.94 218.733 113.428 216.365C113.632 216.169 113.821 215.972 114.002 215.775C114.239 217.561 114.207 219.551 113.601 221.518C112.184 226.12 104.09 228.637 101.099 229.219C101.036 229.235 100.973 229.266 100.91 229.282C90.2105 223.461 58.719 203.032 58.719 164.652C58.719 140.604 67.2217 125.383 74.3624 116.856C82.1093 107.589 89.9822 103.947 90.061 103.916C91.4072 103.302 90.9034 102.972 89.5571 103.585C88.1479 104.215 53.5229 119.239 53.3497 164.652C53.1843 208.405 91.3442 230.556 100.697 235.323C105.712 238.564 115.136 242.844 129.835 242.844C137.849 242.844 143.628 240.72 147.006 236.535C149.934 232.9 150.714 228.188 150.533 223.366C151.525 225.593 152.202 227.819 152.202 229.715C152.202 236.999 149.415 253.935 123.607 253.935C94.8083 253.935 66.7572 223.595 66.4974 223.272C65.5684 222.108 64.9937 221.384 64.7969 221.368C64.7969 221.368 64.8677 221.935 65.8282 223.461C66.7808 224.979 92.2103 259.3 123.607 259.3C155.004 259.3 157.579 236.653 157.579 229.707C157.579 221.872 150.407 212.235 148.391 209.679C147.73 206.029 148.47 203.268 150.344 202.576C152.532 201.765 156.209 203.645 159.027 208.814C165.074 219.889 167.664 241.31 154.493 254.265C140.03 268.488 117.238 267.009 114.231 266.742C83.7154 254.777 65.348 243.394 49.9092 214.737C30.6757 179.047 48.3031 130.535 48.5157 130.056C49.1062 128.695 49.4526 127.9 49.6888 127.578C50.0116 127.137 49.0274 127.869 48.1063 129.749C47.1301 131.739 24.6923 179.268 45.1855 217.286C61.2147 247.044 80.9756 259.418 111.664 271.509C112.743 273.79 115.459 280.508 112.483 285.157C110.948 287.556 106.814 288.972 104.405 289.31C104.287 288.146 103.933 286.785 103.358 285.22L103.343 285.188ZM117.789 272.287C118.388 272.295 119.049 272.295 119.75 272.287C119.348 273.16 118.954 274.034 118.561 274.915C118.333 273.971 118.065 273.09 117.789 272.287ZM125.82 271.949C128.378 271.697 131.205 271.28 134.149 270.612C104.075 333.637 87.5967 407.188 87.5967 485.466C87.5967 541.655 95.0839 595.068 109.641 643.768C107.452 643.375 105.492 642.84 103.957 641.944C103.161 641.479 102.39 640.96 101.634 640.394C101.618 640.276 101.603 640.158 101.571 640.04C87.7621 591.819 80.7631 539.807 80.7631 485.466C80.7631 409.272 96.3435 335.486 125.82 271.941V271.949ZM15.9849 682.172C11.8989 682.683 7.33262 683.234 5.47462 683.014C5.63207 682.447 6.04934 681.472 7.15154 679.985C13.5679 671.348 33.3919 658.25 51.098 656.536C71.7486 654.514 82.2668 679.749 82.3691 680.001C82.9281 681.362 84.4791 682.015 85.849 681.48C87.2188 680.929 87.8959 679.387 87.3684 678.019C87.3212 677.893 82.4085 665.039 83.1092 651.037C83.5265 642.746 85.6679 636.39 87.3212 632.622C90.1791 636.752 95.1862 643.029 101.256 646.569C104.98 648.732 109.617 649.275 114.53 649.841C122.261 650.738 129.559 651.58 132.693 658.636C135.243 664.371 135.078 672.638 134.897 681.393C134.684 691.879 134.464 702.735 138.621 711.868C146.195 728.513 165.2 743.97 166.003 744.623C167.168 745.567 167.625 744.592 166.467 743.664C166.278 743.514 149.8 728.662 142.778 711.427C139.455 703.262 140.062 691.399 140.266 681.511C140.314 679.238 140.361 676.988 140.353 674.801L149.674 678.53C149.997 678.656 150.336 678.719 150.674 678.719C151.092 678.719 151.509 678.624 151.887 678.428C152.58 678.082 153.083 677.452 153.272 676.705C153.32 676.508 158.413 657.094 164.712 647.993C168.971 641.857 177.899 637.153 183.567 636.61C185.291 636.437 186.047 636.767 186.157 636.87C186.291 637.074 186.331 637.2 186.339 637.208C186.291 637.523 185.559 638.388 185.118 638.915C183.591 640.724 181.087 643.706 182.355 648.284C181.804 648.701 181.261 649.133 180.733 649.598C172.081 657.133 167.31 668.603 168.719 683.549C170.042 697.598 176.789 708.808 189.645 714.818C195.857 717.728 203.061 719.238 210.351 719.459C210.264 720.654 210.186 721.889 210.115 723.18C207.942 760.875 212.547 789.21 242.535 822.508C253.667 834.866 265.445 844.841 277.522 853.226C292.638 864.703 310.022 874.465 329.342 882.174C323.839 884.133 318.398 885.557 313.155 886.572C312.895 886.304 312.58 886.084 312.202 885.935C280.483 873.663 251.463 856.774 225.404 835.472C225.231 835.126 224.987 834.803 224.664 834.552C222.814 833.104 220.798 831.515 218.673 829.8C203.438 816.64 189.259 801.914 176.206 785.662C175.962 785.355 175.655 785.119 175.324 784.954C170.317 778.527 165.452 772.037 160.673 765.666C141.392 739.935 123.174 715.628 98.9652 698.243C94.7375 695.207 90.4782 692.674 86.2111 690.542C85.66 690.101 85.0144 689.779 84.3059 689.606C57.5774 676.988 31.2111 680.268 15.9534 682.172H15.9849ZM866.029 682.172C847.968 679.922 814.367 675.73 783.017 698.251C761.288 713.85 748.589 731.974 733.882 752.954C716.31 778.024 696.392 806.445 655.256 838.107C654.909 838.375 654.657 838.713 654.476 839.083C594.949 884.991 522.881 909.636 445.404 909.636C416.4 909.636 388.302 906.662 361.731 900.81C366.179 899.339 370.446 897.569 374.556 895.587C395.505 899.905 418.156 902.249 442.452 902.249C529.612 902.249 591.895 868.574 637.88 816.207C638.384 815.656 638.896 815.114 639.4 814.555C669.86 780.738 676.158 762.181 670.049 724.312L669.12 718.664C665.317 695.529 664.034 687.742 674.174 676.343C679.229 670.664 683.441 666.919 686.834 663.914C691.392 659.863 694.691 656.937 696.163 652.508C697.502 648.496 696.651 644.988 695.974 642.172C695.872 641.763 695.785 641.393 695.707 641.031C696.037 639.568 696.368 638.105 696.683 636.642C697.1 636.587 697.667 636.563 698.431 636.634C704.099 637.177 713.027 641.873 717.286 648.016C723.593 657.118 728.678 676.532 728.726 676.729C728.922 677.476 729.426 678.105 730.111 678.451C730.804 678.805 731.607 678.837 732.324 678.546L741.645 674.817C741.645 677.012 741.692 679.254 741.732 681.527C741.936 691.423 741.37 701.335 738.488 709.673C730.623 732.446 715.334 743.892 715.153 744.041C713.995 744.969 714.838 745.591 716.003 744.647C716.806 743.994 735.819 728.536 743.385 711.891C747.542 702.758 747.321 691.903 747.109 681.417C746.936 672.662 746.762 664.394 749.313 658.66C752.447 651.603 759.745 650.754 767.476 649.865C772.389 649.291 777.034 648.756 780.758 646.593C786.828 643.053 791.835 636.775 794.693 632.645C796.346 636.413 798.495 642.77 798.905 651.061C799.605 665.063 794.693 677.909 794.645 678.042C794.11 679.419 794.787 680.961 796.165 681.503C797.527 682.038 799.086 681.385 799.645 680.025C799.747 679.765 810.249 654.608 830.916 656.559C848.622 658.274 868.446 671.372 874.862 680.009C875.964 681.496 876.382 682.471 876.531 683.037C874.658 683.258 870.107 682.699 866.021 682.196L866.029 682.172ZM189.393 677.728C189.393 665.314 196.825 658.14 209.201 658.14C215.515 658.14 216.759 665.181 220.712 666.03C230.576 668.154 236.481 660.335 238.032 652.579C240.197 641.755 235.41 636.563 235.646 636.343C238.41 633.825 248.589 649.59 244.976 671.639C242.11 689.157 227.663 700.194 214.043 700.194C200.423 700.194 189.385 690.133 189.385 677.72L189.393 677.728Z" fill="white" fill-opacity="0.05"/>
</svg>
