<svg width="445" height="934" viewBox="0 0 445 934" fill="none" xmlns="http://www.w3.org/2000/svg">
<g clip-path="url(#clip0_5_2704)">
<path d="M-0.50531 934C-33.8032 934 -65.962 930.214 -96.1085 922.767C-97.5797 922.406 -98.472 920.917 -98.1113 919.446C-97.7505 917.976 -96.2413 917.065 -94.7891 917.444C-65.0792 924.788 -33.357 928.516 -0.50531 928.516C105.909 928.516 202.329 882.948 270.984 800.208C271.952 799.041 273.68 798.889 274.847 799.848C276.015 800.815 276.176 802.542 275.208 803.709C205.489 887.73 107.57 934 -0.50531 934ZM-137.399 909.627C-137.731 909.627 -138.063 909.57 -138.386 909.446C-193.79 887.995 -241.25 852.996 -279.455 805.407C-280.405 804.231 -280.215 802.504 -279.038 801.555C-277.861 800.616 -276.133 800.796 -275.184 801.973C-237.586 848.793 -190.895 883.233 -136.411 904.333C-134.997 904.883 -134.295 906.467 -134.845 907.881C-135.263 908.972 -136.307 909.627 -137.399 909.627ZM2.25681 894.57C-7.00735 894.57 -28.1744 893.356 -37.3722 890.937C-38.8339 890.547 -39.7167 889.048 -39.3275 887.587C-38.9478 886.117 -37.4576 885.225 -35.9768 885.633C-27.3581 887.901 -6.50427 889.086 2.25681 889.086C92.6868 889.086 161.589 848.253 207.056 767.733C212.466 758.141 217.62 747.809 222.366 737.031C222.983 735.637 224.606 735.029 225.983 735.627C227.368 736.244 227.995 737.857 227.387 739.242C222.565 750.181 217.335 760.674 211.821 770.427C165.319 852.797 94.8035 894.561 2.24731 894.561L2.25681 894.57ZM-80.0481 882.028C-80.3328 882.028 -80.627 881.98 -80.9118 881.885C-136.668 863.347 -181.204 824.268 -213.268 765.759C-218.64 755.968 -223.718 745.523 -228.36 734.707C-228.958 733.322 -228.313 731.709 -226.917 731.111C-225.531 730.532 -223.918 731.159 -223.32 732.553C-218.745 743.208 -213.742 753.492 -208.455 763.131C-177.075 820.397 -133.583 858.603 -79.1748 876.696C-77.7415 877.17 -76.9632 878.726 -77.4378 880.159C-77.8174 881.307 -78.89 882.028 -80.0386 882.028H-80.0481ZM247.805 674.519C247.567 674.519 247.339 674.49 247.102 674.424C245.64 674.035 244.767 672.536 245.147 671.075C247.121 663.589 248.972 655.866 250.652 648.125C260.524 602.718 265.526 552.254 265.526 498.119C265.526 376.879 239.404 94.8838 -2.54611 94.8838C-90.774 94.8838 -159.069 136.79 -205.532 219.425C-244.411 288.579 -265.825 384.497 -265.825 489.533C-265.825 549.417 -259.997 604.881 -248.502 654.386C-248.16 655.866 -249.081 657.337 -250.552 657.678C-252.005 658.01 -253.495 657.109 -253.846 655.629C-265.436 605.725 -271.302 549.844 -271.302 489.542C-271.302 383.586 -249.641 286.71 -210.306 216.75C-162.799 132.255 -92.8907 89.4096 -2.53662 89.4096C244.368 89.4096 271.022 375.238 271.022 498.128C271.022 552.653 265.982 603.515 256.025 649.301C254.326 657.128 252.446 664.927 250.453 672.488C250.13 673.712 249.02 674.528 247.805 674.528V674.519ZM-353.986 656.815C-355.182 656.815 -356.283 656.028 -356.625 654.832C-370.853 605.118 -378.067 551.524 -378.067 495.538C-378.067 417.115 -362.064 341.121 -331.756 275.619C-331.443 274.946 -328.738 272.109 -327.371 272.754C-325.994 273.399 -325.197 274.547 -325.843 275.923C-356.416 341.159 -372.581 417.096 -372.581 495.538C-372.581 551.011 -365.434 604.103 -351.347 653.324C-350.93 654.775 -351.775 656.293 -353.236 656.711C-353.483 656.777 -353.739 656.815 -353.986 656.815ZM353.801 646.123C353.545 646.123 353.289 646.085 353.033 646.009C351.58 645.582 350.745 644.055 351.172 642.603C365.192 594.862 372.301 544.133 372.301 491.829C372.301 422.959 360.427 358.151 337.01 299.177C336.839 298.74 336.659 298.294 336.488 297.858C335.919 296.454 337.551 297.071 338.956 296.511C340.351 295.942 341.016 294.405 341.576 295.818C341.87 296.558 342.164 297.298 342.458 298.038C365.904 357.42 377.788 422.599 377.788 491.829C377.788 544.655 370.602 595.896 356.431 644.14C356.079 645.335 354.988 646.104 353.801 646.104V646.123ZM314.087 247.375C313.128 247.375 312.198 246.873 311.695 245.981C309.806 242.622 307.889 239.302 305.924 236.019C301.994 229.463 297.865 222.974 293.632 216.731C292.787 215.479 293.11 213.771 294.372 212.926C295.625 212.063 297.324 212.405 298.178 213.657C302.459 219.985 306.655 226.56 310.632 233.201C312.625 236.531 314.571 239.899 316.479 243.296C317.219 244.615 316.754 246.284 315.435 247.024C315.008 247.261 314.552 247.375 314.096 247.375H314.087ZM-291.14 213.031C-291.681 213.031 -292.232 212.87 -292.706 212.537C-293.95 211.665 -294.253 209.957 -293.38 208.724C-249.935 146.752 -191.977 100.832 -125.761 75.9374C-113.972 71.5068 -83.6834 59.3818 -57.2863 42.5986C-31.9902 26.5174 -10.9465 7.27686 -10.7472 7.08711L-3.81805 0.73053C-2.7265 -0.275138 -1.04642 -0.227701 -0.0117798 0.825404L6.58514 7.53302C6.78448 7.74174 26.0058 27.2669 51.7765 43.1773C76.0569 58.1675 107.096 69.4006 123.773 75.4346C189.239 99.1342 246.618 142.776 289.712 201.646C290.604 202.87 290.338 204.587 289.123 205.479C287.899 206.38 286.181 206.105 285.288 204.891C242.84 146.903 186.344 103.925 121.913 80.5957C105.045 74.4953 73.6554 63.1294 48.9004 47.8451C22.8829 31.7924 2.8548 11.5652 2.66495 11.3659L-2.05252 6.5653L-7.02631 11.1288C-7.23514 11.3185 -28.5161 30.8247 -54.3343 47.2379C-81.1681 64.2963 -111.875 76.592 -123.834 81.0796C-189.006 105.586 -246.082 150.812 -288.89 211.883C-289.422 212.642 -290.276 213.05 -291.14 213.05V213.031Z" fill="#C09973" fill-opacity="0.15"/>
<path d="M51.2352 913.09C49.9064 913.09 48.7388 912.122 48.53 910.765C48.2927 909.266 49.3273 907.872 50.8176 907.634C51.6339 907.511 133.626 894.134 193.358 827.788C223.391 794.43 229.267 777.239 223.287 740.21L222.347 734.46C218.379 710.315 216.737 700.315 228.811 686.729C234.174 680.695 238.616 676.748 242.185 673.579C246.504 669.746 249.105 667.431 250.149 664.291C251.022 661.682 250.443 659.291 249.826 656.758C249.095 653.751 248.269 650.335 250.462 647.043C251.288 645.81 253.025 644.32 256.622 644.292H256.736C263.836 644.292 275.673 650.022 281.425 658.314C286.892 666.208 291.306 680.23 293.072 686.368L301.548 682.981C302.934 682.422 304.547 683.095 305.117 684.509C305.677 685.913 304.993 687.507 303.589 688.076L292.265 692.602C291.534 692.896 290.708 692.858 290.006 692.497C289.303 692.146 288.791 691.501 288.591 690.742C288.544 690.543 283.352 670.724 276.916 661.435C272.578 655.164 263.466 650.373 257.676 649.823C255.92 649.662 255.151 649.975 255.018 650.107C254.211 651.322 254.534 652.868 255.161 655.477C255.854 658.352 256.717 661.929 255.351 666.027C253.841 670.553 250.481 673.541 245.83 677.678C242.375 680.752 238.075 684.575 232.911 690.372C222.565 702.004 223.875 709.954 227.757 733.568L228.697 739.337C234.933 777.998 228.507 796.935 197.421 831.45C136.34 899.285 52.4882 912.919 51.6434 913.042C51.501 913.061 51.3586 913.071 51.2257 913.071L51.2352 913.09Z" fill="#C09973" fill-opacity="0.15"/>
<path d="M215.304 860.415C214.478 860.415 213.671 860.045 213.13 859.353C212.209 858.157 212.428 856.431 213.633 855.51C255.607 823.187 275.939 794.184 293.869 768.587C308.876 747.173 321.832 728.673 344.005 712.744C375.993 689.755 410.278 694.034 428.712 696.33C432.879 696.852 437.53 697.421 439.438 697.194C439.276 696.615 438.849 695.619 437.729 694.101C431.18 685.287 410.952 671.919 392.889 670.164C371.798 668.181 361.082 693.864 360.977 694.12C360.408 695.505 358.813 696.179 357.427 695.628C356.032 695.068 355.339 693.494 355.88 692.089C355.927 691.957 360.939 678.835 360.227 664.547C359.8 656.085 357.617 649.605 355.927 645.753C353.013 649.965 347.907 656.369 341.708 659.993C337.912 662.204 333.175 662.754 328.154 663.333C320.266 664.244 312.815 665.107 309.616 672.318C307.015 678.171 307.186 686.615 307.366 695.552C307.585 706.264 307.813 717.335 303.57 726.662C295.843 743.654 276.442 759.431 275.625 760.095C274.448 761.054 273.585 760.427 274.762 759.479C274.951 759.327 290.547 747.638 298.577 724.394C301.51 715.893 302.089 705.761 301.88 695.666C301.69 686.103 301.5 677.071 304.604 670.098C309.084 660.041 319.307 658.855 327.518 657.897C331.951 657.384 336.137 656.9 338.937 655.259C347.223 650.43 353.716 639.045 353.773 638.931C354.238 638.106 355.111 637.575 356.06 637.537C357.104 637.404 357.911 637.954 358.443 638.751C358.708 639.15 364.907 648.608 365.695 664.272C365.922 668.902 365.619 673.38 365.068 677.393C371.247 670.259 380.587 663.447 393.411 664.699C413.752 666.663 435.128 681.388 442.124 690.818C444.449 693.949 445.351 696.586 444.896 698.892C443.927 703.731 437.928 702.981 428.028 701.748C410.354 699.546 377.446 695.448 347.204 717.174C325.79 732.563 313.081 750.703 298.359 771.708C280.2 797.618 259.622 826.991 216.984 859.827C216.481 860.216 215.892 860.396 215.313 860.396L215.304 860.415Z" fill="#C09973" fill-opacity="0.15"/>
<path d="M339.241 300.78C334.855 300.78 328.078 298.247 325.354 293.987C321.889 288.579 323.095 282.109 324.547 277.925C315.796 278.105 296.774 276.72 283.248 263.419C267.776 248.191 270.661 223.306 277.657 210.498C282.251 202.073 288.791 199.976 293.243 201.617C296.821 202.955 300.371 207.462 298.558 215.782C296.992 222.974 294.847 232.822 299.004 237.983C301.358 240.905 305.82 242.385 312.255 242.385C324.291 242.385 331.334 239.88 335.121 237.784C330.783 236.152 325.231 233.087 323.569 227.717C320.988 219.34 325.496 211.352 325.686 211.02C326.303 209.947 327.566 209.416 328.771 209.739C329.977 210.061 330.802 211.143 330.802 212.386C330.802 212.386 330.878 215.118 332.805 216.911C334.21 218.23 336.374 218.828 339.222 218.685C343.778 218.458 352.7 213.363 360.265 204.369C366.644 196.788 376.895 180.451 373.915 156.268C372.168 142.122 365.771 131.667 354.883 125.206C340.721 116.79 319.497 116.117 300.836 123.479C287.642 128.688 270.301 142.596 253.272 161.637C252.256 162.776 250.519 162.861 249.399 161.856C248.27 160.84 248.175 159.114 249.181 157.985C266.77 138.327 284.861 123.887 298.824 118.384C319.013 110.424 342.117 111.25 357.693 120.49C369.938 127.758 377.427 139.902 379.363 155.594C382.6 181.836 371.419 199.625 364.47 207.889C355.415 218.657 345.183 223.866 339.507 224.15C335.055 224.378 331.533 223.258 328.999 220.849C328.79 220.649 328.591 220.441 328.41 220.232C328.173 222.053 328.202 224.084 328.828 226.105C330.271 230.801 338.529 233.372 341.595 233.96C342.515 234.14 343.284 234.776 343.626 235.649C343.968 236.522 345.553 236.588 345.002 237.347C344.718 237.736 335.985 247.859 312.274 247.859C304.092 247.859 298.197 245.687 294.752 241.417C288.952 234.216 291.42 222.888 293.214 214.615C294.087 210.593 293.347 207.509 291.344 206.76C289.104 205.934 285.364 207.851 282.488 213.126C276.319 224.435 273.67 246.303 287.111 259.519C302.896 275.05 328.268 272.27 328.524 272.223C329.54 272.119 330.556 272.574 331.125 273.428C331.695 274.291 331.733 275.401 331.23 276.303C331.182 276.388 326.256 285.23 329.986 291.046C331.581 293.532 335.871 294.983 338.32 295.296C338.947 291.388 342.468 286.473 343.341 285.306C346.644 280.866 352.938 275.553 362.373 270.212C380.702 259.842 398.3 240.886 407.564 222.471C416.316 205.08 423.852 158.336 402.657 123.953C387.071 98.6788 359.696 85.8613 321.301 85.8613C282.906 85.8613 250.235 101.516 220.05 132.388C218.987 133.479 217.259 133.488 216.177 132.435C215.095 131.382 215.076 129.646 216.13 128.564C247.377 96.5916 282.764 80.3776 321.301 80.3776C361.727 80.3776 390.668 94.0679 407.327 121.079C427.953 154.522 423.558 202.879 412.462 224.938C402.571 244.586 386.16 262.963 365.125 275.164C350.992 283.361 343.949 293.94 343.702 296.264C343.569 298.693 343.645 299.385 342.193 300.211C341.481 300.619 340.456 300.809 339.25 300.809L339.241 300.78Z" fill="#C09973" fill-opacity="0.15"/>
<path d="M328.837 277.678C327.745 277.678 326.711 277.024 326.284 275.933C325.733 274.528 326.426 272.935 327.84 272.384C359.192 260.126 378.005 248.523 393.819 219.16C413.467 182.69 397.616 139.892 397.473 139.465C396.951 137.928 396.439 137.141 396.657 137.055C396.657 137.055 397.16 137.653 397.777 139.038C398.574 140.841 419.552 182.946 398.65 221.759C382.115 252.451 361.708 265.022 329.834 277.488C329.501 277.612 329.169 277.678 328.837 277.678Z" fill="#C09973" fill-opacity="0.15"/>
<path d="M339.259 240.563C338.187 240.563 337.171 239.937 336.734 238.894C336.146 237.499 336.658 236.436 338.054 235.839C338.519 235.639 384.821 215.004 384.821 168.041C384.821 143.497 376.468 127.198 369.187 118.489C361.281 109.03 353.355 105.14 353.279 105.102C351.903 104.476 350.783 103.878 350.877 103.641C350.877 103.641 351.694 103.793 353.08 104.419C354.513 105.064 390.307 117.445 390.307 168.051C390.307 218.657 339.905 241.019 339.411 241.237C339.06 241.389 339.62 240.573 339.269 240.573L339.259 240.563Z" fill="#C09973" fill-opacity="0.15"/>
<path d="M318.605 264.652C286.446 264.652 283.94 241.531 283.94 234.444C283.94 225.668 292.749 214.672 293.755 213.448C294.714 212.281 296.441 212.111 297.609 213.069C298.776 214.027 298.947 215.754 297.998 216.921C295.616 219.833 289.417 228.657 289.417 234.435C289.417 241.873 292.265 259.159 318.596 259.159C347.983 259.159 376.373 228.315 376.639 227.983C377.579 226.797 378.272 225.772 378.604 225.915C378.851 226.019 378.205 227.044 377.256 228.23C376.107 229.653 350.631 264.643 318.596 264.643L318.605 264.652Z" fill="#C09973" fill-opacity="0.15"/>
<path d="M-168.665 931.827C-221.516 931.827 -268.682 915.129 -313.522 881.117C-394.849 819.42 -376.643 708.607 -376.453 707.487C-376.188 705.998 -374.773 705.002 -373.283 705.258C-371.793 705.514 -370.796 706.937 -371.053 708.427C-371.242 709.508 -388.841 817.096 -310.209 876.743C-246.385 925.158 -177.654 937.691 -93.9155 916.164C-60.9974 907.701 -36.7739 882.426 -21.4254 864.163C-0.979675 839.837 18.3555 787.476 18.5548 786.954C20.045 782.438 170.901 325.817 200.089 238.04C201.959 232.423 204.313 226.541 207.113 220.535L181.902 183.288C162.197 216.902 152.876 246.73 152.79 247.043L-3.05841 693.588C-3.43808 694.689 -4.48221 695.429 -5.64972 695.429C-6.81723 695.429 -7.85184 694.689 -8.24103 693.588L-163.008 247.138C-163.112 246.797 -170.867 221.94 -187.155 192.121L-211.834 233.77C-211.312 235.203 -210.809 236.617 -210.344 238.03C-185.836 311.748 -79.5827 629.937 -35.0464 763.312C-35.0084 763.425 -34.9799 763.549 -34.9514 763.672C-34.8375 764.279 -34.5623 764.981 -34.249 765.835C-33.2714 768.482 -31.8001 772.467 -31.6387 778.7C-31.6387 779.023 -31.6767 779.345 -31.7811 779.649L-51.6953 838.689C-72.027 892.35 -112.71 908.023 -143.264 911.742C-207.345 919.551 -264.059 900.974 -311.775 856.554C-370.806 801.612 -358.428 715.409 -358.295 714.537C-358.068 713.047 -356.663 712.032 -355.173 712.241C-353.673 712.468 -352.648 713.863 -352.875 715.362C-352.999 716.197 -364.921 799.601 -308.045 852.531C-261.563 895.804 -206.348 913.877 -143.929 906.297C-114.874 902.758 -76.1845 887.834 -56.8589 836.839L-37.1346 778.359C-37.3244 773.311 -38.5204 770.095 -39.3937 767.733C-39.7828 766.689 -40.1151 765.778 -40.3049 764.886C-84.8792 631.408 -191.047 313.446 -215.546 239.757C-216.134 238.002 -216.761 236.237 -217.435 234.463C-217.729 233.685 -217.653 232.812 -217.226 232.101L-189.443 185.214C-188.94 184.369 -188.066 183.866 -187.051 183.866C-186.073 183.876 -185.171 184.407 -184.697 185.261C-166.52 217.442 -157.891 245.155 -157.806 245.43L-5.64972 684.338L147.57 245.336C147.636 245.108 157.821 212.452 179.396 176.76C179.88 175.963 180.735 175.461 181.674 175.442C182.624 175.404 183.497 175.869 184.019 176.647L212.523 218.761C213.064 219.568 213.15 220.602 212.732 221.475C209.733 227.765 207.236 233.922 205.29 239.766C176.103 327.544 25.2561 784.155 23.7374 788.757C22.9116 791.024 3.84222 842.636 -17.2204 867.692C-33.053 886.544 -58.1023 912.625 -92.5487 921.477C-119.316 928.355 -144.584 931.827 -168.665 931.827Z" fill="#C09973" fill-opacity="0.15"/>
<path d="M8.67389 822.219L180.08 307.402C180.08 307.402 188.756 272.337 205.889 231.939C207.664 227.755 209.571 223.552 211.574 219.368C211.489 219.207 211.394 219.074 211.308 218.904C206.724 209.938 196.757 196.608 189.391 186.627C179.463 201.864 171.547 216.143 164.314 236.759C137.974 311.852 58.2315 541.514 0.112137 709.214C-17.5809 658.779 -124.679 353.397 -164.26 240.573C-171.265 220.602 -179.115 202.244 -189.091 187.178L-208.312 222.888C-206.281 228.154 -181.156 302.716 -181.156 302.716L-23.4849 777.334C-36.0523 813.623 -46.5979 844.135 -53.9446 865.415C-67.2144 903.887 -121.452 924.304 -121.452 924.304C-121.452 924.304 -66.2272 912.426 -42.0702 891.297C-25.3074 876.629 8.66441 822.229 8.66441 822.229L8.67389 822.219Z" fill="#C09973" fill-opacity="0.15"/>
<path d="M322.279 101.658C304.244 99.2671 265.507 107.739 228.631 138.289L250.092 159.19C259.537 148.213 269.788 138.526 280.713 130.936C293.841 121.809 310.195 114.807 325.886 114.807C365.761 114.807 377.256 146.932 377.256 146.932C377.256 146.932 371.665 108.214 322.288 101.658H322.279Z" fill="#C09973" fill-opacity="0.15"/>
<path d="M278.777 252.888C271.401 239.226 280.931 210.744 280.931 210.744C240.03 154.228 185.404 110.984 119.53 87.1421C101.732 80.7001 70.2949 69.2393 45.2267 53.7748C17.9372 36.9251 -2.31866 16.2615 -2.31866 16.2615C-2.31866 16.2615 -24.0553 36.2325 -50.6043 53.1107C-75.122 68.6985 -103.835 81.0037 -121.386 87.5975C-189.045 113.033 -245.379 160.044 -286.831 221.37C-286.831 221.37 -279.408 238.448 -291.226 257.195C-298.05 268.02 -316.807 273.475 -316.807 273.475C-348.329 338.417 -365.614 414.496 -365.614 495.538C-365.614 553.772 -357.745 609.074 -342.435 659.405C-339.663 660.193 -337.509 660.695 -336.265 660.828C-326.802 661.768 -321.619 656.891 -317.091 671.217L-312.564 685.552L-301.24 690.078C-301.24 690.078 -293.94 659.984 -282.398 652.887C-271.321 646.075 -263.841 645.544 -261.924 651.18C-273.447 599.084 -278.279 543.573 -278.279 489.542C-278.279 295.799 -205.153 82.4363 -2.53696 82.4363C214.459 82.4363 277.998 298.256 277.998 498.128C277.998 548.582 273.518 599.587 263.419 647.574C264.491 648.03 265.526 648.589 266.446 649.339C276.214 657.327 282.431 658.219 285.981 669.756C286.759 672.27 289.502 688.38 292.882 688.332C295.027 688.304 298.681 685.913 301.358 685.23C304.054 684.537 306.616 671.824 308.335 669.319C310.964 665.468 317.323 664.339 317.323 664.339L338.604 659.234C356.013 607.784 365.334 551.22 365.334 491.857C365.334 412.571 348.989 338.218 318.643 274.547C318.643 274.547 290.48 274.566 278.786 252.907L278.777 252.888ZM-3.31531 67.1046C-10.216 67.1046 -15.8067 61.5165 -15.8067 54.6192C-15.8067 47.7218 -10.216 42.1337 -3.31531 42.1337C3.58536 42.1337 9.17612 47.7218 9.17612 54.6192C9.17612 61.5165 3.58536 67.1046 -3.31531 67.1046Z" fill="#C09973" fill-opacity="0.15"/>
<path d="M228.08 751.794C186.268 839.922 114.452 901.543 1.03231 901.543C-13.0822 901.543 -33.6798 899.247 -46.5225 897.492C-51.8664 900.206 -53.2712 900.794 -57.5996 902.663C-64.225 905.519 -68.4774 912.018 -73.4512 914.067C-51.8949 918.554 -28.5636 920.993 -3.53333 920.993C95.8381 920.993 163.516 878.081 211.716 813.604C229.637 789.63 225.65 766.822 228.545 757.572C228.545 757.572 230.861 745.921 228.071 751.794H228.08Z" fill="#C09973" fill-opacity="0.15"/>
</g>
<defs>
<clipPath id="clip0_5_2704">
<rect width="900" height="934" fill="white" transform="translate(-455)"/>
</clipPath>
</defs>
</svg>
