<svg width="134" height="277" viewBox="0 0 134 277" fill="none" xmlns="http://www.w3.org/2000/svg">
<g clip-path="url(#clip0_3_821)">
<path d="M1.69006 276.93C-8.17994 276.93 -17.7099 275.81 -26.6399 273.6C-27.0799 273.49 -27.3399 273.05 -27.2299 272.62C-27.1199 272.18 -26.6699 271.91 -26.2499 272.03C-17.4399 274.21 -8.03993 275.31 1.69006 275.31C33.2301 275.31 61.8 261.8 82.1501 237.27C82.44 236.92 82.9501 236.88 83.2901 237.16C83.6401 237.45 83.6801 237.96 83.4001 238.3C62.7401 263.21 33.7201 276.93 1.69006 276.93ZM-38.8799 269.7C-38.9799 269.7 -39.0799 269.68 -39.1699 269.65C-55.5899 263.29 -69.6499 252.91 -80.9799 238.8C-81.2599 238.45 -81.2099 237.94 -80.8599 237.66C-80.5099 237.38 -79.9999 237.44 -79.7199 237.78C-68.5799 251.66 -54.7399 261.87 -38.5899 268.13C-38.1699 268.29 -37.9599 268.76 -38.1299 269.18C-38.2499 269.5 -38.5599 269.7 -38.8899 269.7H-38.8799ZM2.51006 265.23C-0.239944 265.23 -6.50994 264.87 -9.22994 264.15C-9.65994 264.04 -9.91994 263.59 -9.80994 263.16C-9.69994 262.72 -9.25994 262.46 -8.81994 262.58C-6.26994 263.25 -0.0899429 263.6 2.51006 263.6C29.3101 263.6 49.7301 251.49 63.2001 227.62C64.8001 224.78 66.3301 221.71 67.7401 218.52C67.9201 218.11 68.4001 217.93 68.8101 218.1C69.2201 218.28 69.41 218.76 69.2301 219.17C67.8001 222.41 66.2501 225.52 64.6201 228.42C50.8401 252.84 29.9401 265.23 2.51006 265.23ZM-21.8799 261.51C-21.9699 261.51 -22.0499 261.5 -22.1399 261.47C-38.6599 255.97 -51.8599 244.39 -61.3599 227.04C-62.9499 224.14 -64.4599 221.04 -65.8299 217.83C-66.0099 217.42 -65.8199 216.94 -65.3999 216.76C-64.9899 216.59 -64.5099 216.77 -64.3299 217.19C-62.9699 220.35 -61.4899 223.4 -59.9299 226.26C-50.6299 243.24 -37.7399 254.57 -21.6199 259.93C-21.1899 260.07 -20.9599 260.53 -21.1099 260.96C-21.2199 261.3 -21.5399 261.52 -21.8799 261.52V261.51ZM75.2801 199.98C75.2101 199.98 75.1401 199.98 75.0701 199.95C74.6401 199.84 74.3801 199.39 74.4901 198.96C75.0801 196.74 75.6201 194.45 76.1201 192.15C79.0401 178.69 80.5301 163.72 80.5301 147.67C80.5301 111.72 72.7901 28.11 1.08006 28.11C-25.0699 28.11 -45.3099 40.53 -59.0799 65.04C-70.5999 85.54 -76.9499 113.98 -76.9499 145.13C-76.9499 162.89 -75.2199 179.33 -71.8199 194.01C-71.7199 194.45 -71.9899 194.88 -72.4299 194.99C-72.8599 195.09 -73.2999 194.82 -73.4099 194.38C-76.8399 179.58 -78.5799 163.01 -78.5799 145.13C-78.5799 113.72 -72.1599 84.99 -60.4999 64.25C-46.4199 39.2 -25.6999 26.49 1.07007 26.49C74.2401 26.49 82.1401 111.24 82.1401 147.67C82.1401 163.84 80.6501 178.92 77.7001 192.49C77.2001 194.81 76.6401 197.12 76.0501 199.36C75.9501 199.72 75.6201 199.97 75.2701 199.97L75.2801 199.98ZM-103.06 194.73C-103.41 194.73 -103.74 194.5 -103.84 194.14C-108.06 179.4 -110.19 163.51 -110.19 146.91C-110.19 123.66 -105.45 101.13 -96.4699 81.71C-96.3799 81.51 -95.5799 80.67 -95.1699 80.86C-94.7599 81.05 -94.5299 81.39 -94.7199 81.8C-103.78 101.14 -108.57 123.66 -108.57 146.92C-108.57 163.37 -106.45 179.11 -102.28 193.7C-102.16 194.13 -102.41 194.58 -102.84 194.7C-102.91 194.72 -102.99 194.73 -103.06 194.73ZM106.69 191.56C106.61 191.56 106.54 191.56 106.46 191.53C106.03 191.4 105.78 190.95 105.91 190.52C110.07 176.36 112.17 161.32 112.17 145.82C112.17 125.4 108.65 106.18 101.71 88.7C101.66 88.57 101.61 88.44 101.55 88.31C101.38 87.89 101.86 88.08 102.28 87.91C102.69 87.74 102.89 87.29 103.06 87.7C103.15 87.92 103.24 88.14 103.32 88.36C110.27 105.97 113.79 125.29 113.79 145.82C113.79 161.48 111.66 176.68 107.46 190.98C107.36 191.33 107.03 191.56 106.68 191.56H106.69ZM94.9201 73.33C94.6401 73.33 94.3601 73.18 94.2101 72.92C93.6501 71.93 93.0801 70.94 92.5001 69.97C91.3401 68.03 90.1101 66.1 88.8601 64.25C88.6101 63.88 88.7101 63.37 89.0801 63.12C89.4501 62.87 89.9601 62.97 90.2101 63.34C91.4801 65.22 92.7201 67.17 93.9001 69.14C94.4901 70.13 95.0701 71.13 95.6301 72.13C95.8501 72.52 95.7101 73.02 95.3201 73.24C95.1901 73.31 95.0601 73.34 94.9201 73.34V73.33ZM-84.4399 63.16C-84.5999 63.16 -84.7599 63.11 -84.9099 63.01C-85.2799 62.75 -85.3699 62.25 -85.1099 61.88C-72.2399 43.5 -55.0599 29.89 -35.4299 22.51C-31.9399 21.2 -22.9599 17.6 -15.1399 12.63C-7.63994 7.85999 -1.40994 2.15999 -1.34995 2.09999L0.700058 0.219993C1.02006 -0.0800067 1.52007 -0.0600067 1.83006 0.249993L3.78006 2.23999C3.84006 2.29999 9.53006 8.08999 17.1701 12.81C24.3701 17.25 33.5701 20.58 38.5101 22.38C57.91 29.41 74.9101 42.35 87.6901 59.8C87.9501 60.16 87.8801 60.67 87.5101 60.94C87.1501 61.21 86.6401 61.13 86.3701 60.76C73.7901 43.57 57.0501 30.82 37.9501 23.91C32.9501 22.1 23.6501 18.73 16.3101 14.2C8.60006 9.43999 2.66006 3.43999 2.61006 3.37999L1.21007 1.95999L-0.259933 3.30999C-0.319931 3.36999 -6.62994 9.14999 -14.2799 14.01C-22.2299 19.07 -31.3299 22.71 -34.8799 24.04C-54.1899 31.3 -71.1099 44.72 -83.7999 62.82C-83.9599 63.05 -84.2099 63.17 -84.4699 63.17L-84.4399 63.16Z" fill="#C09973" fill-opacity="0.2"/>
<path d="M17.03 270.73C16.64 270.73 16.29 270.44 16.23 270.04C16.16 269.6 16.47 269.18 16.91 269.11C17.15 269.07 41.45 265.11 59.15 245.44C68.05 235.55 69.79 230.45 68.02 219.47L67.74 217.76C66.56 210.6 66.08 207.64 69.66 203.61C71.25 201.82 72.57 200.65 73.62 199.71C74.9 198.57 75.67 197.89 75.98 196.96C76.24 196.19 76.07 195.48 75.88 194.73C75.66 193.84 75.42 192.82 76.07 191.85C76.32 191.48 76.83 191.04 77.89 191.03H77.92C80.03 191.03 83.53 192.73 85.24 195.19C86.86 197.53 88.17 201.69 88.69 203.51L91.2 202.51C91.61 202.34 92.09 202.54 92.26 202.96C92.43 203.38 92.22 203.85 91.81 204.02L88.45 205.36C88.23 205.45 87.99 205.44 87.78 205.33C87.57 205.22 87.42 205.03 87.36 204.81C87.35 204.75 85.81 198.87 83.9 196.12C82.61 194.26 79.91 192.84 78.2 192.68C77.68 192.63 77.45 192.73 77.41 192.76C77.17 193.12 77.27 193.58 77.45 194.35C77.66 195.2 77.91 196.26 77.51 197.48C77.06 198.82 76.07 199.71 74.69 200.93C73.67 201.84 72.39 202.97 70.86 204.69C67.79 208.14 68.18 210.5 69.33 217.5L69.61 219.21C71.46 230.67 69.55 236.29 60.34 246.52C42.24 266.63 17.39 270.67 17.14 270.71C17.1 270.71 17.06 270.71 17.02 270.71L17.03 270.73Z" fill="#C09973" fill-opacity="0.2"/>
<path d="M65.65 255.11C65.41 255.11 65.16 255 65.01 254.79C64.74 254.43 64.8 253.92 65.16 253.65C77.6 244.07 83.62 235.47 88.94 227.88C93.39 221.53 97.23 216.05 103.8 211.32C113.28 204.5 123.44 205.77 128.9 206.45C130.14 206.6 131.51 206.77 132.08 206.7C132.03 206.53 131.91 206.23 131.57 205.78C129.63 203.17 123.64 199.2 118.28 198.68C112.03 198.09 108.85 205.71 108.82 205.78C108.65 206.19 108.18 206.39 107.77 206.23C107.36 206.06 107.15 205.6 107.31 205.18C107.32 205.14 108.81 201.25 108.6 197.01C108.47 194.5 107.83 192.58 107.33 191.44C106.47 192.69 104.95 194.59 103.12 195.66C102 196.32 100.59 196.48 99.1 196.65C96.76 196.92 94.56 197.18 93.61 199.31C92.84 201.05 92.89 203.55 92.94 206.2C93.01 209.37 93.07 212.66 91.82 215.42C89.53 220.46 83.78 225.14 83.54 225.33C83.19 225.61 82.93 225.43 83.28 225.15C83.34 225.1 87.96 221.64 90.34 214.75C91.21 212.23 91.38 209.23 91.32 206.23C91.26 203.39 91.21 200.72 92.13 198.65C93.46 195.67 96.49 195.32 98.92 195.03C100.23 194.88 101.47 194.73 102.3 194.25C104.76 192.82 106.68 189.44 106.7 189.41C106.84 189.16 107.1 189.01 107.38 189C107.69 188.96 107.93 189.12 108.09 189.36C108.17 189.48 110.01 192.28 110.24 196.93C110.31 198.3 110.22 199.63 110.05 200.82C111.88 198.71 114.65 196.69 118.45 197.06C124.48 197.64 130.81 202.01 132.89 204.8C133.58 205.73 133.85 206.51 133.71 207.19C133.42 208.62 131.65 208.4 128.71 208.04C123.47 207.39 113.72 206.17 104.76 212.61C98.41 217.17 94.65 222.55 90.28 228.78C84.9 236.46 78.8 245.17 66.16 254.91C66.01 255.02 65.84 255.08 65.66 255.08L65.65 255.11Z" fill="#C09973" fill-opacity="0.2"/>
<path d="M102.38 89.1798C101.08 89.1798 99.07 88.4298 98.26 87.1698C97.23 85.5698 97.59 83.6498 98.02 82.4098C95.43 82.4598 89.79 82.0498 85.78 78.1098C81.19 73.5998 82.05 66.2198 84.12 62.4198C85.48 59.9198 87.42 59.2998 88.74 59.7898C89.8 60.1898 90.85 61.5198 90.32 63.9898C89.86 66.1198 89.22 69.0398 90.45 70.5698C91.15 71.4398 92.47 71.8698 94.38 71.8698C97.95 71.8698 100.03 71.1298 101.16 70.5098C99.87 70.0298 98.23 69.1198 97.74 67.5298C96.98 65.0398 98.31 62.6798 98.37 62.5798C98.55 62.2598 98.93 62.1098 99.28 62.1998C99.64 62.2998 99.88 62.6198 99.88 62.9898C99.88 62.9898 99.9 63.7998 100.47 64.3298C100.89 64.7198 101.53 64.8998 102.37 64.8498C103.72 64.7798 106.36 63.2698 108.61 60.6098C110.5 58.3598 113.54 53.5198 112.66 46.3498C112.14 42.1498 110.25 39.0598 107.02 37.1398C102.82 34.6498 96.53 34.4398 91 36.6298C87.09 38.1698 81.95 42.2998 76.9 47.9398C76.6 48.2798 76.09 48.2998 75.75 47.9998C75.42 47.6998 75.39 47.1898 75.69 46.8498C80.9 41.0198 86.26 36.7398 90.4 35.1098C96.38 32.7498 103.23 32.9998 107.85 35.7298C111.48 37.8898 113.7 41.4798 114.27 46.1398C115.23 53.9198 111.92 59.1998 109.86 61.6498C107.18 64.8398 104.14 66.3898 102.46 66.4698C101.14 66.5398 100.1 66.2098 99.35 65.4898C99.29 65.4298 99.23 65.3698 99.17 65.3098C99.1 65.8498 99.11 66.4498 99.29 67.0498C99.72 68.4398 102.17 69.1998 103.07 69.3798C103.34 69.4298 103.57 69.6198 103.67 69.8798C103.77 70.1398 104.24 70.1598 104.08 70.3798C103.99 70.4998 101.41 73.4998 94.38 73.4998C91.96 73.4998 90.21 72.8598 89.19 71.5898C87.47 69.4598 88.2 66.0998 88.74 63.6398C89 62.4498 88.78 61.5298 88.18 61.3098C87.52 61.0598 86.41 61.6298 85.56 63.1998C83.73 66.5498 82.95 73.0398 86.93 76.9598C91.61 81.5698 99.13 80.7398 99.2 80.7298C99.5 80.6998 99.8 80.8298 99.97 81.0898C100.14 81.3498 100.15 81.6698 100 81.9398C99.99 81.9698 98.53 84.5898 99.63 86.3098C100.1 87.0498 101.37 87.4798 102.1 87.5698C102.29 86.4098 103.33 84.9498 103.59 84.6098C104.57 83.2898 106.43 81.7198 109.23 80.1298C114.66 77.0498 119.88 71.4398 122.62 65.9798C125.21 60.8198 127.45 46.9598 121.17 36.7698C116.55 29.2798 108.44 25.4698 97.06 25.4698C85.68 25.4698 76 30.1098 67.06 39.2698C66.74 39.5898 66.23 39.5998 65.91 39.2798C65.59 38.9698 65.58 38.4498 65.9 38.1298C75.16 28.6498 85.65 23.8398 97.07 23.8398C109.05 23.8398 117.63 27.8998 122.56 35.9098C128.67 45.8298 127.37 60.1598 124.08 66.6998C121.15 72.5298 116.29 77.9698 110.05 81.5898C105.86 84.0198 103.78 87.1598 103.7 87.8398C103.66 88.5598 103.68 88.7698 103.25 89.0098C103.04 89.1298 102.74 89.1898 102.38 89.1898V89.1798Z" fill="#C09973" fill-opacity="0.2"/>
<path d="M99.2899 82.3301C98.9699 82.3301 98.66 82.1301 98.53 81.8101C98.37 81.3901 98.57 80.9201 98.99 80.7601C108.28 77.1301 113.86 73.6901 118.54 64.9801C124.36 54.1701 119.67 41.4801 119.62 41.3501C119.47 40.8901 119.31 40.6601 119.38 40.6401C119.38 40.6401 119.53 40.8201 119.71 41.2301C119.95 41.7601 126.16 54.2501 119.97 65.7601C115.07 74.8601 109.02 78.5901 99.58 82.2801C99.48 82.3201 99.38 82.3401 99.28 82.3401L99.2899 82.3301Z" fill="#C09973" fill-opacity="0.2"/>
<path d="M102.38 71.3302C102.06 71.3302 101.76 71.1402 101.63 70.8302C101.46 70.4202 101.61 70.1002 102.02 69.9302C102.16 69.8702 115.88 63.7502 115.88 49.8302C115.88 42.5502 113.41 37.7202 111.25 35.1402C108.91 32.3402 106.56 31.1802 106.53 31.1702C106.12 30.9802 105.79 30.8102 105.82 30.7402C105.82 30.7402 106.06 30.7902 106.47 30.9702C106.9 31.1602 117.5 34.8302 117.5 49.8402C117.5 64.8502 102.56 71.4802 102.42 71.5402C102.32 71.5802 102.48 71.3402 102.38 71.3402V71.3302Z" fill="#C09973" fill-opacity="0.2"/>
<path d="M96.26 78.47C86.73 78.47 85.99 71.62 85.99 69.51C85.99 66.91 88.6 63.65 88.9 63.29C89.18 62.94 89.7 62.89 90.04 63.18C90.39 63.46 90.44 63.98 90.15 64.32C89.44 65.18 87.61 67.8 87.61 69.51C87.61 71.71 88.45 76.8399 96.26 76.8399C104.97 76.8399 113.38 67.6899 113.46 67.5999C113.74 67.2499 113.94 66.9399 114.04 66.9899C114.11 67.0199 113.92 67.33 113.64 67.68C113.3 68.1 105.75 78.48 96.26 78.48V78.47Z" fill="#C09973" fill-opacity="0.2"/>
<path d="M-48.14 276.28C-63.8 276.28 -77.78 271.33 -91.07 261.24C-115.17 242.95 -109.78 210.09 -109.72 209.76C-109.64 209.32 -109.22 209.02 -108.78 209.1C-108.34 209.18 -108.04 209.6 -108.12 210.04C-108.18 210.36 -113.39 242.26 -90.09 259.95C-71.18 274.3 -50.81 278.02 -25.99 271.64C-16.23 269.13 -9.05998 261.64 -4.50998 256.22C1.55002 249.01 7.28001 233.48 7.34001 233.33C7.78001 231.99 52.49 96.6098 61.14 70.5798C61.69 68.9098 62.39 67.1698 63.22 65.3898L55.75 54.3498C49.91 64.3198 47.15 73.1598 47.12 73.2498L0.930008 205.65C0.820007 205.98 0.510017 206.19 0.160019 206.19C-0.18998 206.19 -0.489983 205.97 -0.609985 205.64L-46.47 73.2798C-46.5 73.1798 -48.8 65.8098 -53.63 56.9698L-60.94 69.3198C-60.78 69.7398 -60.64 70.1598 -60.5 70.5798C-53.24 92.4398 -21.75 186.78 -8.54999 226.32C-8.53999 226.35 -8.52998 226.39 -8.51998 226.43C-8.48998 226.61 -8.39998 226.82 -8.30998 227.07C-8.01998 227.85 -7.57999 229.04 -7.53999 230.88C-7.53999 230.98 -7.54999 231.07 -7.57999 231.16L-13.48 248.67C-19.5 264.58 -31.56 269.23 -40.62 270.33C-59.61 272.64 -76.42 267.14 -90.56 253.97C-108.05 237.68 -104.38 212.12 -104.35 211.86C-104.28 211.42 -103.87 211.12 -103.42 211.18C-102.98 211.25 -102.67 211.66 -102.74 212.11C-102.78 212.36 -106.31 237.09 -89.45 252.78C-75.67 265.61 -59.31 270.97 -40.81 268.72C-32.2 267.67 -20.73 263.25 -15.01 248.13L-9.16998 230.79C-9.22998 229.29 -9.57998 228.34 -9.83998 227.64C-9.94998 227.33 -10.05 227.06 -10.11 226.8C-23.32 187.22 -54.78 92.9498 -62.04 71.0998C-62.21 70.5798 -62.4 70.0598 -62.6 69.5298C-62.69 69.2998 -62.66 69.0398 -62.54 68.8298L-54.31 54.9298C-54.16 54.6798 -53.9 54.5298 -53.6 54.5298C-53.31 54.5298 -53.04 54.6898 -52.9 54.9398C-47.51 64.4798 -44.96 72.6998 -44.93 72.7798L0.160019 202.91L45.57 72.7498C45.59 72.6798 48.61 62.9998 55 52.4198C55.14 52.1798 55.4 52.0398 55.67 52.0298C55.95 52.0198 56.21 52.1598 56.36 52.3898L64.81 64.8798C64.97 65.1198 64.99 65.4198 64.87 65.6798C63.98 67.5498 63.24 69.3698 62.66 71.0998C54.01 97.1198 9.31001 232.51 8.86002 233.87C8.61002 234.54 2.96001 249.84 -3.27998 257.27C-7.96999 262.86 -15.39 270.59 -25.6 273.22C-33.53 275.26 -41.02 276.29 -48.16 276.29L-48.14 276.28Z" fill="#C09973" fill-opacity="0.2"/>
<path d="M4.40999 243.78L55.21 91.1396C55.21 91.1396 57.78 80.7396 62.86 68.7696C63.39 67.5296 63.95 66.2796 64.55 65.0396C64.52 64.9896 64.5 64.9496 64.47 64.8996C63.11 62.2396 60.16 58.2896 57.97 55.3296C55.03 59.8496 52.68 64.0796 50.54 70.1896C42.73 92.4496 19.1 160.55 1.87999 210.27C-3.36001 195.32 -35.1 104.77 -46.83 71.3196C-48.91 65.3996 -51.23 59.9496 -54.19 55.4896L-59.89 66.0796C-59.29 67.6396 -51.84 89.7496 -51.84 89.7496L-5.11002 230.47C-8.83002 241.23 -11.96 250.28 -14.14 256.59C-18.07 268 -34.14 274.05 -34.14 274.05C-34.14 274.05 -17.77 270.53 -10.62 264.26C-5.65002 259.91 4.40999 243.78 4.40999 243.78Z" fill="#C09973" fill-opacity="0.2"/>
<path d="M97.35 30.1397C92.01 29.4297 80.53 31.9397 69.6 40.9997L75.96 47.1997C78.76 43.9497 81.8 41.0697 85.03 38.8197C88.92 36.1197 93.77 34.0397 98.42 34.0397C110.24 34.0397 113.64 43.5697 113.64 43.5697C113.64 43.5697 111.98 32.0897 97.35 30.1497V30.1397Z" fill="#C09973" fill-opacity="0.2"/>
<path d="M84.46 74.9798C82.27 70.9298 85.1 62.4798 85.1 62.4798C72.98 45.7198 56.79 32.8998 37.27 25.8298C31.99 23.9198 22.68 20.5198 15.25 15.9398C7.16 10.9398 1.16 4.81982 1.16 4.81982C1.16 4.81982 -5.28 10.7398 -13.15 15.7498C-20.42 20.3698 -28.92 24.0198 -34.13 25.9798C-54.18 33.5198 -70.88 47.4598 -83.16 65.6398C-83.16 65.6398 -80.96 70.6998 -84.46 76.2598C-86.48 79.4698 -92.04 81.0898 -92.04 81.0898C-101.38 100.34 -106.5 122.9 -106.5 146.93C-106.5 164.2 -104.17 180.59 -99.63 195.51C-98.81 195.74 -98.17 195.89 -97.8 195.93C-95 196.21 -93.46 194.76 -92.12 199.01L-90.78 203.26L-87.42 204.6C-87.42 204.6 -85.26 195.68 -81.84 193.57C-78.56 191.55 -76.34 191.39 -75.77 193.06C-79.18 177.61 -80.62 161.16 -80.62 145.13C-80.62 87.6898 -58.95 24.4298 1.10001 24.4298C65.41 24.4298 84.24 88.4198 84.24 147.68C84.24 162.64 82.91 177.76 79.92 191.99C80.24 192.13 80.54 192.29 80.82 192.51C83.71 194.88 85.56 195.14 86.61 198.56C86.84 199.31 87.65 204.08 88.66 204.07C89.29 204.07 90.38 203.35 91.17 203.15C91.97 202.94 92.73 199.17 93.24 198.43C94.02 197.29 95.9 196.95 95.9 196.95L102.21 195.44C107.37 180.19 110.13 163.41 110.13 145.81C110.13 122.3 105.29 100.26 96.29 81.3798C96.29 81.3798 87.94 81.3798 84.48 74.9598L84.46 74.9798ZM0.860001 19.8998C-1.19 19.8998 -2.84 18.2398 -2.84 16.1998C-2.84 14.1598 -1.18 12.4998 0.860001 12.4998C2.9 12.4998 4.56 14.1598 4.56 16.1998C4.56 18.2398 2.9 19.8998 0.860001 19.8998Z" fill="#C09973" fill-opacity="0.2"/>
<path d="M69.4299 222.9C57.0399 249.03 35.7599 267.3 2.13995 267.3C-2.04005 267.3 -8.15005 266.62 -11.9501 266.1C-13.5301 266.9 -13.9501 267.08 -15.2301 267.63C-17.1901 268.48 -18.4501 270.4 -19.9301 271.01C-13.5401 272.34 -6.63006 273.06 0.78994 273.06C30.2399 273.06 50.2899 260.34 64.5799 241.22C69.8899 234.11 68.71 227.35 69.57 224.61C69.57 224.61 70.2599 221.16 69.4299 222.9Z" fill="#C09973" fill-opacity="0.2"/>
</g>
<defs>
<clipPath id="clip0_3_821">
<rect width="266.72" height="276.93" fill="white" transform="translate(-133)"/>
</clipPath>
</defs>
</svg>
