<svg width="262" height="64" viewBox="0 0 262 64" fill="none" xmlns="http://www.w3.org/2000/svg">
<path d="M30.6801 63.08C28.4301 63.08 26.2601 62.82 24.2301 62.32C24.1301 62.3 24.0701 62.2 24.0901 62.1C24.1101 62 24.2201 61.94 24.3101 61.96C26.3201 62.46 28.4601 62.71 30.6701 62.71C37.8501 62.71 44.3601 59.63 49.0001 54.04C49.0701 53.96 49.1801 53.95 49.2601 54.02C49.3401 54.09 49.3501 54.2 49.2801 54.28C44.5701 59.95 37.9601 63.08 30.6701 63.08H30.6801ZM21.4401 61.43C21.4401 61.43 21.4002 61.43 21.3701 61.42C17.6301 59.97 14.4302 57.61 11.8502 54.39C11.7901 54.31 11.8001 54.19 11.8801 54.13C11.9601 54.07 12.0801 54.08 12.1402 54.16C14.6802 57.32 17.8301 59.65 21.5101 61.07C21.6101 61.11 21.6502 61.21 21.6201 61.31C21.5901 61.38 21.5201 61.43 21.4501 61.43H21.4401ZM30.8701 60.41C30.2402 60.41 28.8201 60.33 28.1901 60.16C28.0901 60.13 28.0301 60.03 28.0601 59.93C28.0901 59.83 28.1901 59.77 28.2901 59.8C28.8701 59.95 30.2801 60.03 30.8701 60.03C36.9701 60.03 41.6301 57.27 44.6901 51.83C45.0601 51.18 45.4002 50.48 45.7201 49.76C45.7602 49.67 45.8701 49.62 45.9601 49.67C46.0501 49.71 46.1001 49.82 46.0501 49.91C45.7201 50.65 45.3701 51.36 45.0001 52.02C41.8601 57.58 37.1002 60.4 30.8501 60.4L30.8701 60.41ZM25.3101 59.56C25.3101 59.56 25.2701 59.56 25.2501 59.56C21.4901 58.31 18.4801 55.67 16.3201 51.72C15.9601 51.06 15.6102 50.35 15.3001 49.62C15.2601 49.53 15.3001 49.42 15.4001 49.38C15.4901 49.34 15.6002 49.38 15.6402 49.48C15.9502 50.2 16.2901 50.89 16.6401 51.55C18.7601 55.42 21.6901 58 25.3701 59.22C25.4701 59.25 25.5201 59.36 25.4901 59.45C25.4601 59.53 25.3901 59.58 25.3101 59.58V59.56ZM47.4401 45.55C47.4401 45.55 47.4101 45.55 47.3901 45.55C47.2901 45.52 47.2301 45.42 47.2601 45.32C47.3901 44.81 47.5201 44.29 47.6301 43.77C48.3001 40.7 48.6301 37.29 48.6301 33.64C48.6301 25.45 46.8701 6.41001 30.5301 6.41001C24.5701 6.41001 19.9601 9.24001 16.8301 14.82C14.2101 19.49 12.7601 25.97 12.7601 33.06C12.7601 37.1 13.1502 40.85 13.9302 44.19C13.9502 44.29 13.8902 44.39 13.7901 44.41C13.6901 44.43 13.5901 44.37 13.5701 44.27C12.7901 40.9 12.3902 37.13 12.3902 33.05C12.3902 25.89 13.8501 19.35 16.5101 14.63C19.7201 8.92001 24.4401 6.03001 30.5401 6.03001C47.2102 6.03001 49.0101 25.33 49.0101 33.63C49.0101 37.31 48.6701 40.75 48.0001 43.84C47.8901 44.37 47.7601 44.9 47.6201 45.41C47.6001 45.49 47.5201 45.55 47.4401 45.55ZM6.82015 44.35C6.74015 44.35 6.67015 44.3 6.64015 44.22C5.68015 40.86 5.19015 37.24 5.19015 33.46C5.19015 28.16 6.27015 23.03 8.32015 18.61C8.34015 18.56 8.52015 18.37 8.62015 18.42C8.71015 18.46 8.77015 18.54 8.72015 18.63C6.66015 23.04 5.57015 28.16 5.57015 33.46C5.57015 37.21 6.05015 40.79 7.00015 44.12C7.03015 44.22 6.97015 44.32 6.87015 44.35C6.85015 44.35 6.84015 44.35 6.82015 44.35ZM54.6001 43.63C54.6001 43.63 54.5701 43.63 54.5501 43.63C54.4501 43.6 54.4001 43.5 54.4201 43.4C55.3701 40.18 55.8501 36.75 55.8501 33.22C55.8501 28.57 55.0502 24.19 53.4701 20.21L53.4301 20.12C53.3901 20.03 53.5001 20.07 53.6001 20.03C53.6901 19.99 53.7401 19.89 53.7801 19.98C53.8001 20.03 53.8201 20.08 53.8401 20.13C55.4202 24.14 56.2301 28.54 56.2301 33.22C56.2301 36.79 55.7501 40.25 54.7901 43.51C54.7701 43.59 54.6902 43.64 54.6101 43.64L54.6001 43.63ZM51.9201 16.7C51.8601 16.7 51.7901 16.67 51.7601 16.61C51.6301 16.38 51.5001 16.16 51.3701 15.94C51.1001 15.5 50.8302 15.06 50.5401 14.64C50.4801 14.56 50.5001 14.44 50.5901 14.38C50.6702 14.32 50.7901 14.34 50.8501 14.43C51.1401 14.86 51.4201 15.3 51.6901 15.75C51.8201 15.98 51.9602 16.2 52.0802 16.43C52.1301 16.52 52.1001 16.63 52.0101 16.68C51.9801 16.7 51.9501 16.7 51.9201 16.7ZM11.0602 14.39C11.0602 14.39 10.9901 14.38 10.9501 14.36C10.8701 14.3 10.8501 14.19 10.9001 14.1C13.8301 9.91001 17.7501 6.81001 22.2201 5.13001C23.0201 4.83001 25.0601 4.01001 26.8401 2.88001C28.5501 1.79001 29.9701 0.490012 29.9801 0.480012L30.4501 0.0500121C30.5201 -0.0199879 30.6401 -0.00998791 30.7101 0.0500121L31.1601 0.500012C31.1601 0.500012 32.4701 1.83001 34.2101 2.91001C35.8501 3.92001 37.9401 4.68001 39.0701 5.09001C43.4902 6.69001 47.3601 9.64001 50.2701 13.61C50.3302 13.69 50.3102 13.81 50.2301 13.87C50.1501 13.93 50.0302 13.91 49.9701 13.83C47.1002 9.91001 43.2901 7.01001 38.9401 5.44001C37.8001 5.03001 35.6801 4.26001 34.0101 3.23001C32.2501 2.15001 30.9001 0.780012 30.8901 0.770012L30.5701 0.450012L30.2301 0.760012C30.2301 0.760012 28.7801 2.09001 27.0401 3.20001C25.2302 4.35001 23.1601 5.18001 22.3501 5.49001C17.9501 7.14001 14.1002 10.2 11.2101 14.32C11.1701 14.37 11.1202 14.4 11.0602 14.4V14.39ZM34.2001 61.67C34.2602 61.67 39.9202 60.74 44.0401 56.16C46.1401 53.83 46.5701 52.55 46.1502 49.94L46.0901 49.55C45.8302 47.96 45.7401 47.42 46.4401 46.63C46.7901 46.24 47.0802 45.98 47.3102 45.77C47.6202 45.49 47.8502 45.29 47.9501 44.98C48.0401 44.7 47.9801 44.46 47.9401 44.27C47.9001 44.09 47.8801 43.99 47.9401 43.91C47.9401 43.91 48.0001 43.88 48.1201 43.89C48.5101 43.93 49.1301 44.25 49.4201 44.67C49.8501 45.3 50.2001 46.64 50.2101 46.65C50.2201 46.7 50.2602 46.74 50.3102 46.77C50.3601 46.79 50.4101 46.8 50.4601 46.77L51.2201 46.46C51.3102 46.42 51.3601 46.31 51.3201 46.22C51.2801 46.12 51.1702 46.08 51.0802 46.12L50.5101 46.35C50.3901 45.94 50.0901 44.99 49.7201 44.46C49.3302 43.9 48.5301 43.51 48.0501 43.51C47.8101 43.51 47.6902 43.61 47.6301 43.7C47.4801 43.92 47.5401 44.15 47.5901 44.36C47.6301 44.53 47.6702 44.69 47.6101 44.87C47.5401 45.08 47.3601 45.24 47.0701 45.5C46.8301 45.71 46.5301 45.98 46.1701 46.39C45.3501 47.31 45.4701 47.98 45.7301 49.61L45.7901 50C46.1902 52.5 45.7901 53.66 43.7701 55.91C39.7402 60.39 34.2001 61.29 34.1502 61.3C34.0502 61.32 33.9801 61.41 34.0001 61.51C34.0101 61.6 34.0901 61.67 34.1801 61.67H34.2101H34.2001ZM45.3601 58.07C48.2402 55.85 49.6301 53.87 50.8501 52.12C51.8401 50.7 52.7001 49.48 54.1502 48.44C56.1902 46.97 58.4101 47.25 59.6101 47.4C60.2801 47.48 60.6801 47.53 60.7501 47.21C60.7801 47.05 60.7201 46.88 60.5602 46.66C60.0901 46.02 58.6401 45.03 57.2701 44.9C56.4002 44.82 55.7701 45.28 55.3601 45.76C55.4002 45.49 55.4202 45.19 55.4002 44.87C55.3502 43.81 54.9301 43.17 54.9101 43.15C54.8701 43.1 54.8201 43.06 54.7501 43.07C54.6901 43.07 54.6301 43.11 54.6001 43.16C54.6001 43.16 54.1601 43.94 53.6001 44.26C53.4101 44.37 53.1301 44.4 52.8302 44.44C52.2802 44.5 51.5901 44.58 51.2801 45.26C51.0701 45.73 51.0801 46.34 51.1001 46.99C51.1101 47.67 51.0802 48.36 50.8801 48.93C50.3401 50.5 49.2901 51.29 49.2701 51.3C49.1901 51.36 49.2501 51.41 49.3302 51.34C49.3902 51.3 50.6902 50.23 51.2201 49.08C51.5102 48.45 51.4901 47.7 51.4801 46.98C51.4701 46.38 51.4602 45.81 51.6301 45.41C51.8502 44.92 52.3502 44.87 52.8801 44.8C53.2201 44.76 53.5401 44.72 53.7901 44.57C54.2101 44.33 54.5501 43.89 54.7501 43.61C54.8601 43.87 55.0102 44.31 55.0401 44.88C55.0901 45.85 54.7501 46.73 54.7501 46.74C54.7101 46.83 54.7501 46.94 54.8501 46.98C54.9401 47.02 55.0501 46.98 55.0901 46.88C55.0901 46.86 55.8202 45.13 57.2402 45.26C58.4602 45.38 59.8302 46.28 60.2701 46.88C60.3502 46.98 60.3701 47.05 60.3901 47.09C60.2601 47.11 59.9501 47.07 59.6701 47.03C58.4301 46.87 56.1101 46.59 53.9501 48.14C52.4501 49.22 51.5801 50.47 50.5701 51.91C49.3601 53.64 47.9902 55.6 45.1502 57.78C45.0701 57.84 45.0501 57.96 45.1201 58.04C45.1601 58.09 45.2101 58.11 45.2701 58.11C45.3102 58.11 45.3502 58.1 45.3801 58.07H45.3601ZM10.4601 46.77C10.4601 46.77 10.5401 46.7 10.5602 46.65C10.5602 46.64 10.9102 45.3 11.3502 44.67C11.6402 44.25 12.2601 43.92 12.6501 43.89C12.7701 43.88 12.8201 43.9 12.8301 43.91C12.8301 43.92 12.8401 43.93 12.8401 43.93C12.8401 43.95 12.7901 44.01 12.7601 44.05C12.6502 44.18 12.4701 44.4 12.5801 44.73C12.6101 44.83 12.7201 44.88 12.8102 44.85C12.9102 44.82 12.9601 44.71 12.9302 44.62C12.8902 44.49 12.9302 44.42 13.0401 44.29C13.1402 44.17 13.3102 43.97 13.1402 43.71C13.0801 43.63 12.9701 43.53 12.7201 43.52C12.2402 43.52 11.4402 43.91 11.0501 44.47C10.6802 45 10.3801 45.95 10.2601 46.36L9.69015 46.13C9.60015 46.09 9.49015 46.13 9.45015 46.23C9.41015 46.32 9.45015 46.43 9.55015 46.47L10.3102 46.78C10.3102 46.78 10.3601 46.79 10.3801 46.79C10.4101 46.79 10.4401 46.79 10.4601 46.77ZM23.3801 60.86C23.4201 60.77 23.3801 60.66 23.2801 60.62C21.1502 59.69 18.9101 58.6 16.9701 56.45C14.9801 54.24 14.6802 52.43 14.8301 49.87C14.8301 49.76 14.8401 49.66 14.8502 49.56C14.8502 49.46 14.7802 49.37 14.6802 49.36C14.5801 49.36 14.4901 49.43 14.4801 49.53C14.4801 49.63 14.4701 49.73 14.4601 49.84C14.3102 52.44 14.6301 54.39 16.6901 56.69C18.6701 58.89 20.9601 60 23.1201 60.95C23.1402 60.96 23.1701 60.97 23.1901 60.97C23.2601 60.97 23.3301 60.93 23.3601 60.86H23.3801ZM15.5101 57.79C15.5702 57.71 15.5601 57.59 15.4801 57.53C14.8001 57 13.8001 56.18 13.0101 55.26C12.3301 54.46 11.6901 53.6 11.0701 52.78C9.74015 51.01 8.49015 49.33 6.82015 48.13C4.66015 46.58 2.35015 46.87 1.10015 47.02C0.82015 47.06 0.50015 47.09 0.38015 47.08C0.39015 47.04 0.42015 46.97 0.50015 46.87C0.94015 46.27 2.31015 45.37 3.53015 45.25C4.95015 45.11 5.68015 46.85 5.68015 46.87C5.72015 46.96 5.83015 47.01 5.92015 46.97C6.01015 46.93 6.06015 46.83 6.02015 46.73C6.02015 46.73 5.68015 45.84 5.73015 44.87C5.76015 44.3 5.91015 43.86 6.02015 43.6C6.22015 43.88 6.56015 44.32 6.98015 44.56C7.24015 44.71 7.56015 44.75 7.89015 44.79C8.42015 44.85 8.93015 44.91 9.14015 45.4C9.32015 45.8 9.30015 46.37 9.29015 46.97C9.28015 47.69 9.26015 48.44 9.55015 49.07C10.0702 50.22 11.3801 51.28 11.4401 51.33C11.5201 51.39 11.5501 51.33 11.4701 51.26C11.4601 51.25 10.3201 50.23 9.84015 49.04C9.61015 48.48 9.65015 47.66 9.67015 46.98C9.68015 46.33 9.70015 45.72 9.49015 45.25C9.19015 44.57 8.50015 44.49 7.94015 44.43C7.64015 44.4 7.36015 44.36 7.17015 44.25C6.61015 43.92 6.17015 43.15 6.17015 43.15C6.14015 43.09 6.08015 43.06 6.02015 43.06C5.95015 43.06 5.89015 43.09 5.86015 43.14C5.84015 43.17 5.42015 43.81 5.37015 44.86C5.35015 45.17 5.37015 45.48 5.41015 45.75C4.99015 45.27 4.36015 44.81 3.50015 44.89C2.13015 45.02 0.68015 46.02 0.21015 46.65C0.0501496 46.86 -0.00985035 47.04 0.0201496 47.2C0.0901496 47.53 0.49015 47.48 1.16015 47.39C2.35015 47.24 4.57015 46.96 6.62015 48.43C8.24015 49.6 9.48015 51.25 10.7901 53C11.4101 53.83 12.0501 54.69 12.7501 55.5C13.5602 56.45 14.5802 57.28 15.2702 57.82C15.3001 57.85 15.3401 57.86 15.3801 57.86C15.4402 57.86 15.4901 57.84 15.5301 57.79H15.5101ZM16.7301 48.97C17.4901 48.39 17.9701 47.36 18.0101 46.2C18.0501 44.84 17.4802 43.55 16.4501 42.65C15.0601 41.45 13.3601 41.46 13.2901 41.46C13.1901 41.46 13.1101 41.55 13.1101 41.65C13.1101 41.75 13.1902 41.83 13.3001 41.83C13.3001 41.83 14.9301 41.82 16.2201 42.93C17.1701 43.75 17.6901 44.94 17.6501 46.18C17.6201 47.22 17.1901 48.15 16.5201 48.66C15.7001 49.28 14.2601 49.4 13.2401 48.93C12.7101 48.68 12.1102 48.14 12.0101 47.09C11.9302 46.18 12.2001 45.49 12.7101 45.05C13.6601 44.22 15.2901 44.5 15.3001 44.51C15.3701 44.52 15.4301 44.5 15.4801 44.45C15.5201 44.4 15.5302 44.33 15.5101 44.26C15.5001 44.23 15.2002 43.49 14.6402 43.13C14.1002 42.78 13.5501 42.68 13.5301 42.68C13.4301 42.66 13.3301 42.73 13.3201 42.83C13.3001 42.93 13.3701 43.03 13.4701 43.04C13.4701 43.04 13.9701 43.13 14.4401 43.44C14.7001 43.61 14.9002 43.89 15.0202 44.11C14.4402 44.06 13.2802 44.08 12.4701 44.78C11.8701 45.3 11.5501 46.09 11.6402 47.12C11.7302 48.09 12.2001 48.86 13.0801 49.28C13.5401 49.5 14.0901 49.6 14.6402 49.6C15.4201 49.6 16.2001 49.38 16.7501 48.97H16.7301ZM7.12015 20.31C7.04015 20.31 6.97015 20.31 6.92015 20.27C6.85015 20.22 6.83015 20.19 6.82015 20C6.82015 19.83 6.56015 19 5.47015 18.52C3.97015 17.86 2.77015 16.4 2.17015 15.19C1.55015 13.96 1.04015 10.63 2.57015 8.16001C3.69015 6.35001 5.63015 5.43001 8.33015 5.43001C11.0301 5.43001 13.5602 6.64001 15.7501 9.02001C15.8201 9.10001 15.8101 9.21001 15.7401 9.28001C15.6601 9.35001 15.5501 9.34001 15.4801 9.27001C13.3701 6.97001 10.9601 5.80001 8.33015 5.80001C5.70015 5.80001 3.94015 6.66001 2.89015 8.36001C1.46015 10.68 1.95015 13.9 2.51015 15.03C3.15015 16.32 4.35015 17.66 5.62015 18.18C6.78015 18.66 7.03015 19.43 7.12015 19.66C7.16015 19.77 7.18015 19.86 7.19015 19.94C7.36015 19.92 7.64015 19.82 7.75015 19.65C8.00015 19.26 7.67015 18.66 7.67015 18.65C7.64015 18.59 7.64015 18.51 7.67015 18.46C7.71015 18.4 7.78015 18.37 7.85015 18.38C7.87015 18.38 9.58015 18.57 10.6501 17.52C11.5601 16.63 11.3801 15.15 10.9601 14.39C10.7702 14.03 10.5101 13.9 10.3601 13.96C10.2201 14.01 10.1701 14.22 10.2301 14.49C10.3501 15.05 10.5202 15.81 10.1301 16.3C9.90015 16.59 9.50015 16.73 8.95015 16.73C7.35015 16.73 6.66015 15.99 6.64015 15.97C6.60015 15.92 6.81015 15.97 6.84015 15.91C6.86015 15.85 6.92015 15.81 6.98015 15.8C7.19015 15.76 7.74015 15.59 7.84015 15.27C7.88015 15.13 7.88015 15 7.87015 14.87C7.86015 14.88 7.84015 14.9 7.83015 14.91C7.66015 15.07 7.42015 15.15 7.12015 15.13C6.74015 15.11 6.05015 14.76 5.43015 14.03C4.96015 13.47 4.21015 12.27 4.42015 10.5C4.55015 9.44001 5.06015 8.62001 5.88015 8.13001C6.93015 7.51001 8.49015 7.45001 9.85015 7.99001C10.8902 8.40001 12.2901 9.56001 13.5801 11.1C13.6501 11.18 13.6402 11.3 13.5602 11.36C13.4802 11.43 13.3602 11.42 13.3001 11.34C12.0501 9.85001 10.7101 8.73001 9.72015 8.34001C8.46015 7.84001 7.03015 7.89001 6.07015 8.46001C5.34015 8.90001 4.90015 9.60001 4.79015 10.56C4.59015 12.19 5.28015 13.3 5.71015 13.81C6.22015 14.42 6.82015 14.76 7.13015 14.78C7.32015 14.79 7.47015 14.75 7.56015 14.66C7.69015 14.54 7.70015 14.35 7.70015 14.35C7.70015 14.27 7.76015 14.19 7.84015 14.17C7.92015 14.15 8.00015 14.18 8.05015 14.26C8.06015 14.28 8.37015 14.82 8.19015 15.39C8.08015 15.75 7.70015 15.96 7.41015 16.07C7.67015 16.21 8.14015 16.38 8.95015 16.38C9.38015 16.38 9.69015 16.28 9.84015 16.08C10.1201 15.73 9.98015 15.07 9.87015 14.58C9.75015 14.02 9.99015 13.71 10.2301 13.62C10.5301 13.51 10.9701 13.65 11.2801 14.22C11.7501 15.09 11.9501 16.77 10.9001 17.79C9.99015 18.69 8.70015 18.78 8.11015 18.77C8.21015 19.05 8.29015 19.49 8.06015 19.85C7.88015 20.14 7.42015 20.31 7.12015 20.31ZM7.99015 18.63C8.03015 18.53 7.99015 18.43 7.89015 18.39C5.77015 17.56 4.50015 16.78 3.44015 14.8C2.12015 12.34 3.33015 9.00001 3.34015 8.96001C3.38015 8.87001 3.40015 8.81001 3.42015 8.79001C3.44015 8.76001 3.37015 8.81001 3.31015 8.94001C3.24015 9.08001 1.70015 12.35 3.11015 14.97C4.23015 17.04 5.60015 17.89 7.75015 18.73C7.77015 18.73 7.79015 18.74 7.82015 18.74C7.89015 18.74 7.96015 18.7 7.99015 18.62V18.63ZM7.28015 16.13C7.32015 16.04 7.28015 15.96 7.18015 15.92C7.15015 15.91 4.03015 14.51 4.03015 11.34C4.03015 9.68001 4.62015 8.63001 5.11015 8.04001C5.64015 7.40001 6.19015 7.15001 6.19015 7.15001C6.28015 7.11001 6.25015 7.08001 6.16015 7.13001C6.06015 7.17001 3.68015 8.21001 3.67015 11.34C3.66015 14.76 7.04015 16.27 7.07015 16.28C7.09015 16.28 7.09015 16.24 7.11015 16.24C7.18015 16.24 7.25015 16.2 7.28015 16.13ZM10.8401 15.83C10.8401 15.24 10.2501 14.5 10.1802 14.41C10.1201 14.33 10.0001 14.32 9.92015 14.38C9.84015 14.44 9.83015 14.56 9.89015 14.64C10.0501 14.84 10.4701 15.43 10.4701 15.82C10.4701 16.32 10.2801 17.49 8.50015 17.49C6.52015 17.49 4.58015 15.4 4.57015 15.38C4.51015 15.3 4.47015 15.25 4.45015 15.25C4.45015 15.25 4.45015 15.29 4.52015 15.39C4.59015 15.49 6.34015 17.86 8.50015 17.86C10.6601 17.86 10.8401 16.3 10.8401 15.82V15.83ZM53.6001 20.31C53.3001 20.31 52.8501 20.14 52.6601 19.85C52.4301 19.48 52.5102 19.05 52.6101 18.76C52.0201 18.77 50.7301 18.68 49.8201 17.78C48.7801 16.75 48.9701 15.07 49.4401 14.21C49.7501 13.64 50.1902 13.5 50.4902 13.61C50.7302 13.7 50.9701 14 50.8501 14.57C50.7401 15.06 50.6002 15.72 50.8801 16.07C51.0401 16.27 51.3401 16.37 51.7701 16.37C52.5802 16.37 53.0602 16.2 53.3102 16.06C53.0201 15.95 52.6401 15.74 52.5301 15.38C52.3601 14.81 52.6601 14.27 52.6701 14.25C52.7101 14.18 52.8001 14.14 52.8801 14.16C52.9602 14.18 53.0201 14.26 53.0201 14.34C53.0201 14.34 53.0201 14.52 53.1601 14.65C53.2501 14.74 53.4002 14.78 53.5901 14.77C53.9002 14.75 54.5001 14.41 55.0101 13.8C55.4401 13.29 56.1301 12.18 55.9301 10.55C55.8102 9.59001 55.3801 8.89001 54.6502 8.45001C53.6902 7.88001 52.2601 7.84001 51.0001 8.33001C50.1101 8.68001 48.9402 9.62001 47.7901 10.91C47.7201 10.99 47.6001 10.99 47.5301 10.92C47.4501 10.85 47.4501 10.73 47.5201 10.66C48.7101 9.33001 49.9301 8.36001 50.8701 7.99001C52.2301 7.45001 53.7901 7.51001 54.8401 8.13001C55.6702 8.62001 56.1701 9.44001 56.3001 10.5C56.5201 12.27 55.7602 13.47 55.2901 14.03C54.6801 14.76 53.9901 15.11 53.6001 15.13C53.3001 15.15 53.0601 15.07 52.8901 14.91C52.8801 14.9 52.8601 14.88 52.8501 14.87C52.8301 14.99 52.8401 15.13 52.8801 15.27C52.9801 15.59 53.5401 15.76 53.7402 15.8C53.8002 15.81 53.8502 15.86 53.8801 15.91C53.9002 15.97 54.0102 15.97 53.9701 16.02C53.9501 16.05 53.3601 16.73 51.7601 16.73C51.2101 16.73 50.8102 16.58 50.5802 16.3C50.1902 15.81 50.3501 15.05 50.4801 14.49C50.5401 14.22 50.4801 14.01 50.3501 13.96C50.2001 13.9 49.9501 14.03 49.7501 14.39C49.3302 15.15 49.1601 16.63 50.0602 17.52C51.1301 18.57 52.8401 18.38 52.8601 18.38C52.9301 18.38 53.0001 18.4 53.0401 18.46C53.0802 18.52 53.0802 18.59 53.0401 18.65C53.0401 18.65 52.7001 19.25 52.9601 19.65C53.0701 19.82 53.3601 19.92 53.5201 19.94C53.5602 19.68 53.8001 19.34 53.8601 19.27C54.0802 18.97 54.5101 18.61 55.1401 18.25C56.3801 17.55 57.5701 16.27 58.1901 15.03C58.7801 13.86 59.2901 10.7 57.8601 8.38001C56.8102 6.67001 54.9601 5.81001 52.3701 5.81001C49.7801 5.81001 47.5701 6.87001 45.5401 8.95001C45.4701 9.02001 45.3501 9.02001 45.2801 8.95001C45.2101 8.88001 45.2101 8.76001 45.2801 8.69001C47.3901 6.53001 49.7802 5.44001 52.3801 5.44001C55.1101 5.44001 57.0601 6.36001 58.1901 8.19001C59.5801 10.45 59.2901 13.71 58.5401 15.2C57.8702 16.53 56.7601 17.77 55.3401 18.59C54.3901 19.14 53.9101 19.86 53.8901 20.01C53.8901 20.17 53.8901 20.22 53.7901 20.28C53.7402 20.31 53.6702 20.32 53.5901 20.32L53.6001 20.31ZM52.9701 18.74C55.1202 17.9 56.5001 17.05 57.6201 14.98C59.0301 12.36 57.6202 9.51001 57.5602 9.39001C57.5201 9.30001 57.4801 9.26001 57.4801 9.26001C57.4601 9.26001 57.5001 9.32001 57.5301 9.42001C57.5301 9.45001 58.6101 12.34 57.2801 14.8C56.2101 16.78 54.9402 17.57 52.8302 18.39C52.7302 18.43 52.6902 18.53 52.7201 18.63C52.7501 18.7 52.8201 18.75 52.8901 18.75C52.9101 18.75 52.9401 18.75 52.9601 18.74H52.9701ZM53.6201 16.29C53.6201 16.29 57.0602 14.77 57.0602 11.35C57.0602 7.93001 54.6401 7.10001 54.5501 7.05001C54.4601 7.01001 54.4002 7.00001 54.4002 7.00001C54.4002 7.02001 54.4701 7.06001 54.5602 7.10001C54.5602 7.10001 55.1002 7.37001 55.6301 8.00001C56.1202 8.59001 56.6901 9.69001 56.6901 11.35C56.6901 14.52 53.5601 15.92 53.5301 15.93C53.4401 15.97 53.4001 16.04 53.4401 16.14C53.4701 16.21 53.5401 16.25 53.6101 16.25C53.6301 16.25 53.6002 16.3 53.6101 16.29H53.6201ZM56.1801 15.41C56.2402 15.33 56.2901 15.26 56.2701 15.25C56.2501 15.25 56.2001 15.31 56.1401 15.39C56.1201 15.41 54.2102 17.5 52.2201 17.5C50.4402 17.5 50.2501 16.33 50.2501 15.83C50.2501 15.44 50.6702 14.84 50.8302 14.65C50.8902 14.57 50.8801 14.45 50.8001 14.39C50.7201 14.33 50.6002 14.34 50.5401 14.42C50.4701 14.5 49.8801 15.25 49.8801 15.84C49.8801 16.32 50.0501 17.88 52.2201 17.88C54.3902 17.88 56.1001 15.52 56.1801 15.42V15.41ZM24.4701 62.23C26.8001 61.63 28.4901 59.87 29.5501 58.6C30.9701 56.91 32.2602 53.42 32.3102 53.27C32.4101 52.96 42.6001 22.12 44.5701 16.19C44.7001 15.8 44.8701 15.38 45.0701 14.95C45.1001 14.89 45.0901 14.82 45.0602 14.77L43.1401 11.93C43.1001 11.88 43.0501 11.85 42.9801 11.85C42.9201 11.85 42.8601 11.89 42.8302 11.94C41.3702 14.35 40.6901 16.56 40.6801 16.57L30.3401 46.22L20.0701 16.58C20.0701 16.58 19.4801 14.69 18.2501 12.52C18.2201 12.46 18.1601 12.43 18.0901 12.43C18.0201 12.43 17.9601 12.46 17.9301 12.52L16.0501 15.69C16.0501 15.69 16.0201 15.8 16.0401 15.85C16.0901 15.97 16.1301 16.09 16.1701 16.21C17.8201 21.19 24.9901 42.66 28.0001 51.68C28.0101 51.74 28.0401 51.8 28.0601 51.87C28.1201 52.03 28.2001 52.25 28.2101 52.59L26.8801 56.54C25.5801 59.98 22.9601 60.99 21.0001 61.23C16.7901 61.74 13.0602 60.52 9.92015 57.6C6.08015 54.02 6.88015 48.39 6.89015 48.34C6.91015 48.24 6.84015 48.14 6.73015 48.13C6.63015 48.12 6.53015 48.18 6.52015 48.29C6.52015 48.35 5.68015 54.17 9.66015 57.88C12.8801 60.88 16.7101 62.13 21.0401 61.61C23.1001 61.36 25.8501 60.3 27.2201 56.68L28.5601 52.69C28.5601 52.69 28.5701 52.65 28.5601 52.63C28.5501 52.21 28.4501 51.94 28.3801 51.76C28.3601 51.7 28.3401 51.65 28.3301 51.61V51.59C25.3201 42.58 18.1401 21.09 16.4901 16.11C16.4601 16.01 16.4201 15.92 16.3901 15.82L18.0601 13.01C19.1601 15.02 19.6801 16.7 19.6901 16.73L30.1401 46.88C30.1701 46.95 30.2401 47 30.3101 47C30.3901 47 30.4601 46.95 30.4801 46.88L41.0001 16.72C41.0001 16.72 41.6401 14.68 42.9701 12.41L44.6701 14.93C44.4801 15.34 44.3201 15.73 44.2001 16.11C42.2301 22.04 32.0501 52.88 31.9501 53.18C31.9401 53.22 30.6301 56.75 29.2501 58.39C28.2101 59.62 26.5801 61.33 24.3601 61.9C18.7101 63.35 14.0702 62.51 9.76015 59.24C4.45015 55.21 5.64015 47.95 5.65015 47.87C5.67015 47.77 5.60015 47.67 5.50015 47.66C5.40015 47.64 5.30015 47.71 5.29015 47.81C5.28015 47.89 4.05015 55.37 9.54015 59.54C12.5701 61.84 15.7501 62.96 19.3201 62.96C20.9501 62.96 22.6501 62.73 24.4601 62.26L24.4701 62.23ZM22.8201 62.29C26.3001 61.5 27.9801 58.05 28.6701 56.07C28.7301 55.89 28.6401 55.69 28.4601 55.63C28.2801 55.57 28.0801 55.66 28.0201 55.84C27.3701 57.69 25.8201 60.9 22.6701 61.61C18.5001 62.56 14.8401 61.95 11.4701 59.76C9.04015 58.18 7.65015 56.66 6.96015 54.82C5.85015 51.89 5.90015 49.59 6.08015 47.91C6.10015 47.72 5.96015 47.55 5.77015 47.53C5.58015 47.51 5.41015 47.65 5.39015 47.84C5.21015 49.59 5.15015 52 6.31015 55.06C7.06015 57.04 8.54015 58.67 11.0901 60.34C13.5501 61.94 16.1601 62.74 18.9901 62.74C20.2201 62.74 21.5001 62.59 22.8201 62.29ZM13.3301 42.08C13.3301 42.08 14.7801 41.84 16.5401 43.23C17.3902 43.91 15.9101 42.34 15.2901 42.05C14.6701 41.76 13.3302 41.58 13.2702 41.59C13.2101 41.6 13.3301 42.08 13.3301 42.08ZM31.3101 55.53L42.8801 20.76C42.8801 20.76 43.4701 18.39 44.6201 15.66C44.7401 15.38 44.8701 15.09 45.0001 14.81L44.9801 14.78C44.6701 14.17 44.0001 13.27 43.5001 12.6C42.8302 13.63 42.3002 14.59 41.8102 15.99C40.0302 21.06 34.6501 36.57 30.7301 47.9C29.5401 44.49 22.3101 23.87 19.6301 16.25C19.1601 14.9 18.6301 13.66 17.9501 12.64L16.6501 15.05C16.7901 15.41 18.4801 20.44 18.4801 20.44L29.1201 52.49C28.2701 54.94 27.5601 57 27.0601 58.44C26.1601 61.04 22.5001 62.42 22.5001 62.42C22.5001 62.42 26.2302 61.62 27.8601 60.19C28.9901 59.2 31.2801 55.53 31.2801 55.53H31.3101ZM24.6401 59.87C19.8501 58.13 16.6801 54.32 14.6901 49.56H14.5701C14.3601 54.6 17.6001 58.86 22.9001 60.9C23.0601 60.96 24.8201 59.94 24.6401 59.87ZM16.8801 46.3C17.1301 44.78 16.4301 43.69 16.2401 43.87C16.2201 43.89 16.5501 44.24 16.4001 44.99C16.2901 45.52 15.8902 46.06 15.2101 45.92C14.9401 45.86 14.8502 45.38 14.4201 45.38C13.5701 45.38 13.0602 45.87 13.0602 46.73C13.0602 47.59 13.8202 48.28 14.7601 48.28C15.7001 48.28 16.6901 47.52 16.8901 46.31L16.8801 46.3ZM13.9001 10.83L15.1701 9.66001C12.4601 7.38001 9.87015 6.64001 8.26015 6.86001C5.01015 7.31001 4.71015 9.72001 4.71015 9.72001C4.71015 9.72001 5.60015 7.58001 8.29015 7.58001C10.5501 7.58001 12.4101 8.96001 13.9001 10.82V10.83ZM52.4701 6.86001C51.2501 6.70001 48.6402 7.27001 46.1502 9.33001L47.6001 10.74C48.2401 10 48.9301 9.34001 49.6701 8.83001C50.5601 8.21001 51.6601 7.74001 52.7201 7.74001C55.4101 7.74001 56.1901 9.91001 56.1901 9.91001C56.1901 9.91001 55.8102 7.29001 52.4801 6.85001L52.4701 6.86001ZM49.5301 17.07C49.0301 16.15 49.6801 14.22 49.6801 14.22C46.9202 10.4 43.2301 7.48001 38.7801 5.87001C37.5801 5.43001 35.4601 4.66001 33.7601 3.62001C31.9201 2.48001 30.5501 1.09001 30.5501 1.09001C30.5501 1.09001 29.0802 2.44001 27.2901 3.58001C25.6301 4.63001 23.7001 5.46001 22.5101 5.91001C17.9401 7.63001 14.1402 10.8 11.3401 14.94C11.3401 14.94 11.8401 16.09 11.0401 17.36C10.5801 18.09 9.31015 18.46 9.31015 18.46C7.18015 22.85 6.02015 27.98 6.02015 33.46C6.02015 37.39 6.55015 41.13 7.58015 44.53C7.77015 44.58 7.91015 44.62 8.00015 44.63C8.64015 44.69 8.99015 44.36 9.29015 45.33L9.60015 46.3L10.3601 46.61C10.3601 46.61 10.8502 44.58 11.6301 44.1C12.3801 43.64 12.8801 43.6 13.0101 43.98C12.2302 40.46 11.9101 36.71 11.9101 33.06C11.9101 19.98 16.8501 5.57001 30.5201 5.57001C45.1702 5.57001 49.4601 20.15 49.4601 33.64C49.4601 37.05 49.1601 40.49 48.4801 43.73C48.5501 43.76 48.6201 43.8 48.6801 43.85C49.3401 44.39 49.7601 44.45 50.0001 45.23C50.0501 45.4 50.2402 46.49 50.4701 46.48C50.6101 46.48 50.8601 46.32 51.0401 46.27C51.2201 46.22 51.4001 45.36 51.5101 45.2C51.6901 44.94 52.1201 44.86 52.1201 44.86L53.5602 44.52C54.7402 41.05 55.3601 37.22 55.3601 33.22C55.3601 27.86 54.2601 22.84 52.2101 18.54C52.2101 18.54 50.3102 18.54 49.5201 17.08L49.5301 17.07ZM30.4901 4.53001C30.0201 4.53001 29.6501 4.15001 29.6501 3.69001C29.6501 3.23001 30.0301 2.85001 30.4901 2.85001C30.9501 2.85001 31.3301 3.23001 31.3301 3.69001C31.3301 4.15001 30.9501 4.53001 30.4901 4.53001ZM46.1101 50.77C43.2901 56.72 38.4401 60.88 30.7801 60.88C29.8301 60.88 28.4401 60.73 27.5701 60.61C27.2101 60.79 27.1101 60.83 26.8201 60.96C26.3701 61.15 26.0901 61.59 25.7501 61.73C27.2001 62.03 28.7801 62.2 30.4701 62.2C37.1801 62.2 41.7501 59.3 45.0001 54.95C46.2101 53.33 45.9401 51.79 46.1401 51.17C46.1401 51.17 46.3001 50.38 46.1101 50.78V50.77ZM103.32 30.82C102.57 31.14 101.86 31.28 101.14 31.28C96.9702 31.28 93.5802 26.39 89.6902 26.39C88.4402 26.39 87.1601 26.89 85.7701 28.17V30.92H83.1002V5.97001H85.7701V27.4L98.8202 5.97001H100.07L86.4102 27.15C88.5902 25.3 90.4002 24.62 91.9702 24.62C96.6402 24.62 99.0702 30.75 102.2 30.75C102.52 30.75 102.84 30.68 103.2 30.54L103.31 30.83L103.32 30.82ZM109.56 21.33V21.9C109.56 27.28 111.63 30.78 115.55 30.78C118.72 30.78 121.15 28.93 121.97 25.75L122.43 25.89C121.5 29.49 118.65 31.27 115.55 31.27C111.2 31.27 106.88 27.99 106.88 21.89C106.88 15.79 111.48 12.4 115.55 12.4C119.33 12.4 122.61 15.07 122.61 20.42C122.61 20.71 122.57 21.03 122.57 21.31H109.55L109.56 21.33ZM120.04 19.58C120.04 15.27 118.47 13.05 115.62 13.05C112.77 13.05 109.91 15.58 109.59 20.82H119.97C120.01 20.39 120.04 19.96 120.04 19.57V19.58ZM127.32 37.66C127.32 35.13 127.28 32.77 126.36 30.42H127.39C129.81 30.42 132.6 24.64 132.6 18.97C132.6 17.01 132.24 15.05 131.46 13.37L131.42 13.08H140.26V30.43H143.26C142.33 32.78 142.3 35.14 142.3 37.67H142.05C141.44 35.78 140.94 33.96 140.94 32.21C140.94 31.78 140.98 31.35 141.05 30.93H128.57C128.64 31.36 128.64 31.75 128.64 32.18C128.64 33.96 128.14 35.78 127.57 37.67H127.32V37.66ZM133.63 14.98C133.63 21.9 131.85 28.67 128.89 30.42H137.77V13.6H133.6C133.6 14.06 133.64 14.53 133.64 14.99L133.63 14.98ZM150.75 13.09H153.25V17.76C154.5 14.34 157.28 12.59 160.06 12.59C163.81 12.59 167.55 15.69 167.55 21.9C167.55 28.11 163.81 31.24 160.06 31.24C157.28 31.24 154.5 29.49 153.25 26.07V39.12H150.75V13.1V13.09ZM159.13 30.03C162.02 30.03 164.87 27.39 164.87 21.9C164.87 16.41 162.02 13.84 159.09 13.84C156.16 13.84 153.06 16.62 153.06 21.9C153.06 27.18 156.09 30.03 159.12 30.03H159.13ZM174.33 21.9C174.33 15.8 178.64 12.52 183 12.52C187.36 12.52 191.67 15.8 191.67 21.9C191.67 28 187.36 31.28 183 31.28C178.64 31.28 174.33 28 174.33 21.9ZM188.99 21.9C188.99 16.34 186.96 13.06 183 13.06C179.04 13.06 177.01 16.34 177.01 21.9C177.01 27.46 179.04 30.78 183 30.78C186.96 30.78 188.99 27.46 188.99 21.9ZM199.69 13.09H205.93C210.46 13.09 212.46 15.09 212.46 17.58C212.46 19.65 210.86 21.32 208.68 21.82C211 22.25 212.78 24.17 212.78 26.35C212.78 28.85 210.5 30.91 205.93 30.91H199.69V13.1V13.09ZM202.19 13.59V30.43H205.76C208.68 30.43 210.15 28.29 210.15 26.19C210.15 24.09 208.83 22.2 206.3 22.02V21.7C208.72 21.66 209.9 19.74 209.9 17.78C209.9 15.71 208.58 13.61 205.94 13.61H202.2L202.19 13.59ZM220.99 13.09H223.49V20.33H226.09C230.73 20.33 233.19 23.08 233.19 25.75C233.19 28.42 230.87 30.92 226.09 30.92H220.99V13.1V13.09ZM223.49 20.83V30.42H226.09C229.12 30.42 230.62 28.03 230.62 25.64C230.62 23.25 229.09 20.83 226.09 20.83H223.49ZM235.4 13.09H237.9V30.93H235.4V13.1V13.09ZM248.6 21.33V21.9C248.6 27.28 250.67 30.78 254.59 30.78C257.76 30.78 260.19 28.93 261.01 25.75L261.47 25.89C260.54 29.49 257.69 31.27 254.59 31.27C250.24 31.27 245.92 27.99 245.92 21.89C245.92 15.79 250.52 12.4 254.59 12.4C258.37 12.4 261.65 15.07 261.65 20.42C261.65 20.71 261.61 21.03 261.61 21.31H248.59L248.6 21.33ZM259.08 19.58C259.08 15.27 257.51 13.05 254.66 13.05C251.81 13.05 248.95 15.58 248.63 20.82H259.01C259.05 20.39 259.08 19.96 259.08 19.57V19.58ZM82.3702 45.5H84.1102V48.76C84.9802 46.37 86.9202 45.16 88.8602 45.16C91.4702 45.16 94.0802 47.32 94.0802 51.65C94.0802 55.98 91.4702 58.16 88.8602 58.16C86.9202 58.16 84.9802 56.94 84.1102 54.56V63.66H82.3702V45.51V45.5ZM88.2102 57.31C90.2202 57.31 92.2102 55.47 92.2102 51.64C92.2102 47.81 90.2202 46.02 88.1802 46.02C86.1402 46.02 83.9802 47.96 83.9802 51.64C83.9802 55.32 86.0901 57.31 88.2102 57.31ZM100.66 51.25V51.65C100.66 55.4 102.1 57.84 104.84 57.84C107.05 57.84 108.74 56.55 109.31 54.34L109.63 54.44C108.98 56.95 107 58.19 104.83 58.19C101.8 58.19 98.7902 55.9 98.7902 51.65C98.7902 47.4 102 45.04 104.83 45.04C107.46 45.04 109.75 46.9 109.75 50.63C109.75 50.83 109.72 51.05 109.72 51.25H100.65H100.66ZM107.97 50.03C107.97 47.02 106.88 45.48 104.89 45.48C102.9 45.48 100.91 47.24 100.69 50.9H107.92C107.95 50.6 107.97 50.3 107.97 50.03ZM116.12 46.35C116.92 45.58 117.96 45.11 119.33 45.11C122.31 45.11 123.8 46.78 123.8 48.44C123.8 49.83 122.76 51.2 120.67 51.57C122.88 51.94 123.95 53.26 123.95 54.65C123.95 56.37 122.26 58.18 118.98 58.18C116.77 58.18 114.83 56.96 114.36 54.15L114.68 54.08C115.03 56.54 116.94 57.83 119.01 57.83C121.08 57.83 122.17 56.16 122.17 54.57C122.17 53.18 121.3 51.84 119.46 51.71V51.49C121.17 51.47 122.04 50 122.04 48.53C122.04 47.06 121.12 45.47 119.26 45.47C117.89 45.47 116.97 45.87 116.25 46.66C115.9 47.63 115.43 48.47 114.56 49.15L114.39 49.05C115.01 47.86 115.43 46.34 115.51 45.1H115.76L116.13 46.34L116.12 46.35ZM137.5 47.77L129.97 58.18H129.67V45.5H131.41V55.57L138.87 45.25H139.24V57.93H137.5V47.76V47.77ZM144.76 62.63C144.76 60.87 144.73 59.22 144.09 57.58H144.81C146.5 57.58 148.44 53.55 148.44 49.6C148.44 48.23 148.19 46.87 147.64 45.7L147.62 45.5H153.78V57.58H155.87C155.22 59.22 155.2 60.86 155.2 62.63H155.03C154.61 61.31 154.26 60.04 154.26 58.83C154.26 58.53 154.28 58.23 154.33 57.94H145.63C145.68 58.24 145.68 58.51 145.68 58.81C145.68 60.05 145.33 61.32 144.93 62.64H144.76V62.63ZM149.16 46.82C149.16 51.64 147.92 56.36 145.85 57.58H152.04V45.85H149.13C149.13 46.17 149.15 46.5 149.15 46.82H149.16ZM161.34 51.24V51.64C161.34 55.39 162.78 57.83 165.52 57.83C167.73 57.83 169.42 56.54 169.99 54.33L170.31 54.43C169.66 56.94 167.68 58.18 165.51 58.18C162.48 58.18 159.47 55.89 159.47 51.64C159.47 47.39 162.68 45.03 165.51 45.03C168.14 45.03 170.43 46.89 170.43 50.62C170.43 50.82 170.41 51.04 170.41 51.24H161.34ZM168.65 50.02C168.65 47.01 167.56 45.47 165.57 45.47C163.58 45.47 161.59 47.23 161.37 50.89H168.6C168.63 50.59 168.65 50.29 168.65 50.02ZM183.99 51.36H177.9V57.92H176.16V45.49H177.9V51.01H183.99V45.49H185.73V57.92H183.99V51.36ZM192.44 45.49H194.18V57.57H200.27V45.49H202.01V57.57H204.1C203.45 59.21 203.43 60.85 203.43 62.62H203.26C202.84 61.3 202.49 60.03 202.49 58.82C202.49 58.52 202.51 58.22 202.56 57.93H192.44V45.5V45.49ZM217.15 47.75L209.62 58.16H209.32V45.48H211.06V55.55L218.52 45.23H218.89V57.91H217.15V47.74V47.75ZM233.43 47.75L225.9 58.16H225.6V45.48H227.34V55.55L234.8 45.23H235.17V57.91H233.43V47.74V47.75Z" fill="#263059"/>
</svg>
