<svg width="198" height="246" viewBox="0 0 198 246" fill="none" xmlns="http://www.w3.org/2000/svg">
<g clip-path="url(#clip0_3_795)">
<path d="M53.45 159.58L48.38 145.63H49.85L54.23 157.67L58.34 145.63H58.91L53.84 159.58C53.17 161.68 52.31 162.98 51.29 162.98C51.15 162.98 51 162.96 50.86 162.9V161.74C50.98 161.8 51.14 161.82 51.27 161.82C52.06 161.82 53 161.09 53.45 159.58ZM69.27 145.65C70.29 145.65 71.31 146.1 72.1 147.01C72.57 147.95 73.14 148.94 73.85 149.74L73.99 149.68C73.36 148.38 72.95 146.71 72.85 145.38H72.61L72.24 146.54C71.47 145.73 70.43 145.36 69.33 145.36C66.48 145.36 63.24 147.89 63.24 152.32C63.24 157.15 66.13 159.65 69.25 159.65C71.35 159.65 73.24 158.59 73.87 156.47L73.56 156.39C73.01 158.26 71.4 159.38 69.28 159.38C66.43 159.38 64.9 157.02 64.9 152.33C64.9 147.64 67.1 145.67 69.28 145.67L69.27 145.65ZM84.06 145.43L89.13 159.38H87.66L86.03 154.96H80.65L79.14 159.38H78.61L83.68 145.43H84.07H84.06ZM85.91 154.62L83.28 147.37L80.77 154.62H85.92H85.91ZM98.5 149.45C98.5 148.11 98.3 146.82 97.83 145.76V145.62H102.39V159.06H104.37C103.76 160.57 103.74 162.09 103.74 163.72H103.6C103.21 162.48 102.87 161.3 102.87 160.16C102.87 159.91 102.89 159.63 102.93 159.37H95.44C95.48 159.65 95.5 159.92 95.5 160.19C95.5 161.33 95.17 162.49 94.79 163.71H94.65C94.65 162.08 94.63 160.57 94.02 159.05L94.49 159.03C96.32 159.03 98.48 153.9 98.48 149.44L98.5 149.45ZM95.3 159.06H100.92V145.96H98.96C98.98 146.31 98.98 146.67 98.98 147.02C98.98 152.6 97.41 157.94 95.31 159.06H95.3ZM112.04 145.62V150.63H113.73C117.17 150.63 118.98 152.89 118.98 155.11C118.98 157.33 117.29 159.37 113.73 159.37H110.57V145.62H112.04ZM112.04 150.96V159.03H113.73C116.07 159.03 117.23 157.03 117.23 155.02C117.23 153.01 116.05 150.95 113.73 150.95H112.04V150.96ZM128.07 159.37H124.99V145.62H132.83C133.12 147.39 133.69 149.16 134.4 150.92L134.26 150.96C133.1 149.33 132.12 147.68 131.49 145.95H126.46V152.12H128.09C131.47 152.12 133.16 153.93 133.16 155.73C133.16 157.53 131.47 159.36 128.07 159.36V159.37ZM126.46 159.04H128.17C130.37 159.04 131.47 157.41 131.47 155.76C131.47 154.11 130.37 152.46 128.17 152.46H126.46V159.04ZM143.99 145.43L149.06 159.38H147.59L145.96 154.96H140.58L139.07 159.38H138.54L143.61 145.43H144H143.99ZM145.84 154.62L143.21 147.37L140.69 154.62H145.84ZM19.96 186.4C19.96 193.89 15.31 197.91 9.97001 197.91C4.63001 197.91 0.0100098 193.89 0.0100098 186.4C0.0100098 178.91 4.66001 174.89 9.97001 174.89C15.28 174.89 19.96 178.91 19.96 186.4ZM17.3 186.4C17.3 179.13 14.8 175.33 9.96001 175.33C5.12001 175.33 2.65001 179.13 2.65001 186.4C2.65001 193.67 5.12001 197.47 9.96001 197.47C14.8 197.47 17.3 193.68 17.3 186.4ZM46.68 183.97L46.9 183.91C46.24 181.41 45.63 178.6 45.51 175.37H30.05C29.92 178.6 29.32 181.41 28.66 183.91L28.88 183.97C30.27 181.63 31.47 178.97 32.2 175.91H36.6V197.51H38.97V175.91H43.37C44.1 178.98 45.3 181.63 46.69 183.97H46.68ZM62.49 187.54H59.23V197.5H56.86V175.36H62.49C67.58 175.36 69.98 178.3 69.98 181.31C69.98 184.32 67.39 187.54 62.49 187.54ZM62.21 187C65.66 187 67.43 184.22 67.43 181.43C67.43 178.64 65.69 175.9 62.21 175.9H59.24V187H62.21ZM75.94 197.5H75.09L83.25 175.05H83.88L92.04 197.5H89.67L87.05 190.38H78.39L75.95 197.5H75.94ZM78.56 189.85H86.85L82.61 178.18L78.56 189.85ZM107.12 181.53C107.12 179.38 106.8 177.29 106.04 175.58V175.36H113.38V196.99H116.57C115.59 199.43 115.56 201.86 115.56 204.49H115.34C114.71 202.5 114.17 200.6 114.17 198.77C114.17 198.36 114.2 197.92 114.27 197.5H102.22C102.28 197.94 102.31 198.39 102.31 198.83C102.31 200.66 101.77 202.53 101.17 204.49H100.95C100.95 201.87 100.92 199.43 99.94 196.99L100.7 196.96C103.64 196.96 107.12 188.71 107.12 181.53ZM101.97 196.99H111.01V175.9H107.85C107.88 176.47 107.88 177.04 107.88 177.61C107.88 186.59 105.35 195.19 101.97 197V196.99ZM138.75 185.29H129.07V175.36H126.7V197.5H129.07V185.83H138.75V197.5H141.12V175.36H138.75V185.29ZM171.64 186.4C171.64 193.89 166.99 197.91 161.65 197.91C156.31 197.91 151.69 193.89 151.69 186.4C151.69 178.91 156.34 174.89 161.65 174.89C166.96 174.89 171.64 178.91 171.64 186.4ZM168.98 186.4C168.98 179.13 166.48 175.33 161.64 175.33C156.8 175.33 154.33 179.13 154.33 186.4C154.33 193.67 156.8 197.47 161.64 197.47C166.48 197.47 168.98 193.68 168.98 186.4ZM197.22 188.9C195.32 191.56 193.84 194.24 192.7 196.96H184.13V185.83H191.5V185.29H184.13V175.9H191.69C192.7 177.89 194.06 179.85 195.83 181.78L196.05 181.69C194.91 179.6 194.12 177.52 193.84 175.37H181.76V197.51H194.85C195.29 194.57 196.24 191.72 197.44 188.97L197.22 188.91V188.9ZM40.08 91.15C40.02 90.85 40.14 90.51 40.44 90.1C41.35 88.87 44.14 86.95 46.79 86.69C48.46 86.53 49.68 87.42 50.48 88.34C50.41 87.82 50.37 87.23 50.4 86.63C50.5 84.59 51.31 83.35 51.35 83.3C51.42 83.2 51.52 83.13 51.66 83.14C51.78 83.14 51.9 83.21 51.96 83.32C51.96 83.32 52.2 83.74 52.58 84.22C50.94 78.07 50.1 71.48 50.1 64.62C50.1 55.58 51.74 46.79 54.85 38.97C54.5 39.13 54.13 39.23 53.83 39.23C53.67 39.23 53.53 39.21 53.45 39.15C53.32 39.06 53.27 38.99 53.26 38.62C53.26 38.29 52.75 36.68 50.66 35.76C47.77 34.48 45.45 31.67 44.29 29.33C43.1 26.95 42.11 20.53 45.05 15.76C47.22 12.26 50.96 10.48 56.17 10.48C61.38 10.48 66.15 12.77 70.34 17.26C74.18 14.11 78.44 11.62 83 9.90997C84.54 9.32997 88.48 7.74997 91.93 5.55997C95.23 3.45997 97.97 0.949968 98 0.929968L98.9 0.0999683C99.04 -0.0300317 99.26 -0.0200317 99.4 0.109968L100.26 0.979968C100.26 0.979968 102.79 3.54997 106.15 5.62997C109.32 7.57997 113.36 9.04997 115.54 9.83997C119.93 11.43 124.04 13.71 127.76 16.6C131.79 12.55 136.34 10.49 141.29 10.49C146.56 10.49 150.33 12.28 152.5 15.8C155.19 20.16 154.62 26.47 153.17 29.34C151.88 31.9 149.74 34.3 147 35.89C145.16 36.96 144.24 38.34 144.21 38.64C144.2 38.88 144.2 38.99 144.12 39.07C147.13 46.76 148.65 55.19 148.65 64.14C148.65 70.75 147.78 77.18 146.07 83.25C146.09 83.27 146.11 83.28 146.13 83.3C146.16 83.35 146.97 84.59 147.08 86.63C147.11 87.23 147.07 87.82 147 88.34C147.8 87.41 149.02 86.52 150.69 86.68C153.34 86.94 156.13 88.86 157.04 90.09C157.34 90.5 157.46 90.84 157.4 91.14C157.27 91.77 156.49 91.67 155.2 91.51C152.9 91.22 148.61 90.69 144.66 93.52C141.87 95.53 140.21 97.89 138.29 100.63C137.39 101.92 136.44 103.27 135.31 104.68C135.3 104.72 135.31 104.76 135.27 104.8C134.55 105.67 133.8 106.49 133.04 107.29C132.72 107.63 132.39 107.98 132.03 108.32C123.26 117.03 111.82 121.78 99.33 121.78C94.99 121.78 90.8 121.29 86.87 120.31C86.84 120.31 86.81 120.28 86.78 120.27C83.5 121.07 80.38 121.49 77.41 121.49C70.52 121.49 64.37 119.31 58.53 114.88C47.93 106.83 50.3 92.38 50.33 92.24C50.33 92.21 50.35 92.18 50.36 92.15C47.2 90.89 44.13 91.26 42.3 91.49C41.01 91.65 40.23 91.75 40.1 91.12L40.08 91.15ZM51.76 92.86C51.46 96.06 51.42 100.38 53.5 105.85C54.84 109.39 57.53 112.34 62.21 115.39C68.71 119.63 75.78 120.8 83.83 118.97C89.03 117.79 91.98 113.09 93.5 109.52C94.3 107.2 95.25 104.45 96.32 101.37L75.77 39.47C75.77 39.47 73.07 31.44 72.37 29.46L71.77 30.48C71.84 30.67 71.9 30.85 71.96 31.04C75.15 40.65 89 82.15 94.81 99.54C94.81 99.56 94.81 99.57 94.82 99.59C94.83 99.67 94.87 99.76 94.91 99.87C95.04 100.21 95.23 100.73 95.25 101.55C95.25 101.59 95.25 101.63 95.23 101.67L92.63 109.37C91.74 111.72 90.55 113.5 89.21 114.86C89.18 114.9 89.15 114.94 89.11 114.96C86.48 117.57 83.31 118.57 80.7 118.89C72.35 119.91 64.95 117.49 58.73 111.69C51.63 105.08 52.45 95.02 52.64 93.4C52.35 93.2 52.05 93.01 51.75 92.84L51.76 92.86ZM53.31 93.92C53.1 96.32 52.82 105.23 59.22 111.19C65.23 116.79 72.36 119.15 80.42 118.22C76.18 116.47 72.3 114.1 68.84 111.13C67.57 110.11 65.97 108.73 64.65 107.19C63.31 105.62 62.07 103.97 60.87 102.36C58.48 99.16 56.2 96.14 53.31 93.92ZM65.01 85.88C65.42 85.67 65.84 85.51 66.27 85.4C64.78 78.92 64.02 71.67 64.02 63.84C64.02 50.02 66.84 37.39 71.97 28.26C78.16 17.24 87.28 11.65 99.05 11.65C131.23 11.65 134.71 48.93 134.71 64.95C134.71 71.81 134.09 78.22 132.89 84.02C133.15 84.02 133.45 84.09 133.77 84.2C135.05 78.01 135.62 71.45 135.62 64.95C135.62 38.88 127.34 10.74 99.05 10.74C72.64 10.74 63.11 38.57 63.11 63.83C63.11 70.6 63.7 77.54 65.08 84.1C65.26 84.17 65.37 84.27 65.43 84.37C65.77 84.88 65.44 85.27 65.24 85.5C65.12 85.64 65.04 85.75 65.01 85.86V85.88ZM98.94 8.74997C99.84 8.74997 100.57 8.01997 100.57 7.11997C100.57 6.21997 99.84 5.48997 98.94 5.48997C98.04 5.48997 97.31 6.21997 97.31 7.11997C97.31 8.01997 98.04 8.74997 98.94 8.74997ZM141.68 36.24C141.51 36.24 141.31 36.24 141.1 36.24C141.24 36.54 141.36 36.85 141.5 37.15C141.52 36.82 141.59 36.5 141.68 36.25V36.24ZM128.73 98.78C128.71 98.31 128.66 97.82 128.59 97.3C128.08 98.4 127.55 99.47 126.98 100.47C120.92 111.21 111.73 116.66 99.66 116.66C98.45 116.66 95.69 116.5 94.49 116.19C94.43 116.17 94.38 116.14 94.34 116.1C93.97 116.44 93.58 116.78 93.17 117.1C93.21 117.08 93.25 117.06 93.3 117.04C94.97 117.27 97.66 117.57 99.5 117.57C113.96 117.57 123.22 109.87 128.72 98.78H128.73ZM71.25 31.2C67.03 39.95 64.72 51.41 64.72 63.84C64.72 69.6 65.14 75.04 65.95 80.08C66.77 80.11 69.51 80.38 71.82 82.37C73.82 84.09 74.91 86.59 74.83 89.22C74.76 91.44 73.84 93.44 72.36 94.56C71.78 95 71.04 95.32 70.25 95.52C70.85 96.92 71.5 98.26 72.19 99.52C76.24 106.91 81.83 111.86 88.81 114.25C90.04 112.97 91.13 111.31 91.95 109.14L94.52 101.51C94.49 100.85 94.34 100.43 94.23 100.12C94.18 99.98 94.14 99.87 94.11 99.75C88.3 82.34 74.46 40.88 71.27 31.27C71.27 31.25 71.25 31.22 71.24 31.2H71.25ZM88.26 114.81C81.26 112.32 75.64 107.3 71.57 99.87C70.87 98.59 70.21 97.23 69.6 95.82C69.58 95.77 69.57 95.72 69.57 95.67C69.3 95.71 69.03 95.73 68.76 95.75C68.75 95.93 68.73 96.12 68.72 96.31V96.39C72.53 105.18 78.51 112.21 87.4 115.51C87.69 115.29 87.98 115.05 88.26 114.79V114.81ZM69.03 85.19C68.79 84.77 68.41 84.23 67.91 83.9C67.41 83.58 66.9 83.38 66.54 83.27C66.68 83.94 66.82 84.61 66.97 85.26C67.78 85.14 68.53 85.15 69.04 85.19H69.03ZM123.08 23.9C120.51 28.28 119.3 32.17 119.28 32.21L98.96 90.45C98.92 90.56 98.83 90.62 98.73 90.65C98.99 91.4 99.21 92.03 99.37 92.48C106.95 70.61 117.34 40.66 120.77 30.87C121.63 28.42 122.57 26.65 123.71 24.85L123.06 23.9H123.08ZM122.68 23.17C117.48 16.76 109.94 12.36 99.04 12.36C89.19 12.36 81.26 16.38 75.38 24.29C77.69 28.42 78.79 31.95 78.8 31.99L98.63 89.23L118.6 31.98C118.6 31.98 119.91 27.77 122.67 23.16L122.68 23.17ZM129.2 89.55C129.9 88.76 130.48 88.25 130.94 87.84C131.09 87.71 131.22 87.59 131.33 87.49C131.52 86.77 131.69 86.02 131.86 85.28C131.81 84.99 131.82 84.68 132.02 84.38C132.04 84.35 132.06 84.33 132.09 84.3C133.35 78.43 133.99 71.93 133.99 64.96C133.99 56.28 132.95 41.3 126.82 29.54C126.56 30.13 126.33 30.71 126.14 31.27C122.34 42.72 102.67 102.27 102.47 102.87C102.36 103.17 99.88 109.9 97.13 113.16C96.51 113.9 95.76 114.73 94.92 115.55C96.15 115.81 98.59 115.95 99.67 115.95C111.46 115.95 120.44 110.63 126.37 100.12C127.08 98.87 127.75 97.52 128.37 96.12C128.38 96.1 128.4 96.08 128.41 96.06L128.37 95.79C127.85 92.64 127.64 91.34 129.21 89.57L129.2 89.55ZM63.22 90.95C63.4 92.98 64.56 94.01 65.59 94.5C67.55 95.42 70.34 95.19 71.93 93.99C73.24 93 74.05 91.21 74.12 89.19C74.19 87 73.35 84.91 71.82 83.36C69.22 81.36 67 81.2 66.15 81.23C66.22 81.64 66.3 82.06 66.37 82.46C66.74 82.55 67.52 82.78 68.29 83.28C69.37 83.98 69.95 85.41 69.97 85.47C70.02 85.59 70 85.73 69.91 85.83C69.83 85.93 69.7 85.98 69.57 85.95C69.54 85.95 66.4 85.39 64.56 87C63.58 87.85 63.05 89.19 63.21 90.95H63.22ZM145.77 84.2C145.39 84.75 144.72 85.58 143.92 86.06C143.43 86.35 142.81 86.42 142.15 86.5C141.12 86.62 140.15 86.73 139.73 87.67C139.39 88.43 139.41 89.53 139.44 90.7C139.47 92.1 139.5 93.54 138.94 94.76C137.93 96.98 135.4 99.03 135.3 99.12C135.15 99.25 135.03 99.16 135.19 99.04C135.21 99.02 137.25 97.5 138.29 94.46C138.67 93.35 138.75 92.03 138.72 90.71C138.72 90.41 138.71 90.11 138.71 89.82L137.47 90.32C137.37 90.36 137.27 90.35 137.18 90.31C137.09 90.26 137.02 90.18 137 90.08C137 90.05 136.32 87.47 135.48 86.26C134.91 85.44 133.73 84.82 132.97 84.74C132.86 84.74 132.79 84.74 132.74 84.74C132.7 84.92 132.65 85.1 132.61 85.28C132.62 85.34 132.63 85.39 132.65 85.47C132.74 85.84 132.85 86.31 132.67 86.85C132.47 87.44 132.04 87.83 131.43 88.37C130.98 88.77 130.42 89.27 129.75 90.03C128.4 91.55 128.57 92.58 129.08 95.66L129.2 96.41C130.01 101.45 129.18 103.92 125.12 108.42C125.01 108.54 124.9 108.65 124.79 108.77C118.69 115.66 110.44 120.09 98.92 120.09C95.68 120.09 92.65 119.77 89.86 119.2C89.32 119.46 88.76 119.68 88.18 119.88C91.72 120.66 95.45 121.08 99.32 121.08C109.65 121.08 119.26 117.78 127.19 111.64C127.21 111.61 127.21 111.58 127.24 111.56C128.92 110.27 130.33 109.02 131.55 107.81C131.87 107.49 132.19 107.16 132.5 106.84C134.73 104.47 136.28 102.27 137.7 100.23C139.66 97.44 141.35 95.02 144.24 92.95C148.41 89.95 152.88 90.51 155.28 90.81C155.82 90.88 156.43 90.95 156.68 90.92C156.66 90.84 156.6 90.71 156.46 90.52C155.61 89.37 152.97 87.63 150.61 87.4C147.86 87.14 146.46 90.49 146.45 90.52C146.38 90.7 146.17 90.79 145.99 90.72C145.81 90.65 145.72 90.44 145.79 90.26C145.79 90.24 146.45 88.53 146.36 86.67C146.3 85.57 146.02 84.72 145.8 84.22L145.77 84.2ZM147.91 64.13C147.91 55.22 146.38 46.83 143.37 39.18C142.99 39.13 142.56 38.98 142.21 38.74C145.33 46.36 147 54.99 147 64.13C147 71.64 145.85 78.79 143.71 85.34C144.31 84.94 144.83 84.3 145.15 83.85C145.15 83.83 145.15 83.81 145.15 83.8C146.98 77.57 147.9 70.96 147.9 64.14L147.91 64.13ZM128.3 17.03C128.65 17.31 129 17.6 129.35 17.89C134.11 14.02 139.07 12.93 141.39 13.24C146.61 13.93 148.08 17.39 148.44 18.67C148.62 19.17 148.76 19.7 148.83 20.28C149.25 23.7 147.79 26.02 146.89 27.1C145.71 28.5 144.38 29.18 143.64 29.22C143.06 29.25 142.6 29.1 142.27 28.79C142.24 28.76 142.22 28.74 142.19 28.71C142.16 28.95 142.16 29.21 142.24 29.48C142.43 30.09 143.51 30.43 143.9 30.5H143.91C145.33 29.73 149.53 27.02 149.53 21.9C149.53 18.7 148.44 16.57 147.49 15.44C146.46 14.21 145.43 13.7 145.42 13.69C145.24 13.61 145.09 13.53 145.11 13.5C145.11 13.5 145.22 13.52 145.4 13.6C145.59 13.68 150.25 15.3 150.25 21.9C150.25 27.65 145.27 30.6 143.94 31.29C143.38 31.7 142.2 32.31 140.08 32.31C139.01 32.31 138.25 32.03 137.8 31.47C137.41 30.99 137.31 30.36 137.33 29.72C137.2 30.02 137.11 30.31 137.11 30.56C137.11 31.53 137.48 33.78 140.91 33.78C144.74 33.78 148.44 29.76 148.48 29.71C148.6 29.56 148.69 29.42 148.74 29.44C148.77 29.45 148.69 29.59 148.56 29.74C148.41 29.93 145.09 34.49 140.91 34.49C136.73 34.49 136.39 31.47 136.39 30.55C136.39 29.5 137.34 28.23 137.61 27.89C137.7 27.4 137.61 27.03 137.36 26.94C137.07 26.83 136.58 27.08 136.21 27.77C135.41 29.24 135.06 32.1 136.81 33.82C138.74 35.72 141.76 35.52 142.16 35.48C146.22 33.89 148.66 32.37 150.72 28.56C153.28 23.8 151.21 18.22 151.2 18.17C151.13 17.97 151.06 17.87 151.09 17.86C151.09 17.86 151.16 17.94 151.24 18.12C151.34 18.35 154.08 23.85 151.35 28.91C149.22 32.87 146.59 34.52 142.51 36.12C142.37 36.41 141.99 37.31 142.4 37.94C142.61 38.26 143.17 38.45 143.49 38.49C143.57 37.98 144.03 37.34 144.14 37.19C144.57 36.61 145.39 35.92 146.62 35.22C149.01 33.87 151.3 31.4 152.51 28.99C153.65 26.72 154.63 20.63 151.87 16.14C149.84 12.84 146.27 11.17 141.27 11.17C136.54 11.17 132.18 13.14 128.31 17.02L128.3 17.03ZM132.57 20.88C134.19 22.53 135.7 24.32 137.1 26.22C137.28 26.2 137.45 26.22 137.61 26.28C138.05 26.45 138.48 26.99 138.33 27.97C138.86 28.76 139.38 29.58 139.88 30.4C140.11 30.79 140.34 31.19 140.57 31.58C141.85 31.52 142.64 31.24 143.08 30.99C142.51 30.78 141.79 30.38 141.57 29.68C141.23 28.59 141.82 27.55 141.85 27.5C141.93 27.36 142.1 27.29 142.25 27.33C142.41 27.37 142.52 27.51 142.52 27.68C142.52 27.68 142.52 28.04 142.78 28.27C142.96 28.44 143.24 28.52 143.62 28.5C144.21 28.47 145.38 27.81 146.36 26.63C147.19 25.64 148.53 23.51 148.14 20.36C147.91 18.51 147.08 17.15 145.66 16.31C143.81 15.21 141.05 15.12 138.61 16.09C136.93 16.75 134.75 18.5 132.58 20.88H132.57ZM138.36 31.02C138.62 31.34 139.09 31.52 139.73 31.57C139.57 31.3 139.42 31.03 139.26 30.76C138.9 30.16 138.51 29.57 138.13 28.99C138.01 29.75 137.97 30.54 138.36 31.02ZM61.85 27.44C62.01 27.74 62.14 28.09 62.26 28.47C67.64 20.66 74.88 14.67 83.56 11.41C85.85 10.55 89.59 8.93997 92.79 6.90997C96.25 4.70997 99.08 2.09997 99.08 2.09997C99.08 2.09997 101.72 4.79997 105.28 6.98997C108.55 9.00997 112.64 10.5 114.97 11.34C123.43 14.4 130.46 19.93 135.77 27.14C135.97 26.85 136.19 26.63 136.41 26.48C130.9 19.03 123.6 13.5 115.28 10.49C113.08 9.68997 108.99 8.20997 105.76 6.21997C102.37 4.12997 99.76 1.48997 99.73 1.45997L99.12 0.829968L98.47 1.42997C98.47 1.42997 95.67 3.99997 92.3 6.13997C88.8 8.35997 84.8 9.96997 83.24 10.55C74.81 13.72 67.42 19.56 61.85 27.43V27.44ZM59.82 26.28C60.27 26.11 60.88 26.25 61.42 26.83C62.72 25.01 64.11 23.3 65.59 21.71C63.22 18.93 60.71 16.83 58.84 16.09C56.41 15.13 53.64 15.22 51.79 16.31C50.37 17.15 49.54 18.52 49.31 20.36C48.92 23.51 50.26 25.64 51.09 26.63C52.08 27.8 53.24 28.47 53.83 28.5C54.2 28.52 54.48 28.44 54.67 28.27C54.92 28.04 54.93 27.68 54.93 27.68C54.93 27.52 55.04 27.38 55.2 27.34C55.36 27.3 55.52 27.37 55.6 27.51C55.62 27.55 56.21 28.6 55.88 29.69C55.66 30.39 54.94 30.79 54.37 31C54.86 31.27 55.78 31.6 57.35 31.6C58.19 31.6 58.77 31.41 59.08 31.03C59.62 30.36 59.34 29.07 59.14 28.14C58.9 27.06 59.37 26.47 59.83 26.29L59.82 26.28ZM66.66 20.59C63.82 17.16 60.31 14.65 56.08 14.65C55.66 14.65 55.27 14.69 54.89 14.74C56.27 14.67 57.73 14.89 59.09 15.43C61.05 16.2 63.65 18.35 66.08 21.19C66.27 20.99 66.47 20.79 66.66 20.59ZM55.03 37.94C55.43 37.31 55.06 36.41 54.92 36.12C50.84 34.51 48.21 32.86 46.08 28.91C43.35 23.85 46.34 17.52 46.47 17.26C46.59 17.01 46.72 16.91 46.68 16.97C46.65 17.01 46.6 17.12 46.52 17.3C46.49 17.36 44.15 23.82 46.71 28.57C48.76 32.39 51.21 33.9 55.27 35.49C55.68 35.53 58.7 35.72 60.62 33.83C62.37 32.11 62.03 29.25 61.22 27.78C60.84 27.09 60.36 26.84 60.07 26.95C59.82 27.04 59.73 27.42 59.82 27.9C60.09 28.24 61.04 29.51 61.04 30.56C61.04 31.48 60.71 34.5 56.52 34.5C52.33 34.5 48.96 29.93 48.83 29.73C48.7 29.53 48.69 29.45 48.69 29.45C48.72 29.45 48.79 29.55 48.92 29.7C48.95 29.74 52.69 33.78 56.52 33.78C59.95 33.78 60.32 31.52 60.32 30.56C60.32 30.31 60.23 30.01 60.1 29.72C60.12 30.36 60.02 30.99 59.63 31.47C59.18 32.03 58.41 32.31 57.35 32.31C55.4 32.31 54.15 31.74 53.48 31.31C52.26 30.69 47.16 27.74 47.18 21.9C47.2 15.85 51.81 13.85 52 13.77C52.18 13.69 52.25 13.73 52.07 13.81C52.06 13.81 51.01 14.3 49.98 15.53C49.03 16.67 47.9 18.69 47.9 21.89C47.9 27.02 52.11 29.73 53.52 30.5C53.52 30.5 53.53 30.5 53.54 30.5C53.94 30.42 55.02 30.09 55.2 29.48C55.28 29.22 55.28 28.95 55.25 28.72C55.23 28.75 55.2 28.77 55.17 28.8C54.84 29.11 54.39 29.26 53.8 29.23C53.06 29.19 51.73 28.51 50.55 27.11C49.64 26.03 48.19 23.71 48.61 20.29C48.75 19.19 49.1 18.22 49.64 17.42C50.32 15.97 51.99 13.83 56.05 13.26C59.08 12.84 63.93 14.21 69.03 18.38C69.28 18.16 69.53 17.94 69.79 17.72C65.75 13.4 61.18 11.2 56.18 11.2C51.18 11.2 47.7 12.86 45.67 16.14C42.9 20.61 43.85 26.83 44.94 29.01C46.18 31.5 48.5 34.09 50.95 35.1C53.19 36.02 53.67 37.51 53.84 37.97C53.92 38.18 53.96 38.36 53.98 38.51C54.3 38.47 54.85 38.28 55.06 37.96L55.03 37.94ZM55.84 36.61C55.9 36.48 55.95 36.35 56 36.23C55.91 36.23 55.81 36.23 55.73 36.23C55.77 36.34 55.81 36.47 55.84 36.61ZM50.81 64.61C50.81 71.84 51.74 78.77 53.58 85.19C53.58 85.2 53.58 85.21 53.58 85.23C53.68 85.31 53.79 85.38 53.89 85.45C54.09 85.57 54.36 85.64 54.65 85.69C52.71 79.21 51.71 72.1 51.71 64.62C51.71 54.19 53.91 44.4 57.92 36.01C57.53 36.1 57.15 36.16 56.8 36.2C52.88 44.66 50.8 54.48 50.8 64.62L50.81 64.61ZM40.79 90.91C41.04 90.94 41.64 90.87 42.19 90.8C44.22 90.55 47.74 90.12 51.31 91.81C51.38 91.83 51.45 91.86 51.51 91.9C52.08 92.18 52.65 92.52 53.22 92.92H53.24C56.46 95.25 58.88 98.48 61.45 101.91C62.1 102.78 62.77 103.66 63.45 104.54C63.47 104.56 63.5 104.55 63.52 104.58C65.3 106.79 67.23 108.79 69.32 110.57C69.55 110.75 69.77 110.93 69.97 111.09C69.98 111.1 69.98 111.12 69.99 111.13C73.48 114 77.36 116.28 81.61 117.93C81.66 117.95 81.7 117.98 81.73 118.01C82.43 117.87 83.16 117.68 83.89 117.42C81.35 116.41 79.07 115.13 77.08 113.63C75.44 112.5 73.85 111.16 72.34 109.49C68.35 105.06 67.74 101.29 68.03 96.27C68.04 96.1 68.05 95.93 68.06 95.77C67.09 95.74 66.13 95.55 65.31 95.16C63.6 94.36 62.7 92.87 62.53 91C62.34 89.01 62.98 87.48 64.13 86.48C64.2 86.42 64.28 86.37 64.36 86.31C64.19 85.7 64.51 85.29 64.72 85.05C64.78 84.98 64.88 84.86 64.88 84.82C64.88 84.82 64.88 84.8 64.86 84.78C64.85 84.77 64.75 84.72 64.52 84.75C63.77 84.82 62.58 85.45 62.01 86.27C61.17 87.48 60.5 90.07 60.49 90.09C60.46 90.19 60.4 90.27 60.31 90.32C60.26 90.35 60.2 90.36 60.15 90.36C60.11 90.36 60.06 90.36 60.02 90.33L58.78 89.83C58.78 90.12 58.78 90.42 58.77 90.72C58.74 92.04 58.66 93.62 59.1 94.7C60.03 96.99 62.23 98.97 62.25 98.99C62.4 99.11 62.34 99.24 62.19 99.12C62.08 99.03 59.55 96.98 58.55 94.76C58 93.54 58.03 92.1 58.05 90.7C58.07 89.53 58.1 88.43 57.76 87.67C57.34 86.73 56.37 86.62 55.34 86.5C54.69 86.42 54.07 86.35 53.57 86.06C52.76 85.59 52.1 84.75 51.72 84.2C51.5 84.7 51.21 85.55 51.16 86.65C51.07 88.51 51.72 90.22 51.73 90.24C51.8 90.42 51.71 90.63 51.53 90.7C51.35 90.77 51.14 90.68 51.07 90.5C51.06 90.47 49.66 87.11 46.91 87.38C44.55 87.61 41.92 89.35 41.06 90.5C40.91 90.7 40.86 90.83 40.84 90.9L40.79 90.91ZM68.53 93.2C70.34 93.2 72.26 91.73 72.64 89.4C73.12 86.46 71.77 84.37 71.4 84.7C71.37 84.73 72.01 85.42 71.72 86.86C71.51 87.89 70.73 88.93 69.42 88.65C68.89 88.54 68.73 87.6 67.89 87.6C66.24 87.6 65.26 88.56 65.26 90.21C65.26 91.86 66.73 93.2 68.54 93.2H68.53ZM17.29 243.96H17.97V238.54H21.37V243.96H22.05V237.91H17.28V243.96H17.29ZM30.02 239.85C30.02 241.15 28.93 241.83 27.64 241.83H26.17V243.96H25.49V237.91H27.75C29.11 237.91 30.01 238.64 30.01 239.84L30.02 239.85ZM29.33 239.85C29.33 238.99 28.68 238.54 27.71 238.54H26.18V241.2H27.67C28.67 241.2 29.33 240.66 29.33 239.85ZM33.67 242.93V237.91H32.99V243.96H33.66L37.26 238.94V243.96H37.93V237.91H37.28L33.67 242.93ZM44.26 241.21L42.06 237.91H41.37V243.96H42.04V239.07L44.24 242.3H44.27L46.47 239.06V243.96H47.15V237.91H46.46L44.26 241.21ZM56.49 240.93C56.49 242.6 55.24 244.06 53.4 244.06C51.56 244.06 50.32 242.62 50.32 240.93C50.32 239.24 51.57 237.8 53.41 237.8C55.25 237.8 56.49 239.24 56.49 240.93ZM55.78 240.93C55.78 239.56 54.78 238.43 53.4 238.43C52.02 238.43 51.03 239.54 51.03 240.93C51.03 242.32 52.03 243.43 53.41 243.43C54.79 243.43 55.78 242.32 55.78 240.93ZM64.18 239.84C64.18 241.14 63.09 241.82 61.8 241.82H60.33V243.95H59.65V237.9H61.91C63.27 237.9 64.17 238.63 64.17 239.83L64.18 239.84ZM63.49 239.84C63.49 238.98 62.84 238.53 61.87 238.53H60.34V241.19H61.83C62.83 241.19 63.49 240.65 63.49 239.84ZM69.93 243.42C68.6 243.42 67.59 242.32 67.59 240.92C67.59 239.52 68.59 238.42 69.93 238.42C70.75 238.42 71.32 238.77 71.83 239.25L72.28 238.77C71.68 238.2 71.04 237.79 69.94 237.79C68.16 237.79 66.88 239.21 66.88 240.92C66.88 242.63 68.17 244.05 69.91 244.05C71.01 244.05 71.7 243.66 72.33 243.02L71.88 242.54C71.3 243.09 70.76 243.41 69.93 243.41V243.42ZM80.28 237.9H79.4L75.93 241.51V237.9H75.25V243.95H75.93V242.33L77.22 241.03L79.54 243.96H80.39L77.69 240.56L80.28 237.92V237.9ZM83.86 242.92V237.9H83.18V243.95H83.85L87.45 238.93V243.95H88.12V237.9H87.47L83.86 242.92ZM92.24 241.21H95.54V240.59H92.24V238.53H95.93V237.91H91.56V243.96H95.97V243.34H92.24V241.22V241.21ZM107.91 239.84C107.91 241.14 106.82 241.82 105.53 241.82H104.06V243.95H103.38V237.9H105.64C107 237.9 107.9 238.63 107.9 239.83L107.91 239.84ZM107.22 239.84C107.22 238.98 106.57 238.53 105.6 238.53H104.07V241.19H105.56C106.56 241.19 107.22 240.65 107.22 239.84ZM111.56 241.21H114.86V240.59H111.56V238.53H115.25V237.91H110.88V243.96H115.29V243.34H111.56V241.22V241.21ZM121.24 240.85C121.79 240.65 122.35 240.24 122.35 239.43C122.35 238.5 121.51 237.81 120.31 237.81C119.35 237.81 118.72 238.1 118.12 238.61L118.52 239.08C119.05 238.61 119.62 238.4 120.3 238.4C121.09 238.4 121.66 238.86 121.66 239.48C121.66 240.2 121.05 240.62 120.18 240.62H119.51V241.18H120.18C121.1 241.18 121.81 241.51 121.81 242.29C121.81 243.01 121.14 243.46 120.4 243.46C119.53 243.46 118.89 243.17 118.28 242.6L117.87 243.08C118.58 243.73 119.35 244.06 120.39 244.06C121.65 244.06 122.51 243.3 122.51 242.34C122.51 241.54 121.96 241.07 121.24 240.85ZM126.29 242.92V237.9H125.61V243.95H126.27L129.87 238.93V243.95H130.54V237.9H129.89L126.28 242.92H126.29ZM138.71 243.33H139.5L139.4 245.3H138.83V243.95H133.92L133.8 245.3H133.22V243.33H133.84C134.42 242.41 134.76 240.92 134.76 238.96V237.91H138.72V243.33H138.71ZM138.03 238.53H135.41V239.32C135.41 240.88 135.11 242.51 134.61 243.34H138.03V238.54V238.53ZM142.91 241.22H146.21V240.6H142.91V238.54H146.6V237.92H142.23V243.97H146.64V243.35H142.91V241.23V241.22ZM153.91 240.6H150.42V237.91H149.74V243.96H150.42V241.24H153.91V243.96H154.59V237.91H153.91V240.6ZM162.85 237.91H162.17V243.33H158.71V237.91H158.03V243.96H162.96V245.31H163.53L163.63 243.34H162.84V237.92L162.85 237.91ZM167.05 242.93V237.91H166.37V243.96H167.04L170.64 238.94V243.96H171.31V237.91H170.66L167.05 242.93ZM175.43 242.93V237.91H174.75V243.96H175.42L179.02 238.94V243.96H179.69V237.91H179.04L175.43 242.93ZM76.71 220.06H119.46V218.92H76.71V220.06Z" fill="#C09973"/>
</g>
<defs>
<clipPath id="clip0_3_795">
<rect width="197.44" height="245.31" fill="white"/>
</clipPath>
</defs>
</svg>
