<svg width="336" height="95" viewBox="0 0 336 95" fill="none" xmlns="http://www.w3.org/2000/svg">
<g clip-path="url(#clip0_3_986)">
<path d="M120.04 24.27L124.05 12.52H124.61L119.66 26.13C119.01 28.18 118.16 29.45 117.17 29.45C117.04 29.45 116.88 29.43 116.75 29.37V28.24C116.86 28.3 117.02 28.32 117.15 28.32C117.92 28.32 118.84 27.61 119.28 26.13L114.33 12.52H115.77L120.05 24.27H120.04ZM134.71 12.54C132.58 12.54 130.43 14.61 130.43 19.04C130.43 23.47 131.93 25.92 134.71 25.92C136.78 25.92 138.35 24.83 138.89 23.01L139.2 23.09C138.59 25.16 136.75 26.2 134.69 26.2C131.64 26.2 128.82 23.77 128.82 19.05C128.82 14.74 131.98 12.26 134.76 12.26C135.83 12.26 136.85 12.62 137.6 13.41L137.96 12.28H138.19C138.29 13.58 138.69 15.21 139.3 16.48L139.17 16.54C138.48 15.75 137.92 14.8 137.46 13.88C136.69 13 135.7 12.56 134.7 12.56L134.71 12.54ZM151.06 21.63H145.81L144.33 25.94H143.81L148.76 12.33H149.14L154.09 25.94H152.65L151.06 21.63ZM145.92 21.3H150.94L148.37 14.23L145.92 21.3ZM168.22 30.18C167.84 28.97 167.51 27.82 167.51 26.71C167.51 26.46 167.53 26.19 167.57 25.94H160.27C160.31 26.21 160.33 26.48 160.33 26.74C160.33 27.85 160 28.98 159.64 30.17H159.51C159.51 28.58 159.49 27.1 158.9 25.63L159.36 25.61C161.14 25.61 163.25 20.61 163.25 16.26C163.25 14.96 163.06 13.69 162.6 12.66V12.53H167.05V25.64H168.99C168.4 27.12 168.38 28.59 168.38 30.18H168.25H168.22ZM163.7 13.88C163.7 19.32 162.17 24.54 160.12 25.63H165.6V12.84H163.68C163.7 13.18 163.7 13.53 163.7 13.88ZM175.01 12.52H176.45V17.41H178.1C181.45 17.41 183.22 19.61 183.22 21.78C183.22 23.95 181.57 25.94 178.1 25.94H175.01V12.51V12.52ZM176.45 17.73V25.61H178.1C180.38 25.61 181.51 23.65 181.51 21.7C181.51 19.75 180.36 17.73 178.1 17.73H176.45ZM198.13 17.73C197 16.14 196.04 14.53 195.43 12.84H190.52V18.86H192.11C195.41 18.86 197.06 20.62 197.06 22.39C197.06 24.16 195.41 25.94 192.09 25.94H189.08V12.51H196.73C197.02 14.24 197.57 15.96 198.26 17.69L198.13 17.73ZM190.52 19.19V25.61H192.19C194.34 25.61 195.41 24.02 195.41 22.41C195.41 20.8 194.34 19.19 192.19 19.19H190.52ZM209.54 21.62H204.29L202.81 25.93H202.29L207.24 12.32H207.62L212.57 25.93H211.13L209.54 21.62ZM204.4 21.29H209.42L206.85 14.22L204.4 21.29ZM125.05 67C119.07 67 113.84 62.48 113.84 54.05C113.84 45.62 119.07 41.1 125.05 41.1C131.03 41.1 136.3 45.62 136.3 54.05C136.3 62.48 131.07 67 125.05 67ZM125.05 41.59C119.61 41.59 116.83 45.86 116.83 54.05C116.83 62.24 119.61 66.51 125.05 66.51C130.49 66.51 133.31 62.24 133.31 54.05C133.31 45.86 130.5 41.59 125.05 41.59ZM166.37 51.31C164.8 48.68 163.45 45.69 162.63 42.24H157.68V66.55H155.01V42.24H150.06C149.24 45.69 147.89 48.68 146.32 51.31L146.07 51.24C146.82 48.43 147.49 45.26 147.64 41.63H165.04C165.18 45.26 165.86 48.43 166.61 51.24L166.36 51.31H166.37ZM177.83 41.63H184.16C189.89 41.63 192.59 44.94 192.59 48.32C192.59 51.7 189.67 55.33 184.16 55.33H180.49V66.54H177.82V41.63H177.83ZM180.5 42.24V54.73H183.85C187.73 54.73 189.72 51.6 189.72 48.47C189.72 45.34 187.76 42.24 183.85 42.24H180.5ZM211.78 58.54H202.03L199.29 66.55H198.33L207.51 41.28H208.22L217.4 66.55H214.73L211.78 58.54ZM202.24 57.93H211.56L206.79 44.8L202.23 57.93H202.24ZM243.63 74.41C242.92 72.17 242.31 70.03 242.31 67.97C242.31 67.51 242.35 67.01 242.42 66.55H228.86C228.93 67.05 228.97 67.55 228.97 68.04C228.97 70.1 228.36 72.2 227.69 74.41H227.44C227.44 71.46 227.4 68.72 226.3 65.98L227.15 65.94C230.46 65.94 234.37 56.65 234.37 48.57C234.37 46.15 234.01 43.8 233.16 41.88V41.63H241.42V65.97H245.01C243.91 68.71 243.87 71.45 243.87 74.4H243.62L243.63 74.41ZM235.23 44.16C235.23 54.27 232.38 63.95 228.58 65.97H238.76V42.23H235.2C235.24 42.87 235.24 43.51 235.24 44.15L235.23 44.16ZM269.96 53.41H259.07V66.54H256.4V41.63H259.07V52.8H269.96V41.63H272.63V66.54H269.96V53.41ZM295.73 67C289.75 67 284.52 62.48 284.52 54.05C284.52 45.62 289.75 41.1 295.73 41.1C301.71 41.1 306.98 45.62 306.98 54.05C306.98 62.48 301.75 67 295.73 67ZM295.73 41.59C290.29 41.59 287.51 45.86 287.51 54.05C287.51 62.24 290.29 66.51 295.73 66.51C301.17 66.51 303.99 62.24 303.99 54.05C303.99 45.86 301.18 41.59 295.73 41.59ZM334.2 48.85C332.21 46.68 330.68 44.47 329.54 42.23H321.03V52.8H329.32V53.4H321.03V65.93H330.67C331.95 62.87 333.62 59.84 335.76 56.86L336.01 56.93C334.66 60.03 333.59 63.23 333.09 66.54H318.36V41.63H331.95C332.27 44.05 333.16 46.4 334.44 48.75L334.19 48.86L334.2 48.85ZM46.0299 94.63C42.6599 94.63 39.3999 94.25 36.3499 93.49C36.1999 93.45 36.1099 93.3 36.1499 93.15C36.1899 93 36.3399 92.91 36.4899 92.95C39.4999 93.69 42.7099 94.07 46.0399 94.07C56.8199 94.07 66.5799 89.45 73.5299 81.07C73.6299 80.95 73.7999 80.94 73.9199 81.03C74.0399 81.13 74.0499 81.3 73.9599 81.42C66.8999 89.93 56.9799 94.62 46.0399 94.62L46.0299 94.63ZM32.1699 92.16C32.1699 92.16 32.0999 92.16 32.0699 92.14C26.4599 89.97 21.6499 86.42 17.7799 81.6C17.6799 81.48 17.6999 81.31 17.8199 81.21C17.9399 81.11 18.1099 81.13 18.2099 81.25C22.0199 85.99 26.7499 89.48 32.2599 91.62C32.3999 91.68 32.4699 91.84 32.4199 91.98C32.3799 92.09 32.2699 92.16 32.1599 92.16H32.1699ZM46.3099 90.63C45.3699 90.63 43.2299 90.51 42.2999 90.26C42.1499 90.22 42.0599 90.07 42.0999 89.92C42.1399 89.77 42.2899 89.68 42.4399 89.72C43.3099 89.95 45.4199 90.07 46.3099 90.07C55.4699 90.07 62.4499 85.93 67.0499 77.78C67.5999 76.81 68.1199 75.76 68.5999 74.67C68.6599 74.53 68.8299 74.47 68.9699 74.53C69.1099 74.59 69.1699 74.76 69.1099 74.9C68.6199 76.01 68.0899 77.07 67.5299 78.06C62.8199 86.41 55.6799 90.64 46.3099 90.64V90.63ZM37.9799 89.36C37.9799 89.36 37.9199 89.36 37.8899 89.35C32.2399 87.47 27.7299 83.51 24.4899 77.58C23.9499 76.59 23.4299 75.53 22.9599 74.43C22.8999 74.29 22.9599 74.13 23.1099 74.07C23.2499 74.01 23.4099 74.07 23.4699 74.22C23.9299 75.3 24.4399 76.34 24.9799 77.32C28.1599 83.12 32.5599 86.99 38.0699 88.83C38.2199 88.88 38.2899 89.04 38.2499 89.18C38.2099 89.3 38.0999 89.37 37.9899 89.37L37.9799 89.36ZM71.1799 68.34C71.1799 68.34 71.1299 68.34 71.1099 68.34C70.9599 68.3 70.8699 68.15 70.9099 68C71.1099 67.24 71.2999 66.46 71.4699 65.67C72.4699 61.07 72.9799 55.96 72.9799 50.47C72.9799 38.19 70.3299 9.61 45.8299 9.61C36.8999 9.61 29.9799 13.86 25.2699 22.23C21.3299 29.24 19.1599 38.96 19.1599 49.6C19.1599 55.67 19.7499 61.29 20.9099 66.3C20.9399 66.45 20.8499 66.6 20.6999 66.63C20.5499 66.66 20.3999 66.57 20.3699 66.42C19.1999 61.36 18.5999 55.7 18.5999 49.59C18.5999 38.86 20.7899 29.04 24.7799 21.95C29.5899 13.39 36.6699 9.05 45.8199 9.05C70.8199 9.05 73.5199 38.01 73.5199 50.46C73.5199 55.98 73.0099 61.14 71.9999 65.78C71.8299 66.57 71.6399 67.36 71.4399 68.13C71.4099 68.25 71.2899 68.34 71.1699 68.34H71.1799ZM10.2399 66.55C10.1199 66.55 10.0099 66.47 9.96992 66.35C8.52992 61.31 7.79992 55.88 7.79992 50.21C7.79992 42.26 9.41992 34.57 12.4899 27.93C12.5199 27.86 12.7999 27.57 12.9299 27.64C13.0699 27.71 13.1499 27.82 13.0799 27.96C9.97992 34.57 8.34992 42.26 8.34992 50.21C8.34992 55.83 9.06992 61.21 10.4999 66.2C10.5399 66.35 10.4599 66.5 10.3099 66.54C10.2799 66.54 10.2599 66.55 10.2299 66.55H10.2399ZM81.9199 65.47C81.9199 65.47 81.8699 65.47 81.8399 65.46C81.6899 65.42 81.6099 65.26 81.6499 65.12C83.0699 60.28 83.7899 55.14 83.7899 49.84C83.7899 42.86 82.5899 36.3 80.2199 30.32L80.1699 30.19C80.1099 30.05 80.2799 30.11 80.4199 30.05C80.5599 29.99 80.6299 29.84 80.6899 29.98C80.7199 30.05 80.7499 30.13 80.7799 30.21C83.1499 36.23 84.3599 42.83 84.3599 49.84C84.3599 55.19 83.6299 60.38 82.1999 65.27C82.1599 65.39 82.0499 65.47 81.9299 65.47H81.9199ZM77.8999 25.07C77.7999 25.07 77.7099 25.02 77.6599 24.93C77.4699 24.59 77.2699 24.25 77.0799 23.92C76.6799 23.26 76.2599 22.6 75.8399 21.97C75.7499 21.84 75.7899 21.67 75.9099 21.58C76.0399 21.49 76.2099 21.53 76.2999 21.65C76.7299 22.29 77.1599 22.96 77.5599 23.63C77.7599 23.97 77.9599 24.31 78.1499 24.65C78.2299 24.78 78.1799 24.95 78.0399 25.03C77.9999 25.05 77.9499 25.07 77.8999 25.07ZM16.6099 21.59C16.5599 21.59 16.4999 21.57 16.4499 21.54C16.3199 21.45 16.2899 21.28 16.3799 21.15C20.7799 14.87 26.6499 10.22 33.3599 7.7C34.5499 7.25 37.6199 6.02001 40.2899 4.32C42.8499 2.69 44.9799 0.740005 44.9999 0.720005L45.6999 0.0800049C45.8099 -0.0199951 45.9799 -0.0199951 46.0899 0.0800049L46.7599 0.760005C46.7599 0.760005 48.7299 2.76 51.3399 4.37C53.7999 5.89 56.9399 7.03 58.6299 7.64C65.2599 10.04 71.0699 14.46 75.4299 20.43C75.5199 20.55 75.4899 20.73 75.3699 20.82C75.2499 20.91 75.0699 20.88 74.9799 20.76C70.6799 14.88 64.9599 10.53 58.4299 8.17C56.7199 7.55 53.5399 6.4 51.0399 4.85C48.4099 3.22 46.3799 1.17 46.3599 1.15L45.8799 0.660005L45.3799 1.12C45.3799 1.12 43.1999 3.12001 40.5899 4.78C37.8699 6.51 34.7599 7.75 33.5499 8.21C26.9499 10.69 21.1699 15.28 16.8299 21.46C16.7799 21.54 16.6899 21.58 16.5999 21.58L16.6099 21.59ZM51.3099 92.51C51.3999 92.5 59.8899 91.12 66.0699 84.24C69.2199 80.74 69.8699 78.82 69.2399 74.91L69.1399 74.33C68.7499 71.94 68.6099 71.13 69.6599 69.95C70.1799 69.36 70.6199 68.98 70.9699 68.66C71.4399 68.24 71.7799 67.94 71.9299 67.48C72.0699 67.06 71.9799 66.7 71.9099 66.41C71.8499 66.14 71.8099 65.99 71.8999 65.87C71.9099 65.86 71.9899 65.82 72.1699 65.84C72.7599 65.9 73.6799 66.38 74.1199 67.02C74.7699 67.96 75.2999 69.97 75.2999 69.99C75.3199 70.07 75.3699 70.13 75.4399 70.17C75.5099 70.21 75.5899 70.21 75.6699 70.18L76.8199 69.72C76.9599 69.66 77.0299 69.5 76.9699 69.36C76.9099 69.22 76.7499 69.15 76.6099 69.21L75.7499 69.55C75.5699 68.93 75.1199 67.51 74.5699 66.71C73.9899 65.87 72.7899 65.29 72.0699 65.29H72.0599C71.6999 65.29 71.5199 65.44 71.4399 65.57C71.2199 65.9 71.2999 66.25 71.3799 66.55C71.4399 66.81 71.4999 67.05 71.4099 67.31C71.2999 67.63 71.0399 67.86 70.5999 68.25C70.2399 68.57 69.7899 68.97 69.2499 69.58C68.0299 70.96 68.1899 71.97 68.5999 74.42L68.6899 75C69.2999 78.75 68.6999 80.49 65.6599 83.87C59.6099 90.59 51.3099 91.95 51.2299 91.96C51.0799 91.98 50.9699 92.13 50.9999 92.28C51.0199 92.42 51.1399 92.52 51.2699 92.52C51.2799 92.52 51.2999 92.52 51.3099 92.52V92.51ZM68.0499 87.12C72.3699 83.79 74.4499 80.82 76.2899 78.19C77.7799 76.06 79.0699 74.22 81.2399 72.66C84.2999 70.46 87.6399 70.87 89.4299 71.1C90.4299 71.22 91.0399 71.3 91.1399 70.81C91.1899 70.58 91.0999 70.31 90.8599 69.99C90.1499 69.03 87.9899 67.54 85.9299 67.34C84.6299 67.21 83.6899 67.9 83.0599 68.63C83.1199 68.22 83.1499 67.77 83.1199 67.3C83.0399 65.71 82.4099 64.75 82.3899 64.71C82.3399 64.63 82.2499 64.57 82.1499 64.59C82.0499 64.59 81.9699 64.65 81.9199 64.73C81.9199 64.74 81.2599 65.89 80.4199 66.38C80.1399 66.55 79.7099 66.59 79.2599 66.65C78.4299 66.75 77.3899 66.87 76.9399 67.89C76.6299 68.6 76.6399 69.51 76.6599 70.48C76.6799 71.5 76.6199 72.53 76.3299 73.39C75.5199 75.75 73.9399 76.93 73.9199 76.94C73.7999 77.04 73.8899 77.1 74.0099 77C74.0899 76.93 76.0599 75.33 76.8399 73.61C77.2699 72.67 77.2499 71.54 77.2199 70.46C77.1999 69.55 77.1799 68.7 77.4499 68.11C77.7699 67.38 78.5299 67.29 79.3299 67.2C79.8399 67.14 80.3199 67.09 80.6999 66.86C81.3299 66.49 81.8399 65.84 82.1399 65.42C82.3099 65.81 82.5299 66.47 82.5799 67.32C82.6499 68.77 82.1399 70.1 82.1399 70.11C82.0899 70.25 82.1499 70.41 82.2999 70.47C82.4399 70.52 82.5999 70.46 82.6599 70.32C82.6699 70.29 83.7599 67.69 85.8899 67.89C87.7199 68.07 89.7699 69.42 90.4299 70.31C90.5399 70.46 90.5899 70.56 90.5999 70.62C90.4099 70.64 89.9399 70.59 89.5099 70.53C87.6399 70.3 84.1699 69.86 80.9299 72.19C78.6799 73.8 77.3699 75.68 75.8499 77.85C74.0299 80.44 71.9799 83.38 67.7299 86.66C67.6099 86.75 67.5899 86.93 67.6799 87.05C67.7299 87.12 67.8199 87.16 67.8999 87.16C67.9599 87.16 68.0199 87.14 68.0699 87.1L68.0499 87.12ZM15.6999 70.16C15.7699 70.12 15.8199 70.06 15.8399 69.98C15.8399 69.96 16.3699 67.95 17.0199 67.01C17.4599 66.38 18.3799 65.89 18.9699 65.83C19.1499 65.81 19.2299 65.85 19.2399 65.86C19.2499 65.88 19.2599 65.89 19.2599 65.89C19.2599 65.92 19.1799 66.01 19.1299 66.07C18.9699 66.26 18.6899 66.59 18.8599 67.09C18.9099 67.24 19.0699 67.31 19.2099 67.27C19.3599 67.22 19.4299 67.06 19.3899 66.92C19.3199 66.72 19.3899 66.62 19.5599 66.43C19.7099 66.25 19.9699 65.95 19.6999 65.55C19.6199 65.42 19.4399 65.27 19.0799 65.27H19.0699C18.3499 65.27 17.1499 65.85 16.5699 66.69C16.0199 67.49 15.5699 68.91 15.3899 69.53L14.5299 69.19C14.3899 69.13 14.2299 69.2 14.1699 69.34C14.1099 69.48 14.1799 69.64 14.3199 69.7L15.4699 70.16C15.4699 70.16 15.5399 70.18 15.5699 70.18C15.6099 70.18 15.6599 70.18 15.6999 70.15V70.16ZM35.0799 91.3C35.1399 91.16 35.0799 91 34.9399 90.93C31.7399 89.54 28.3799 87.91 25.4799 84.68C22.4999 81.36 22.0499 78.65 22.2699 74.81C22.2699 74.65 22.2899 74.49 22.2999 74.35C22.3099 74.2 22.1999 74.06 22.0399 74.05C21.8899 74.04 21.7499 74.15 21.7399 74.31C21.7299 74.46 21.7199 74.62 21.7099 74.78C21.4899 78.68 21.9599 81.61 25.0599 85.05C28.0399 88.36 31.4599 90.02 34.7099 91.44C34.7499 91.46 34.7799 91.46 34.8199 91.46C34.9299 91.46 35.0299 91.4 35.0699 91.29L35.0799 91.3ZM23.2699 86.69C23.3599 86.57 23.3399 86.39 23.2199 86.3C22.1999 85.5 20.6999 84.28 19.5199 82.9C18.4899 81.7 17.5299 80.42 16.6099 79.18C14.6199 76.52 12.7299 74 10.2299 72.21C6.98992 69.88 3.51992 70.31 1.64992 70.55C1.22992 70.6 0.759918 70.66 0.559918 70.64C0.579918 70.58 0.619918 70.48 0.729918 70.33C1.38992 69.44 3.43992 68.08 5.26992 67.91C7.39992 67.7 8.48992 70.31 8.49992 70.34C8.55992 70.48 8.71992 70.55 8.85992 70.49C8.99992 70.43 9.06992 70.27 9.01992 70.13C9.01992 70.12 8.50992 68.79 8.57992 67.34C8.61992 66.48 8.83992 65.83 9.01992 65.44C9.31992 65.87 9.82992 66.52 10.4599 66.88C10.8399 67.1 11.3199 67.16 11.8299 67.22C12.6299 67.31 13.3799 67.4 13.7099 68.13C13.9699 68.72 13.9599 69.58 13.9399 70.48C13.9199 71.56 13.8899 72.69 14.3199 73.63C15.0999 75.35 17.0699 76.95 17.1499 77.02C17.2699 77.12 17.3199 77.02 17.1999 76.92C17.1799 76.9 15.4799 75.37 14.7499 73.59C14.4099 72.75 14.4699 71.52 14.4899 70.5C14.5099 69.53 14.5299 68.62 14.2099 67.91C13.7599 66.89 12.7199 66.77 11.8899 66.67C11.4399 66.62 11.0199 66.57 10.7299 66.4C9.88992 65.91 9.22992 64.76 9.22992 64.75C9.17992 64.67 9.08992 64.61 8.99992 64.61C8.88992 64.61 8.80992 64.65 8.75992 64.73C8.72992 64.77 8.10992 65.73 8.02992 67.32C8.00992 67.79 8.02992 68.24 8.08992 68.65C7.45992 67.93 6.50992 67.24 5.21992 67.36C3.15992 67.56 0.999918 69.05 0.289918 70.01C0.0499185 70.33 -0.0400815 70.59 0.00991848 70.83C0.109918 71.32 0.709918 71.24 1.71992 71.12C3.50992 70.9 6.83992 70.48 9.90992 72.68C12.3399 74.43 14.1999 76.91 16.1699 79.54C17.0999 80.79 18.0699 82.07 19.1099 83.29C20.3199 84.71 21.8499 85.96 22.8899 86.77C22.9399 86.81 22.9999 86.83 23.0599 86.83C23.1399 86.83 23.2199 86.79 23.2799 86.72L23.2699 86.69ZM25.0999 73.46C26.2499 72.59 26.9599 71.04 27.0199 69.31C27.0799 67.27 26.2299 65.33 24.6799 63.99C22.5899 62.18 20.0399 62.2 19.9299 62.2C19.7799 62.2 19.6499 62.33 19.6599 62.48C19.6599 62.63 19.7899 62.75 19.9399 62.75C19.9399 62.75 22.3799 62.73 24.3199 64.4C25.7399 65.63 26.5299 67.41 26.4699 69.28C26.4199 70.84 25.7899 72.23 24.7699 73.01C23.5399 73.95 21.3699 74.12 19.8499 73.41C19.0499 73.03 18.1499 72.23 18.0099 70.65C17.8899 69.28 18.2999 68.25 19.0599 67.58C20.4899 66.33 22.9199 66.76 22.9499 66.76C23.0499 66.78 23.1499 66.74 23.2099 66.66C23.2699 66.58 23.2899 66.48 23.2499 66.38C23.2299 66.33 22.7799 65.22 21.9499 64.68C21.1399 64.16 20.3199 64.01 20.2799 64C20.1299 63.97 19.9899 64.07 19.9599 64.23C19.9299 64.38 20.0299 64.52 20.1899 64.55C20.1899 64.55 20.9399 64.69 21.6499 65.15C22.0399 65.4 22.3399 65.83 22.5199 66.15C21.6499 66.08 19.9099 66.1 18.6899 67.16C17.7999 67.94 17.2999 69.13 17.4499 70.67C17.5899 72.12 18.2799 73.28 19.6099 73.9C20.3099 74.23 21.1299 74.38 21.9399 74.38C23.1099 74.38 24.2799 74.06 25.0999 73.44V73.46ZM10.6799 30.47C10.5599 30.47 10.4499 30.46 10.3799 30.41C10.2799 30.34 10.2399 30.29 10.2299 30C10.2299 29.74 9.82992 28.5 8.20992 27.78C5.96992 26.78 4.16992 24.6 3.25992 22.79C2.33992 20.94 1.55992 15.95 3.84992 12.25C5.52992 9.53 8.43992 8.15 12.4899 8.15C16.5399 8.15 20.3399 9.96 23.6199 13.54C23.7199 13.65 23.7199 13.83 23.5999 13.93C23.4899 14.03 23.3099 14.03 23.2099 13.91C20.0399 10.46 16.4299 8.7 12.4899 8.7C8.54992 8.7 5.89992 9.99 4.31992 12.54C2.16992 16.01 2.89992 20.84 3.74992 22.54C4.70992 24.47 6.50992 26.49 8.41992 27.27C10.1599 27.98 10.5299 29.14 10.6699 29.5C10.7299 29.66 10.7699 29.8 10.7799 29.92C11.0299 29.89 11.4599 29.74 11.6099 29.49C11.9799 28.91 11.4899 28.01 11.4799 28C11.4299 27.91 11.4299 27.8 11.4799 27.71C11.5399 27.62 11.6399 27.58 11.7399 27.59C11.7699 27.59 14.3399 27.87 15.9299 26.3C17.2899 24.96 17.0199 22.74 16.3999 21.6C16.1099 21.07 15.7299 20.87 15.4999 20.96C15.2999 21.04 15.2199 21.35 15.3099 21.76C15.4899 22.6 15.7399 23.75 15.1499 24.48C14.7999 24.91 14.1999 25.13 13.3799 25.13C10.9799 25.13 9.93992 24.02 9.90992 23.98C9.84992 23.9 10.1699 23.98 10.2099 23.89C10.2399 23.8 10.3199 23.74 10.4199 23.72C10.7299 23.66 11.5699 23.4 11.7099 22.92C11.7699 22.72 11.7799 22.51 11.7499 22.33C11.7299 22.35 11.7099 22.37 11.6899 22.39C11.4299 22.63 11.0799 22.75 10.6299 22.72C10.0599 22.69 9.01992 22.16 8.09992 21.07C7.39992 20.23 6.25992 18.43 6.58992 15.77C6.78992 14.18 7.53992 12.95 8.77992 12.21C10.3599 11.27 12.6999 11.19 14.7399 12C16.3099 12.62 18.3999 14.36 20.3299 16.66C20.4299 16.78 20.4099 16.95 20.2999 17.05C20.1799 17.15 20.0099 17.13 19.9099 17.02C18.0299 14.79 16.0199 13.1 14.5399 12.52C12.6499 11.77 10.4999 11.84 9.06992 12.69C7.96992 13.34 7.31992 14.4 7.13992 15.84C6.83992 18.29 7.87992 19.95 8.51992 20.71C9.28992 21.62 10.1899 22.14 10.6499 22.16C10.9399 22.18 11.1599 22.11 11.2999 21.98C11.4999 21.8 11.4999 21.52 11.4999 21.52C11.4999 21.39 11.5899 21.29 11.7099 21.25C11.8299 21.22 11.9599 21.27 12.0199 21.38C12.0399 21.41 12.4999 22.22 12.2299 23.07C12.0599 23.61 11.4999 23.93 11.0599 24.09C11.4399 24.3 12.1599 24.56 13.3799 24.56C14.0299 24.56 14.4799 24.41 14.7199 24.11C15.1399 23.59 14.9199 22.59 14.7699 21.86C14.5899 21.02 14.9499 20.56 15.3099 20.43C15.7599 20.26 16.4199 20.48 16.8899 21.33C17.5999 22.63 17.8899 25.15 16.3199 26.69C14.9499 28.04 13.0099 28.17 12.1399 28.16C12.2899 28.58 12.4099 29.24 12.0599 29.79C11.7799 30.22 11.0999 30.48 10.6499 30.48L10.6799 30.47ZM11.9799 27.96C12.0399 27.82 11.9699 27.66 11.8199 27.6C8.63992 26.36 6.73992 25.18 5.13992 22.21C3.14992 18.52 4.96992 13.5 4.99992 13.45C5.05992 13.31 5.09992 13.23 5.11992 13.19C5.14992 13.14 5.04992 13.22 4.95992 13.41C4.85992 13.62 2.53992 18.53 4.65992 22.46C6.32992 25.57 8.39992 26.84 11.6299 28.11C11.6599 28.12 11.6999 28.13 11.7299 28.13C11.8399 28.13 11.9499 28.06 11.9899 27.95L11.9799 27.96ZM10.9199 24.21C10.9799 24.07 10.9199 23.96 10.7699 23.9C10.7199 23.88 6.04992 21.79 6.04992 17.03C6.04992 14.54 6.92992 12.97 7.66992 12.09C8.46992 11.13 9.27992 10.76 9.28992 10.75C9.42992 10.69 9.37992 10.65 9.23992 10.72C9.08992 10.79 5.51992 12.34 5.49992 17.04C5.47992 22.17 10.5499 24.43 10.5999 24.45C10.6399 24.46 10.6299 24.39 10.6599 24.39C10.7699 24.39 10.8699 24.33 10.9199 24.22V24.21ZM16.2699 23.76C16.2699 22.87 15.3799 21.76 15.2799 21.63C15.1799 21.51 15.0099 21.5 14.8899 21.59C14.7699 21.69 14.7499 21.86 14.8499 21.98C15.0899 22.27 15.7199 23.17 15.7199 23.75C15.7199 24.5 15.4299 26.26 12.7599 26.26C9.77992 26.26 6.88992 23.12 6.85992 23.09C6.75992 22.97 6.69992 22.89 6.67992 22.89C6.67992 22.89 6.67992 22.95 6.78992 23.11C6.89992 23.27 9.51992 26.82 12.7599 26.82C15.9999 26.82 16.2699 24.48 16.2699 23.76ZM80.4199 30.48C79.9799 30.48 79.2899 30.22 79.0099 29.79C78.6599 29.24 78.7799 28.59 78.9299 28.16C78.0399 28.18 76.1199 28.04 74.7499 26.69C73.1799 25.15 73.4799 22.63 74.1799 21.33C74.6499 20.48 75.3099 20.26 75.7599 20.43C76.1199 20.57 76.4799 21.02 76.2999 21.86C76.1399 22.59 75.9199 23.59 76.3499 24.11C76.5899 24.41 77.0399 24.56 77.6899 24.56C78.9099 24.56 79.6199 24.31 80.0099 24.09C79.5699 23.92 79.0099 23.61 78.8399 23.07C78.5799 22.22 79.0299 21.41 79.0499 21.38C79.1099 21.27 79.2399 21.22 79.3599 21.25C79.4799 21.28 79.5699 21.39 79.5699 21.52C79.5699 21.52 79.5699 21.8 79.7699 21.98C79.9099 22.11 80.1299 22.17 80.4199 22.16C80.8799 22.14 81.7899 21.62 82.5499 20.71C83.1999 19.94 84.2299 18.29 83.9299 15.84C83.7499 14.41 83.0999 13.35 81.9999 12.69C80.5699 11.84 78.4199 11.77 76.5299 12.52C75.1899 13.05 73.4399 14.46 71.7099 16.39C71.6099 16.5 71.4299 16.51 71.3199 16.41C71.2099 16.31 71.1999 16.13 71.2999 16.02C73.0799 14.03 74.9099 12.57 76.3299 12.01C78.3699 11.2 80.7099 11.29 82.2899 12.22C83.5299 12.96 84.2899 14.19 84.4799 15.78C84.8099 18.44 83.6799 20.24 82.9699 21.08C82.0499 22.17 81.0199 22.7 80.4399 22.73C79.9899 22.75 79.6299 22.64 79.3799 22.4C79.3599 22.38 79.3399 22.36 79.3199 22.34C79.2999 22.52 79.2999 22.73 79.3599 22.93C79.5099 23.41 80.3399 23.67 80.6499 23.73C80.7399 23.75 80.8199 23.81 80.8599 23.9C80.8899 23.99 81.0599 24 80.9999 24.07C80.9699 24.11 80.0899 25.14 77.6899 25.14C76.8599 25.14 76.2599 24.92 75.9199 24.49C75.3299 23.76 75.5799 22.61 75.7599 21.77C75.8499 21.36 75.7699 21.05 75.5699 20.97C75.3399 20.89 74.9599 21.08 74.6699 21.61C74.0499 22.76 73.7799 24.97 75.1399 26.31C76.7399 27.88 79.3099 27.6 79.3299 27.6C79.4299 27.59 79.5399 27.64 79.5899 27.72C79.6399 27.8 79.6499 27.92 79.5999 28.01C79.5999 28.01 79.0999 28.91 79.4699 29.5C79.6299 29.75 80.0699 29.9 80.3099 29.93C80.3699 29.53 80.7299 29.04 80.8199 28.92C81.1499 28.47 81.7899 27.93 82.7499 27.39C84.6099 26.34 86.3899 24.42 87.3299 22.55C88.2199 20.79 88.9799 16.05 86.8299 12.57C85.2499 10.01 82.4799 8.71 78.5899 8.71C74.6999 8.71 71.3899 10.3 68.3399 13.42C68.2299 13.53 68.0599 13.53 67.9499 13.42C67.8399 13.31 67.8399 13.14 67.9499 13.03C71.1099 9.79 74.6999 8.15 78.5999 8.15C82.6899 8.15 85.6199 9.54 87.3099 12.27C89.3999 15.66 88.9499 20.56 87.8299 22.79C86.8299 24.78 85.1699 26.64 83.0399 27.88C81.6099 28.71 80.8999 29.78 80.8699 30.02C80.8599 30.27 80.8699 30.34 80.7199 30.42C80.6499 30.46 80.5399 30.48 80.4199 30.48ZM79.4599 28.12C82.6899 26.86 84.7499 25.58 86.4299 22.47C88.5499 18.54 86.4299 14.27 86.3399 14.09C86.2799 13.95 86.2299 13.89 86.2299 13.89C86.2099 13.89 86.2599 13.98 86.3099 14.13C86.3199 14.17 87.9299 18.51 85.9399 22.2C84.3399 25.18 82.4299 26.35 79.2599 27.59C79.1199 27.65 79.0499 27.81 79.0999 27.95C79.1399 28.06 79.2499 28.13 79.3599 28.13C79.3899 28.13 79.4299 28.13 79.4599 28.11V28.12ZM80.4299 24.45C80.4799 24.43 85.5799 22.17 85.5799 17.04C85.5799 11.91 81.9599 10.66 81.8099 10.59C81.6699 10.53 81.5899 10.51 81.5899 10.51C81.5899 10.53 81.6899 10.59 81.8299 10.66C81.8299 10.66 82.6399 11.06 83.4399 12.02C84.1799 12.9 85.0199 14.55 85.0199 17.04C85.0199 21.8 80.3299 23.89 80.2799 23.91C80.1399 23.97 80.0899 24.08 80.1499 24.22C80.1899 24.33 80.2999 24.39 80.4099 24.39C80.4499 24.39 80.3899 24.47 80.4199 24.46L80.4299 24.45ZM84.2599 23.13C84.3599 23.01 84.4199 22.91 84.3999 22.9C84.3699 22.89 84.2999 22.99 84.1999 23.11C84.1699 23.14 81.2999 26.27 78.3199 26.27C75.6499 26.27 75.3599 24.52 75.3599 23.76C75.3599 23.17 75.9899 22.28 76.2299 21.99C76.3299 21.87 76.3099 21.7 76.1899 21.6C76.0699 21.5 75.8999 21.52 75.7999 21.64C75.6999 21.76 74.8099 22.88 74.8099 23.77C74.8099 24.49 75.0599 26.83 78.3199 26.83C81.5799 26.83 84.1399 23.29 84.2599 23.14V23.13ZM36.7099 93.36C40.1999 92.46 42.7299 89.82 44.3399 87.91C46.4699 85.37 48.3999 80.14 48.4899 79.91C48.6399 79.44 63.9199 33.18 66.8799 24.29C67.0799 23.7 67.3299 23.07 67.6299 22.44C67.6699 22.35 67.6599 22.25 67.6099 22.17L64.7199 17.9C64.6699 17.82 64.5799 17.77 64.4799 17.78C64.3899 17.78 64.2999 17.83 64.2499 17.91C62.0599 21.53 61.0299 24.83 61.0299 24.86L45.5099 69.34L30.0999 24.87C30.0999 24.87 29.2199 22.03 27.3799 18.77C27.3299 18.68 27.2399 18.63 27.1399 18.63C27.0399 18.63 26.9499 18.68 26.8999 18.77L24.0899 23.52C24.0499 23.59 24.0399 23.68 24.0699 23.76C24.1399 23.94 24.1999 24.12 24.2599 24.3C26.7399 31.77 37.4899 63.98 42.0099 77.5C42.0299 77.59 42.0599 77.68 42.0999 77.79C42.1899 78.03 42.3099 78.36 42.3299 78.87L40.3299 84.8C38.3699 89.97 34.4499 91.48 31.5099 91.84C25.1899 92.61 19.5999 90.78 14.8899 86.39C9.12992 81.03 10.3399 72.58 10.3499 72.49C10.3699 72.34 10.2699 72.2 10.1199 72.17C9.96992 72.15 9.82992 72.25 9.79992 72.4C9.78992 72.49 8.52992 81.22 14.5099 86.79C19.3399 91.29 25.0899 93.17 31.5799 92.38C34.6699 92 38.7899 90.41 40.8499 84.98L42.8699 79C42.8699 79 42.8899 78.94 42.8799 78.9C42.8599 78.27 42.7099 77.86 42.6199 77.6C42.5899 77.51 42.5599 77.44 42.5499 77.38C42.5499 77.37 42.5499 77.36 42.5499 77.34C38.0399 63.83 27.2799 31.59 24.7999 24.12C24.7499 23.98 24.6999 23.83 24.6499 23.69L27.1499 19.47C28.7999 22.49 29.5799 25.01 29.5999 25.04L45.2699 70.27C45.3099 70.38 45.4099 70.46 45.5299 70.46C45.6499 70.46 45.7499 70.39 45.7899 70.27L61.5699 25.03C61.5699 25.03 62.5199 21.98 64.5199 18.57L67.0699 22.34C66.7899 22.95 66.5499 23.54 66.3599 24.11C63.3999 33 48.1299 79.27 47.9799 79.72C47.9599 79.77 45.9999 85.08 43.9299 87.54C42.3799 89.39 39.9199 91.95 36.5899 92.81C28.1099 94.99 21.1499 93.72 14.6899 88.82C6.72992 82.78 8.50992 71.88 8.52992 71.77C8.55992 71.62 8.45992 71.48 8.29992 71.45C8.14992 71.42 8.00992 71.53 7.97992 71.68C7.95992 71.79 6.11992 83.02 14.3499 89.27C18.8899 92.72 23.6699 94.41 29.0199 94.41C31.4599 94.41 34.0199 94.06 36.7299 93.36H36.7099ZM34.2299 93.44C39.4499 92.25 41.9699 87.08 43.0099 84.11C43.0999 83.84 42.9599 83.54 42.6899 83.45C42.4199 83.36 42.1199 83.5 42.0299 83.77C41.0599 86.54 38.7299 91.36 33.9999 92.43C27.7499 93.85 22.2499 92.94 17.1999 89.65C13.5599 87.28 11.4699 84.99 10.4299 82.24C8.75992 77.84 8.84992 74.39 9.09992 71.88C9.12992 71.59 8.91992 71.34 8.63992 71.31C8.35992 71.29 8.09992 71.49 8.06992 71.77C7.79992 74.4 7.70992 78 9.45992 82.61C10.5899 85.58 12.7999 88.02 16.6299 90.52C20.3199 92.93 24.2399 94.12 28.4799 94.12C30.3299 94.12 32.2399 93.89 34.2199 93.44H34.2299ZM19.9899 63.13C19.9899 63.13 22.1699 62.77 24.7999 64.86C26.0799 65.88 23.8499 63.52 22.9299 63.09C22.0099 62.65 19.9899 62.38 19.8999 62.4C19.8099 62.42 19.9899 63.13 19.9899 63.13ZM46.9599 83.3L64.3199 31.14C64.3199 31.14 65.1999 27.59 66.9299 23.49C67.1099 23.07 67.2999 22.64 67.5099 22.22C67.5099 22.2 67.4899 22.19 67.4799 22.17C67.0199 21.26 66.0099 19.91 65.2599 18.9C64.2499 20.44 63.4499 21.89 62.7199 23.98C60.0499 31.59 51.9799 54.86 46.0899 71.85C44.2999 66.74 33.4499 35.8 29.4399 24.37C28.7299 22.35 27.9399 20.49 26.9299 18.96L24.9799 22.58C25.1899 23.11 27.7299 30.67 27.7299 30.67L43.6999 78.76C42.4299 82.44 41.3599 85.53 40.6199 87.68C39.2799 91.58 33.7799 93.65 33.7799 93.65C33.7799 93.65 39.3699 92.45 41.8199 90.31C43.5199 88.82 46.9599 83.31 46.9599 83.31V83.3ZM36.9499 89.81C29.7599 87.21 25.0099 81.48 22.0299 74.34H21.8399C21.5199 81.91 26.3899 88.29 34.3399 91.35C34.5699 91.44 37.2199 89.91 36.9499 89.81ZM25.3199 69.46C25.6899 67.18 24.6399 65.55 24.3599 65.81C24.3399 65.83 24.8299 66.37 24.6099 67.49C24.4499 68.29 23.8399 69.1 22.8199 68.88C22.4099 68.79 22.2799 68.06 21.6299 68.06C20.3499 68.06 19.5799 68.8 19.5799 70.09C19.5799 71.38 20.7199 72.41 22.1299 72.41C23.5399 72.41 25.0299 71.27 25.3299 69.46H25.3199ZM20.8599 16.25L22.7599 14.5C18.6899 11.08 14.8099 9.97001 12.3999 10.3C7.52992 10.98 7.06992 14.59 7.06992 14.59C7.06992 14.59 8.39992 11.38 12.4399 11.38C15.8299 11.38 18.6199 13.45 20.8599 16.24V16.25ZM78.7199 10.3C76.8899 10.06 72.9699 10.92 69.2399 14.01L71.4099 16.13C72.3699 15.02 73.3999 14.04 74.5099 13.27C75.8399 12.35 77.4999 11.64 79.0799 11.64C83.1199 11.64 84.2799 14.9 84.2799 14.9C84.2799 14.9 83.7099 10.98 78.7099 10.31L78.7199 10.3ZM74.3099 25.62C73.5599 24.24 74.5299 21.35 74.5299 21.35C70.3899 15.62 64.8599 11.24 58.1899 8.83C56.3899 8.18001 53.1999 7.02 50.6699 5.45C47.9099 3.74 45.8599 1.65 45.8599 1.65C45.8599 1.65 43.6599 3.67 40.9699 5.38C38.4899 6.96 35.5799 8.21 33.7999 8.87C26.9499 11.45 21.2399 16.21 17.0499 22.42C17.0499 22.42 17.7999 24.15 16.5999 26.05C15.9099 27.15 14.0099 27.7 14.0099 27.7C10.8199 34.28 9.06992 41.99 9.06992 50.2C9.06992 56.1 9.86992 61.7 11.4199 66.8C11.6999 66.88 11.9199 66.93 12.0399 66.94C12.9999 67.03 13.5199 66.54 13.9799 67.99L14.4399 69.44L15.5899 69.9C15.5899 69.9 16.3299 66.85 17.4999 66.13C18.6199 65.44 19.3799 65.39 19.5699 65.96C18.3999 60.68 17.9099 55.06 17.9099 49.58C17.9099 29.95 25.3199 8.33 45.8299 8.33C67.7999 8.33 74.2399 30.2 74.2399 50.45C74.2399 55.56 73.7899 60.73 72.7599 65.59C72.8699 65.64 72.9699 65.69 73.0699 65.77C74.0599 66.58 74.6899 66.67 75.0499 67.84C75.1299 68.1 75.4099 69.73 75.7499 69.72C75.9699 69.72 76.3399 69.48 76.6099 69.41C76.8799 69.34 77.1399 68.05 77.3199 67.8C77.5899 67.41 78.2299 67.3 78.2299 67.3L80.3899 66.78C82.1499 61.57 83.0999 55.84 83.0999 49.82C83.0999 41.79 81.4399 34.25 78.3699 27.8C78.3699 27.8 75.5199 27.8 74.3299 25.61L74.3099 25.62ZM45.7399 6.8C45.0399 6.8 44.4699 6.23 44.4699 5.53C44.4699 4.83001 45.0399 4.26 45.7399 4.26C46.4399 4.26 47.0099 4.83001 47.0099 5.53C47.0099 6.23 46.4399 6.8 45.7399 6.8ZM69.1699 76.17C64.9399 85.1 57.6599 91.34 46.1799 91.34C44.7499 91.34 42.6599 91.11 41.3599 90.93C40.8199 91.2 40.6799 91.26 40.2399 91.45C39.5699 91.74 39.1399 92.4 38.6299 92.61C40.8099 93.06 43.1799 93.31 45.7099 93.31C55.7699 93.31 62.6299 88.96 67.5099 82.43C69.3299 80 68.9199 77.69 69.2099 76.75C69.2099 76.75 69.4399 75.57 69.1599 76.16L69.1699 76.17ZM116.68 81.46H121.87V88.04H121.13V82.14H117.43V88.04H116.69V81.46H116.68ZM125.6 81.46H128.06C129.55 81.46 130.52 82.25 130.52 83.57C130.52 84.99 129.34 85.72 127.94 85.72H126.34V88.04H125.6V81.46ZM127.97 85.04C129.06 85.04 129.77 84.46 129.77 83.57C129.77 82.63 129.06 82.14 128 82.14H126.34V85.04H127.97ZM133.76 81.46H134.5V86.92L138.43 81.46H139.13V88.04H138.4V82.58L134.48 88.04H133.76V81.46ZM142.87 81.46H143.62L146.02 85.05L148.42 81.46H149.17V88.04H148.43V82.71L146.03 86.23H145.99L143.59 82.71V88.03H142.87V81.45V81.46ZM152.61 84.75C152.61 82.94 153.97 81.35 155.97 81.35C157.97 81.35 159.32 82.92 159.32 84.75C159.32 86.58 157.96 88.15 155.96 88.15C153.96 88.15 152.61 86.58 152.61 84.75ZM158.55 84.75C158.55 83.26 157.46 82.03 155.96 82.03C154.46 82.03 153.38 83.23 153.38 84.75C153.38 86.27 154.47 87.47 155.97 87.47C157.47 87.47 158.55 86.27 158.55 84.75ZM162.77 81.46H165.23C166.72 81.46 167.69 82.25 167.69 83.57C167.69 84.99 166.51 85.72 165.11 85.72H163.51V88.04H162.77V81.46ZM165.14 85.04C166.23 85.04 166.94 84.46 166.94 83.57C166.94 82.63 166.23 82.14 165.17 82.14H163.51V85.04H165.14ZM170.63 84.75C170.63 82.89 172.02 81.35 173.96 81.35C175.15 81.35 175.85 81.79 176.51 82.41L176.02 82.94C175.47 82.41 174.84 82.04 173.95 82.04C172.49 82.04 171.4 83.22 171.4 84.76C171.4 86.3 172.5 87.48 173.95 87.48C174.85 87.48 175.44 87.13 176.07 86.53L176.56 87.05C175.87 87.75 175.12 88.17 173.93 88.17C172.03 88.17 170.63 86.68 170.63 84.77V84.75ZM179.73 81.46H180.47V85.39L184.25 81.46H185.21L182.39 84.34L185.33 88.04H184.4L181.87 84.85L180.47 86.27V88.04H179.73V81.46ZM188.36 81.46H189.1V86.92L193.03 81.46H193.74V88.04H193.01V82.58L189.09 88.04H188.37V81.46H188.36ZM197.47 81.46H202.23V82.14H198.22V84.39H201.81V85.07H198.22V87.37H202.28V88.05H197.48V81.47L197.47 81.46ZM210.34 81.46H212.8C214.29 81.46 215.26 82.25 215.26 83.57C215.26 84.99 214.08 85.72 212.68 85.72H211.08V88.04H210.34V81.46ZM212.71 85.04C213.8 85.04 214.51 84.46 214.51 83.57C214.51 82.63 213.8 82.14 212.74 82.14H211.08V85.04H212.71ZM218.5 81.46H223.26V82.14H219.25V84.39H222.84V85.07H219.25V87.37H223.31V88.05H218.51V81.47L218.5 81.46ZM226.11 87.09L226.55 86.57C227.22 87.2 227.91 87.51 228.86 87.51C229.67 87.51 230.39 87.02 230.39 86.24C230.39 85.38 229.62 85.03 228.61 85.03H227.89V84.42H228.61C229.55 84.42 230.22 83.96 230.22 83.18C230.22 82.5 229.6 82.01 228.73 82.01C227.99 82.01 227.37 82.24 226.79 82.75L226.36 82.23C227.02 81.67 227.7 81.36 228.75 81.36C230.06 81.36 230.97 82.1 230.97 83.12C230.97 84 230.37 84.45 229.77 84.67C230.55 84.9 231.15 85.41 231.15 86.29C231.15 87.33 230.22 88.16 228.85 88.16C227.71 88.16 226.88 87.8 226.11 87.1V87.09ZM234.53 81.46H235.27V86.92L239.2 81.46H239.91V88.04H239.18V82.58L235.26 88.04H234.54V81.46H234.53ZM242.81 87.36H243.49C244.12 86.35 244.49 84.74 244.49 82.6V81.45H248.79V87.35H249.65L249.54 89.49H248.92V88.02H243.58L243.45 89.49H242.82V87.35L242.81 87.36ZM248.05 87.36V82.13H245.2V82.99C245.2 84.69 244.87 86.46 244.33 87.36H248.05ZM252.61 81.46H257.37V82.14H253.36V84.39H256.95V85.07H253.36V87.37H257.42V88.05H252.62V81.47L252.61 81.46ZM260.78 81.46H261.52V84.38H265.32V81.46H266.06V88.04H265.32V85.08H261.52V88.04H260.78V81.46ZM275.17 88.04H269.8V81.46H270.54V87.36H274.3V81.46H275.04V87.36H275.9L275.79 89.5H275.17V88.03V88.04ZM278.87 81.46H279.61V86.92L283.54 81.46H284.24V88.04H283.51V82.58L279.59 88.04H278.87V81.46ZM287.98 81.46H288.72V86.92L292.65 81.46H293.36V88.04H292.63V82.58L288.71 88.04H287.99V81.46H287.98Z" fill="white"/>
</g>
<defs>
<clipPath id="clip0_3_986">
<rect width="336.01" height="94.63" fill="white"/>
</clipPath>
</defs>
</svg>
