<svg width="181" height="73" viewBox="0 0 181 73" fill="none" xmlns="http://www.w3.org/2000/svg">
<g clip-path="url(#clip0_3_857)">
<path d="M91.47 50.75C89.66 50.75 87.91 50.54 86.28 50.14C86.2 50.12 86.15 50.04 86.17 49.96C86.19 49.88 86.27 49.83 86.35 49.85C87.96 50.25 89.69 50.45 91.47 50.45C97.25 50.45 102.49 47.97 106.21 43.48C106.26 43.42 106.36 43.41 106.42 43.46C106.48 43.51 106.49 43.61 106.44 43.67C102.65 48.24 97.34 50.75 91.47 50.75ZM84.04 49.43C84.04 49.43 84 49.43 83.99 49.43C80.98 48.26 78.4 46.36 76.33 43.78C76.28 43.72 76.29 43.62 76.35 43.57C76.41 43.52 76.51 43.53 76.56 43.59C78.6 46.13 81.14 48.01 84.1 49.15C84.18 49.18 84.21 49.27 84.19 49.34C84.17 49.4 84.11 49.44 84.05 49.44L84.04 49.43ZM91.62 48.61C91.12 48.61 89.97 48.54 89.47 48.41C89.39 48.39 89.34 48.31 89.36 48.23C89.38 48.15 89.46 48.1 89.54 48.12C90.01 48.24 91.14 48.31 91.62 48.31C96.53 48.31 100.27 46.09 102.74 41.72C103.03 41.2 103.31 40.64 103.57 40.05C103.6 39.97 103.69 39.94 103.77 39.97C103.85 40 103.88 40.09 103.85 40.17C103.59 40.76 103.3 41.33 103 41.86C100.47 46.34 96.64 48.61 91.62 48.61ZM87.15 47.93C87.15 47.93 87.12 47.93 87.1 47.93C84.07 46.92 81.65 44.8 79.91 41.62C79.62 41.09 79.34 40.52 79.09 39.93C79.06 39.85 79.09 39.77 79.17 39.73C79.25 39.7 79.33 39.73 79.37 39.81C79.62 40.39 79.89 40.95 80.18 41.47C81.88 44.58 84.25 46.66 87.2 47.64C87.28 47.67 87.32 47.75 87.29 47.83C87.27 47.89 87.21 47.93 87.15 47.93ZM104.96 36.65C104.96 36.65 104.93 36.65 104.92 36.65C104.84 36.63 104.79 36.55 104.81 36.47C104.92 36.06 105.02 35.64 105.11 35.22C105.65 32.75 105.92 30.01 105.92 27.07C105.92 20.48 104.5 5.16001 91.36 5.16001C86.57 5.16001 82.86 7.44001 80.34 11.93C78.23 15.69 77.07 20.9 77.07 26.61C77.07 29.86 77.39 32.88 78.01 35.57C78.03 35.65 77.98 35.73 77.9 35.75C77.82 35.77 77.74 35.72 77.72 35.64C77.09 32.93 76.77 29.89 76.77 26.62C76.77 20.86 77.95 15.6 80.08 11.8C82.66 7.21001 86.46 4.88001 91.36 4.88001C104.77 4.88001 106.22 20.41 106.22 27.09C106.22 30.05 105.95 32.82 105.41 35.3C105.32 35.73 105.22 36.15 105.11 36.56C105.09 36.63 105.03 36.67 104.97 36.67L104.96 36.65ZM72.28 35.69C72.22 35.69 72.16 35.65 72.14 35.58C71.37 32.88 70.98 29.97 70.98 26.92C70.98 22.66 71.85 18.53 73.5 14.97C73.52 14.93 73.66 14.78 73.74 14.81C73.81 14.84 73.86 14.91 73.82 14.98C72.16 18.52 71.28 22.65 71.28 26.91C71.28 29.92 71.67 32.81 72.43 35.48C72.45 35.56 72.41 35.64 72.33 35.66C72.32 35.66 72.3 35.66 72.29 35.66L72.28 35.69ZM110.72 35.11C110.72 35.11 110.69 35.11 110.68 35.11C110.6 35.09 110.56 35 110.58 34.93C111.34 32.34 111.73 29.58 111.73 26.74C111.73 23 111.08 19.48 109.81 16.27L109.78 16.2C109.75 16.12 109.84 16.16 109.91 16.13C109.99 16.1 110.02 16.02 110.05 16.09L110.1 16.21C111.37 19.44 112.02 22.98 112.02 26.74C112.02 29.61 111.63 32.39 110.86 35.02C110.84 35.08 110.78 35.13 110.72 35.13V35.11ZM108.56 13.44C108.51 13.44 108.46 13.41 108.43 13.36C108.33 13.18 108.22 13 108.12 12.82C107.91 12.46 107.68 12.11 107.45 11.77C107.4 11.7 107.42 11.61 107.49 11.56C107.56 11.51 107.65 11.53 107.7 11.6C107.93 11.94 108.16 12.3 108.38 12.66C108.49 12.84 108.59 13.02 108.7 13.21C108.74 13.28 108.71 13.37 108.64 13.41C108.62 13.42 108.59 13.43 108.57 13.43L108.56 13.44ZM75.69 11.57C75.69 11.57 75.63 11.57 75.6 11.54C75.53 11.49 75.52 11.4 75.56 11.33C77.92 7.96001 81.07 5.47001 84.66 4.11001C85.3 3.87001 86.95 3.21001 88.38 2.30001C89.75 1.43001 90.9 0.380013 90.91 0.370013L91.29 0.0200134C91.35 -0.0299866 91.44 -0.0299866 91.5 0.0200134L91.86 0.380013C91.86 0.380013 92.91 1.45001 94.31 2.32001C95.63 3.13001 97.31 3.74001 98.22 4.07001C101.78 5.36001 104.89 7.73001 107.23 10.93C107.28 11 107.26 11.09 107.2 11.14C107.13 11.19 107.04 11.17 106.99 11.11C104.68 7.96001 101.62 5.62001 98.12 4.36001C97.2 4.03001 95.5 3.41001 94.15 2.58001C92.74 1.71001 91.65 0.610013 91.64 0.600013L91.38 0.340013L91.11 0.590013C91.11 0.590013 89.94 1.66001 88.54 2.55001C87.08 3.48001 85.41 4.14001 84.77 4.39001C81.23 5.72001 78.13 8.18001 75.81 11.5C75.78 11.54 75.73 11.56 75.69 11.56V11.57ZM94.31 49.61C94.31 49.61 98.91 48.86 102.23 45.18C103.92 43.3 104.27 42.28 103.93 40.17L103.88 39.86C103.67 38.58 103.6 38.14 104.16 37.51C104.44 37.2 104.67 36.99 104.86 36.82C105.11 36.6 105.3 36.43 105.38 36.19C105.45 35.97 105.41 35.77 105.37 35.62C105.34 35.48 105.32 35.39 105.37 35.33C105.37 35.33 105.42 35.31 105.51 35.31C105.82 35.34 106.32 35.6 106.55 35.94C106.9 36.44 107.18 37.52 107.18 37.53C107.19 37.57 107.22 37.61 107.26 37.63C107.3 37.65 107.34 37.65 107.38 37.63L107.99 37.38C108.07 37.35 108.1 37.26 108.07 37.19C108.04 37.11 107.95 37.08 107.88 37.11L107.42 37.29C107.32 36.96 107.08 36.19 106.79 35.77C106.48 35.32 105.84 35.01 105.45 35.01C105.25 35.01 105.16 35.09 105.12 35.16C105 35.34 105.05 35.52 105.09 35.69C105.12 35.83 105.15 35.96 105.11 36.1C105.05 36.27 104.91 36.4 104.68 36.6C104.49 36.77 104.25 36.99 103.95 37.31C103.29 38.05 103.38 38.59 103.6 39.9L103.65 40.21C103.97 42.22 103.65 43.16 102.02 44.97C98.78 48.57 94.32 49.3 94.28 49.31C94.2 49.32 94.14 49.4 94.16 49.48C94.17 49.55 94.23 49.61 94.31 49.61ZM103.29 46.72C105.61 44.94 106.72 43.34 107.71 41.93C108.51 40.79 109.2 39.8 110.36 38.97C112 37.79 113.79 38.01 114.75 38.13C115.29 38.2 115.61 38.24 115.67 37.97C115.7 37.84 115.65 37.7 115.52 37.53C115.14 37.02 113.98 36.22 112.87 36.11C112.17 36.04 111.67 36.41 111.33 36.8C111.36 36.58 111.38 36.34 111.36 36.09C111.32 35.24 110.98 34.72 110.97 34.7C110.94 34.66 110.9 34.63 110.84 34.63C110.79 34.63 110.74 34.66 110.72 34.71C110.72 34.71 110.36 35.33 109.91 35.6C109.76 35.69 109.53 35.72 109.29 35.74C108.84 35.79 108.29 35.86 108.05 36.4C107.88 36.78 107.89 37.27 107.9 37.79C107.91 38.34 107.88 38.89 107.72 39.35C107.28 40.61 106.44 41.25 106.43 41.26C106.37 41.31 106.41 41.35 106.48 41.29C106.52 41.25 107.58 40.4 108 39.47C108.23 38.96 108.22 38.36 108.21 37.78C108.21 37.29 108.19 36.84 108.33 36.52C108.5 36.13 108.91 36.08 109.34 36.03C109.61 36 109.87 35.97 110.08 35.85C110.42 35.65 110.69 35.31 110.85 35.08C110.94 35.29 111.06 35.64 111.08 36.1C111.12 36.88 110.85 37.59 110.84 37.6C110.81 37.68 110.84 37.76 110.92 37.79C111 37.82 111.08 37.79 111.11 37.71C111.11 37.7 111.7 36.3 112.84 36.41C113.82 36.5 114.92 37.23 115.28 37.71C115.34 37.79 115.36 37.85 115.37 37.88C115.27 37.89 115.01 37.86 114.79 37.83C113.79 37.71 111.93 37.47 110.19 38.72C108.99 39.59 108.28 40.59 107.47 41.75C106.5 43.14 105.39 44.72 103.11 46.47C103.04 46.52 103.03 46.61 103.08 46.68C103.11 46.72 103.15 46.74 103.2 46.74C103.23 46.74 103.26 46.74 103.29 46.71V46.72ZM75.21 37.63C75.21 37.63 75.28 37.58 75.29 37.53C75.29 37.52 75.57 36.44 75.92 35.94C76.16 35.6 76.65 35.34 76.97 35.31C77.07 35.31 77.11 35.31 77.11 35.32C77.11 35.33 77.11 35.34 77.12 35.34C77.12 35.36 77.08 35.41 77.05 35.43C76.96 35.53 76.81 35.71 76.91 35.98C76.94 36.06 77.02 36.1 77.1 36.07C77.18 36.04 77.22 35.96 77.19 35.88C77.15 35.77 77.19 35.72 77.28 35.62C77.36 35.52 77.5 35.36 77.36 35.15C77.32 35.08 77.22 35 77.03 35C76.64 35 76 35.31 75.69 35.76C75.39 36.19 75.15 36.95 75.06 37.28L74.6 37.1C74.52 37.07 74.44 37.1 74.41 37.18C74.38 37.26 74.41 37.34 74.49 37.37L75.1 37.62C75.1 37.62 75.14 37.63 75.16 37.63C75.18 37.63 75.21 37.63 75.23 37.61L75.21 37.63ZM85.6 48.97C85.63 48.89 85.6 48.81 85.52 48.77C83.81 48.02 82 47.15 80.45 45.42C78.85 43.64 78.61 42.19 78.73 40.13C78.73 40.04 78.74 39.96 78.75 39.88C78.75 39.8 78.69 39.73 78.61 39.72C78.53 39.72 78.46 39.78 78.45 39.86C78.45 39.94 78.44 40.02 78.43 40.11C78.31 42.2 78.56 43.77 80.23 45.62C81.83 47.39 83.66 48.28 85.4 49.04C85.42 49.04 85.44 49.05 85.46 49.05C85.52 49.05 85.57 49.02 85.6 48.96V48.97ZM79.26 46.5C79.31 46.44 79.3 46.34 79.23 46.29C78.68 45.86 77.88 45.21 77.25 44.46C76.7 43.81 76.18 43.13 75.69 42.46C74.62 41.03 73.61 39.68 72.27 38.72C70.53 37.47 68.67 37.7 67.67 37.83C67.44 37.86 67.19 37.89 67.09 37.88C67.09 37.85 67.12 37.79 67.18 37.71C67.54 37.23 68.63 36.5 69.62 36.41C70.76 36.3 71.35 37.7 71.35 37.71C71.38 37.79 71.47 37.82 71.54 37.79C71.62 37.76 71.65 37.67 71.62 37.6C71.62 37.6 71.35 36.88 71.38 36.1C71.4 35.64 71.52 35.29 71.61 35.08C71.77 35.31 72.05 35.66 72.38 35.85C72.59 35.97 72.84 36 73.12 36.03C73.55 36.08 73.95 36.13 74.13 36.52C74.27 36.84 74.26 37.3 74.25 37.78C74.24 38.36 74.23 38.96 74.46 39.47C74.88 40.39 75.93 41.25 75.98 41.29C76.04 41.34 76.07 41.29 76.01 41.24C76 41.24 75.09 40.41 74.7 39.45C74.52 39 74.55 38.34 74.56 37.79C74.57 37.27 74.58 36.78 74.41 36.4C74.17 35.85 73.61 35.79 73.17 35.74C72.93 35.71 72.7 35.69 72.55 35.6C72.1 35.34 71.75 34.72 71.74 34.71C71.71 34.66 71.67 34.64 71.62 34.63C71.56 34.63 71.52 34.65 71.49 34.7C71.48 34.72 71.14 35.24 71.1 36.09C71.09 36.34 71.1 36.58 71.13 36.8C70.79 36.41 70.29 36.04 69.59 36.11C68.49 36.22 67.32 37.02 66.94 37.53C66.81 37.7 66.76 37.84 66.79 37.97C66.84 38.23 67.17 38.19 67.71 38.13C68.67 38.01 70.46 37.79 72.1 38.97C73.4 39.91 74.4 41.24 75.46 42.65C75.96 43.32 76.48 44.01 77.03 44.66C77.68 45.42 78.5 46.09 79.06 46.53C79.09 46.55 79.12 46.56 79.15 46.56C79.19 46.56 79.24 46.54 79.27 46.5H79.26ZM80.24 39.4C80.86 38.93 81.24 38.1 81.27 37.17C81.3 36.08 80.85 35.04 80.02 34.32C78.9 33.35 77.53 33.36 77.47 33.36C77.39 33.36 77.32 33.43 77.32 33.51C77.32 33.59 77.39 33.66 77.47 33.66C77.47 33.66 78.78 33.66 79.82 34.55C80.58 35.21 81 36.16 80.97 37.17C80.94 38.01 80.6 38.75 80.06 39.17C79.4 39.67 78.24 39.77 77.42 39.38C76.99 39.18 76.51 38.75 76.43 37.9C76.36 37.17 76.59 36.61 76.99 36.26C77.76 35.59 79.06 35.82 79.08 35.82C79.13 35.83 79.19 35.81 79.22 35.77C79.25 35.73 79.26 35.67 79.24 35.62C79.24 35.59 78.99 35 78.54 34.71C78.11 34.43 77.67 34.35 77.65 34.35C77.57 34.34 77.49 34.39 77.48 34.47C77.47 34.55 77.52 34.63 77.6 34.64C77.6 34.64 78 34.71 78.38 34.96C78.59 35.09 78.75 35.32 78.85 35.5C78.38 35.46 77.45 35.47 76.8 36.04C76.32 36.46 76.06 37.09 76.13 37.92C76.2 38.7 76.58 39.32 77.29 39.65C77.66 39.83 78.1 39.91 78.54 39.91C79.17 39.91 79.8 39.74 80.23 39.4H80.24ZM72.51 16.34C72.44 16.34 72.39 16.34 72.35 16.31C72.29 16.27 72.28 16.25 72.27 16.09C72.27 15.95 72.06 15.28 71.19 14.9C69.99 14.37 69.02 13.2 68.54 12.22C68.05 11.23 67.63 8.55001 68.86 6.57001C69.76 5.11001 71.32 4.37001 73.49 4.37001C75.66 4.37001 77.7 5.34001 79.46 7.26001C79.52 7.32001 79.51 7.41001 79.46 7.47001C79.4 7.53001 79.31 7.52001 79.25 7.47001C77.55 5.62001 75.62 4.68001 73.5 4.68001C71.38 4.68001 69.97 5.37001 69.12 6.74001C67.97 8.60001 68.36 11.19 68.81 12.1C69.33 13.14 70.29 14.22 71.31 14.64C72.24 15.02 72.44 15.64 72.51 15.83C72.54 15.92 72.56 15.99 72.57 16.06C72.7 16.04 72.93 15.96 73.02 15.83C73.22 15.52 72.96 15.03 72.95 15.03C72.92 14.98 72.92 14.92 72.95 14.87C72.98 14.82 73.04 14.8 73.09 14.8C73.1 14.8 74.48 14.95 75.34 14.11C76.07 13.39 75.93 12.2 75.59 11.59C75.43 11.3 75.23 11.2 75.11 11.24C75 11.28 74.96 11.45 75.01 11.67C75.11 12.12 75.24 12.74 74.93 13.13C74.74 13.36 74.42 13.48 73.98 13.48C72.69 13.48 72.13 12.89 72.12 12.87C72.09 12.83 72.26 12.87 72.28 12.82C72.3 12.77 72.34 12.74 72.39 12.73C72.56 12.7 73 12.56 73.08 12.3C73.11 12.19 73.12 12.08 73.1 11.98C73.09 11.99 73.08 12 73.07 12.01C72.93 12.14 72.74 12.2 72.5 12.19C72.19 12.17 71.64 11.89 71.14 11.31C70.76 10.86 70.15 9.89001 70.33 8.47001C70.44 7.62001 70.84 6.96001 71.51 6.56001C72.36 6.06001 73.61 6.01001 74.71 6.45001C75.55 6.78001 76.67 7.72001 77.71 8.95001C77.76 9.01001 77.75 9.11001 77.69 9.16001C77.63 9.21001 77.53 9.20001 77.48 9.14001C76.47 7.94001 75.4 7.04001 74.6 6.72001C73.59 6.32001 72.43 6.36001 71.66 6.81001C71.07 7.16001 70.72 7.73001 70.63 8.50001C70.47 9.81001 71.03 10.7 71.37 11.11C71.78 11.6 72.27 11.88 72.51 11.89C72.67 11.89 72.78 11.87 72.86 11.79C72.96 11.69 72.97 11.54 72.97 11.54C72.97 11.47 73.02 11.41 73.08 11.4C73.14 11.38 73.21 11.41 73.25 11.47C73.26 11.49 73.51 11.92 73.37 12.38C73.28 12.67 72.98 12.84 72.74 12.93C72.95 13.04 73.33 13.18 73.98 13.18C74.33 13.18 74.57 13.1 74.7 12.94C74.93 12.66 74.81 12.12 74.72 11.73C74.62 11.28 74.81 11.03 75.01 10.96C75.25 10.87 75.61 10.98 75.86 11.44C76.24 12.14 76.4 13.49 75.56 14.32C74.83 15.04 73.79 15.11 73.32 15.11C73.4 15.34 73.46 15.69 73.28 15.98C73.13 16.21 72.76 16.35 72.53 16.35L72.51 16.34ZM73.21 14.99C73.24 14.91 73.21 14.83 73.13 14.8C71.43 14.13 70.41 13.5 69.55 11.91C68.48 9.93001 69.46 7.24001 69.47 7.21001C69.5 7.13001 69.52 7.09001 69.53 7.07001C69.55 7.05001 69.49 7.09001 69.44 7.19001C69.39 7.30001 68.14 9.94001 69.28 12.05C70.18 13.72 71.29 14.4 73.02 15.08C73.04 15.08 73.06 15.09 73.07 15.09C73.13 15.09 73.19 15.05 73.21 15V14.99ZM72.64 12.98C72.67 12.9 72.64 12.85 72.56 12.81C72.53 12.8 70.03 11.68 70.03 9.13001C70.03 7.80001 70.5 6.95001 70.9 6.48001C71.33 5.97001 71.77 5.76001 71.77 5.76001C71.84 5.73001 71.82 5.71001 71.74 5.74001C71.66 5.78001 69.74 6.61001 69.73 9.13001C69.72 11.88 72.44 13.09 72.47 13.1C72.49 13.1 72.49 13.07 72.5 13.07C72.56 13.07 72.61 13.04 72.64 12.98ZM75.51 12.74C75.51 12.26 75.03 11.67 74.98 11.6C74.93 11.54 74.83 11.53 74.77 11.58C74.71 11.63 74.7 11.73 74.75 11.79C74.88 11.95 75.22 12.43 75.22 12.74C75.22 13.14 75.07 14.08 73.64 14.08C72.04 14.08 70.49 12.4 70.48 12.38C70.43 12.32 70.4 12.28 70.39 12.27C70.39 12.27 70.39 12.3 70.45 12.39C70.51 12.48 71.91 14.38 73.65 14.38C75.39 14.38 75.53 13.12 75.53 12.74H75.51ZM109.91 16.34C109.67 16.34 109.3 16.2 109.16 15.97C108.97 15.68 109.04 15.32 109.12 15.1C108.64 15.1 107.61 15.03 106.88 14.31C106.04 13.48 106.2 12.13 106.58 11.43C106.83 10.97 107.18 10.86 107.43 10.95C107.62 11.02 107.82 11.27 107.72 11.72C107.63 12.11 107.52 12.65 107.74 12.93C107.87 13.09 108.11 13.17 108.46 13.17C109.11 13.17 109.5 13.03 109.7 12.92C109.46 12.83 109.16 12.66 109.07 12.37C108.93 11.91 109.17 11.48 109.19 11.46C109.22 11.4 109.29 11.37 109.36 11.39C109.43 11.41 109.47 11.47 109.47 11.53C109.47 11.53 109.47 11.68 109.58 11.78C109.66 11.85 109.77 11.88 109.93 11.88C110.18 11.87 110.66 11.59 111.07 11.1C111.42 10.69 111.97 9.80001 111.81 8.49001C111.72 7.72001 111.37 7.15001 110.78 6.80001C110.01 6.34001 108.86 6.31001 107.84 6.71001C107.12 6.99001 106.18 7.75001 105.26 8.78001C105.21 8.84001 105.11 8.85001 105.05 8.79001C104.99 8.74001 104.98 8.64001 105.04 8.58001C106 7.51001 106.98 6.73001 107.74 6.43001C108.84 6.00001 110.09 6.04001 110.94 6.54001C111.6 6.94001 112.01 7.59001 112.12 8.45001C112.3 9.88001 111.69 10.84 111.31 11.29C110.82 11.87 110.26 12.16 109.95 12.17C109.71 12.18 109.52 12.12 109.38 11.99C109.37 11.98 109.36 11.97 109.35 11.96C109.34 12.06 109.34 12.17 109.37 12.28C109.45 12.54 109.9 12.67 110.06 12.71C110.11 12.71 110.15 12.75 110.17 12.8C110.19 12.85 110.27 12.85 110.24 12.89C110.22 12.91 109.75 13.46 108.46 13.46C108.02 13.46 107.7 13.34 107.51 13.11C107.19 12.72 107.33 12.1 107.43 11.65C107.48 11.43 107.43 11.26 107.33 11.22C107.21 11.17 107.01 11.28 106.85 11.57C106.51 12.18 106.37 13.37 107.1 14.09C107.96 14.93 109.34 14.78 109.35 14.78C109.41 14.78 109.46 14.8 109.49 14.85C109.52 14.9 109.52 14.96 109.49 15.01C109.49 15.01 109.22 15.5 109.42 15.81C109.51 15.94 109.74 16.02 109.87 16.04C109.9 15.83 110.1 15.56 110.14 15.5C110.32 15.26 110.66 14.97 111.17 14.68C112.17 14.12 113.12 13.09 113.62 12.09C114.1 11.15 114.5 8.61001 113.35 6.74001C112.5 5.37001 111.02 4.67001 108.93 4.67001C106.84 4.67001 105.07 5.52001 103.43 7.20001C103.37 7.26001 103.28 7.26001 103.22 7.20001C103.16 7.14001 103.16 7.05001 103.22 6.99001C104.92 5.25001 106.84 4.37001 108.93 4.37001C111.13 4.37001 112.7 5.11001 113.6 6.58001C114.72 8.40001 114.48 11.02 113.88 12.22C113.34 13.29 112.45 14.29 111.31 14.95C110.54 15.4 110.16 15.97 110.15 16.1C110.15 16.23 110.15 16.27 110.07 16.31C110.03 16.33 109.98 16.34 109.91 16.34ZM109.4 15.07C111.13 14.39 112.24 13.71 113.14 12.04C114.28 9.93001 113.14 7.64001 113.09 7.55001C113.06 7.47001 113.03 7.44001 113.03 7.44001C113.02 7.44001 113.05 7.49001 113.07 7.57001C113.07 7.59001 113.94 9.92001 112.87 11.9C112.01 13.5 110.99 14.13 109.29 14.79C109.21 14.82 109.18 14.91 109.21 14.98C109.23 15.04 109.29 15.07 109.35 15.07C109.37 15.07 109.39 15.07 109.4 15.06V15.07ZM109.92 13.1C109.92 13.1 112.68 11.88 112.68 9.12001C112.68 6.36001 110.74 5.70001 110.66 5.66001C110.58 5.63001 110.54 5.62001 110.54 5.62001C110.54 5.63001 110.6 5.67001 110.67 5.70001C110.67 5.70001 111.1 5.91001 111.53 6.43001C111.93 6.90001 112.38 7.79001 112.38 9.12001C112.38 11.67 109.87 12.79 109.84 12.8C109.76 12.83 109.74 12.89 109.77 12.97C109.79 13.03 109.85 13.06 109.91 13.06C109.93 13.06 109.9 13.1 109.91 13.1H109.92ZM111.98 12.39C112.03 12.33 112.07 12.27 112.05 12.26C112.03 12.26 111.99 12.31 111.94 12.37C111.93 12.39 110.38 14.06 108.79 14.06C107.36 14.06 107.21 13.12 107.21 12.72C107.21 12.41 107.55 11.93 107.68 11.77C107.73 11.71 107.72 11.61 107.66 11.56C107.6 11.51 107.5 11.52 107.45 11.58C107.4 11.65 106.92 12.24 106.92 12.72C106.92 13.11 107.06 14.36 108.8 14.36C110.54 14.36 111.92 12.46 111.99 12.38L111.98 12.39ZM86.46 50.06C88.33 49.58 89.69 48.16 90.55 47.14C91.69 45.78 92.73 42.97 92.77 42.85C92.85 42.6 101.05 17.79 102.63 13.02C102.74 12.7 102.87 12.37 103.03 12.03C103.05 11.98 103.05 11.93 103.02 11.88L101.47 9.59001C101.47 9.59001 101.39 9.52001 101.34 9.52001C101.29 9.52001 101.24 9.55001 101.22 9.59001C100.05 11.53 99.49 13.3 99.49 13.32L91.17 37.17L82.91 13.32C82.91 13.32 82.44 11.8 81.45 10.05C81.42 10 81.38 9.97001 81.32 9.97001C81.26 9.97001 81.22 10 81.19 10.04L79.68 12.59C79.68 12.59 79.65 12.68 79.67 12.72C79.71 12.82 79.74 12.91 79.77 13.01C81.1 17.01 86.87 34.29 89.29 41.54C89.3 41.59 89.32 41.64 89.34 41.69C89.39 41.82 89.45 41.99 89.46 42.27L88.39 45.45C87.34 48.22 85.24 49.03 83.66 49.22C80.27 49.63 77.27 48.65 74.75 46.3C71.66 43.42 72.31 38.89 72.32 38.85C72.33 38.77 72.28 38.69 72.2 38.68C72.12 38.67 72.04 38.72 72.03 38.8C72.03 38.85 71.35 43.53 74.56 46.52C77.15 48.93 80.23 49.94 83.71 49.52C85.37 49.32 87.58 48.47 88.68 45.55L89.76 42.34C89.76 42.34 89.76 42.31 89.76 42.29C89.76 41.95 89.67 41.73 89.62 41.59C89.6 41.54 89.59 41.51 89.58 41.47V41.45C87.16 34.2 81.39 16.91 80.05 12.91C80.02 12.83 80 12.76 79.97 12.68L81.31 10.42C82.19 12.04 82.62 13.39 82.62 13.41L91.03 37.67C91.05 37.73 91.11 37.77 91.17 37.77C91.23 37.77 91.29 37.73 91.31 37.67L99.77 13.41C99.77 13.41 100.28 11.77 101.35 9.95001L102.72 11.97C102.57 12.3 102.44 12.62 102.34 12.92C100.75 17.69 92.56 42.5 92.48 42.75C92.47 42.78 91.42 45.62 90.31 46.95C89.48 47.94 88.16 49.32 86.37 49.78C81.82 50.95 78.09 50.27 74.62 47.64C70.35 44.4 71.31 38.55 71.32 38.49C71.33 38.41 71.28 38.33 71.2 38.32C71.12 38.31 71.04 38.36 71.03 38.44C71.02 38.5 70.03 44.52 74.45 47.87C76.88 49.72 79.45 50.63 82.32 50.63C83.63 50.63 85 50.44 86.45 50.07L86.46 50.06ZM85.13 50.11C87.93 49.47 89.28 46.7 89.84 45.1C89.89 44.95 89.81 44.8 89.67 44.74C89.52 44.69 89.37 44.77 89.31 44.91C88.79 46.4 87.54 48.98 85 49.55C81.65 50.31 78.7 49.82 75.99 48.06C74.04 46.79 72.92 45.56 72.36 44.09C71.47 41.73 71.51 39.88 71.65 38.53C71.67 38.38 71.55 38.24 71.4 38.22C71.25 38.21 71.11 38.32 71.09 38.47C70.95 39.88 70.9 41.81 71.83 44.28C72.43 45.87 73.62 47.18 75.68 48.52C77.66 49.81 79.76 50.45 82.04 50.45C83.03 50.45 84.06 50.33 85.12 50.09L85.13 50.11ZM77.49 33.85C77.49 33.85 78.66 33.66 80.07 34.78C80.76 35.32 79.56 34.06 79.07 33.83C78.58 33.6 77.49 33.45 77.44 33.46C77.39 33.47 77.49 33.85 77.49 33.85ZM91.95 44.67L101.26 16.7C101.26 16.7 101.73 14.79 102.66 12.6C102.76 12.37 102.86 12.14 102.97 11.92V11.89C102.71 11.4 102.17 10.68 101.77 10.14C101.23 10.97 100.8 11.74 100.41 12.86C98.98 16.94 94.65 29.42 91.49 38.53C90.53 35.79 84.71 19.2 82.56 13.07C82.18 11.98 81.75 10.99 81.21 10.17L80.17 12.11C80.28 12.4 81.65 16.45 81.65 16.45L90.21 42.24C89.53 44.21 88.95 45.87 88.56 47.03C87.84 49.12 84.89 50.23 84.89 50.23C84.89 50.23 87.89 49.58 89.2 48.44C90.11 47.64 91.96 44.69 91.96 44.69L91.95 44.67ZM86.58 48.16C82.73 46.76 80.18 43.69 78.58 39.87H78.48C78.31 43.93 80.92 47.35 85.18 48.99C85.31 49.04 86.72 48.22 86.58 48.16ZM80.34 37.24C80.54 36.02 79.98 35.14 79.82 35.28C79.81 35.29 80.07 35.58 79.95 36.18C79.86 36.61 79.54 37.04 78.99 36.93C78.77 36.88 78.7 36.49 78.35 36.49C77.66 36.49 77.25 36.89 77.25 37.58C77.25 38.27 77.86 38.83 78.62 38.83C79.38 38.83 80.18 38.22 80.33 37.25L80.34 37.24ZM77.95 8.70001L78.97 7.76001C76.79 5.93001 74.71 5.33001 73.41 5.51001C70.8 5.88001 70.55 7.81001 70.55 7.81001C70.55 7.81001 71.26 6.09001 73.43 6.09001C75.25 6.09001 76.75 7.20001 77.95 8.70001ZM108.98 5.51001C108 5.38001 105.9 5.84001 103.89 7.50001L105.06 8.64001C105.57 8.04001 106.13 7.52001 106.72 7.10001C107.43 6.60001 108.32 6.22001 109.17 6.22001C111.34 6.22001 111.96 7.97001 111.96 7.97001C111.96 7.97001 111.66 5.87001 108.97 5.51001H108.98ZM106.62 13.73C106.22 12.99 106.74 11.44 106.74 11.44C104.52 8.37001 101.55 6.02001 97.97 4.72001C97 4.37001 95.3 3.75001 93.93 2.91001C92.45 1.99001 91.35 0.870013 91.35 0.870013C91.35 0.870013 90.17 1.96001 88.73 2.87001C87.4 3.72001 85.84 4.39001 84.89 4.74001C81.22 6.12001 78.16 8.68001 75.9 12.01C75.9 12.01 76.3 12.94 75.66 13.96C75.29 14.55 74.27 14.84 74.27 14.84C72.56 18.37 71.62 22.5 71.62 26.91C71.62 30.07 72.05 33.08 72.88 35.81C73.03 35.85 73.15 35.88 73.22 35.89C73.73 35.94 74.02 35.68 74.26 36.45L74.51 37.23L75.12 37.48C75.12 37.48 75.52 35.84 76.14 35.46C76.74 35.09 77.15 35.06 77.25 35.37C76.62 32.54 76.36 29.52 76.36 26.59C76.36 16.06 80.33 4.47001 91.34 4.47001C103.13 4.47001 106.58 16.2 106.58 27.06C106.58 29.8 106.34 32.57 105.79 35.18C105.85 35.2 105.9 35.23 105.95 35.28C106.48 35.71 106.82 35.76 107.01 36.39C107.05 36.53 107.2 37.4 107.38 37.4C107.5 37.4 107.69 37.27 107.84 37.23C107.99 37.19 108.13 36.5 108.22 36.37C108.36 36.16 108.71 36.1 108.71 36.1L109.87 35.82C110.82 33.02 111.32 29.95 111.32 26.73C111.32 22.42 110.43 18.38 108.78 14.92C108.78 14.92 107.25 14.92 106.62 13.74V13.73ZM91.3 3.64001C90.93 3.64001 90.62 3.34001 90.62 2.96001C90.62 2.58001 90.92 2.28001 91.3 2.28001C91.68 2.28001 91.98 2.58001 91.98 2.96001C91.98 3.34001 91.68 3.64001 91.3 3.64001ZM103.87 40.84C101.6 45.63 97.7 48.98 91.54 48.98C90.77 48.98 89.65 48.86 88.96 48.76C88.67 48.91 88.59 48.94 88.36 49.04C88 49.2 87.77 49.55 87.5 49.66C88.67 49.9 89.94 50.04 91.3 50.04C96.7 50.04 100.37 47.71 102.99 44.2C103.96 42.9 103.75 41.66 103.9 41.16C103.9 41.16 104.03 40.53 103.87 40.85V40.84ZM0 64.55H5.3V71.27H4.54V65.24H0.76V71.27H0V64.55ZM9.12 64.55H11.63C13.15 64.55 14.14 65.36 14.14 66.7C14.14 68.15 12.93 68.9 11.5 68.9H9.87V71.27H9.11V64.55H9.12ZM11.54 68.21C12.65 68.21 13.38 67.61 13.38 66.71C13.38 65.75 12.66 65.25 11.58 65.25H9.88V68.21H11.54ZM17.45 64.55H18.21V70.13L22.22 64.55H22.94V71.27H22.19V65.69L18.19 71.27H17.45V64.55ZM26.76 64.55H27.53L29.98 68.22L32.43 64.55H33.2V71.27H32.44V65.83L29.99 69.43H29.95L27.5 65.84V71.27H26.76V64.55ZM36.72 67.91C36.72 66.06 38.11 64.44 40.16 64.44C42.21 64.44 43.58 66.04 43.58 67.91C43.58 69.78 42.19 71.38 40.14 71.38C38.09 71.38 36.72 69.78 36.72 67.91ZM42.79 67.91C42.79 66.38 41.68 65.14 40.14 65.14C38.6 65.14 37.51 66.37 37.51 67.91C37.51 69.45 38.62 70.68 40.16 70.68C41.7 70.68 42.79 69.45 42.79 67.91ZM47.1 64.55H49.61C51.13 64.55 52.12 65.36 52.12 66.7C52.12 68.15 50.91 68.9 49.48 68.9H47.85V71.27H47.09V64.55H47.1ZM49.52 68.21C50.63 68.21 51.36 67.61 51.36 66.71C51.36 65.75 50.64 65.25 49.56 65.25H47.86V68.21H49.52ZM55.14 67.91C55.14 66.01 56.56 64.44 58.54 64.44C59.76 64.44 60.47 64.89 61.14 65.52L60.64 66.06C60.07 65.52 59.44 65.14 58.53 65.14C57.04 65.14 55.93 66.35 55.93 67.91C55.93 69.47 57.05 70.68 58.53 70.68C59.45 70.68 60.06 70.33 60.7 69.71L61.2 70.24C60.5 70.95 59.73 71.38 58.51 71.38C56.57 71.38 55.14 69.85 55.14 67.91ZM64.44 64.55H65.2V68.56L69.06 64.55H70.04L67.16 67.49L70.16 71.27H69.21L66.63 68.02L65.2 69.47V71.27H64.44V64.55ZM73.26 64.55H74.02V70.13L78.03 64.55H78.75V71.27H78V65.69L74 71.27H73.26V64.55ZM82.57 64.55H87.43V65.24H83.33V67.53H87V68.22H83.33V70.57H87.48V71.26H82.58V64.54L82.57 64.55ZM95.72 64.55H98.23C99.75 64.55 100.74 65.36 100.74 66.7C100.74 68.15 99.53 68.9 98.1 68.9H96.47V71.27H95.71V64.55H95.72ZM98.14 68.21C99.25 68.21 99.98 67.61 99.98 66.71C99.98 65.75 99.26 65.25 98.18 65.25H96.48V68.21H98.14ZM104.05 64.55H108.91V65.24H104.81V67.53H108.48V68.22H104.81V70.57H108.96V71.26H104.06V64.54L104.05 64.55ZM111.83 70.3L112.28 69.77C112.96 70.41 113.67 70.73 114.64 70.73C115.47 70.73 116.2 70.23 116.2 69.43C116.2 68.56 115.41 68.19 114.39 68.19H113.65V67.57H114.39C115.35 67.57 116.03 67.1 116.03 66.3C116.03 65.61 115.4 65.1 114.51 65.1C113.75 65.1 113.12 65.33 112.53 65.86L112.09 65.33C112.76 64.75 113.46 64.44 114.53 64.44C115.86 64.44 116.79 65.2 116.79 66.23C116.79 67.13 116.18 67.59 115.56 67.81C116.36 68.05 116.97 68.57 116.97 69.46C116.97 70.53 116.02 71.37 114.62 71.37C113.46 71.37 112.6 71.01 111.82 70.29L111.83 70.3ZM120.43 64.55H121.19V70.13L125.2 64.55H125.92V71.27H125.17V65.69L121.17 71.27H120.43V64.55ZM128.89 70.58H129.58C130.22 69.55 130.6 67.9 130.6 65.72V64.55H135V70.58H135.87L135.75 72.77H135.12V71.27H129.67L129.54 72.77H128.9V70.58H128.89ZM134.24 70.58V65.24H131.33V66.11C131.33 67.85 130.99 69.65 130.44 70.57H134.24V70.58ZM138.91 64.55H143.77V65.24H139.67V67.53H143.34V68.22H139.67V70.57H143.82V71.26H138.92V64.54L138.91 64.55ZM147.26 64.55H148.02V67.53H151.9V64.55H152.66V71.27H151.9V68.25H148.02V71.27H147.26V64.55ZM161.96 71.27H156.48V64.55H157.24V70.58H161.08V64.55H161.84V70.58H162.71L162.6 72.77H161.97V71.27H161.96ZM165.74 64.55H166.5V70.13L170.51 64.55H171.23V71.27H170.48V65.69L166.48 71.27H165.74V64.55ZM175.05 64.55H175.81V70.13L179.82 64.55H180.54V71.27H179.79V65.69L175.79 71.27H175.05V64.55Z" fill="#263059"/>
</g>
<defs>
<clipPath id="clip0_3_857">
<rect width="180.54" height="72.77" fill="white"/>
</clipPath>
</defs>
</svg>
