<svg width="195" height="55" viewBox="0 0 195 55" fill="none" xmlns="http://www.w3.org/2000/svg">
<g clip-path="url(#clip0_8_238300)">
<path d="M69.664 14.1062L71.9911 7.27697H72.3161L69.4435 15.1873C69.0662 16.3787 68.5729 17.1169 67.9984 17.1169C67.923 17.1169 67.8301 17.1052 67.7547 17.0704V16.4136C67.8185 16.4485 67.9114 16.4601 67.9868 16.4601C68.4337 16.4601 68.9676 16.0474 69.2229 15.1873L66.3502 7.27697H67.1859L69.6698 14.1062H69.664ZM78.1776 7.28859C76.9414 7.28859 75.6937 8.4917 75.6937 11.0665C75.6937 13.6412 76.5642 15.0652 78.1776 15.0652C79.3789 15.0652 80.29 14.4317 80.6034 13.3739L80.7833 13.4204C80.4293 14.6235 79.3615 15.2279 78.166 15.2279C76.3959 15.2279 74.7594 13.8156 74.7594 11.0723C74.7594 8.56726 76.5932 7.12585 78.2066 7.12585C78.8275 7.12585 79.4195 7.33509 79.8548 7.79425L80.0637 7.13748H80.1972C80.2552 7.89305 80.4873 8.84043 80.8413 9.57857L80.7659 9.61344C80.3654 9.15428 80.0405 8.60213 79.7735 8.06742C79.3266 7.55595 78.7521 7.30022 78.1718 7.30022L78.1776 7.28859ZM87.6661 12.5718H84.6193L83.7604 15.0768H83.4587L86.3313 7.16654H86.5519L89.4246 15.0768H88.5889L87.6661 12.5718ZM84.6832 12.38H87.5965L86.105 8.27084L84.6832 12.38ZM97.6248 17.5412C97.4042 16.8379 97.2127 16.1695 97.2127 15.5244C97.2127 15.3791 97.2243 15.2221 97.2475 15.0768H93.0111C93.0343 15.2338 93.0459 15.3907 93.0459 15.5418C93.0459 16.1869 92.8544 16.8437 92.6454 17.5353H92.57C92.57 16.6112 92.5584 15.751 92.216 14.8966L92.4829 14.885C93.516 14.885 94.7405 11.979 94.7405 9.4507C94.7405 8.69513 94.6302 7.95699 94.3633 7.35834V7.28278H96.9458V14.9025H98.0716C97.7292 15.7627 97.7176 16.617 97.7176 17.5412H97.6422H97.6248ZM95.0016 8.06742C95.0016 11.2292 94.1137 14.2631 92.924 14.8966H96.1043V7.46296H94.99C95.0016 7.66057 95.0016 7.86399 95.0016 8.06742ZM101.565 7.27697H102.401V10.1191H103.359C105.303 10.1191 106.33 11.3978 106.33 12.659C106.33 13.9202 105.372 15.0768 103.359 15.0768H101.565V7.27116V7.27697ZM102.401 10.3051V14.885H103.359C104.682 14.885 105.337 13.7458 105.337 12.6125C105.337 11.4791 104.67 10.3051 103.359 10.3051H102.401ZM114.983 10.3051C114.327 9.38095 113.77 8.4452 113.416 7.46296H110.566V10.9618H111.489C113.404 10.9618 114.362 11.9848 114.362 13.0135C114.362 14.0423 113.404 15.0768 111.477 15.0768H109.731V7.27116H114.17C114.339 8.27665 114.658 9.27634 115.058 10.2818L114.983 10.3051ZM110.566 11.1536V14.885H111.535C112.783 14.885 113.404 13.9609 113.404 13.0251C113.404 12.0894 112.783 11.1536 111.535 11.1536H110.566ZM121.604 12.566H118.558L117.699 15.071H117.397L120.27 7.16073H120.49L123.363 15.071H122.527L121.604 12.566ZM118.621 12.3742H121.535L120.043 8.26503L118.621 12.3742ZM72.5715 38.9414C69.1011 38.9414 66.0659 36.3143 66.0659 31.4147C66.0659 26.5151 69.1011 23.888 72.5715 23.888C76.0419 23.888 79.1003 26.5151 79.1003 31.4147C79.1003 36.3143 76.0651 38.9414 72.5715 38.9414ZM72.5715 24.1728C69.4144 24.1728 67.8011 26.6545 67.8011 31.4147C67.8011 36.1748 69.4144 38.6566 72.5715 38.6566C75.7285 38.6566 77.3651 36.1748 77.3651 31.4147C77.3651 26.6545 75.7343 24.1728 72.5715 24.1728ZM96.5511 29.8221C95.64 28.2936 94.8565 26.5557 94.3807 24.5506H91.508V38.6798H89.9585V24.5506H87.0858C86.6099 26.5557 85.8265 28.2936 84.9153 29.8221L84.7702 29.7815C85.2055 28.1483 85.5943 26.3058 85.6814 24.196H95.7793C95.8605 26.3058 96.2552 28.1483 96.6904 29.7815L96.5453 29.8221H96.5511ZM103.202 24.196H106.875C110.201 24.196 111.768 26.1198 111.768 28.0843C111.768 30.0488 110.073 32.1586 106.875 32.1586H104.746V38.674H103.196V24.196H103.202ZM104.751 24.5506V31.8099H106.695C108.947 31.8099 110.102 29.9907 110.102 28.1715C110.102 26.3523 108.965 24.5506 106.695 24.5506H104.751ZM122.904 34.0243H117.246L115.656 38.6798H115.099L120.426 23.9926H120.838L126.166 38.6798H124.616L122.904 34.0243ZM117.368 33.6698H122.777L120.008 26.0385L117.362 33.6698H117.368ZM141.388 43.2481C140.976 41.9462 140.622 40.7024 140.622 39.5051C140.622 39.2378 140.645 38.9472 140.686 38.6798H132.817C132.857 38.9704 132.88 39.261 132.88 39.5458C132.88 40.7431 132.526 41.9636 132.138 43.2481H131.992C131.992 41.5336 131.969 39.941 131.331 38.3485L131.824 38.3253C133.745 38.3253 136.014 32.9258 136.014 28.2296C136.014 26.8231 135.805 25.4573 135.312 24.3413V24.196H140.106V38.3427H142.189C141.551 39.9352 141.527 41.5277 141.527 43.2423H141.382L141.388 43.2481ZM136.513 25.6665C136.513 31.5425 134.859 37.1687 132.654 38.3427H138.562V24.5448H136.496C136.519 24.9167 136.519 25.2887 136.519 25.6607L136.513 25.6665ZM156.669 31.0427H150.349V38.674H148.799V24.196H150.349V30.6882H156.669V24.196H158.218V38.674H156.669V31.0427ZM171.624 38.9414C168.153 38.9414 165.118 36.3143 165.118 31.4147C165.118 26.5151 168.153 23.888 171.624 23.888C175.094 23.888 178.153 26.5151 178.153 31.4147C178.153 36.3143 175.118 38.9414 171.624 38.9414ZM171.624 24.1728C168.467 24.1728 166.854 26.6545 166.854 31.4147C166.854 36.1748 168.467 38.6566 171.624 38.6566C174.781 38.6566 176.417 36.1748 176.417 31.4147C176.417 26.6545 174.787 24.1728 171.624 24.1728ZM193.95 28.3924C192.795 27.1311 191.907 25.8467 191.245 24.5448H186.306V30.6882H191.118V31.0369H186.306V38.3195H191.901C192.644 36.541 193.613 34.7799 194.855 33.0479L195 33.0886C194.217 34.8903 193.596 36.7502 193.305 38.674H184.757V24.196H192.644C192.83 25.6026 193.346 26.9684 194.089 28.3342L193.944 28.3982L193.95 28.3924ZM26.713 55.0002C24.7573 55.0002 22.8654 54.7794 21.0953 54.3376C21.0083 54.3144 20.9561 54.2272 20.9793 54.14C21.0025 54.0528 21.0895 54.0005 21.1766 54.0238C22.9234 54.4539 24.7863 54.6747 26.7188 54.6747C32.9749 54.6747 38.639 51.9895 42.6724 47.119C42.7304 47.0492 42.8291 47.0434 42.8987 47.0957C42.9683 47.1539 42.9741 47.2527 42.9219 47.3224C38.8247 52.2685 33.0677 54.9944 26.7188 54.9944L26.713 55.0002ZM18.6695 53.5646C18.6695 53.5646 18.6289 53.5646 18.6115 53.553C15.3558 52.2918 12.5643 50.2285 10.3184 47.427C10.2604 47.3573 10.272 47.2585 10.3416 47.2004C10.4113 47.1422 10.5099 47.1539 10.568 47.2236C12.7791 49.9785 15.5241 52.007 18.7217 53.2508C18.803 53.2856 18.8436 53.3786 18.8146 53.46C18.7914 53.5239 18.7276 53.5646 18.6637 53.5646H18.6695ZM26.8755 52.6754C26.33 52.6754 25.0881 52.6056 24.5484 52.4603C24.4613 52.4371 24.4091 52.3499 24.4323 52.2627C24.4555 52.1755 24.5426 52.1232 24.6296 52.1465C25.1345 52.2801 26.359 52.3499 26.8755 52.3499C32.1914 52.3499 36.2422 49.9437 38.9118 45.2068C39.231 44.643 39.5327 44.0328 39.8113 43.3992C39.8461 43.3179 39.9448 43.283 40.026 43.3179C40.1073 43.3527 40.1421 43.4515 40.1073 43.5329C39.8229 44.1781 39.5153 44.7941 39.1903 45.3695C36.4569 50.2227 32.3133 52.6812 26.8755 52.6812V52.6754ZM22.0413 51.9372C22.0413 51.9372 22.0065 51.9372 21.9891 51.9314C18.7101 50.8387 16.0928 48.5371 14.2125 45.0906C13.8991 44.5152 13.5973 43.8991 13.3246 43.2598C13.2898 43.1784 13.3246 43.0854 13.4116 43.0505C13.4929 43.0156 13.5857 43.0505 13.6206 43.1377C13.8875 43.7654 14.1835 44.3699 14.4969 44.9394C16.3424 48.3105 18.8958 50.5598 22.0935 51.6292C22.1806 51.6583 22.2212 51.7512 22.198 51.8326C22.1748 51.9024 22.1109 51.943 22.0471 51.943L22.0413 51.9372ZM41.3086 39.7202C41.3086 39.7202 41.2796 39.7202 41.2679 39.7202C41.1809 39.6969 41.1287 39.6097 41.1519 39.5226C41.268 39.0808 41.3782 38.6275 41.4769 38.1683C42.0572 35.4948 42.3532 32.5248 42.3532 29.3339C42.3532 22.1967 40.8153 5.58565 26.597 5.58565C21.4145 5.58565 17.3986 8.05579 14.6652 12.9205C12.3786 16.9948 11.1193 22.6442 11.1193 28.8283C11.1193 32.3562 11.4617 35.6226 12.1349 38.5345C12.1523 38.6217 12.1001 38.7089 12.013 38.7263C11.926 38.7437 11.8389 38.6914 11.8215 38.6042C11.1425 35.6633 10.7943 32.3737 10.7943 28.8225C10.7943 22.5861 12.0652 16.8786 14.3808 12.7578C17.1722 7.78262 21.281 5.26017 26.5912 5.26017C41.0997 5.26017 42.6666 22.092 42.6666 29.3281C42.6666 32.5364 42.3706 35.5355 41.7845 38.2323C41.6858 38.6914 41.5755 39.1506 41.4595 39.5981C41.4421 39.6679 41.3724 39.7202 41.3028 39.7202H41.3086ZM5.94266 38.6798C5.87302 38.6798 5.80919 38.6333 5.78597 38.5636C4.95028 35.6343 4.52663 32.4783 4.52663 29.1828C4.52663 24.5622 5.46678 20.0927 7.24843 16.2334C7.26584 16.1927 7.42833 16.0242 7.50378 16.0649C7.58503 16.1056 7.63145 16.1695 7.59083 16.2509C5.79178 20.0927 4.84582 24.5622 4.84582 29.1828C4.84582 32.4492 5.26367 35.5761 6.09355 38.4764C6.11677 38.5636 6.07034 38.6507 5.98329 38.674C5.96588 38.674 5.95427 38.6798 5.93686 38.6798H5.94266ZM47.5414 38.0521C47.5414 38.0521 47.5124 38.0521 47.495 38.0463C47.4079 38.023 47.3615 37.93 47.3847 37.8487C48.2088 35.0356 48.6267 32.0482 48.6267 28.9678C48.6267 24.9109 47.9303 21.0982 46.5548 17.6225L46.5258 17.547C46.491 17.4656 46.5897 17.5005 46.6709 17.4656C46.7522 17.4307 46.7928 17.3435 46.8276 17.4249C46.845 17.4656 46.8624 17.5121 46.8798 17.5586C48.2552 21.0575 48.9575 24.8935 48.9575 28.9678C48.9575 32.0772 48.5338 35.0937 47.7039 37.9359C47.6807 38.0056 47.6169 38.0521 47.5472 38.0521H47.5414ZM45.2085 14.5712C45.1504 14.5712 45.0982 14.5421 45.0692 14.4898C44.9589 14.2922 44.8428 14.0946 44.7326 13.9028C44.5004 13.5192 44.2567 13.1356 44.013 12.7694C43.9607 12.6939 43.9839 12.5951 44.0536 12.5427C44.129 12.4904 44.2277 12.5137 44.2799 12.5834C44.5295 12.9554 44.779 13.3448 45.0111 13.7342C45.1272 13.9318 45.2433 14.1294 45.3535 14.3271C45.4 14.4026 45.371 14.5014 45.2897 14.5479C45.2665 14.5595 45.2375 14.5712 45.2085 14.5712ZM9.63943 12.5486C9.61041 12.5486 9.57559 12.5369 9.54657 12.5195C9.47113 12.4672 9.45372 12.3684 9.50595 12.2928C12.0594 8.64282 15.466 5.94018 19.3601 4.47553C20.0507 4.21399 21.8324 3.4991 23.3819 2.51104C24.8675 1.56366 26.1037 0.430303 26.1153 0.418679L26.5215 0.0467036C26.5854 -0.0114175 26.684 -0.0114175 26.7478 0.0467036L27.1367 0.441927C27.1367 0.441927 28.2799 1.60435 29.7946 2.5401C31.2223 3.42354 33.0445 4.08612 34.0253 4.44066C37.873 5.83557 41.2447 8.40452 43.775 11.8743C43.8272 11.9441 43.8098 12.0487 43.7402 12.101C43.6706 12.1533 43.5661 12.1359 43.5139 12.0661C41.0184 8.64863 37.6989 6.12036 33.9092 4.7487C32.9169 4.38835 31.0714 3.71996 29.6205 2.81908C28.0942 1.87171 26.9161 0.680224 26.9045 0.668599L26.626 0.383806L26.3358 0.651163C26.3358 0.651163 25.0707 1.81359 23.556 2.7784C21.9775 3.78389 20.1726 4.50459 19.4704 4.77195C15.6401 6.21335 12.2858 8.88111 9.7671 12.473C9.73809 12.5195 9.68585 12.5427 9.63363 12.5427L9.63943 12.5486ZM29.7772 53.768C29.8295 53.7622 34.7565 52.9602 38.343 48.9614C40.1711 46.9272 40.5483 45.8113 40.1827 43.5387L40.1247 43.2016C39.8983 41.8125 39.8171 41.3418 40.4265 40.6559C40.7282 40.313 40.9836 40.0922 41.1867 39.9062C41.4595 39.6621 41.6568 39.4877 41.7438 39.2203C41.8251 38.9762 41.7728 38.767 41.7322 38.5984C41.6974 38.4415 41.6742 38.3543 41.7264 38.2846C41.7322 38.2788 41.7786 38.2555 41.8831 38.2671C42.2255 38.302 42.7594 38.581 43.0148 38.953C43.392 39.4993 43.6996 40.6675 43.6996 40.6792C43.7112 40.7257 43.7402 40.7605 43.7808 40.7838C43.8214 40.807 43.8679 40.807 43.9143 40.7896L44.5817 40.5222C44.6629 40.4874 44.7036 40.3944 44.6687 40.313C44.6339 40.2316 44.5411 40.191 44.4598 40.2258L43.9607 40.4234C43.8563 40.0631 43.5951 39.2378 43.2759 38.7728C42.9393 38.2846 42.2429 37.9475 41.8251 37.9475H41.8193C41.6103 37.9475 41.5059 38.0347 41.4595 38.1102C41.3318 38.302 41.3782 38.5054 41.4246 38.6798C41.4595 38.8309 41.4943 38.9704 41.4421 39.1215C41.3782 39.3075 41.2273 39.4412 40.972 39.6679C40.7631 39.8539 40.5019 40.0863 40.1885 40.4409C39.4805 41.2429 39.5734 41.83 39.8113 43.2539L39.8635 43.591C40.2175 45.7706 39.8693 46.7819 38.1051 48.7464C34.594 52.6521 29.7772 53.4426 29.7308 53.4484C29.6437 53.46 29.5799 53.5472 29.5973 53.6344C29.6089 53.7157 29.6786 53.7739 29.754 53.7739C29.7598 53.7739 29.7714 53.7739 29.7772 53.7739V53.768ZM39.4921 50.6353C41.9992 48.6999 43.2063 46.9737 44.2741 45.4451C45.1388 44.2071 45.8875 43.1377 47.1468 42.231C48.9226 40.9523 50.861 41.1906 51.8998 41.3243C52.4801 41.3941 52.8341 41.4406 52.8922 41.1558C52.9212 41.0221 52.8689 40.8652 52.7297 40.6792C52.3176 40.1212 51.0641 39.2552 49.8686 39.139C49.1141 39.0634 48.5686 39.4644 48.203 39.8887C48.2378 39.6504 48.2552 39.3889 48.2378 39.1157C48.1914 38.1916 47.8258 37.6336 47.8142 37.6104C47.7852 37.5639 47.7329 37.529 47.6749 37.5406C47.6169 37.5406 47.5704 37.5755 47.5414 37.622C47.5414 37.6278 47.1584 38.2962 46.6709 38.581C46.5084 38.6798 46.2589 38.7031 45.9977 38.7379C45.516 38.7961 44.9125 38.8658 44.6513 39.4586C44.4714 39.8713 44.4772 40.4002 44.4888 40.964C44.5004 41.5568 44.4656 42.1554 44.2973 42.6553C43.8272 44.0269 42.9103 44.7128 42.8987 44.7186C42.8291 44.7767 42.8813 44.8116 42.9509 44.7535C42.9974 44.7128 44.1406 43.7828 44.5933 42.7832C44.8428 42.2368 44.8312 41.58 44.8138 40.9523C44.8022 40.4234 44.7906 39.9294 44.9473 39.5865C45.133 39.1622 45.5741 39.1099 46.0383 39.0576C46.3343 39.0227 46.6129 38.9937 46.8334 38.86C47.199 38.6449 47.495 38.2671 47.6691 38.023C47.7678 38.2497 47.8954 38.6333 47.9244 39.1273C47.9651 39.9701 47.6691 40.7431 47.6691 40.7489C47.6401 40.8303 47.6749 40.9233 47.762 40.9582C47.8432 40.9872 47.9361 40.9523 47.9709 40.871C47.9767 40.8535 48.6092 39.3424 49.8454 39.4586C50.9074 39.5632 52.0971 40.3479 52.4801 40.8652C52.544 40.9523 52.573 41.0105 52.5788 41.0453C52.4685 41.057 52.1957 41.0279 51.9462 40.993C50.861 40.8593 48.8472 40.6036 46.9669 41.9578C45.6611 42.8936 44.9009 43.9863 44.0188 45.2475C42.9625 46.7528 41.7728 48.4616 39.3064 50.368C39.2368 50.4203 39.2252 50.5249 39.2774 50.5946C39.3064 50.6353 39.3586 50.6586 39.4051 50.6586C39.4399 50.6586 39.4747 50.6469 39.5037 50.6237L39.4921 50.6353ZM9.11132 40.778C9.15194 40.7547 9.18096 40.7199 9.19257 40.6734C9.19257 40.6617 9.50015 39.4935 9.87737 38.9472C10.1327 38.581 10.6666 38.2962 11.009 38.2613C11.1135 38.2497 11.1599 38.273 11.1657 38.2788C11.1715 38.2904 11.1773 38.2962 11.1773 38.2962C11.1773 38.3136 11.1309 38.366 11.1019 38.4008C11.009 38.5113 10.8465 38.7031 10.9452 38.9937C10.9742 39.0808 11.0671 39.1215 11.1483 39.0983C11.2354 39.0692 11.276 38.9762 11.2528 38.8949C11.2121 38.7786 11.2528 38.7205 11.3514 38.6101C11.4385 38.5054 11.5894 38.3311 11.4327 38.0986C11.3863 38.023 11.2818 37.9359 11.0729 37.9359H11.0671C10.6492 37.9359 9.95281 38.273 9.61621 38.7612C9.29703 39.2261 9.03588 40.0515 8.93141 40.4118L8.43232 40.2142C8.35107 40.1793 8.25822 40.22 8.2234 40.3014C8.18858 40.3828 8.2292 40.4757 8.31045 40.5106L8.97784 40.778C8.97784 40.778 9.01846 40.7896 9.03587 40.7896C9.05909 40.7896 9.08811 40.7896 9.11132 40.7722V40.778ZM20.3583 53.0648C20.3931 52.9834 20.3583 52.8904 20.2771 52.8497C18.42 52.0419 16.47 51.0945 14.787 49.2172C13.0576 47.2875 12.7965 45.7125 12.9242 43.4806C12.9242 43.3876 12.9358 43.2946 12.9416 43.2133C12.9474 43.1261 12.8835 43.0447 12.7907 43.0389C12.7036 43.0331 12.6224 43.097 12.6166 43.19C12.6108 43.2772 12.605 43.3702 12.5992 43.4632C12.4715 45.7299 12.7442 47.4328 14.5433 49.4322C16.2727 51.356 18.2575 52.3208 20.1436 53.1462C20.1668 53.1578 20.1842 53.1578 20.2074 53.1578C20.2713 53.1578 20.3293 53.1229 20.3525 53.059L20.3583 53.0648ZM13.5045 50.3854C13.5567 50.3157 13.5451 50.211 13.4755 50.1587C12.8835 49.6938 12.013 48.9847 11.3282 48.1826C10.7305 47.4852 10.1733 46.7412 9.63943 46.0205C8.48455 44.4745 7.38771 43.0098 5.93686 41.9695C4.05656 40.6152 2.04278 40.8652 0.957544 41.0047C0.713801 41.0337 0.441041 41.0686 0.324973 41.057C0.33658 41.0221 0.359794 40.964 0.423631 40.8768C0.806656 40.3595 1.99635 39.5691 3.05837 39.4703C4.2945 39.3482 4.92707 40.8652 4.93287 40.8826C4.96769 40.964 5.06055 41.0047 5.14179 40.9698C5.22304 40.9349 5.26367 40.8419 5.23465 40.7605C5.23465 40.7547 4.93868 39.9817 4.9793 39.139C5.00251 38.6391 5.13019 38.2613 5.23465 38.0347C5.40875 38.2846 5.70472 38.6624 6.07034 38.8716C6.29087 38.9995 6.56943 39.0343 6.8654 39.0692C7.32968 39.1215 7.76493 39.1738 7.95644 39.5981C8.10733 39.941 8.10153 40.4409 8.08992 40.964C8.07831 41.5917 8.0609 42.2484 8.31045 42.7948C8.76311 43.7945 9.90638 44.7244 9.95281 44.7651C10.0225 44.8232 10.0515 44.7651 9.98183 44.707C9.97022 44.6953 8.98364 43.8061 8.56 42.7715C8.36268 42.2833 8.3975 41.5684 8.40911 40.9756C8.42071 40.4118 8.43232 39.8829 8.24661 39.4703C7.98546 38.8774 7.38191 38.8077 6.90022 38.7495C6.63907 38.7205 6.39533 38.6914 6.22703 38.5926C5.73954 38.3078 5.35652 37.6394 5.35652 37.6336C5.3275 37.5871 5.27527 37.5523 5.22304 37.5523C5.1592 37.5523 5.11278 37.5755 5.08376 37.622C5.06635 37.6453 4.70654 38.2032 4.66011 39.1273C4.64851 39.4005 4.66011 39.6621 4.69493 39.9003C4.32932 39.4819 3.778 39.0808 3.02936 39.1506C1.83386 39.2668 0.580323 40.1328 0.168282 40.6908C0.0290001 40.8768 -0.0232304 41.0279 0.00578655 41.1674C0.0638205 41.4522 0.412024 41.4057 0.998168 41.3359C2.03698 41.2081 3.96951 40.964 5.75115 42.2426C7.16138 43.2598 8.24081 44.7012 9.38408 46.2297C9.92379 46.9563 10.4867 47.7002 11.0903 48.4093C11.7925 49.2346 12.6804 49.9611 13.284 50.4319C13.313 50.4551 13.3478 50.4668 13.3826 50.4668C13.429 50.4668 13.4755 50.4435 13.5103 50.4028L13.5045 50.3854ZM14.5665 42.696C15.2339 42.1903 15.6459 41.2894 15.6808 40.2839C15.7156 39.0983 15.2223 37.9707 14.3228 37.1919C13.1099 36.1399 11.63 36.1515 11.5662 36.1515C11.4791 36.1515 11.4037 36.2271 11.4095 36.3143C11.4095 36.4015 11.4849 36.4712 11.572 36.4712C11.572 36.4712 12.988 36.4596 14.1138 37.4302C14.9379 38.1451 15.3964 39.1796 15.3616 40.2665C15.3326 41.1732 14.9669 41.9811 14.375 42.4344C13.6612 42.9808 12.4018 43.0796 11.5197 42.6669C11.0555 42.4461 10.5332 41.9811 10.4519 41.0628C10.3823 40.2665 10.6202 39.6679 11.0613 39.2785C11.8911 38.5519 13.3014 38.8019 13.3188 38.8019C13.3768 38.8135 13.4348 38.7902 13.4697 38.7437C13.5045 38.6972 13.5161 38.6391 13.4929 38.581C13.4813 38.5519 13.2201 37.9068 12.7384 37.5929C12.2684 37.2907 11.7925 37.2035 11.7693 37.1977C11.6822 37.1803 11.601 37.2384 11.5836 37.3314C11.5662 37.4186 11.6242 37.5 11.717 37.5174C11.717 37.5174 12.1523 37.5988 12.5643 37.8661C12.7907 38.0114 12.9648 38.2613 13.0692 38.4473C12.5643 38.4066 11.5545 38.4183 10.8465 39.0343C10.33 39.4877 10.0399 40.1793 10.1269 41.0744C10.2082 41.9172 10.6086 42.5914 11.3804 42.9517C11.7867 43.1435 12.2626 43.2307 12.7326 43.2307C13.4116 43.2307 14.0906 43.0447 14.5665 42.6844V42.696ZM6.19801 17.7097C6.12837 17.7097 6.06454 17.7039 6.02391 17.6748C5.96588 17.6342 5.94266 17.6051 5.93686 17.4365C5.93686 17.2854 5.70472 16.5647 4.76457 16.1463C3.46461 15.565 2.42 14.298 1.89189 13.246C1.35798 12.1708 0.905313 9.27052 2.23429 7.12004C3.20926 5.53915 4.89805 4.73708 7.24843 4.73708C9.5988 4.73708 11.8041 5.78907 13.7076 7.8698C13.7656 7.93374 13.7656 8.03836 13.696 8.09648C13.6322 8.1546 13.5277 8.1546 13.4697 8.08485C11.63 6.07967 9.53497 5.05674 7.24843 5.05674C4.96189 5.05674 3.42399 5.80651 2.50705 7.28859C1.25932 9.3054 1.68297 12.1126 2.17626 13.1007C2.73338 14.2224 3.778 15.3965 4.88645 15.8498C5.89624 16.2625 6.11096 16.9367 6.19221 17.1459C6.22703 17.2389 6.25024 17.3203 6.25605 17.39C6.40113 17.3726 6.65068 17.2854 6.73773 17.1401C6.95245 16.803 6.66809 16.2799 6.66228 16.2741C6.63327 16.2218 6.63327 16.1579 6.66228 16.1056C6.6971 16.0533 6.75514 16.03 6.81317 16.0358C6.83058 16.0358 8.32206 16.1986 9.2448 15.2861C10.0341 14.5072 9.87737 13.2169 9.51756 12.5544C9.34926 12.2463 9.12873 12.1301 8.99525 12.1824C8.87918 12.2289 8.83276 12.4091 8.88499 12.6474C8.98945 13.1356 9.13453 13.804 8.79213 14.2283C8.58901 14.4782 8.24081 14.606 7.76493 14.606C6.37212 14.606 5.76856 13.9609 5.75115 13.9376C5.71633 13.8912 5.90204 13.9376 5.92525 13.8853C5.94266 13.833 5.98909 13.7982 6.04712 13.7865C6.22703 13.7517 6.71452 13.6005 6.79576 13.3216C6.83058 13.2053 6.83639 13.0833 6.81898 12.9787C6.80737 12.9903 6.79576 13.0019 6.78416 13.0135C6.63327 13.153 6.43015 13.2228 6.169 13.2053C5.8382 13.1879 5.23465 12.8798 4.70074 12.2463C4.2945 11.7581 3.63291 10.7119 3.82442 9.16591C3.94049 8.24178 4.37575 7.52689 5.09537 7.09679C6.0123 6.55046 7.3703 6.50396 8.55419 6.97474C9.46533 7.33509 10.6782 8.3464 11.7983 9.68318C11.8563 9.75293 11.8447 9.85174 11.7809 9.90986C11.7112 9.96798 11.6126 9.95635 11.5545 9.89242C10.4635 8.59632 9.29703 7.61407 8.43812 7.27697C7.34128 6.84106 6.09355 6.88175 5.26367 7.37578C4.62529 7.75356 4.24807 8.36965 4.14361 9.20659C3.96951 10.6306 4.57306 11.5954 4.94448 12.0371C5.39134 12.566 5.91365 12.8682 6.1806 12.8798C6.3489 12.8915 6.47658 12.8508 6.55782 12.7752C6.67389 12.6706 6.67389 12.5079 6.67389 12.5079C6.67389 12.4323 6.72612 12.3742 6.79576 12.3509C6.8654 12.3335 6.94085 12.3626 6.97567 12.4265C6.98728 12.4439 7.25423 12.9147 7.09754 13.4087C6.99888 13.7226 6.67389 13.9086 6.41854 14.0016C6.63907 14.1236 7.05692 14.2748 7.76493 14.2748C8.14215 14.2748 8.40331 14.1876 8.54259 14.0132C8.78633 13.711 8.65865 13.1298 8.5716 12.7055C8.46714 12.2173 8.67606 11.9499 8.88499 11.8743C9.14614 11.7755 9.52916 11.9034 9.80192 12.3974C10.214 13.153 10.3823 14.6177 9.47113 15.5127C8.67606 16.2974 7.55021 16.3729 7.04531 16.3671C7.13236 16.6112 7.202 16.9948 6.99888 17.3145C6.83639 17.5644 6.44176 17.7155 6.1806 17.7155L6.19801 17.7097ZM6.95245 16.2509C6.98728 16.1695 6.94665 16.0765 6.8596 16.0416C5.01412 15.3209 3.91147 14.6351 2.98293 12.9089C1.82805 10.7642 2.88427 7.84656 2.90168 7.8175C2.9365 7.73613 2.95972 7.68963 2.97132 7.66638C2.98873 7.63732 2.9307 7.68382 2.87847 7.79425C2.82043 7.9163 1.47405 10.77 2.70437 13.0542C3.67353 14.8618 4.87484 15.5999 6.74934 16.3381C6.76675 16.3439 6.78996 16.3497 6.80737 16.3497C6.87121 16.3497 6.93504 16.309 6.95826 16.2451L6.95245 16.2509ZM6.33729 14.0713C6.37212 13.99 6.3373 13.926 6.25024 13.8912C6.22123 13.8795 3.51104 12.6648 3.51104 9.89823C3.51104 8.45102 4.02174 7.53851 4.45119 7.02705C4.91546 6.46909 5.38554 6.25404 5.39134 6.24823C5.47259 6.21335 5.44357 6.1901 5.36232 6.23079C5.27527 6.27147 3.20346 7.17235 3.19185 9.90405C3.18025 12.8857 6.12257 14.1992 6.15159 14.2108C6.1748 14.2166 6.169 14.1759 6.18641 14.1759C6.25024 14.1759 6.30828 14.1411 6.33729 14.0771V14.0713ZM9.44211 13.8098C9.44211 13.2925 8.92561 12.6474 8.86758 12.5718C8.80954 12.5021 8.71089 12.4962 8.64124 12.5486C8.5716 12.6067 8.56 12.7055 8.61803 12.7752C8.75731 12.9438 9.12293 13.4669 9.12293 13.804C9.12293 14.2399 8.95463 15.2628 7.40512 15.2628C5.67571 15.2628 3.99852 13.4378 3.98111 13.4204C3.92308 13.3506 3.88826 13.3041 3.87665 13.3041C3.87665 13.3041 3.87665 13.339 3.94049 13.432C4.00433 13.525 5.52482 15.5883 7.40512 15.5883C9.28542 15.5883 9.44211 14.2283 9.44211 13.8098ZM46.6709 17.7155C46.4156 17.7155 46.0151 17.5644 45.8526 17.3145C45.6495 16.9948 45.7192 16.617 45.8062 16.3671C45.2897 16.3787 44.1754 16.2974 43.3804 15.5127C42.4693 14.6177 42.6434 13.153 43.0496 12.3974C43.3224 11.9034 43.7054 11.7755 43.9665 11.8743C44.1755 11.9557 44.3844 12.2173 44.2799 12.7055C44.1871 13.1298 44.0594 13.711 44.3089 14.0132C44.4482 14.1876 44.7094 14.2748 45.0866 14.2748C45.7946 14.2748 46.2066 14.1294 46.433 14.0016C46.1776 13.9028 45.8526 13.7226 45.754 13.4087C45.6031 12.9147 45.8642 12.4439 45.8758 12.4265C45.9107 12.3626 45.9861 12.3335 46.0558 12.3509C46.1254 12.3684 46.1776 12.4323 46.1776 12.5079C46.1776 12.5079 46.1776 12.6706 46.2937 12.7752C46.3749 12.8508 46.5026 12.8857 46.6709 12.8798C46.9379 12.8682 47.466 12.566 47.907 12.0371C48.2843 11.5896 48.882 10.6306 48.7079 9.20659C48.6034 8.37546 48.2262 7.75937 47.5878 7.37578C46.758 6.88175 45.5102 6.84106 44.4134 7.27697C43.6357 7.58501 42.6201 8.40452 41.6161 9.52626C41.5581 9.59019 41.4537 9.596 41.3898 9.53788C41.326 9.47976 41.3202 9.37514 41.3782 9.31121C42.4112 8.1546 43.4732 7.30603 44.2973 6.98055C45.4812 6.50977 46.8392 6.56208 47.7561 7.10261C48.4758 7.5327 48.9168 8.24759 49.0271 9.17172C49.2186 10.7177 48.5628 11.7639 48.1508 12.2521C47.6169 12.8857 47.0191 13.1937 46.6825 13.2111C46.4214 13.2228 46.2124 13.1588 46.0674 13.0193C46.0558 13.0077 46.0441 12.9961 46.0325 12.9845C46.0209 13.0891 46.0209 13.2111 46.0558 13.3274C46.1428 13.6064 46.6245 13.7575 46.8044 13.7923C46.8566 13.804 46.903 13.8388 46.9263 13.8912C46.9437 13.9435 47.0423 13.9493 47.0075 13.99C46.9901 14.0132 46.4794 14.6119 45.0866 14.6119C44.6049 14.6119 44.2567 14.484 44.0594 14.2341C43.717 13.8098 43.8621 13.1414 43.9665 12.6532C44.0188 12.4149 43.9723 12.2347 43.8563 12.1882C43.7228 12.1417 43.5023 12.2521 43.334 12.5602C42.9741 13.2286 42.8175 14.513 43.6067 15.2919C44.5353 16.2044 46.0267 16.0416 46.0383 16.0416C46.0964 16.0358 46.1602 16.0649 46.1892 16.1114C46.2182 16.1579 46.224 16.2276 46.195 16.2799C46.195 16.2799 45.9049 16.803 46.1196 17.1459C46.2124 17.2912 46.4678 17.3784 46.6071 17.3959C46.6419 17.1634 46.8508 16.8786 46.903 16.8088C47.0946 16.5473 47.466 16.2334 48.0231 15.9196C49.1025 15.3093 50.1355 14.1934 50.6811 13.1065C51.1976 12.0836 51.6386 9.32864 50.3909 7.30603C49.474 5.81813 47.8664 5.06256 45.6089 5.06256C43.3514 5.06256 41.4304 5.98668 39.6604 7.80006C39.5966 7.86399 39.4979 7.86399 39.4341 7.80006C39.3702 7.73613 39.3702 7.63732 39.4341 7.57339C41.2679 5.69026 43.3514 4.73708 45.6147 4.73708C47.9883 4.73708 49.6887 5.54496 50.6695 7.13167C51.8824 9.10197 51.6212 11.9499 50.9712 13.246C50.3909 14.4026 49.4275 15.4837 48.1914 16.2044C47.3615 16.6868 46.9495 17.3087 46.9321 17.4482C46.9263 17.5935 46.9321 17.6342 46.845 17.6806C46.8044 17.7039 46.7406 17.7155 46.6709 17.7155ZM46.1138 16.3439C47.9883 15.6115 49.1838 14.8676 50.1588 13.06C51.3891 10.7759 50.1588 8.29409 50.1065 8.18947C50.0717 8.1081 50.0427 8.07323 50.0427 8.07323C50.0311 8.07323 50.0601 8.12554 50.0891 8.21272C50.0949 8.23597 51.0293 10.7584 49.8744 12.9031C48.9458 14.6351 47.8374 15.3151 45.9977 16.0358C45.9165 16.0707 45.8758 16.1637 45.9049 16.2451C45.9281 16.309 45.9919 16.3497 46.0558 16.3497C46.0732 16.3497 46.0964 16.3497 46.1138 16.3381V16.3439ZM46.6767 14.2108C46.7057 14.1992 49.6655 12.8857 49.6655 9.90405C49.6655 6.92243 47.5646 6.19592 47.4776 6.15523C47.3963 6.12036 47.3499 6.10874 47.3499 6.10874C47.3499 6.12036 47.4079 6.15523 47.4892 6.19592C47.4892 6.19592 47.9593 6.4284 48.4235 6.98636C48.853 7.49783 49.3405 8.45683 49.3405 9.90405C49.3405 12.6706 46.6187 13.8853 46.5897 13.897C46.5084 13.9318 46.4794 13.9958 46.5142 14.0771C46.5374 14.1411 46.6013 14.1759 46.6651 14.1759C46.6883 14.1759 46.6535 14.2224 46.6709 14.2166L46.6767 14.2108ZM48.8994 13.4436C48.9575 13.3739 48.9923 13.3158 48.9807 13.3099C48.9633 13.3041 48.9226 13.3623 48.8646 13.432C48.8472 13.4494 47.1816 15.2686 45.4522 15.2686C43.9027 15.2686 43.7344 14.2515 43.7344 13.8098C43.7344 13.4669 44.1 12.9496 44.2393 12.781C44.2973 12.7113 44.2857 12.6125 44.2161 12.5544C44.1464 12.4962 44.0478 12.5079 43.9897 12.5776C43.9317 12.6474 43.4152 13.2983 43.4152 13.8156C43.4152 14.2341 43.5603 15.5941 45.4522 15.5941C47.3441 15.5941 48.8298 13.5366 48.8994 13.4494V13.4436ZM21.3043 54.2621C23.3296 53.739 24.7979 52.2046 25.7323 51.0945C26.9684 49.6182 28.0884 46.5785 28.1407 46.4448C28.2277 46.1716 37.0953 19.2848 38.8131 14.1178C38.9292 13.7749 39.0743 13.4087 39.2484 13.0426C39.2716 12.9903 39.2658 12.9322 39.2368 12.8857L37.5596 10.4039C37.5306 10.3574 37.4783 10.3283 37.4203 10.3341C37.3681 10.3341 37.3158 10.3632 37.2868 10.4097C36.0159 12.5137 35.4181 14.4317 35.4181 14.4491L26.4112 40.3014L17.4682 14.4549C17.4682 14.4549 16.9575 12.8043 15.8897 10.9095C15.8607 10.8572 15.8084 10.8282 15.7504 10.8282C15.6924 10.8282 15.6401 10.8572 15.6111 10.9095L13.9804 13.6703C13.9572 13.711 13.9514 13.7633 13.9688 13.8098C14.0094 13.9144 14.0442 14.019 14.079 14.1236C15.5183 18.4653 21.7569 37.1861 24.3801 45.0441C24.3917 45.0964 24.4091 45.1487 24.4323 45.2126C24.4845 45.3521 24.5542 45.5439 24.5658 45.8403L23.4051 49.2869C22.2676 52.2918 19.9927 53.1694 18.2865 53.3786C14.6187 53.8262 11.3746 52.7626 8.64124 50.211C5.29849 47.0957 6.0007 42.1845 6.0065 42.1322C6.01811 42.045 5.96007 41.9636 5.87302 41.9462C5.78597 41.9346 5.70472 41.9927 5.68731 42.0799C5.68151 42.1322 4.95028 47.2062 8.42071 50.4435C11.2238 53.059 14.5607 54.1516 18.3271 53.6925C20.1204 53.4716 22.5114 52.5475 23.7069 49.3915L24.8792 45.9159C24.8792 45.9159 24.8908 45.881 24.885 45.8578C24.8734 45.4916 24.7863 45.2533 24.7341 45.1022C24.7167 45.0499 24.6992 45.0092 24.6934 44.9743C24.6934 44.9685 24.6934 44.9627 24.6934 44.9511C22.0761 37.0989 15.8317 18.3607 14.3924 14.019C14.3634 13.9376 14.3344 13.8505 14.3054 13.7691L15.7562 11.3164C16.7138 13.0716 17.1664 14.5363 17.178 14.5537L26.272 40.8419C26.2952 40.9058 26.3532 40.9523 26.4229 40.9523C26.4925 40.9523 26.5505 40.9117 26.5737 40.8419L35.7315 14.5479C35.7315 14.5479 36.2828 12.7752 37.4435 10.7933L38.9234 12.9845C38.7609 13.339 38.6216 13.6819 38.5113 14.0132C36.7935 19.1802 27.9317 46.0728 27.8447 46.3344C27.8331 46.3634 26.6956 49.4496 25.4943 50.8794C24.5948 51.9547 23.1672 53.4426 21.2346 53.9424C16.3133 55.2094 12.2742 54.4713 8.52518 51.6234C3.90567 48.1129 4.93868 41.7777 4.95028 41.7137C4.96769 41.6265 4.90966 41.5452 4.8168 41.5277C4.72975 41.5103 4.64851 41.5742 4.63109 41.6614C4.61949 41.7254 3.55166 48.2523 8.32786 51.8849C10.9626 53.8901 13.7366 54.8723 16.8414 54.8723C18.2575 54.8723 19.7431 54.6689 21.3159 54.2621H21.3043ZM19.865 54.3086C22.8944 53.6169 24.3568 50.6121 24.9604 48.8859C25.0126 48.7289 24.9314 48.5546 24.7747 48.5023C24.618 48.45 24.4439 48.5313 24.3917 48.6883C23.8287 50.2982 22.4765 53.0997 19.7315 53.7215C16.1044 54.5469 12.9125 54.018 9.98183 52.1058C7.86939 50.7283 6.65648 49.3973 6.05293 47.799C5.08376 45.2417 5.13599 43.2365 5.28108 41.7777C5.29849 41.6091 5.17662 41.4638 5.01412 41.4464C4.85162 41.4347 4.70074 41.551 4.68333 41.7137C4.52663 43.2423 4.4744 45.3347 5.49 48.0141C6.14578 49.7403 7.42833 51.1584 9.65103 52.6114C11.7925 54.0122 14.0674 54.7038 16.5281 54.7038C17.6017 54.7038 18.7101 54.5701 19.8592 54.3086H19.865ZM11.601 36.6921C11.601 36.6921 12.8661 36.4828 14.3924 37.6976C15.1352 38.2904 13.8411 36.9187 13.3072 36.6688C12.7733 36.4131 11.601 36.2562 11.5487 36.2678C11.4965 36.2794 11.601 36.6921 11.601 36.6921ZM27.2527 48.4151L37.3274 18.0991C37.3274 18.0991 37.8381 16.0358 38.8421 13.6529C38.9466 13.4087 39.0569 13.1588 39.1787 12.9147C39.1787 12.9031 39.1671 12.8973 39.1613 12.8857C38.8944 12.3568 38.3082 11.5721 37.873 10.9851C37.2868 11.8802 36.8225 12.7229 36.3989 13.9376C34.8494 18.3607 30.166 31.8854 26.7478 41.7602C25.709 38.7902 19.4124 20.8076 17.0852 14.1643C16.6731 12.9903 16.2147 11.9092 15.6285 11.02L14.4969 13.124C14.6187 13.432 16.0928 17.826 16.0928 17.826L25.3608 45.7764C24.6238 47.9153 24.0028 49.7112 23.5734 50.9608C22.7957 53.2275 19.6039 54.4306 19.6039 54.4306C19.6039 54.4306 22.848 53.7332 24.2698 52.4894C25.2564 51.6234 27.2527 48.4209 27.2527 48.4209V48.4151ZM21.4435 52.1988C17.2709 50.6876 14.5143 47.3573 12.7849 43.2074H12.6746C12.4889 47.6072 15.3152 51.3153 19.9289 53.0938C20.0623 53.1461 21.6002 52.2569 21.4435 52.1988ZM14.6942 40.3711C14.9089 39.046 14.2996 38.0986 14.1371 38.2497C14.1255 38.2613 14.4098 38.5752 14.2821 39.2261C14.1893 39.6911 13.8353 40.1619 13.2433 40.034C13.0054 39.9817 12.93 39.5574 12.5527 39.5574C11.8099 39.5574 11.363 39.9875 11.363 40.7373C11.363 41.4871 12.0246 42.0857 12.8429 42.0857C13.6612 42.0857 14.5259 41.4231 14.7 40.3711H14.6942ZM12.1059 9.44489L13.2085 8.42777C10.8465 6.44003 8.59482 5.79488 7.1962 5.98668C4.36994 6.3819 4.10299 8.48008 4.10299 8.48008C4.10299 8.48008 4.87484 6.61439 7.21941 6.61439C9.18676 6.61439 10.8059 7.8175 12.1059 9.43908V9.44489ZM45.6843 5.98668C44.6223 5.84719 42.3474 6.34703 40.1827 8.14297L41.4421 9.37514C41.9992 8.73 42.5969 8.16041 43.2411 7.71288C44.013 7.17816 44.9763 6.7655 45.8933 6.7655C48.2378 6.7655 48.911 8.66025 48.911 8.66025C48.911 8.66025 48.5802 6.3819 45.6785 5.99249L45.6843 5.98668ZM43.125 14.8908C42.6898 14.0888 43.2527 12.4091 43.2527 12.4091C40.8501 9.07872 37.6408 6.53302 33.77 5.1323C32.7253 4.75451 30.8741 4.08031 29.4058 3.16781C27.8041 2.17394 26.6144 0.959205 26.6144 0.959205C26.6144 0.959205 25.3376 2.13325 23.7765 3.12712C22.3373 4.04544 20.6485 4.77195 19.6155 5.15555C15.6401 6.65507 12.3264 9.42164 9.89478 13.031C9.89478 13.031 10.33 14.0365 9.63363 15.1408C9.23319 15.7801 8.13054 16.0998 8.13054 16.0998C6.27926 19.9241 5.26367 24.4053 5.26367 29.177C5.26367 32.6061 5.72794 35.8609 6.62746 38.8251C6.78996 38.8716 6.91763 38.9007 6.98728 38.9065C7.5444 38.9588 7.84618 38.674 8.11313 39.5168L8.38009 40.3595L9.04748 40.6269C9.04748 40.6269 9.47693 38.8542 10.1559 38.4357C10.8059 38.0347 11.247 38.0056 11.3572 38.3369C10.6782 35.2681 10.3939 32.0017 10.3939 28.8167C10.3939 17.4075 14.6942 4.84169 26.597 4.84169C39.347 4.84169 43.0844 17.5528 43.0844 29.3223C43.0844 32.2923 42.8233 35.2972 42.2255 38.1218C42.2893 38.1509 42.3474 38.18 42.4054 38.2265C42.9799 38.6972 43.3456 38.7495 43.5545 39.4296C43.6009 39.5807 43.7634 40.5281 43.9607 40.5222C44.0884 40.5222 44.3031 40.3828 44.4598 40.3421C44.6165 40.3014 44.7674 39.5516 44.8719 39.4063C45.0285 39.1796 45.4 39.1157 45.4 39.1157L46.6535 38.8135C47.6749 35.7854 48.2262 32.455 48.2262 28.9561C48.2262 24.289 47.2629 19.9067 45.4812 16.1579C45.4812 16.1579 43.8272 16.1579 43.1366 14.885L43.125 14.8908ZM26.5447 3.95244C26.1385 3.95244 25.8077 3.62115 25.8077 3.2143C25.8077 2.80746 26.1385 2.47617 26.5447 2.47617C26.951 2.47617 27.2818 2.80746 27.2818 3.2143C27.2818 3.62115 26.951 3.95244 26.5447 3.95244ZM40.1421 44.2711C37.6873 49.4613 33.4624 53.088 26.8001 53.088C25.9702 53.088 24.7573 52.9543 24.0028 52.8497C23.6895 53.0067 23.6082 53.0415 23.3529 53.152C22.964 53.3205 22.7145 53.7041 22.4185 53.8262C23.6837 54.0877 25.0591 54.233 26.5273 54.233C32.3655 54.233 36.3467 51.7047 39.1787 47.9094C40.2349 46.4971 39.997 45.1545 40.1653 44.6082C40.1653 44.6082 40.2988 43.9223 40.1363 44.2652L40.1421 44.2711ZM67.714 47.3457H70.726V51.17H70.2965V47.7409H68.1493V51.17H67.7198V47.3457H67.714ZM72.8907 47.3457H74.3183C75.183 47.3457 75.7459 47.8048 75.7459 48.572C75.7459 49.3973 75.0611 49.8216 74.2487 49.8216H73.3201V51.17H72.8907V47.3457ZM74.2661 49.4264C74.8986 49.4264 75.3107 49.0893 75.3107 48.572C75.3107 48.0257 74.8986 47.7409 74.2835 47.7409H73.3201V49.4264H74.2661ZM77.6262 47.3457H78.0557V50.5191L80.3364 47.3457H80.7427V51.17H80.319V47.9966L78.0441 51.17H77.6262V47.3457ZM82.9131 47.3457H83.3484L84.7412 49.4322L86.134 47.3457H86.5693V51.17H86.1398V48.0722L84.747 50.118H84.7238L83.331 48.0722V51.1642H82.9131V47.3399V47.3457ZM88.5657 49.2578C88.5657 48.2059 89.3549 47.2817 90.5156 47.2817C91.6763 47.2817 92.4597 48.1942 92.4597 49.2578C92.4597 50.3215 91.6705 51.234 90.5098 51.234C89.3491 51.234 88.5657 50.3215 88.5657 49.2578ZM92.0129 49.2578C92.0129 48.3918 91.3803 47.677 90.5098 47.677C89.6393 47.677 89.0125 48.3744 89.0125 49.2578C89.0125 50.1413 89.6451 50.8387 90.5156 50.8387C91.3861 50.8387 92.0129 50.1413 92.0129 49.2578ZM94.4619 47.3457H95.8895C96.7542 47.3457 97.3172 47.8048 97.3172 48.572C97.3172 49.3973 96.6324 49.8216 95.8199 49.8216H94.8913V51.17H94.4619V47.3457ZM95.8373 49.4264C96.4699 49.4264 96.8819 49.0893 96.8819 48.572C96.8819 48.0257 96.4699 47.7409 95.8547 47.7409H94.8913V49.4264H95.8373ZM99.0234 49.2578C99.0234 48.1768 99.83 47.2817 100.956 47.2817C101.647 47.2817 102.053 47.5375 102.436 47.8978L102.151 48.2059C101.832 47.8978 101.467 47.6828 100.95 47.6828C100.103 47.6828 99.4702 48.3686 99.4702 49.2637C99.4702 50.1587 100.109 50.8446 100.95 50.8446C101.472 50.8446 101.815 50.6411 102.18 50.2924L102.465 50.5946C102.064 51.0015 101.629 51.2456 100.938 51.2456C99.8358 51.2456 99.0234 50.3796 99.0234 49.2695V49.2578ZM104.304 47.3457H104.734V49.6298L106.928 47.3457H107.485L105.848 49.0196L107.554 51.17H107.015L105.546 49.316L104.734 50.1413V51.17H104.304V47.3457ZM109.313 47.3457H109.742V50.5191L112.023 47.3457H112.435V51.17H112.011V47.9966L109.736 51.17H109.319V47.3457H109.313ZM114.6 47.3457H117.362V47.7409H115.035V49.0486H117.118V49.4438H115.035V50.7806H117.391V51.1758H114.605V47.3515L114.6 47.3457ZM122.069 47.3457H123.496C124.361 47.3457 124.924 47.8048 124.924 48.572C124.924 49.3973 124.239 49.8216 123.427 49.8216H122.498V51.17H122.069V47.3457ZM123.444 49.4264C124.077 49.4264 124.489 49.0893 124.489 48.572C124.489 48.0257 124.077 47.7409 123.461 47.7409H122.498V49.4264H123.444ZM126.804 47.3457H129.567V47.7409H127.239V49.0486H129.323V49.4438H127.239V50.7806H129.596V51.1758H126.81V47.3515L126.804 47.3457ZM131.221 50.6179L131.476 50.3157C131.865 50.6818 132.265 50.862 132.817 50.862C133.287 50.862 133.704 50.5772 133.704 50.1239C133.704 49.624 133.258 49.4206 132.671 49.4206H132.254V49.066H132.671C133.217 49.066 133.606 48.7987 133.606 48.3453C133.606 47.9501 133.246 47.6653 132.741 47.6653C132.312 47.6653 131.952 47.799 131.615 48.0954L131.366 47.7932C131.749 47.4677 132.143 47.2875 132.753 47.2875C133.513 47.2875 134.041 47.7176 134.041 48.3105C134.041 48.8219 133.693 49.0835 133.345 49.2113C133.797 49.345 134.146 49.6414 134.146 50.1529C134.146 50.7574 133.606 51.2398 132.811 51.2398C132.149 51.2398 131.667 51.0305 131.221 50.6237V50.6179ZM136.107 47.3457H136.537V50.5191L138.817 47.3457H139.229V51.17H138.806V47.9966L136.531 51.17H136.113V47.3457H136.107ZM140.912 50.7748H141.307C141.673 50.1878 141.887 49.252 141.887 48.0082V47.3399H144.383V50.769H144.882L144.818 52.0128H144.458V51.1584H141.359L141.284 52.0128H140.918V50.769L140.912 50.7748ZM143.953 50.7748V47.7351H142.299V48.2349C142.299 49.223 142.108 50.2517 141.794 50.7748H143.953ZM146.6 47.3457H149.362V47.7409H147.035V49.0486H149.118V49.4438H147.035V50.7806H149.391V51.1758H146.605V47.3515L146.6 47.3457ZM151.341 47.3457H151.77V49.0428H153.976V47.3457H154.405V51.17H153.976V49.4496H151.77V51.17H151.341V47.3457ZM159.692 51.17H156.576V47.3457H157.005V50.7748H159.187V47.3457H159.617V50.7748H160.116L160.052 52.0186H159.692V51.1642V51.17ZM161.839 47.3457H162.269V50.5191L164.55 47.3457H164.956V51.17H164.532V47.9966L162.257 51.17H161.839V47.3457ZM167.126 47.3457H167.556V50.5191L169.836 47.3457H170.248V51.17H169.825V47.9966L167.55 51.17H167.132V47.3457H167.126Z" fill="white"/>
</g>
<defs>
<clipPath id="clip0_8_238300">
<rect width="195" height="55" fill="white"/>
</clipPath>
</defs>
</svg>
