<svg width="197" height="245" viewBox="0 0 197 245" fill="none" xmlns="http://www.w3.org/2000/svg">
<g clip-path="url(#clip0_1_14)">
<path d="M54 156.99L58.09 145H58.66L53.61 158.89C52.94 160.98 52.08 162.27 51.07 162.27C50.93 162.27 50.78 162.25 50.64 162.19V161.04C50.76 161.1 50.91 161.12 51.05 161.12C51.83 161.12 52.77 160.4 53.22 158.89L48.17 145H49.64L54 156.99ZM68.96 145.02C66.79 145.02 64.6 147.13 64.6 151.65C64.6 156.17 66.13 158.67 68.96 158.67C71.07 158.67 72.68 157.56 73.22 155.7L73.53 155.78C72.9 157.89 71.03 158.95 68.93 158.95C65.82 158.95 62.94 156.47 62.94 151.65C62.94 147.25 66.17 144.73 69 144.73C70.1 144.73 71.13 145.1 71.89 145.9L72.26 144.75H72.49C72.59 146.08 73 147.74 73.62 149.03L73.48 149.09C72.78 148.29 72.21 147.31 71.74 146.37C70.96 145.47 69.94 145.02 68.92 145.02H68.96ZM85.65 154.29H80.29L78.78 158.69H78.25L83.3 144.8H83.69L88.74 158.69H87.27L85.65 154.29ZM80.41 153.96H85.53L82.91 146.74L80.41 153.96ZM103.16 163.02C102.77 161.79 102.44 160.61 102.44 159.48C102.44 159.23 102.46 158.95 102.5 158.7H95.05C95.09 158.97 95.11 159.25 95.11 159.52C95.11 160.65 94.78 161.81 94.41 163.02H94.27C94.27 161.4 94.25 159.89 93.64 158.38L94.11 158.36C95.93 158.36 98.08 153.25 98.08 148.81C98.08 147.48 97.88 146.19 97.41 145.13V144.99H101.95V158.37H103.93C103.32 159.88 103.3 161.38 103.3 163.01H103.16V163.02ZM98.54 146.39C98.54 151.94 96.98 157.27 94.88 158.38H100.47V145.33H98.51C98.53 145.68 98.53 146.03 98.53 146.39H98.54ZM110.08 145H111.55V149.99H113.23C116.65 149.99 118.45 152.24 118.45 154.45C118.45 156.66 116.77 158.69 113.23 158.69H110.08V145ZM111.55 150.32V158.36H113.23C115.56 158.36 116.71 156.37 116.71 154.37C116.71 152.37 115.54 150.32 113.23 150.32H111.55ZM133.67 150.32C132.52 148.7 131.54 147.05 130.91 145.33H125.9V151.47H127.52C130.88 151.47 132.57 153.27 132.57 155.07C132.57 156.87 130.89 158.69 127.5 158.69H124.43V145H132.23C132.52 146.76 133.09 148.52 133.79 150.28L133.65 150.32H133.67ZM125.9 151.81V158.36H127.6C129.79 158.36 130.89 156.74 130.89 155.09C130.89 153.44 129.79 151.8 127.6 151.8H125.9V151.81ZM145.31 154.29H139.95L138.44 158.69H137.91L142.96 144.8H143.35L148.4 158.69H146.93L145.31 154.29ZM140.07 153.96H145.19L142.57 146.74L140.07 153.96ZM9.92 197.06C4.63 197.06 0 193.06 0 185.6C0 178.14 4.63 174.14 9.92 174.14C15.21 174.14 19.87 178.14 19.87 185.6C19.87 193.06 15.24 197.06 9.92 197.06ZM9.92 174.58C5.1 174.58 2.65 178.36 2.65 185.6C2.65 192.84 5.11 196.62 9.92 196.62C14.73 196.62 17.22 192.84 17.22 185.6C17.22 178.36 14.73 174.58 9.92 174.58ZM46.48 183.18C45.09 180.85 43.9 178.21 43.17 175.15H38.79V196.65H36.43V175.15H32.05C31.33 178.2 30.13 180.85 28.74 183.18L28.52 183.12C29.18 180.63 29.78 177.83 29.91 174.62H45.31C45.44 177.83 46.03 180.63 46.7 183.12L46.48 183.18ZM56.62 174.62H62.22C67.29 174.62 69.68 177.55 69.68 180.54C69.68 183.53 67.1 186.74 62.22 186.74H58.98V196.66H56.62V174.62ZM58.98 175.16V186.21H61.94C65.37 186.21 67.14 183.44 67.14 180.67C67.14 177.9 65.41 175.16 61.94 175.16H58.98ZM86.66 189.58H78.03L75.61 196.66H74.76L82.88 174.3H83.51L91.63 196.66H89.27L86.66 189.58ZM78.22 189.04H86.47L82.25 177.42L78.22 189.04ZM114.84 203.62C114.21 201.64 113.68 199.75 113.68 197.92C113.68 197.51 113.71 197.07 113.77 196.66H101.77C101.83 197.1 101.86 197.54 101.86 197.98C101.86 199.81 101.32 201.66 100.73 203.62H100.51C100.51 201.01 100.48 198.58 99.5 196.16L100.26 196.13C103.19 196.13 106.65 187.91 106.65 180.77C106.65 178.63 106.34 176.55 105.58 174.85V174.63H112.88V196.17H116.06C115.08 198.59 115.05 201.02 115.05 203.63H114.83L114.84 203.62ZM107.41 176.86C107.41 185.8 104.89 194.37 101.52 196.16H110.52V175.16H107.37C107.4 175.73 107.4 176.29 107.4 176.86H107.41ZM138.14 185.05H128.51V196.67H126.15V174.63H128.51V184.52H138.14V174.63H140.5V196.67H138.14V185.05ZM160.94 197.08C155.65 197.08 151.02 193.08 151.02 185.62C151.02 178.16 155.65 174.16 160.94 174.16C166.23 174.16 170.89 178.16 170.89 185.62C170.89 193.08 166.26 197.08 160.94 197.08ZM160.94 174.6C156.12 174.6 153.67 178.38 153.67 185.62C153.67 192.86 156.13 196.64 160.94 196.64C165.75 196.64 168.24 192.86 168.24 185.62C168.24 178.38 165.75 174.6 160.94 174.6ZM194.98 181.02C193.22 179.1 191.86 177.15 190.86 175.16H183.33V184.51H190.67V185.04H183.33V196.12H191.86C192.99 193.41 194.47 190.74 196.36 188.09L196.58 188.15C195.38 190.89 194.44 193.72 194 196.65H180.96V174.61H192.99C193.27 176.75 194.06 178.83 195.19 180.91L194.97 181L194.98 181.02ZM98.88 121.29C94.56 121.29 90.38 120.8 86.47 119.83C86.28 119.78 86.16 119.59 86.21 119.4C86.26 119.21 86.45 119.09 86.64 119.14C90.5 120.09 94.61 120.58 98.88 120.58C112.69 120.58 125.2 114.66 134.11 103.92C134.24 103.77 134.46 103.75 134.61 103.87C134.76 104 134.78 104.22 134.66 104.37C125.61 115.28 112.9 121.29 98.88 121.29ZM81.11 118.13C81.11 118.13 81.02 118.13 80.98 118.11C73.79 115.33 67.63 110.78 62.67 104.6C62.55 104.45 62.57 104.22 62.72 104.1C62.87 103.98 63.1 104 63.22 104.15C68.1 110.23 74.16 114.7 81.23 117.44C81.41 117.51 81.5 117.72 81.43 117.9C81.38 118.04 81.24 118.13 81.1 118.13H81.11ZM99.23 116.17C98.03 116.17 95.28 116.01 94.09 115.7C93.9 115.65 93.79 115.46 93.84 115.27C93.89 115.08 94.08 114.96 94.27 115.02C95.39 115.31 98.1 115.47 99.23 115.47C110.97 115.47 119.91 110.17 125.81 99.71C126.51 98.46 127.18 97.12 127.8 95.72C127.88 95.54 128.09 95.46 128.27 95.54C128.45 95.62 128.53 95.83 128.45 96.01C127.82 97.43 127.14 98.79 126.43 100.06C120.39 110.75 111.24 116.18 99.23 116.18V116.17ZM88.55 114.54C88.55 114.54 88.47 114.54 88.44 114.52C81.2 112.11 75.42 107.04 71.26 99.44C70.56 98.17 69.9 96.81 69.3 95.41C69.22 95.23 69.3 95.02 69.49 94.94C69.67 94.86 69.88 94.94 69.96 95.13C70.55 96.51 71.2 97.85 71.89 99.1C75.96 106.54 81.61 111.5 88.67 113.85C88.86 113.91 88.96 114.11 88.9 114.3C88.85 114.45 88.71 114.54 88.56 114.54H88.55ZM131.1 87.6C131.1 87.6 131.04 87.6 131.01 87.59C130.82 87.54 130.71 87.35 130.76 87.16C131.02 86.19 131.26 85.19 131.48 84.18C132.76 78.28 133.41 71.73 133.41 64.7C133.41 48.96 130.02 12.34 98.62 12.34C87.17 12.34 78.31 17.78 72.28 28.51C67.23 37.49 64.46 49.94 64.46 63.58C64.46 71.36 65.22 78.56 66.71 84.98C66.75 85.17 66.64 85.36 66.44 85.41C66.25 85.45 66.06 85.34 66.01 85.14C64.51 78.66 63.74 71.4 63.74 63.57C63.74 49.81 66.55 37.23 71.66 28.15C77.83 17.18 86.9 11.62 98.62 11.62C130.66 11.62 134.12 48.73 134.12 64.69C134.12 71.77 133.47 78.37 132.17 84.32C131.95 85.34 131.71 86.35 131.45 87.33C131.41 87.49 131.26 87.6 131.11 87.6H131.1ZM53 85.3C52.84 85.3 52.7 85.2 52.66 85.04C50.81 78.59 49.88 71.63 49.88 64.36C49.88 54.18 51.96 44.31 55.89 35.81C55.93 35.72 56.28 35.35 56.46 35.44C56.64 35.52 56.74 35.67 56.66 35.85C52.69 44.32 50.59 54.18 50.59 64.37C50.59 71.57 51.52 78.47 53.35 84.86C53.4 85.05 53.29 85.25 53.11 85.3C53.08 85.3 53.04 85.31 53.01 85.31L53 85.3ZM144.86 83.91C144.86 83.91 144.79 83.91 144.76 83.9C144.57 83.84 144.46 83.65 144.52 83.46C146.34 77.26 147.26 70.67 147.26 63.88C147.26 54.94 145.72 46.52 142.68 38.87L142.61 38.7C142.54 38.52 142.75 38.6 142.93 38.53C143.11 38.46 143.2 38.26 143.27 38.44C143.31 38.54 143.35 38.63 143.38 38.73C146.42 46.44 147.97 54.9 147.97 63.89C147.97 70.75 147.04 77.4 145.2 83.67C145.15 83.83 145.01 83.93 144.86 83.93V83.91ZM139.71 32.14C139.59 32.14 139.46 32.07 139.4 31.96C139.16 31.52 138.91 31.09 138.65 30.67C138.14 29.82 137.6 28.98 137.06 28.17C136.95 28.01 136.99 27.79 137.16 27.68C137.32 27.57 137.54 27.61 137.65 27.78C138.21 28.6 138.75 29.46 139.27 30.32C139.53 30.75 139.78 31.19 140.03 31.63C140.13 31.8 140.07 32.02 139.89 32.11C139.83 32.14 139.77 32.16 139.72 32.16L139.71 32.14ZM61.16 27.68C61.09 27.68 61.02 27.66 60.96 27.62C60.8 27.51 60.76 27.29 60.87 27.12C66.51 19.07 74.03 13.11 82.62 9.88001C84.15 9.30001 88.08 7.73001 91.51 5.55001C94.79 3.46001 97.52 0.960009 97.55 0.940009L98.45 0.110009C98.59 -0.0199914 98.81 -0.00999141 98.94 0.120009L99.8 0.990009C99.8 0.990009 102.32 3.55001 105.66 5.62001C108.81 7.57001 112.84 9.02001 115 9.81001C123.5 12.89 130.94 18.55 136.54 26.2C136.66 26.36 136.62 26.58 136.46 26.7C136.3 26.82 136.08 26.78 135.96 26.62C130.45 19.09 123.12 13.51 114.76 10.48C112.57 9.69001 108.5 8.21001 105.28 6.23001C101.9 4.15001 99.3 1.52001 99.28 1.49001L98.67 0.870009L98.02 1.46001C98.02 1.46001 95.23 4.02001 91.88 6.15001C88.4 8.36001 84.41 9.96001 82.86 10.54C74.4 13.72 66.99 19.59 61.44 27.52C61.37 27.62 61.26 27.67 61.15 27.67L61.16 27.68ZM105.65 118.57C105.76 118.55 116.64 116.78 124.57 107.98C128.6 103.5 129.44 101.04 128.63 96.02L128.51 95.27C128.01 92.2 127.84 91.17 129.18 89.66C129.85 88.91 130.41 88.41 130.86 88.01C131.46 87.47 131.9 87.09 132.1 86.5C132.28 85.97 132.17 85.5 132.08 85.13C132 84.79 131.96 84.59 132.06 84.43C132.08 84.41 132.18 84.37 132.4 84.39C133.15 84.46 134.33 85.08 134.9 85.9C135.73 87.11 136.41 89.68 136.42 89.71C136.45 89.81 136.51 89.89 136.6 89.94C136.69 89.99 136.8 89.99 136.89 89.95L138.36 89.36C138.54 89.29 138.63 89.08 138.56 88.9C138.49 88.72 138.28 88.63 138.1 88.7L137 89.14C136.77 88.34 136.2 86.52 135.49 85.5C134.74 84.42 133.21 83.68 132.29 83.68H132.28C131.81 83.68 131.59 83.88 131.48 84.04C131.2 84.47 131.3 84.91 131.4 85.3C131.48 85.63 131.55 85.94 131.44 86.28C131.3 86.69 130.97 86.99 130.41 87.49C129.95 87.9 129.37 88.41 128.67 89.2C127.1 90.96 127.32 92.26 127.83 95.4L127.95 96.15C128.73 100.96 127.96 103.19 124.07 107.52C116.32 116.13 105.68 117.87 105.57 117.89C105.38 117.92 105.24 118.1 105.27 118.3C105.3 118.48 105.45 118.6 105.62 118.6C105.64 118.6 105.66 118.6 105.67 118.6L105.65 118.57ZM127.1 111.66C132.63 107.4 135.3 103.58 137.66 100.22C139.57 97.49 141.22 95.14 144 93.14C147.93 90.32 152.2 90.85 154.49 91.14C155.78 91.3 156.55 91.4 156.68 90.77C156.74 90.47 156.62 90.13 156.32 89.72C155.41 88.5 152.64 86.58 150 86.33C148.34 86.17 147.12 87.05 146.32 87.98C146.39 87.46 146.43 86.88 146.4 86.28C146.3 84.25 145.49 83.02 145.46 82.97C145.39 82.87 145.29 82.79 145.15 82.81C145.03 82.81 144.91 82.88 144.85 82.99C144.85 83 144 84.48 142.92 85.11C142.56 85.32 142.01 85.39 141.44 85.45C140.37 85.57 139.05 85.73 138.47 87.03C138.07 87.94 138.09 89.11 138.12 90.35C138.15 91.66 138.07 92.98 137.69 94.08C136.65 97.1 134.62 98.62 134.6 98.64C134.45 98.76 134.56 98.85 134.71 98.72C134.82 98.63 137.33 96.58 138.34 94.38C138.89 93.17 138.86 91.73 138.83 90.34C138.81 89.18 138.78 88.08 139.12 87.32C139.54 86.38 140.5 86.27 141.53 86.15C142.18 86.07 142.8 86 143.29 85.72C144.09 85.25 144.76 84.42 145.14 83.87C145.36 84.37 145.64 85.21 145.7 86.31C145.79 88.17 145.14 89.87 145.14 89.89C145.07 90.07 145.16 90.28 145.34 90.35C145.52 90.42 145.73 90.33 145.8 90.15C145.81 90.12 147.2 86.78 149.94 87.04C152.29 87.27 154.91 89 155.76 90.15C155.91 90.35 155.96 90.48 155.98 90.55C155.73 90.58 155.13 90.51 154.59 90.44C152.2 90.14 147.75 89.59 143.6 92.57C140.72 94.64 139.04 97.04 137.09 99.82C134.76 103.14 132.13 106.91 126.68 111.11C126.52 111.23 126.5 111.45 126.62 111.61C126.69 111.7 126.8 111.75 126.9 111.75C126.98 111.75 127.05 111.73 127.12 111.68L127.1 111.66ZM60.01 89.93C60.1 89.88 60.17 89.8 60.19 89.7C60.19 89.67 60.87 87.1 61.7 85.89C62.26 85.08 63.45 84.45 64.2 84.38C64.43 84.36 64.53 84.4 64.54 84.41C64.56 84.44 64.56 84.45 64.56 84.45C64.56 84.49 64.46 84.61 64.4 84.68C64.19 84.93 63.84 85.35 64.05 85.99C64.11 86.18 64.31 86.28 64.5 86.22C64.69 86.16 64.79 85.96 64.73 85.77C64.64 85.51 64.73 85.38 64.94 85.14C65.14 84.91 65.46 84.52 65.13 84.02C65.02 83.86 64.8 83.67 64.33 83.66H64.32C63.4 83.66 61.86 84.4 61.12 85.48C60.41 86.5 59.84 88.33 59.61 89.12L58.51 88.68C58.33 88.61 58.12 88.7 58.05 88.88C57.98 89.06 58.07 89.27 58.25 89.34L59.72 89.93C59.72 89.93 59.81 89.96 59.85 89.96C59.91 89.96 59.96 89.95 60.01 89.92V89.93ZM84.85 117.03C84.93 116.85 84.85 116.64 84.67 116.56C80.58 114.77 76.27 112.68 72.55 108.55C68.73 104.3 68.15 100.83 68.44 95.9C68.45 95.69 68.46 95.49 68.48 95.3C68.49 95.1 68.35 94.93 68.15 94.92C67.96 94.9 67.78 95.05 67.77 95.25C67.76 95.44 67.74 95.64 67.73 95.86C67.44 100.86 68.05 104.61 72.02 109.02C75.83 113.26 80.22 115.39 84.39 117.2C84.44 117.22 84.48 117.23 84.53 117.23C84.67 117.23 84.8 117.15 84.86 117.02L84.85 117.03ZM69.71 111.13C69.83 110.98 69.8 110.75 69.65 110.63C68.34 109.61 66.42 108.04 64.91 106.27C63.59 104.73 62.37 103.09 61.18 101.5C58.63 98.09 56.21 94.87 53.01 92.56C48.86 89.58 44.41 90.13 42.02 90.43C41.48 90.5 40.87 90.57 40.63 90.54C40.65 90.46 40.71 90.34 40.85 90.14C41.7 89 44.32 87.26 46.67 87.03C49.4 86.76 50.8 90.11 50.81 90.14C50.88 90.32 51.09 90.41 51.27 90.34C51.45 90.27 51.54 90.06 51.47 89.88C51.47 89.86 50.81 88.16 50.91 86.3C50.97 85.2 51.25 84.36 51.47 83.86C51.85 84.41 52.51 85.24 53.32 85.71C53.81 86 54.43 86.07 55.08 86.14C56.1 86.26 57.07 86.37 57.49 87.31C57.83 88.07 57.81 89.17 57.78 90.33C57.75 91.72 57.72 93.16 58.27 94.37C59.27 96.58 61.79 98.63 61.9 98.71C62.05 98.83 62.11 98.71 61.96 98.58C61.94 98.56 59.75 96.59 58.82 94.31C58.38 93.23 58.46 91.66 58.49 90.34C58.52 89.1 58.54 87.93 58.14 87.02C57.56 85.71 56.23 85.56 55.17 85.44C54.6 85.37 54.05 85.31 53.69 85.1C52.61 84.47 51.77 82.99 51.76 82.98C51.7 82.87 51.59 82.8 51.46 82.8C51.32 82.8 51.22 82.86 51.15 82.96C51.12 83.01 50.31 84.24 50.21 86.27C50.18 86.87 50.21 87.45 50.29 87.97C49.49 87.04 48.27 86.16 46.61 86.32C43.97 86.58 41.2 88.49 40.29 89.71C39.99 90.12 39.87 90.46 39.93 90.76C40.06 91.39 40.83 91.29 42.12 91.13C44.42 90.84 48.69 90.31 52.61 93.13C55.73 95.37 58.11 98.55 60.63 101.92C61.82 103.52 63.06 105.17 64.39 106.72C65.94 108.54 67.9 110.14 69.23 111.18C69.29 111.23 69.37 111.26 69.45 111.26C69.56 111.26 69.66 111.21 69.73 111.12L69.71 111.13ZM72.05 94.17C73.52 93.05 74.44 91.07 74.51 88.85C74.59 86.23 73.5 83.75 71.51 82.03C68.83 79.71 65.56 79.74 65.43 79.74C65.23 79.74 65.08 79.9 65.08 80.1C65.08 80.29 65.24 80.45 65.44 80.45C65.44 80.45 68.57 80.43 71.05 82.57C72.87 84.15 73.88 86.43 73.8 88.83C73.74 90.83 72.92 92.62 71.62 93.6C70.04 94.8 67.27 95.03 65.31 94.11C64.28 93.63 63.13 92.6 62.95 90.58C62.79 88.83 63.32 87.5 64.3 86.65C66.13 85.05 69.25 85.6 69.28 85.6C69.41 85.62 69.54 85.58 69.62 85.48C69.7 85.38 69.72 85.24 69.68 85.12C69.66 85.06 69.08 83.63 68.01 82.94C66.97 82.27 65.92 82.08 65.88 82.07C65.69 82.04 65.5 82.17 65.47 82.36C65.44 82.55 65.57 82.74 65.76 82.77C65.76 82.77 66.72 82.94 67.63 83.53C68.13 83.85 68.51 84.4 68.75 84.81C67.64 84.72 65.4 84.75 63.85 86.1C62.7 87.1 62.07 88.62 62.26 90.6C62.44 92.46 63.33 93.95 65.03 94.74C65.92 95.16 66.97 95.36 68.02 95.36C69.52 95.36 71.02 94.94 72.07 94.15L72.05 94.17ZM53.58 39.07C53.42 39.07 53.29 39.05 53.2 38.99C53.07 38.9 53.02 38.84 53.01 38.46C53.01 38.13 52.5 36.53 50.42 35.61C47.54 34.33 45.24 31.54 44.08 29.21C42.9 26.84 41.91 20.44 44.84 15.7C47 12.21 50.72 10.44 55.91 10.44C61.1 10.44 65.97 12.76 70.17 17.34C70.3 17.49 70.29 17.71 70.15 17.84C70.01 17.97 69.78 17.96 69.65 17.82C65.59 13.39 60.97 11.15 55.91 11.15C50.85 11.15 47.46 12.81 45.44 16.07C42.69 20.52 43.62 26.71 44.71 28.89C45.95 31.37 48.25 33.95 50.69 34.95C52.92 35.86 53.4 37.35 53.57 37.8C53.65 38.01 53.69 38.19 53.71 38.34C54.03 38.3 54.58 38.11 54.78 37.79C55.26 37.04 54.62 35.89 54.62 35.88C54.55 35.76 54.56 35.62 54.63 35.51C54.7 35.4 54.84 35.34 54.97 35.35C55 35.35 58.3 35.71 60.35 33.7C62.09 31.98 61.75 29.14 60.95 27.68C60.58 27 60.09 26.75 59.8 26.85C59.54 26.95 59.44 27.35 59.56 27.87C59.79 28.94 60.11 30.42 59.36 31.35C58.91 31.91 58.15 32.19 57.09 32.19C54.01 32.19 52.68 30.77 52.64 30.72C52.57 30.62 52.97 30.72 53.02 30.6C53.06 30.49 53.16 30.4 53.28 30.38C53.68 30.3 54.75 29.97 54.94 29.36C55.02 29.1 55.02 28.84 54.99 28.6C54.97 28.63 54.94 28.65 54.91 28.68C54.58 28.99 54.13 29.14 53.55 29.11C52.81 29.07 51.49 28.4 50.31 27C49.41 25.93 47.96 23.62 48.38 20.21C48.63 18.17 49.6 16.6 51.19 15.65C53.21 14.45 56.21 14.34 58.83 15.38C60.84 16.17 63.52 18.41 66 21.36C66.13 21.51 66.11 21.73 65.96 21.86C65.81 21.99 65.59 21.97 65.46 21.82C63.05 18.96 60.48 16.8 58.58 16.05C56.16 15.09 53.4 15.18 51.56 16.27C50.15 17.11 49.32 18.47 49.09 20.3C48.7 23.44 50.03 25.56 50.86 26.55C51.84 27.72 53 28.38 53.59 28.41C53.96 28.43 54.24 28.35 54.42 28.18C54.67 27.95 54.68 27.59 54.68 27.59C54.68 27.43 54.79 27.29 54.95 27.25C55.11 27.21 55.27 27.28 55.35 27.42C55.38 27.46 55.96 28.5 55.62 29.59C55.41 30.29 54.68 30.69 54.12 30.9C54.61 31.17 55.53 31.5 57.09 31.5C57.93 31.5 58.5 31.31 58.81 30.93C59.35 30.26 59.07 28.98 58.87 28.05C58.64 26.97 59.1 26.38 59.56 26.21C60.14 26 60.99 26.27 61.58 27.36C62.49 29.02 62.86 32.26 60.85 34.23C59.1 35.96 56.61 36.13 55.49 36.11C55.68 36.65 55.83 37.49 55.39 38.2C55.04 38.75 54.16 39.08 53.59 39.08L53.58 39.07ZM55.26 35.84C55.33 35.66 55.24 35.45 55.06 35.38C50.99 33.79 48.55 32.28 46.5 28.47C43.95 23.74 46.29 17.31 46.32 17.25C46.4 17.07 46.44 16.96 46.48 16.92C46.52 16.86 46.39 16.96 46.27 17.21C46.14 17.47 43.17 23.77 45.88 28.81C48.03 32.8 50.67 34.43 54.81 36.05C54.85 36.07 54.9 36.07 54.94 36.07C55.08 36.07 55.22 35.98 55.27 35.84H55.26ZM53.9 31.03C53.98 30.85 53.9 30.71 53.71 30.63C53.65 30.6 47.66 27.93 47.66 21.83C47.66 18.64 48.79 16.63 49.73 15.49C50.76 14.26 51.8 13.78 51.81 13.77C51.99 13.69 51.92 13.65 51.74 13.73C51.55 13.81 46.97 15.81 46.95 21.82C46.93 28.4 53.43 31.29 53.49 31.32C53.54 31.34 53.53 31.24 53.57 31.24C53.71 31.24 53.84 31.16 53.9 31.02V31.03ZM60.75 30.45C60.75 29.31 59.61 27.88 59.48 27.72C59.36 27.57 59.13 27.55 58.98 27.67C58.83 27.79 58.81 28.02 58.93 28.17C59.24 28.55 60.04 29.69 60.04 30.44C60.04 31.41 59.67 33.65 56.25 33.65C52.44 33.65 48.72 29.63 48.69 29.59C48.57 29.44 48.49 29.34 48.46 29.34C48.46 29.34 48.46 29.42 48.6 29.62C48.74 29.82 52.09 34.37 56.25 34.37C60.41 34.37 60.75 31.37 60.75 30.45ZM142.96 39.06C142.39 39.06 141.51 38.73 141.16 38.18C140.71 37.48 140.87 36.64 141.06 36.09C139.92 36.11 137.46 35.93 135.7 34.21C133.69 32.23 134.07 29 134.97 27.34C135.57 26.25 136.41 25.97 136.99 26.19C137.45 26.36 137.91 26.95 137.68 28.03C137.48 28.96 137.2 30.24 137.74 30.91C138.05 31.29 138.62 31.48 139.46 31.48C141.02 31.48 141.94 31.15 142.43 30.88C141.87 30.67 141.15 30.27 140.93 29.57C140.6 28.48 141.18 27.44 141.2 27.4C141.28 27.26 141.44 27.19 141.6 27.23C141.76 27.27 141.86 27.41 141.86 27.57C141.86 27.57 141.86 27.92 142.12 28.16C142.3 28.33 142.58 28.41 142.95 28.39C143.54 28.36 144.7 27.7 145.68 26.53C146.51 25.55 147.84 23.42 147.45 20.28C147.22 18.44 146.39 17.09 144.98 16.25C143.14 15.16 140.39 15.07 137.97 16.03C136.26 16.71 134.01 18.51 131.8 20.98C131.67 21.13 131.44 21.14 131.3 21.01C131.15 20.88 131.14 20.65 131.27 20.51C133.55 17.96 135.9 16.08 137.71 15.37C140.33 14.34 143.33 14.44 145.35 15.64C146.94 16.58 147.91 18.16 148.16 20.2C148.58 23.61 147.13 25.92 146.23 26.99C145.05 28.39 143.73 29.06 142.99 29.1C142.41 29.13 141.96 28.98 141.63 28.67C141.6 28.64 141.58 28.62 141.55 28.59C141.52 28.83 141.52 29.09 141.6 29.35C141.79 29.96 142.86 30.29 143.26 30.37C143.38 30.39 143.48 30.48 143.52 30.59C143.56 30.7 143.77 30.71 143.7 30.81C143.66 30.86 142.53 32.18 139.45 32.18C138.39 32.18 137.62 31.9 137.18 31.34C136.43 30.41 136.75 28.93 136.98 27.86C137.09 27.34 137 26.94 136.74 26.84C136.45 26.73 135.96 26.98 135.59 27.67C134.79 29.14 134.45 31.98 136.19 33.69C138.24 35.71 141.53 35.35 141.56 35.34C141.69 35.33 141.82 35.39 141.9 35.5C141.98 35.61 141.98 35.76 141.91 35.87C141.91 35.88 141.26 37.03 141.75 37.78C141.96 38.1 142.51 38.29 142.83 38.33C142.91 37.82 143.37 37.18 143.48 37.03C143.91 36.45 144.72 35.76 145.95 35.07C148.33 33.72 150.61 31.26 151.81 28.87C152.95 26.61 153.92 20.54 151.17 16.08C149.15 12.8 145.59 11.13 140.61 11.13C135.63 11.13 131.39 13.16 127.47 17.17C127.33 17.31 127.11 17.31 126.97 17.17C126.83 17.03 126.83 16.81 126.97 16.67C131.03 12.52 135.62 10.41 140.62 10.41C145.87 10.41 149.62 12.19 151.78 15.69C154.46 20.03 153.89 26.31 152.45 29.17C151.17 31.72 149.04 34.11 146.31 35.69C144.48 36.75 143.56 38.13 143.53 38.43C143.51 38.75 143.53 38.84 143.33 38.94C143.24 38.99 143.1 39.02 142.95 39.02L142.96 39.06ZM141.73 36.04C145.87 34.42 148.51 32.79 150.66 28.8C153.37 23.76 150.66 18.29 150.55 18.06C150.47 17.88 150.4 17.8 150.4 17.8C150.37 17.81 150.44 17.91 150.51 18.11C150.53 18.17 152.59 23.72 150.04 28.46C147.99 32.27 145.55 33.78 141.48 35.37C141.3 35.44 141.21 35.65 141.28 35.83C141.34 35.97 141.47 36.06 141.61 36.06C141.65 36.06 141.7 36.06 141.74 36.04H141.73ZM142.97 31.33C143.04 31.3 149.58 28.4 149.58 21.83C149.58 15.26 144.93 13.65 144.75 13.57C144.57 13.49 144.46 13.47 144.46 13.47C144.45 13.5 144.59 13.58 144.77 13.66C144.78 13.66 145.81 14.17 146.84 15.4C147.78 16.53 148.87 18.65 148.87 21.83C148.87 27.93 142.86 30.61 142.8 30.63C142.62 30.71 142.55 30.84 142.63 31.03C142.69 31.17 142.82 31.25 142.96 31.25C143.01 31.25 142.93 31.36 142.98 31.34L142.97 31.33ZM147.88 29.64C148 29.49 148.09 29.35 148.06 29.34C148.02 29.32 147.93 29.45 147.81 29.61C147.78 29.65 144.09 33.66 140.28 33.66C136.86 33.66 136.49 31.41 136.49 30.45C136.49 29.7 137.29 28.55 137.6 28.18C137.72 28.03 137.7 27.8 137.55 27.68C137.4 27.56 137.17 27.58 137.05 27.73C136.92 27.89 135.78 29.32 135.78 30.46C135.78 31.38 136.1 34.38 140.28 34.38C144.46 34.38 147.74 29.84 147.89 29.65L147.88 29.64ZM86.91 119.65C91.38 118.5 94.63 115.11 96.69 112.67C99.42 109.42 101.9 102.72 102.01 102.42C102.21 101.82 121.78 42.53 125.57 31.14C125.82 30.38 126.15 29.58 126.54 28.76C126.59 28.65 126.58 28.51 126.51 28.41L122.81 22.94C122.74 22.84 122.63 22.78 122.51 22.78C122.39 22.78 122.28 22.85 122.21 22.95C119.41 27.58 118.09 31.82 118.08 31.85L98.19 88.85L78.44 31.86C78.44 31.86 77.31 28.23 74.95 24.05C74.89 23.94 74.77 23.87 74.64 23.87C74.51 23.87 74.39 23.93 74.33 24.04L70.72 30.13C70.66 30.22 70.66 30.34 70.69 30.44C70.78 30.67 70.86 30.9 70.93 31.13C74.11 40.7 87.89 81.98 93.67 99.31C93.69 99.43 93.74 99.54 93.79 99.68C93.9 99.99 94.06 100.4 94.08 101.06L91.52 108.65C89.01 115.27 83.99 117.21 80.22 117.67C72.12 118.65 64.95 116.31 58.92 110.69C51.54 103.82 53.09 92.99 53.1 92.88C53.13 92.69 53 92.5 52.8 92.47C52.61 92.44 52.42 92.57 52.39 92.77C52.37 92.88 50.77 104.08 58.43 111.21C64.62 116.98 71.98 119.39 80.3 118.38C84.27 117.9 89.55 115.86 92.18 108.89L94.76 101.22C94.76 101.22 94.78 101.14 94.78 101.1C94.76 100.29 94.57 99.77 94.44 99.43C94.4 99.32 94.36 99.23 94.35 99.15C94.35 99.13 94.35 99.12 94.34 99.1C88.56 81.78 74.77 40.47 71.59 30.9C71.53 30.72 71.46 30.53 71.4 30.35L74.6 24.94C76.71 28.81 77.72 32.04 77.73 32.08L97.82 90.05C97.87 90.19 98 90.29 98.16 90.29C98.31 90.29 98.45 90.19 98.5 90.05L118.73 32.07C118.73 32.07 119.95 28.16 122.51 23.79L125.78 28.63C125.42 29.41 125.11 30.17 124.87 30.9C121.08 42.3 101.5 101.59 101.31 102.17C101.28 102.24 98.78 109.04 96.12 112.19C94.13 114.56 90.98 117.84 86.71 118.94C75.84 121.73 66.92 120.11 58.64 113.82C48.44 106.07 50.72 92.11 50.74 91.96C50.77 91.77 50.64 91.58 50.45 91.55C50.26 91.52 50.07 91.65 50.04 91.84C50.01 91.98 47.65 106.37 58.21 114.38C64.03 118.8 70.15 120.96 77.01 120.96C80.14 120.96 83.42 120.51 86.89 119.62L86.91 119.65ZM83.73 119.76C90.41 118.24 93.65 111.61 94.98 107.8C95.1 107.45 94.92 107.07 94.57 106.95C94.22 106.83 93.84 107.01 93.72 107.36C92.48 110.91 89.49 117.08 83.43 118.46C75.42 120.28 68.38 119.11 61.91 114.9C57.25 111.86 54.57 108.93 53.23 105.4C51.09 99.76 51.2 95.34 51.53 92.12C51.57 91.75 51.3 91.43 50.93 91.39C50.57 91.36 50.24 91.62 50.2 91.99C49.85 95.36 49.74 99.98 51.98 105.88C53.42 109.69 56.26 112.82 61.17 116.02C65.9 119.1 70.92 120.63 76.36 120.63C78.73 120.63 81.18 120.34 83.72 119.76H83.73ZM65.48 80.91C65.48 80.91 68.27 80.45 71.64 83.12C73.28 84.42 70.42 81.41 69.24 80.85C68.06 80.29 65.47 79.94 65.36 79.97C65.25 80 65.48 80.91 65.48 80.91ZM100.04 106.76L122.29 39.91C122.29 39.91 123.42 35.36 125.64 30.11C125.87 29.57 126.12 29.02 126.38 28.48C126.37 28.46 126.36 28.44 126.35 28.42C125.75 27.26 124.46 25.53 123.51 24.23C122.22 26.21 121.19 28.06 120.26 30.74C116.84 40.49 106.49 70.31 98.95 92.09C96.65 85.54 82.75 45.89 77.62 31.24C76.71 28.65 75.69 26.26 74.4 24.31L71.91 28.95C72.17 29.63 75.43 39.31 75.43 39.31L95.89 100.94C94.26 105.65 92.89 109.61 91.94 112.38C90.22 117.37 83.18 120.03 83.18 120.03C83.18 120.03 90.35 118.49 93.48 115.74C95.66 113.84 100.06 106.77 100.06 106.77L100.04 106.76ZM87.22 115.1C78.01 111.76 71.92 104.43 68.1 95.28H67.86C67.46 104.98 73.69 113.16 83.88 117.07C84.18 117.19 87.57 115.22 87.22 115.1ZM72.31 89.02C72.79 86.1 71.44 84.01 71.07 84.34C71.04 84.37 71.67 85.06 71.39 86.49C71.18 87.52 70.4 88.55 69.1 88.27C68.58 88.16 68.41 87.22 67.58 87.22C65.94 87.22 64.96 88.17 64.96 89.82C64.96 91.47 66.42 92.8 68.23 92.8C70.04 92.8 71.95 91.34 72.33 89.02H72.31ZM66.6 20.83L69.04 18.58C63.82 14.2 58.85 12.77 55.76 13.2C49.52 14.07 48.93 18.7 48.93 18.7C48.93 18.7 50.64 14.59 55.81 14.59C60.15 14.59 63.73 17.24 66.6 20.82V20.83ZM140.74 13.21C138.4 12.9 133.37 14 128.59 17.97L131.37 20.68C132.6 19.25 133.93 18 135.34 17.01C137.04 15.83 139.17 14.92 141.2 14.92C146.37 14.92 147.87 19.09 147.87 19.09C147.87 19.09 147.14 14.06 140.74 13.21ZM135.09 32.85C134.13 31.08 135.37 27.38 135.37 27.38C130.06 20.04 122.97 14.43 114.42 11.33C112.11 10.49 108.03 9.01001 104.78 7.00001C101.24 4.81001 98.61 2.13001 98.61 2.13001C98.61 2.13001 95.79 4.72001 92.34 6.91001C89.16 8.93001 85.43 10.53 83.15 11.39C74.37 14.69 67.06 20.8 61.68 28.76C61.68 28.76 62.64 30.98 61.11 33.41C60.22 34.82 57.79 35.52 57.79 35.52C53.7 43.95 51.46 53.83 51.46 64.35C51.46 71.91 52.48 79.09 54.47 85.63C54.83 85.73 55.11 85.8 55.27 85.81C56.5 85.93 57.17 85.3 57.76 87.16L58.35 89.02L59.82 89.61C59.82 89.61 60.77 85.7 62.27 84.78C63.71 83.9 64.68 83.83 64.93 84.56C63.44 77.8 62.81 70.59 62.81 63.57C62.81 38.41 72.3 10.71 98.6 10.71C126.76 10.71 135.01 38.73 135.01 64.68C135.01 71.23 134.43 77.85 133.12 84.08C133.26 84.14 133.39 84.21 133.51 84.31C134.78 85.35 135.58 85.46 136.05 86.96C136.15 87.29 136.51 89.38 136.95 89.37C137.23 89.37 137.7 89.06 138.05 88.97C138.4 88.88 138.73 87.23 138.95 86.9C139.29 86.4 140.12 86.25 140.12 86.25L142.88 85.59C145.14 78.91 146.35 71.57 146.35 63.86C146.35 53.56 144.23 43.91 140.29 35.64C140.29 35.64 136.64 35.64 135.12 32.83L135.09 32.85ZM98.51 8.71001C97.61 8.71001 96.89 7.98001 96.89 7.09001C96.89 6.20001 97.62 5.47001 98.51 5.47001C99.4 5.47001 100.13 6.20001 100.13 7.09001C100.13 7.98001 99.4 8.71001 98.51 8.71001ZM128.54 97.61C123.11 109.05 113.79 117.05 99.07 117.05C97.24 117.05 94.57 116.75 92.9 116.52C92.21 116.87 92.02 116.95 91.46 117.19C90.6 117.56 90.05 118.4 89.4 118.67C92.2 119.25 95.22 119.57 98.47 119.57C111.37 119.57 120.15 114 126.41 105.63C128.74 102.52 128.22 99.56 128.59 98.35C128.59 98.35 128.89 96.84 128.53 97.6L128.54 97.61ZM17.21 236.88H21.95V242.89H21.27V237.49H17.89V242.89H17.21V236.88ZM25.38 236.88H27.63C28.99 236.88 29.88 237.6 29.88 238.8C29.88 240.1 28.8 240.77 27.52 240.77H26.06V242.89H25.38V236.88ZM27.55 240.15C28.55 240.15 29.2 239.62 29.2 238.81C29.2 237.95 28.56 237.5 27.58 237.5H26.06V240.15H27.55ZM32.85 236.88H33.53V241.87L37.12 236.88H37.76V242.89H37.09V237.9L33.51 242.89H32.85V236.88ZM41.19 236.88H41.88L44.07 240.16L46.26 236.88H46.95V242.89H46.27V238.02L44.08 241.24H44.04L41.85 238.03V242.89H41.19V236.88ZM50.1 239.89C50.1 238.23 51.35 236.78 53.18 236.78C55.01 236.78 56.24 238.21 56.24 239.89C56.24 241.57 54.99 243 53.16 243C51.33 243 50.1 241.57 50.1 239.89ZM55.53 239.89C55.53 238.52 54.53 237.41 53.16 237.41C51.79 237.41 50.81 238.51 50.81 239.89C50.81 241.27 51.81 242.37 53.18 242.37C54.55 242.37 55.53 241.27 55.53 239.89ZM59.39 236.88H61.64C63 236.88 63.89 237.6 63.89 238.8C63.89 240.1 62.81 240.77 61.53 240.77H60.07V242.89H59.39V236.88ZM61.56 240.15C62.56 240.15 63.21 239.62 63.21 238.81C63.21 237.95 62.57 237.5 61.59 237.5H60.07V240.15H61.56ZM66.59 239.88C66.59 238.18 67.86 236.77 69.63 236.77C70.72 236.77 71.36 237.17 71.96 237.74L71.51 238.22C71 237.74 70.44 237.4 69.62 237.4C68.29 237.4 67.29 238.48 67.29 239.88C67.29 241.28 68.29 242.36 69.62 242.36C70.45 242.36 70.99 242.04 71.56 241.49L72.01 241.96C71.38 242.6 70.7 242.98 69.6 242.98C67.86 242.98 66.58 241.61 66.58 239.87L66.59 239.88ZM74.92 236.87H75.6V240.46L79.05 236.87H79.93L77.35 239.5L80.04 242.88H79.19L76.88 239.97L75.6 241.27V242.89H74.92V236.88V236.87ZM82.82 236.87H83.5V241.86L87.09 236.87H87.73V242.88H87.06V237.89L83.48 242.88H82.82V236.87ZM91.16 236.87H95.51V237.49H91.84V239.54H95.12V240.16H91.84V242.26H95.55V242.88H91.16V236.87ZM102.94 236.87H105.19C106.55 236.87 107.44 237.59 107.44 238.79C107.44 240.09 106.36 240.76 105.08 240.76H103.62V242.88H102.94V236.87ZM105.11 240.14C106.11 240.14 106.76 239.61 106.76 238.8C106.76 237.94 106.12 237.49 105.14 237.49H103.62V240.14H105.11ZM110.41 236.87H114.76V237.49H111.09V239.54H114.37V240.16H111.09V242.26H114.8V242.88H110.41V236.87ZM117.37 242.02L117.77 241.55C118.38 242.13 119.02 242.41 119.88 242.41C120.62 242.41 121.28 241.96 121.28 241.25C121.28 240.47 120.58 240.14 119.66 240.14H119V239.58H119.66C120.52 239.58 121.13 239.16 121.13 238.45C121.13 237.83 120.56 237.38 119.77 237.38C119.09 237.38 118.52 237.59 118 238.06L117.6 237.59C118.2 237.07 118.83 236.79 119.78 236.79C120.97 236.79 121.81 237.47 121.81 238.4C121.81 239.21 121.26 239.62 120.71 239.82C121.42 240.03 121.97 240.5 121.97 241.3C121.97 242.25 121.12 243.01 119.87 243.01C118.83 243.01 118.07 242.68 117.36 242.04L117.37 242.02ZM125.07 236.87H125.75V241.86L129.34 236.87H129.98V242.88H129.31V237.89L125.73 242.88H125.07V236.87ZM132.64 242.27H133.26C133.84 241.35 134.17 239.87 134.17 237.92V236.87H138.1V242.27H138.88L138.78 244.23H138.21V242.89H133.33L133.21 244.23H132.63V242.27H132.64ZM137.43 242.27V237.49H134.83V238.27C134.83 239.83 134.53 241.44 134.03 242.26H137.43V242.27ZM141.61 236.87H145.96V237.49H142.29V239.54H145.57V240.16H142.29V242.26H146V242.88H141.61V236.87ZM149.09 236.87H149.77V239.54H153.24V236.87H153.92V242.88H153.24V240.17H149.77V242.88H149.09V236.87ZM162.25 242.88H157.34V236.87H158.02V242.27H161.46V236.87H162.14V242.27H162.92L162.82 244.23H162.25V242.89V242.88ZM165.64 236.87H166.32V241.86L169.91 236.87H170.55V242.88H169.88V237.89L166.3 242.88H165.64V236.87ZM173.98 236.87H174.66V241.86L178.25 236.87H178.89V242.88H178.22V237.89L174.64 242.88H173.98V236.87ZM118.94 217.95H76.37V219.09H118.94V217.95Z" fill="white"/>
</g>
<defs>
<clipPath id="clip0_1_14">
<rect width="196.58" height="244.24" fill="white"/>
</clipPath>
</defs>
</svg>
