<svg width="11" height="19" viewBox="0 0 11 19" fill="none" xmlns="http://www.w3.org/2000/svg">
<g clip-path="url(#clip0_1_118)">
<path d="M1.94 18.12C2.2 18.12 2.45 18.02 2.65 17.83L10.71 9.77C10.9 9.58 11 9.33 11 9.06C11 8.79 10.89 8.54 10.71 8.35L2.65 0.289998C2.26 -0.100002 1.63 -0.100002 1.24 0.289998C0.849999 0.679998 0.849999 1.31 1.24 1.7L8.59 9.06L1.24 16.41C0.849999 16.8 0.849999 17.43 1.24 17.82C1.44 18.02 1.69 18.11 1.95 18.11L1.94 18.12Z" fill="#263059"/>
</g>
<defs>
<clipPath id="clip0_1_118">
<rect width="10.06" height="18.12" fill="white" transform="matrix(-1 0 0 1 11 0)"/>
</clipPath>
</defs>
</svg>
