<svg width="604" height="627" viewBox="0 0 604 627" fill="none" xmlns="http://www.w3.org/2000/svg">
<g clip-path="url(#clip0_1_319)">
<g style="mix-blend-mode:multiply" opacity="0.15">
<path d="M304.93 626.94C282.59 626.94 261.01 624.4 240.79 619.4C239.8 619.16 239.2 618.16 239.45 617.17C239.69 616.18 240.71 615.57 241.68 615.83C261.61 620.76 282.9 623.26 304.94 623.26C376.34 623.26 441.03 592.67 487.09 537.14C487.74 536.36 488.9 536.26 489.68 536.9C490.46 537.55 490.57 538.71 489.92 539.49C443.14 595.89 377.45 626.94 304.94 626.94H304.93ZM213.09 610.58C212.87 610.58 212.64 610.54 212.43 610.46C175.26 596.06 143.42 572.57 117.78 540.63C117.14 539.84 117.27 538.68 118.06 538.04C118.85 537.41 120.01 537.53 120.65 538.32C145.87 569.75 177.2 592.87 213.75 607.03C214.7 607.4 215.17 608.46 214.8 609.41C214.52 610.14 213.82 610.58 213.08 610.58H213.09ZM306.79 600.47C300.57 600.47 286.37 599.66 280.2 598.03C279.22 597.77 278.63 596.77 278.89 595.78C279.15 594.79 280.15 594.19 281.14 594.47C286.92 595.99 300.91 596.79 306.79 596.79C367.46 596.79 413.69 569.38 444.19 515.33C447.82 508.89 451.28 501.96 454.46 494.72C454.87 493.79 455.96 493.37 456.89 493.78C457.82 494.19 458.24 495.28 457.83 496.21C454.6 503.55 451.08 510.6 447.39 517.14C416.19 572.43 368.88 600.46 306.79 600.46V600.47ZM251.57 592.05C251.38 592.05 251.18 592.02 250.99 591.96C213.58 579.51 183.7 553.29 162.19 514.01C158.59 507.44 155.18 500.42 152.06 493.17C151.66 492.24 152.09 491.16 153.03 490.75C153.96 490.36 155.04 490.78 155.45 491.72C158.52 498.87 161.88 505.77 165.42 512.24C186.47 550.68 215.66 576.32 252.16 588.47C253.12 588.79 253.64 589.83 253.32 590.8C253.06 591.57 252.35 592.06 251.57 592.06V592.05ZM471.53 452.76C471.37 452.76 471.22 452.74 471.06 452.7C470.08 452.44 469.49 451.44 469.75 450.45C471.08 445.43 472.32 440.24 473.45 435.04C480.07 404.56 483.43 370.68 483.43 334.35C483.43 252.97 465.9 63.68 303.57 63.68C244.38 63.68 198.56 91.81 167.38 147.28C141.3 193.7 126.93 258.09 126.93 328.59C126.93 368.79 130.84 406.02 138.55 439.25C138.78 440.24 138.16 441.23 137.17 441.46C136.19 441.68 135.19 441.08 134.96 440.08C127.19 406.58 123.25 369.07 123.25 328.59C123.25 257.47 137.78 192.44 164.17 145.48C196.05 88.76 242.95 60 303.57 60C469.22 60 487.11 251.86 487.11 334.35C487.11 370.95 483.73 405.09 477.05 435.82C475.91 441.07 474.65 446.31 473.31 451.38C473.09 452.2 472.35 452.75 471.53 452.75V452.76ZM67.77 440.88C66.97 440.88 66.23 440.35 66 439.55C56.45 406.18 51.61 370.21 51.61 332.63C51.61 279.99 62.35 228.98 82.68 185.01C82.89 184.56 84.7 182.66 85.62 183.09C86.54 183.52 87.08 184.29 86.64 185.22C66.13 229.01 55.28 279.98 55.28 332.64C55.28 369.88 60.07 405.51 69.53 438.55C69.81 439.53 69.24 440.54 68.27 440.83C68.1 440.88 67.93 440.9 67.76 440.9L67.77 440.88ZM542.64 433.7C542.47 433.7 542.29 433.68 542.12 433.63C541.15 433.34 540.59 432.32 540.87 431.35C550.28 399.3 555.05 365.25 555.05 330.15C555.05 283.92 547.08 240.42 531.37 200.83C531.25 200.54 531.14 200.24 531.02 199.95C530.64 199.01 531.73 199.42 532.67 199.05C533.61 198.67 534.05 197.64 534.43 198.58C534.63 199.08 534.83 199.57 535.02 200.07C550.75 239.93 558.73 283.68 558.73 330.15C558.73 365.61 553.91 400.01 544.4 432.39C544.16 433.19 543.43 433.71 542.63 433.71L542.64 433.7ZM516 166.04C515.36 166.04 514.73 165.7 514.39 165.1C513.13 162.85 511.83 160.62 510.52 158.41C507.89 154.01 505.11 149.65 502.28 145.46C501.71 144.62 501.93 143.47 502.77 142.91C503.61 142.33 504.75 142.56 505.33 143.4C508.2 147.65 511.01 152.06 513.68 156.52C515.02 158.76 516.33 161.02 517.6 163.3C518.1 164.19 517.78 165.31 516.9 165.8C516.61 165.96 516.3 166.04 516 166.04ZM109.94 142.99C109.58 142.99 109.21 142.88 108.89 142.66C108.06 142.08 107.85 140.93 108.44 140.1C137.59 98.5 176.48 67.68 220.9 50.97C228.81 47.99 249.13 39.86 266.84 28.59C283.81 17.79 297.93 4.88001 298.07 4.75001L302.72 0.480005C303.45 -0.189995 304.58 -0.159995 305.28 0.550005L309.7 5.05001C309.83 5.19001 322.73 18.3 340.02 28.97C356.31 39.03 377.14 46.57 388.33 50.62C432.25 66.53 470.75 95.82 499.66 135.34C500.26 136.16 500.08 137.31 499.26 137.91C498.44 138.51 497.29 138.33 496.69 137.51C468.21 98.59 430.31 69.74 387.08 54.08C375.77 49.98 354.71 42.36 338.1 32.1C320.65 21.32 307.21 7.75001 307.08 7.61001L303.92 4.39001L300.58 7.45001C300.44 7.58001 286.16 20.67 268.84 31.69C250.83 43.14 230.24 51.39 222.21 54.41C178.48 70.86 140.19 101.22 111.47 142.21C111.11 142.72 110.54 142.99 109.96 142.99H109.94Z" fill="#C09973"/>
<path d="M339.65 612.91C338.76 612.91 337.97 612.26 337.84 611.35C337.68 610.35 338.37 609.41 339.38 609.25C339.93 609.16 394.94 600.19 435.01 555.66C455.16 533.27 459.1 521.73 455.09 496.87L454.46 493.01C451.8 476.8 450.69 470.09 458.8 460.97C462.4 456.92 465.38 454.27 467.77 452.15C470.66 449.58 472.41 448.02 473.11 445.92C473.69 444.17 473.31 442.56 472.89 440.86C472.4 438.84 471.85 436.55 473.32 434.34C473.87 433.51 475.04 432.51 477.45 432.49H477.53C482.3 432.49 490.23 436.33 494.09 441.9C497.76 447.2 500.72 456.61 501.91 460.73L507.6 458.45C508.53 458.07 509.61 458.53 509.99 459.48C510.37 460.42 509.91 461.49 508.96 461.87L501.36 464.91C500.87 465.11 500.32 465.08 499.85 464.84C499.38 464.6 499.03 464.17 498.9 463.66C498.87 463.53 495.38 450.22 491.07 443.99C488.16 439.78 482.04 436.56 478.16 436.19C476.98 436.08 476.46 436.29 476.38 436.38C475.84 437.2 476.05 438.23 476.48 439.99C476.94 441.92 477.53 444.32 476.61 447.07C475.6 450.11 473.34 452.11 470.22 454.89C467.9 456.95 465.01 459.52 461.56 463.41C454.62 471.22 455.5 476.56 458.1 492.41L458.73 496.28C462.92 522.23 458.6 534.94 437.75 558.11C396.77 603.64 340.51 612.79 339.94 612.88C339.85 612.89 339.75 612.9 339.66 612.9L339.65 612.91Z" fill="#C09973"/>
<path d="M449.72 577.55C449.17 577.55 448.62 577.3 448.26 576.83C447.64 576.03 447.79 574.87 448.59 574.25C476.75 552.55 490.39 533.08 502.42 515.9C512.49 501.52 521.18 489.11 536.06 478.42C557.52 462.99 580.53 465.86 592.89 467.4C595.69 467.75 598.81 468.13 600.09 467.98C599.98 467.59 599.7 466.92 598.94 465.91C594.55 459.99 580.98 451.02 568.85 449.85C554.7 448.52 547.51 465.76 547.44 465.93C547.06 466.86 545.99 467.31 545.06 466.95C544.12 466.57 543.66 465.52 544.02 464.58C544.05 464.49 547.42 455.69 546.94 446.09C546.65 440.41 545.19 436.06 544.05 433.47C542.09 436.3 538.67 440.6 534.51 443.03C531.96 444.51 528.78 444.88 525.42 445.27C520.13 445.88 515.13 446.46 512.98 451.3C511.23 455.23 511.35 460.89 511.47 466.89C511.62 474.08 511.77 481.51 508.92 487.77C503.74 499.17 490.72 509.77 490.17 510.21C489.38 510.85 488.8 510.43 489.59 509.79C489.72 509.69 500.18 501.84 505.57 486.24C507.54 480.53 507.93 473.74 507.79 466.96C507.66 460.54 507.54 454.48 509.62 449.8C512.62 443.05 519.48 442.25 525 441.61C527.97 441.27 530.78 440.94 532.66 439.84C538.22 436.6 542.57 428.96 542.62 428.88C542.93 428.32 543.52 427.97 544.15 427.95C544.85 427.86 545.39 428.23 545.75 428.77C545.93 429.04 550.09 435.39 550.61 445.9C550.76 449.01 550.56 452.01 550.19 454.71C554.33 449.92 560.6 445.35 569.21 446.19C582.86 447.51 597.2 457.39 601.89 463.72C603.45 465.82 604.06 467.59 603.75 469.14C603.1 472.39 599.08 471.88 592.43 471.06C580.57 469.58 558.5 466.83 538.2 481.41C523.83 491.74 515.3 503.92 505.43 518.02C493.25 535.41 479.44 555.13 450.83 577.17C450.5 577.43 450.1 577.55 449.71 577.55H449.72Z" fill="#C09973"/>
<path d="M103.16 465.04C102.93 465.04 102.7 465 102.48 464.91L94.88 461.87C93.94 461.49 93.4801 460.42 93.8501 459.48C94.2301 458.53 95.3101 458.08 96.2401 458.45L101.93 460.73C103.12 456.61 106.08 447.2 109.74 441.9C113.6 436.33 121.54 432.49 126.3 432.49H126.38C128.79 432.51 129.96 433.51 130.51 434.33C132.25 436.94 130.56 438.95 129.55 440.14C128.49 441.4 128 442.07 128.44 443.4C128.76 444.36 128.24 445.41 127.28 445.73C126.32 446.06 125.27 445.53 124.95 444.57C123.83 441.22 125.65 439.07 126.74 437.78C127.04 437.42 127.54 436.83 127.57 436.61C127.57 436.61 127.54 436.52 127.44 436.38C127.36 436.31 126.85 436.09 125.67 436.2C121.79 436.57 115.68 439.79 112.76 444C108.45 450.23 104.96 463.54 104.93 463.67C104.8 464.18 104.45 464.61 103.98 464.85C103.72 464.98 103.43 465.05 103.15 465.05L103.16 465.04Z" fill="#C09973"/>
<path d="M230.71 606.03C230.46 606.03 230.21 605.98 229.97 605.88C208.43 596.48 185.76 585.48 166.04 563.57C145.51 540.76 142.36 521.34 143.84 495.51C143.9 494.42 143.97 493.38 144.04 492.38C144.11 491.36 145 490.59 146.01 490.68C147.03 490.75 147.79 491.63 147.71 492.65C147.64 493.63 147.57 494.66 147.51 495.73C146.04 521.18 148.99 539.14 168.77 561.11C187.99 582.47 210.27 593.27 231.43 602.51C232.36 602.92 232.79 604 232.38 604.93C232.08 605.62 231.4 606.03 230.69 606.03H230.71Z" fill="#C09973"/>
<path d="M152.68 575.11C152.28 575.11 151.88 574.98 151.55 574.72C144.65 569.33 134.55 561.08 126.51 551.66C119.63 543.6 113.24 535.07 107.07 526.83C94.04 509.43 81.73 493 65.62 481.41C45.33 466.83 23.26 469.58 11.39 471.06C4.74002 471.89 0.720021 472.39 0.0700208 469.14C-0.239979 467.59 0.370021 465.82 1.93002 463.72C6.63002 457.39 20.97 447.5 34.61 446.19C43.19 445.35 49.48 449.92 53.62 454.71C53.25 452.02 53.05 449.01 53.2 445.91C53.73 435.4 57.89 429.04 58.06 428.78C58.42 428.25 58.96 427.93 59.66 427.96C60.3 427.98 60.88 428.34 61.19 428.89C61.23 428.97 65.59 436.61 71.15 439.85C73.03 440.95 75.84 441.27 78.81 441.62C84.32 442.26 91.18 443.06 94.19 449.81C96.27 454.49 96.15 460.55 96.02 466.97C95.88 473.75 95.46 481.87 97.74 487.47C102.54 499.28 113.83 509.46 113.96 509.56C114.75 510.2 114.44 510.86 113.64 510.22C113.09 509.78 100.07 499.18 94.89 487.78C92.04 481.52 92.19 474.09 92.34 466.9C92.46 460.9 92.58 455.24 90.83 451.31C88.68 446.47 83.69 445.9 78.39 445.28C75.03 444.89 71.85 444.52 69.3 443.04C65.14 440.61 61.71 436.31 59.76 433.48C58.63 436.06 57.16 440.42 56.87 446.1C56.39 455.69 59.75 464.5 59.79 464.59C60.15 465.53 59.69 466.59 58.75 466.96C57.81 467.32 56.75 466.88 56.37 465.94C56.3 465.76 49.1 448.47 34.96 449.86C22.84 451.03 9.27002 460.01 4.87002 465.92C4.12002 466.94 3.83002 467.6 3.72002 467.99C4.99002 468.14 8.12002 467.76 10.92 467.41C23.28 465.87 46.29 463 67.75 478.43C84.32 490.34 96.79 507 109.99 524.63C116.13 532.83 122.48 541.31 129.29 549.28C137.11 558.44 147.02 566.54 153.79 571.83C154.59 572.46 154.73 573.61 154.11 574.41C153.75 574.87 153.2 575.12 152.66 575.12L152.68 575.11Z" fill="#C09973"/>
<path d="M145.31 492.99C139.89 492.99 134.46 491.94 129.84 489.78C121.04 485.66 116.42 477.98 115.51 468.35C114.55 458.11 117.81 450.25 123.73 445.09C131.75 438.1 143.32 437.98 149.07 438.43C147.85 436.29 145.88 433.47 143.3 431.8C138.58 428.75 133.67 427.86 133.62 427.85C132.62 427.67 131.95 426.72 132.13 425.72C132.31 424.72 133.26 424.06 134.26 424.23C134.49 424.27 139.92 425.25 145.29 428.71C150.85 432.29 153.81 439.67 153.93 439.99C154.17 440.61 154.06 441.32 153.64 441.83C153.22 442.35 152.55 442.6 151.89 442.47C151.72 442.43 135.6 439.6 126.12 447.87C121.09 452.26 118.35 459.12 119.16 468.18C120.1 478.63 126.07 483.95 131.38 486.44C141.49 491.17 155.81 490.01 163.99 483.8C170.71 478.69 174.93 469.47 175.25 459.12C175.64 446.71 170.46 434.93 161.02 426.78C148.23 415.74 132.2 415.8 132.03 415.84H132.01C131.01 415.84 130.18 415.03 130.17 414.03C130.16 413.01 130.97 412.18 131.98 412.16C132.67 412.16 149.57 412.02 163.43 423.99C173.71 432.86 179.36 445.71 178.93 459.23C178.57 470.67 173.82 480.95 166.22 486.72C160.82 490.82 153.05 492.97 145.29 492.97L145.31 492.99Z" fill="#C09973"/>
<path d="M70.7801 201.9C69.9701 201.9 69.2601 201.8 68.8001 201.5C68.1201 201.05 67.8901 200.7 67.8201 198.78C67.8701 197.08 65.2001 188.81 54.4401 184.04C39.5701 177.45 27.6401 162.98 21.6501 150.97C15.5401 138.72 10.4101 105.65 25.5801 81.1199C36.7401 63.0899 55.9901 53.9399 82.8101 53.9399C109.63 53.9399 134.81 65.9499 156.54 89.6199C157.22 90.3699 157.18 91.5299 156.43 92.2199C155.68 92.8999 154.52 92.8599 153.83 92.1099C132.83 69.2199 108.94 57.6199 82.8201 57.6199C56.7001 57.6199 39.1601 66.1799 28.7201 83.0599C14.4901 106.07 19.3301 138.08 24.9501 149.33C31.3401 162.13 43.2601 175.49 55.8701 180.65C67.4101 185.37 69.8701 193.03 70.7501 195.4C71.1501 196.47 71.3901 197.41 71.4701 198.21C73.1201 197.98 75.9501 197.01 77.0001 195.37C79.4701 191.5 76.2001 185.54 76.1601 185.48C75.8101 184.88 75.8401 184.13 76.2201 183.56C76.6001 182.98 77.2901 182.69 77.9701 182.74C78.1501 182.76 95.2001 184.61 105.76 174.21C114.77 165.34 113 150.66 108.86 143.07C106.93 139.53 104.42 138.24 102.92 138.8C101.57 139.3 101.08 141.37 101.66 144.08C102.87 149.63 104.52 157.24 100.63 162.07C98.3201 164.94 94.3601 166.39 88.8801 166.39C72.9701 166.39 66.0801 159.07 65.8901 158.8C65.5201 158.29 67.6101 158.78 67.8401 158.19C68.0701 157.6 68.5901 157.17 69.2001 157.06C71.2501 156.66 76.7901 154.94 77.7601 151.78C78.1801 150.43 78.2001 149.07 78.0401 147.84C77.9101 147.98 77.7801 148.11 77.6401 148.25C75.9401 149.87 73.6001 150.64 70.5901 150.47C66.7801 150.28 59.9201 146.78 53.8401 139.56C49.1801 134.01 41.6701 122.07 43.8401 104.45C45.1401 93.9099 50.1701 85.7599 58.3801 80.8799C68.8301 74.6799 84.3301 74.1199 97.8801 79.4699C108.26 83.5699 122.11 95.1199 134.92 110.37C135.57 111.15 135.47 112.31 134.7 112.96C133.92 113.61 132.76 113.51 132.11 112.74C119.67 97.9399 106.37 86.7799 96.5301 82.8899C84.0101 77.9499 69.7801 78.3999 60.2601 84.0499C52.9601 88.3899 48.6601 95.3999 47.4901 104.9C45.4901 121.13 52.3701 132.1 56.6501 137.19C61.7201 143.22 67.7101 146.64 70.7701 146.8C72.6901 146.9 74.1301 146.49 75.0701 145.61C76.3601 144.4 76.4101 142.57 76.4101 142.56C76.4301 141.73 76.9901 141.01 77.7901 140.8C78.5901 140.59 79.4301 140.94 79.8401 141.66C79.9701 141.88 82.9901 147.25 81.2601 152.87C80.1501 156.47 76.4201 158.54 73.5101 159.63C76.0501 161.03 80.7801 162.71 88.8601 162.71C93.1801 162.71 96.1701 161.72 97.7501 159.76C100.54 156.3 99.1001 149.69 98.0501 144.86C96.8401 139.28 99.2101 136.25 101.62 135.36C104.6 134.26 108.99 135.66 112.08 141.32C116.77 149.92 118.71 166.63 108.33 176.85C99.2601 185.78 86.4201 186.67 80.6201 186.59C81.5901 189.4 82.4001 193.74 80.0801 197.37C78.2501 200.23 73.7001 201.93 70.7601 201.93L70.7801 201.9Z" fill="#C09973"/>
<path d="M77.76 186.39C77.54 186.39 77.31 186.35 77.09 186.26C55.71 177.89 42.02 169.45 30.93 148.85C16.9 122.8 32.26 90.23 32.93 88.87C33.56 87.59 34.24 87.08 34.02 87.38C33.86 87.6 33.62 88.15 33.22 89.08C33.08 89.41 21.01 122.65 34.18 147.1C44.79 166.81 57.41 174.59 78.45 182.82C79.4 183.19 79.86 184.26 79.49 185.21C79.2 185.94 78.51 186.38 77.78 186.38L77.76 186.39Z" fill="#C09973"/>
<path d="M70.76 161.48C70.52 161.48 70.57 162 70.33 161.9C69.99 161.76 36.38 146.79 36.51 112.8C36.63 81.6801 60.33 71.3901 61.3 70.9601C62.22 70.5401 62.57 70.7601 61.65 71.1801C61.6 71.2001 56.21 73.7001 50.9 80.0501C46.02 85.9001 40.19 96.3301 40.19 112.8C40.19 144.32 71.16 158.17 71.48 158.3C72.41 158.7 72.85 159.42 72.46 160.35C72.16 161.05 71.48 161.47 70.76 161.47V161.48Z" fill="#C09973"/>
<path d="M84.62 177.65C63.13 177.65 45.72 154.13 45.06 153.09C44.4 152.04 44.36 151.66 44.36 151.66C44.49 151.66 44.89 152.17 45.53 152.96C45.71 153.18 64.91 173.97 84.63 173.97C102.3 173.97 104.21 162.36 104.21 157.37C104.21 153.49 100.06 147.57 98.46 145.61C97.82 144.82 97.93 143.67 98.72 143.02C99.51 142.38 100.67 142.49 101.31 143.28C101.99 144.1 107.89 151.48 107.89 157.37C107.89 162.13 106.21 177.65 84.63 177.65H84.62Z" fill="#C09973"/>
<path d="M532.87 201.9C529.93 201.9 525.38 200.2 523.55 197.34C521.23 193.71 522.04 189.37 523.01 186.56C517.14 186.68 504.37 185.75 495.3 176.82C484.92 166.6 486.86 149.89 491.55 141.29C494.63 135.64 499.02 134.23 502 135.33C504.4 136.23 506.78 139.25 505.57 144.84C504.52 149.67 503.08 156.28 505.87 159.74C507.45 161.7 510.44 162.69 514.76 162.69C522.83 162.69 527.56 161.01 530.1 159.6C527.19 158.51 523.46 156.44 522.35 152.84C520.62 147.21 523.64 141.85 523.77 141.63C524.18 140.91 525.03 140.56 525.84 140.77C526.65 140.99 527.21 141.72 527.21 142.55C527.21 142.55 527.26 144.38 528.55 145.59C529.49 146.47 530.94 146.88 532.85 146.78C535.91 146.63 541.89 143.21 546.97 137.17C551.25 132.08 558.13 121.11 556.13 104.88C554.96 95.3799 550.66 88.3699 543.36 84.0299C533.86 78.3799 519.62 77.93 507.1 82.87C498.25 86.36 486.62 95.7 475.19 108.48C474.51 109.24 473.35 109.3 472.59 108.63C471.83 107.95 471.77 106.79 472.44 106.03C484.24 92.8299 496.38 83.1399 505.74 79.4499C519.29 74.0999 534.79 74.66 545.24 80.86C553.45 85.74 558.48 93.8899 559.78 104.43C561.95 122.04 554.45 133.99 549.79 139.54C543.71 146.76 536.85 150.26 533.04 150.45C530.05 150.6 527.69 149.85 525.99 148.23C525.85 148.1 525.72 147.96 525.59 147.82C525.43 149.04 525.45 150.41 525.87 151.76C526.84 154.92 532.38 156.64 534.43 157.04C535.05 157.16 535.56 157.59 535.79 158.17C536.02 158.76 537.08 158.8 536.71 159.31C536.52 159.57 530.66 166.37 514.75 166.37C509.26 166.37 505.31 164.91 502.99 162.05C499.1 157.22 500.75 149.61 501.96 144.06C502.55 141.36 502.05 139.29 500.7 138.78C499.2 138.22 496.69 139.51 494.76 143.05C490.62 150.64 488.85 165.32 497.86 174.19C508.45 184.62 525.47 182.75 525.65 182.72C526.33 182.65 527.01 182.95 527.4 183.53C527.79 184.11 527.81 184.85 527.47 185.46C527.44 185.52 524.13 191.45 526.63 195.36C527.7 197.03 530.58 198 532.22 198.21C532.64 195.59 535 192.29 535.59 191.5C537.81 188.52 542.03 184.95 548.36 181.37C560.66 174.41 572.46 161.69 578.68 149.33C584.55 137.66 589.61 106.28 575.39 83.1999C564.93 66.2299 546.57 57.63 520.81 57.63C495.05 57.63 473.13 68.14 452.88 88.86C452.17 89.59 451 89.5999 450.28 88.8899C449.55 88.18 449.54 87.01 450.25 86.29C471.22 64.83 494.96 53.95 520.81 53.95C547.93 53.95 567.35 63.1399 578.52 81.2699C592.36 103.72 589.41 136.18 581.97 150.98C575.34 164.17 564.32 176.5 550.21 184.7C540.73 190.2 536 197.3 535.84 198.86C535.75 200.49 535.8 200.96 534.83 201.51C534.35 201.78 533.67 201.91 532.86 201.91L532.87 201.9Z" fill="#C09973"/>
<path d="M525.89 186.39C525.16 186.39 524.46 185.95 524.18 185.22C523.81 184.27 524.28 183.21 525.22 182.84C546.25 174.61 558.87 166.82 569.49 147.12C582.67 122.64 572.04 93.91 571.94 93.62C571.59 92.59 571.24 92.06 571.4 92C571.4 92 571.74 92.4 572.15 93.33C572.68 94.54 586.76 122.8 572.73 148.85C561.64 169.45 547.95 177.89 526.56 186.26C526.34 186.35 526.11 186.39 525.89 186.39Z" fill="#C09973"/>
<path d="M532.89 161.48C532.17 161.48 531.49 161.06 531.19 160.36C530.79 159.42 531.14 158.71 532.08 158.31C532.39 158.18 563.46 144.32 563.46 112.8C563.46 96.3201 557.86 85.3801 552.97 79.5401C547.67 73.1901 542.35 70.5801 542.29 70.5501C541.37 70.1301 540.61 69.7301 540.68 69.5701C540.68 69.5701 541.23 69.6701 542.16 70.0901C543.12 70.5201 567.14 78.8301 567.14 112.8C567.14 146.77 533.33 161.78 532.99 161.92C532.76 162.02 533.13 161.47 532.9 161.47L532.89 161.48Z" fill="#C09973"/>
<path d="M519.03 177.65C497.45 177.65 495.77 162.13 495.77 157.37C495.77 151.48 501.68 144.1 502.36 143.28C503 142.5 504.16 142.38 504.95 143.03C505.74 143.67 505.85 144.83 505.21 145.62C503.61 147.58 499.46 153.5 499.46 157.38C499.46 162.37 501.37 173.98 519.04 173.98C538.76 173.98 557.81 153.27 557.98 153.05C558.61 152.25 559.08 151.57 559.3 151.66C559.46 151.73 559.03 152.42 558.39 153.21C557.62 154.17 540.53 177.65 519.03 177.65Z" fill="#C09973"/>
<path d="M192.11 625.48C156.65 625.48 125 614.27 94.92 591.44C40.36 550.03 52.57 475.64 52.7 474.9C52.88 473.9 53.83 473.23 54.83 473.4C55.83 473.57 56.5 474.53 56.33 475.53C56.2 476.26 44.4 548.47 97.15 588.51C139.97 621.01 186.08 629.42 242.26 614.97C264.35 609.29 280.59 592.33 290.9 580.06C304.62 563.73 317.59 528.59 317.72 528.23C318.72 525.2 419.93 218.7 439.51 159.78C440.76 156.01 442.35 152.06 444.22 148.03L427.3 123.03C414.08 145.59 407.83 165.62 407.77 165.82L303.2 465.56C302.94 466.3 302.25 466.79 301.46 466.79C300.68 466.79 299.98 466.29 299.72 465.55L195.9 165.89C195.83 165.66 190.63 148.98 179.7 128.96L163.14 156.92C163.49 157.88 163.83 158.83 164.14 159.78C180.58 209.27 251.87 422.84 281.75 512.37C281.78 512.45 281.8 512.53 281.81 512.61C281.89 513.02 282.07 513.49 282.28 514.06C282.94 515.83 283.92 518.51 284.03 522.7C284.03 522.92 284 523.13 283.93 523.34L270.57 562.97C256.93 598.99 229.63 609.51 209.13 612.01C166.14 617.25 128.09 604.78 96.07 574.97C56.46 538.09 64.77 480.23 64.86 479.64C65.01 478.64 65.95 477.96 66.96 478.1C67.96 478.25 68.66 479.19 68.5 480.2C68.41 480.76 60.42 536.74 98.58 572.28C129.77 601.32 166.81 613.46 208.69 608.37C228.18 606 254.14 595.98 267.11 561.75L280.34 522.49C280.21 519.1 279.41 516.94 278.83 515.36C278.57 514.66 278.35 514.05 278.22 513.45C248.31 423.85 177.08 210.43 160.64 160.96C160.25 159.78 159.83 158.6 159.38 157.4C159.18 156.88 159.23 156.29 159.52 155.81L178.16 124.34C178.49 123.77 179.08 123.43 179.76 123.44C180.42 123.44 181.02 123.8 181.34 124.37C193.53 145.97 199.32 164.57 199.38 164.76L301.47 459.37L404.27 164.69C404.31 164.54 411.15 142.62 425.63 118.66C425.95 118.12 426.53 117.79 427.16 117.77C427.8 117.75 428.38 118.06 428.73 118.58L447.86 146.85C448.23 147.39 448.28 148.08 448 148.67C445.99 152.89 444.31 157.02 443.01 160.95C423.43 219.87 322.22 526.37 321.2 529.46C320.64 530.98 307.85 565.62 293.72 582.44C283.09 595.09 266.29 612.6 243.18 618.54C225.22 623.16 208.27 625.49 192.11 625.49V625.48Z" fill="#C09973"/>
<path d="M188.72 623.57C160.58 623.57 134.65 615.66 110.19 599.71C84.78 583.15 70.12 566.98 62.66 547.28C51.11 516.78 51.68 492.89 53.47 475.48C53.67 473.58 55.39 472.24 57.25 472.4C59.15 472.6 60.52 474.29 60.33 476.18C58.62 492.83 58.07 515.68 69.11 544.83C76.02 563.07 89.85 578.21 113.96 593.92C147.42 615.73 183.81 621.75 225.23 612.35C256.55 605.23 271.99 573.35 278.41 554.97C279.04 553.17 281.01 552.23 282.81 552.85C284.61 553.48 285.56 555.45 284.93 557.25C278.04 576.97 261.32 611.22 226.76 619.08C213.63 622.06 200.97 623.56 188.73 623.56L188.72 623.57Z" fill="#C09973"/>
<path d="M132.41 418.27C132.41 418.27 146.84 415.87 164.27 429.72C172.74 436.45 157.97 420.86 151.88 417.97C145.79 415.08 132.41 413.25 131.8 413.41C131.19 413.56 132.41 418.28 132.41 418.28V418.27Z" fill="#C09973"/>
<path d="M311.09 551.91L426.09 206.34C426.09 206.34 431.91 182.8 443.4 155.69C444.59 152.88 445.87 150.06 447.22 147.25C447.16 147.14 447.1 147.05 447.04 146.94C443.96 140.92 437.28 131.97 432.34 125.27C425.68 135.5 420.37 145.08 415.52 158.92C397.85 209.32 344.35 363.48 305.35 476.05C293.48 442.2 221.62 237.21 195.07 161.48C190.37 148.07 185.1 135.75 178.41 125.64L165.51 149.61C166.87 153.14 183.73 203.19 183.73 203.19L289.52 521.77C281.09 546.13 274.01 566.61 269.09 580.89C260.18 606.71 223.8 620.42 223.8 620.42C223.8 620.42 260.85 612.44 277.06 598.27C288.31 588.43 311.1 551.91 311.1 551.91H311.09Z" fill="#C09973"/>
<path d="M244.79 595.04C197.19 577.78 165.67 539.87 145.94 492.57H144.7C142.61 542.7 174.85 584.99 227.51 605.24C229.06 605.84 246.58 595.69 244.79 595.04Z" fill="#C09973"/>
<path d="M167.71 460.19C170.18 445.08 163.21 434.28 161.32 436C161.16 436.15 164.44 439.71 162.95 447.12C161.89 452.43 157.84 457.79 151.09 456.34C148.38 455.75 147.53 450.93 143.21 450.93C134.73 450.93 129.65 455.85 129.65 464.35C129.65 472.85 137.21 479.75 146.53 479.75C155.85 479.75 165.74 472.19 167.71 460.19Z" fill="#C09973"/>
<path d="M138.19 107.65L150.8 96.0299C123.84 73.3999 98.13 65.9999 82.16 68.2399C49.9 72.7599 46.84 96.6899 46.84 96.6899C46.84 96.6899 55.66 75.4599 82.41 75.4599C104.84 75.4599 123.37 89.1499 138.19 107.66V107.65Z" fill="#C09973"/>
<path d="M521.49 68.2399C509.39 66.6299 483.4 72.3199 458.66 92.8299L473.06 106.86C479.4 99.4899 486.27 92.9899 493.6 87.8899C502.41 81.7699 513.38 77.0699 523.91 77.0699C550.66 77.0699 558.38 98.6399 558.38 98.6399C558.38 98.6399 554.63 72.6499 521.5 68.2499L521.49 68.2399Z" fill="#C09973"/>
<path d="M492.31 169.75C487.36 160.58 493.75 141.46 493.75 141.46C466.31 103.52 429.66 74.4999 385.46 58.4899C373.52 54.1599 352.43 46.4799 335.61 36.0899C317.3 24.7799 303.71 10.9099 303.71 10.9099C303.71 10.9099 289.13 24.3199 271.31 35.6499C254.86 46.1099 235.6 54.3699 223.82 58.7999C178.43 75.8699 140.63 107.43 112.82 148.6C112.82 148.6 117.8 160.07 109.87 172.65C105.29 179.92 92.71 183.58 92.71 183.58C71.56 227.17 59.96 278.24 59.96 332.64C59.96 371.73 65.24 408.85 75.51 442.63C77.37 443.16 78.82 443.5 79.65 443.58C86 444.21 89.48 440.93 92.51 450.56L95.55 460.18L103.15 463.22C103.15 463.22 108.05 443.02 115.79 438.26C123.22 433.69 128.24 433.33 129.52 437.11C121.79 402.14 118.55 364.88 118.55 328.61C118.55 198.56 167.61 55.3399 303.55 55.3399C449.14 55.3399 491.77 200.2 491.77 334.37C491.77 368.23 488.77 402.47 481.99 434.68C482.71 434.99 483.4 435.36 484.02 435.87C490.57 441.23 494.75 441.83 497.13 449.57C497.65 451.26 499.49 462.07 501.76 462.04C503.2 462.02 505.65 460.42 507.45 459.95C509.26 459.49 510.98 450.95 512.13 449.27C513.9 446.68 518.16 445.92 518.16 445.92L532.44 442.49C544.12 407.96 550.37 369.99 550.37 330.14C550.37 276.92 539.4 227.01 519.05 184.28C519.05 184.28 500.16 184.3 492.31 169.75ZM303.04 45.0499C298.41 45.0499 294.66 41.2999 294.66 36.6699C294.66 32.0399 298.41 28.2899 303.04 28.2899C307.67 28.2899 311.42 32.0399 311.42 36.6699C311.42 41.2999 307.67 45.0499 303.04 45.0499Z" fill="#C09973"/>
<path d="M458.3 504.64C430.25 563.79 382.07 605.16 305.97 605.16C296.5 605.16 282.68 603.62 274.07 602.44C270.48 604.26 269.54 604.66 266.64 605.91C262.19 607.83 259.34 612.19 256 613.57C270.46 616.58 286.11 618.22 302.91 618.22C369.58 618.22 414.98 589.42 447.33 546.14C459.36 530.05 456.68 514.74 458.62 508.53C458.62 508.53 460.17 500.71 458.3 504.65V504.64Z" fill="#C09973"/>
</g>
</g>
<defs>
<clipPath id="clip0_1_319">
<rect width="603.83" height="626.94" fill="white"/>
</clipPath>
</defs>
</svg>
