<svg width="19" height="11" viewBox="0 0 19 11" fill="none" xmlns="http://www.w3.org/2000/svg">
<g clip-path="url(#clip0_1_455)">
<path d="M18.1201 9.06C18.1201 8.8 18.0201 8.55 17.8301 8.35L9.77006 0.29C9.58006 0.1 9.33006 4.07937e-07 9.06006 3.96134e-07C8.79006 3.84332e-07 8.54006 0.11 8.35006 0.29L0.290058 8.35C-0.0999418 8.74 -0.0999418 9.37 0.290058 9.76C0.680058 10.15 1.31006 10.15 1.70006 9.76L9.06006 2.41L16.4101 9.76C16.8001 10.15 17.4301 10.15 17.8201 9.76C18.0201 9.56 18.1101 9.31 18.1101 9.05L18.1201 9.06Z" fill="#C09973"/>
</g>
<defs>
<clipPath id="clip0_1_455">
<rect width="10.06" height="18.12" fill="white" transform="matrix(-4.37114e-08 1 1 4.37114e-08 0 0)"/>
</clipPath>
</defs>
</svg>
