<svg width="20" height="20" viewBox="0 0 20 20" fill="none" xmlns="http://www.w3.org/2000/svg">
<path fill-rule="evenodd" clip-rule="evenodd" d="M15.2496 4.75892C14.9246 4.43392 14.3996 4.43392 14.0746 4.75892L9.99961 8.82559L5.92461 4.75059C5.59961 4.42559 5.07461 4.42559 4.74961 4.75059C4.42461 5.07559 4.42461 5.60059 4.74961 5.92559L8.82461 10.0006L4.74961 14.0756C4.42461 14.4006 4.42461 14.9256 4.74961 15.2506C5.07461 15.5756 5.59961 15.5756 5.92461 15.2506L9.99961 11.1756L14.0746 15.2506C14.3996 15.5756 14.9246 15.5756 15.2496 15.2506C15.5746 14.9256 15.5746 14.4006 15.2496 14.0756L11.1746 10.0006L15.2496 5.92559C15.5663 5.60892 15.5663 5.07559 15.2496 4.75892Z" fill="#F65164"/>
</svg>
