<svg width="10" height="10" viewBox="0 0 10 10" fill="none" xmlns="http://www.w3.org/2000/svg">
<path fill-rule="evenodd" clip-rule="evenodd" d="M9.72455 0.283027C9.43205 -0.00947264 8.95955 -0.00947264 8.66705 0.283027L4.99955 3.94303L1.33205 0.275527C1.03955 -0.0169727 0.567051 -0.0169727 0.274551 0.275527C-0.0179492 0.568027 -0.0179492 1.04053 0.274551 1.33303L3.94205 5.00053L0.274551 8.66803C-0.0179492 8.96053 -0.0179492 9.43303 0.274551 9.72553C0.567051 10.018 1.03955 10.018 1.33205 9.72553L4.99955 6.05803L8.66705 9.72553C8.95955 10.018 9.43205 10.018 9.72455 9.72553C10.0171 9.43303 10.0171 8.96053 9.72455 8.66803L6.05705 5.00053L9.72455 1.33303C10.0096 1.04803 10.0096 0.568027 9.72455 0.283027Z" fill="#8998D3"/>
</svg>
