<svg width="22" height="22" viewBox="0 0 22 22" fill="none" xmlns="http://www.w3.org/2000/svg">
<path d="M18.0145 5.28268C18.0145 5.28268 16.004 3.7088 13.6304 3.52905L13.4166 3.95737C15.562 4.48303 16.5468 5.23445 17.5761 6.15949C15.8018 5.25375 14.0513 4.40587 11 4.40587C7.94873 4.40587 6.19817 5.25375 4.42394 6.15949C5.45332 5.23445 6.62474 4.39886 8.58354 3.95737L8.3696 3.52905C5.87945 3.7636 3.98554 5.28268 3.98554 5.28268C3.98554 5.28268 1.74046 8.53828 1.3551 14.9276C3.61728 17.5375 7.05438 17.558 7.05438 17.558L7.77337 16.6005C6.55285 16.1762 5.17625 15.419 3.98554 14.0508C5.4051 15.1249 7.54758 16.2428 11 16.2428C14.4525 16.2428 16.595 15.1249 18.0145 14.0508C16.8243 15.419 15.4476 16.1762 14.2267 16.6005L14.9457 17.558C14.9457 17.558 18.3827 17.5375 20.6449 14.9276C20.2596 8.53828 18.0145 5.28268 18.0145 5.28268ZM8.15039 13.174C7.30252 13.174 6.61598 12.3893 6.61598 11.4204C6.61598 10.4514 7.30252 9.66672 8.15039 9.66672C8.99827 9.66672 9.68481 10.4514 9.68481 11.4204C9.68481 12.3893 8.99827 13.174 8.15039 13.174ZM13.8497 13.174C13.0018 13.174 12.3152 12.3893 12.3152 11.4204C12.3152 10.4514 13.0018 9.66672 13.8497 9.66672C14.6975 9.66672 15.3841 10.4514 15.3841 11.4204C15.3841 12.3893 14.6975 13.174 13.8497 13.174Z" fill="#737AAE"/>
</svg>
