<svg width="30" height="31" viewBox="0 0 30 31" fill="none" xmlns="http://www.w3.org/2000/svg">
<path d="M21.2868 17.9697C21.6599 18.1263 21.8198 18.6483 21.8198 18.9093C21.8731 19.3269 21.7665 19.5357 21.6066 19.5357C21.4467 19.5357 21.2335 19.3791 21.0203 19.0137C20.8071 18.6483 20.7005 18.2829 20.8071 18.0741C20.967 17.9697 21.1269 17.9175 21.2868 17.9697Z" fill="#F28A1A"/>
<path d="M19.1001 19.5879C19.3136 19.5879 19.5804 19.6923 19.8473 19.9011C20.2742 20.2665 20.4343 20.6841 20.2209 20.9973C20.1141 21.1539 19.8473 21.2583 19.6338 21.2583C19.367 21.2583 19.1001 21.1539 18.94 20.9973C18.5131 20.6319 18.4063 20.1099 18.6732 19.7967C18.7266 19.6923 18.8867 19.5879 19.1001 19.5879Z" fill="#F28A1A"/>
<path d="M14.0311 23.7118C8.48197 23.7118 4 19.327 4 13.9504C4 8.57374 8.48197 4.13672 14.0311 4.13672C19.5802 4.13672 24.0621 8.52154 24.0621 13.9504C24.0621 15.7774 23.5286 17.5 22.6749 18.9616C22.6215 19.0138 22.5681 19.0138 22.5681 18.9094C22.1946 16.5082 20.7007 15.2032 18.5664 14.7856C18.353 14.7334 18.353 14.629 18.6197 14.629C19.3134 14.5768 20.2204 14.5768 20.754 14.6812C20.8074 14.4202 20.8074 14.1592 20.8074 13.9504C20.8074 10.4008 17.8194 7.47754 14.1911 7.47754C10.5629 7.47754 7.5749 10.4008 7.5749 13.9504C7.5749 17.5 10.5629 20.4232 14.1911 20.4232H14.5113C14.4046 19.849 14.3512 19.2748 14.4046 18.6484C14.4046 18.2308 14.5113 18.1786 14.6713 18.4918C15.5784 20.0578 16.9123 21.415 19.4735 21.9892C21.5544 22.459 23.6353 22.981 25.9296 25.7476C26.143 26.0086 25.8229 26.2696 25.6095 26.0608C23.3151 24.0772 21.2342 23.3986 19.3134 23.3986C16.9123 23.4508 15.4717 23.7118 14.0311 23.7118Z" fill="#F28A1A"/>
</svg>
