<svg width="30" height="31" viewBox="0 0 30 31" fill="none" xmlns="http://www.w3.org/2000/svg">
<path d="M17.9333 14.7116L15.5762 12.1077L12.9571 14.4459L15.3143 17.1029L17.9333 14.7116Z" fill="#137ABE"/>
<path d="M11.0714 9.98209L13.4286 12.586L16.0476 10.2478L13.6905 7.64392L11.0714 9.98209Z" fill="#137ABE"/>
<path d="M19.7667 19.2285L17.4095 16.6246L14.7905 19.0159L17.1476 21.6198L19.7667 19.2285Z" fill="#137ABE"/>
<path d="M17.0429 23.586L12.7476 18.7502L13.9524 17.6874L10.9143 14.2865L12.119 13.2237L9.08095 9.82271L13.8476 5.51836L15.3667 7.1657L17.9857 4.88068L19.5048 6.47488L20.5 5.5715C20.2905 5.46522 20.0286 5.3058 19.819 5.19952C18.3 4.56184 16.6762 4.13672 14.9476 4.13672C8.92381 4.13672 4 9.07875 4 15.1367C4 21.1947 8.92381 26.1367 15 26.1367C16.9905 26.1367 18.8238 25.6053 20.3952 24.7019C20.919 24.3831 21.3905 24.0643 21.8619 23.7454L19.6619 21.2478L17.0429 23.586Z" fill="#137ABE"/>
<path d="M15.8905 8.70676L17.619 10.673L19.6095 8.91931L17.8286 6.95312L15.8905 8.70676Z" fill="#137ABE"/>
<path d="M21.3905 12.8517L19.6095 10.8855L17.6714 12.6923L19.4524 14.6053L21.3905 12.8517Z" fill="#137ABE"/>
<path d="M23.0667 16.9966L21.2857 15.0304L19.3476 16.7841L21.1286 18.8034L23.0667 16.9966Z" fill="#137ABE"/>
<path d="M23.1714 10.5135L21.8619 11.6826L23.0667 13.0111L24.3238 11.842L23.1714 10.5135Z" fill="#137ABE"/>
<path d="M23.5381 15.5618L24.6905 16.8903L26 15.7213L24.7952 14.3928L23.5381 15.5618Z" fill="#137ABE"/>
<path d="M20.1857 7.80337L21.3905 9.13187L22.6476 7.96279L21.4952 6.63428L20.1857 7.80337Z" fill="#137ABE"/>
<path d="M21.0762 20.7696L22.8571 22.7358L24.7952 20.9821L23.0143 19.0159L21.0762 20.7696Z" fill="#137ABE"/>
</svg>
