<svg width="21" height="21" viewBox="0 0 21 21" fill="none" xmlns="http://www.w3.org/2000/svg">
<path d="M10.9548 17.3117L17.1101 10.8003C18.6226 9.20041 18.8457 6.56831 17.4144 4.88693C17.0559 4.46455 16.6198 4.12387 16.1327 3.88568C15.6456 3.64748 15.1178 3.51677 14.5814 3.50151C14.0449 3.48625 13.5112 3.58677 13.0127 3.79692C12.5142 4.00708 12.0614 4.32247 11.682 4.72386L10.5251 5.9477L9.52616 4.89103C8.01373 3.29112 5.52555 3.05508 3.93609 4.56914C3.53681 4.94838 3.21476 5.40971 2.98959 5.92497C2.76442 6.44024 2.64085 6.99863 2.62643 7.56607C2.612 8.13352 2.70702 8.69813 2.90569 9.22545C3.10436 9.75277 3.4025 10.2317 3.78194 10.6331L10.0953 17.3117C10.2093 17.4323 10.3639 17.5 10.5251 17.5C10.6862 17.5 10.8408 17.4323 10.9548 17.3117V17.3117Z" stroke="#1D1D1D" stroke-width="1.5" stroke-linecap="round" stroke-linejoin="round"/>
</svg>
