<svg width="39" height="38" viewBox="0 0 39 38" fill="none" xmlns="http://www.w3.org/2000/svg">
<path fill-rule="evenodd" clip-rule="evenodd" d="M0.5 19C0.5 8.50659 9.00659 0 19.5 0C29.9934 0 38.5 8.50659 38.5 19C38.5 29.4934 29.9934 38 19.5 38C9.00659 38 0.5 29.4934 0.5 19ZM20.4939 25.2355C20.4939 25.2355 20.8597 25.1956 21.0471 24.9981C21.2185 24.8171 21.2126 24.4756 21.2126 24.4756C21.2126 24.4756 21.1898 22.8808 21.9441 22.6454C22.6876 22.4138 23.6421 24.1876 24.6552 24.8696C25.4204 25.3853 26.0013 25.2725 26.0013 25.2725L28.7084 25.2355C28.7084 25.2355 30.1239 25.1499 29.4528 24.0572C29.3973 23.9677 29.0613 23.2486 27.4406 21.7716C25.7426 20.2255 25.9706 20.4756 28.0145 17.8008C29.2595 16.172 29.7571 15.1776 29.6015 14.7524C29.4538 14.3457 28.5379 14.4537 28.5379 14.4537L25.4908 14.4722C25.4908 14.4722 25.2648 14.442 25.0973 14.5403C24.9337 14.6366 24.8277 14.8614 24.8277 14.8614C24.8277 14.8614 24.3459 16.1214 23.7026 17.1936C22.3456 19.4549 21.8034 19.5746 21.5813 19.4345C21.0649 19.1066 21.1938 18.119 21.1938 17.4174C21.1938 15.2253 21.5328 14.3116 20.5346 14.0752C20.2035 13.9964 19.9597 13.9448 19.1121 13.936C18.0248 13.9253 17.1049 13.9399 16.5835 14.19C16.2366 14.3564 15.9689 14.7281 16.1325 14.7495C16.3337 14.7757 16.7897 14.8701 17.0315 15.1931C17.3438 15.6106 17.3329 16.5466 17.3329 16.5466C17.3329 16.5466 17.5123 19.127 16.9136 19.4471C16.5032 19.667 15.9402 19.2185 14.7299 17.1664C14.1103 16.1156 13.6425 14.9538 13.6425 14.9538C13.6425 14.9538 13.5523 14.7368 13.3907 14.62C13.1954 14.479 12.9228 14.4352 12.9228 14.4352L10.0274 14.4537C10.0274 14.4537 9.59225 14.4653 9.43266 14.6512C9.29091 14.8156 9.42175 15.1571 9.42175 15.1571C9.42175 15.1571 11.6887 20.3637 14.256 22.9879C16.6103 25.3931 19.2826 25.2355 19.2826 25.2355H20.4939Z" fill="white"/>
</svg>
