<svg width="16" height="16" viewBox="0 0 16 16" fill="none" xmlns="http://www.w3.org/2000/svg">
<path d="M3.51286 6.99999C3.51121 6.40962 3.62607 5.82472 3.85085 5.27882C4.07563 4.73292 4.40592 4.23673 4.82279 3.81869C5.23966 3.40065 5.73493 3.06898 6.2802 2.84267C6.82547 2.61637 7.41004 2.49988 8.00042 2.49988C8.59079 2.49988 9.17536 2.61637 9.72063 2.84267C10.2659 3.06898 10.7612 3.40065 11.178 3.81869C11.5949 4.23673 11.9252 4.73292 12.15 5.27882C12.3748 5.82472 12.4896 6.40962 12.488 6.99999V6.99999C12.488 9.23846 12.9563 10.5374 13.3688 11.2474C13.4132 11.3232 13.4369 11.4095 13.4373 11.4974C13.4378 11.5853 13.4151 11.6718 13.3715 11.7481C13.3278 11.8244 13.2649 11.8879 13.1889 11.9321C13.1129 11.9764 13.0266 11.9998 12.9387 12H3.06164C2.97372 11.9998 2.88741 11.9763 2.81142 11.9321C2.73543 11.8879 2.67245 11.8244 2.62884 11.748C2.58522 11.6717 2.56251 11.5852 2.563 11.4973C2.56348 11.4094 2.58715 11.3231 2.6316 11.2473C3.04431 10.5373 3.51285 9.23835 3.51285 6.99999H3.51286Z" stroke="#565656" stroke-linecap="round" stroke-linejoin="round"/>
<path d="M6 12V12.5C6 13.0304 6.21071 13.5391 6.58579 13.9142C6.96086 14.2893 7.46957 14.5 8 14.5C8.53043 14.5 9.03914 14.2893 9.41421 13.9142C9.78929 13.5391 10 13.0304 10 12.5V12" stroke="#565656" stroke-linecap="round" stroke-linejoin="round"/>
<path d="M11.4644 1.49927C12.4818 2.14155 13.3019 3.05248 13.8343 4.13149" stroke="#565656" stroke-linecap="round" stroke-linejoin="round"/>
<path d="M2.16553 4.13149C2.69787 3.05248 3.51802 2.14155 4.53543 1.49927" stroke="#565656" stroke-linecap="round" stroke-linejoin="round"/>
</svg>
