<svg width="40" height="26" viewBox="0 0 40 26" fill="none" xmlns="http://www.w3.org/2000/svg">
<path d="M25.0398 3.88477H14.8398V21.5386H25.0398V3.88477Z" fill="#FF5F00"/>
<path d="M15.4791 12.6923C15.4791 9.11539 17.2391 5.92309 19.9191 3.88462C17.9591 2.38462 15.4391 1.5 12.7191 1.5C6.27907 1.5 1.03906 6.50001 1.03906 12.7308C1.03906 18.9615 6.23907 23.9615 12.7191 23.9615C15.4391 23.9615 17.9191 23.0385 19.9191 21.5769C17.2391 19.5 15.4791 16.3077 15.4791 12.6923Z" fill="#EB001B"/>
<path d="M38.8409 12.6923C38.8409 18.8846 33.6409 23.9231 27.1609 23.9231C24.4409 23.9231 21.9609 23 19.9609 21.5385C22.6809 19.4615 24.4009 16.3077 24.4009 12.6923C24.4009 9.07693 22.6409 5.96155 19.9609 3.88462C21.9209 2.38462 24.4409 1.5 27.1609 1.5C33.6009 1.5 38.8409 6.53847 38.8409 12.6923Z" fill="#F79E1B"/>
</svg>
