<svg width="38" height="38" viewBox="0 0 38 38" fill="none" xmlns="http://www.w3.org/2000/svg">
<path d="M19.8229 31.3261L30.9612 19.5436C33.698 16.6485 34.1018 11.8857 31.5118 8.84317C30.8631 8.07887 30.0739 7.46241 29.1925 7.03139C28.3112 6.60037 27.356 6.36384 26.3853 6.33623C25.4146 6.30862 24.4488 6.4905 23.5468 6.87079C22.6448 7.25107 21.8255 7.82178 21.1388 8.5481L19.0453 10.7627L17.2378 8.85061C14.501 5.95552 9.99861 5.5284 7.12245 8.26813C6.39994 8.95438 5.81718 9.78917 5.40973 10.7215C5.00228 11.6539 4.77869 12.6643 4.75258 13.6912C4.72648 14.718 4.89842 15.7396 5.25791 16.6938C5.6174 17.648 6.15691 18.5147 6.84351 19.2411L18.2678 31.3261C18.474 31.5443 18.7537 31.6668 19.0453 31.6668C19.337 31.6668 19.6167 31.5443 19.8229 31.3261V31.3261Z" stroke="#1D1D1D" stroke-width="1.5" stroke-linecap="round" stroke-linejoin="round"/>
</svg>
