<svg width="39" height="38" viewBox="0 0 39 38" fill="none" xmlns="http://www.w3.org/2000/svg">
<path fill-rule="evenodd" clip-rule="evenodd" d="M0.5 19C0.5 8.50659 9.00659 0 19.5 0C29.9934 0 38.5 8.50659 38.5 19C38.5 29.4934 29.9934 38 19.5 38C9.00659 38 0.5 29.4934 0.5 19ZM29.2098 14.308C28.9767 13.4126 28.29 12.7075 27.4179 12.4682C25.8376 12.0333 19.5 12.0333 19.5 12.0333C19.5 12.0333 13.1624 12.0333 11.582 12.4682C10.7099 12.7075 10.0231 13.4126 9.79008 14.308C9.36667 15.9307 9.36667 19.3167 9.36667 19.3167C9.36667 19.3167 9.36667 22.7025 9.79008 24.3254C10.0231 25.2207 10.7099 25.9258 11.582 26.1652C13.1624 26.6 19.5 26.6 19.5 26.6C19.5 26.6 25.8376 26.6 27.4179 26.1652C28.29 25.9258 28.9767 25.2207 29.2098 24.3254C29.6333 22.7025 29.6333 19.3167 29.6333 19.3167C29.6333 19.3167 29.6333 15.9307 29.2098 14.308Z" fill="white"/>
<path fill-rule="evenodd" clip-rule="evenodd" d="M17.6001 22.7992V16.4658L22.6668 19.6326L17.6001 22.7992Z" fill="white"/>
</svg>
