<svg width="25" height="24" viewBox="0 0 25 24" fill="none" xmlns="http://www.w3.org/2000/svg">
<path d="M12.5 21C17.4706 21 21.5 16.9706 21.5 12C21.5 7.02944 17.4706 3 12.5 3C7.52944 3 3.5 7.02944 3.5 12C3.5 16.9706 7.52944 21 12.5 21Z" stroke="#565656" stroke-width="1.5" stroke-linecap="round" stroke-linejoin="round"/>
<path d="M11.75 11.25H12.5001L12.5 16.5H13.25" stroke="#565656" stroke-width="1.5" stroke-linecap="round" stroke-linejoin="round"/>
<path d="M12.3125 8.8125C12.8303 8.8125 13.25 8.39277 13.25 7.875C13.25 7.35723 12.8303 6.9375 12.3125 6.9375C11.7947 6.9375 11.375 7.35723 11.375 7.875C11.375 8.39277 11.7947 8.8125 12.3125 8.8125Z" fill="#565656"/>
</svg>
