<svg width="196" height="186" viewBox="0 0 196 186" fill="none" xmlns="http://www.w3.org/2000/svg">
<g clip-path="url(#clip0_16_11361)">
<path d="M82.4871 163.499L71.5686 173.79L65.265 142.589C64.8388 140.492 62.8715 139.072 60.7402 139.316L28.8701 142.997L42.2313 113.959C43.1248 112.008 42.3788 109.707 40.5017 108.662L12.5497 93L40.5099 77.33C42.3788 76.2772 43.1329 73.9756 42.2395 72.0332L28.8783 42.9947L60.7484 46.6755C63.019 46.9367 65.0683 45.3207 65.3306 43.0681C65.5929 40.8074 63.9699 38.767 61.7075 38.5059L22.5501 33.9762C21.0665 33.8048 19.6074 34.4414 18.7303 35.6412C17.8532 36.8409 17.6975 38.4242 18.3122 39.7709L33.1571 72.0087L2.10665 89.4171C0.803312 90.1517 0 91.5146 0 93C0 94.4854 0.803312 95.8565 2.10665 96.5829L33.1407 113.975L18.2958 146.213C17.6729 147.559 17.8368 149.143 18.7139 150.343C19.591 151.542 21.0501 152.179 22.5337 152.007L57.9123 147.919L64.9371 182.686C65.2322 184.147 66.306 185.339 67.7405 185.796C68.1504 185.927 68.5684 185.992 68.9865 185.992C70.0275 185.992 71.0522 185.6 71.8227 184.866L88.1594 169.473C89.8152 167.906 89.889 165.303 88.3234 163.654C86.7577 162.005 84.1429 161.932 82.4871 163.491V163.499Z" fill="#EAF2FF"/>
<path d="M193.894 89.4171L172.729 77.5585C170.737 76.4485 168.221 77.1423 167.106 79.1255C165.991 81.1006 166.696 83.6143 168.68 84.7243L183.443 93L155.482 108.67C153.613 109.723 152.859 112.024 153.753 113.967L167.122 143.005L135.252 139.325C133.121 139.08 131.145 140.5 130.727 142.597L124.399 173.913L100.792 152.285C99.1111 150.751 96.4963 150.857 94.9552 152.53C93.406 154.203 93.5207 156.798 95.2011 158.341L124.211 184.923C124.981 185.633 125.989 186.008 127.006 186.008C127.432 186.008 127.866 185.943 128.284 185.804C129.703 185.347 130.76 184.164 131.055 182.703L138.08 147.935L173.459 152.024C174.942 152.195 176.401 151.559 177.278 150.359C178.155 149.159 178.311 147.576 177.688 146.229L162.843 113.991L193.886 96.5911C195.181 95.8647 195.992 94.4936 195.992 93.0082C195.992 91.5228 195.189 90.1517 193.886 89.4253L193.894 89.4171Z" fill="#EAF2FF"/>
<path d="M63.4045 31.7644C65.6423 32.2133 67.8146 30.7687 68.2654 28.5407L71.5934 12.079L95.2009 33.7069C96.783 35.1514 99.2175 35.1514 100.791 33.7069L124.399 12.079L130.727 43.3945C131.145 45.492 133.121 46.9121 135.252 46.6673L167.122 42.9865L153.753 72.025C152.802 74.0898 153.712 76.5301 155.785 77.4769C156.343 77.7299 156.925 77.8523 157.507 77.8523C159.072 77.8523 160.573 76.9627 161.261 75.4528L177.688 39.7708C178.311 38.4242 178.147 36.8409 177.278 35.6411C176.401 34.4414 174.942 33.8048 173.458 33.9762L138.08 38.0651L131.055 3.29721C130.76 1.84447 129.702 0.652892 128.284 0.19585C126.866 -0.261193 125.309 0.0734277 124.21 1.08545L97.9961 25.1047L71.7901 1.08545C70.6917 0.0815892 69.1343 -0.261193 67.7162 0.19585C66.2981 0.652892 65.2325 1.83631 64.9456 3.29721L60.1749 26.9165C59.7241 29.1446 61.1749 31.3074 63.4127 31.7644H63.4045Z" fill="#EAF2FF"/>
<path d="M110.021 52.6171C107.209 48.9444 102.939 46.8306 98.2991 46.8306H98.0204C93.4055 46.8306 89.1512 48.9199 86.3396 52.5681C83.528 56.2163 82.6018 60.852 83.7985 65.2918L94.0039 103.202C94.4875 104.997 96.1187 106.246 97.9876 106.246H97.9958C99.8566 106.246 101.488 105.006 101.98 103.218L109.136 77.0851C109.734 74.8897 108.439 72.629 106.234 72.0332C104.037 71.4374 101.758 72.7269 101.16 74.9142L98.0204 86.3811L91.7661 63.1617C91.2415 61.2192 91.6513 59.1789 92.8809 57.5792C94.1104 55.9796 95.9794 55.0655 98.004 55.0655H98.2827C100.316 55.0655 102.193 55.9877 103.422 57.6037C104.652 59.2197 105.045 61.2601 104.504 63.2188C103.898 65.4061 105.185 67.675 107.381 68.2789C109.578 68.8829 111.857 67.6015 112.464 65.4142C113.701 60.9662 112.8 56.2979 109.988 52.6252L110.021 52.6171Z" fill="#E75755"/>
<path d="M98.2252 111.731C90.2495 111.731 83.7656 118.186 83.7656 126.127C83.7656 134.069 90.2495 140.524 98.2252 140.524C106.201 140.524 112.685 134.069 112.685 126.127C112.685 118.186 106.201 111.731 98.2252 111.731ZM98.2252 132.298C94.8071 132.298 92.0283 129.531 92.0283 126.127C92.0283 122.724 94.8071 119.957 98.2252 119.957C101.643 119.957 104.422 122.724 104.422 126.127C104.422 129.531 101.643 132.298 98.2252 132.298Z" fill="#E75755"/>
</g>
<defs>
<clipPath id="clip0_16_11361">
<rect width="196" height="186" fill="white"/>
</clipPath>
</defs>
</svg>
