<svg width="165" height="229" viewBox="0 0 165 229" fill="none" xmlns="http://www.w3.org/2000/svg">
<g clip-path="url(#clip0_25_16694)">
<g opacity="0.2">
<path d="M160.59 2H4C2.89543 2 2 2.89543 2 4V224.82C2 225.925 2.89543 226.82 4 226.82H160.59C161.695 226.82 162.59 225.925 162.59 224.82V4C162.59 2.89543 161.695 2 160.59 2Z" stroke="#4452A7" stroke-width="4" stroke-miterlimit="10"/>
<path d="M141.32 21.27H23.2695C22.165 21.27 21.2695 22.1654 21.2695 23.27V57.81C21.2695 58.9146 22.165 59.81 23.2695 59.81H141.32C142.424 59.81 143.32 58.9146 143.32 57.81V23.27C143.32 22.1654 142.424 21.27 141.32 21.27Z" stroke="#EA5755" stroke-width="4" stroke-miterlimit="10"/>
<path d="M38.5395 85.51H23.2695C22.165 85.51 21.2695 86.4054 21.2695 87.51V102.78C21.2695 103.885 22.165 104.78 23.2695 104.78H38.5395C39.6441 104.78 40.5395 103.885 40.5395 102.78V87.51C40.5395 86.4054 39.6441 85.51 38.5395 85.51Z" stroke="#4452A7" stroke-width="4" stroke-miterlimit="10"/>
<path d="M89.9302 85.51H74.6602C73.5556 85.51 72.6602 86.4054 72.6602 87.51V102.78C72.6602 103.885 73.5556 104.78 74.6602 104.78H89.9302C91.0347 104.78 91.9302 103.885 91.9302 102.78V87.51C91.9302 86.4054 91.0347 85.51 89.9302 85.51Z" stroke="#4452A7" stroke-width="4" stroke-miterlimit="10"/>
<path d="M141.321 85.51H126.051C124.946 85.51 124.051 86.4054 124.051 87.51V102.78C124.051 103.885 124.946 104.78 126.051 104.78H141.321C142.425 104.78 143.321 103.885 143.321 102.78V87.51C143.321 86.4054 142.425 85.51 141.321 85.51Z" stroke="#4452A7" stroke-width="4" stroke-miterlimit="10"/>
<path d="M38.5395 130.47H23.2695C22.165 130.47 21.2695 131.365 21.2695 132.47V147.74C21.2695 148.845 22.165 149.74 23.2695 149.74H38.5395C39.6441 149.74 40.5395 148.845 40.5395 147.74V132.47C40.5395 131.365 39.6441 130.47 38.5395 130.47Z" stroke="#4452A7" stroke-width="4" stroke-miterlimit="10"/>
<path d="M89.9302 130.47H74.6602C73.5556 130.47 72.6602 131.365 72.6602 132.47V147.74C72.6602 148.845 73.5556 149.74 74.6602 149.74H89.9302C91.0347 149.74 91.9302 148.845 91.9302 147.74V132.47C91.9302 131.365 91.0347 130.47 89.9302 130.47Z" stroke="#4452A7" stroke-width="4" stroke-miterlimit="10"/>
<path d="M141.321 130.47H126.051C124.946 130.47 124.051 131.365 124.051 132.47V147.74C124.051 148.845 124.946 149.74 126.051 149.74H141.321C142.425 149.74 143.321 148.845 143.321 147.74V132.47C143.321 131.365 142.425 130.47 141.321 130.47Z" stroke="#4452A7" stroke-width="4" stroke-miterlimit="10"/>
<path d="M38.5395 175.44H23.2695C22.165 175.44 21.2695 176.335 21.2695 177.44V192.71C21.2695 193.815 22.165 194.71 23.2695 194.71H38.5395C39.6441 194.71 40.5395 193.815 40.5395 192.71V177.44C40.5395 176.335 39.6441 175.44 38.5395 175.44Z" stroke="#4452A7" stroke-width="4" stroke-miterlimit="10"/>
<path d="M89.9302 175.44H74.6602C73.5556 175.44 72.6602 176.335 72.6602 177.44V192.71C72.6602 193.815 73.5556 194.71 74.6602 194.71H89.9302C91.0347 194.71 91.9302 193.815 91.9302 192.71V177.44C91.9302 176.335 91.0347 175.44 89.9302 175.44Z" stroke="#4452A7" stroke-width="4" stroke-miterlimit="10"/>
<path d="M141.321 175.44H126.051C124.946 175.44 124.051 176.335 124.051 177.44V192.71C124.051 193.815 124.946 194.71 126.051 194.71H141.321C142.425 194.71 143.321 193.815 143.321 192.71V177.44C143.321 176.335 142.425 175.44 141.321 175.44Z" stroke="#4452A7" stroke-width="4" stroke-miterlimit="10"/>
</g>
</g>
<defs>
<clipPath id="clip0_25_16694">
<rect width="164.59" height="228.82" fill="white"/>
</clipPath>
</defs>
</svg>
