<svg width="410" height="372" viewBox="0 0 410 372" fill="none" xmlns="http://www.w3.org/2000/svg">
<g opacity="0.32">
<path d="M377.6 115.2H239.45L343.73 10.93C346.23 8.43001 346.23 4.38 343.73 1.88C341.23 -0.619995 337.18 -0.619995 334.68 1.88L221.35 115.21H188.25L74.93 1.88C72.43 -0.619995 68.38 -0.619995 65.88 1.88C63.38 4.38 63.38 8.43001 65.88 10.93L170.15 115.2H32C14.35 115.2 0 129.55 0 147.2V339.2C0 356.84 14.35 371.2 32 371.2H377.6C395.24 371.2 409.6 356.84 409.6 339.2V147.2C409.6 129.56 395.24 115.2 377.6 115.2ZM396.8 339.2C396.8 349.79 388.19 358.4 377.6 358.4H32C21.41 358.4 12.8 349.79 12.8 339.2V147.2C12.8 136.61 21.41 128 32 128H208.55L200.28 136.27C197.78 138.77 197.78 142.83 200.28 145.33C201.53 146.58 203.17 147.2 204.81 147.2C206.45 147.2 208.08 146.58 209.33 145.33L226.66 128H377.61C388.2 128 396.81 136.61 396.81 147.2V339.2H396.8Z" fill="#4452A4"/>
<path d="M115.2 256C132.84 256 147.2 241.64 147.2 224V217.6C147.2 199.95 132.84 185.6 115.2 185.6C97.5602 185.6 83.2002 199.95 83.2002 217.6V224C83.2002 241.64 97.5602 256 115.2 256ZM96.0002 217.6C96.0002 207.01 104.61 198.4 115.2 198.4C125.79 198.4 134.4 207.01 134.4 217.6V224C134.4 234.59 125.79 243.2 115.2 243.2C104.61 243.2 96.0002 234.59 96.0002 224V217.6Z" fill="#4452A4"/>
<path d="M140.86 256.21H135.43C133.21 256.21 131.15 257.36 129.98 259.25C126.24 265.32 120.86 268.8 115.2 268.8C109.54 268.8 104.16 265.32 100.43 259.26C99.2698 257.37 97.1998 256.21 94.9798 256.21H89.5498C75.1598 256.21 64.0098 269.86 64.0098 281.6V295.46C64.0098 301.93 69.2798 307.2 75.7498 307.2H154.7C161.16 307.2 166.41 301.95 166.41 295.49V281.6C166.41 276.03 163.82 269.79 159.47 264.92C154.45 259.3 147.85 256.21 140.87 256.21H140.86ZM153.6 294.4H76.7998V281.6C76.7998 277.28 81.7598 269.01 89.5398 269.01H91.5998C97.6498 277.06 106.09 281.6 115.2 281.6C124.31 281.6 132.75 277.06 138.8 269.01H140.85C148.63 269.01 153.59 277.28 153.59 281.6V294.4H153.6Z" fill="#4452A4"/>
<path d="M172.8 153.6H57.6004C47.0104 153.6 38.4004 162.21 38.4004 172.8V313.6C38.4004 324.19 47.0104 332.8 57.6004 332.8H172.8C183.39 332.8 192 324.19 192 313.6V172.8C192 162.21 183.39 153.6 172.8 153.6ZM179.2 313.6C179.2 317.13 176.33 320 172.8 320H57.6004C54.0704 320 51.2004 317.13 51.2004 313.6V172.8C51.2004 169.27 54.0704 166.4 57.6004 166.4H172.8C176.33 166.4 179.2 169.27 179.2 172.8V313.6Z" fill="#4452A4"/>
<path d="M211.2 179.2H326.4C329.94 179.2 332.8 176.34 332.8 172.8C332.8 169.26 329.93 166.4 326.4 166.4H211.2C207.66 166.4 204.8 169.26 204.8 172.8C204.8 176.34 207.66 179.2 211.2 179.2Z" fill="#4452A4"/>
<path d="M364.8 192H211.2C207.66 192 204.8 194.87 204.8 198.4C204.8 201.93 207.66 204.8 211.2 204.8H364.8C368.34 204.8 371.2 201.93 371.2 198.4C371.2 194.87 368.34 192 364.8 192Z" fill="#4452A4"/>
<path d="M236.8 268.8H294.4C297.94 268.8 300.8 265.93 300.8 262.4C300.8 258.87 297.93 256 294.4 256H236.8C233.26 256 230.4 258.87 230.4 262.4C230.4 265.93 233.27 268.8 236.8 268.8Z" fill="#4452A4"/>
<path d="M211.2 256C209.51 256 207.86 256.68 206.67 257.87C205.48 259.07 204.8 260.71 204.8 262.4C204.8 264.09 205.48 265.74 206.67 266.93C207.86 268.12 209.51 268.8 211.2 268.8C212.89 268.8 214.54 268.12 215.73 266.93C216.92 265.74 217.61 264.09 217.61 262.4C217.61 260.71 216.93 259.06 215.73 257.87C214.54 256.68 212.89 256 211.2 256Z" fill="#4452A4"/>
<path d="M339.2 281.6H236.8C233.26 281.6 230.4 284.46 230.4 288C230.4 291.54 233.27 294.4 236.8 294.4H339.2C342.74 294.4 345.6 291.53 345.6 288C345.6 284.47 342.73 281.6 339.2 281.6Z" fill="#4452A4"/>
<path d="M211.2 281.6C209.51 281.6 207.86 282.28 206.67 283.47C205.48 284.66 204.8 286.31 204.8 288C204.8 289.69 205.48 291.34 206.67 292.53C207.86 293.72 209.51 294.41 211.2 294.41C212.89 294.41 214.54 293.73 215.73 292.53C216.92 291.34 217.61 289.69 217.61 288C217.61 286.31 216.93 284.66 215.73 283.47C214.54 282.28 212.89 281.6 211.2 281.6Z" fill="#4452A4"/>
<path d="M320 307.2H236.8C233.26 307.2 230.4 310.07 230.4 313.6C230.4 317.13 233.27 320 236.8 320H320C323.54 320 326.4 317.14 326.4 313.6C326.4 310.06 323.54 307.2 320 307.2Z" fill="#4452A4"/>
<path d="M211.2 307.2C209.51 307.2 207.86 307.88 206.67 309.08C205.48 310.27 204.8 311.92 204.8 313.61C204.8 315.3 205.48 316.95 206.67 318.14C207.86 319.33 209.51 320.01 211.2 320.01C212.89 320.01 214.54 319.33 215.73 318.14C216.92 316.95 217.61 315.3 217.61 313.61C217.61 311.92 216.93 310.27 215.73 309.08C214.54 307.88 212.89 307.2 211.2 307.2Z" fill="#4452A4"/>
</g>
</svg>
