<svg width="292" height="112" viewBox="0 0 292 112" fill="none" xmlns="http://www.w3.org/2000/svg">
<g clip-path="url(#clip0_16_11722)">
<path d="M78.27 56.32C83.3 61.82 85.82 68.62 85.82 76.74C85.82 83.01 84.18 88.78 80.89 94.07C77.6 99.36 72.59 103.6 65.87 106.78C59.14 109.96 50.9 111.56 41.14 111.56C33.54 111.56 26.06 110.56 18.72 108.56C11.37 106.56 5.13 103.71 0 100.01L9.71 80.9C13.82 83.98 18.57 86.37 23.96 88.06C29.35 89.76 34.87 90.6 40.52 90.6C46.78 90.6 51.71 89.39 55.31 86.98C58.9 84.57 60.7 81.15 60.7 76.73C60.7 67.9 53.97 63.48 40.52 63.48H29.12V46.99L51.31 21.87H5.39V1.84998H80.89V18.03L56.55 45.76C66 47.3 73.24 50.82 78.28 56.31L78.27 56.32Z" fill="#DCE4F5"/>
<path d="M183.43 63.48C186.25 67.79 187.67 72.78 187.67 78.43C187.67 85.11 185.77 90.94 181.97 95.92C178.17 100.9 172.83 104.76 165.95 107.48C159.07 110.2 151.11 111.56 142.07 111.56C133.03 111.56 125.09 110.2 118.26 107.48C111.43 104.76 106.14 100.91 102.39 95.92C98.6395 90.94 96.7695 85.11 96.7695 78.43C96.7695 72.78 98.1795 67.8 101.01 63.48C103.83 59.17 107.87 55.67 113.11 53C109.1 50.53 106.02 47.43 103.86 43.68C101.7 39.93 100.62 35.64 100.62 30.81C100.62 24.55 102.37 19.1 105.86 14.48C109.35 9.86 114.23 6.29 120.5 3.77C126.76 1.25 133.96 0 142.07 0C150.18 0 157.56 1.26 163.87 3.77C170.19 6.29 175.09 9.86 178.58 14.48C182.07 19.1 183.82 24.55 183.82 30.81C183.82 35.64 182.74 39.93 180.58 43.68C178.42 47.43 175.29 50.54 171.18 53C176.52 55.67 180.6 59.16 183.43 63.48ZM156.93 88.98C160.58 86.16 162.4 82.38 162.4 77.65C162.4 72.92 160.58 69.18 156.93 66.4C153.28 63.63 148.33 62.24 142.06 62.24C135.79 62.24 131.02 63.63 127.42 66.4C123.82 69.17 122.03 72.92 122.03 77.65C122.03 82.38 123.83 86.28 127.42 89.05C131.01 91.82 135.89 93.21 142.06 93.21C148.23 93.21 153.28 91.8 156.93 88.97V88.98ZM129.97 21.95C126.94 24.37 125.42 27.68 125.42 31.89C125.42 36.1 126.91 39.24 129.89 41.6C132.87 43.96 136.93 45.14 142.06 45.14C147.19 45.14 151.31 43.96 154.39 41.6C157.47 39.24 159.01 36 159.01 31.89C159.01 27.78 157.47 24.37 154.39 21.95C151.31 19.54 147.2 18.33 142.06 18.33C136.92 18.33 132.99 19.54 129.96 21.95H129.97Z" fill="#DCE4F5"/>
<path d="M221.41 104.93C214.42 100.51 208.95 94.12 205 85.75C201.04 77.38 199.07 67.39 199.07 55.78C199.07 44.17 201.05 34.18 205 25.81C208.95 17.44 214.42 11.04 221.41 6.63C228.39 2.21 236.36 0 245.29 0C254.22 0 262.19 2.21 269.17 6.63C276.15 11.05 281.62 17.44 285.58 25.81C289.53 34.18 291.51 44.17 291.51 55.78C291.51 67.39 289.53 77.38 285.58 85.75C281.62 94.12 276.15 100.52 269.17 104.93C262.18 109.35 254.22 111.56 245.29 111.56C236.36 111.56 228.39 109.35 221.41 104.93ZM260.78 81.97C264.53 76.32 266.4 67.59 266.4 55.78C266.4 43.97 264.52 35.24 260.78 29.59C257.03 23.94 251.87 21.12 245.29 21.12C238.71 21.12 233.71 23.95 229.96 29.59C226.21 35.24 224.34 43.97 224.34 55.78C224.34 67.59 226.21 76.33 229.96 81.97C233.71 87.62 238.82 90.44 245.29 90.44C251.76 90.44 257.02 87.62 260.78 81.97Z" fill="#DCE4F5"/>
</g>
<defs>
<clipPath id="clip0_16_11722">
<rect width="291.52" height="111.55" fill="white"/>
</clipPath>
</defs>
</svg>
