<svg width="263" height="112" viewBox="0 0 263 112" fill="none" xmlns="http://www.w3.org/2000/svg">
<g clip-path="url(#clip0_16_11747)">
<path d="M46.53 1.84998V109.71H21.57V21.88H0V1.84998H46.53Z" fill="#DCE4F5"/>
<path d="M87.6701 104.93C80.6801 100.51 75.2101 94.12 71.2601 85.75C67.3001 77.38 65.3301 67.39 65.3301 55.78C65.3301 44.17 67.3101 34.18 71.2601 25.81C75.2101 17.44 80.6801 11.04 87.6701 6.63C94.6501 2.21 102.62 0 111.55 0C120.48 0 128.45 2.21 135.43 6.63C142.41 11.05 147.88 17.44 151.84 25.81C155.79 34.18 157.77 44.17 157.77 55.78C157.77 67.39 155.79 77.38 151.84 85.75C147.88 94.12 142.41 100.52 135.43 104.93C128.44 109.35 120.48 111.56 111.55 111.56C102.62 111.56 94.6501 109.35 87.6701 104.93ZM127.04 81.97C130.79 76.32 132.66 67.59 132.66 55.78C132.66 43.97 130.78 35.24 127.04 29.59C123.29 23.94 118.13 21.12 111.55 21.12C104.97 21.12 99.9701 23.95 96.2201 29.59C92.4701 35.24 90.6001 43.97 90.6001 55.78C90.6001 67.59 92.4701 76.33 96.2201 81.97C99.9701 87.62 105.08 90.44 111.55 90.44C118.02 90.44 123.28 87.62 127.04 81.97Z" fill="#DCE4F5"/>
<path d="M192.29 104.93C185.3 100.51 179.83 94.12 175.88 85.75C171.92 77.38 169.95 67.39 169.95 55.78C169.95 44.17 171.93 34.18 175.88 25.81C179.83 17.44 185.3 11.04 192.29 6.63C199.27 2.21 207.24 0 216.17 0C225.1 0 233.07 2.21 240.05 6.63C247.03 11.05 252.5 17.44 256.46 25.81C260.41 34.18 262.39 44.17 262.39 55.78C262.39 67.39 260.41 77.38 256.46 85.75C252.5 94.12 247.03 100.52 240.05 104.93C233.06 109.35 225.1 111.56 216.17 111.56C207.24 111.56 199.27 109.35 192.29 104.93ZM231.66 81.97C235.41 76.32 237.28 67.59 237.28 55.78C237.28 43.97 235.4 35.24 231.66 29.59C227.91 23.94 222.75 21.12 216.17 21.12C209.59 21.12 204.59 23.95 200.84 29.59C197.09 35.24 195.22 43.97 195.22 55.78C195.22 67.59 197.09 76.33 200.84 81.97C204.59 87.62 209.7 90.44 216.17 90.44C222.64 90.44 227.9 87.62 231.66 81.97Z" fill="#DCE4F5"/>
</g>
<defs>
<clipPath id="clip0_16_11747">
<rect width="262.4" height="111.55" fill="white"/>
</clipPath>
</defs>
</svg>
