<svg width="280" height="112" viewBox="0 0 280 112" fill="none" xmlns="http://www.w3.org/2000/svg">
<g clip-path="url(#clip0_16_11737)">
<path d="M86.44 1.84998V18.03L46.38 109.71H19.26L57.93 22.19H22.19V39.75H0V1.84998H86.44Z" fill="#DCE4F5"/>
<path d="M165.56 51.46C172.8 57.52 176.42 65.64 176.42 75.81C176.42 82.38 174.78 88.37 171.49 93.76C168.2 99.15 163.19 103.47 156.47 106.7C149.74 109.94 141.45 111.55 131.59 111.55C123.99 111.55 116.51 110.55 109.17 108.55C101.82 106.55 95.5802 103.7 90.4502 100L100.31 80.89C104.42 83.97 109.14 86.36 114.49 88.05C119.83 89.75 125.33 90.59 130.98 90.59C137.24 90.59 142.17 89.36 145.77 86.89C149.36 84.42 151.16 80.98 151.16 76.57C151.16 72.16 149.28 68.46 145.54 66.09C141.79 63.73 135.29 62.55 126.05 62.55H98.4702L104 1.84998H169.79V21.88H124.8L123.11 42.37H131.89C147.09 42.37 158.31 45.4 165.56 51.46Z" fill="#DCE4F5"/>
<path d="M208.93 104.93C201.94 100.51 196.47 94.12 192.52 85.75C188.56 77.38 186.59 67.39 186.59 55.78C186.59 44.17 188.57 34.18 192.52 25.81C196.47 17.44 201.94 11.04 208.93 6.63C215.91 2.21 223.88 0 232.81 0C241.74 0 249.71 2.21 256.69 6.63C263.67 11.05 269.14 17.44 273.1 25.81C277.05 34.18 279.03 44.17 279.03 55.78C279.03 67.39 277.05 77.38 273.1 85.75C269.14 94.12 263.67 100.52 256.69 104.93C249.7 109.35 241.74 111.56 232.81 111.56C223.88 111.56 215.91 109.35 208.93 104.93ZM248.3 81.97C252.05 76.32 253.92 67.59 253.92 55.78C253.92 43.97 252.04 35.24 248.3 29.59C244.55 23.94 239.39 21.12 232.81 21.12C226.23 21.12 221.23 23.95 217.48 29.59C213.73 35.24 211.86 43.97 211.86 55.78C211.86 67.59 213.73 76.33 217.48 81.97C221.23 87.62 226.34 90.44 232.81 90.44C239.28 90.44 244.54 87.62 248.3 81.97Z" fill="#DCE4F5"/>
</g>
<defs>
<clipPath id="clip0_16_11737">
<rect width="279.04" height="111.55" fill="white"/>
</clipPath>
</defs>
</svg>
