<svg width="554" height="378" viewBox="0 0 554 378" fill="none" xmlns="http://www.w3.org/2000/svg">
<g clip-path="url(#clip0_19_12056)">
<path d="M118 264.5H82V348.5H118V264.5Z" fill="#6C80C3"/>
<path d="M278 186.5H242V348.5H278V186.5Z" fill="#4452A4"/>
<path d="M436 103.5H400V348.5H436V103.5Z" fill="#E75755"/>
<path d="M0 349.49H552.92" stroke="#646464" stroke-miterlimit="10"/>
<path d="M549.6 353.58L548.92 352.84L552.53 349.49L548.92 346.13L549.6 345.4L554 349.49L549.6 353.58Z" fill="#646464"/>
<path d="M89.5403 376.35V377.5H80.7003V376.58L85.9403 371.45C86.6003 370.8 87.0503 370.24 87.2803 369.77C87.5103 369.3 87.6303 368.82 87.6303 368.34C87.6303 367.6 87.3803 367.02 86.8703 366.6C86.3603 366.19 85.6303 365.98 84.6803 365.98C83.2003 365.98 82.0603 366.45 81.2403 367.38L80.3203 366.59C80.8103 366.01 81.4403 365.57 82.2003 365.26C82.9603 364.95 83.8203 364.79 84.7803 364.79C86.0603 364.79 87.0803 365.09 87.8303 365.7C88.5803 366.31 88.9503 367.14 88.9503 368.19C88.9503 368.84 88.8103 369.46 88.5203 370.06C88.2303 370.66 87.6903 371.35 86.8803 372.13L82.6003 376.34H89.5303L89.5403 376.35Z" fill="#646464"/>
<path d="M93.5098 376.83C92.7498 376.31 92.1499 375.57 91.7299 374.61C91.2999 373.64 91.0898 372.51 91.0898 371.2C91.0898 369.89 91.2999 368.75 91.7299 367.79C92.1599 366.82 92.7498 366.08 93.5098 365.57C94.2698 365.05 95.1398 364.8 96.1098 364.8C97.0798 364.8 97.9498 365.06 98.7098 365.57C99.4698 366.09 100.07 366.83 100.5 367.79C100.93 368.75 101.15 369.89 101.15 371.2C101.15 372.51 100.93 373.64 100.5 374.61C100.07 375.58 99.4698 376.32 98.7098 376.83C97.9498 377.35 97.0798 377.6 96.1098 377.6C95.1398 377.6 94.2698 377.34 93.5098 376.83ZM98.0499 375.8C98.6099 375.39 99.0398 374.8 99.3598 374.02C99.6698 373.24 99.8298 372.3 99.8298 371.19C99.8298 370.08 99.6698 369.14 99.3598 368.36C99.0498 367.58 98.6099 366.99 98.0499 366.58C97.4899 366.17 96.8498 365.97 96.1098 365.97C95.3698 365.97 94.7298 366.17 94.1698 366.58C93.6098 366.99 93.1798 367.58 92.8598 368.36C92.5498 369.14 92.3898 370.08 92.3898 371.19C92.3898 372.3 92.5498 373.24 92.8598 374.02C93.1698 374.8 93.6098 375.39 94.1698 375.8C94.7298 376.21 95.3698 376.41 96.1098 376.41C96.8498 376.41 97.4899 376.21 98.0499 375.8Z" fill="#646464"/>
<path d="M106.46 364.9V377.5H105.16V366.05H102.19V364.9H106.46Z" fill="#646464"/>
<path d="M117.22 366.44C118.11 367.54 118.55 369.09 118.55 371.09C118.55 372.49 118.31 373.68 117.83 374.65C117.35 375.62 116.68 376.36 115.81 376.86C114.95 377.36 113.94 377.61 112.79 377.61C111.54 377.61 110.55 377.38 109.8 376.93L110.32 375.89C110.92 376.29 111.74 376.48 112.77 376.48C114.16 376.48 115.25 376.04 116.05 375.16C116.84 374.28 117.24 373 117.24 371.32C117.24 371.01 117.22 370.67 117.19 370.29C116.88 370.97 116.38 371.5 115.7 371.88C115.02 372.26 114.23 372.45 113.34 372.45C112.51 372.45 111.78 372.29 111.13 371.98C110.49 371.67 109.99 371.23 109.63 370.66C109.27 370.09 109.09 369.43 109.09 368.67C109.09 367.91 109.28 367.22 109.65 366.64C110.02 366.05 110.53 365.6 111.19 365.28C111.84 364.96 112.58 364.8 113.4 364.8C115.07 364.8 116.35 365.35 117.23 366.45L117.22 366.44ZM115.21 370.98C115.7 370.74 116.08 370.41 116.35 369.99C116.63 369.57 116.76 369.1 116.76 368.59C116.76 368.11 116.63 367.67 116.37 367.26C116.11 366.85 115.73 366.52 115.23 366.27C114.73 366.02 114.13 365.89 113.43 365.89C112.52 365.89 111.78 366.14 111.21 366.64C110.64 367.14 110.36 367.8 110.36 368.63C110.36 369.46 110.65 370.12 111.21 370.61C111.78 371.1 112.55 371.35 113.52 371.35C114.16 371.35 114.72 371.23 115.2 370.99L115.21 370.98Z" fill="#646464"/>
<path d="M91.6006 239.92H93.5106L107.001 245.9V248.96L94.0206 243.17V249.22H96.6406V251.88H91.6006V239.91V239.92Z" fill="#6C80C3"/>
<path d="M106.29 235.47C105.67 236.44 104.76 237.2 103.56 237.76C102.36 238.32 100.95 238.6 99.3001 238.6C97.6501 238.6 96.2401 238.32 95.0401 237.76C93.8401 237.2 92.9401 236.44 92.3101 235.47C91.6901 234.5 91.3701 233.4 91.3701 232.17C91.3701 230.94 91.6801 229.83 92.3101 228.86C92.9301 227.88 93.8401 227.12 95.0401 226.56C96.2401 226 97.6501 225.72 99.3001 225.72C100.95 225.72 102.36 226 103.56 226.56C104.76 227.12 105.66 227.88 106.29 228.86C106.91 229.84 107.23 230.94 107.23 232.17C107.23 233.4 106.92 234.5 106.29 235.47ZM103.37 229.56C102.46 228.92 101.1 228.6 99.3001 228.6C97.5001 228.6 96.1401 228.92 95.2301 229.56C94.3201 230.2 93.8701 231.07 93.8701 232.17C93.8701 233.27 94.3201 234.12 95.2301 234.75C96.1401 235.39 97.5001 235.71 99.3001 235.71C101.1 235.71 102.46 235.39 103.37 234.75C104.28 234.11 104.73 233.25 104.73 232.17C104.73 231.09 104.28 230.2 103.37 229.56Z" fill="#6C80C3"/>
<path d="M107 208.94H101.34L106.11 211.82V212.68L101.33 215.51H107.01V217.33H98.4697V215.23L103.81 212.19L98.4697 209.01V207.14L107.01 207.12V208.93L107 208.94Z" fill="#6C80C3"/>
<path d="M98.4602 196.7H107V198.7H100.15V201.9L101.85 201.98C102.98 202.03 103.93 202.14 104.69 202.29C105.45 202.44 106.06 202.71 106.5 203.07C106.94 203.44 107.16 203.94 107.16 204.58C107.16 204.88 107.1 205.25 106.98 205.68L105.3 205.58C105.33 205.43 105.35 205.3 105.35 205.2C105.35 204.79 105.19 204.49 104.86 204.29C104.53 204.09 104.15 203.96 103.69 203.9C103.24 203.84 102.59 203.79 101.75 203.75L98.4502 203.61V196.7H98.4602Z" fill="#6C80C3"/>
<path d="M98.46 194.01V192.01H101.93V187.71H98.46V185.71H107V187.71H103.62V192.01H107V194.01H98.46Z" fill="#6C80C3"/>
<path d="M98.9004 171.64C99.2604 170.98 99.7804 170.47 100.44 170.1C101.1 169.73 101.86 169.54 102.73 169.54C103.6 169.54 104.36 169.73 105.03 170.1C105.7 170.47 106.21 170.99 106.57 171.64C106.93 172.3 107.11 173.04 107.11 173.87C107.11 175.02 106.73 175.93 105.96 176.61H110.1V178.61H98.4503V176.71H99.5704C99.1604 176.38 98.8604 175.97 98.6604 175.49C98.4604 175.01 98.3604 174.47 98.3604 173.88C98.3604 173.05 98.5404 172.3 98.9004 171.65V171.64ZM104.66 172.28C104.17 171.81 103.52 171.57 102.72 171.57C101.92 171.57 101.27 171.81 100.78 172.28C100.29 172.75 100.04 173.36 100.04 174.1C100.04 174.58 100.15 175.01 100.37 175.4C100.59 175.78 100.9 176.09 101.31 176.31C101.72 176.53 102.19 176.65 102.72 176.65C103.25 176.65 103.72 176.54 104.13 176.31C104.54 176.08 104.85 175.78 105.07 175.4C105.29 175.02 105.4 174.58 105.4 174.1C105.4 173.36 105.15 172.76 104.66 172.28Z" fill="#6C80C3"/>
<path d="M423.581 81.38H426.001V92.73H424.091L418.281 86.61C417.621 85.92 417.041 85.46 416.551 85.21C416.061 84.97 415.571 84.85 415.091 84.85C414.371 84.85 413.821 85.09 413.441 85.58C413.061 86.07 412.871 86.78 412.871 87.71C412.871 89.28 413.411 90.48 414.481 91.32L412.941 93.32C412.131 92.72 411.511 91.91 411.061 90.89C410.611 89.87 410.391 88.73 410.391 87.47C410.391 85.8 410.791 84.46 411.581 83.47C412.371 82.47 413.451 81.97 414.811 81.97C415.651 81.97 416.431 82.15 417.161 82.5C417.891 82.85 418.731 83.53 419.671 84.52L423.591 88.63V81.37L423.581 81.38Z" fill="#E75755"/>
<path d="M410.601 74.4H426.001V77.26H413.001V80.52H410.601V74.4Z" fill="#E75755"/>
<path d="M425.29 68.2201C424.67 69.1901 423.76 69.9501 422.56 70.5101C421.36 71.0701 419.95 71.3501 418.3 71.3501C416.65 71.3501 415.24 71.0701 414.04 70.5101C412.84 69.9501 411.94 69.1901 411.31 68.2201C410.69 67.2501 410.37 66.1501 410.37 64.9201C410.37 63.6901 410.68 62.5801 411.31 61.6101C411.93 60.6301 412.84 59.8701 414.04 59.3101C415.24 58.7501 416.65 58.4701 418.3 58.4701C419.95 58.4701 421.36 58.7501 422.56 59.3101C423.76 59.8701 424.66 60.6301 425.29 61.6101C425.91 62.5901 426.23 63.6901 426.23 64.9201C426.23 66.1501 425.92 67.2501 425.29 68.2201ZM422.37 62.3101C421.46 61.6701 420.1 61.3501 418.3 61.3501C416.5 61.3501 415.14 61.6701 414.23 62.3101C413.32 62.9501 412.87 63.8201 412.87 64.9201C412.87 66.0201 413.32 66.8701 414.23 67.5001C415.14 68.1401 416.5 68.4601 418.3 68.4601C420.1 68.4601 421.46 68.1401 422.37 67.5001C423.28 66.8601 423.73 66.0001 423.73 64.9201C423.73 63.8401 423.28 62.9501 422.37 62.3101Z" fill="#E75755"/>
<path d="M426 41.69H420.34L425.11 44.57V45.43L420.33 48.26H426.01V50.08H417.47V47.98L422.81 44.94L417.47 41.76V39.89L426.01 39.87V41.68L426 41.69Z" fill="#E75755"/>
<path d="M417.46 29.4501H426V31.4501H419.15V34.6501L420.85 34.7301C421.98 34.7801 422.93 34.8901 423.69 35.0401C424.45 35.1901 425.06 35.4601 425.5 35.8201C425.94 36.1901 426.16 36.6901 426.16 37.3301C426.16 37.6301 426.1 38.0001 425.98 38.4301L424.3 38.3301C424.33 38.1801 424.35 38.0501 424.35 37.9501C424.35 37.5401 424.19 37.2401 423.86 37.0401C423.53 36.8401 423.15 36.7101 422.69 36.6501C422.24 36.5901 421.59 36.5401 420.75 36.5001L417.45 36.3601V29.4501H417.46Z" fill="#E75755"/>
<path d="M417.46 26.7701V24.7701H420.93V20.4701H417.46V18.4701H426V20.4701H422.62V24.7701H426V26.7701H417.46Z" fill="#E75755"/>
<path d="M417.9 4.39004C418.26 3.73004 418.78 3.22004 419.44 2.85004C420.1 2.48004 420.86 2.29004 421.73 2.29004C422.6 2.29004 423.36 2.48004 424.03 2.85004C424.7 3.22004 425.21 3.74004 425.57 4.39004C425.93 5.05004 426.11 5.79004 426.11 6.62004C426.11 7.77004 425.73 8.68004 424.96 9.36004H429.1V11.36H417.45V9.46004H418.57C418.16 9.13004 417.86 8.72004 417.66 8.24004C417.46 7.76004 417.36 7.22004 417.36 6.63004C417.36 5.80004 417.54 5.05004 417.9 4.40004V4.39004ZM423.66 5.03004C423.17 4.56004 422.52 4.32004 421.72 4.32004C420.92 4.32004 420.27 4.56004 419.78 5.03004C419.29 5.50004 419.04 6.11004 419.04 6.85004C419.04 7.33004 419.15 7.76004 419.37 8.15004C419.59 8.53004 419.9 8.84004 420.31 9.06004C420.72 9.28004 421.19 9.40004 421.72 9.40004C422.25 9.40004 422.72 9.29004 423.13 9.06004C423.54 8.83004 423.85 8.53004 424.07 8.15004C424.29 7.77004 424.4 7.33004 424.4 6.85004C424.4 6.11004 424.15 5.51004 423.66 5.03004Z" fill="#E75755"/>
<path d="M246.54 376.35V377.5H237.7V376.58L242.94 371.45C243.6 370.8 244.05 370.24 244.28 369.77C244.51 369.3 244.63 368.82 244.63 368.34C244.63 367.6 244.38 367.02 243.87 366.6C243.36 366.19 242.63 365.98 241.68 365.98C240.2 365.98 239.06 366.45 238.24 367.38L237.32 366.59C237.81 366.01 238.44 365.57 239.2 365.26C239.96 364.95 240.82 364.79 241.78 364.79C243.06 364.79 244.08 365.09 244.83 365.7C245.58 366.31 245.95 367.14 245.95 368.19C245.95 368.84 245.81 369.46 245.52 370.06C245.23 370.66 244.69 371.35 243.88 372.13L239.6 376.34H246.53L246.54 376.35Z" fill="#646464"/>
<path d="M250.51 376.83C249.75 376.31 249.15 375.57 248.73 374.61C248.3 373.64 248.09 372.51 248.09 371.2C248.09 369.89 248.3 368.75 248.73 367.79C249.16 366.82 249.75 366.08 250.51 365.57C251.27 365.05 252.14 364.8 253.11 364.8C254.08 364.8 254.95 365.06 255.71 365.57C256.47 366.09 257.07 366.83 257.5 367.79C257.93 368.75 258.15 369.89 258.15 371.2C258.15 372.51 257.93 373.64 257.5 374.61C257.07 375.58 256.47 376.32 255.71 376.83C254.95 377.35 254.08 377.6 253.11 377.6C252.14 377.6 251.27 377.34 250.51 376.83ZM255.05 375.8C255.61 375.39 256.04 374.8 256.36 374.02C256.67 373.24 256.83 372.3 256.83 371.19C256.83 370.08 256.67 369.14 256.36 368.36C256.05 367.58 255.61 366.99 255.05 366.58C254.49 366.17 253.85 365.97 253.11 365.97C252.37 365.97 251.73 366.17 251.17 366.58C250.61 366.99 250.18 367.58 249.86 368.36C249.55 369.14 249.39 370.08 249.39 371.19C249.39 372.3 249.55 373.24 249.86 374.02C250.17 374.8 250.61 375.39 251.17 375.8C251.73 376.21 252.37 376.41 253.11 376.41C253.85 376.41 254.49 376.21 255.05 375.8Z" fill="#646464"/>
<path d="M268.571 376.35V377.5H259.731V376.58L264.971 371.45C265.631 370.8 266.081 370.24 266.311 369.77C266.541 369.3 266.661 368.82 266.661 368.34C266.661 367.6 266.411 367.02 265.901 366.6C265.391 366.19 264.661 365.98 263.711 365.98C262.231 365.98 261.091 366.45 260.271 367.38L259.351 366.59C259.841 366.01 260.471 365.57 261.231 365.26C261.991 364.95 262.851 364.79 263.811 364.79C265.091 364.79 266.111 365.09 266.861 365.7C267.611 366.31 267.981 367.14 267.981 368.19C267.981 368.84 267.841 369.46 267.551 370.06C267.261 370.66 266.721 371.35 265.911 372.13L261.631 376.34H268.561L268.571 376.35Z" fill="#646464"/>
<path d="M272.54 376.83C271.78 376.31 271.18 375.57 270.76 374.61C270.33 373.64 270.12 372.51 270.12 371.2C270.12 369.89 270.33 368.75 270.76 367.79C271.19 366.82 271.78 366.08 272.54 365.57C273.3 365.05 274.17 364.8 275.14 364.8C276.11 364.8 276.98 365.06 277.74 365.57C278.5 366.09 279.1 366.83 279.53 367.79C279.96 368.75 280.18 369.89 280.18 371.2C280.18 372.51 279.96 373.64 279.53 374.61C279.1 375.58 278.5 376.32 277.74 376.83C276.98 377.35 276.11 377.6 275.14 377.6C274.17 377.6 273.3 377.34 272.54 376.83ZM277.08 375.8C277.64 375.39 278.07 374.8 278.39 374.02C278.7 373.24 278.86 372.3 278.86 371.19C278.86 370.08 278.7 369.14 278.39 368.36C278.08 367.58 277.64 366.99 277.08 366.58C276.52 366.17 275.88 365.97 275.14 365.97C274.4 365.97 273.76 366.17 273.2 366.58C272.64 366.99 272.21 367.58 271.89 368.36C271.58 369.14 271.42 370.08 271.42 371.19C271.42 372.3 271.58 373.24 271.89 374.02C272.2 374.8 272.64 375.39 273.2 375.8C273.76 376.21 274.4 376.41 275.14 376.41C275.88 376.41 276.52 376.21 277.08 375.8Z" fill="#646464"/>
<path d="M408.54 376.35V377.5H399.7V376.58L404.94 371.45C405.6 370.8 406.05 370.24 406.28 369.77C406.51 369.3 406.63 368.82 406.63 368.34C406.63 367.6 406.38 367.02 405.87 366.6C405.36 366.19 404.63 365.98 403.68 365.98C402.2 365.98 401.06 366.45 400.24 367.38L399.32 366.59C399.81 366.01 400.44 365.57 401.2 365.26C401.96 364.95 402.82 364.79 403.78 364.79C405.06 364.79 406.08 365.09 406.83 365.7C407.58 366.31 407.95 367.14 407.95 368.19C407.95 368.84 407.81 369.46 407.52 370.06C407.23 370.66 406.69 371.35 405.88 372.13L401.6 376.34H408.53L408.54 376.35Z" fill="#646464"/>
<path d="M412.51 376.83C411.75 376.31 411.15 375.57 410.73 374.61C410.3 373.64 410.09 372.51 410.09 371.2C410.09 369.89 410.3 368.75 410.73 367.79C411.16 366.82 411.75 366.08 412.51 365.57C413.27 365.05 414.14 364.8 415.11 364.8C416.08 364.8 416.95 365.06 417.71 365.57C418.47 366.09 419.07 366.83 419.5 367.79C419.93 368.75 420.15 369.89 420.15 371.2C420.15 372.51 419.93 373.64 419.5 374.61C419.07 375.58 418.47 376.32 417.71 376.83C416.95 377.35 416.08 377.6 415.11 377.6C414.14 377.6 413.27 377.34 412.51 376.83ZM417.05 375.8C417.61 375.39 418.04 374.8 418.36 374.02C418.67 373.24 418.83 372.3 418.83 371.19C418.83 370.08 418.67 369.14 418.36 368.36C418.05 367.58 417.61 366.99 417.05 366.58C416.49 366.17 415.85 365.97 415.11 365.97C414.37 365.97 413.73 366.17 413.17 366.58C412.61 366.99 412.18 367.58 411.86 368.36C411.55 369.14 411.39 370.08 411.39 371.19C411.39 372.3 411.55 373.24 411.86 374.02C412.17 374.8 412.61 375.39 413.17 375.8C413.73 376.21 414.37 376.41 415.11 376.41C415.85 376.41 416.49 376.21 417.05 375.8Z" fill="#646464"/>
<path d="M430.571 376.35V377.5H421.731V376.58L426.971 371.45C427.631 370.8 428.081 370.24 428.311 369.77C428.541 369.3 428.661 368.82 428.661 368.34C428.661 367.6 428.411 367.02 427.901 366.6C427.391 366.19 426.661 365.98 425.711 365.98C424.231 365.98 423.091 366.45 422.271 367.38L421.351 366.59C421.841 366.01 422.471 365.57 423.231 365.26C423.991 364.95 424.851 364.79 425.811 364.79C427.091 364.79 428.111 365.09 428.861 365.7C429.611 366.31 429.981 367.14 429.981 368.19C429.981 368.84 429.841 369.46 429.551 370.06C429.261 370.66 428.721 371.35 427.911 372.13L423.631 376.34H430.561L430.571 376.35Z" fill="#646464"/>
<path d="M435.68 364.9V377.5H434.38V366.05H431.41V364.9H435.68Z" fill="#646464"/>
<path opacity="0.2" d="M0 291.2H550" stroke="#646464" stroke-miterlimit="10"/>
<path opacity="0.2" d="M0 233.06H550" stroke="#646464" stroke-miterlimit="10"/>
<path opacity="0.2" d="M0 174.92H550" stroke="#646464" stroke-miterlimit="10"/>
<path opacity="0.2" d="M0 116.78H550" stroke="#646464" stroke-miterlimit="10"/>
<path opacity="0.2" d="M0 58.64H550" stroke="#646464" stroke-miterlimit="10"/>
<path opacity="0.2" d="M0 0.5H549.01" stroke="#646464" stroke-miterlimit="10"/>
</g>
<defs>
<clipPath id="clip0_19_12056">
<rect width="554" height="377.61" fill="white"/>
</clipPath>
</defs>
</svg>
