<svg width="51" height="18" viewBox="0 0 51 18" fill="none" xmlns="http://www.w3.org/2000/svg">
<path d="M0.538172 2.00008L0.546533 2.00005C0.763205 1.78285 0.932706 1.5655 1.06273 1.3506L0.993237 0.112108L0.986952 0.00010012L0.562538 -1.99992L0.536198 -1.99992L0.532367 -1.99992L0.523794 -1.99988C-1.46484 -0.00643446 0.520027 2.00003 0.529331 2.00007L0.533016 2.00008L0.534167 2.00008L0.536982 2.00008M0.538172 2.00008C0.537477 2.00008 0.53695 2.00008 0.536982 2.00008M0.538172 2.00008L0.537681 2.00008L0.536982 2.00008M0.538172 2.00008L0.562933 2.00008L0.918763 2.00006C0.975135 2.00006 1.03561 2.00006 1.09917 2.00006L0.536982 2.00008M5.10547 2.00011L40.1857 2.00007L5.84347 15.1524L5.10547 2.00011Z" fill="white" stroke="#DCE5FF" stroke-width="4"/>
</svg>
