<svg width="139" height="85" viewBox="0 0 139 85" fill="none" xmlns="http://www.w3.org/2000/svg">
<path d="M35.9404 6.54994L43.9404 6.43994L44.0504 14.4399" stroke="#6C80C3" stroke-width="2" stroke-linejoin="round"/>
<path d="M95.0504 78.3299L87.0504 78.4399L86.9404 70.4399" stroke="#6C80C3" stroke-width="2" stroke-linejoin="round"/>
<path d="M67.1598 25.55L70.7098 21.62C72.4232 22.3267 74.1365 23.0367 75.8498 23.75L75.5798 29.03L78.6798 32.13L83.9598 31.86C84.6665 33.5733 85.3765 35.2867 86.0898 37L82.1598 40.55V44.94L86.0898 48.49C85.3832 50.2033 84.6732 51.9167 83.9598 53.63L78.6798 53.36L75.5798 56.46L75.8498 61.74C74.1365 62.4467 72.4232 63.1567 70.7098 63.87L67.1598 59.94H62.7698L59.2198 63.87C57.5065 63.1633 55.7932 62.4533 54.0798 61.74L54.3498 56.46C53.1098 55.22 52.4898 54.6 51.2498 53.36L45.9698 53.63C45.2632 51.9167 44.5532 50.2033 43.8398 48.49L47.7698 44.94V40.55L43.8398 37C44.5465 35.2867 45.2565 33.5733 45.9698 31.86L51.2498 32.13C52.4898 30.89 53.1098 30.27 54.3498 29.03L54.0798 23.75C55.7932 23.0433 57.5065 22.3333 59.2198 21.62L62.7698 25.55H67.1598Z" fill="white" stroke="#E75755" stroke-width="2" stroke-miterlimit="10"/>
<path d="M23.6602 40.23C24.4002 26.54 31.7702 14.61 42.6202 7.59998" stroke="#6C80C3" stroke-width="2" stroke-linejoin="round"/>
<path d="M65.1001 84C59.4101 84 53.9901 82.86 49.0601 80.79C42.2001 77.91 36.2701 73.24 31.8701 67.37" stroke="#6C80C3" stroke-width="2" stroke-linejoin="round"/>
<path d="M106.6 42.5C106.6 57.33 98.8201 70.34 87.1201 77.68" stroke="#6C80C3" stroke-width="2" stroke-linejoin="round"/>
<path d="M65.0996 1C72.4796 1 79.3996 2.92 85.4096 6.3C91.0096 9.45 95.8096 13.87 99.4196 19.16" stroke="#6C80C3" stroke-width="2" stroke-linejoin="round"/>
<path d="M90.93 18.7L91.02 24.67L85.04 24.76" stroke="#6C80C3" stroke-width="2" stroke-linejoin="round"/>
<path d="M38.3498 64.9L38.2598 58.92L44.2398 58.84" stroke="#6C80C3" stroke-width="2" stroke-linejoin="round"/>
<path d="M34.5098 37.42C34.9098 35.02 35.5798 32.72 36.4898 30.54C41.1698 19.37 52.1998 11.51 65.0698 11.5C75.9998 11.5 85.6198 17.14 91.1498 25.69" stroke="#6C80C3" stroke-width="2" stroke-linejoin="round"/>
<path d="M96.0998 42.47C96.0998 47.98 94.6698 53.16 92.1598 57.64C86.8598 67.09 76.7398 73.49 65.1298 73.5C54.0498 73.5 44.3298 67.71 38.8398 58.97" stroke="#6C80C3" stroke-width="2" stroke-linejoin="round"/>
<path d="M7 51.3101H1L4 45.3101L7 51.3101Z" stroke="#6C80C3" stroke-width="2" stroke-linejoin="round"/>
<path d="M18 45.3101H12V51.3101H18V45.3101Z" stroke="#6C80C3" stroke-width="2" stroke-linejoin="round"/>
<path d="M29 51.3101H23L26 45.3101L29 51.3101Z" stroke="#6C80C3" stroke-width="2" stroke-linejoin="round"/>
<path d="M29 56.3101H23V62.3101H29V56.3101Z" stroke="#6C80C3" stroke-width="2" stroke-linejoin="round"/>
<path d="M40 45.3101H34V51.3101H40V45.3101Z" stroke="#6C80C3" stroke-width="2" stroke-linejoin="round"/>
<path d="M5.5 48.3101H12.5" stroke="#6C80C3" stroke-width="2" stroke-linejoin="round"/>
<path d="M27.5 48.3101H33.5" stroke="#6C80C3" stroke-width="2" stroke-linejoin="round"/>
<path d="M14.9902 51.3101V59.3101H23.0002" stroke="#6C80C3" stroke-width="2" stroke-linejoin="round"/>
<path d="M25.9297 51.3101V56.3101" stroke="#6C80C3" stroke-width="2" stroke-linejoin="round"/>
<path d="M96.4017 28.5301V36.9301H94.8417V29.8381H93.0657V28.5301H96.4017ZM102.58 37.0501C101.732 37.0501 100.964 36.8661 100.276 36.4981C99.596 36.1221 99.06 35.6061 98.668 34.9501C98.284 34.2941 98.092 33.5541 98.092 32.7301C98.092 31.9061 98.288 31.1661 98.68 30.5101C99.072 29.8541 99.608 29.3421 100.288 28.9741C100.976 28.5981 101.744 28.4101 102.592 28.4101C103.28 28.4101 103.908 28.5301 104.476 28.7701C105.044 29.0101 105.524 29.3581 105.916 29.8141L104.908 30.7621C104.3 30.1061 103.552 29.7781 102.664 29.7781C102.088 29.7781 101.572 29.9061 101.116 30.1621C100.66 30.4101 100.304 30.7581 100.048 31.2061C99.792 31.6541 99.664 32.1621 99.664 32.7301C99.664 33.2981 99.792 33.8061 100.048 34.2541C100.304 34.7021 100.66 35.0541 101.116 35.3101C101.572 35.5581 102.088 35.6821 102.664 35.6821C103.552 35.6821 104.3 35.3501 104.908 34.6861L105.916 35.6461C105.524 36.1021 105.04 36.4501 104.464 36.6901C103.896 36.9301 103.268 37.0501 102.58 37.0501ZM107.57 32.4421C107.298 32.4421 107.066 32.3501 106.874 32.1661C106.682 31.9741 106.586 31.7341 106.586 31.4461C106.586 31.1501 106.678 30.9101 106.862 30.7261C107.054 30.5421 107.29 30.4501 107.57 30.4501C107.85 30.4501 108.082 30.5421 108.266 30.7261C108.458 30.9101 108.554 31.1501 108.554 31.4461C108.554 31.7341 108.458 31.9741 108.266 32.1661C108.074 32.3501 107.842 32.4421 107.57 32.4421ZM107.57 37.0141C107.298 37.0141 107.066 36.9221 106.874 36.7381C106.682 36.5461 106.586 36.3061 106.586 36.0181C106.586 35.7221 106.678 35.4821 106.862 35.2981C107.054 35.1141 107.29 35.0221 107.57 35.0221C107.85 35.0221 108.082 35.1141 108.266 35.2981C108.458 35.4821 108.554 35.7221 108.554 36.0181C108.554 36.3061 108.458 36.5461 108.266 36.7381C108.074 36.9221 107.842 37.0141 107.57 37.0141ZM116.464 35.6221V36.9301H110.164V28.5301H116.296V29.8381H111.724V32.0221H115.78V33.3061H111.724V35.6221H116.464ZM123.699 36.9301L121.983 34.4701C121.911 34.4781 121.803 34.4821 121.659 34.4821H119.763V36.9301H118.203V28.5301H121.659C122.387 28.5301 123.019 28.6501 123.555 28.8901C124.099 29.1301 124.515 29.4741 124.803 29.9221C125.091 30.3701 125.235 30.9021 125.235 31.5181C125.235 32.1501 125.079 32.6941 124.767 33.1501C124.463 33.6061 124.023 33.9461 123.447 34.1701L125.379 36.9301H123.699ZM123.663 31.5181C123.663 30.9821 123.487 30.5701 123.135 30.2821C122.783 29.9941 122.267 29.8501 121.587 29.8501H119.763V33.1981H121.587C122.267 33.1981 122.783 33.0541 123.135 32.7661C123.487 32.4701 123.663 32.0541 123.663 31.5181ZM130.437 28.5301C131.165 28.5301 131.797 28.6501 132.333 28.8901C132.877 29.1301 133.293 29.4741 133.581 29.9221C133.869 30.3701 134.013 30.9021 134.013 31.5181C134.013 32.1261 133.869 32.6581 133.581 33.1141C133.293 33.5621 132.877 33.9061 132.333 34.1461C131.797 34.3861 131.165 34.5061 130.437 34.5061H128.541V36.9301H126.981V28.5301H130.437ZM130.365 33.1861C131.045 33.1861 131.561 33.0421 131.913 32.7541C132.265 32.4661 132.441 32.0541 132.441 31.5181C132.441 30.9821 132.265 30.5701 131.913 30.2821C131.561 29.9941 131.045 29.8501 130.365 29.8501H128.541V33.1861H130.365Z" fill="#6C80C3"/>
<path d="M65.2201 53.15C71.0743 53.15 75.8201 48.4042 75.8201 42.5499C75.8201 36.6957 71.0743 31.95 65.2201 31.95C59.3659 31.95 54.6201 36.6957 54.6201 42.5499C54.6201 48.4042 59.3659 53.15 65.2201 53.15Z" fill="white" stroke="#E75755" stroke-width="2" stroke-miterlimit="10"/>
<path d="M64.7197 34.98V44.07L69.7697 47.09" stroke="#6C80C3" stroke-width="2" stroke-linejoin="round"/>
</svg>
