<svg width="117" height="480" viewBox="0 0 117 480" fill="none" xmlns="http://www.w3.org/2000/svg">
<path d="M94.7071 472.707C95.0976 472.317 95.0976 471.683 94.7071 471.293L88.3431 464.929C87.9526 464.538 87.3195 464.538 86.9289 464.929C86.5384 465.319 86.5384 465.953 86.9289 466.343L92.5858 472L86.9289 477.657C86.5384 478.047 86.5384 478.681 86.9289 479.071C87.3195 479.462 87.9526 479.462 88.3431 479.071L94.7071 472.707ZM94 471H93.0119V473H94V471ZM89.0595 471H87.0833V473H89.0595V471ZM83.131 471H81.1548V473H83.131V471ZM77.2024 471H75.2262V473H77.2024V471ZM71.2738 471H69.2976V473H71.2738V471ZM65.3452 471H63.369V473H65.3452V471ZM59.4167 471H57.4405V473H59.4167V471ZM53.4881 471H51.5119V473H53.4881V471ZM47.5595 471H45.5833V473H47.5595V471ZM41.631 471H39.6548V473H41.631V471ZM35.7024 471H33.7262V473H35.7024V471ZM29.7738 471H27.7976V473H29.7738V471ZM23.8453 471H21.8691V473H23.8453V471ZM17.9167 471H15.9405V473H17.9167V471ZM11.9881 471H11V473H11.9881V471ZM11 471C10.7349 471 10.4727 470.989 10.2138 470.966L10.0417 472.959C10.3577 472.986 10.6773 473 11 473V471ZM7.19599 470.159C6.71933 469.937 6.2652 469.673 5.83811 469.374L4.68954 471.011C5.21125 471.377 5.76639 471.699 6.34956 471.971L7.19599 470.159ZM3.62638 467.162C3.32678 466.735 3.06346 466.281 2.84081 465.804L1.02875 466.65C1.30115 467.234 1.62309 467.789 1.98907 468.31L3.62638 467.162ZM2.0338 462.786C2.01144 462.527 2 462.265 2 462H0C0 462.323 0.0139189 462.642 0.0412269 462.958L2.0338 462.786ZM2 462V460.998H0V462H2ZM2 456.989V454.984H0V456.989H2ZM2 450.976V448.971H0V450.976H2ZM2 444.962V442.958H0V444.962H2ZM2 438.949V436.944H0V438.949H2ZM2 432.936V430.931H0V432.936H2ZM2 426.922V424.918H0V426.922H2ZM2 420.909V418.904H0V420.909H2ZM2 414.896V412.891H0V414.896H2ZM2 408.882V406.878H0V408.882H2ZM2 402.869V400.864H0V402.869H2ZM2 396.856V394.851H0V396.856H2ZM2 390.842V388.838H0V390.842H2ZM2 384.829V382.824H0V384.829H2ZM2 378.816V376.811H0V378.816H2ZM2 372.802V370.798H0V372.802H2ZM2 366.789V364.784H0V366.789H2ZM2 360.776V358.771H0V360.776H2ZM2 354.762V352.758H0V354.762H2ZM2 348.749V346.744H0V348.749H2ZM2 342.736V340.731H0V342.736H2ZM2 336.722V334.718H0V336.722H2ZM2 330.709V328.704H0V330.709H2ZM2 324.696V322.691H0V324.696H2ZM2 318.682V316.678H0V318.682H2ZM2 312.669V310.664H0V312.669H2ZM2 306.656V304.651H0V306.656H2ZM2 300.642V298.638H0V300.642H2ZM2 294.629V292.624H0V294.629H2ZM2 288.616V286.611H0V288.616H2ZM2 282.602V280.598H0V282.602H2ZM2 276.589V274.584H0V276.589H2ZM2 270.576V268.571H0V270.576H2ZM2 264.562V262.558H0V264.562H2ZM2 258.549V256.544H0V258.549H2ZM2 252.535V250.531H0V252.535H2ZM2 246.522V244.518H0V246.522H2ZM2 240.509V238.504H0V240.509H2ZM2 234.495V232.491H0V234.495H2ZM2 228.482V226.478H0V228.482H2ZM2 222.469V220.464H0V222.469H2ZM2 216.455V214.451H0V216.455H2ZM2 210.442V208.438H0V210.442H2ZM2 204.429V202.424H0V204.429H2ZM2 198.415V196.411H0V198.415H2ZM2 192.402V190.398H0V192.402H2ZM2 186.389V184.384H0V186.389H2ZM2 180.375V178.371H0V180.375H2ZM2 174.362V172.358H0V174.362H2ZM2 168.349V166.344H0V168.349H2ZM2 162.335V160.331H0V162.335H2ZM2 156.322V154.318H0V156.322H2ZM2 150.309V148.304H0V150.309H2ZM2 144.295V142.291H0V144.295H2ZM2 138.282V136.278H0V138.282H2ZM2 132.269V130.264H0V132.269H2ZM2 126.255V124.251H0V126.255H2ZM2 120.242V118.238H0V120.242H2ZM2 114.229V112.224H0V114.229H2ZM2 108.215V106.211H0V108.215H2ZM2 102.202V100.198H0V102.202H2ZM2 96.1888V94.1843H0V96.1888H2ZM2 90.1754V88.171H0V90.1754H2ZM2 84.1621V82.1576H0V84.1621H2ZM2 78.1488V76.1443H0V78.1488H2ZM2 72.1354V70.1309H0V72.1354H2ZM2 66.1221V64.1176H0V66.1221H2ZM2 60.1087V58.1043H0V60.1087H2ZM2 54.0954V52.091H0V54.0954H2ZM2 48.0821V46.0776H0V48.0821H2ZM2 42.0687V40.0643H0V42.0687H2ZM2 36.0554V34.0509H0V36.0554H2ZM2 30.0421V28.0376H0V30.0421H2ZM2 24.0287V22.0243H0V24.0287H2ZM2 18.0154V16.0109H0V18.0154H2ZM2 12.002V11H0V12.002H2ZM2 11C2 10.7349 2.01144 10.4727 2.0338 10.2138L0.0412269 10.0417C0.0139189 10.3577 0 10.6773 0 11H2ZM2.84081 7.19599C3.06346 6.71933 3.32678 6.2652 3.62638 5.83811L1.98907 4.68954C1.62309 5.21125 1.30115 5.76639 1.02875 6.34956L2.84081 7.19599ZM5.83811 3.62638C6.2652 3.32678 6.71933 3.06346 7.196 2.8408L6.34957 1.02875C5.76639 1.30115 5.21126 1.62309 4.68955 1.98907L5.83811 3.62638ZM10.2138 2.0338C10.4727 2.01144 10.7349 2 11 2V0C10.6773 0 10.3577 0.0139189 10.0417 0.0412269L10.2138 2.0338ZM11 2H11.9815V0H11V2ZM15.9074 2H17.8704V0H15.9074V2ZM21.7963 2H23.7593V0H21.7963V2ZM27.6852 2H29.6481V0H27.6852V2ZM33.5741 2H35.537V0H33.5741V2ZM39.463 2H41.4259V0H39.463V2ZM45.3519 2H47.3148V0H45.3519V2ZM51.2407 2H53.2037V0H51.2407V2ZM57.1296 2H59.0926V0H57.1296V2ZM63.0185 2H64.9815V0H63.0185V2ZM68.9074 2H70.8704V0H68.9074V2ZM74.7963 2H76.7593V0H74.7963V2ZM80.6852 2H82.6481V0H80.6852V2ZM86.5741 2H88.537V0H86.5741V2ZM92.463 2H94.4259V0H92.463V2ZM98.3518 2H100.315V0H98.3518V2ZM104.241 2H106.204V0H104.241V2ZM110.13 2H112.093V0H110.13V2ZM116.019 2H117V0H116.019V2Z" fill="#E85755"/>
<path d="M90.7071 90.7071C91.0976 90.3166 91.0976 89.6834 90.7071 89.2929L84.3431 82.9289C83.9526 82.5384 83.3195 82.5384 82.9289 82.9289C82.5384 83.3195 82.5384 83.9526 82.9289 84.3431L88.5858 90L82.9289 95.6569C82.5384 96.0474 82.5384 96.6805 82.9289 97.0711C83.3195 97.4616 83.9526 97.4616 84.3431 97.0711L90.7071 90.7071ZM3 91H3.96667V89H3V91ZM7.83333 91H9.76667V89H7.83333V91ZM13.6333 91H15.5667V89H13.6333V91ZM19.4333 91H21.3667V89H19.4333V91ZM25.2333 91H27.1667V89H25.2333V91ZM31.0333 91H32.9667V89H31.0333V91ZM36.8333 91H38.7667V89H36.8333V91ZM42.6333 91H44.5667V89H42.6333V91ZM48.4333 91H50.3667V89H48.4333V91ZM54.2333 91H56.1667V89H54.2333V91ZM60.0333 91H61.9667V89H60.0333V91ZM65.8333 91H67.7667V89H65.8333V91ZM71.6333 91H73.5667V89H71.6333V91ZM77.4333 91H79.3667V89H77.4333V91ZM83.2333 91H85.1667V89H83.2333V91ZM89.0333 91H90V89H89.0333V91Z" fill="#E85755"/>
<path d="M90.7071 149.707C91.0976 149.317 91.0976 148.683 90.7071 148.293L84.3431 141.929C83.9526 141.538 83.3195 141.538 82.9289 141.929C82.5384 142.319 82.5384 142.953 82.9289 143.343L88.5858 149L82.9289 154.657C82.5384 155.047 82.5384 155.681 82.9289 156.071C83.3195 156.462 83.9526 156.462 84.3431 156.071L90.7071 149.707ZM3 150H3.96667V148H3V150ZM7.83333 150H9.76667V148H7.83333V150ZM13.6333 150H15.5667V148H13.6333V150ZM19.4333 150H21.3667V148H19.4333V150ZM25.2333 150H27.1667V148H25.2333V150ZM31.0333 150H32.9667V148H31.0333V150ZM36.8333 150H38.7667V148H36.8333V150ZM42.6333 150H44.5667V148H42.6333V150ZM48.4333 150H50.3667V148H48.4333V150ZM54.2333 150H56.1667V148H54.2333V150ZM60.0333 150H61.9667V148H60.0333V150ZM65.8333 150H67.7667V148H65.8333V150ZM71.6333 150H73.5667V148H71.6333V150ZM77.4333 150H79.3667V148H77.4333V150ZM83.2333 150H85.1667V148H83.2333V150ZM89.0333 150H90V148H89.0333V150Z" fill="#E85755"/>
<path d="M90.7071 209.707C91.0976 209.317 91.0976 208.683 90.7071 208.293L84.3431 201.929C83.9526 201.538 83.3195 201.538 82.9289 201.929C82.5384 202.319 82.5384 202.953 82.9289 203.343L88.5858 209L82.9289 214.657C82.5384 215.047 82.5384 215.681 82.9289 216.071C83.3195 216.462 83.9526 216.462 84.3431 216.071L90.7071 209.707ZM3 210H3.96667V208H3V210ZM7.83333 210H9.76667V208H7.83333V210ZM13.6333 210H15.5667V208H13.6333V210ZM19.4333 210H21.3667V208H19.4333V210ZM25.2333 210H27.1667V208H25.2333V210ZM31.0333 210H32.9667V208H31.0333V210ZM36.8333 210H38.7667V208H36.8333V210ZM42.6333 210H44.5667V208H42.6333V210ZM48.4333 210H50.3667V208H48.4333V210ZM54.2333 210H56.1667V208H54.2333V210ZM60.0333 210H61.9667V208H60.0333V210ZM65.8333 210H67.7667V208H65.8333V210ZM71.6333 210H73.5667V208H71.6333V210ZM77.4333 210H79.3667V208H77.4333V210ZM83.2333 210H85.1667V208H83.2333V210ZM89.0333 210H90V208H89.0333V210Z" fill="#E85755"/>
<path d="M90.7071 290.707C91.0976 290.317 91.0976 289.683 90.7071 289.293L84.3431 282.929C83.9526 282.538 83.3195 282.538 82.9289 282.929C82.5384 283.319 82.5384 283.953 82.9289 284.343L88.5858 290L82.9289 295.657C82.5384 296.047 82.5384 296.681 82.9289 297.071C83.3195 297.462 83.9526 297.462 84.3431 297.071L90.7071 290.707ZM3 291H3.96667V289H3V291ZM7.83333 291H9.76667V289H7.83333V291ZM13.6333 291H15.5667V289H13.6333V291ZM19.4333 291H21.3667V289H19.4333V291ZM25.2333 291H27.1667V289H25.2333V291ZM31.0333 291H32.9667V289H31.0333V291ZM36.8333 291H38.7667V289H36.8333V291ZM42.6333 291H44.5667V289H42.6333V291ZM48.4333 291H50.3667V289H48.4333V291ZM54.2333 291H56.1667V289H54.2333V291ZM60.0333 291H61.9667V289H60.0333V291ZM65.8333 291H67.7667V289H65.8333V291ZM71.6333 291H73.5667V289H71.6333V291ZM77.4333 291H79.3667V289H77.4333V291ZM83.2333 291H85.1667V289H83.2333V291ZM89.0333 291H90V289H89.0333V291Z" fill="#E85755"/>
<path d="M90.7071 348.707C91.0976 348.317 91.0976 347.683 90.7071 347.293L84.3431 340.929C83.9526 340.538 83.3195 340.538 82.9289 340.929C82.5384 341.319 82.5384 341.953 82.9289 342.343L88.5858 348L82.9289 353.657C82.5384 354.047 82.5384 354.681 82.9289 355.071C83.3195 355.462 83.9526 355.462 84.3431 355.071L90.7071 348.707ZM3 349H3.96667V347H3V349ZM7.83333 349H9.76667V347H7.83333V349ZM13.6333 349H15.5667V347H13.6333V349ZM19.4333 349H21.3667V347H19.4333V349ZM25.2333 349H27.1667V347H25.2333V349ZM31.0333 349H32.9667V347H31.0333V349ZM36.8333 349H38.7667V347H36.8333V349ZM42.6333 349H44.5667V347H42.6333V349ZM48.4333 349H50.3667V347H48.4333V349ZM54.2333 349H56.1667V347H54.2333V349ZM60.0333 349H61.9667V347H60.0333V349ZM65.8333 349H67.7667V347H65.8333V349ZM71.6333 349H73.5667V347H71.6333V349ZM77.4333 349H79.3667V347H77.4333V349ZM83.2333 349H85.1667V347H83.2333V349ZM89.0333 349H90V347H89.0333V349Z" fill="#E85755"/>
<path d="M90.7071 410.707C91.0976 410.317 91.0976 409.683 90.7071 409.293L84.3431 402.929C83.9526 402.538 83.3195 402.538 82.9289 402.929C82.5384 403.319 82.5384 403.953 82.9289 404.343L88.5858 410L82.9289 415.657C82.5384 416.047 82.5384 416.681 82.9289 417.071C83.3195 417.462 83.9526 417.462 84.3431 417.071L90.7071 410.707ZM3 411H3.96667V409H3V411ZM7.83333 411H9.76667V409H7.83333V411ZM13.6333 411H15.5667V409H13.6333V411ZM19.4333 411H21.3667V409H19.4333V411ZM25.2333 411H27.1667V409H25.2333V411ZM31.0333 411H32.9667V409H31.0333V411ZM36.8333 411H38.7667V409H36.8333V411ZM42.6333 411H44.5667V409H42.6333V411ZM48.4333 411H50.3667V409H48.4333V411ZM54.2333 411H56.1667V409H54.2333V411ZM60.0333 411H61.9667V409H60.0333V411ZM65.8333 411H67.7667V409H65.8333V411ZM71.6333 411H73.5667V409H71.6333V411ZM77.4333 411H79.3667V409H77.4333V411ZM83.2333 411H85.1667V409H83.2333V411ZM89.0333 411H90V409H89.0333V411Z" fill="#E85755"/>
</svg>
