<svg width="19" height="25" viewBox="0 0 19 25" fill="none" xmlns="http://www.w3.org/2000/svg">
<g clip-path="url(#clip0_23_14512)">
<g opacity="0.5">
<path d="M8.66 0C8.98 0 9.29 0 9.61 0C9.63 0 9.65 0.01 9.68 0.01C9.86 0.03 10.04 0.04 10.21 0.06C11.46 0.21 12.64 0.59 13.72 1.23C15.17 2.08 16.31 3.24 17.13 4.71C17.74 5.81 18.11 6.99 18.23 8.25C18.25 8.42 18.26 8.58 18.27 8.75V9.52C18.27 9.52 18.26 9.59 18.26 9.62C18.23 10.19 18.16 10.75 18.05 11.3C17.83 12.44 17.47 13.55 17.04 14.63C16.31 16.47 15.38 18.21 14.35 19.89C13.88 20.66 13.39 21.43 12.87 22.17C10.3 25.84 8.29 25.94 5.64 22.21C4.29 20.31 3.05 18.34 2.02 16.24C1.45 15.09 0.96 13.92 0.59 12.69C0.32 11.81 0.13 10.92 0.04 10C0.03 9.85 0.01 9.69 0 9.54C0 9.27 0 9.01 0 8.74C0 8.71 0 8.69 0.01 8.66C0.03 8.47 0.04 8.28 0.06 8.09C0.18 6.99 0.5 5.95 1.01 4.96C1.68 3.66 2.61 2.58 3.79 1.73C5.11 0.77 6.59 0.21 8.21 0.04C8.36 0.03 8.51 0.01 8.66 0ZM9.13 4.36C6.44 4.36 4.32 6.57 4.36 9.2C4.4 11.78 6.5 13.9 9.14 13.9C11.79 13.9 13.92 11.73 13.9 9.09C13.88 6.49 11.74 4.36 9.13 4.36Z" fill="#6C80C3"/>
</g>
</g>
<defs>
<clipPath id="clip0_23_14512">
<rect width="18.27" height="24.97" fill="white"/>
</clipPath>
</defs>
</svg>
