<svg width="22" height="24" viewBox="0 0 22 24" fill="none" xmlns="http://www.w3.org/2000/svg">
<g clip-path="url(#clip0_23_14530)">
<g opacity="0.5">
<path d="M15.2399 23.24C13.5599 23.24 11.9899 22.76 10.4999 21.94C9.05987 21.15 7.78987 20.14 6.61987 19C5.38987 17.8 4.23987 16.53 3.22987 15.14C2.26987 13.83 1.40987 12.45 0.80987 10.94C0.33987 9.76999 0.0498698 8.55999 -0.000130203 7.28999C-0.0601302 5.62999 0.34987 4.11999 1.28987 2.73999C1.71987 2.10999 2.25987 1.58999 2.84987 1.11999C3.12987 0.899991 3.38987 0.649991 3.66987 0.429991C4.43987 -0.190009 5.23987 -0.140009 5.94987 0.549991C6.49987 1.07999 6.91987 1.70999 7.31987 2.35999C7.56987 2.76999 7.82987 3.16999 8.05987 3.58999C8.36987 4.14999 8.58987 4.74999 8.58987 5.39999C8.58987 6.00999 8.35987 6.53999 7.89987 6.93999C7.34987 7.41999 6.76987 7.86999 6.20987 8.34999C5.68987 8.78999 5.51987 9.37999 5.62987 10.03C5.77987 10.93 6.21987 11.71 6.73987 12.44C7.49987 13.51 8.32987 14.51 9.27987 15.42C9.90987 16.02 10.5599 16.6 11.3699 16.98C11.8499 17.2 12.3399 17.34 12.8699 17.2C13.2199 17.11 13.4999 16.9 13.7599 16.65C14.1999 16.24 14.6299 15.83 15.0799 15.43C15.8499 14.75 16.6999 14.67 17.6099 15.11C18.1799 15.38 18.6799 15.74 19.1399 16.16C19.7299 16.69 20.3199 17.21 20.9099 17.75C21.1999 18.02 21.3999 18.35 21.5499 18.71C21.7599 19.24 21.6999 19.76 21.2899 20.17C20.4299 21.04 19.5499 21.91 18.4399 22.46C17.4399 22.96 16.3899 23.25 15.2399 23.23V23.24Z" fill="#6C80C3"/>
</g>
</g>
<defs>
<clipPath id="clip0_23_14530">
<rect width="21.67" height="23.24" fill="white"/>
</clipPath>
</defs>
</svg>
