<svg width="41" height="41" viewBox="0 0 41 41" fill="none" xmlns="http://www.w3.org/2000/svg">
<g filter="url(#filter0_d_23_15131)">
<path d="M19.4008 30.49C25.6692 30.49 30.7508 25.4084 30.7508 19.14C30.7508 12.8716 25.6692 7.79 19.4008 7.79C13.1323 7.79 8.05078 12.8716 8.05078 19.14C8.05078 25.4084 13.1323 30.49 19.4008 30.49Z" fill="url(#paint0_linear_23_15131)"/>
<path d="M26.6806 17.02C26.4006 16.16 25.7606 15.63 24.9606 15.28C24.1206 14.91 23.2406 14.76 22.3306 14.69C21.9206 14.66 21.1106 14.65 20.7006 14.63C20.4406 14.62 20.2906 14.45 20.3006 14.19V14.11C20.3006 13.96 20.4106 13.83 20.5506 13.8H20.6206L21.0706 13.74L21.7506 13.66C21.9306 13.66 22.0706 13.52 22.0706 13.34C22.0706 13.21 21.9906 13.09 21.8706 13.04C21.8306 13.02 21.7906 13.02 21.7506 13.02H17.0306C17.0306 13.02 16.9406 13.02 16.9106 13.04C16.7906 13.09 16.7106 13.2 16.7106 13.34C16.7106 13.52 16.8506 13.66 17.0306 13.66L17.7106 13.74L18.1606 13.79H18.2306C18.3706 13.83 18.4806 13.96 18.4806 14.11V14.14C18.4806 14.14 18.4806 14.23 18.4806 14.28C18.4606 14.48 18.3106 14.61 18.0706 14.62C17.7906 14.62 17.1206 14.63 16.8406 14.65C15.9606 14.7 15.1006 14.83 14.2606 15.12C13.6306 15.34 13.0606 15.65 12.6206 16.15C12.1006 16.73 11.9006 17.43 11.8906 18.2C11.8906 18.88 12.0206 19.53 12.4406 20.08C12.8106 20.56 13.3106 20.87 13.8606 21.09C14.7306 21.44 15.6506 21.55 16.5806 21.61C16.9506 21.63 17.3206 21.64 17.6906 21.65C17.7606 21.65 18.2206 21.66 18.2806 21.69C18.4006 21.74 18.4606 21.86 18.4706 21.98V22.02C18.4706 22.02 18.4706 22.1 18.4706 22.13C18.4606 22.27 18.3606 22.38 18.2306 22.41L17.0306 22.55C16.8606 22.55 16.7206 22.68 16.7106 22.85C16.7106 22.85 16.7106 22.87 16.7106 22.88V22.9C16.7206 23.07 16.8606 23.2 17.0306 23.2L18.2306 23.34C18.3606 23.37 18.4606 23.48 18.4706 23.62C18.4706 23.68 18.4706 23.73 18.4706 23.79V23.95C18.4706 24.04 18.4706 24.19 18.4706 24.28C18.4606 24.42 18.3606 24.53 18.2306 24.56L17.0306 24.7C16.8406 24.7 16.6906 24.86 16.7106 25.05C16.7106 25.08 16.7206 25.12 16.7406 25.15C16.7906 25.27 16.9206 25.35 17.0606 25.35H21.7306C21.8206 25.35 21.9106 25.31 21.9706 25.26C22.0306 25.21 22.0606 25.14 22.0706 25.06C22.0906 24.87 21.9406 24.71 21.7506 24.71L20.5506 24.57C20.4206 24.54 20.3206 24.43 20.3106 24.29C20.3106 24.18 20.3106 24.07 20.3106 23.96V23.85C20.3106 23.78 20.3106 23.7 20.3106 23.63C20.3206 23.49 20.4206 23.38 20.5506 23.35L21.7506 23.21C21.9206 23.21 22.0606 23.08 22.0706 22.91C22.0706 22.91 22.0706 22.89 22.0706 22.88V22.86C22.0606 22.69 21.9206 22.56 21.7506 22.56L20.5506 22.42C20.4206 22.39 20.3206 22.28 20.3106 22.14V22.07C20.3106 22.07 20.3106 21.98 20.3106 21.94C20.3306 21.83 20.4106 21.73 20.5206 21.69C20.5806 21.67 20.6606 21.67 20.7306 21.66C21.3106 21.63 22.2906 21.61 22.8706 21.56C23.5906 21.5 24.2906 21.36 24.9706 21.09C25.5706 20.85 26.1006 20.52 26.4506 19.95C27.0206 19.02 27.0206 18.02 26.7006 17.01L26.6806 17.02ZM18.4906 20.52C18.4906 20.71 18.3206 20.76 18.1206 20.76C17.4106 20.75 15.3106 20.62 14.6906 20.27C13.2206 19.45 13.2406 17.43 14.3306 16.45C14.9006 15.94 15.5706 15.71 16.3106 15.62C16.4006 15.61 17.0806 15.6 17.6006 15.6L17.7306 15.62L18.1806 15.67H18.2506C18.3906 15.71 18.4906 15.84 18.5006 15.98C18.5006 16.71 18.5006 17.44 18.5006 18.17C18.5006 18.95 18.5006 19.73 18.5006 20.51L18.4906 20.52ZM24.7706 19.58C24.4606 20.08 23.9906 20.36 23.4406 20.54C22.9806 20.69 21.0806 20.75 20.6006 20.76C20.3906 20.76 20.3006 20.66 20.3006 20.46C20.3006 19.69 20.3006 18.92 20.3006 18.16C20.3006 17.56 20.3006 16.97 20.3006 16.37C20.3006 16.25 20.3006 16.12 20.3006 16C20.3006 15.85 20.4106 15.72 20.5506 15.69H20.6206L21.0706 15.63C21.8706 15.67 23.2206 15.75 23.6306 15.93C24.6006 16.36 25.0806 17.13 25.1106 18.18C25.1206 18.68 25.0406 19.15 24.7706 19.58Z" fill="white"/>
</g>
<defs>
<filter id="filter0_d_23_15131" x="0.420782" y="0.370001" width="39.6592" height="39.66" filterUnits="userSpaceOnUse" color-interpolation-filters="sRGB">
<feFlood flood-opacity="0" result="BackgroundImageFix"/>
<feColorMatrix in="SourceAlpha" type="matrix" values="0 0 0 0 0 0 0 0 0 0 0 0 0 0 0 0 0 0 127 0" result="hardAlpha"/>
<feOffset dx="0.85" dy="1.06"/>
<feGaussianBlur stdDeviation="4.24"/>
<feColorMatrix type="matrix" values="0 0 0 0 0.0392157 0 0 0 0 0.12549 0 0 0 0 0.4 0 0 0 0.2 0"/>
<feBlend mode="normal" in2="BackgroundImageFix" result="effect1_dropShadow_23_15131"/>
<feBlend mode="normal" in="SourceGraphic" in2="effect1_dropShadow_23_15131" result="shape"/>
</filter>
<linearGradient id="paint0_linear_23_15131" x1="19.4008" y1="7.92" x2="19.4008" y2="30.62" gradientUnits="userSpaceOnUse">
<stop stop-color="#E96262"/>
<stop offset="1" stop-color="#E43E3A"/>
</linearGradient>
</defs>
</svg>
