<svg width="23" height="19" viewBox="0 0 23 19" fill="none" xmlns="http://www.w3.org/2000/svg">
<g clip-path="url(#clip0_23_14533)">
<g opacity="0.5">
<path d="M11.43 0C14.35 0 17.27 0 20.2 0C20.79 0 21.35 0.1 21.83 0.46C22.53 0.98 22.83 1.69 22.83 2.56C22.83 6.86 22.83 11.16 22.83 15.46C22.83 15.8 22.79 16.16 22.67 16.47C22.32 17.4 21.61 17.9 20.62 18.01C20.5 18.02 20.38 18.02 20.26 18.02C14.37 18.02 8.48 18.02 2.58 18.02C1.41 18.02 0.49 17.43 0.16 16.42C0.06 16.12 0.02 15.79 0.02 15.48C0 11.17 0.02 6.86 0 2.55C0 1.05 1.03 0.21 1.95 0.06C2.18 0.02 2.43 0 2.67 0C5.59 0 8.51 0 11.43 0ZM20.41 4.58C20.33 4.65 20.28 4.7 20.23 4.75C17.98 6.88 15.73 9.01 13.48 11.14C13.15 11.45 12.83 11.76 12.49 12.05C12.01 12.44 11.45 12.64 10.82 12.53C10.28 12.44 9.86 12.15 9.48 11.78C7.24 9.56 4.99 7.35 2.75 5.13C2.66 5.04 2.58 4.92 2.5 4.81L2.43 4.86V15.6H20.41V4.58ZM11.14 10.04L19.18 2.43H3.44L11.14 10.03V10.04Z" fill="#6C80C3"/>
</g>
</g>
<defs>
<clipPath id="clip0_23_14533">
<rect width="22.83" height="18.02" fill="white"/>
</clipPath>
</defs>
</svg>
