<svg width="616" height="408" viewBox="0 0 616 408" fill="none" xmlns="http://www.w3.org/2000/svg">
<g clip-path="url(#clip0_16_11780)">
<path d="M170.12 6.76001V401.08H78.86V79.99H0V6.76001H170.12Z" fill="#EAF2FF"/>
<path d="M343.34 381.64C310.85 364.18 285.32 339.96 266.73 308.97C248.14 277.99 238.85 242.97 238.85 203.91C238.85 164.85 248.14 129.83 266.73 98.85C285.32 67.87 310.85 43.65 343.34 26.18C375.81 8.73 412.34 0 452.9 0C487.07 0 517.96 6.01 545.56 18.03C573.16 30.05 596.35 47.32 615.13 69.85L556.55 123.93C529.88 93.14 496.84 77.74 457.41 77.74C432.99 77.74 411.22 83.09 392.07 93.79C372.92 104.49 357.99 119.42 347.29 138.57C336.59 157.72 331.24 179.51 331.24 203.91C331.24 228.31 336.59 250.1 347.29 269.25C357.99 288.4 372.92 303.33 392.07 314.03C411.22 324.73 433 330.08 457.41 330.08C496.84 330.08 529.88 314.5 556.55 283.33L615.13 337.41C596.35 360.32 573.07 377.78 545.28 389.8C517.48 401.81 486.5 407.83 452.33 407.83C412.14 407.83 375.81 399.1 343.33 381.64H343.34Z" fill="#EAF2FF"/>
</g>
<defs>
<clipPath id="clip0_16_11780">
<rect width="615.13" height="407.84" fill="white"/>
</clipPath>
</defs>
</svg>
