<svg width="158" height="42" viewBox="0 0 158 42" fill="none" xmlns="http://www.w3.org/2000/svg">
<rect width="158" height="42" fill="#CCCCCC"/>
<g id="&#208;&#155;&#208;&#190;&#208;&#179;&#208;&#190;&#209;&#130;&#208;&#184;&#208;&#191;_&#209;&#132;&#208;&#190;&#209;&#128;&#208;&#188;&#209;&#131;&#208;&#187;&#208;&#176;" clip-path="url(#clip0_0_1)">
<g id="Group">
<path id="Vector" d="M128.74 11.17V13.23H118.82V0H128.48V2.06H121.28V5.5H127.67V7.52H121.28V11.17H128.74Z" fill="#272E85"/>
<path id="Vector_2" d="M140.6 13.23L137.9 9.36C137.79 9.37 137.62 9.38 137.39 9.38H134.4V13.24H131.94V0H137.38C138.53 0 139.52 0.19 140.37 0.57C141.22 0.95 141.87 1.49 142.33 2.2C142.78 2.9 143.01 3.74 143.01 4.71C143.01 5.68 142.77 6.56 142.28 7.28C141.8 8 141.1 8.53 140.19 8.89L143.23 13.24H140.58L140.6 13.23ZM139.71 2.76C139.16 2.31 138.34 2.08 137.27 2.08H134.4V7.35H137.27C138.34 7.35 139.15 7.12 139.71 6.66C140.27 6.2 140.54 5.55 140.54 4.7C140.54 3.85 140.26 3.21 139.71 2.75V2.76Z" fill="#272E85"/>
<path id="Vector_3" d="M154.67 0.57C155.52 0.95 156.17 1.49 156.63 2.2C157.08 2.9 157.31 3.74 157.31 4.71C157.31 5.68 157.08 6.5 156.63 7.21C156.18 7.92 155.52 8.47 154.67 8.85C153.82 9.23 152.82 9.42 151.68 9.42H148.69V13.24H146.23V0H151.67C152.82 0 153.81 0.19 154.66 0.57H154.67ZM154 6.66C154.56 6.21 154.83 5.56 154.83 4.71C154.83 3.86 154.55 3.22 154 2.76C153.45 2.31 152.63 2.08 151.56 2.08H148.69V7.33H151.56C152.63 7.33 153.44 7.1 154 6.65V6.66Z" fill="#272E85"/>
</g>
<g id="Group_2">
<path id="Vector_4" d="M41.61 22.55C40.78 21.72 39.85 21.08 38.82 20.64C37.79 20.2 36.72 20 35.62 20C34.52 20 33.44 20.22 32.39 20.66C31.34 21.1 30.41 21.76 29.58 22.62C28.75 23.48 28.09 24.53 27.6 25.75C27.11 27 26.87 28.39 26.87 29.96C26.87 31.53 27.11 33.04 27.6 34.29C28.09 35.54 28.75 36.59 29.58 37.42C30.41 38.25 31.36 38.89 32.42 39.33C33.47 39.77 34.55 39.97 35.65 39.97C36.75 39.97 37.83 39.75 38.88 39.31C39.93 38.87 40.86 38.21 41.69 37.33C42.52 36.47 43.18 35.42 43.67 34.18C44.16 32.93 44.4 31.54 44.4 29.97C44.4 28.4 44.16 26.89 43.67 25.67C43.11 24.45 42.45 23.4 41.62 22.56L41.61 22.55ZM40.9 33.14C40.68 34.17 40.36 35.07 39.92 35.88C39.48 36.69 38.89 37.35 38.18 37.81C37.47 38.3 36.62 38.54 35.61 38.54C34.6 38.54 33.78 38.3 33.04 37.81C32.3 37.32 31.74 36.69 31.28 35.88C30.82 35.07 30.5 34.17 30.28 33.14C30.06 32.11 29.96 31.06 29.96 29.99C29.96 28.92 30.06 27.89 30.28 26.86C30.5 25.83 30.84 24.93 31.28 24.1C31.74 23.29 32.33 22.63 33.04 22.17C33.75 21.71 34.6 21.46 35.61 21.46C36.62 21.46 37.44 21.7 38.18 22.17C38.89 22.63 39.48 23.29 39.92 24.1C40.36 24.91 40.7 25.84 40.9 26.86C41.1 27.88 41.22 28.91 41.22 29.99C41.2 31.07 41.1 32.12 40.9 33.14Z" fill="url(#paint0_linear_0_1)"/>
<path id="Vector_5" d="M60.1 22.04C58.9 20.99 57.07 20.45 54.67 20.45H46.99C46.67 20.45 46.4 20.72 46.4 21.04C46.4 21.36 46.67 21.63 46.99 21.63L49.04 21.87L49.16 21.89C49.43 21.94 49.6 22.18 49.6 22.45C49.62 23.5 49.65 24.55 49.65 25.6V34.4C49.65 35.48 49.63 36.55 49.6 37.6C49.58 37.84 49.4 38.04 49.16 38.11L46.96 38.38C46.62 38.38 46.35 38.67 46.37 39.02C46.39 39.34 46.69 39.56 47.01 39.56H55.08C55.37 39.54 55.62 39.29 55.62 38.97C55.62 38.68 55.4 38.43 55.08 38.38L52.86 38.11C52.62 38.06 52.42 37.82 52.42 37.55C52.4 36.69 52.4 35.86 52.4 35.03C52.4 34.2 52.4 33.39 52.38 32.58V32.56C52.4 32.27 52.65 32.02 52.94 32.02H53.87C55.83 32.02 57.39 31.75 58.56 31.21C59.73 30.67 60.59 29.96 61.13 29.06C61.67 28.16 61.94 27.18 61.94 26.13C61.92 24.44 61.3 23.07 60.11 22.02L60.1 22.04ZM57.97 29.4C57.24 30.26 55.99 30.67 54.25 30.67H52.91C52.62 30.65 52.37 30.4 52.37 30.11V29.3C52.37 28.03 52.37 26.76 52.39 25.49C52.39 24.41 52.41 23.36 52.41 22.31C52.43 22.02 52.68 21.77 52.97 21.77H54.12C55.83 21.77 57.08 22.16 57.89 22.92C58.67 23.68 59.06 24.75 59.06 26.15C59.08 27.47 58.69 28.55 57.96 29.4H57.97Z" fill="url(#paint1_linear_0_1)"/>
<path id="Vector_6" d="M84.77 25.59C84.77 24.51 84.79 23.46 84.79 22.41C84.81 22.17 84.99 21.95 85.21 21.9L87.43 21.63C87.77 21.63 88.04 21.34 88.02 20.99C88 20.67 87.7 20.45 87.38 20.45H81.81L75.77 36.12H75.75L69.37 20.45H64.14C63.82 20.45 63.55 20.67 63.5 20.99C63.48 21.33 63.74 21.63 64.09 21.63L66.22 21.9C66.46 21.95 66.66 22.19 66.66 22.46V37.52C66.66 37.79 66.46 38.03 66.2 38.08L66.08 38.1L64.08 38.39C63.74 38.39 63.47 38.68 63.49 39.03C63.51 39.35 63.81 39.57 64.13 39.57H70.49C70.81 39.55 71.05 39.3 71.05 38.98C71.05 38.66 70.81 38.42 70.49 38.39L68.73 38.12H68.58C68.34 38.07 68.14 37.83 68.14 37.56V29.05L67.97 23.7C67.97 23.7 67.99 23.68 67.99 23.7L74.52 39.57H75.94L82.13 23.68H82.15V34.44C82.15 35.52 82.13 36.59 82.1 37.64C82.08 37.88 81.9 38.08 81.68 38.15L79.7 38.42C79.38 38.44 79.14 38.69 79.14 39.01C79.14 39.33 79.38 39.57 79.7 39.6H87.43C87.75 39.6 88.02 39.38 88.07 39.06C88.09 38.72 87.83 38.42 87.48 38.42L85.43 38.18H85.31C85.07 38.13 84.87 37.91 84.87 37.64C84.85 36.56 84.85 35.49 84.82 34.44C84.82 33.22 84.8 31.99 84.8 30.77V25.59H84.77Z" fill="url(#paint2_linear_0_1)"/>
<path id="Vector_7" d="M108.29 21.63C108.63 21.63 108.9 21.34 108.88 20.99C108.86 20.67 108.56 20.45 108.24 20.45H102.01C101.72 20.47 101.5 20.72 101.5 21.04C101.5 21.36 101.72 21.58 102.01 21.63L103.72 21.85C103.96 21.92 104.14 22.12 104.14 22.39L99.52 33.22C99.52 33.22 99.47 33.34 99.45 33.42C99.43 33.49 99.38 33.54 99.35 33.62L94.9 22.45C94.9 22.18 95.1 21.96 95.34 21.89L97.3 21.65C97.62 21.65 97.86 21.38 97.86 21.06C97.86 20.74 97.62 20.5 97.3 20.47H89.84C89.52 20.47 89.25 20.69 89.2 21.01C89.18 21.35 89.44 21.65 89.79 21.65L91.45 21.85H91.47C91.47 21.85 91.54 21.85 91.57 21.87C91.74 21.92 91.89 22.04 91.96 22.21L92.06 22.43L98.07 36.44C97.83 36.98 97.58 37.44 97.31 37.86C97.07 38.28 96.77 38.64 96.48 38.96H96.46C96.04 38.52 95.68 38.23 95.34 38.08C95 37.91 94.63 37.84 94.24 37.84C93.34 37.84 92.75 38.21 92.43 38.92C92.43 39.6 92.65 40.14 93.09 40.51C93.53 40.88 94.07 41.07 94.75 41.07C95.51 41.07 96.17 40.87 96.71 40.48C97.25 40.09 97.74 39.58 98.13 38.92C98.55 38.26 98.91 37.53 99.28 36.7L105.73 22.52L105.83 22.3V22.28C105.9 22.11 106.05 21.99 106.22 21.96L106.34 21.94H106.36L108.29 21.67V21.63Z" fill="url(#paint3_linear_0_1)"/>
<path id="Vector_8" d="M122.74 25.61C122.74 24.53 122.76 23.48 122.79 22.43C122.81 22.14 123.06 21.89 123.35 21.89L125.4 21.65C125.74 21.65 126.01 21.36 125.99 21.01C125.97 20.69 125.67 20.47 125.35 20.47H111.34C111.02 20.47 110.75 20.74 110.75 21.06C110.75 21.38 111.02 21.65 111.34 21.65L113.25 21.94L113.4 21.96C113.64 22.03 113.82 22.25 113.84 22.52C113.72 24.79 113.55 26.8 113.35 28.53C113.13 30.39 112.84 32.1 112.4 33.62C111.96 35.23 111.42 36.51 110.79 37.43H110.77C110.48 37.23 110.21 37.06 109.91 36.94C109.61 36.82 109.3 36.77 108.93 36.77C108.51 36.77 108.15 36.84 107.85 36.99C107.56 37.14 107.31 37.41 107.14 37.8C107.14 38.58 107.34 39.14 107.75 39.49C108.16 39.84 108.65 40 109.24 40C110.22 40 111.1 39.54 111.86 38.58C112.64 37.63 113.33 36.11 113.89 33.96C114.28 32.47 114.6 30.73 114.79 28.8C114.99 26.99 115.13 24.86 115.23 22.42C115.25 22.13 115.47 21.88 115.77 21.88H119.41C119.7 21.88 119.95 22.1 119.97 22.39C119.99 23.44 120.02 24.49 120.02 25.57V34.37C120.02 35.45 120 36.55 119.97 37.62C119.95 37.86 119.77 38.06 119.53 38.11L117.33 38.38C117.01 38.4 116.77 38.65 116.77 38.97C116.77 39.29 117.01 39.53 117.33 39.56H125.37C125.69 39.56 125.96 39.34 126.01 39.02C126.03 38.68 125.77 38.38 125.42 38.38L123.22 38.11C122.98 38.06 122.78 37.84 122.78 37.57C122.76 36.52 122.76 35.47 122.76 34.42C122.76 33.17 122.74 31.95 122.74 30.7V29.31C122.74 28.04 122.74 26.82 122.74 25.59V25.61Z" fill="url(#paint4_linear_0_1)"/>
<path id="Vector_9" d="M146.04 38.37L144.33 38.17H144.21C144.04 38.12 143.89 38 143.82 37.85C143.8 37.83 143.8 37.78 143.77 37.73L143.72 37.61L137.83 20.32H136.05L130.16 37.51L130.11 37.63C130.11 37.63 130.09 37.7 130.06 37.75C129.96 37.95 129.77 38.09 129.55 38.09L127.57 38.38C127.23 38.38 126.96 38.67 126.98 39.02C127 39.34 127.3 39.56 127.62 39.56H134.1C134.42 39.56 134.69 39.29 134.69 38.97C134.69 38.65 134.42 38.38 134.1 38.38L132.05 38.11L131.9 38.09C131.66 38.02 131.46 37.8 131.46 37.53L132.8 33.57C132.9 33.45 133.02 33.37 133.19 33.35H139.18C139.35 33.37 139.5 33.47 139.6 33.59L139.7 33.88V33.9L140.92 37.54C140.92 37.81 140.75 38.03 140.5 38.08L138.28 38.35C137.96 38.37 137.72 38.62 137.72 38.94C137.72 39.26 137.96 39.5 138.28 39.53H146.01C146.33 39.53 146.6 39.31 146.65 38.99C146.67 38.65 146.41 38.35 146.06 38.35L146.04 38.37ZM136.21 23.53L138.88 31.43C138.88 31.75 138.61 32.02 138.29 32.02H134.08C133.76 32.02 133.52 31.75 133.52 31.43L136.21 23.53Z" fill="url(#paint5_linear_0_1)"/>
<path id="Vector_10" d="M23.76 26.44C23.31 25.06 22.28 24.2 21.01 23.64C19.68 23.04 18.24 22.8 16.79 22.69C16.12 22.65 14.83 22.63 14.17 22.6C13.76 22.58 13.5 22.32 13.52 21.89V21.76C13.52 21.52 13.69 21.31 13.91 21.27L14.02 21.25L14.73 21.16L15.83 21.03C16.11 21.03 16.35 20.79 16.35 20.51C16.35 20.29 16.22 20.12 16.03 20.04C15.97 20.02 15.9 20 15.84 20H8.26999C8.20999 20 8.13999 20.02 8.07999 20.04C7.88999 20.13 7.75999 20.3 7.75999 20.51C7.75999 20.79 7.99999 21.03 8.27999 21.03L9.37999 21.16L10.09 21.25L10.2 21.27C10.44 21.31 10.59 21.53 10.59 21.76V22.06C10.55 22.38 10.31 22.58 9.93999 22.6C9.48999 22.62 8.40999 22.62 7.97999 22.64C6.55999 22.73 5.17999 22.92 3.84999 23.39C2.83999 23.73 1.93999 24.25 1.19999 25.05C0.359989 25.97 0.039989 27.11 0.019989 28.34C0.019989 29.44 0.209989 30.47 0.899989 31.37C1.49999 32.14 2.29999 32.64 3.17999 32.98C4.57999 33.54 6.05999 33.73 7.54999 33.82C8.14999 33.86 8.72999 33.86 9.32999 33.88C9.43999 33.88 10.19 33.9 10.28 33.94C10.47 34.03 10.58 34.2 10.58 34.39V34.45V34.64C10.56 34.86 10.41 35.03 10.19 35.09L8.24999 35.33C7.96999 35.33 7.75999 35.55 7.72999 35.8V35.89C7.74999 36.15 7.96999 36.36 8.24999 36.36L10.19 36.6C10.41 36.64 10.56 36.84 10.58 37.05V37.59C10.58 37.74 10.58 37.98 10.56 38.11C10.54 38.33 10.39 38.5 10.17 38.56L8.22999 38.8C7.92999 38.8 7.68999 39.06 7.70999 39.36C7.70999 39.42 7.72999 39.47 7.74999 39.51C7.83999 39.7 8.02999 39.83 8.26999 39.83H15.78C15.93 39.83 16.06 39.77 16.17 39.68C16.26 39.59 16.32 39.49 16.34 39.36C16.36 39.06 16.12 38.8 15.82 38.8L13.88 38.56C13.66 38.52 13.51 38.32 13.49 38.11C13.49 37.94 13.49 37.74 13.47 37.57V37.05C13.49 36.83 13.64 36.66 13.86 36.6L15.8 36.36C16.08 36.36 16.29 36.14 16.32 35.89V35.8C16.3 35.54 16.08 35.33 15.8 35.33L13.86 35.09C13.64 35.05 13.49 34.85 13.47 34.64V34.32C13.51 34.15 13.62 33.98 13.79 33.91C13.9 33.87 14.01 33.87 14.11 33.87C15.06 33.83 16.6 33.78 17.55 33.72C18.71 33.61 19.83 33.4 20.93 32.97C21.9 32.58 22.76 32.05 23.3 31.14C24.29 29.63 24.29 28.02 23.77 26.41L23.76 26.44ZM10.6 32.05C10.6 32.37 10.32 32.44 10.02 32.44C8.87999 32.42 5.49999 32.2 4.50999 31.64C2.13999 30.33 2.16999 27.08 3.92999 25.51C4.82999 24.69 5.92999 24.33 7.10999 24.18C7.25999 24.16 8.35999 24.16 9.16999 24.14L9.38999 24.16L10.1 24.25L10.21 24.27C10.43 24.31 10.6 24.53 10.6 24.76V32.05ZM20.69 30.54C20.2 31.34 19.44 31.81 18.56 32.09C17.83 32.33 14.78 32.43 14 32.43C13.68 32.43 13.51 32.28 13.51 31.94V25.36C13.51 25.17 13.51 24.97 13.53 24.76C13.53 24.52 13.7 24.31 13.92 24.27L14.03 24.25L14.74 24.16C16.03 24.22 18.18 24.35 18.85 24.65C20.42 25.34 21.17 26.59 21.22 28.26C21.28 29.1 21.13 29.85 20.7 30.54H20.69Z" fill="url(#paint6_linear_0_1)"/>
</g>
</g>
<defs>
<linearGradient id="paint0_linear_0_1" x1="35.64" y1="20.01" x2="35.64" y2="39.96" gradientUnits="userSpaceOnUse">
<stop stop-color="#E96262"/>
<stop offset="1" stop-color="#E43E3A"/>
</linearGradient>
<linearGradient id="paint1_linear_0_1" x1="54.16" y1="20.45" x2="54.16" y2="39.57" gradientUnits="userSpaceOnUse">
<stop stop-color="#E96262"/>
<stop offset="1" stop-color="#E43E3A"/>
</linearGradient>
<linearGradient id="paint2_linear_0_1" x1="75.76" y1="20.45" x2="75.76" y2="39.55" gradientUnits="userSpaceOnUse">
<stop stop-color="#E96262"/>
<stop offset="1" stop-color="#E43E3A"/>
</linearGradient>
<linearGradient id="paint3_linear_0_1" x1="99.04" y1="20.45" x2="99.04" y2="41.01" gradientUnits="userSpaceOnUse">
<stop stop-color="#E96262"/>
<stop offset="1" stop-color="#E43E3A"/>
</linearGradient>
<linearGradient id="paint4_linear_0_1" x1="116.58" y1="20.44" x2="116.58" y2="39.98" gradientUnits="userSpaceOnUse">
<stop stop-color="#E96262"/>
<stop offset="1" stop-color="#E43E3A"/>
</linearGradient>
<linearGradient id="paint5_linear_0_1" x1="136.8" y1="20.3" x2="136.8" y2="39.54" gradientUnits="userSpaceOnUse">
<stop stop-color="#E96262"/>
<stop offset="1" stop-color="#E43E3A"/>
</linearGradient>
<linearGradient id="paint6_linear_0_1" x1="12.05" y1="11.99" x2="12.05" y2="61.84" gradientUnits="userSpaceOnUse">
<stop stop-color="#E96262"/>
<stop offset="1" stop-color="#E43E3A"/>
</linearGradient>
<clipPath id="clip0_0_1">
<rect width="157.31" height="41.04" fill="white"/>
</clipPath>
</defs>
</svg>
