<svg width="444" height="38" viewBox="0 0 444 38" fill="none" xmlns="http://www.w3.org/2000/svg">
<g clip-path="url(#clip0_23_15274)">
<path d="M317.19 1.68H310.24L310.26 13.52H308.35V0H317.21L317.19 1.68Z" fill="#272D61"/>
<path d="M330.839 1.26C331.839 2.1 332.349 3.25 332.349 4.72C332.349 6.19 331.849 7.34 330.839 8.18C329.839 9.02 328.459 9.44 326.709 9.44H323.369V13.53H321.439V0H326.709C328.459 0 329.839 0.42 330.839 1.26ZM329.449 6.97C330.089 6.45 330.419 5.7 330.419 4.72C330.419 3.74 330.099 2.99 329.449 2.47C328.809 1.95 327.869 1.69 326.649 1.69H323.369V7.74H326.649C327.869 7.74 328.809 7.48 329.449 6.96V6.97Z" fill="#272D61"/>
<path d="M347.739 0L341.729 11.14C341.249 12.03 340.689 12.69 340.049 13.13C339.409 13.57 338.699 13.79 337.939 13.79C337.349 13.79 336.739 13.65 336.119 13.38L336.619 11.84C337.099 12.01 337.519 12.09 337.889 12.09C338.739 12.09 339.439 11.64 339.999 10.74L340.309 10.26L334.859 0.01H336.929L341.309 8.58L345.809 0.01H347.719L347.739 0Z" fill="#272D61"/>
<path d="M363.3 0V13.52H361.41V1.68H353.57V13.52H351.66V0H363.31H363.3Z" fill="#272D61"/>
<path d="M381.089 0V13.52H379.199V1.68H371.359V13.52H369.449V0H381.099H381.089Z" fill="#272D61"/>
<path d="M396.019 10.14H388.839L387.349 13.52H385.359L391.479 0H393.389L399.529 13.52H397.499L396.009 10.14H396.019ZM395.339 8.59L392.419 1.97L389.499 8.59H395.329H395.339Z" fill="#272D61"/>
<path d="M313.05 29.57H310.23V35.52H308.34V22H310.23V27.87H313.09L317.34 22H319.41L314.58 28.55L319.64 35.52H317.44L313.06 29.57H313.05Z" fill="#272D61"/>
<path d="M325.92 34.7699C324.83 34.1699 323.97 33.3399 323.34 32.2899C322.72 31.2299 322.4 30.0599 322.4 28.7599C322.4 27.4599 322.71 26.2799 323.34 25.2299C323.96 24.1699 324.82 23.3499 325.92 22.7499C327.01 22.1499 328.24 21.8499 329.61 21.8499C330.98 21.8499 332.18 22.1499 333.28 22.7499C334.37 23.3499 335.23 24.1699 335.85 25.2199C336.47 26.2699 336.78 27.4499 336.78 28.7599C336.78 30.0699 336.47 31.2499 335.85 32.2999C335.23 33.3499 334.38 34.1699 333.28 34.7699C332.19 35.3699 330.96 35.6699 329.61 35.6699C328.26 35.6699 327.01 35.3699 325.92 34.7699ZM332.28 33.2699C333.07 32.8199 333.7 32.1999 334.15 31.4099C334.61 30.6199 334.84 29.7299 334.84 28.7499C334.84 27.7699 334.61 26.8899 334.15 26.0899C333.69 25.2999 333.07 24.6799 332.28 24.2299C331.49 23.7799 330.6 23.5499 329.61 23.5499C328.62 23.5499 327.72 23.7799 326.92 24.2299C326.12 24.6799 325.48 25.2999 325.03 26.0899C324.57 26.8799 324.34 27.7699 324.34 28.7499C324.34 29.7299 324.57 30.6099 325.03 31.4099C325.49 32.1999 326.12 32.8199 326.92 33.2699C327.72 33.7199 328.62 33.9499 329.61 33.9499C330.6 33.9499 331.49 33.7299 332.28 33.2699Z" fill="#272D61"/>
<path d="M354.36 35.52L354.34 25.67L349.45 33.88H348.56L343.67 25.73V35.52H341.82V22H343.4L349.04 31.5L354.6 22H356.18L356.2 35.52H354.35H354.36Z" fill="#272D61"/>
<path d="M373.999 22V35.52H372.109V23.68H364.269V35.52H362.359V22H374.009H373.999Z" fill="#272D61"/>
<path d="M388.93 32.14H381.75L380.26 35.52H378.27L384.39 22H386.3L392.44 35.52H390.41L388.92 32.14H388.93ZM388.25 30.59L385.33 23.97L382.41 30.59H388.24H388.25Z" fill="#272D61"/>
<path d="M408.341 22V35.52H406.411V29.49H398.651V35.52H396.721V22H398.651V27.81H406.411V22H408.341Z" fill="#272D61"/>
<path d="M414.48 22H416.39V32.43L424.38 22H426.16V35.52H424.27V25.11L416.26 35.52H414.48V22Z" fill="#272D61"/>
<path d="M432.311 21.9999H434.221V32.4299L442.211 21.9999H443.991V35.5199H442.101V25.1099L434.091 35.5199H432.311V21.9999ZM435.681 20.3699C435.111 19.9099 434.811 19.2599 434.801 18.4099H436.171C436.181 18.9099 436.361 19.2999 436.701 19.5799C437.041 19.8599 437.511 19.9999 438.121 19.9999C438.731 19.9999 439.171 19.8599 439.521 19.5799C439.871 19.2999 440.061 18.9099 440.071 18.4099H441.421C441.411 19.2499 441.111 19.8999 440.541 20.3599C439.971 20.8199 439.161 21.0499 438.121 21.0499C437.081 21.0499 436.251 20.8199 435.681 20.3599V20.3699Z" fill="#272D61"/>
<path d="M272.949 35.68C282.802 35.68 290.789 27.6928 290.789 17.84C290.789 7.98724 282.802 0 272.949 0C263.097 0 255.109 7.98724 255.109 17.84C255.109 27.6928 263.097 35.68 272.949 35.68Z" fill="url(#paint0_linear_23_15274)"/>
<path d="M284.389 14.51C283.949 13.17 282.939 12.33 281.689 11.77C280.379 11.18 278.979 10.95 277.559 10.84C276.909 10.79 275.649 10.78 274.999 10.75C274.589 10.73 274.349 10.47 274.369 10.07C274.369 10.07 274.369 9.98998 274.369 9.94998C274.369 9.70998 274.539 9.50998 274.759 9.45998H274.869L275.569 9.35998L276.639 9.22998C276.919 9.22998 277.139 8.99998 277.139 8.72998C277.139 8.51998 277.009 8.33998 276.829 8.26998C276.769 8.23998 276.699 8.22998 276.639 8.22998H269.219C269.149 8.22998 269.089 8.23998 269.029 8.26998C268.849 8.34998 268.719 8.52998 268.719 8.72998C268.719 9.00998 268.949 9.22998 269.219 9.22998L270.289 9.35998L270.989 9.43998H271.099C271.319 9.49998 271.489 9.69998 271.489 9.93998V9.98998C271.489 10.06 271.489 10.14 271.489 10.21C271.459 10.53 271.219 10.72 270.849 10.74C270.409 10.76 269.359 10.76 268.919 10.79C267.539 10.88 266.179 11.07 264.869 11.53C263.889 11.88 262.989 12.37 262.289 13.15C261.469 14.06 261.149 15.16 261.139 16.37C261.139 17.44 261.339 18.46 262.009 19.33C262.589 20.09 263.369 20.57 264.239 20.92C265.619 21.46 267.059 21.65 268.519 21.74C269.099 21.78 269.679 21.78 270.269 21.81C270.379 21.81 271.099 21.83 271.199 21.87C271.379 21.95 271.489 22.13 271.499 22.32V22.38C271.499 22.44 271.499 22.5 271.499 22.56C271.479 22.77 271.329 22.95 271.119 23L269.229 23.23C268.969 23.23 268.749 23.44 268.729 23.7C268.729 23.7 268.729 23.73 268.729 23.75C268.729 23.76 268.729 23.78 268.729 23.79C268.749 24.06 268.969 24.26 269.229 24.26L271.119 24.49C271.329 24.54 271.479 24.71 271.499 24.93C271.499 25.02 271.499 25.11 271.499 25.2C271.499 25.29 271.499 25.37 271.499 25.46C271.499 25.61 271.499 25.84 271.489 25.98C271.469 26.19 271.319 26.37 271.109 26.42L269.219 26.65C268.929 26.65 268.689 26.9 268.719 27.2C268.719 27.25 268.739 27.3 268.759 27.35C268.839 27.54 269.039 27.66 269.259 27.66H276.599C276.739 27.66 276.879 27.6 276.979 27.51C277.069 27.43 277.129 27.32 277.139 27.2C277.169 26.9 276.929 26.65 276.639 26.65L274.749 26.42C274.539 26.37 274.389 26.2 274.369 25.98C274.369 25.81 274.369 25.63 274.359 25.46V25.28C274.359 25.17 274.359 25.05 274.369 24.94C274.389 24.73 274.539 24.55 274.749 24.5L276.639 24.27C276.899 24.27 277.119 24.06 277.139 23.8C277.139 23.8 277.139 23.77 277.139 23.75C277.139 23.74 277.139 23.72 277.139 23.71C277.119 23.44 276.899 23.24 276.639 23.24L274.749 23.01C274.539 22.96 274.389 22.79 274.369 22.57C274.369 22.54 274.369 22.5 274.369 22.47C274.369 22.4 274.369 22.33 274.369 22.26C274.399 22.08 274.519 21.93 274.689 21.87C274.789 21.83 274.899 21.83 275.009 21.83C275.929 21.78 277.459 21.76 278.369 21.68C279.499 21.58 280.609 21.37 281.669 20.95C282.609 20.57 283.449 20.05 283.989 19.16C284.879 17.69 284.889 16.12 284.379 14.54L284.389 14.51ZM271.509 20.01C271.509 20.32 271.239 20.39 270.929 20.38C269.819 20.36 266.519 20.16 265.529 19.61C263.219 18.32 263.239 15.15 264.959 13.61C265.849 12.81 266.909 12.45 268.069 12.31C268.219 12.29 269.289 12.28 270.099 12.28L270.299 12.3L270.999 12.38H271.109C271.329 12.44 271.489 12.64 271.499 12.87C271.499 14.02 271.499 15.17 271.499 16.32C271.499 17.55 271.499 18.78 271.499 20L271.509 20.01ZM281.389 18.53C280.899 19.32 280.159 19.76 279.309 20.04C278.589 20.27 275.599 20.37 274.849 20.38C274.529 20.38 274.369 20.23 274.369 19.9C274.369 18.69 274.369 17.49 274.369 16.28C274.369 15.34 274.369 14.4 274.369 13.47C274.369 13.28 274.369 13.08 274.379 12.89C274.379 12.65 274.549 12.45 274.769 12.4H274.879L275.579 12.3C276.839 12.36 278.959 12.49 279.599 12.78C281.129 13.46 281.869 14.67 281.919 16.32C281.939 17.1 281.809 17.85 281.389 18.52V18.53Z" fill="white"/>
<path d="M65.6895 11.2299C64.8495 9.12989 63.7295 7.36989 62.3295 5.94989C60.9295 4.52989 59.3395 3.45989 57.5895 2.72989C55.8295 1.99989 54.0095 1.63989 52.1395 1.63989C50.2695 1.63989 48.4495 2.01989 46.6695 2.77989C44.8895 3.53989 43.2995 4.63989 41.8995 6.09989C40.4995 7.54989 39.3695 9.32989 38.5295 11.4299C37.6895 13.5299 37.2695 15.8999 37.2695 18.5499C37.2695 21.3299 37.6795 23.7699 38.5095 25.8799C39.3295 27.9899 40.4495 29.7599 41.8695 31.1799C43.2895 32.5999 44.8895 33.6699 46.6595 34.3999C48.4295 35.1299 50.2595 35.4899 52.1295 35.4899C53.9995 35.4899 55.8295 35.1099 57.5995 34.3499C59.3695 33.5899 60.9695 32.4799 62.3695 31.0099C63.7695 29.5399 64.8895 27.7599 65.7095 25.6599C66.5295 23.5599 66.9495 21.1899 66.9495 18.5399C66.9495 15.7599 66.5295 13.3299 65.6895 11.2299ZM61.0995 23.8899C60.7495 25.6199 60.1895 27.1699 59.4295 28.5399C58.6695 29.9099 57.6895 31.0099 56.4795 31.8299C55.2695 32.6499 53.8195 33.0599 52.1495 33.0599C50.4695 33.0599 49.0295 32.6499 47.8195 31.8299C46.6095 31.0099 45.6195 29.9099 44.8395 28.5399C44.0695 27.1699 43.4895 25.6199 43.1195 23.8899C42.7495 22.1599 42.5595 20.3799 42.5595 18.5399C42.5595 16.6999 42.7495 14.9599 43.1195 13.2399C43.4895 11.5099 44.0595 9.95989 44.8395 8.56989C45.6195 7.17989 46.6095 6.08989 47.8195 5.27989C49.0295 4.46989 50.4695 4.06989 52.1495 4.06989C53.8295 4.06989 55.2695 4.46989 56.4795 5.27989C57.6895 6.08989 58.6695 7.17989 59.4295 8.56989C60.1895 9.95989 60.7395 11.5199 61.0995 13.2399C61.4495 14.9699 61.6295 16.7299 61.6295 18.5399C61.6295 20.3499 61.4495 22.1599 61.0995 23.8899Z" fill="#E75755"/>
<path d="M93.6502 5.04986C91.6002 3.25986 88.5302 2.35986 84.4302 2.35986H71.3902C70.8402 2.35986 70.4002 2.79986 70.4002 3.34986C70.4002 3.89986 70.8402 4.33986 71.3902 4.33986H71.4002L74.9002 4.75986L75.1102 4.78986C75.5502 4.88986 75.8702 5.27986 75.8702 5.74986C75.9202 7.52986 75.9502 9.30986 75.9502 11.0999V26.0399C75.9502 27.8699 75.9202 29.6799 75.8702 31.4599C75.8302 31.8799 75.5302 32.2299 75.1202 32.3199L71.3902 32.7699C70.8102 32.7699 70.3502 33.2699 70.4002 33.8499C70.4502 34.3699 70.9302 34.7499 71.4602 34.7499H85.1402C85.6402 34.6899 86.0302 34.2699 86.0302 33.7599C86.0302 33.2499 85.6402 32.8299 85.1402 32.7799L81.3802 32.3199C80.9502 32.2199 80.6302 31.8399 80.6202 31.3799C80.6002 29.9299 80.5702 28.4999 80.5602 27.0999C80.5502 25.7399 80.5402 24.3399 80.5402 22.9299C80.5402 22.9199 80.5402 22.8999 80.5402 22.8899C80.5702 22.3799 80.9802 21.9699 81.4902 21.9599H83.0502C86.3802 21.9599 89.0302 21.5099 91.0202 20.5999C93.0002 19.6999 94.4502 18.4899 95.3502 16.9699C96.2502 15.4499 96.7102 13.7899 96.7102 11.9799C96.7102 9.13986 95.6902 6.81986 93.6402 5.02986L93.6502 5.04986ZM90.0502 17.5399C88.7902 18.9799 86.6902 19.6999 83.7502 19.6999H80.5602V18.7599C80.5602 18.7599 80.5602 18.7499 80.5602 18.7399V17.3799C80.5602 15.2199 80.5602 13.0599 80.5802 10.9199C80.5902 9.08986 80.6102 7.29986 80.6402 5.52986C80.6402 5.51986 80.6402 5.50986 80.6402 5.49986C80.6402 5.19986 80.6402 4.88986 80.6502 4.59986H83.5502C86.4602 4.59986 88.5802 5.24986 89.9202 6.53986C91.2602 7.82986 91.9302 9.65986 91.9302 12.0099C91.9302 14.3599 91.3002 16.1199 90.0402 17.5499L90.0502 17.5399Z" fill="#E75755"/>
<path d="M120.22 28.9899L109.37 2.36987H100.41V4.34987L104.77 4.87987V32.1399L100.41 32.7699V34.7599H111.26V32.7699L107.29 32.1399V16.8899L107 7.73987L118.09 34.7599H120.51L131.02 7.73987V26.0399C131.02 28.1399 130.99 30.1999 130.92 32.2399L126.85 32.7699V34.7599H140.02V32.7699L135.57 32.2399C135.54 30.1399 135.51 28.0499 135.5 25.9699C135.49 23.8899 135.48 21.8099 135.48 19.7499V17.3799C135.48 15.2799 135.48 13.1799 135.5 11.0899C135.52 8.98987 135.54 6.92987 135.57 4.88987L140.02 4.35987V2.37987H130.48L120.22 29.0099V28.9899Z" fill="#E75755"/>
<path d="M175.361 2.36987H164.711V4.34987L168.631 4.87987L160.451 23.9999C160.421 24.0999 160.381 24.1999 160.331 24.3099C160.281 24.4199 160.231 24.5299 160.161 24.6299L152.321 4.87987L156.681 4.34987V2.36987H143.951V4.34987L147.441 4.78987L158.041 29.4299C157.621 30.3299 157.191 31.1299 156.761 31.8299C156.321 32.5199 155.851 33.1499 155.331 33.6899C154.621 32.9499 153.981 32.4399 153.421 32.1599C152.851 31.8899 152.231 31.7499 151.561 31.7499C150.041 31.7499 149.031 32.3599 148.511 33.5899C148.511 34.7499 148.881 35.6499 149.621 36.2799C150.361 36.9099 151.301 37.2299 152.431 37.2299C153.721 37.2299 154.831 36.8999 155.751 36.2399C156.671 35.5799 157.481 34.6899 158.171 33.5799C158.861 32.4699 159.521 31.2199 160.131 29.8299L171.461 4.89987L175.381 4.36987V2.38987L175.361 2.36987Z" fill="#E75755"/>
<path d="M180.59 4.3499L184.85 4.9799C184.62 9.1799 184.33 12.8599 183.98 16.0199C183.62 19.1799 183.09 22.0599 182.38 24.6399C181.64 27.3799 180.72 29.5499 179.62 31.1299C179.13 30.7799 178.65 30.4999 178.17 30.3099C177.69 30.1199 177.14 30.0199 176.53 30.0199C175.82 30.0199 175.21 30.1499 174.71 30.4099C174.21 30.6699 173.81 31.1199 173.52 31.7699C173.52 33.0899 173.87 34.0499 174.56 34.6299C175.25 35.2099 176.1 35.4999 177.1 35.4999C178.75 35.4999 180.23 34.6999 181.55 33.0999C182.87 31.4999 184.02 28.8999 184.99 25.2799C185.67 22.7299 186.18 19.8199 186.54 16.5399C186.89 13.2699 187.15 9.3499 187.31 4.7999H195.15C195.21 6.8699 195.25 8.9499 195.25 11.0499V25.9899C195.25 28.0699 195.22 30.1599 195.15 32.2599L190.7 32.7899V34.7799H204.4V32.7899L199.94 32.2599C199.91 30.2299 199.88 28.1599 199.87 26.0599C199.86 23.9599 199.85 21.8599 199.85 19.7699V17.3999C199.85 15.2999 199.85 13.2099 199.87 11.1299C199.89 9.0499 199.91 6.9699 199.94 4.9099L204.4 4.3799V2.3999H180.58V4.3799L180.59 4.3499Z" fill="#E75755"/>
<path d="M135.49 11.0799C135.5 9.25987 135.53 7.45987 135.55 5.67987C135.57 5.25987 135.86 4.90987 136.26 4.79987L140.02 4.34987C140.6 4.34987 141.06 3.85987 141.01 3.26987C140.96 2.74987 140.48 2.36987 139.95 2.36987H130.49C130.49 2.36987 130.48 2.36987 130.47 2.37987L120.22 28.9599C120.22 28.9599 120.2 28.9699 120.19 28.9599L109.37 2.37987C109.37 2.37987 109.37 2.36987 109.36 2.36987H100.48C99.9497 2.36987 99.4697 2.74987 99.4197 3.26987C99.3697 3.85987 99.8297 4.34987 100.41 4.34987L104.01 4.78987C104.44 4.88987 104.77 5.27987 104.77 5.73987V31.2999C104.77 31.7699 104.44 32.1699 103.99 32.2599H103.98L103.79 32.2899L100.41 32.7799C99.8297 32.7799 99.3697 33.2799 99.4197 33.8599C99.4697 34.3799 99.9497 34.7599 100.48 34.7599H111.25C111.77 34.7299 112.19 34.2999 112.19 33.7699C112.19 33.2399 111.77 32.8099 111.25 32.7799L108.26 32.2999L108.14 32.2799C108.14 32.2799 108.07 32.2799 108.03 32.2599C107.6 32.1599 107.28 31.7699 107.28 31.3099V16.8899L106.99 7.82987C106.99 7.82987 107.01 7.80987 107.02 7.82987L118.07 34.7499C118.07 34.7499 118.07 34.7599 118.08 34.7599H120.48C120.48 34.7599 120.49 34.7599 120.5 34.7499L130.97 7.81987C130.97 7.81987 131 7.80987 131 7.81987V26.0399C131 27.8799 130.97 29.6799 130.92 31.4699C130.89 31.8899 130.59 32.2299 130.2 32.3299L126.84 32.7699C126.31 32.7999 125.89 33.2299 125.89 33.7599C125.89 34.2899 126.31 34.7299 126.84 34.7499H139.94C140.47 34.7499 140.95 34.3799 141 33.8499C141.05 33.2599 140.59 32.7699 140.01 32.7699L136.52 32.3499H136.43C136.43 32.3499 136.35 32.3299 136.31 32.3299C135.88 32.2399 135.56 31.8599 135.54 31.4099C135.51 29.5899 135.49 27.7799 135.48 25.9699C135.47 23.8899 135.46 21.8099 135.46 19.7499V17.3799C135.46 15.2799 135.46 13.1799 135.48 11.0899L135.49 11.0799Z" fill="#E75755"/>
<path d="M175.361 4.34987C175.941 4.34987 176.401 3.85987 176.351 3.26987C176.301 2.74987 175.821 2.36987 175.291 2.36987H164.711C164.221 2.43987 163.841 2.85987 163.841 3.35987C163.841 3.85987 164.221 4.27987 164.711 4.33987L167.601 4.74987C168.001 4.86987 168.301 5.22987 168.311 5.65987L160.461 24.0099C160.431 24.1099 160.391 24.2099 160.341 24.3199C160.291 24.4299 160.241 24.5399 160.171 24.6399L152.651 5.68987C152.651 5.23987 152.971 4.85987 153.391 4.75987L156.691 4.35987C157.221 4.33987 157.651 3.89987 157.651 3.36987C157.651 2.83987 157.221 2.39987 156.691 2.37987H144.031C143.501 2.37987 143.021 2.74987 142.971 3.27987C142.921 3.86987 143.381 4.35987 143.961 4.35987L146.771 4.70987H146.811C146.871 4.70987 146.931 4.71987 146.991 4.73987C147.301 4.80987 147.551 5.01987 147.671 5.29987L147.831 5.68987L158.051 29.4299C158.051 29.4299 158.051 29.4299 158.051 29.4399C157.631 30.3399 157.211 31.1399 156.771 31.8299C156.341 32.5199 155.861 33.1399 155.351 33.6799H155.331C154.631 32.9399 153.991 32.4399 153.431 32.1699C152.861 31.8999 152.241 31.7599 151.571 31.7599C150.051 31.7599 149.041 32.3699 148.521 33.5999C148.521 34.7699 148.891 35.6599 149.631 36.2899C150.371 36.9199 151.311 37.2399 152.441 37.2399C153.731 37.2399 154.841 36.9099 155.761 36.2499C156.681 35.5899 157.491 34.6999 158.181 33.5899C158.871 32.4799 159.531 31.2299 160.141 29.8399L171.061 5.78987L171.231 5.41987V5.38987C171.361 5.11987 171.611 4.90987 171.901 4.83987L172.101 4.80987C172.101 4.80987 172.121 4.80987 172.131 4.80987L175.381 4.36987L175.361 4.34987Z" fill="#E75755"/>
<path d="M199.88 11.1099C199.89 9.29988 199.92 7.49988 199.94 5.70988C199.97 5.18988 200.39 4.77988 200.91 4.77988L204.4 4.35988C204.98 4.35988 205.44 3.86988 205.39 3.27988C205.34 2.75988 204.86 2.37988 204.33 2.37988H180.58C180.04 2.37988 179.59 2.82988 179.59 3.36988C179.59 3.90988 180.03 4.35988 180.58 4.35988L183.82 4.83988L184.07 4.87988C184.49 4.98988 184.79 5.36988 184.8 5.81988C184.58 9.66988 184.31 13.0799 183.98 16.0299C183.62 19.1899 183.09 22.0699 182.38 24.6499C181.64 27.3899 180.72 29.5399 179.63 31.1199H179.61C179.13 30.7699 178.65 30.4999 178.17 30.3099C177.69 30.1199 177.14 30.0199 176.53 30.0199C175.82 30.0199 175.21 30.1499 174.71 30.4099C174.21 30.6699 173.82 31.1199 173.52 31.7599C173.52 33.0899 173.87 34.0399 174.56 34.6199C175.25 35.1999 176.1 35.4899 177.1 35.4899C178.75 35.4899 180.23 34.6899 181.55 33.0899C182.87 31.4899 184.02 28.8899 184.99 25.2699C185.67 22.7199 186.18 19.8099 186.54 16.5299C186.87 13.4799 187.11 9.86988 187.28 5.71988C187.3 5.21988 187.7 4.81988 188.19 4.78988H194.22C194.72 4.78988 195.12 5.16988 195.18 5.65988C195.23 7.43988 195.26 9.22988 195.26 11.0399V25.9799C195.26 27.8099 195.23 29.6599 195.18 31.4999C195.13 31.9099 194.84 32.2299 194.45 32.3299L190.71 32.7799C190.18 32.8099 189.77 33.2399 189.77 33.7699C189.77 34.2999 190.19 34.7299 190.71 34.7599H204.34C204.87 34.7599 205.35 34.3899 205.4 33.8599C205.45 33.2699 204.99 32.7799 204.41 32.7799L200.69 32.3299C200.27 32.2299 199.96 31.8599 199.95 31.4099C199.92 29.6399 199.9 27.8599 199.89 26.0499C199.88 23.9499 199.87 21.8499 199.87 19.7599V17.3899C199.87 15.2899 199.87 13.1999 199.89 11.1199L199.88 11.1099Z" fill="#E75755"/>
<path d="M235.73 32.3299L225.42 2.11987H222.37L212.06 32.1399L207.99 32.7699V34.7599H219.08V32.7699L214.34 32.1399L217.05 24.2499H228.28L230.94 32.1899L226.2 32.7699V34.7599H239.37V32.7699L235.74 32.3299H235.73ZM217.82 21.9699L221.07 12.3799L222.69 7.58987L222.71 7.53987L227.55 21.9699H217.82Z" fill="#E75755"/>
<path d="M30.6102 12.2298C30.3102 11.7198 29.9502 11.2498 29.5402 10.8098C28.6302 9.80984 27.4602 8.96984 26.0202 8.29984C24.0102 7.36984 21.4502 6.88984 18.3502 6.85984C18.2502 6.85984 18.1502 6.85984 18.0402 6.85984V6.83984C18.0502 6.29984 18.0602 5.76984 18.0702 5.22984C18.0702 4.79984 18.3502 4.44984 18.7302 4.30984C18.7702 4.29984 18.8002 4.27984 18.8302 4.26984L19.0402 4.23984L22.5402 3.81984H22.5502C22.6402 3.81984 22.7202 3.79984 22.8002 3.77984C23.2202 3.66984 23.5402 3.27984 23.5402 2.82984C23.5402 2.37984 23.2302 1.98984 22.8002 1.87984C22.7202 1.85984 22.6302 1.83984 22.5502 1.83984H9.49023C9.41023 1.83984 9.34023 1.84984 9.26023 1.86984C8.82024 1.96984 8.49023 2.35984 8.49023 2.82984C8.49023 3.29984 8.82024 3.68984 9.26023 3.78984C9.33023 3.80984 9.41023 3.81984 9.49023 3.81984H9.50023L12.2402 4.14984L12.9902 4.23984L13.2002 4.26984C13.6402 4.36984 13.9602 4.75984 13.9602 5.22984C13.9602 5.50984 13.9702 5.78984 13.9802 6.06984V6.85984C13.8502 6.85984 13.7302 6.85984 13.6102 6.85984C10.6902 6.89984 8.23023 7.36984 6.24023 8.26984C4.16023 9.21984 2.60023 10.5198 1.56023 12.1798C0.510234 13.8398 -0.00976562 15.7198 -0.00976562 17.8498C-0.00976562 19.8498 0.430234 21.6998 1.32023 23.4198C2.20023 25.1398 3.67023 26.5298 5.71023 27.5898C7.75023 28.6498 10.5102 29.1998 13.9802 29.2298V29.4298C13.9702 30.2298 13.9502 31.0298 13.9302 31.8198C13.8902 32.2398 13.5902 32.5898 13.1802 32.6798L9.12023 33.1298C8.54023 33.1298 8.08023 33.6298 8.13023 34.2098C8.18023 34.7298 8.66023 35.1098 9.19023 35.1098H22.8702C23.3702 35.0598 23.7602 34.6298 23.7602 34.1198C23.7602 33.6098 23.3702 33.1898 22.8702 33.1398L18.7702 32.6798C18.3702 32.5898 18.0702 32.2398 18.0302 31.8198V29.2298C21.5302 29.2298 24.3102 28.6998 26.3502 27.6398C28.3902 26.5798 29.8502 25.1798 30.7402 23.4398C31.4902 21.9598 31.9202 20.3798 32.0402 18.7098C32.0602 18.4198 32.0702 18.1398 32.0702 17.8498C32.0702 15.7598 31.5802 13.8798 30.6002 12.2298H30.6102ZM13.9902 25.5698V26.9698C10.9002 26.9698 8.59023 26.0898 7.04023 24.3398C5.50023 22.5898 4.72023 20.3898 4.72023 17.7498C4.72023 15.1098 5.48024 13.0198 7.01023 11.4598C8.48024 9.95984 10.7002 9.16984 13.6502 9.07984C13.7602 9.07984 13.8602 9.06984 13.9802 9.06984V25.5698H13.9902ZM27.2802 18.3898C27.2202 19.5998 26.9902 20.7098 26.5902 21.7198C26.2102 22.6798 25.6902 23.5598 25.0102 24.3398C23.4802 26.0898 21.1602 26.9698 18.0402 26.9698V9.06984C18.1402 9.06984 18.2302 9.06984 18.3202 9.06984C21.3302 9.11984 23.5702 9.88984 25.0302 11.3998C26.5402 12.9598 27.3002 15.0798 27.3002 17.7398C27.3002 17.9598 27.2902 18.1698 27.2802 18.3798V18.3898Z" fill="#E75755"/>
</g>
<defs>
<linearGradient id="paint0_linear_23_15274" x1="272.949" y1="0.21" x2="272.949" y2="35.88" gradientUnits="userSpaceOnUse">
<stop stop-color="#E96262"/>
<stop offset="1" stop-color="#E43E3A"/>
</linearGradient>
<clipPath id="clip0_23_15274">
<rect width="443.99" height="37.23" fill="white"/>
</clipPath>
</defs>
</svg>
