<svg width="88" height="16" viewBox="0 0 88 16" fill="none" xmlns="http://www.w3.org/2000/svg">
<path d="M87.7071 8.70711C88.0976 8.31658 88.0976 7.68342 87.7071 7.29289L81.3431 0.928932C80.9526 0.538408 80.3195 0.538408 79.9289 0.928932C79.5384 1.31946 79.5384 1.95262 79.9289 2.34315L85.5858 8L79.9289 13.6569C79.5384 14.0474 79.5384 14.6805 79.9289 15.0711C80.3195 15.4616 80.9526 15.4616 81.3431 15.0711L87.7071 8.70711ZM0 9H0.966667V7H0V9ZM4.83333 9H6.76667V7H4.83333V9ZM10.6333 9H12.5667V7H10.6333V9ZM16.4333 9H18.3667V7H16.4333V9ZM22.2333 9H24.1667V7H22.2333V9ZM28.0333 9H29.9667V7H28.0333V9ZM33.8333 9H35.7667V7H33.8333V9ZM39.6333 9H41.5667V7H39.6333V9ZM45.4333 9H47.3667V7H45.4333V9ZM51.2333 9H53.1667V7H51.2333V9ZM57.0333 9H58.9667V7H57.0333V9ZM62.8333 9H64.7667V7H62.8333V9ZM68.6333 9H70.5667V7H68.6333V9ZM74.4333 9H76.3667V7H74.4333V9ZM80.2333 9H82.1667V7H80.2333V9ZM86.0333 9H87V7H86.0333V9Z" fill="#E85755"/>
</svg>
