<svg width="571" height="196" viewBox="0 0 571 196" fill="none" xmlns="http://www.w3.org/2000/svg">
<path d="M147.15 165.66V196.22H0V0H143.24V30.56H36.43V81.58H131.17V111.57H36.43V165.67H147.15V165.66Z" fill="white"/>
<path d="M323.19 196.22L283.1 138.76C281.41 138.93 278.89 139.03 275.53 139.03H231.23V196.22H194.8V0H275.53C292.53 0 307.33 2.81 319.95 8.41C332.57 14.01 342.25 22.05 348.97 32.52C355.69 42.97 359.07 55.41 359.07 69.8C359.07 84.19 355.46 97.27 348.27 107.92C341.08 118.57 330.75 126.51 317.29 131.74L362.43 196.22H323.19ZM310 40.93C301.79 34.19 289.72 30.83 273.84 30.83H231.24V109.05H273.84C289.72 109.05 301.79 105.64 310 98.82C318.24 92 322.34 82.32 322.34 69.8C322.34 57.28 318.23 47.65 310 40.93Z" fill="white"/>
<path d="M531.88 8.41C544.5 14.01 554.18 22.05 560.9 32.52C567.62 42.97 571 55.41 571 69.8C571 84.19 567.62 96.38 560.9 106.93C554.18 117.51 544.5 125.57 531.88 131.19C519.26 136.79 504.46 139.6 487.46 139.6H443.16V196.21H406.73V0H487.46C504.46 0 519.26 2.81 531.88 8.41ZM521.93 98.67C530.17 91.95 534.27 82.32 534.27 69.8C534.27 57.28 530.16 47.65 521.93 40.93C513.72 34.19 501.65 30.83 485.77 30.83H443.17V108.77H485.77C501.65 108.77 513.72 105.39 521.93 98.67Z" fill="white"/>
</svg>
