<svg width="50" height="50" viewBox="0 0 50 50" fill="none" xmlns="http://www.w3.org/2000/svg">
<path d="M44.2645 50L29.4872 34.8128L35.1552 28.9875L49.9325 44.1748L44.2645 50ZM7.01754 50L1.34953 44.1748L19.973 25.0347L15.3846 20.319L13.4953 22.2608L10.054 18.724V24.4105L8.16464 26.3523L0 17.9612L1.88934 16.0194H7.4224L4.04858 12.552L13.6302 2.70458C14.5299 1.77994 15.4971 1.10957 16.5317 0.693484C17.5663 0.277395 18.6235 0.0693511 19.7031 0.0693511C20.7827 0.0693511 21.8398 0.277395 22.8745 0.693484C23.9091 1.10957 24.8763 1.77994 25.776 2.70458L19.5681 9.08461L22.942 12.552L21.0526 14.4938L25.641 19.2094L31.7139 12.9681C31.5339 12.4595 31.3882 11.9279 31.2766 11.3731C31.1651 10.8183 31.1084 10.2635 31.1066 9.70874C31.1066 6.98105 32.018 4.68054 33.8407 2.80721C35.6635 0.933891 37.901 -0.00184655 40.5533 2.73563e-06C41.228 2.73563e-06 41.8695 0.069351 42.4777 0.208047C43.0859 0.346743 43.704 0.554788 44.3319 0.832181L37.6518 7.69764L42.5101 12.6907L49.1902 5.82524C49.5051 6.47249 49.7193 7.10772 49.8326 7.73093C49.946 8.35414 50.0018 9.01341 50 9.70874C50 12.4364 49.0895 14.7369 47.2685 16.6103C45.4476 18.4836 43.2091 19.4193 40.5533 19.4175C40.0135 19.4175 39.4736 19.3712 38.9338 19.2788C38.394 19.1863 37.8767 19.0245 37.3819 18.7933L7.01754 50Z" fill="#1D1D1D"/>
</svg>
