<svg width="50" height="50" viewBox="0 0 50 50" fill="none" xmlns="http://www.w3.org/2000/svg">
<rect width="50" height="50" fill="#C1C1C1"/>
<g id="Desktop (&#208;&#147;&#208;&#187;&#208;&#176;&#208;&#178;&#208;&#189;&#208;&#176;&#209;&#143; &#209;&#129;&#209;&#130;&#209;&#128;&#208;&#176;&#208;&#189;&#208;&#184;&#209;&#134;&#208;&#176;)" clip-path="url(#clip0_0_1)">
<rect width="1920" height="7410" transform="translate(-260 -2836)" fill="#F2F2F2"/>
<g id="&#208;&#159;&#208;&#181;&#209;&#128;&#208;&#181;&#209;&#135;&#208;&#181;&#208;&#189;&#209;&#140; &#209;&#128;&#208;&#176;&#208;&#177;&#208;&#190;&#209;&#130;">
<g id="&#208;&#159;&#208;&#181;&#209;&#128;&#208;&#181;&#209;&#135;&#208;&#181;&#208;&#189;&#209;&#140; &#209;&#128;&#208;&#176;&#208;&#177;&#208;&#190;&#209;&#130;_2">
<g id="Frame 119">
<g id="&#208;&#158;&#208;&#180;&#208;&#184;&#208;&#189;">
<g id="Frame 73">
<g id="&#208;&#152;&#208;&#186;&#208;&#190;&#208;&#189;&#208;&#186;&#208;&#176;">
<path id="Vector" d="M49.554 47.4095L42.2121 40.0775V11.8703L38.7447 5.46239C38.4889 4.97384 38.1052 4.5648 37.6349 4.27944C37.1646 3.99408 36.6257 3.84326 36.0763 3.84326C35.5269 3.84326 34.988 3.99408 34.5177 4.27944C34.0474 4.5648 33.6637 4.97384 33.4079 5.46239L30.1515 11.8855V28.019L2.57798 0.448127C2.36711 0.234484 2.09771 0.0887812 1.80411 0.0295952C1.51052 -0.0295908 1.20603 0.000421312 0.929474 0.115805C0.652918 0.231189 0.416823 0.426717 0.25129 0.67746C0.0857562 0.928203 -0.00171589 1.2228 2.55036e-05 1.52369V13.764H3.27146V16.1878H2.55036e-05V25.883H3.27146V28.3068H2.55036e-05V38.3808H3.27146V40.8046H2.55036e-05V48.4851C2.55036e-05 48.8869 0.158859 49.2722 0.441584 49.5563C0.724309 49.8404 1.10777 50 1.5076 50H48.4837C48.7831 50.0017 49.0763 49.9138 49.3258 49.7475C49.5753 49.5812 49.7699 49.3439 49.8848 49.066C49.9996 48.7881 50.0294 48.4822 49.9705 48.1871C49.9116 47.8921 49.7666 47.6214 49.554 47.4095ZM12.0606 38.0021V24.2772L25.7343 38.0021H12.0606ZM39.197 41.1985H33.1667V37.5173H39.197V41.1985ZM39.197 35.139H33.1667V12.6278L36.0914 6.91668L39.197 12.6429V35.139Z" fill="#1D1D1D"/>
</g>
</g>
</g>
</g>
</g>
</g>
</g>
<defs>
<clipPath id="clip0_0_1">
<rect width="1920" height="7410" fill="white" transform="translate(-260 -2836)"/>
</clipPath>
</defs>
</svg>
