<svg width="20" height="14" viewBox="0 0 20 14" fill="none" xmlns="http://www.w3.org/2000/svg">
<g id="a" clip-path="url(#clip0_36_367)">
<path id="Vector" d="M18.3998 2.3002H1.5998C1.1598 2.3002 0.799805 1.9402 0.799805 1.5002C0.799805 1.0602 1.1598 0.700195 1.5998 0.700195H18.3998C18.8398 0.700195 19.1998 1.0602 19.1998 1.5002C19.1998 1.9402 18.8398 2.3002 18.3998 2.3002ZM19.1998 7.1002C19.1998 6.6602 18.8398 6.3002 18.3998 6.3002H1.5998C1.1598 6.3002 0.799805 6.6602 0.799805 7.1002C0.799805 7.5402 1.1598 7.9002 1.5998 7.9002H18.3998C18.8398 7.9002 19.1998 7.5402 19.1998 7.1002ZM19.1998 12.7002C19.1998 12.2602 18.8398 11.9002 18.3998 11.9002H1.5998C1.1598 11.9002 0.799805 12.2602 0.799805 12.7002C0.799805 13.1402 1.1598 13.5002 1.5998 13.5002H18.3998C18.8398 13.5002 19.1998 13.1402 19.1998 12.7002Z" fill="white"/>
</g>
<defs>
<clipPath id="clip0_36_367">
<rect width="18.4" height="12.8" fill="white" transform="translate(0.799805 0.700195)"/>
</clipPath>
</defs>
</svg>
