<svg width="15" height="15" viewBox="0 0 15 15" fill="none" xmlns="http://www.w3.org/2000/svg">
<g clip-path="url(#clip0_41_8465)">
<path d="M8.74694 7.48423L14.7203 1.51978C15.0669 1.17311 15.0669 0.613114 14.7203 0.266448C14.3736 -0.0802192 13.8136 -0.0802192 13.4669 0.266448L7.4936 6.23978L1.52027 0.257559C1.1736 -0.0891081 0.604714 -0.0891081 0.258047 0.257559C-0.0886198 0.604225 -0.0886198 1.17311 0.258047 1.51978L6.23138 7.49311L0.258047 13.4576C-0.0886198 13.8042 -0.0886198 14.3642 0.258047 14.7109C0.604714 15.0576 1.16471 15.0576 1.51138 14.7109L7.48471 8.73756L13.458 14.7109C13.8047 15.0576 14.3647 15.0576 14.7114 14.7109C15.058 14.3642 15.058 13.8042 14.7114 13.4576L8.73805 7.48423H8.74694Z" fill="white"/>
</g>
<defs>
<clipPath id="clip0_41_8465">
<rect width="14.9778" height="14.9778" fill="white"/>
</clipPath>
</defs>
</svg>
