<svg width="119" height="118" viewBox="0 0 119 118" fill="none" xmlns="http://www.w3.org/2000/svg">
<g clip-path="url(#clip0_5_4850)">
<g opacity="0.7">
<path d="M118.666 58.9961C118.677 66.0871 117.404 73.1214 114.909 79.7591L113.034 79.0541C115.444 72.6418 116.674 65.8463 116.664 58.9961C116.664 52.3741 115.537 45.8861 113.318 39.7101L115.204 39.0331C117.503 45.4373 118.674 52.1916 118.666 58.9961ZM60.4969 15.4631H109.295V96.7101H60.4969C56.0709 96.7101 52.6869 97.8561 50.4389 100.114C47.6009 102.967 47.5239 106.719 47.5219 106.924V106.951L46.9519 106.943L45.5189 106.951V106.923C45.5169 106.72 45.4389 102.967 42.6009 100.114C40.3529 97.8561 36.9689 96.7101 32.5429 96.7101H16.9869C18.5036 98.4248 20.1212 100.048 21.8309 101.57H34.0409V103.573H24.2149C33.9549 111.335 46.2739 115.991 59.6679 115.991C69.7079 115.991 79.5779 113.345 88.2129 108.339L89.2189 110.072C80.2789 115.255 70.0599 117.994 59.6679 117.994C27.1359 117.994 0.669922 91.5281 0.669922 58.9961C0.669922 26.4641 27.1359 -0.00292969 59.6679 -0.00292969C71.4909 -0.00292969 82.8979 3.48107 92.6549 10.0741L91.5349 11.7341C82.1079 5.36607 71.0879 2.00007 59.6669 2.00007C45.6819 2.00007 32.8639 7.07307 22.9359 15.4631H32.5429C37.7989 15.4631 41.7879 16.8631 44.4019 19.6261C45.2905 20.5687 46.0073 21.6594 46.5199 22.8491C47.0336 21.6595 47.7511 20.5688 48.6399 19.6261C51.2519 16.8641 55.2419 15.4631 60.4969 15.4631ZM45.5189 27.6961C45.5135 27.5641 45.5125 27.4321 45.5159 27.3001C45.4789 26.2541 45.1659 23.3331 42.9259 20.9821C40.7059 18.6491 37.2119 17.4661 32.5429 17.4661H20.6919C16.9948 20.9338 13.7735 24.8761 11.1119 29.1901H34.0399V31.1941H9.93992C8.39201 33.9476 7.07677 36.8256 6.00792 39.7981H34.0399V41.8001H5.32892C4.43613 44.6113 3.76475 47.4881 3.32092 50.4041H34.0409V52.4071H3.06592C2.80841 54.5937 2.6772 56.7933 2.67292 58.9951C2.67292 59.6711 2.70092 60.3411 2.72392 61.0121H34.0409V63.0151H2.82992C3.03189 65.9113 3.45581 68.7877 4.09792 71.6191H34.0399V73.6221H4.58392C5.36957 76.5682 6.39223 79.4459 7.64192 82.2271H34.0409V84.2301H8.58192C10.4307 87.9555 12.6807 91.468 15.2919 94.7051H32.5429C37.5369 94.7051 41.4079 96.0581 44.0459 98.7251C44.6299 99.3151 45.1149 99.9331 45.5189 100.553V27.6961ZM107.292 17.4661H60.4969C55.8279 17.4661 52.3359 18.6491 50.1139 20.9811C47.8419 23.3681 47.5539 26.3351 47.5239 27.3111C47.5279 27.5331 47.5239 27.6761 47.5209 27.7271L47.5219 100.553C47.9259 99.9331 48.4119 99.3161 48.9939 98.7271C51.6319 96.0591 55.5029 94.7071 60.4969 94.7071H107.292V17.4661ZM58.3759 82.2281H95.8129V84.2311H58.3759V82.2281ZM58.6219 48.5331H96.1919V74.2471H58.6219V48.5331ZM60.6249 72.2431H94.1879V50.5371H60.6249V72.2431ZM58.3749 101.57H104.673V103.573H58.3759L58.3749 101.57ZM58.3749 29.1901H95.8129V31.1941H58.3759L58.3749 29.1901ZM95.8139 41.8001H58.3759V39.7981H95.8129L95.8139 41.8001Z" fill="white"/>
</g>
</g>
<defs>
<clipPath id="clip0_5_4850">
<rect width="118" height="118" fill="white" transform="translate(0.669922)"/>
</clipPath>
</defs>
</svg>
