<svg width="17" height="16" viewBox="0 0 17 16" fill="none" xmlns="http://www.w3.org/2000/svg">
<path fill-rule="evenodd" clip-rule="evenodd" d="M0.17041 8C0.17041 3.58172 3.77248 0 8.21587 0C12.6571 0.00514317 16.2561 3.58385 16.2613 8C16.2613 12.4183 12.6592 16 8.21587 16C3.77248 16 0.17041 12.4183 0.17041 8ZM8.27123 11.6593L12.8605 5.46663C13.0156 5.27568 13.0527 5.01541 12.957 4.78914C12.8612 4.56287 12.6482 4.40722 12.4024 4.38398C12.1567 4.36075 11.918 4.47369 11.7811 4.67796L7.60614 10.312L4.87336 8.13796C4.58417 7.90784 4.16213 7.9544 3.93071 8.24196C3.69928 8.52952 3.74611 8.94917 4.0353 9.17929L7.31248 11.7846C7.45574 11.896 7.63799 11.9454 7.81828 11.9219C7.99857 11.8983 8.16178 11.8037 8.27123 11.6593Z" fill="#FA4616"/>
</svg>
