<svg width="118" height="117" viewBox="0 0 118 117" fill="none" xmlns="http://www.w3.org/2000/svg">
<g clip-path="url(#clip0_5_4838)">
<g opacity="0.7">
<path d="M82.23 23.5V34.67H67.25V40.16H70.582V50.768L59.752 60.765V68.656H57.746V60.765L46.916 50.768V40.16H50.248V34.668H7.77405C4.29378 42.125 2.49468 50.2558 2.50405 58.485C2.50405 64.284 3.38205 69.881 5.01305 75.151H93.077V91.321H77.08V104.663C95.984 97.236 108.587 78.861 108.587 58.485C108.587 31.14 86.341 8.89299 58.995 8.89299C45.836 8.89299 33.168 14.189 23.883 23.498H82.229M13.052 91.321C23.31 105.634 40.082 114.976 58.995 114.976C64.579 114.976 69.978 114.162 75.075 112.646V91.32L13.052 91.321ZM115.486 58.486C115.486 27.336 90.146 1.99599 58.995 1.99599C41.046 1.99499 25.027 10.408 14.672 23.499H21.102C30.862 12.937 44.649 6.88899 58.995 6.88899C87.445 6.88899 110.593 30.035 110.593 58.486C110.593 79.949 97.1561 99.279 77.08 106.814V112.008C99.388 104.451 115.486 83.313 115.486 58.486ZM50.248 32.663V25.505H13.156C11.515 27.7787 10.0453 30.1713 8.75905 32.663H50.248ZM65.245 25.505H52.255V40.161H65.245V25.505ZM80.223 32.663V25.505H67.251V32.663H80.223ZM58.749 58.961L68.576 49.889V42.167H48.922V49.889L58.749 58.961ZM47.795 62.95L54.877 70.031L53.458 71.45L46.376 64.368L47.795 62.95ZM70.538 62.95L71.955 64.368L65.29 71.033L63.871 69.614L70.538 62.95ZM11.739 89.315H91.071V77.158H5.67505C7.19141 81.4727 9.22774 85.5867 11.739 89.409V89.315ZM58.75 34.33C59.575 34.33 60.247 33.659 60.247 32.833C60.247 32.5369 60.1592 32.2475 59.9948 32.0013C59.8303 31.7551 59.5965 31.5632 59.3229 31.4499C59.0494 31.3366 58.7484 31.307 58.458 31.3648C58.1676 31.4225 57.9009 31.5651 57.6915 31.7745C57.4821 31.9838 57.3396 32.2505 57.2818 32.5409C57.224 32.8313 57.2537 33.1323 57.367 33.4059C57.4803 33.6794 57.6722 33.9132 57.9184 34.0777C58.1645 34.2422 58.454 34.33 58.75 34.33ZM58.75 29.331C59.6787 29.3318 60.5691 29.701 61.2258 30.3575C61.8825 31.0141 62.252 31.9044 62.253 32.833C62.252 33.7617 61.8826 34.6521 61.2259 35.3088C60.5692 35.9655 59.6788 36.3349 58.75 36.336C57.8214 36.3349 56.9311 35.9655 56.2746 35.3088C55.618 34.652 55.2488 33.7616 55.248 32.833C55.2491 31.9045 55.6184 31.0144 56.2749 30.3579C56.9314 29.7013 57.8216 29.332 58.75 29.331C58.75 29.331 56.818 29.331 58.75 29.331ZM58.995 -0.0100098C91.25 -0.0100098 117.492 26.232 117.492 58.487C117.492 90.742 91.25 116.984 58.995 116.984C26.74 116.984 0.498047 90.742 0.498047 58.487C0.498047 26.231 26.74 -0.0100098 58.995 -0.0100098ZM84.168 64.27L85.016 66.089L73.203 71.602L72.354 69.784L84.168 64.27ZM33.822 64.27L45.636 69.784L44.788 71.602L32.974 66.089L33.822 64.27Z" fill="white"/>
</g>
</g>
<defs>
<clipPath id="clip0_5_4838">
<rect width="117" height="117" fill="white" transform="translate(0.5)"/>
</clipPath>
</defs>
</svg>
