<svg width="36" height="18" viewBox="0 0 36 18" fill="none" xmlns="http://www.w3.org/2000/svg">
<path opacity="0.5" d="M17.875 5.20703C20.0898 5.20703 21.918 7.03516 21.918 9.25C21.918 11.5 20.0898 13.293 17.875 13.293C15.625 13.293 13.832 11.5 13.832 9.25C13.832 7.03516 15.625 5.20703 17.875 5.20703ZM17.875 11.8867C19.3164 11.8867 20.4766 10.7266 20.4766 9.25C20.4766 7.80859 19.3164 6.64844 17.875 6.64844C16.3984 6.64844 15.2383 7.80859 15.2383 9.25C15.2383 10.7266 16.4336 11.8867 17.875 11.8867ZM23.0078 5.06641C23.0078 5.59375 22.5859 6.01562 22.0586 6.01562C21.5312 6.01562 21.1094 5.59375 21.1094 5.06641C21.1094 4.53906 21.5312 4.11719 22.0586 4.11719C22.5859 4.11719 23.0078 4.53906 23.0078 5.06641ZM25.6797 6.01562C25.75 7.31641 25.75 11.2188 25.6797 12.5195C25.6094 13.7852 25.3281 14.875 24.4141 15.8242C23.5 16.7383 22.375 17.0195 21.1094 17.0898C19.8086 17.1602 15.9062 17.1602 14.6055 17.0898C13.3398 17.0195 12.25 16.7383 11.3008 15.8242C10.3867 14.875 10.1055 13.7852 10.0352 12.5195C9.96484 11.2188 9.96484 7.31641 10.0352 6.01562C10.1055 4.75 10.3867 3.625 11.3008 2.71094C12.25 1.79688 13.3398 1.51562 14.6055 1.44531C15.9062 1.375 19.8086 1.375 21.1094 1.44531C22.375 1.51562 23.5 1.79688 24.4141 2.71094C25.3281 3.625 25.6094 4.75 25.6797 6.01562ZM23.9922 13.8906C24.4141 12.8711 24.3086 10.4102 24.3086 9.25C24.3086 8.125 24.4141 5.66406 23.9922 4.60938C23.7109 3.94141 23.1836 3.37891 22.5156 3.13281C21.4609 2.71094 19 2.81641 17.875 2.81641C16.7148 2.81641 14.2539 2.71094 13.2344 3.13281C12.5312 3.41406 12.0039 3.94141 11.7227 4.60938C11.3008 5.66406 11.4062 8.125 11.4062 9.25C11.4062 10.4102 11.3008 12.8711 11.7227 13.8906C12.0039 14.5938 12.5312 15.1211 13.2344 15.4023C14.2539 15.8242 16.7148 15.7188 17.875 15.7188C19 15.7188 21.4609 15.8242 22.5156 15.4023C23.1836 15.1211 23.7461 14.5938 23.9922 13.8906Z" fill="#5B6770"/>
</svg>
