<svg width="128" height="31" viewBox="0 0 128 31" fill="none" xmlns="http://www.w3.org/2000/svg">
<path d="M19.6473 25.15C19.6473 25.5353 19.4207 25.7733 18.9673 25.864C18.6953 25.932 18.3327 25.9887 17.8793 26.034C17.426 26.0793 16.9387 26.1247 16.4173 26.17C15.9187 26.2153 15.4087 26.2493 14.8873 26.272C14.366 26.2947 13.8787 26.306 13.4253 26.306C12.3373 26.306 11.2833 26.2153 10.2633 26.034C9.266 25.8527 8.382 25.5013 7.61133 24.98C6.86333 24.4587 6.26266 23.722 5.80933 22.77C5.356 21.7953 5.12933 20.5373 5.12933 18.996V1.418C5.12933 1.23667 5.19733 1.078 5.33333 0.941998C5.46933 0.805999 5.628 0.737999 5.80933 0.737999H10.2633C10.4447 0.737999 10.6033 0.805999 10.7393 0.941998C10.8753 1.078 10.9433 1.23667 10.9433 1.418V18.996C10.9433 19.88 11.102 20.492 11.4193 20.832C11.7593 21.1493 12.326 21.308 13.1193 21.308H18.9673C19.1487 21.308 19.3073 21.376 19.4433 21.512C19.5793 21.648 19.6473 21.8067 19.6473 21.988V25.15ZM38.6114 17.16C38.6114 17.704 38.3734 17.976 37.8974 17.976H27.0514V18.044C27.0514 18.52 27.108 18.9847 27.2214 19.438C27.3347 19.8913 27.5274 20.288 27.7994 20.628C28.0714 20.968 28.4227 21.24 28.8534 21.444C29.3067 21.648 29.8734 21.75 30.5534 21.75C31.0974 21.75 31.6754 21.7387 32.2874 21.716C32.8994 21.6933 33.5 21.6707 34.0894 21.648C34.7014 21.6253 35.268 21.6027 35.7894 21.58C36.3107 21.5347 36.7414 21.4893 37.0814 21.444H37.1834C37.614 21.444 37.8294 21.6253 37.8294 21.988V24.572C37.8294 24.844 37.784 25.048 37.6934 25.184C37.6027 25.32 37.41 25.422 37.1154 25.49C36.0274 25.762 34.962 25.966 33.9194 26.102C32.8767 26.238 31.6187 26.306 30.1454 26.306C29.1254 26.306 28.1054 26.1587 27.0854 25.864C26.0654 25.5693 25.1474 25.082 24.3314 24.402C23.5154 23.722 22.858 22.8267 22.3594 21.716C21.8607 20.5827 21.6114 19.2 21.6114 17.568V15.188C21.6114 13.828 21.804 12.5927 22.1894 11.482C22.5747 10.3713 23.13 9.43067 23.8554 8.66C24.6034 7.88933 25.51 7.3 26.5754 6.892C27.6407 6.46133 28.8534 6.246 30.2134 6.246C31.596 6.246 32.8087 6.47267 33.8514 6.926C34.9167 7.37933 35.8007 8.00267 36.5034 8.796C37.206 9.58933 37.7274 10.53 38.0674 11.618C38.43 12.706 38.6114 13.896 38.6114 15.188V17.16ZM33.2394 14.44C33.2394 13.1707 32.9674 12.23 32.4234 11.618C31.8794 10.9833 31.1314 10.666 30.1794 10.666C29.2274 10.666 28.468 10.9833 27.9014 11.618C27.3347 12.2527 27.0514 13.1933 27.0514 14.44V14.576H33.2394V14.44ZM65.5 25.524C65.5 25.7053 65.432 25.83 65.296 25.898C65.1827 25.966 65.058 26 64.922 26H60.434C60.2754 26 60.1394 25.932 60.026 25.796C59.9354 25.66 59.89 25.5013 59.89 25.32V11.142C59.89 10.9607 59.8334 10.87 59.72 10.87C59.6294 10.87 59.5387 10.9493 59.448 11.108L56.388 16.718C56.1614 17.1033 55.8214 17.296 55.368 17.296H52.648C52.1947 17.296 51.8547 17.1033 51.628 16.718L48.568 11.108C48.4774 10.9493 48.3867 10.87 48.296 10.87C48.1827 10.87 48.126 10.9607 48.126 11.142V25.32C48.126 25.5013 48.0694 25.66 47.956 25.796C47.8654 25.932 47.7407 26 47.582 26H43.094C42.958 26 42.822 25.966 42.686 25.898C42.5727 25.83 42.516 25.7053 42.516 25.524V1.894C42.516 1.53133 42.6294 1.248 42.856 1.044C43.0827 0.839999 43.3774 0.737999 43.74 0.737999H46.936C47.616 0.737999 48.1147 1.044 48.432 1.656L53.634 11.346C53.77 11.6407 53.8947 11.788 54.008 11.788C54.0987 11.788 54.2234 11.6407 54.382 11.346L59.584 1.656C59.9014 1.044 60.4 0.737999 61.08 0.737999H64.276C64.6387 0.737999 64.9334 0.851332 65.16 1.078C65.3867 1.282 65.5 1.56533 65.5 1.928V25.524ZM84.9619 25.32C84.9619 25.5013 84.8939 25.66 84.7579 25.796C84.6219 25.932 84.4632 26 84.2819 26H80.4739C80.2925 26 80.1339 25.932 79.9979 25.796C79.8619 25.66 79.7939 25.5013 79.7939 25.32V24.776C79.1365 25.252 78.4339 25.626 77.6859 25.898C76.9605 26.17 76.0879 26.306 75.0679 26.306C74.3199 26.306 73.5945 26.204 72.8919 26C72.2119 25.8187 71.5999 25.5013 71.0559 25.048C70.5119 24.5947 70.0699 23.994 69.7299 23.246C69.4125 22.498 69.2539 21.5687 69.2539 20.458V20.152C69.2539 18.1573 69.9112 16.7067 71.2259 15.8C72.5632 14.8707 74.6939 14.406 77.6179 14.406H79.4539V13.182C79.4539 12.2073 79.2272 11.5727 78.7739 11.278C78.3205 10.9833 77.6972 10.836 76.9039 10.836C76.3599 10.836 75.8045 10.8473 75.2379 10.87C74.6939 10.87 74.1612 10.8813 73.6399 10.904C73.1412 10.9267 72.6879 10.9607 72.2799 11.006C71.8719 11.0287 71.5319 11.0513 71.2599 11.074H71.0899C70.9085 11.074 70.7612 11.0287 70.6479 10.938C70.5345 10.8473 70.4779 10.6887 70.4779 10.462V7.708C70.4779 7.32267 70.6932 7.07333 71.1239 6.96C71.7585 6.80133 72.6085 6.64267 73.6739 6.484C74.7619 6.32533 75.8725 6.246 77.0059 6.246C78.2299 6.246 79.3292 6.382 80.3039 6.654C81.3012 6.90333 82.1399 7.31133 82.8199 7.878C83.4999 8.422 84.0212 9.136 84.3839 10.02C84.7692 10.8813 84.9619 11.9353 84.9619 13.182V25.32ZM79.5559 17.67H77.6179C77.0285 17.67 76.5412 17.7267 76.1559 17.84C75.7705 17.9307 75.4645 18.078 75.2379 18.282C75.0112 18.486 74.8525 18.7467 74.7619 19.064C74.6712 19.3813 74.6259 19.744 74.6259 20.152V20.458C74.6259 21.1833 74.7959 21.648 75.1359 21.852C75.4985 22.056 76.0425 22.158 76.7679 22.158C77.2892 22.158 77.7765 22.09 78.2299 21.954C78.7059 21.7953 79.1479 21.614 79.5559 21.41V17.67ZM105.754 25.286C105.754 25.4673 105.674 25.6373 105.516 25.796C105.38 25.932 105.221 26 105.04 26H100.926C100.744 26 100.586 25.932 100.45 25.796C100.314 25.6373 100.246 25.4673 100.246 25.286V13.964C100.246 13.3747 100.212 12.876 100.144 12.468C100.076 12.06 99.951 11.7313 99.7697 11.482C99.5883 11.2327 99.3277 11.0627 98.9877 10.972C98.6703 10.8587 98.251 10.802 97.7297 10.802C97.231 10.802 96.721 10.904 96.1997 11.108C95.6783 11.312 95.123 11.5727 94.5337 11.89V25.286C94.5337 25.4673 94.4657 25.6373 94.3297 25.796C94.1937 25.932 94.035 26 93.8537 26H89.7397C89.5583 26 89.3883 25.932 89.2297 25.796C89.0937 25.6373 89.0257 25.4673 89.0257 25.286V7.198C89.0257 7.01667 89.0937 6.858 89.2297 6.722C89.3657 6.586 89.5243 6.518 89.7057 6.518H93.5137C93.695 6.518 93.8537 6.586 93.9897 6.722C94.1257 6.858 94.1937 7.01667 94.1937 7.198V8.014C95.123 7.35667 96.007 6.90333 96.8457 6.654C97.6843 6.382 98.6477 6.246 99.7357 6.246C100.96 6.246 101.957 6.45 102.728 6.858C103.521 7.266 104.133 7.82133 104.564 8.524C105.017 9.204 105.323 10.02 105.482 10.972C105.663 11.9013 105.754 12.8987 105.754 13.964V25.286ZM123.478 20.594C123.478 21.3873 123.331 22.1353 123.036 22.838C122.741 23.5407 122.288 24.1527 121.676 24.674C121.087 25.1727 120.339 25.5693 119.432 25.864C118.525 26.1587 117.449 26.306 116.202 26.306C115.726 26.306 115.216 26.2833 114.672 26.238C114.151 26.2153 113.607 26.17 113.04 26.102C112.496 26.034 111.963 25.9547 111.442 25.864C110.921 25.7733 110.445 25.6713 110.014 25.558C109.583 25.4447 109.368 25.184 109.368 24.776V22.022C109.368 21.8407 109.425 21.6933 109.538 21.58C109.651 21.444 109.81 21.376 110.014 21.376H110.15C110.603 21.444 111.102 21.512 111.646 21.58C112.213 21.6253 112.768 21.6707 113.312 21.716C113.856 21.7613 114.355 21.7953 114.808 21.818C115.284 21.8407 115.658 21.852 115.93 21.852C116.746 21.852 117.279 21.75 117.528 21.546C117.8 21.3193 117.936 20.9793 117.936 20.526C117.936 20.2767 117.845 20.05 117.664 19.846C117.483 19.6193 117.154 19.37 116.678 19.098L112.258 16.548C111.306 16.004 110.558 15.3127 110.014 14.474C109.493 13.6127 109.232 12.6267 109.232 11.516C109.232 9.79333 109.799 8.49 110.932 7.606C112.088 6.69933 113.845 6.246 116.202 6.246C117.539 6.246 118.661 6.32533 119.568 6.484C120.497 6.62 121.393 6.80133 122.254 7.028C122.685 7.14133 122.9 7.402 122.9 7.81V10.564C122.9 10.9947 122.707 11.21 122.322 11.21H122.22C121.971 11.1873 121.619 11.1533 121.166 11.108C120.713 11.04 120.214 10.9833 119.67 10.938C119.149 10.8927 118.605 10.8587 118.038 10.836C117.494 10.7907 117.007 10.768 116.576 10.768C115.919 10.768 115.454 10.836 115.182 10.972C114.91 11.108 114.774 11.3687 114.774 11.754C114.774 12.0033 114.865 12.2187 115.046 12.4C115.227 12.5587 115.488 12.74 115.828 12.944L120.044 15.358C120.747 15.766 121.313 16.1853 121.744 16.616C122.197 17.024 122.549 17.4547 122.798 17.908C123.07 18.3387 123.251 18.7807 123.342 19.234C123.433 19.6873 123.478 20.1407 123.478 20.594Z" fill="#FA4616"/>
</svg>
