<svg width="124" height="28" viewBox="0 0 124 28" fill="none" xmlns="http://www.w3.org/2000/svg">
<g clip-path="url(#clip0_1_4508)">
<path d="M5.00109 -0.000122098C5.07316 -0.0105874 5.14667 -0.00408751 5.21578 0.0188602C5.28489 0.0418078 5.34769 0.0805698 5.39918 0.132061C5.45067 0.183553 5.48943 0.246352 5.51238 0.315462C5.53533 0.384572 5.54183 0.458084 5.53136 0.530148V22.4792H17.0933C17.1654 22.4687 17.2389 22.4752 17.308 22.4981C17.3771 22.5211 17.4399 22.5599 17.4914 22.6114C17.5429 22.6628 17.5817 22.7256 17.6046 22.7948C17.6276 22.8639 17.6341 22.9374 17.6236 23.0094V26.7837C17.6341 26.8558 17.6276 26.9293 17.6046 26.9984C17.5817 27.0675 17.5429 27.1303 17.4914 27.1818C17.4399 27.2333 17.3771 27.2721 17.308 27.295C17.2389 27.3179 17.1654 27.3244 17.0933 27.314H0.53019C0.176676 27.314 -8.03797e-05 27.1372 -8.03797e-05 26.7525V0.56134C-0.0162275 0.487002 -0.0140055 0.409848 0.00639317 0.336562C0.0267918 0.263277 0.0647518 0.19607 0.116984 0.140765C0.169217 0.0854599 0.234147 0.0437246 0.306148 0.0191749C0.378149 -0.00537483 0.455051 -0.0119984 0.53019 -0.000122098H5.00109ZM36.1207 17.1973V18.289C36.1207 18.996 35.9127 19.2352 34.9977 19.2352H23.9141C23.9868 22.4064 24.829 22.9678 27.8963 22.9678H34.1348C34.2068 22.9574 34.2803 22.9639 34.3494 22.9868C34.4185 23.0098 34.4813 23.0485 34.5328 23.1C34.5843 23.1515 34.6231 23.2143 34.646 23.2834C34.669 23.3525 34.6755 23.4261 34.665 23.4981V26.4198C34.6756 26.4898 34.6708 26.5613 34.651 26.6292C34.6312 26.6972 34.5969 26.76 34.5504 26.8134C34.5039 26.8668 34.4464 26.9095 34.3818 26.9385C34.3172 26.9675 34.2471 26.9821 34.1763 26.9813C31.9541 27.3534 29.7019 27.517 27.4492 27.4699C20.3269 27.4699 18.601 25.4632 18.601 17.426C18.601 9.38878 20.3269 7.38207 27.4492 7.38207C34.3947 7.40286 36.0895 9.35758 36.1207 17.1973ZM23.9141 15.8248H30.8804C30.8804 12.7056 30.0382 11.9154 27.4596 11.9154C24.881 11.9154 23.9141 12.716 23.9141 15.8248Z" fill="#FA4616"/>
<path d="M65.8469 0.0002068C66.2004 0.0002068 66.2732 0.249746 66.3044 0.561669L68.8414 26.7424C68.8414 27.1272 68.6646 27.3039 68.3111 27.3039H63.8402C63.4867 27.3039 63.3515 27.1272 63.3099 26.7424L61.7503 9.8362L55.4079 25.9418C55.3601 26.099 55.2619 26.236 55.1285 26.3318C54.9951 26.4277 54.8339 26.477 54.6697 26.4721H51.3217C51.1598 26.4676 51.0029 26.4146 50.8713 26.3201C50.7397 26.2256 50.6395 26.0939 50.5835 25.9418L44.2722 9.8362L42.723 26.7424C42.723 27.1272 42.5462 27.3039 42.1927 27.3039H37.7218C37.3683 27.3039 37.1604 27.1272 37.1916 26.7424L39.7285 0.603259C39.7285 0.249746 39.8325 0.0417966 40.186 0.0417966H44.449C44.8952 -0.0269891 45.3509 0.0765676 45.7236 0.331453C46.0962 0.586338 46.358 0.973459 46.4557 1.41426L53.0269 18.5701L59.5773 1.41426C59.6611 0.965368 59.9163 0.566724 60.2889 0.302775C60.6616 0.0388263 61.1223 -0.0696925 61.5736 0.0002068H65.8469ZM86.9746 13.4649V25.6507C87.0111 25.8982 86.9502 26.1502 86.8048 26.3538C86.6594 26.5574 86.4407 26.6967 86.1947 26.7424C83.5624 27.2655 80.8827 27.5129 78.1991 27.4807C72.9172 27.4807 70.1307 26.9192 70.0579 21.3878C70.1307 16.6361 72.5949 15.5964 77.2841 15.5964H81.755V14.3383C81.755 12.6435 80.7153 11.9053 78.4382 11.9053H72.075C71.6903 11.9053 71.5863 11.8013 71.5863 11.375V8.49492C71.5863 8.06863 71.7319 8.00624 72.075 7.93346C74.1767 7.54584 76.3118 7.36821 78.4486 7.40319C85.4253 7.40319 86.9746 9.65944 86.9746 13.4649ZM77.7104 18.9963C75.8805 18.9963 75.2462 19.5994 75.2462 21.0758C75.2462 22.7706 76.026 23.2281 78.2407 23.2281C79.4213 23.2344 80.5993 23.1159 81.755 22.8746V18.9963H77.7104ZM106.938 15.8563V26.7424C106.948 26.8186 106.941 26.8961 106.916 26.9689C106.891 27.0417 106.85 27.1079 106.796 27.1622C106.742 27.2166 106.675 27.2576 106.603 27.2822C106.53 27.3068 106.452 27.3142 106.376 27.3039H102.217C101.864 27.3039 101.687 27.1272 101.687 26.7424V17.1976C101.687 12.1548 101.157 11.9157 97.9127 11.9157H94.7102V26.7424C94.7102 27.1272 94.5335 27.3039 94.18 27.3039H90.021C89.6675 27.3039 89.4907 27.1272 89.4907 26.7424V8.52612C89.4907 8.09982 89.6675 8.06863 90.021 7.99585C92.8021 7.52222 95.6227 7.32026 98.4429 7.39279C105.18 7.40319 106.938 8.67168 106.938 15.8563ZM122.555 7.86068C122.981 7.96465 123.116 8.11022 123.116 8.42214V11.1047C123.116 11.4894 122.971 11.6661 122.513 11.6661H116.171C114.798 11.6661 114.091 12.0509 114.091 12.9346V13.2881C114.091 13.9536 114.517 14.4527 115.786 14.9102L120.298 16.501C123.293 17.5407 124 19.3915 124 21.7829V22.3443C124 26.4305 120.974 27.4911 116.493 27.4911C114.062 27.4963 111.633 27.3783 109.215 27.1376C108.757 27.1376 108.612 26.992 108.612 26.6073V23.748C108.612 23.3633 108.788 23.2177 109.215 23.2177H116.451C118.323 23.2177 118.884 22.9682 118.884 22.022V21.7101C118.884 21.0446 118.5 20.5872 116.95 20.0569L112.615 18.5077C111.492 18.1622 110.523 17.4419 109.868 16.4672C109.213 15.4925 108.913 14.3226 109.017 13.153V12.4771C109.017 8.70287 111.939 7.40319 117.013 7.40319C118.87 7.40266 120.723 7.55568 122.555 7.86068Z" fill="#5B6770"/>
</g>
<defs>
<clipPath id="clip0_1_4508">
<rect width="124" height="27.4909" fill="white"/>
</clipPath>
</defs>
</svg>
