<svg width="14" height="21" viewBox="0 0 14 21" fill="none" xmlns="http://www.w3.org/2000/svg">
<g clip-path="url(#clip0_1_4514)">
<g clip-path="url(#clip1_1_4514)">
<g opacity="0.5">
<path d="M13.4737 7.25786C13.4737 12.2158 7.00005 19.8894 7.00005 19.8894C7.00005 19.8894 0.526367 12.2158 0.526367 7.25786C0.526367 5.54094 1.20841 3.89433 2.42247 2.68028C3.63652 1.46623 5.28312 0.78418 7.00005 0.78418C8.71698 0.78418 10.3636 1.46623 11.5776 2.68028C12.7917 3.89433 13.4737 5.54094 13.4737 7.25786Z" stroke="#5B6770" stroke-width="1.05263" stroke-miterlimit="10"/>
<path d="M7.00015 11.1316C9.13953 11.1316 10.8738 9.39734 10.8738 7.25796C10.8738 5.11859 9.13953 3.38428 7.00015 3.38428C4.86077 3.38428 3.12646 5.11859 3.12646 7.25796C3.12646 9.39734 4.86077 11.1316 7.00015 11.1316Z" stroke="#5B6770" stroke-width="1.05263" stroke-miterlimit="10"/>
</g>
</g>
</g>
<defs>
<clipPath id="clip0_1_4514">
<rect width="14" height="21" fill="white"/>
</clipPath>
<clipPath id="clip1_1_4514">
<rect width="14" height="21" fill="white"/>
</clipPath>
</defs>
</svg>
