<svg width="117" height="116" viewBox="0 0 117 116" fill="none" xmlns="http://www.w3.org/2000/svg">
<g clip-path="url(#clip0_5_4825)">
<g opacity="0.7">
<path d="M49.8641 51.006C49.8641 55.606 53.6012 59.348 58.1951 59.348C62.7881 59.348 66.5251 55.606 66.5251 51.006V47.704C65.9352 47.367 64.8591 46.807 63.8101 46.544C63.5101 46.468 63.1071 46.444 62.6441 46.444C62.2011 46.444 61.7041 46.466 61.1941 46.49C60.5971 46.517 59.9741 46.545 59.3411 46.545C58.1911 46.545 57.0151 46.452 55.9271 46.088C54.7371 45.691 53.9771 45.193 53.4921 44.712C53.3921 44.859 53.3021 45.008 53.2291 45.152C52.7801 46.05 51.1311 46.869 49.8641 47.387V51.006ZM66.5251 41.229C66.5251 35.814 66.2201 33.494 63.1921 33.149C63.0727 33.5336 62.8768 33.89 62.6161 34.197C61.7661 35.202 60.2771 35.71 58.1951 35.71C54.0481 35.71 49.8641 37.685 49.8641 42.097V45.2L49.8761 45.194C49.9411 45.163 50.2341 45.024 49.8761 45.194C50.6711 44.818 51.3081 44.44 51.4591 44.23C51.9361 43.272 52.8321 42.362 52.9321 42.26L55.1791 40.01L54.6381 42.962C54.6551 42.967 54.8881 43.633 56.5581 44.192C57.3921 44.47 58.3721 44.545 59.3561 44.545C59.9461 44.545 60.5391 44.518 61.1031 44.492C61.6491 44.468 62.1621 44.444 62.6391 44.444C63.2531 44.444 63.8071 44.483 64.2951 44.604C65.0911 44.804 65.8781 45.13 66.5251 45.444V41.229ZM62.3171 31.104C68.5221 31.104 68.5221 36.251 68.5221 41.229V51.006C68.5221 53.634 67.5381 56.036 65.9201 57.863V59.377L71.7391 53.657C71.4463 52.8039 71.2973 51.908 71.2981 51.006C71.2981 46.501 74.9581 42.836 79.4561 42.836C80.3071 42.836 81.1511 42.97 81.9661 43.233L83.5731 43.754L77.1041 49.854L77.8102 52.476L80.4711 53.187L86.8441 47.177L87.2941 48.755C87.5071 49.5 87.6152 50.255 87.6152 51.006C87.6152 55.511 83.9551 59.176 79.4561 59.176C78.4469 59.1763 77.4465 58.9885 76.5061 58.622L70.1292 65.275L75.8372 68.61C76.0702 68.746 81.5401 72.007 81.5401 77.73V86.756C89.9521 79.956 95.3401 69.551 95.3401 57.908C95.3401 37.472 78.7391 20.845 58.3321 20.845C37.9251 20.845 21.3221 37.472 21.3221 57.908C21.3221 69.22 26.4121 79.366 34.4161 86.17V77.73C34.4161 71.983 40.3291 68.73 40.5801 68.594L45.9801 65.439L39.6961 59.153C38.8063 59.4566 37.8724 59.611 36.9321 59.61C32.1951 59.61 28.3411 55.75 28.3411 51.006C28.3411 46.261 32.1951 42.402 36.9321 42.402C41.6711 42.402 45.5251 46.261 45.5251 51.006C45.5265 52.1266 45.308 53.2365 44.8821 54.273L50.2991 59.63V57.666C48.7257 55.8038 47.8636 53.4439 47.8661 51.006V42.097C47.8661 36.304 53.0541 33.71 58.1951 33.71C59.5941 33.71 60.6151 33.435 61.0681 32.931C61.3571 32.611 61.3321 32.277 61.3281 32.24L61.2141 31.138L62.3171 31.104ZM79.5431 77.73C79.5431 73.167 74.8771 70.363 74.8291 70.336L72.9691 69.249L70.7291 78.468H73.7291V91.608C75.7643 90.6711 77.7103 89.5515 79.5431 88.263V77.73ZM71.7321 80.468H70.2431L69.7951 82.312C69.7451 82.541 69.2132 84.752 67.5201 85.762C66.9889 86.0783 66.3814 86.2436 65.7631 86.24C65.4021 86.24 65.0271 86.187 64.6471 86.079C63.6271 85.786 62.8481 85.174 62.3911 84.306C61.6621 82.924 61.9201 81.263 62.1111 80.468H53.8451C54.0291 81.218 54.3031 82.905 53.5651 84.306C53.1071 85.174 52.3281 85.786 51.3091 86.077C50.9291 86.187 50.5551 86.24 50.1911 86.24C49.5651 86.24 48.9711 86.081 48.4361 85.762C46.7441 84.752 46.2101 82.541 46.1561 82.292L45.7121 80.468H44.6571V92.348C49.007 94.0843 53.6485 94.9739 58.3321 94.969C63.0551 94.969 67.5751 94.079 71.7321 92.456V80.468ZM42.6601 78.468H45.2261L43.0391 69.472L41.5591 70.337C41.4791 70.381 36.4131 73.188 36.4131 77.73V87.753C38.3682 89.1973 40.4606 90.4456 42.6601 91.48V78.468ZM72.6731 55.54L65.9201 62.18V62.817L68.3551 64.24L74.6881 57.632C73.8978 57.0604 73.2155 56.3527 72.6731 55.542V55.54ZM41.5981 58.228L47.7641 64.396L50.2991 62.916V62.442L43.8671 56.081C43.247 56.9281 42.4782 57.6556 41.5981 58.228ZM49.9531 65.433L53.3191 78.468H62.6381L66.0581 65.212L64.5651 64.339C63.3161 65.277 61.0451 66.562 57.9791 66.562C55.3001 66.562 53.1291 65.308 51.8411 64.329L49.9531 65.433ZM63.9231 59.608C62.2293 60.7447 60.235 61.3505 58.1951 61.348C56.0042 61.348 53.9701 60.661 52.2961 59.492V62.102C53.0271 62.781 55.2111 64.562 57.9791 64.562C61.0681 64.562 63.2061 62.92 63.9221 62.28L63.9231 59.608ZM48.1001 81.838C48.2051 82.302 48.6491 83.566 49.4631 84.047C49.6851 84.178 49.9221 84.243 50.1861 84.243C50.3641 84.243 50.5541 84.214 50.7601 84.155C51.2601 84.011 51.5901 83.765 51.7941 83.378C52.2601 82.501 51.9721 81.111 51.8221 80.65L48.1601 66.48L44.8391 68.42L48.1001 81.838ZM49.7641 64.7L48.1271 65.124L49.7641 64.7ZM64.1501 80.587C63.9821 81.111 63.6941 82.501 64.1581 83.377C64.3641 83.764 64.6931 84.011 65.1941 84.155C65.3991 84.214 65.5891 84.244 65.7661 84.244C66.0321 84.244 66.2721 84.177 66.4961 84.044C67.3131 83.556 67.7581 82.271 67.8491 81.857L71.1681 68.197L67.8491 66.259L64.1501 80.587ZM66.1901 64.699L66.0581 65.212L66.1901 64.699ZM52.0321 61.845L50.5601 63.195L52.0321 61.845ZM36.9321 57.61C40.5691 57.61 43.5281 54.647 43.5281 51.006C43.5281 47.364 40.5691 44.402 36.9321 44.402C33.2971 44.402 30.3381 47.364 30.3381 51.006C30.3381 54.646 33.2971 57.61 36.9321 57.61ZM35.8241 54.054L39.1421 53.232L40.0901 49.945L37.7201 47.479L34.4041 48.301L33.4561 51.588L35.8241 54.054ZM38.3601 45.259L42.3281 49.389L40.7401 54.896L35.1841 56.272L31.2161 52.143L32.8051 46.635L38.3601 45.259ZM79.4561 57.175C82.8291 57.175 85.5771 54.449 85.6181 51.081L81.0322 55.407L76.1821 54.112L74.8661 49.218L79.5111 44.836H79.4561C76.0591 44.836 73.2951 47.604 73.2951 51.006C73.2951 54.408 76.0591 57.175 79.4561 57.175ZM58.3321 18.845C79.8401 18.845 97.3372 36.368 97.3372 57.908C97.3372 79.446 79.8401 96.969 58.3321 96.969C36.8221 96.969 19.3261 79.446 19.3261 57.908C19.3261 36.368 36.8231 18.845 58.3321 18.845ZM59.8021 12.134L58.8161 12.114C58.5916 12.1069 58.3669 12.1035 58.1421 12.104C57.4471 12.104 56.7321 12.135 55.9721 12.176L55.2791 12.213L50.9801 2.311C47.6319 2.75347 44.3309 3.50022 41.1181 4.542L41.2141 15.474L40.6011 15.735C39.7981 16.077 38.9411 16.478 37.9841 16.961L37.3681 17.271L29.3671 9.927C26.4505 11.6965 23.7002 13.7268 21.1501 15.993L25.6971 25.986L25.2371 26.474C24.618 27.13 24.0177 27.8036 23.4371 28.494L22.9991 29.016L12.6241 25.54C10.647 28.3341 8.92889 31.3027 7.49115 34.409L15.7151 41.695L15.4851 42.334C15.1841 43.1756 14.9083 44.026 14.6581 44.884L14.4681 45.532L3.47815 46.592C2.79196 49.9315 2.41106 53.3265 2.34015 56.735L12.8451 60.052L12.8881 60.738C12.9441 61.631 13.0321 62.562 13.1481 63.505L13.2321 64.169L3.56015 69.65C4.26641 72.9513 5.27018 76.1818 6.55915 79.302L17.4891 78.055L17.8051 78.67C18.3121 79.658 18.7891 80.524 19.2651 81.317L19.6081 81.891L13.0151 90.813C14.9733 93.5091 17.1651 96.0275 19.5651 98.339L28.9871 92.779L29.5271 93.222C30.3271 93.879 31.1981 94.539 32.1931 95.24L32.7351 95.624L30.3351 106.465C33.167 108.107 36.1378 109.497 39.2131 110.618L45.5551 101.713L46.2291 101.9C47.4311 102.233 48.6431 102.518 49.8311 102.745L50.4881 102.871L52.6881 113.704C54.6141 113.899 56.5081 113.999 58.3321 113.999C59.5871 113.999 60.9011 113.947 62.3281 113.841L64.4961 103.176L65.1881 103.073C66.4742 102.882 67.7681 102.63 69.1411 102.299L69.7962 102.143L76.1591 111.076C79.1719 110.058 82.0922 108.785 84.8881 107.27L82.5451 96.69L83.1321 96.313C84.3263 95.5429 85.4842 94.718 86.6021 93.841L87.1381 93.421L96.4881 98.936C98.7987 96.7768 100.925 94.4287 102.845 91.916L96.4321 83.238L96.8071 82.657C97.6005 81.4304 98.3344 80.1663 99.0061 78.869L99.3231 78.259L110.027 79.48C111.244 76.5614 112.211 73.5449 112.919 70.463L103.542 65.15L103.64 64.472C103.851 63.0385 103.993 61.5959 104.067 60.149L104.101 59.454L114.304 56.232C114.211 53.047 113.848 49.8756 113.219 46.752L102.494 45.719L102.307 45.067C101.92 43.7339 101.472 42.4192 100.964 41.127L100.708 40.476L108.698 33.397C107.285 30.4948 105.625 27.7195 103.736 25.102L93.5031 28.53L93.0661 28.02C92.2268 27.043 91.3474 26.1012 90.4301 25.197L89.9321 24.707L94.3481 15C91.8396 12.8852 89.1518 10.9928 86.3151 9.344L78.3401 16.662L77.7361 16.379C76.6725 15.8821 75.5904 15.4258 74.4921 15.011L73.8391 14.766L73.9321 4.036C70.7338 3.10815 67.4587 2.46925 64.1461 2.127L59.8021 12.134ZM62.8921 0L63.6101 0.065C67.5503 0.421904 71.4434 1.18256 75.2281 2.335L75.9411 2.553L75.8471 13.391C76.5541 13.669 77.2631 13.969 77.9711 14.288L86.0361 6.888L86.6671 7.243C90.0689 9.16155 93.2699 11.4161 96.2221 13.973L96.7881 14.463L92.3261 24.265C92.9474 24.896 93.5513 25.544 94.1371 26.208L104.479 22.742L104.912 23.325C107.206 26.4193 109.187 29.7336 110.827 33.219L111.147 33.897L103.075 41.049C103.422 41.975 103.741 42.915 104.029 43.856L114.869 44.901L115.023 45.615C115.824 49.3396 116.258 53.1338 116.318 56.943L116.33 57.689L106.022 60.943C105.953 61.9918 105.849 63.038 105.711 64.08L115.186 69.448L115.03 70.167C114.233 73.8676 113.074 77.481 111.57 80.955L111.275 81.634L100.458 80.399C99.9548 81.3354 99.4212 82.2552 98.8581 83.157L105.334 91.923L104.892 92.518C102.634 95.5546 100.089 98.366 97.2901 100.913L96.7471 101.407L87.2931 95.832C86.4801 96.451 85.6441 97.048 84.7962 97.612L87.1621 108.298L86.5121 108.66C83.1932 110.516 79.6989 112.039 76.0801 113.208L75.3841 113.432L68.9481 104.399C68.0081 104.612 67.0781 104.794 66.1761 104.944L63.9861 115.714L63.2421 115.776C61.4651 115.927 59.8591 116 58.3321 116C56.2061 116 53.9901 115.87 51.7431 115.615L51.0231 115.532L48.7971 104.58C47.9839 104.412 47.1753 104.222 46.3721 104.01L39.9661 113.005L39.2601 112.759C35.5798 111.472 32.0388 109.817 28.6911 107.819L28.0721 107.449L30.4991 96.488C29.9247 96.0752 29.3602 95.6487 28.8061 95.209L19.2871 100.824L18.7411 100.314C15.8541 97.6067 13.2485 94.6141 10.9641 91.382L10.5461 90.792L17.2131 81.77C16.915 81.2521 16.6267 80.7287 16.3481 80.2L5.30615 81.458L5.01215 80.776C3.43346 77.0962 2.24139 73.2622 1.45515 69.336L1.31215 68.626L11.0901 63.086C11.0328 62.5749 10.9845 62.0628 10.9451 61.55L0.327148 58.197L0.333148 57.459C0.363148 53.427 0.815149 49.387 1.67815 45.453L1.83415 44.741L12.9371 43.671C13.0851 43.191 13.2311 42.737 13.3801 42.298L5.06515 34.93L5.36515 34.26C7.01846 30.5609 9.0535 27.0445 11.4371 23.768L11.8671 23.177L22.3491 26.688C22.6571 26.33 22.9821 25.968 23.3261 25.594L18.7281 15.49L19.2651 15C22.2484 12.2788 25.5058 9.87424 28.9851 7.825L29.6231 7.449L37.7051 14.866C38.2013 14.6223 38.7017 14.3872 39.2061 14.161L39.1101 3.106L39.7951 2.874C43.5878 1.58989 47.5039 0.704774 51.4801 0.233L52.2171 0.147L56.5581 10.146C57.1085 10.1212 57.6593 10.1072 58.2101 10.104C58.3101 10.104 58.4081 10.104 58.5031 10.106L62.8921 0Z" fill="white"/>
</g>
</g>
<defs>
<clipPath id="clip0_5_4825">
<rect width="116" height="116" fill="white" transform="translate(0.330078)"/>
</clipPath>
</defs>
</svg>
