<svg width="41" height="18" viewBox="0 0 41 18" fill="none" xmlns="http://www.w3.org/2000/svg">
<path opacity="0.5" d="M29.5508 4.64453C29.9727 6.12109 29.9727 9.28516 29.9727 9.28516C29.9727 9.28516 29.9727 12.4141 29.5508 13.9258C29.3398 14.7695 28.6719 15.4023 27.8633 15.6133C26.3516 16 20.375 16 20.375 16C20.375 16 14.3633 16 12.8516 15.6133C12.043 15.4023 11.375 14.7695 11.1641 13.9258C10.7422 12.4141 10.7422 9.28516 10.7422 9.28516C10.7422 9.28516 10.7422 6.12109 11.1641 4.64453C11.375 3.80078 12.043 3.13281 12.8516 2.92188C14.3633 2.5 20.375 2.5 20.375 2.5C20.375 2.5 26.3516 2.5 27.8633 2.92188C28.6719 3.13281 29.3398 3.80078 29.5508 4.64453ZM18.4062 12.1328L23.3984 9.28516L18.4062 6.4375V12.1328Z" fill="#5B6770"/>
</svg>
