<svg width="33" height="9" viewBox="0 0 33 9" fill="none" xmlns="http://www.w3.org/2000/svg">
<path fill-rule="evenodd" clip-rule="evenodd" d="M3.71959 0.193152C4.00262 0.191428 4.84375 0.114268 5.20004 1.33901C5.44004 2.16401 5.82234 3.5154 6.34696 5.39317H6.56061C7.12321 3.41349 7.50969 2.0621 7.72004 1.33901C8.08004 0.10151 8.98004 0.193177 9.34004 0.193177L12.1175 0.19318V8.99316H9.28664V3.80718H9.0968L7.51872 8.99316H5.38884L3.81076 3.80334H3.62093V8.99316H0.790039V0.19318L3.71959 0.193152ZM16.1826 0.19318V5.38302H16.4085L18.3281 1.11545C18.7007 0.266193 19.4949 0.19318 19.4949 0.19318H22.2343V8.99318H19.3443V3.80334H19.1185L17.2365 8.07091C16.8639 8.91632 16.0321 8.99318 16.0321 8.99318H13.2926V0.19318H16.1826ZM32.2235 4.375C31.8204 5.53852 30.5544 6.3718 29.1528 6.3718H26.122V8.99318H23.3738V4.375H32.2235Z" fill="#0F754E"/>
<path fill-rule="evenodd" clip-rule="evenodd" d="M29.2851 0.193115H23.2295C23.3736 2.15229 25.0301 3.82948 26.745 3.82948H32.4143C32.7414 2.20117 31.6152 0.193115 29.2851 0.193115Z" fill="url(#paint0_linear_2062_6142)"/>
<defs>
<linearGradient id="paint0_linear_2062_6142" x1="32.4699" y1="2.48054" x2="23.2295" y2="2.48054" gradientUnits="userSpaceOnUse">
<stop stop-color="#1F5CD7"/>
<stop offset="1" stop-color="#02AEFF"/>
</linearGradient>
</defs>
</svg>
