<svg width="33" height="12" viewBox="0 0 33 12" fill="none" xmlns="http://www.w3.org/2000/svg">
<path fill-rule="evenodd" clip-rule="evenodd" d="M12.4402 1.14893L8.35489 10.871L5.60823 10.8744L3.28222 2.73115L3.09375 2.1176L3.1093 2.12631L3.13484 2.14079L3.10977 2.12742L3.10947 2.12643C3.12167 2.13316 3.13368 2.14001 3.14583 2.14678C3.5643 2.37364 5.42211 3.45767 6.57081 5.21381C6.74569 6.10695 6.91313 6.91825 7.14953 7.79334L9.69096 1.14893H12.4402L12.4402 1.14893Z" fill="#006CB5"/>
<path fill-rule="evenodd" clip-rule="evenodd" d="M23.4915 7.69693C23.4723 9.72071 21.7031 11.0274 18.9756 11.0274C17.813 11.0146 16.6918 10.7806 16.083 10.5075L16.4476 8.32695L16.7829 8.48395C17.6369 8.84757 18.1875 8.99346 19.2267 8.99346C19.9733 8.99346 20.7715 8.69395 20.7772 8.04001C20.7805 7.61325 20.4419 7.31034 19.4319 6.83324C18.4485 6.36631 17.1448 5.58632 17.1614 4.18652C17.1739 2.29266 18.9824 0.972412 21.5463 0.972412C22.5504 0.972412 23.3546 1.18242 23.87 1.38202L23.5182 3.49264L23.2829 3.37918C22.8074 3.18296 22.1918 2.99259 21.3411 3.00611C20.3277 3.00611 19.8556 3.4399 19.8556 3.84611C19.8522 4.29924 20.4062 4.60311 21.312 5.05286C22.8107 5.74672 23.5047 6.59009 23.4914 7.69693H23.4915Z" fill="#006CB5"/>
<path fill-rule="evenodd" clip-rule="evenodd" d="M30.526 1.14893H28.5224C27.9004 1.14893 27.4341 1.32217 27.1639 1.95891L23.3096 10.8838H26.0328C26.0328 10.8838 26.479 9.68381 26.5808 9.42009C26.8769 9.42009 29.5259 9.42689 29.9037 9.42689C29.9789 9.76752 30.2165 10.8838 30.2165 10.8838H32.6246L30.526 1.14893V1.14893ZM27.3263 7.42974C27.7926 6.21786 28.2602 4.99734 28.7043 3.77606C28.9597 4.99468 29.2208 6.21195 29.48 7.42974H27.3263H27.3263Z" fill="#006CB5"/>
<path fill-rule="evenodd" clip-rule="evenodd" d="M13.4896 1.13892H16.0835L14.4604 10.8806H11.8672L13.4896 1.13892Z" fill="#006CB5"/>
<path fill-rule="evenodd" clip-rule="evenodd" d="M0.375003 1.05298L4.76407 1.05613C5.30525 1.07572 5.74148 1.25231 5.89494 1.84553L6.57072 5.21391C5.42203 3.45776 3.56422 2.37374 3.14574 2.14688C3.13359 2.14011 3.12159 2.13326 3.10939 2.12653L3.10968 2.12752L3.13475 2.14089L3.10921 2.12641C3.03926 2.08715 2.96853 2.0485 2.89714 2.01062C2.13051 1.60355 1.28265 1.27712 0.375 1.05298L0.375003 1.05298Z" fill="#FAA841"/>
</svg>
