<svg width="29" height="19" viewBox="0 0 29 19" fill="none" xmlns="http://www.w3.org/2000/svg">
<path d="M28.7736 9.5001C28.7736 14.2126 24.9674 18.0642 20.2096 18.0642C15.4971 18.0642 11.6455 14.2126 11.6455 9.5001C11.6455 4.7876 15.4518 0.936035 20.1643 0.936035C24.9674 0.936035 28.7736 4.7876 28.7736 9.5001Z" fill="#FFB600"/>
<path d="M20.2096 0.936035C24.9221 0.936035 28.7736 4.7876 28.7736 9.5001C28.7736 14.2126 24.9674 18.0642 20.2096 18.0642C15.4971 18.0642 11.6455 14.2126 11.6455 9.5001" fill="#F7981D"/>
<path d="M20.209 0.936035C24.9215 0.936035 28.773 4.7876 28.773 9.5001C28.773 14.2126 24.9668 18.0642 20.209 18.0642" fill="#FF8500"/>
<path d="M8.7 0.936035C4.03281 0.981348 0.226562 4.7876 0.226562 9.5001C0.226562 14.2126 4.03281 18.0642 8.79062 18.0642C11.0109 18.0642 13.0047 17.2032 14.5453 15.8438C14.8625 15.572 15.1344 15.2548 15.4062 14.9376H13.6391C13.4125 14.6657 13.1859 14.3485 13.0047 14.0767H16.0406C16.2219 13.8048 16.4031 13.4876 16.5391 13.1704H12.5062C12.3703 12.8985 12.2344 12.5813 12.1437 12.2642H16.8562C17.1281 11.4032 17.3094 10.497 17.3094 9.54541C17.3094 8.91103 17.2187 8.32197 17.1281 7.73291H11.8719C11.9172 7.41572 12.0078 7.14385 12.0984 6.82666H16.8109C16.7203 6.50947 16.5844 6.19229 16.4484 5.92041H12.4609C12.5969 5.60322 12.7781 5.33135 12.9594 5.01416H15.9953C15.8141 4.69697 15.5875 4.37979 15.3156 4.10791H13.6391C13.9109 3.79072 14.1828 3.51885 14.5 3.24697C13.0047 1.84229 10.9656 1.02666 8.74531 1.02666C8.74531 0.936035 8.74531 0.936035 8.7 0.936035Z" fill="#FF5050"/>
<path d="M0.226562 9.50005C0.226562 14.2125 4.03281 18.0641 8.79062 18.0641C11.0109 18.0641 13.0047 17.2032 14.5453 15.8438C14.8625 15.5719 15.1344 15.2547 15.4062 14.9375H13.6391C13.4125 14.6657 13.1859 14.3485 13.0047 14.0766H16.0406C16.2219 13.8047 16.4031 13.4875 16.5391 13.1704H12.5062C12.3703 12.8985 12.2344 12.5813 12.1437 12.2641H16.8562C17.1281 11.4032 17.3094 10.4969 17.3094 9.54536C17.3094 8.91099 17.2187 8.32192 17.1281 7.73286H11.8719C11.9172 7.41567 12.0078 7.1438 12.0984 6.82661H16.8109C16.7203 6.50942 16.5844 6.19224 16.4484 5.92036H12.4609C12.5969 5.60317 12.7781 5.3313 12.9594 5.01411H15.9953C15.8141 4.69692 15.5875 4.37974 15.3156 4.10786H13.6391C13.9109 3.79067 14.1828 3.5188 14.5 3.24692C13.0047 1.84224 10.9656 1.02661 8.74531 1.02661H8.7" fill="#E52836"/>
<path d="M8.79082 18.0641C11.0111 18.0641 13.0049 17.2032 14.5455 15.8438C14.8627 15.5719 15.1346 15.2547 15.4064 14.9375H13.6393C13.4127 14.6657 13.1861 14.3485 13.0049 14.0766H16.0408C16.2221 13.8047 16.4033 13.4875 16.5393 13.1704H12.5064C12.3705 12.8985 12.2346 12.5813 12.1439 12.2641H16.8564C17.1283 11.4032 17.3096 10.4969 17.3096 9.54536C17.3096 8.91099 17.2189 8.32192 17.1283 7.73286H11.8721C11.9174 7.41567 12.008 7.1438 12.0986 6.82661H16.8111C16.7205 6.50942 16.5846 6.19224 16.4486 5.92036H12.4611C12.5971 5.60317 12.7783 5.3313 12.9596 5.01411H15.9955C15.8143 4.69692 15.5877 4.37974 15.3158 4.10786H13.6393C13.9111 3.79067 14.183 3.5188 14.5002 3.24692C13.0049 1.84224 10.9658 1.02661 8.74551 1.02661H8.7002" fill="#CB2026"/>
<path d="M11.8268 11.675L11.9627 10.9047C11.9174 10.9047 11.8268 10.95 11.7361 10.95C11.4189 10.95 11.3736 10.7687 11.4189 10.6781L11.6908 9.09219H12.1893L12.3252 8.23125H11.8721L11.9627 7.6875H11.0564C11.0564 7.6875 10.5127 10.6781 10.5127 11.0406C10.5127 11.5844 10.8299 11.8109 11.2377 11.8109C11.5096 11.8109 11.7361 11.7203 11.8268 11.675Z" fill="white"/>
<path d="M12.1436 10.2252C12.1436 11.494 13.0045 11.8112 13.7295 11.8112C14.4092 11.8112 14.6811 11.6752 14.6811 11.6752L14.8623 10.8143C14.8623 10.8143 14.3639 11.0408 13.9107 11.0408C12.9139 11.0408 13.0951 10.3158 13.0951 10.3158H14.9529C14.9529 10.3158 15.0889 9.72678 15.0889 9.50022C15.0889 8.91115 14.7717 8.18615 13.7748 8.18615C12.8232 8.09553 12.1436 9.0924 12.1436 10.2252ZM13.7295 8.91115C14.2279 8.91115 14.1373 9.50022 14.1373 9.54553H13.1404C13.1404 9.50022 13.2311 8.91115 13.7295 8.91115Z" fill="white"/>
<path d="M19.4844 11.6751L19.6656 10.6782C19.6656 10.6782 19.2125 10.9048 18.8953 10.9048C18.2609 10.9048 17.9891 10.4063 17.9891 9.8626C17.9891 8.7751 18.5328 8.18604 19.1672 8.18604C19.6203 8.18604 19.9828 8.45791 19.9828 8.45791L20.1188 7.50635C20.1188 7.50635 19.575 7.27979 19.0766 7.27979C18.0344 7.27979 16.9922 8.18604 16.9922 9.90791C16.9922 11.0407 17.5359 11.811 18.6234 11.811C18.9859 11.811 19.4844 11.6751 19.4844 11.6751Z" fill="white"/>
<path d="M6.84199 8.09546C6.20762 8.09546 5.75449 8.27671 5.75449 8.27671L5.61855 9.04702C5.61855 9.04702 6.02637 8.86577 6.61543 8.86577C6.93262 8.86577 7.20449 8.91108 7.20449 9.18296C7.20449 9.36421 7.15918 9.40952 7.15918 9.40952C7.15918 9.40952 6.8873 9.40952 6.75137 9.40952C5.98105 9.40952 5.12012 9.72671 5.12012 10.7689C5.12012 11.5845 5.66387 11.7658 5.98105 11.7658C6.61543 11.7658 6.8873 11.358 6.93262 11.358L6.8873 11.7205H7.70293L8.06543 9.22827C8.06543 8.14077 7.15918 8.09546 6.84199 8.09546ZM7.02324 10.1345C7.02324 10.2705 6.93262 10.9955 6.38887 10.9955C6.11699 10.9955 6.02637 10.7689 6.02637 10.633C6.02637 10.4064 6.1623 10.0892 6.84199 10.0892C6.97793 10.1345 7.02324 10.1345 7.02324 10.1345Z" fill="white"/>
<path d="M8.92598 11.7657C9.15254 11.7657 10.2854 11.811 10.2854 10.5875C10.2854 9.45474 9.19785 9.6813 9.19785 9.22817C9.19785 9.00161 9.3791 8.91099 9.69629 8.91099C9.83223 8.91099 10.3307 8.9563 10.3307 8.9563L10.4666 8.14067C10.4666 8.14067 10.1494 8.05005 9.60566 8.05005C8.92598 8.05005 8.24629 8.32192 8.24629 9.22817C8.24629 10.2704 9.3791 10.1797 9.3791 10.5875C9.3791 10.8594 9.06191 10.9047 8.83535 10.9047C8.42754 10.9047 8.01973 10.7688 8.01973 10.7688L7.88379 11.5844C7.9291 11.675 8.15566 11.7657 8.92598 11.7657Z" fill="white"/>
<path d="M27.0057 7.37036L26.8244 8.5938C26.8244 8.5938 26.4619 8.14067 25.9635 8.14067C25.1479 8.14067 24.4229 9.13755 24.4229 10.3157C24.4229 11.0407 24.7854 11.811 25.5557 11.811C26.0994 11.811 26.4166 11.4485 26.4166 11.4485L26.3713 11.7657H27.2775L27.9572 7.41567L27.0057 7.37036ZM26.5979 9.77192C26.5979 10.2704 26.3713 10.9047 25.8729 10.9047C25.5557 10.9047 25.3744 10.6329 25.3744 10.1797C25.3744 9.45474 25.6916 9.00161 26.0994 9.00161C26.4166 9.00161 26.5979 9.22817 26.5979 9.77192Z" fill="white"/>
<path d="M1.90293 11.7204L2.44668 8.45786L2.5373 11.7204H3.17168L4.3498 8.45786L3.85137 11.7204H4.80293L5.52793 7.37036H4.03262L3.12637 10.0438L3.08105 7.37036H1.76699L1.04199 11.7204H1.90293Z" fill="white"/>
<path d="M15.95 11.7204C16.2219 10.2251 16.2672 9.00166 16.9016 9.22822C16.9922 8.63916 17.1281 8.4126 17.2188 8.18604C17.2188 8.18604 17.1734 8.18604 17.0375 8.18604C16.6297 8.18604 16.3125 8.72978 16.3125 8.72978L16.4031 8.23135H15.5422L14.9531 11.7657H15.95V11.7204Z" fill="white"/>
<path d="M21.5686 8.09546C20.9342 8.09546 20.4811 8.27671 20.4811 8.27671L20.3451 9.04702C20.3451 9.04702 20.7529 8.86577 21.342 8.86577C21.6592 8.86577 21.9311 8.91108 21.9311 9.18296C21.9311 9.36421 21.8857 9.40952 21.8857 9.40952C21.8857 9.40952 21.6139 9.40952 21.4779 9.40952C20.7076 9.40952 19.8467 9.72671 19.8467 10.7689C19.8467 11.5845 20.3904 11.7658 20.7076 11.7658C21.342 11.7658 21.6139 11.358 21.6592 11.358L21.6139 11.7205H22.4295L22.792 9.22827C22.8373 8.14077 21.8857 8.09546 21.5686 8.09546ZM21.7951 10.1345C21.7951 10.2705 21.7045 10.9955 21.1607 10.9955C20.8889 10.9955 20.7982 10.7689 20.7982 10.633C20.7982 10.4064 20.9342 10.0892 21.6139 10.0892C21.7498 10.1345 21.7498 10.1345 21.7951 10.1345Z" fill="white"/>
<path d="M23.5623 11.7204C23.8342 10.2251 23.8795 9.00166 24.5139 9.22822C24.6045 8.63916 24.7404 8.4126 24.8311 8.18604C24.8311 8.18604 24.7857 8.18604 24.6498 8.18604C24.242 8.18604 23.9248 8.72978 23.9248 8.72978L24.0154 8.23135H23.1545L22.5654 11.7657H23.5623V11.7204Z" fill="white"/>
<path d="M10.4219 11.0406C10.4219 11.5844 10.7391 11.8109 11.1469 11.8109C11.4641 11.8109 11.7359 11.7203 11.8266 11.675L11.9625 10.9047C11.9172 10.9047 11.8266 10.95 11.7359 10.95C11.4187 10.95 11.3734 10.7687 11.4188 10.6781L11.6906 9.09219H12.1891L12.325 8.23125H11.8719L11.9625 7.6875" fill="#DCE5E5"/>
<path d="M12.5967 10.2252C12.5967 11.494 13.0045 11.8112 13.7295 11.8112C14.4092 11.8112 14.6811 11.6752 14.6811 11.6752L14.8623 10.8143C14.8623 10.8143 14.3639 11.0408 13.9107 11.0408C12.9139 11.0408 13.0951 10.3158 13.0951 10.3158H14.9529C14.9529 10.3158 15.0889 9.72678 15.0889 9.50022C15.0889 8.91115 14.7717 8.18615 13.7748 8.18615C12.8232 8.09553 12.5967 9.0924 12.5967 10.2252ZM13.7295 8.91115C14.2279 8.91115 14.3186 9.50022 14.3186 9.54553H13.1404C13.1404 9.50022 13.2311 8.91115 13.7295 8.91115Z" fill="#DCE5E5"/>
<path d="M19.4844 11.6751L19.6656 10.6782C19.6656 10.6782 19.2125 10.9048 18.8953 10.9048C18.2609 10.9048 17.9891 10.4063 17.9891 9.8626C17.9891 8.7751 18.5328 8.18604 19.1672 8.18604C19.6203 8.18604 19.9828 8.45791 19.9828 8.45791L20.1188 7.50635C20.1188 7.50635 19.575 7.27979 19.0766 7.27979C18.0344 7.27979 17.4453 8.18604 17.4453 9.90791C17.4453 11.0407 17.5359 11.811 18.6234 11.811C18.9859 11.811 19.4844 11.6751 19.4844 11.6751Z" fill="#DCE5E5"/>
<path d="M5.61855 9.09229C5.61855 9.09229 6.02637 8.91104 6.61543 8.91104C6.93262 8.91104 7.20449 8.95635 7.20449 9.22822C7.20449 9.40947 7.15918 9.45478 7.15918 9.45478C7.15918 9.45478 6.8873 9.45478 6.75137 9.45478C5.98105 9.45478 5.12012 9.77197 5.12012 10.8142C5.12012 11.6298 5.66387 11.811 5.98105 11.811C6.61543 11.811 6.8873 11.4032 6.93262 11.4032L6.8873 11.7657H7.70293L8.06543 9.27354C8.06543 8.23135 7.15918 8.18604 6.79668 8.18604M7.47637 10.1345C7.47637 10.2704 6.93262 10.9954 6.38887 10.9954C6.11699 10.9954 6.02637 10.7688 6.02637 10.6329C6.02637 10.4063 6.1623 10.0892 6.84199 10.0892C6.97793 10.1345 7.47637 10.1345 7.47637 10.1345Z" fill="#DCE5E5"/>
<path d="M7.92969 11.675C7.92969 11.675 8.20156 11.7657 8.97187 11.7657C9.19844 11.7657 10.3312 11.811 10.3312 10.5875C10.3312 9.45474 9.24375 9.6813 9.24375 9.22817C9.24375 9.00161 9.425 8.91099 9.74219 8.91099C9.87812 8.91099 10.3766 8.9563 10.3766 8.9563L10.5125 8.14067C10.5125 8.14067 10.1953 8.05005 9.65156 8.05005C8.97187 8.05005 8.74531 8.32192 8.74531 9.22817C8.74531 10.2704 9.425 10.1797 9.425 10.5875C9.425 10.8594 9.10781 10.9047 8.88125 10.9047" fill="#DCE5E5"/>
<path d="M26.8248 8.5939C26.8248 8.5939 26.4623 8.14077 25.9638 8.14077C25.1482 8.14077 24.8763 9.13765 24.8763 10.3158C24.8763 11.0408 24.7857 11.8111 25.556 11.8111C26.0998 11.8111 26.417 11.4486 26.417 11.4486L26.3716 11.7658H27.2779L27.9576 7.41577M26.7795 9.77202C26.7795 10.2705 26.3716 10.9048 25.8732 10.9048C25.556 10.9048 25.3748 10.633 25.3748 10.1798C25.3748 9.45483 25.692 9.00171 26.0998 9.00171C26.417 9.00171 26.7795 9.22827 26.7795 9.77202Z" fill="#DCE5E5"/>
<path d="M1.90293 11.7204L2.44668 8.45786L2.5373 11.7204H3.17168L4.3498 8.45786L3.85137 11.7204H4.80293L5.52793 7.37036H4.39512L3.12637 10.0438L3.08105 7.37036H2.58262L1.04199 11.7204H1.90293Z" fill="#DCE5E5"/>
<path d="M14.998 11.7204H15.9496C16.2215 10.2251 16.2668 9.00166 16.9012 9.22822C16.9918 8.63916 17.1277 8.4126 17.2184 8.18604C17.2184 8.18604 17.173 8.18604 17.0371 8.18604C16.6293 8.18604 16.3121 8.72978 16.3121 8.72978L16.4027 8.23135" fill="#DCE5E5"/>
<path d="M20.3451 9.09229C20.3451 9.09229 20.7529 8.91104 21.342 8.91104C21.6592 8.91104 21.9311 8.95635 21.9311 9.22822C21.9311 9.40947 21.8857 9.45478 21.8857 9.45478C21.8857 9.45478 21.6139 9.45478 21.4779 9.45478C20.7076 9.45478 19.8467 9.77197 19.8467 10.8142C19.8467 11.6298 20.3904 11.811 20.7076 11.811C21.342 11.811 21.6139 11.4032 21.6592 11.4032L21.6139 11.7657H22.4295L22.792 9.27354C22.792 8.23135 21.8857 8.18604 21.5232 8.18604M22.2029 10.1345C22.2029 10.2704 21.6592 10.9954 21.1154 10.9954C20.8436 10.9954 20.7529 10.7688 20.7529 10.6329C20.7529 10.4063 20.8889 10.0892 21.5686 10.0892C21.7498 10.1345 22.2029 10.1345 22.2029 10.1345Z" fill="#DCE5E5"/>
<path d="M22.6104 11.7204H23.5619C23.8338 10.2251 23.8791 9.00166 24.5135 9.22822C24.6041 8.63916 24.74 8.4126 24.8307 8.18604C24.8307 8.18604 24.7854 8.18604 24.6494 8.18604C24.2416 8.18604 23.9244 8.72978 23.9244 8.72978L24.015 8.23135" fill="#DCE5E5"/>
</svg>
