<svg width="30" height="26" viewBox="0 0 30 26" fill="none" xmlns="http://www.w3.org/2000/svg">
<path d="M2.23541 3.44333C5.24199 -0.810189 11.5081 -0.815289 14.5227 3.43313L14.9931 4.09614L15.415 3.49127C18.4044 -0.787748 24.6816 -0.829569 27.7266 3.40865C28.7556 4.84043 29.2595 6.58814 29.1521 8.35304C29.0447 10.1179 28.3327 11.7904 27.1378 13.0846L15.7387 25.4249C15.644 25.5275 15.5294 25.6093 15.402 25.6652C15.2746 25.7211 15.1372 25.75 14.9982 25.75C14.8592 25.75 14.7218 25.7211 14.5944 25.6652C14.467 25.6093 14.3523 25.5275 14.2577 25.4249L2.85048 13.0397C1.66782 11.7557 0.96078 10.0996 0.848723 8.35089C0.736666 6.6022 1.22646 4.86808 2.23541 3.44129V3.44333ZM12.8778 4.62044C10.6714 1.50935 6.08367 1.51343 3.88235 4.62758C3.14418 5.67199 2.78597 6.9412 2.86817 8.221C2.95036 9.5008 3.46794 10.7128 4.33354 11.6525L15.0002 23.2319L25.6568 11.6954C26.5324 10.7472 27.0542 9.52191 27.133 8.22882C27.2118 6.93574 26.8427 5.65521 26.0887 4.60616C23.8581 1.50119 19.2592 1.53281 17.069 4.66736L15.8257 6.44629C15.7327 6.57927 15.6094 6.68787 15.4663 6.76303C15.3231 6.83819 15.1642 6.87772 15.0028 6.87831C14.8414 6.87891 14.6822 6.84057 14.5385 6.76647C14.3948 6.69238 14.2708 6.58469 14.1767 6.45241L12.8768 4.62044H12.8778Z" fill="white"/>
</svg>
