<svg width="61" height="28" viewBox="0 0 61 28" fill="none" xmlns="http://www.w3.org/2000/svg">
<path d="M14.7007 6.57396C15.3107 5.84349 15.7377 4.80871 15.6157 3.77393C14.7007 3.8348 13.6637 4.38262 13.0537 5.05219C12.5047 5.66088 12.0167 6.75656 12.1387 7.73048C13.1147 7.91309 14.0907 7.36526 14.7007 6.57396ZM15.6157 8.03483C14.1517 7.97396 12.9317 8.82613 12.2607 8.82613C11.5897 8.82613 10.5527 8.0957 9.39366 8.0957C7.92966 8.15656 6.58766 8.94787 5.79466 10.287C4.26966 12.9044 5.36766 16.8609 6.89266 18.9913C7.62466 20.0261 8.47866 21.2435 9.63766 21.1826C10.7357 21.1217 11.1627 20.4522 12.4437 20.4522C13.7247 20.4522 14.1517 21.1827 15.3107 21.1218C16.4697 21.0609 17.2627 20.087 17.9947 18.9913C18.8487 17.774 19.1537 16.5566 19.1537 16.5566C19.0927 16.4957 16.8357 15.6435 16.8357 13.0261C16.7747 10.8348 18.6047 9.80004 18.7267 9.73917C17.7507 8.21743 16.1647 8.0957 15.6157 8.03483Z" fill="black"/>
<path d="M28.06 5.05225C31.171 5.05225 33.367 7.18266 33.367 10.287C33.367 13.3914 31.171 15.5827 27.999 15.5827H24.583V21.0001H22.082V5.05225H28.06ZM24.522 13.4522H27.328C29.463 13.4522 30.683 12.2957 30.683 10.287C30.683 8.27832 29.463 7.12179 27.328 7.12179H24.461L24.522 13.4522ZM33.977 17.7131C33.977 15.7044 35.563 14.4261 38.308 14.2435L41.541 14.0609V13.1479C41.541 11.8696 40.626 11.0783 39.223 11.0783C37.82 11.0783 36.966 11.7479 36.783 12.7827H34.526C34.648 10.6522 36.478 9.13049 39.345 9.13049C42.151 9.13049 43.981 10.5914 43.981 12.9653V21.0001H41.724V19.1131H41.663C40.992 20.3914 39.528 21.2435 38.003 21.2435C35.563 21.2435 33.977 19.7827 33.977 17.7131ZM41.541 16.6783V15.7653L38.674 15.9479C37.21 16.0088 36.417 16.6783 36.417 17.6522C36.417 18.687 37.271 19.3566 38.552 19.3566C40.199 19.3566 41.541 18.2001 41.541 16.6783ZM46.055 25.3218V23.374C46.238 23.4348 46.665 23.4348 46.787 23.4348C47.885 23.4348 48.495 22.9479 48.861 21.7914C48.861 21.7305 49.044 21.0609 49.044 21.0609L44.835 9.43484H47.397L50.386 18.9305H50.447L53.436 9.43484H55.998L51.667 21.7305C50.63 24.5305 49.532 25.4435 47.092 25.4435C46.848 25.3827 46.238 25.3827 46.055 25.3218Z" fill="black"/>
</svg>
