<svg width="70" height="26" viewBox="0 0 70 26" fill="none" xmlns="http://www.w3.org/2000/svg">
<path d="M21.7025 4.6665C21.7025 4.6665 19.3925 4.6665 18.7625 6.81928C18.2025 8.83317 16.6625 14.3193 16.5925 14.5276H16.1725C16.1725 14.5276 14.5625 8.90261 14.0025 6.81928C13.3725 4.6665 11.0625 4.6665 11.0625 4.6665H5.8125V21.3332H11.0625V11.4721H11.2725H11.4825L14.5625 21.3332H18.2025L21.2825 11.4721H21.7025V21.3332H26.9525V4.6665H21.7025Z" fill="#4DB45E"/>
<path d="M40.9481 4.6665C40.9481 4.6665 39.4081 4.80539 38.7081 6.40261L34.9981 14.5276H34.5781V4.6665H29.3281V21.3332H34.2981C34.2981 21.3332 35.9081 21.1943 36.6081 19.5971L40.2481 11.4721H40.6681V21.3332H45.9181V4.6665H40.9481Z" fill="#4DB45E"/>
<path d="M48.3008 12.2361V21.3333H53.5508V15.9861H59.2208C61.6708 15.9861 63.8408 14.3889 64.6108 12.2361C64.5408 12.2361 48.3008 12.2361 48.3008 12.2361Z" fill="#4DB45E"/>
<path d="M59.2212 4.6665H47.5312C48.0912 7.7915 50.4712 10.3609 53.6212 11.1943C54.3212 11.4026 55.0212 11.5415 55.7912 11.5415H64.8212C64.8912 11.1248 64.9612 10.7776 64.9612 10.3609C64.8912 7.23595 62.3712 4.6665 59.2212 4.6665Z" fill="url(#paint0_linear_2062_8289)"/>
<defs>
<linearGradient id="paint0_linear_2062_8289" x1="47.5016" y1="8.104" x2="64.9024" y2="8.104" gradientUnits="userSpaceOnUse">
<stop offset="0.3" stop-color="#00B4E6"/>
<stop offset="1" stop-color="#088CCB"/>
</linearGradient>
</defs>
</svg>
