<svg width="39" height="38" viewBox="0 0 39 38" fill="none" xmlns="http://www.w3.org/2000/svg">
<path fill-rule="evenodd" clip-rule="evenodd" d="M38.5 19C38.5 29.4934 29.9934 38 19.5 38C9.00662 38 0.5 29.4934 0.5 19C0.5 8.50662 9.00662 0 19.5 0C29.9934 0 38.5 8.50662 38.5 19ZM13.2233 17.2595C11.3199 18.0905 9.36437 18.9444 7.57612 19.9294C6.64236 20.6131 7.88338 21.0967 9.0477 21.5504C9.2328 21.6225 9.41591 21.6938 9.5881 21.7651C9.73139 21.8092 9.87706 21.8555 10.0247 21.9026C11.3196 22.3151 12.7635 22.7751 14.0206 22.0831C16.0858 20.8968 18.0346 19.5253 19.982 18.1549C20.6201 17.7059 21.2579 17.257 21.8996 16.8148C21.9297 16.7955 21.9636 16.7735 22.0007 16.7495C22.5474 16.3951 23.7769 15.5981 23.3221 16.6963C22.2467 17.8724 21.0947 18.9135 19.9366 19.9603C19.156 20.6657 18.3726 21.3738 17.6078 22.1275C16.9418 22.6687 16.2501 23.757 16.996 24.5148C18.7138 25.7174 20.4585 26.8908 22.2021 28.0636C22.7695 28.4451 23.3369 28.8267 23.9031 29.2093C24.8628 29.9754 26.3626 29.3556 26.5735 28.1584C26.6674 27.6076 26.7616 27.0569 26.8558 26.5062C27.3764 23.4625 27.8971 20.4176 28.3572 17.364C28.4197 16.885 28.4906 16.406 28.5615 15.9268C28.7334 14.7654 28.9055 13.6025 28.9592 12.4348C28.8207 11.2695 27.4077 11.5257 26.6214 11.7878C22.5798 13.3257 18.5786 14.9775 14.5932 16.6586C14.1417 16.8585 13.684 17.0584 13.2233 17.2595Z" fill="white"/>
</svg>
