<svg width="62" height="28" viewBox="0 0 62 28" fill="none" xmlns="http://www.w3.org/2000/svg">
<path d="M21.4519 14.487C21.4519 13.8783 21.3899 13.2087 21.2659 12.6609H12.5859V16.1305H17.6079C17.4219 17.287 16.7399 18.2609 15.7479 18.8696V21.1218H18.7239C20.4599 19.6001 21.4519 17.287 21.4519 14.487Z" fill="#4285F4"/>
<path d="M12.5854 23.3739C15.0654 23.3739 17.1734 22.5826 18.7234 21.1826L15.7474 18.9305C14.9414 19.4783 13.8254 19.7826 12.5854 19.7826C10.1674 19.7826 8.12137 18.2 7.37737 16.0696H4.27734V18.3826C5.82734 21.3652 8.92737 23.3739 12.5854 23.3739Z" fill="#34A853"/>
<path d="M7.37716 16.0696C7.19116 15.5217 7.06716 14.913 7.06716 14.3043C7.06716 13.6956 7.19116 13.0869 7.37716 12.5391V10.2261H4.27716C3.65716 11.4435 3.28516 12.8435 3.28516 14.3043C3.28516 15.7652 3.65716 17.1653 4.27716 18.3827L7.37716 16.0696Z" fill="#FABB05"/>
<path d="M12.5858 8.826C13.9498 8.826 15.1898 9.31296 16.1198 10.1651L18.7858 7.54774C17.1738 6.08687 15.0658 5.17383 12.5858 5.17383C8.98984 5.17383 5.82784 7.18252 4.33984 10.1651L7.43984 12.4782C8.12184 10.4086 10.1678 8.826 12.5858 8.826Z" fill="#E94235"/>
<path d="M27.5372 7.5027V13.3462H31.1952C32.0632 13.3462 32.8072 13.0418 33.3652 12.494C33.9232 11.9462 34.2332 11.2157 34.2332 10.4244C34.2332 9.63313 33.9232 8.96356 33.3652 8.41574C32.8072 7.80704 32.0632 7.5027 31.1952 7.5027H27.5372ZM27.5372 15.3549V22.1114H25.3672V5.43311H31.1332C32.6212 5.43311 33.8612 5.92006 34.8532 6.894C35.9072 7.86791 36.4032 9.02443 36.4032 10.4244C36.4032 11.8244 35.9072 13.0418 34.8532 13.9549C33.8612 14.9288 32.6212 15.3549 31.1332 15.3549H27.5372Z" fill="#6D6D6D"/>
<path d="M38.6343 18.6415C38.6343 19.1894 38.8823 19.6763 39.3783 20.0415C39.8743 20.4068 40.4323 20.5894 41.0523 20.5894C41.9823 20.5894 42.7883 20.285 43.5323 19.6155C44.2763 18.9459 44.5863 18.1546 44.5863 17.2415C43.9043 16.6937 42.9743 16.4502 41.7343 16.4502C40.8663 16.4502 40.1223 16.6328 39.5023 17.0589C38.9443 17.485 38.6343 18.0328 38.6343 18.6415ZM41.4863 10.3633C43.0983 10.3633 44.4003 10.7894 45.3303 11.6415C46.2603 12.4937 46.7563 13.6502 46.7563 15.1111V22.172H44.6483V20.5894H44.5243C43.5943 21.8676 42.4163 22.5372 40.9283 22.5372C39.6263 22.5372 38.5723 22.172 37.7043 21.4415C36.8363 20.7111 36.4023 19.7372 36.4023 18.6415C36.4023 17.485 36.8363 16.5111 37.7663 15.8415C38.6963 15.172 39.8743 14.8068 41.4243 14.8068C42.7263 14.8068 43.7803 15.0502 44.6483 15.4763V14.9894C44.6483 14.2589 44.3383 13.5894 43.7183 13.1024C43.0983 12.5546 42.4163 12.3111 41.6103 12.3111C40.3703 12.3111 39.4403 12.7981 38.6963 13.8328L36.7743 12.6155C37.8283 11.0937 39.3783 10.3633 41.4863 10.3633Z" fill="#6D6D6D"/>
<path d="M58.6526 10.7041L51.3986 27.1389H49.1666L51.8326 21.4171L47.0586 10.7041H49.4146L52.8866 18.9215H52.9486L56.2966 10.7041H58.6526Z" fill="#6D6D6D"/>
</svg>
