<svg width="169" height="169" viewBox="0 0 169 169" fill="none" xmlns="http://www.w3.org/2000/svg">
<path d="M142.594 47.5312H26.4062C23.4895 47.5312 21.125 49.8957 21.125 52.8125V137.312C21.125 140.229 23.4895 142.594 26.4062 142.594H142.594C145.511 142.594 147.875 140.229 147.875 137.312V52.8125C147.875 49.8957 145.511 47.5312 142.594 47.5312Z" stroke="#1D1D1D" stroke-width="5" stroke-linecap="round" stroke-linejoin="round"/>
<path d="M58.0938 68.6562V47.5312C58.0938 40.5279 60.8758 33.8113 65.828 28.8592C70.7801 23.9071 77.4966 21.125 84.5 21.125C91.5034 21.125 98.2199 23.9071 103.172 28.8592C108.124 33.8113 110.906 40.5279 110.906 47.5312V68.6562" stroke="#1D1D1D" stroke-width="5" stroke-linecap="round" stroke-linejoin="round"/>
</svg>
