<svg width="132" height="130" viewBox="0 0 132 130" fill="none" xmlns="http://www.w3.org/2000/svg">
<g clip-path="url(#clip0_496_40769)">
<path d="M59.6701 4.38464C59.7765 3.8206 60.3563 3.55987 60.8563 3.4162C61.4573 3.24592 62.2073 3.1129 62.7552 3.50134C63.1701 3.794 63.3882 4.2995 63.5956 4.74648C63.8137 5.20941 64.0371 5.67767 64.4201 6.02354C64.5797 6.16721 64.819 5.93308 64.6595 5.78409C63.9733 5.16152 63.851 4.16115 63.2393 3.48537C62.5158 2.68721 61.2765 2.85748 60.3722 3.22996C59.8988 3.42684 59.4467 3.76207 59.3456 4.29418C59.3031 4.50703 59.6275 4.59749 59.6701 4.38464Z" fill="#3E1E43"/>
<path d="M100.638 82.2164C101.404 82.2271 102.149 81.9717 102.739 81.4821C103.287 81.0298 103.649 80.3966 103.883 79.7368C104.122 79.0451 104.234 78.3161 104.303 77.5924C104.383 76.8049 104.415 76.012 104.319 75.2245C104.218 74.3785 103.973 73.5537 103.495 72.846C103.372 72.6704 103.085 72.8353 103.207 73.0162C104.021 74.2188 104.112 75.7087 104.011 77.1188C103.92 78.4225 103.739 79.923 102.83 80.9394C102.271 81.5619 101.473 81.8972 100.638 81.8865C100.42 81.8865 100.42 82.2164 100.638 82.2218V82.2164Z" fill="#3E1E43"/>
<path d="M126.356 80.4392C127.585 79.5133 128.324 78.0394 128.399 76.5069C128.484 74.8574 127.713 73.3621 126.511 72.2607C125.808 71.6168 124.995 71.106 124.144 70.6803C123.952 70.5845 123.782 70.8718 123.973 70.9676C125.367 71.6594 126.723 72.6172 127.489 74.006C128.202 75.299 128.239 76.8687 127.665 78.2203C127.346 78.9706 126.84 79.6464 126.186 80.1412C126.016 80.2689 126.186 80.5616 126.356 80.4286V80.4392Z" fill="#3E1E43"/>
<path d="M123.819 75.5119C125.08 75.6184 125.931 74.3785 126.351 73.3516C126.819 72.1969 126.941 70.7762 126.223 69.6906C125.835 69.1 125.223 68.6477 124.973 67.9719C124.899 67.7697 124.574 67.8602 124.649 68.0624C124.846 68.5892 125.223 68.9883 125.58 69.4086C125.973 69.8662 126.255 70.3611 126.351 70.9624C126.537 72.1064 126.128 73.4367 125.404 74.3307C125.011 74.8255 124.468 75.2246 123.809 75.1714C123.596 75.1554 123.596 75.4907 123.809 75.5066L123.819 75.5119Z" fill="#3E1E43"/>
<path d="M98.1277 68.5679C98.1277 68.5679 102.66 65.8222 101.963 73.4952C101.096 82.9987 105.346 84.4141 103.271 91.6721C101.197 98.9301 95.6436 108.806 95.6436 108.806L76.5532 104.257C76.5532 104.257 84.8085 95.5618 88.0373 84.2332C91.266 72.9046 98.1277 68.5732 98.1277 68.5732V68.5679Z" fill="#3E1E43"/>
<path d="M77.6648 69.0414C76.8669 77.3849 76.3775 81.6205 81.7392 86.5212C87.1009 91.422 88.5371 91.3155 92.0158 87.8355C95.4945 84.3555 99.6807 64.6621 99.6807 64.6621L77.6648 69.0414Z" fill="url(#paint0_linear_496_40769)"/>
<path d="M95.6437 108.806C95.6437 108.806 93.0639 101.49 86.8033 104.837C86.8033 104.837 80.8033 96.8549 77.1756 103.038C77.1756 103.038 76.5001 98.0841 73.0107 108.157C73.0107 108.157 79.7129 117.682 95.6437 108.811V108.806Z" fill="#6F5175"/>
<g style="mix-blend-mode:multiply" opacity="0.71">
<path d="M95.6437 108.806C88.6012 112.51 84.3246 110.7 84.3246 110.7C84.1331 107.327 86.8033 104.831 86.8033 104.831C82.9788 106.678 82.7076 110.759 82.7076 110.759C78.0427 111.445 75.6012 108.471 75.6012 108.471L73.3086 107.3C73.2129 107.572 73.1118 107.848 73.0107 108.146C73.0107 108.146 79.7129 117.671 95.6437 108.801V108.806Z" fill="#A59AC2"/>
</g>
<path d="M123.585 76.1823C123.585 76.1823 126.441 75.6715 129.186 82.8763C131.931 90.0757 132.16 91.5656 131.931 99.111C131.702 106.656 131.074 115.798 131.074 115.798L109.42 115.34C109.42 115.34 114.793 105.166 115.133 93.3908C115.473 81.6152 123.585 76.1823 123.585 76.1823Z" fill="#3E1E43"/>
<path d="M104.255 77.4541C105.532 85.7338 106.106 89.9641 112.505 93.3962C118.904 96.823 120.277 96.3707 122.787 92.1404C125.303 87.9101 124.516 67.791 124.516 67.791L104.255 77.4541Z" fill="url(#paint1_linear_496_40769)"/>
<path style="mix-blend-mode:multiply" opacity="0.85" d="M77.6648 69.0414C76.8669 77.3849 76.3775 81.6205 81.7392 86.5212C87.1009 91.422 88.5371 91.3155 92.0158 87.8355C95.4945 84.3555 99.6807 64.6621 99.6807 64.6621L77.6648 69.0414Z" fill="url(#paint2_linear_496_40769)"/>
<path d="M81.4255 84.8238C81.4255 84.8238 93.5372 85.3878 104.963 73.5005C116.388 61.6131 108.734 28.5743 108.734 28.5743L100.165 27.1323L77.8511 74.3252L81.4255 84.8185V84.8238Z" fill="#3E1E43"/>
<path style="mix-blend-mode:multiply" opacity="0.85" d="M103.447 73.6814C93.4309 80.3488 88.9681 74.4051 88.9681 74.4051C88.9681 74.4051 101.25 67.8867 101.856 48.172C102.309 33.4379 107.819 50.641 110.574 60.2829C112.809 46.1553 108.734 28.5797 108.734 28.5797L100.165 27.1377L77.8511 74.3306L81.4255 84.8238C81.4255 84.8238 93.5372 85.3879 104.963 73.5005C105.91 72.5161 106.723 71.3827 107.426 70.1323L103.447 73.6761V73.6814Z" fill="url(#paint3_linear_496_40769)"/>
<path d="M56.6914 4.5177C56.6914 4.5177 59.5265 2.84156 67.101 5.60321C90.2872 14.0638 106.25 25.6106 107.707 27.1377L108.734 28.5798C108.734 28.5798 101.447 33.7253 100.25 42.1273C99.0478 50.5293 95.7074 72.0479 82.5106 75.3895C69.3137 78.7312 78.3137 41.9517 78.3137 41.9517L56.6914 4.5177Z" fill="url(#paint4_linear_496_40769)"/>
<path style="mix-blend-mode:multiply" opacity="0.85" d="M79.085 31.7723C79.085 31.7723 77.9999 34.5287 76.3935 38.6366L78.3084 41.9516C78.3084 41.9516 69.3084 78.7311 82.5052 75.3895C94.351 72.3884 98.2552 54.7542 99.7978 45.0964C94.4574 58.1331 88.3403 44.7452 79.0797 31.7723H79.085Z" fill="url(#paint5_linear_496_40769)"/>
<path style="mix-blend-mode:multiply" opacity="0.85" d="M56.6914 4.51763L78.3137 41.957C78.3137 41.957 69.3137 78.7365 82.5106 75.3948C95.7074 72.0531 99.0531 50.5346 100.25 42.1325C101.452 33.7305 108.734 28.585 108.734 28.585L107.707 27.143C107.133 26.5417 104.314 24.392 99.6967 21.492C106.846 25.7435 102.372 41.1215 94.5478 37.1946C86.718 33.2623 64.2925 4.11323 75.4893 8.91819C72.8191 7.78479 70.0159 6.66736 67.101 5.60846C59.5265 2.8468 56.6914 4.52295 56.6914 4.52295V4.51763Z" fill="url(#paint6_linear_496_40769)"/>
<path style="mix-blend-mode:color-dodge" opacity="0.52" d="M93.0691 36.3911C93.1329 28.3988 89.2021 19.1666 86.7287 14.1541C86.6382 14.1116 86.5531 14.0637 86.468 14.0211C88.9414 19.0123 92.9095 28.2977 92.8457 36.3325V36.3964L99.851 44.8144C99.8616 44.7505 99.867 44.6973 99.8776 44.6335L93.0691 36.4549V36.3911Z" fill="url(#paint7_linear_496_40769)"/>
<g style="mix-blend-mode:multiply">
<path d="M87.2234 14.4096C87.0585 14.3245 86.8936 14.2393 86.7234 14.1542C89.1968 19.1667 93.1277 28.3935 93.0638 36.3911V36.4549L99.8723 44.6335C99.8936 44.4845 99.9202 44.3355 99.9415 44.1918L93.4042 36.3326C93.4468 28.4946 89.7128 19.5179 87.2234 14.4149V14.4096Z" fill="#8880A8"/>
</g>
<path style="mix-blend-mode:multiply" opacity="0.85" d="M79.0531 30.1813C77.9786 14.7235 65.6542 6.69928 60.6648 4.06534C57.8563 3.84185 56.6914 4.51763 56.6914 4.51763L75.4786 37.0509C77.9042 36.6092 79.3616 34.6138 79.0584 30.1813H79.0531Z" fill="url(#paint8_linear_496_40769)"/>
<path style="mix-blend-mode:multiply" opacity="0.85" d="M82.5107 75.3895C89.6437 73.5803 93.8937 66.466 96.4841 58.9845C91.6863 70.6856 83.4948 71.5476 83.4948 71.5476C83.4948 71.5476 81.4895 73.7772 80.0107 75.5119C80.7395 75.6555 81.5639 75.6289 82.5107 75.3895Z" fill="url(#paint9_linear_496_40769)"/>
<path d="M69.4254 13.6593C69.4254 13.6593 75.0797 20.8056 77.5371 29.894C79.9946 38.9825 67.1382 84.8185 67.1382 84.8185C67.1382 84.8185 49.8935 85.2761 42.1754 77.9596C34.4573 70.6431 69.4201 13.6593 69.4201 13.6593H69.4254Z" fill="#3E1E43"/>
<path d="M58.0852 121.401C58.0852 121.401 60.0852 113.744 59.4575 97.9669C59.2448 92.6564 78.9097 99.5686 78.9097 99.5686C78.9097 99.5686 75.3671 118.623 75.1384 126.355L58.0852 121.401Z" fill="#3E1E43"/>
<path d="M76.7552 27.3505C77.7392 26.2011 80.1382 29.2076 82.7126 37.4925C85.2871 45.7775 88.8775 56.3559 88.8775 56.3559C88.8775 56.3559 88.9733 70.0684 84.6275 74.2987C80.3775 78.4332 59.4626 71.0953 59.4626 71.0953C59.4626 71.0953 68.3084 60.1073 70.468 53.0408C72.5265 46.3149 72.7446 41.6004 72.8563 37.8331C72.968 34.0657 73.0052 31.7245 76.7605 27.3505H76.7552Z" fill="url(#paint10_linear_496_40769)"/>
<path d="M77.851 35.4866C77.851 35.4866 73.9468 48.6723 80.8883 59.3996C87.8297 70.127 88.734 56.6912 88.734 56.6912L77.851 35.4866Z" fill="#6F5175"/>
<path style="mix-blend-mode:multiply" opacity="0.85" d="M59.4575 71.1007C59.4575 71.1007 80.3724 78.4332 84.6224 74.304C88.9681 70.0738 88.8724 56.3613 88.8724 56.3613C88.8724 56.3613 85.2819 45.7829 82.7075 37.4979C80.9947 31.9853 79.367 28.8192 78.1702 27.6486C83.5107 35.2471 81.8192 61.9803 78.1702 57.5159C74.5213 53.0515 74.1809 44.3089 74.1809 44.3089L72.8458 37.8332C72.7341 41.6058 72.5107 46.315 70.4575 53.0409C68.2979 60.1073 59.4521 71.0954 59.4521 71.0954L59.4575 71.1007Z" fill="url(#paint11_linear_496_40769)"/>
<path d="M83.3669 72.6491L84.8563 72.9684C84.8563 72.9684 86.0531 60.8788 77.1967 59.788C71.4361 59.0803 60.968 72.3245 60.968 72.3245L83.3669 72.6544V72.6491Z" fill="#3E1E43"/>
<path d="M73.8989 62.1453C82.4734 59.6284 87.0266 71.2178 84.2819 83.6798C81.5372 96.1419 77.1968 111.68 67.2553 112.196C57.3138 112.712 56.8032 82.1952 59.4574 73.0483C59.4574 73.0483 68.883 63.6193 73.8989 62.1453Z" fill="url(#paint12_linear_496_40769)"/>
<path d="M79.5637 33.3155C85.2233 31.3254 93.0637 57.8458 86.4414 61.3364C79.819 64.8271 72.8988 35.6568 79.5637 33.3155Z" fill="url(#paint13_linear_496_40769)"/>
<path d="M54.0638 2.36263C55.1808 1.61235 56.5425 0.941893 57.9308 1.19731C58.3457 1.2718 58.7446 1.43676 59.1276 1.60703C59.4946 1.77731 59.8723 1.94226 60.2181 2.15511C60.8723 2.54887 61.3191 3.16612 61.5425 3.88979C61.7872 4.67731 61.7606 5.51805 61.4787 6.28961C61.4042 6.49181 61.7234 6.59291 61.7978 6.39071C62.3138 4.97529 62.0212 3.16612 60.8244 2.17107C60.5 1.89969 60.1223 1.71345 59.7446 1.53254C59.3298 1.33033 58.9095 1.12813 58.4681 0.989783C57.7287 0.755655 56.9574 0.766297 56.2127 0.957857C55.3829 1.17602 54.617 1.58575 53.9149 2.06465C53.7393 2.18171 53.8883 2.48501 54.0691 2.36263H54.0638Z" fill="#3E1E43"/>
<path style="mix-blend-mode:multiply" opacity="0.85" d="M73.8988 62.1453C68.8829 63.6193 59.4574 73.0483 59.4574 73.0483C58.6542 75.8206 58.1382 80.567 58.0903 85.8083C58.7818 76.2728 69.7552 71.0741 75.3137 73.6442C80.835 76.1983 77.2233 109.008 69.5691 111.77C77.8882 109.157 81.7605 95.1255 84.2818 83.6798C87.0265 71.2178 82.4733 59.6284 73.8988 62.1453Z" fill="url(#paint14_linear_496_40769)"/>
<path d="M75.1384 126.355C75.1384 126.355 74.282 119.97 70.0799 120.656C70.0799 120.656 63.8246 116.027 60.4469 118.804C60.4469 118.804 56.1065 115.425 52.5107 125.456C52.5107 125.456 59.1118 135.05 75.1384 126.35V126.355Z" fill="#6F5175"/>
<path style="mix-blend-mode:multiply" opacity="0.85" d="M74.165 45.0911C74.516 33.0866 74.1862 31.5222 78.1756 27.6485C77.5745 27.0631 77.0852 26.9674 76.7554 27.3558C73.0001 31.7298 72.9682 34.071 72.8511 37.8384C72.7394 41.611 72.516 46.3202 70.4628 53.0461C69.4841 56.2441 67.133 60.2509 64.8564 63.6724L68.4043 63.5979C68.4043 63.5979 73.8139 57.0955 74.165 45.0857V45.0911Z" fill="url(#paint15_linear_496_40769)"/>
<path d="M131.074 115.798C131.074 115.798 130.218 109.413 126.016 110.099C126.016 110.099 119.761 105.47 116.383 108.247C116.383 108.247 112.043 104.868 108.447 114.899C108.447 114.899 115.048 124.493 131.074 115.793V115.798Z" fill="#6F5175"/>
<path d="M5.20733 108.253C-0.053311 103.453 -0.165013 102.884 0.0637102 94.1944C0.292434 85.505 18.4201 59.2134 18.4201 59.2134L33.8882 78.6461C33.8882 78.6461 30.4095 83.2435 15.468 98.5364C5.6435 108.593 5.20733 108.253 5.20733 108.253Z" fill="url(#paint16_linear_496_40769)"/>
<path style="mix-blend-mode:multiply" opacity="0.85" d="M5.20743 108.253C5.20743 108.253 5.6436 108.593 15.4681 98.5363C30.4096 83.2434 33.8883 78.646 33.8883 78.646L20.984 63.6777C12.7659 73.1227 11.6223 88.3464 9.41488 86.782C4.59041 83.3765 0.319131 89.8736 0.0159398 96.1365C-0.117039 102.995 0.372323 103.841 5.20211 108.253H5.20743Z" fill="url(#paint17_linear_496_40769)"/>
<path d="M20.9841 63.6777C18.5585 66.466 16.75 69.7544 15.3511 72.9684L25.3511 88.2293C32.0532 81.0671 33.8883 78.646 33.8883 78.646L20.9841 63.6777Z" fill="#6F5175"/>
<path d="M12.9787 60.4212C12.5212 57.5585 12.1223 58.1278 14.1808 47.6133C16.2393 37.0988 18.8085 24.3494 19.6649 20.6353C20.5159 16.9212 32 0.058574 42.9149 4.17571e-05C53.8297 -0.0584904 58.5106 3.83124 64.9095 8.4606C71.3085 13.09 71.3085 12.8612 70.3351 23.2054C69.3617 33.5496 69.25 34.1243 61.0797 48.1242C52.9095 62.1293 12.9734 60.4159 12.9734 60.4159L12.9787 60.4212Z" fill="url(#paint18_linear_496_40769)"/>
<g style="mix-blend-mode:multiply">
<path d="M35.0477 28.3934C35.0477 28.452 35.0424 28.4945 35.0371 28.4998V28.5265L36.7339 34.832L36.7658 34.9437L37.0903 34.8532L35.3775 28.4892C35.436 27.6431 36.968 8.30091 48.218 0.329895C48.0637 0.30861 47.8988 0.292647 47.7392 0.271362C36.8403 8.29027 35.1648 26.8503 35.0477 28.3881V28.3934Z" fill="#8880A8"/>
</g>
<path style="mix-blend-mode:color-dodge" opacity="0.52" d="M34.8137 28.4414V28.468L36.5371 34.8853L36.7339 34.8321L35.0371 28.5266V28.5C35.0371 28.5 35.0371 28.4521 35.0478 28.3935C35.1648 26.8557 36.8456 8.30103 47.7393 0.2768C47.6541 0.266157 47.5637 0.255515 47.4786 0.244873C36.202 8.58837 34.8297 28.2392 34.8137 28.4414Z" fill="url(#paint19_linear_496_40769)"/>
<path style="mix-blend-mode:multiply" opacity="0.85" d="M61.0851 48.1241C69.2553 34.119 69.367 33.5496 70.3404 23.2054C71.3138 12.8611 71.3138 13.09 64.9149 8.46059C64.3192 8.02958 63.7394 7.60389 63.1649 7.18884C67.1011 10.0729 57.3404 26.1267 55.9043 28.4733C54.4628 30.8199 48.6755 36.0559 48.6755 36.0559L52.2181 55.1107C56.1543 53.3867 59.3457 51.1146 61.0904 48.1295L61.0851 48.1241Z" fill="url(#paint20_linear_496_40769)"/>
<path style="mix-blend-mode:multiply" opacity="0.85" d="M64.9097 8.46062C62.0958 6.42795 59.6171 4.53364 56.7926 3.05969C68.4309 9.40245 51.3299 25.5893 42.1756 27.5953C32.7022 29.6706 20.298 28.7979 19.6597 20.6353C18.8033 24.3494 16.2341 37.0935 14.1756 47.6133C12.1171 58.1278 12.5214 57.5585 12.9735 60.4212C12.9735 60.4212 52.9097 62.1293 61.0799 48.1295C69.2501 34.1243 69.3618 33.555 70.3352 23.2107C71.3086 12.8665 71.3086 13.0953 64.9097 8.46594V8.46062Z" fill="url(#paint21_linear_496_40769)"/>
<path d="M27.2926 77.5286C26.9788 79.6039 26.883 81.7057 27.016 83.7969C27.0798 84.8345 27.2022 85.8721 27.3724 86.8991C27.516 87.7398 27.6703 88.5965 28.0001 89.3841C28.2767 90.0439 28.6969 90.6771 29.3352 91.0283C30.0267 91.4114 30.8458 91.3848 31.5586 91.0709C33.2501 90.3312 33.7926 88.4263 34.0586 86.7608C34.4362 84.4248 34.4203 82.0409 34.0213 79.7103C33.9841 79.4974 33.6596 79.5879 33.6969 79.8008C34.0266 81.7642 34.0852 83.7703 33.8564 85.7497C33.6756 87.3567 33.399 89.4107 31.9841 90.4377C31.3618 90.8899 30.5426 91.1347 29.7926 90.874C29.1171 90.6398 28.6649 90.0439 28.3671 89.416C28.0426 88.7189 27.8884 87.958 27.7501 87.2077C27.5745 86.2393 27.4469 85.2602 27.3671 84.2811C27.1915 82.0622 27.2713 79.822 27.6011 77.6191C27.633 77.4062 27.3086 77.3158 27.2766 77.5286H27.2926Z" fill="#3E1E43"/>
<path d="M31.7554 81.0352C31.7979 82.1047 31.9681 83.169 32.282 84.1959C32.4362 84.7014 32.6224 85.2016 32.8405 85.6805C33.0373 86.1222 33.2713 86.5585 33.6011 86.915C34.1756 87.5429 35.0745 87.8622 35.8618 87.4471C36.5586 87.08 36.9575 86.2978 37.1915 85.5847C37.5586 84.462 37.7128 83.2381 37.5905 82.0622C37.5692 81.8493 37.2341 81.8493 37.2554 82.0622C37.3564 83.0412 37.2554 84.0203 37.016 84.9728C36.8352 85.6805 36.5745 86.4361 36.0107 86.9363C35.3511 87.5216 34.4628 87.3247 33.8883 86.7235C33.2607 86.069 32.9256 85.0952 32.6543 84.2438C32.3245 83.2009 32.1383 82.1154 32.0958 81.0245C32.0852 80.8117 31.7501 80.8064 31.7607 81.0245L31.7554 81.0352Z" fill="#3E1E43"/>
<path d="M17.6064 38.0566C17.25 38.5994 17.1223 39.2592 16.9521 39.8764C16.7606 40.5788 16.5638 41.2812 16.383 41.9889C16.0479 43.2766 15.8936 44.5643 16.2606 45.868C16.4521 46.5438 16.7606 47.1823 17.1702 47.7517C17.2979 47.9273 17.5851 47.757 17.4574 47.5814C16.5106 46.2724 16.1915 44.6761 16.4734 43.0957C16.6276 42.2443 16.883 41.4089 17.1064 40.5735C17.2234 40.1531 17.3351 39.7275 17.4521 39.3071C17.5585 38.9293 17.6755 38.5621 17.8936 38.2322C18.0106 38.0513 17.7234 37.881 17.6064 38.0619V38.0566Z" fill="#3E1E43"/>
<path d="M69.4256 60.4425C69.4256 60.4425 66.7979 58.6439 63.4841 48.1241C60.1703 37.6096 50.0001 30.176 38.0001 30.4048C26.0001 30.6336 17.6596 41.494 15.7182 48.2358C13.7767 54.9777 12.8618 60.6979 11.032 63.5553C11.032 63.5553 12.2873 71.3294 21.0852 75.3309C29.883 79.3324 31.1384 83.6744 40.2235 83.6744C47.5958 83.6744 49.9522 79.5825 59.2501 74.5274C68.5054 69.499 69.4203 60.4371 69.4203 60.4371L69.4256 60.4425Z" fill="url(#paint22_linear_496_40769)"/>
<g style="mix-blend-mode:multiply">
<path d="M29.4362 52.7482C27.7554 44.6335 20.9522 39.4827 20.8831 39.4295L21.0852 39.1581C21.1543 39.2113 28.0586 44.4366 29.766 52.6737L29.4362 52.7429V52.7482Z" fill="#8880A8"/>
</g>
<g style="mix-blend-mode:multiply">
<path d="M46.2074 52.562L45.8936 52.4396C45.9414 52.3225 50.5265 40.8502 58.1648 40.0308L58.2021 40.366C50.7712 41.1588 46.2553 52.4502 46.2074 52.562Z" fill="#8880A8"/>
</g>
<path style="mix-blend-mode:color-dodge" opacity="0.52" d="M20.883 39.4347L20.9362 39.3602L20.7234 39.621C20.7925 39.6742 27.5957 44.825 29.2766 52.9397L29.6064 52.8705C29.5957 52.8226 29.5851 52.7747 29.5745 52.7269L29.4362 52.7535C27.7553 44.6388 20.9521 39.4879 20.883 39.4347Z" fill="url(#paint23_linear_496_40769)"/>
<path style="mix-blend-mode:color-dodge" opacity="0.52" d="M57.9946 40.0574L57.9839 39.9563C50.3509 40.7704 45.7605 52.2481 45.7126 52.3651L45.8935 52.4396C45.9573 52.28 50.4733 41.0258 57.9892 40.0574H57.9946Z" fill="url(#paint24_linear_496_40769)"/>
<path style="mix-blend-mode:multiply" opacity="0.85" d="M112.128 93.178C112.255 93.2525 112.372 93.3217 112.505 93.3962C118.904 96.823 120.277 96.3707 122.787 92.1404C125.303 87.9101 124.516 67.791 124.516 67.791L114.356 72.6385C117.197 77.9703 121.399 85.5688 121.399 85.5688C122.761 83.5787 120.601 97.5467 112.122 93.178H112.128Z" fill="url(#paint25_linear_496_40769)"/>
<path style="mix-blend-mode:screen" opacity="0.74" d="M42.8351 52.4874C42.8351 52.4874 42.9734 53.0089 43.1862 53.8603C43.4415 53.7059 43.6117 53.5995 43.6117 53.5995L43.0798 52.1149C52.5904 43.4735 52.6436 32.512 38.5319 32.5439C24.4255 32.5811 26.0744 45.0272 32.851 51.8542C36.4042 55.0362 38.2979 56.8454 42.8351 52.4821V52.4874Z" fill="url(#paint26_linear_496_40769)"/>
<path style="mix-blend-mode:multiply" opacity="0.85" d="M11.0319 63.5553C11.0319 63.5553 12.2872 71.3295 21.0851 75.331C23.3085 76.342 25.0532 77.3743 26.5585 78.3533C22.2607 75.1607 20.7607 67.8495 21.3192 64.6568C21.8777 61.4642 21.9947 58.9153 21.9947 58.9153C21.9947 58.9153 20.7872 56.457 22.9096 53.7113C22.9096 53.7113 18.4096 49.0447 21.2075 41.2865C21.633 40.1052 21.5373 39.3656 21.0692 38.9612C18.3511 42.074 16.5 45.4955 15.7128 48.2359C13.7713 54.9777 12.8564 60.6979 11.0266 63.5553H11.0319Z" fill="url(#paint27_linear_496_40769)"/>
<path style="mix-blend-mode:multiply" opacity="0.85" d="M52.2393 37.913C56.6382 44.1706 54.1808 53.0462 54.1808 53.0462C54.1808 53.0462 56.8935 56.4464 54.6489 58.1651C52.4042 59.8838 56.9946 62.1187 55.8137 67.4611C54.6329 72.8035 55.702 76.2941 48.9999 81.0086C51.6701 79.3591 54.585 77.0657 59.2552 74.5275C68.5106 69.4991 69.4254 60.4372 69.4254 60.4372C69.4254 60.4372 66.7978 58.6387 63.484 48.1188C60.1701 37.6043 49.9999 30.1707 37.9999 30.3995C33.835 30.4794 30.1116 31.8416 26.9414 33.8636L27.952 35.0076C33.1542 31.086 47.835 31.6447 52.234 37.9023L52.2393 37.913Z" fill="url(#paint28_linear_496_40769)"/>
<g style="mix-blend-mode:multiply" opacity="0.85">
<path d="M21.718 41.4303C22.9307 39.0251 23.0318 38.7378 24.436 37.4554C25.8403 36.1677 25.2126 34.3958 25.2126 34.3958L17.7871 36.1091L21.718 41.4303Z" fill="#A59AC2"/>
</g>
<g style="mix-blend-mode:multiply" opacity="0.85">
<path d="M54.8137 37.6842C56.4893 38.5781 57.3882 41.4355 57.3882 41.4355C57.3882 41.4355 58.3244 39.371 58.1648 38.9133C58.0052 38.4557 55.5105 36.0559 55.5105 36.0559L54.8137 37.6842Z" fill="#A59AC2"/>
</g>
<path style="mix-blend-mode:multiply" opacity="0.85" d="M32.8511 51.8596C36.4043 55.0416 38.2979 56.8508 42.8351 52.4875C42.8351 52.4875 48.2713 73.2717 44.1649 65.7264C40.0586 58.181 37.782 53.9188 32.2075 65.455C26.633 76.9912 26.4043 56.5262 26.4043 56.5262L32.8511 51.8542V51.8596Z" fill="url(#paint29_linear_496_40769)"/>
<path d="M44.117 51.4392C45.9627 50.9922 47.4999 51.3807 50.4574 53.9561C54.8563 57.7873 57.3563 60.815 56.5372 64.7047C55.5053 69.6055 53.1436 75.5598 48.4574 71.0475C44.3404 67.0833 42.7659 64.0875 42.3138 59.0165C41.8563 53.8763 42.5691 51.817 44.1116 51.4445L44.117 51.4392Z" fill="#3E1E43"/>
<path d="M32.1169 51.4392C30.4307 50.9922 29.0265 51.3807 26.3243 53.9561C22.3084 57.7873 20.0265 60.815 20.7765 64.7047C21.718 69.6055 23.8722 75.5598 28.1541 71.0475C31.9094 67.0833 33.3509 64.0875 33.7605 59.0165C34.1807 53.8763 33.5265 51.817 32.1169 51.4445V51.4392Z" fill="#3E1E43"/>
<path d="M102.606 25.1103C102.606 25.1103 102.617 25.1263 102.622 25.1369C102.617 25.0944 102.612 25.0518 102.606 25.0092C102.633 24.9933 102.66 24.9773 102.686 24.956C102.718 24.9826 102.755 25.0092 102.787 25.0358C102.708 24.9294 102.899 24.6474 102.952 24.5569C103.043 24.4186 103.16 24.2962 103.287 24.1898C103.559 23.9663 103.888 23.8226 104.229 23.7481C104.644 23.6577 105.069 23.6683 105.489 23.7109C105.904 23.7534 106.351 23.8067 106.745 23.961C107.436 24.227 107.963 24.8975 108.362 25.4934C108.766 26.1 109.069 26.7705 109.261 27.4729C109.479 28.2764 109.543 29.1065 109.458 29.9366C109.436 30.1494 109.771 30.1494 109.793 29.9366C109.984 28.1061 109.42 26.2331 108.266 24.8017C107.984 24.4505 107.665 24.1046 107.282 23.8599C106.862 23.5885 106.367 23.498 105.878 23.4235C104.952 23.2905 103.936 23.2745 103.154 23.8652C102.825 24.1153 102.479 24.5144 102.431 24.94C102.415 25.1156 102.511 25.3232 102.713 25.2912C102.878 25.2646 102.984 25.089 102.888 24.94C102.771 24.7591 102.479 24.9294 102.601 25.1103H102.606Z" fill="#3E1E43"/>
<path d="M45.9999 59.3304C46.7446 58.1863 50.101 58.1491 50.2659 58.8728C50.4946 59.8785 46.984 62.092 46.0265 61.7302C45.3403 61.4748 45.5744 59.9796 45.9999 59.3304Z" fill="#D6FFFF"/>
<path d="M31.3086 59.2293C30.6543 57.9362 27.6862 57.8937 27.5373 58.7131C27.3351 59.8465 30.4362 62.3474 31.282 61.943C31.8883 61.6504 31.6809 59.9689 31.3086 59.2293Z" fill="#D6FFFF"/>
<mask id="mask0_496_40769" style="mask-type:luminance" maskUnits="userSpaceOnUse" x="42" y="51" width="15" height="22">
<path d="M44.117 51.4392C45.9627 50.9922 47.4999 51.3807 50.4574 53.9561C54.8563 57.7873 57.3563 60.815 56.5372 64.7047C55.5053 69.6055 53.1436 75.5598 48.4574 71.0475C44.3404 67.0833 42.7659 64.0875 42.3138 59.0165C41.8563 53.8763 42.5691 51.817 44.1116 51.4445L44.117 51.4392Z" fill="white"/>
</mask>
<g mask="url(#mask0_496_40769)">
<path style="mix-blend-mode:color-dodge" d="M50.968 65.3327C45.8829 68.2699 40.335 68.1795 38.5744 65.1305C36.8137 62.0815 39.5105 57.2339 44.5956 54.2967C49.6807 51.3594 55.2286 51.4499 56.9893 54.4989C58.7499 57.5479 56.0531 62.3954 50.968 65.3327Z" fill="url(#paint30_radial_496_40769)"/>
</g>
<mask id="mask1_496_40769" style="mask-type:luminance" maskUnits="userSpaceOnUse" x="20" y="51" width="14" height="22">
<path d="M32.1169 51.4392C30.4307 50.9922 29.0265 51.3807 26.3243 53.9561C22.3084 57.7873 20.0265 60.815 20.7765 64.7047C21.718 69.6055 23.8722 75.5598 28.1541 71.0475C31.9094 67.0833 33.3509 64.0875 33.7605 59.0165C34.1807 53.8763 33.5265 51.817 32.1169 51.4445V51.4392Z" fill="white"/>
</mask>
<g mask="url(#mask1_496_40769)">
<path style="mix-blend-mode:color-dodge" d="M25.6168 65.1942C20.6593 61.5227 18.4253 56.1324 20.6274 53.1632C22.8296 50.194 28.6274 50.7634 33.5849 54.435C38.5423 58.1065 40.7764 63.4968 38.5742 66.466C36.3721 69.4352 30.5742 68.8658 25.6168 65.1942Z" fill="url(#paint31_radial_496_40769)"/>
</g>
<path style="mix-blend-mode:multiply" opacity="0.85" d="M40.2287 83.6744C47.601 83.6744 49.9574 79.5825 59.2552 74.5275C60.7446 73.7186 62.0159 72.8034 63.101 71.8403C58.2818 75.5385 52.7393 77.7254 49.4308 74.9744C46.1223 72.2234 43.0265 68.4667 37.4308 68.6955C31.8297 68.9243 30.7233 73.1706 27.7712 74.2986C21.4893 76.6985 18.5478 73.9421 15.468 71.4625C16.8723 72.8726 18.7021 74.2401 21.0904 75.3256C29.8882 79.3271 31.1435 83.6691 40.2287 83.6691V83.6744Z" fill="url(#paint32_linear_496_40769)"/>
<path d="M105.074 80.1572C105.074 80.1572 107.128 90.1396 114.447 89.6234C121.761 89.1073 122.638 83.3924 123.186 78.1458C123.734 72.9045 105.074 80.1572 105.074 80.1572Z" fill="#3E1E43"/>
<path style="mix-blend-mode:screen" opacity="0.74" d="M45.3351 71.4785C45.0691 70.0471 44.5531 67.7218 43.617 64.726C40.0159 58.1438 37.734 54.7649 32.9042 64.0608C32.1117 66.0509 31.0319 69.1106 30.4202 72.3192C32.0159 70.7282 33.7553 68.8498 37.4308 68.7009C40.7659 68.5625 43.2074 69.8449 45.3351 71.4785Z" fill="url(#paint33_linear_496_40769)"/>
<path d="M115.245 88.1336C110.356 88.7456 104.048 87.0002 102.447 65.3327C100.846 43.6651 102.335 30.522 108.734 28.5798C115.133 26.6376 124.963 51.5616 124.505 66.365C124.048 81.163 120.734 87.4525 115.25 88.1389L115.245 88.1336Z" fill="url(#paint34_linear_496_40769)"/>
<path d="M113.394 38.743C111.059 44.5697 110.064 68.5838 117.718 75.5651C125.372 82.5517 124.505 66.3596 124.505 66.3596L113.399 38.743H113.394Z" fill="#6F5175"/>
<path style="mix-blend-mode:color-dodge" opacity="0.52" d="M113.867 88.2293C113.84 88.1655 113.808 88.0963 113.776 88.0271C113.766 88.0005 113.75 87.9686 113.739 87.942C113.702 87.8568 113.659 87.7664 113.622 87.6706C113.612 87.644 113.601 87.6174 113.59 87.5908C113.548 87.4844 113.5 87.3779 113.452 87.2662C113.441 87.2449 113.436 87.2236 113.425 87.2023C113.372 87.08 113.319 86.9469 113.266 86.8139C113.266 86.8032 113.255 86.7926 113.25 86.782C112.824 85.7337 112.335 84.4088 111.904 82.9454C111.899 82.9242 111.894 82.9029 111.888 82.8816C111.835 82.6954 111.782 82.5091 111.729 82.3176C111.718 82.2803 111.707 82.2431 111.697 82.2058C111.649 82.0302 111.606 81.8599 111.558 81.6843C111.542 81.6311 111.532 81.5779 111.521 81.5247C111.479 81.3598 111.441 81.2001 111.404 81.0352C111.388 80.9713 111.378 80.9075 111.362 80.8489C111.324 80.6946 111.292 80.535 111.261 80.3754C111.245 80.3062 111.234 80.237 111.218 80.1678C111.186 80.0135 111.159 79.8645 111.133 79.7102C111.117 79.6357 111.106 79.5612 111.096 79.4814C111.069 79.3324 111.048 79.1834 111.021 79.0344C111.011 78.9546 110.995 78.8748 110.984 78.795C110.963 78.6513 110.947 78.5076 110.925 78.364C110.915 78.2788 110.904 78.1937 110.894 78.1086C110.878 77.9702 110.862 77.8265 110.851 77.6882C110.846 77.6031 110.835 77.5126 110.83 77.4275C110.819 77.2891 110.808 77.1508 110.803 77.0124C110.803 76.9219 110.792 76.8368 110.787 76.7464C110.782 76.6133 110.776 76.475 110.776 76.342C110.776 76.2515 110.776 76.161 110.776 76.0706C110.776 75.9375 110.776 75.8098 110.782 75.6768C110.782 75.5864 110.782 75.4959 110.787 75.4054C110.792 75.2777 110.803 75.1447 110.814 75.017C110.819 74.9265 110.824 74.8361 110.835 74.7509C110.846 74.6232 110.862 74.4955 110.878 74.3678C110.888 74.2827 110.899 74.1922 110.909 74.1071C110.931 73.9741 110.952 73.8463 110.979 73.7186C110.995 73.6388 111.005 73.559 111.021 73.4792C111.053 73.3408 111.085 73.2025 111.122 73.0641C111.138 73.0003 111.154 72.9311 111.17 72.8673C111.223 72.6651 111.287 72.4682 111.356 72.2713L111.378 72.2074L111.436 72.1755L122.968 66.2957L122.899 66.1573L111.213 72.117L111.154 72.1489L111.133 72.2128C109.229 77.5871 112.479 85.6007 113.67 88.2346C113.739 88.2346 113.803 88.2346 113.872 88.2346L113.867 88.2293Z" fill="url(#paint35_linear_496_40769)"/>
<g style="mix-blend-mode:multiply">
<path d="M111.644 72.4363L123.271 66.5086L123.117 66.2106L122.963 66.2904L111.431 72.1702L111.372 72.2021L111.351 72.266C111.282 72.4629 111.218 72.6598 111.165 72.862C111.149 72.9258 111.133 72.995 111.117 73.0588C111.08 73.1972 111.048 73.3355 111.016 73.4739C111 73.5537 110.989 73.6335 110.973 73.7133C110.952 73.841 110.925 73.9687 110.904 74.1018C110.894 74.1869 110.883 74.2774 110.872 74.3625C110.856 74.4902 110.84 74.6179 110.83 74.7456C110.819 74.8361 110.814 74.9265 110.808 75.0117C110.798 75.1394 110.787 75.2724 110.782 75.4001C110.782 75.4906 110.777 75.581 110.777 75.6715C110.777 75.8045 110.771 75.9322 110.771 76.0653C110.771 76.1557 110.771 76.2462 110.771 76.3366C110.771 76.4697 110.771 76.6027 110.782 76.741C110.782 76.8315 110.793 76.9166 110.798 77.0071C110.803 77.1454 110.814 77.2838 110.824 77.4221C110.83 77.5073 110.84 77.5977 110.846 77.6829C110.856 77.8212 110.872 77.9649 110.888 78.1032C110.899 78.1884 110.91 78.2735 110.92 78.3587C110.936 78.5023 110.957 78.646 110.979 78.7897C110.989 78.8695 111 78.9493 111.016 79.0291C111.037 79.1781 111.064 79.3271 111.09 79.4761C111.101 79.5506 111.117 79.6251 111.128 79.7049C111.154 79.8592 111.186 80.0135 111.213 80.1625C111.229 80.2317 111.239 80.3009 111.255 80.37C111.287 80.5297 111.324 80.684 111.356 80.8436C111.372 80.9075 111.383 80.9713 111.399 81.0299C111.436 81.1948 111.479 81.3598 111.516 81.5194C111.527 81.5726 111.543 81.6258 111.553 81.679C111.596 81.8546 111.644 82.0302 111.691 82.2005C111.702 82.2377 111.713 82.275 111.723 82.3122C111.777 82.5038 111.83 82.69 111.883 82.8763C111.888 82.8976 111.894 82.9188 111.899 82.9401C112.33 84.4088 112.819 85.7337 113.245 86.7767C113.245 86.7873 113.255 86.7979 113.261 86.8086C113.314 86.9416 113.367 87.0746 113.42 87.197C113.431 87.2183 113.436 87.2396 113.447 87.2609C113.495 87.3726 113.543 87.4844 113.585 87.5855C113.596 87.6121 113.606 87.6387 113.617 87.6653C113.66 87.7611 113.697 87.8515 113.734 87.9367C113.745 87.9686 113.761 87.9952 113.771 88.0218C113.803 88.091 113.83 88.1601 113.862 88.224C113.984 88.224 114.106 88.224 114.229 88.2134C113.101 85.7124 109.83 77.6722 111.638 72.4309L111.644 72.4363Z" fill="#8880A8"/>
</g>
<path style="mix-blend-mode:multiply" opacity="0.85" d="M108.144 57.037C110.287 79.1196 118.681 81.0193 118.681 81.0193C118.681 81.0193 106.894 87.9154 103.702 74.9958C106.229 87.527 111.223 88.6391 115.25 88.1336C120.734 87.4472 124.048 81.163 124.505 66.3596C124.835 55.7493 119.872 39.9297 114.681 32.544C112.085 28.6223 106 34.9544 108.144 57.037Z" fill="url(#paint36_linear_496_40769)"/>
<path d="M117.878 37.3809C126.793 42.2976 127.229 76.2995 122.447 75.8844C112.165 74.9905 107.16 31.4691 117.878 37.3809Z" fill="url(#paint37_linear_496_40769)"/>
<path style="mix-blend-mode:multiply" opacity="0.85" d="M120.904 40.5948C119.803 38.7484 117.069 38.8974 116.144 40.8396C112.819 47.7996 115.894 69.3075 122.005 75.8152C122.154 75.8471 122.298 75.8684 122.447 75.8844C126.612 76.2462 126.814 50.492 120.904 40.5948Z" fill="url(#paint38_linear_496_40769)"/>
<path d="M24.4362 37.4553C24.4362 37.4553 29.032 35.3801 29.1596 32.6184C29.1596 32.6184 26.8724 32.7195 26.4362 28.7926C26.0373 25.1902 24.0479 21.8006 19.7075 23.7748C15.3671 25.7489 13.915 32.794 15.4203 35.8643C16.9256 38.9346 18.4309 38.344 18.016 43.1596C18.016 43.1596 22.1171 43.0851 22.3511 39.6157C22.3511 39.6157 22.5586 38.2056 23.7394 36.8062L24.4362 37.4607V37.4553Z" fill="#3E1E43"/>
<path d="M54.8139 37.6841C54.8139 37.6841 50.1118 35.6301 49.9841 32.8685C49.9841 32.8685 52.3777 32.9483 52.8192 29.0213C53.2182 25.4189 55.2075 22.0294 59.548 24.0035C63.8884 25.9776 65.3405 33.0228 63.8352 36.0931C62.3299 39.1634 61.0001 38.5727 61.4203 43.3883C61.4203 43.3883 57.1384 43.3138 56.9043 39.8445C56.9043 39.8445 56.6969 38.4344 55.516 37.0349L54.8192 37.6894L54.8139 37.6841Z" fill="#3E1E43"/>
<path style="mix-blend-mode:multiply" opacity="0.85" d="M79.4415 35.6195C78.6755 44.2663 83.5638 59.9317 88.4681 58.4843C90.3457 52.2427 86.6011 38.7537 82.5479 34.5181C81.4787 33.4006 79.5745 34.0817 79.4362 35.6249L79.4415 35.6195Z" fill="url(#paint39_linear_496_40769)"/>
<path d="M86.7553 45.0432C85.5106 40.5682 83.5585 37.5085 82.3989 38.2163C81.2394 38.924 81.3085 43.1223 82.5532 47.6027C83.7979 52.0777 85.75 55.1374 86.9096 54.4297C88.0691 53.722 88 49.5236 86.7553 45.0432Z" fill="url(#paint40_linear_496_40769)"/>
<g style="mix-blend-mode:multiply">
<path d="M85.8936 52.9664C86.8457 52.3864 86.7872 48.9436 85.7659 45.2774C84.7446 41.6058 83.1436 39.1049 82.1914 39.6796C81.8617 39.8818 81.6542 40.4405 81.5638 41.228C81.5585 42.9627 81.8829 45.2455 82.5425 47.6027C82.9414 49.0447 83.4202 50.3378 83.9148 51.4073C84.6329 52.6578 85.3617 53.2856 85.8883 52.9664H85.8936Z" fill="#A59AC2"/>
</g>
<path d="M84.8723 45.6552C84.0585 42.7232 82.617 40.8183 81.6649 41.3983C81.633 41.4196 81.6064 41.4462 81.5745 41.4675C81.5957 43.1702 81.9202 45.3465 82.5479 47.6027C82.9468 49.0447 83.4255 50.3377 83.9202 51.4073C84.0691 51.668 84.2234 51.8968 84.3723 52.1044C84.4574 52.0884 84.5372 52.0618 84.617 52.0192C85.5745 51.4392 85.6862 48.5871 84.8723 45.6552Z" fill="#D6FFFF"/>
<mask id="mask2_496_40769" style="mask-type:luminance" maskUnits="userSpaceOnUse" x="81" y="38" width="7" height="17">
<path d="M86.7553 45.0432C85.5106 40.5682 83.5585 37.5085 82.3989 38.2163C81.2394 38.924 81.3085 43.1223 82.5532 47.6027C83.7979 52.0777 85.75 55.1374 86.9096 54.4297C88.0691 53.722 88 49.5236 86.7553 45.0432Z" fill="white"/>
</mask>
<g mask="url(#mask2_496_40769)">
<path style="mix-blend-mode:color-dodge" d="M86.2073 44.8889C87.3563 49.0181 86.7659 53.2856 84.8935 54.4243C83.0212 55.563 80.569 53.1419 79.4201 49.0128C78.2712 44.8836 78.8616 40.616 80.7339 39.4773C82.6063 38.3386 85.0584 40.7597 86.2073 44.8889Z" fill="url(#paint41_radial_496_40769)"/>
</g>
<path d="M123.984 53.0408C123.239 46.9641 121.298 42.5955 119.649 43.2872C118 43.979 117.261 49.465 118.005 55.5418C118.75 61.6185 120.692 65.9871 122.34 65.2953C123.989 64.6036 124.729 59.1175 123.984 53.0408Z" fill="url(#paint42_linear_496_40769)"/>
<g style="mix-blend-mode:multiply">
<path d="M121.314 63.1881C122.665 62.6241 123.271 58.1225 122.66 53.1419C122.048 48.1613 120.458 44.5802 119.106 45.1496C118.633 45.3465 118.255 46.0329 117.984 47.0439C117.638 49.3054 117.612 52.3384 118.005 55.5417C118.245 57.4999 118.612 59.2771 119.048 60.767C119.734 62.5336 120.559 63.5021 121.309 63.1881H121.314Z" fill="#A59AC2"/>
</g>
<path d="M121.415 53.4612C120.926 49.481 119.431 46.714 118.069 47.2834C118.027 47.2993 117.984 47.3312 117.942 47.3578C117.638 49.5821 117.628 52.4768 118.005 55.5417C118.245 57.4999 118.612 59.2771 119.048 60.767C119.192 61.1395 119.346 61.4641 119.5 61.7621C119.612 61.7621 119.723 61.7408 119.835 61.6982C121.197 61.1289 121.904 57.4414 121.415 53.4612Z" fill="#D6FFFF"/>
<mask id="mask3_496_40769" style="mask-type:luminance" maskUnits="userSpaceOnUse" x="117" y="43" width="8" height="23">
<path d="M123.984 53.0408C123.239 46.9641 121.298 42.5955 119.649 43.2872C118 43.979 117.261 49.465 118.005 55.5418C118.75 61.6185 120.692 65.9871 122.34 65.2953C123.989 64.6036 124.729 59.1175 123.984 53.0408Z" fill="white"/>
</mask>
<g mask="url(#mask3_496_40769)">
<path style="mix-blend-mode:color-dodge" d="M123.303 52.7269C123.989 58.33 122.383 63.7735 119.718 64.8909C117.053 66.0084 114.34 62.3687 113.654 56.7656C112.968 51.1625 114.575 45.719 117.239 44.6015C119.904 43.4841 122.617 47.1237 123.303 52.7269Z" fill="url(#paint43_radial_496_40769)"/>
</g>
<path style="mix-blend-mode:multiply" opacity="0.85" d="M20.9256 24.4453C16.5851 24.7379 14.867 31.0807 15.7819 34.8534C16.5639 38.0726 22.0319 37.6363 22.3351 39.6796C22.3351 39.653 22.3458 39.6317 22.3458 39.6104C22.3458 39.6104 22.5532 38.2003 23.7341 36.8009C20.8617 33.9381 25.2607 24.1526 20.9202 24.4453H20.9256Z" fill="url(#paint44_linear_496_40769)"/>
<path style="mix-blend-mode:multiply" opacity="0.85" d="M63.2659 35.5397C65.2074 32.6237 61.7233 22.2795 57.7818 24.8496C53.8403 27.4197 57.4946 34.8533 55.5159 37.0243C56.6967 38.429 56.9042 39.8338 56.9042 39.8338C56.9201 40.0307 56.9467 40.2169 56.984 40.3925C57.0105 38.5301 61.6488 37.9555 63.2659 35.5344V35.5397Z" fill="url(#paint45_linear_496_40769)"/>
<path style="mix-blend-mode:color-dodge" opacity="0.52" d="M24.383 29.6546C25.0692 26.7705 25.1118 24.5516 23.8086 23.647C23.4309 23.4342 23.0213 23.2799 22.5586 23.2213C22.5267 23.2213 22.4947 23.2213 22.4628 23.216C21.6756 23.1362 20.7607 23.2958 19.7075 23.7747C15.3671 25.7489 13.915 32.794 15.4203 35.8643C15.6596 36.3538 15.9043 36.7476 16.1384 37.0881C17.1437 38.3918 22.3139 39.621 21.7181 41.4355C22.0479 40.9832 22.282 40.4138 22.3405 39.6848C22.032 37.6415 16.5639 38.0779 15.7873 34.8586C14.8724 31.0859 16.5852 24.7432 20.9309 24.4505C25.2767 24.1578 20.8724 33.9434 23.7447 36.8061L24.4416 37.4606C24.4416 37.4606 24.8937 37.2531 25.5213 36.8913C24.0745 35.4599 23.532 33.2623 24.3884 29.6599L24.383 29.6546Z" fill="url(#paint46_linear_496_40769)"/>
<path style="mix-blend-mode:color-dodge" opacity="0.52" d="M54.8086 32.5386C54.0214 29.5322 53.6863 24.126 56.3671 23.514C54.1969 24.0036 53.1065 26.4513 52.8192 29.0107C52.3831 32.943 49.9841 32.8579 49.9841 32.8579C50.0586 34.5553 51.8618 35.9814 53.2448 36.8328C53.2554 36.8328 55.6065 35.5823 54.8086 32.5333V32.5386Z" fill="url(#paint47_linear_496_40769)"/>
<g style="mix-blend-mode:multiply" opacity="0.71">
<path d="M74.4361 126.717C70.9414 128.366 67.4946 127.675 67.4946 127.675C66.4095 123.386 70.085 120.656 70.085 120.656C65.1914 121.811 65.7818 128.021 65.7818 128.021C60.8669 129.335 59.0957 127.222 59.0957 127.222C57.7233 122.423 60.452 118.81 60.452 118.81C56.1542 122.918 57.3244 126.876 57.3244 126.876C52.8829 125.919 53.2871 123.577 53.3031 123.503C53.0371 124.094 52.7765 124.737 52.5159 125.461C52.5159 125.461 58.9254 134.757 74.4361 126.722V126.717Z" fill="#A59AC2"/>
</g>
<g style="mix-blend-mode:multiply" opacity="0.71">
<path d="M131.075 115.798C127.41 117.751 124.229 116.99 124.229 116.99C122.798 112.361 126.021 110.104 126.021 110.104C121.872 111.504 122.404 117.277 122.404 117.277C119.489 118.533 114.787 116.644 114.787 116.644C113 111.781 116.394 108.253 116.394 108.253C112.154 111.632 112.809 115.798 112.809 115.798C110.032 115.92 109.059 113.451 109.043 113.409C108.846 113.872 108.649 114.367 108.458 114.904C108.458 114.904 115.059 124.498 131.085 115.798H131.075Z" fill="#A59AC2"/>
</g>
<path style="mix-blend-mode:screen" opacity="0.74" d="M101.085 27.6486C98.9414 27.6432 74.3297 14.3564 72.5371 10.3656C73.0105 12.3078 74.8456 15.4685 77.3137 18.9698C73.9201 13.5104 95.7712 26.2598 99.8084 28.4733C103.893 30.7135 100.915 35.7633 100.745 36.0453C103.069 33.5124 104.016 28.7766 102.675 25.1796C102.675 25.1796 103.239 27.6592 101.096 27.6539L101.085 27.6486Z" fill="url(#paint48_linear_496_40769)"/>
<path style="mix-blend-mode:screen" opacity="0.74" d="M74.4362 96.956C76.4681 98.1213 75.484 101.99 75.0053 103.501C76.3989 99.2706 77.3564 94.0134 77.7659 89.086C77.4042 90.8048 76.7979 93.0875 75.9202 94.471C74.3776 96.9134 58.1223 89.1499 58.0904 85.8082C58.0532 89.8257 58.2925 94.1411 58.8776 98.0893C57.6117 89.7139 71.8883 95.498 74.4308 96.956H74.4362Z" fill="url(#paint49_linear_496_40769)"/>
<path style="mix-blend-mode:screen" opacity="0.74" d="M54.1223 14.3937C59.1489 14.963 55.5106 19.0124 55.5106 19.0124C59.0159 15.2823 61.3776 10.9988 60.5478 7.4922C60.7499 8.47128 60.8403 11.5309 54.2393 12.1056C46.3563 12.792 23.2925 12.792 29.2286 7.19421C25.5584 10.7647 22.5691 14.9151 20.9414 17.7939C25.351 11.1372 49.0957 13.819 54.1223 14.3884V14.3937Z" fill="url(#paint50_linear_496_40769)"/>
<path style="mix-blend-mode:screen" opacity="0.74" d="M105.271 39.2964C107.457 39.2379 107.814 42.404 107.814 44.4898C108.064 40.5309 108.686 37.5458 109.484 35.4439C107.372 40.7065 103.154 36.7849 103.697 34.7788C102.798 37.5139 102.25 41.0896 102.005 45.4423C102.282 43.0585 103.069 39.3603 105.271 39.3018V39.2964Z" fill="url(#paint51_linear_496_40769)"/>
<path style="mix-blend-mode:screen" opacity="0.74" d="M114.782 49.5236C114.782 46.3309 115.117 43.516 115.846 41.5525C114.638 45.3784 112.016 42.8722 112.926 39.8285C112.25 41.7122 111.92 44.3408 111.899 47.3419C111.952 43.1435 114.707 46.0914 114.787 49.5182L114.782 49.5236Z" fill="url(#paint52_linear_496_40769)"/>
<path style="mix-blend-mode:screen" opacity="0.74" d="M80.3724 45.8201C79.7448 43.0371 79.3777 40.185 79.3618 37.6841C79.3618 37.7267 79.3618 37.7692 79.3618 37.8171C79.3458 41.5206 77.2075 39.8285 77.032 37.8171C76.7448 39.8604 76.8192 42.3986 77.1809 45.0538C76.7501 38.4503 80.3777 45.8201 80.3777 45.8201H80.3724Z" fill="url(#paint53_linear_496_40769)"/>
<path d="M17.0531 102.868C16.2234 97.2326 10.351 85.9359 5.04251 88.7082C1.32442 90.6504 0.856339 97.2113 0.8457 97.9084C0.563785 104.256 1.17549 110.28 7.01059 116.277C15.2659 124.764 19.2659 118.49 19.2659 118.49C19.2659 118.49 19.7925 116.027 17.0531 102.868Z" fill="#3E1E43"/>
<path d="M16.4415 100.276C16.4415 100.276 10.1755 101.75 11.266 105.869C11.266 105.869 7.27128 112.547 10.367 115.638C10.367 115.638 7.42553 120.289 17.7553 122.891C17.7553 122.891 26.6596 115.383 16.4415 100.276Z" fill="#6F5175"/>
<g style="mix-blend-mode:multiply" opacity="0.71">
<path d="M16.4414 100.276C18.7446 103.735 18.2924 106.976 18.2924 106.976C13.8243 108.849 11.2658 105.864 11.2658 105.864C13.0637 109.86 18.7552 108.769 18.7552 108.769C20.2924 111.546 18.8669 116.415 18.8669 116.415C14.202 118.671 10.3616 115.638 10.3616 115.638C14.1382 119.533 18.218 118.475 18.218 118.475C18.6116 121.226 16.2446 122.439 16.2073 122.455C16.686 122.604 17.1967 122.753 17.7499 122.891C17.7499 122.891 26.6541 115.383 16.436 100.276H16.4414Z" fill="#A59AC2"/>
</g>
<path d="M61.1595 47.3206C61.4308 48.4008 61.2553 49.3746 60.7659 49.4969C60.2766 49.6193 59.6595 48.8478 59.3883 47.7676C59.117 46.6874 59.2925 45.7136 59.7819 45.5913C60.2712 45.4689 60.8883 46.2404 61.1595 47.3206Z" fill="#3E1E43"/>
<path d="M18.4786 47.5548C18.1541 48.4328 17.7286 49.082 17.5265 49.0075C17.3243 48.933 17.4148 48.1614 17.7392 47.2834C18.0637 46.4055 18.4892 45.7563 18.6914 45.8308C18.8988 45.9053 18.8031 46.6768 18.4786 47.5548Z" fill="#3E1E43"/>
<path d="M102.692 24.6687C103.654 25.2274 104.324 25.866 104.186 26.1054C104.048 26.3449 103.16 26.0841 102.197 25.5254C101.234 24.9667 100.564 24.3282 100.702 24.0887C100.84 23.8493 101.729 24.11 102.692 24.6687Z" fill="#3E1E43"/>
<path d="M67.3403 14.8459C67.8137 15.4419 68.0159 16.0644 67.8031 16.2347C67.5903 16.405 67.0318 16.0591 66.5584 15.4578C66.085 14.8619 65.8829 14.2393 66.0957 14.069C66.3084 13.8987 66.8669 14.2446 67.3403 14.8459Z" fill="#3E1E43"/>
<path d="M82.4681 75.5385C82.5106 76.2994 82.3245 76.9273 82.0532 76.9432C81.7819 76.9592 81.5213 76.3526 81.4787 75.597C81.4362 74.8361 81.6223 74.2082 81.8936 74.1922C82.1649 74.1762 82.4255 74.7829 82.4681 75.5385Z" fill="#3E1E43"/>
</g>
<defs>
<linearGradient id="paint0_linear_496_40769" x1="69.7354" y1="71.4402" x2="89.4878" y2="76.4512" gradientUnits="userSpaceOnUse">
<stop stop-color="#F3D6D2"/>
<stop offset="1" stop-color="#A59AC2"/>
</linearGradient>
<linearGradient id="paint1_linear_496_40769" x1="99.2607" y1="97.3178" x2="114.845" y2="84.1857" gradientUnits="userSpaceOnUse">
<stop stop-color="#F3D6D2"/>
<stop offset="1" stop-color="#A59AC2"/>
</linearGradient>
<linearGradient id="paint2_linear_496_40769" x1="60.8084" y1="77.4966" x2="83.3137" y2="77.4966" gradientUnits="userSpaceOnUse">
<stop stop-color="white"/>
<stop offset="0.22" stop-color="#E5E2ED"/>
<stop offset="0.56" stop-color="#C2BBD6"/>
<stop offset="0.83" stop-color="#ACA2C7"/>
<stop offset="1" stop-color="#A59AC2"/>
</linearGradient>
<linearGradient id="paint3_linear_496_40769" x1="77.8511" y1="55.9834" x2="111.245" y2="55.9834" gradientUnits="userSpaceOnUse">
<stop stop-color="white"/>
<stop offset="0.22" stop-color="#E5E2ED"/>
<stop offset="0.56" stop-color="#C2BBD6"/>
<stop offset="0.83" stop-color="#ACA2C7"/>
<stop offset="1" stop-color="#A59AC2"/>
</linearGradient>
<linearGradient id="paint4_linear_496_40769" x1="51.6329" y1="9.57276" x2="98.7566" y2="56.6845" gradientUnits="userSpaceOnUse">
<stop stop-color="#F3D6D2"/>
<stop offset="1" stop-color="#A59AC2"/>
</linearGradient>
<linearGradient id="paint5_linear_496_40769" x1="87.5584" y1="75.6023" x2="87.5584" y2="31.7723" gradientUnits="userSpaceOnUse">
<stop stop-color="#A59AC2"/>
<stop offset="0.17" stop-color="#ACA2C7"/>
<stop offset="0.44" stop-color="#C2BBD6"/>
<stop offset="0.78" stop-color="#E5E2ED"/>
<stop offset="1" stop-color="white"/>
</linearGradient>
<linearGradient id="paint6_linear_496_40769" x1="95.7712" y1="15.2024" x2="67.5321" y2="43.4311" gradientUnits="userSpaceOnUse">
<stop stop-color="white"/>
<stop offset="0.22" stop-color="#E5E2ED"/>
<stop offset="0.56" stop-color="#C2BBD6"/>
<stop offset="0.83" stop-color="#ACA2C7"/>
<stop offset="1" stop-color="#A59AC2"/>
</linearGradient>
<linearGradient id="paint7_linear_496_40769" x1="82.1489" y1="18.3365" x2="104.237" y2="40.4217" gradientUnits="userSpaceOnUse">
<stop stop-color="#A59AC2"/>
<stop offset="1"/>
</linearGradient>
<linearGradient id="paint8_linear_496_40769" x1="67.8935" y1="37.0456" x2="67.8935" y2="4.01745" gradientUnits="userSpaceOnUse">
<stop stop-color="white"/>
<stop offset="0.22" stop-color="#E5E2ED"/>
<stop offset="0.56" stop-color="#C2BBD6"/>
<stop offset="0.83" stop-color="#ACA2C7"/>
<stop offset="1" stop-color="#A59AC2"/>
</linearGradient>
<linearGradient id="paint9_linear_496_40769" x1="80.0107" y1="67.2907" x2="96.4841" y2="67.2907" gradientUnits="userSpaceOnUse">
<stop stop-color="white"/>
<stop offset="0.22" stop-color="#E5E2ED"/>
<stop offset="0.56" stop-color="#C2BBD6"/>
<stop offset="0.83" stop-color="#ACA2C7"/>
<stop offset="1" stop-color="#A59AC2"/>
</linearGradient>
<linearGradient id="paint10_linear_496_40769" x1="63.9414" y1="14.4202" x2="76.8228" y2="76.4944" gradientUnits="userSpaceOnUse">
<stop stop-color="#F3D6D2"/>
<stop offset="0.16" stop-color="#E2C9CE"/>
<stop offset="0.51" stop-color="#C1AFC7"/>
<stop offset="0.8" stop-color="#AC9FC3"/>
<stop offset="1" stop-color="#A59AC2"/>
</linearGradient>
<linearGradient id="paint11_linear_496_40769" x1="74.1649" y1="87.4844" x2="74.1649" y2="39.5625" gradientUnits="userSpaceOnUse">
<stop offset="0.24" stop-color="#A59AC2"/>
<stop offset="0.37" stop-color="#ACA2C7"/>
<stop offset="0.58" stop-color="#C2BBD6"/>
<stop offset="0.84" stop-color="#E5E2ED"/>
<stop offset="1" stop-color="white"/>
</linearGradient>
<linearGradient id="paint12_linear_496_40769" x1="87.4574" y1="70.2919" x2="54.5996" y2="103.132" gradientUnits="userSpaceOnUse">
<stop offset="0.02" stop-color="#A59AC2"/>
<stop offset="0.22" stop-color="#AEA1C4"/>
<stop offset="0.57" stop-color="#C9B6C9"/>
<stop offset="0.99" stop-color="#F3D6D2"/>
</linearGradient>
<linearGradient id="paint13_linear_496_40769" x1="74.2039" y1="37.8142" x2="90.4583" y2="56.1732" gradientUnits="userSpaceOnUse">
<stop stop-color="#F3D6D2"/>
<stop offset="1" stop-color="#A59AC2"/>
</linearGradient>
<linearGradient id="paint14_linear_496_40769" x1="71.585" y1="111.77" x2="71.585" y2="68.3604" gradientUnits="userSpaceOnUse">
<stop stop-color="white"/>
<stop offset="0.22" stop-color="#E5E2ED"/>
<stop offset="0.56" stop-color="#C2BBD6"/>
<stop offset="0.83" stop-color="#ACA2C7"/>
<stop offset="1" stop-color="#A59AC2"/>
</linearGradient>
<linearGradient id="paint15_linear_496_40769" x1="71.516" y1="63.6777" x2="71.516" y2="27.1217" gradientUnits="userSpaceOnUse">
<stop offset="0.1" stop-color="#A59AC2"/>
<stop offset="0.25" stop-color="#ACA2C7"/>
<stop offset="0.5" stop-color="#C2BBD6"/>
<stop offset="0.81" stop-color="#E5E2ED"/>
<stop offset="1" stop-color="white"/>
</linearGradient>
<linearGradient id="paint16_linear_496_40769" x1="-14.8246" y1="93.4334" x2="26.913" y2="78.2569" gradientUnits="userSpaceOnUse">
<stop offset="0.34" stop-color="#F3D6D2"/>
<stop offset="1" stop-color="#A59AC2"/>
</linearGradient>
<linearGradient id="paint17_linear_496_40769" x1="1.02658" y1="91.7519" x2="43.841" y2="71.262" gradientUnits="userSpaceOnUse">
<stop stop-color="white"/>
<stop offset="0.22" stop-color="#E5E2ED"/>
<stop offset="0.56" stop-color="#C2BBD6"/>
<stop offset="0.83" stop-color="#ACA2C7"/>
<stop offset="1" stop-color="#A59AC2"/>
</linearGradient>
<linearGradient id="paint18_linear_496_40769" x1="20.6914" y1="15.7239" x2="57.3752" y2="52.3941" gradientUnits="userSpaceOnUse">
<stop offset="0.11" stop-color="#F3D6D2"/>
<stop offset="1" stop-color="#A59AC2"/>
</linearGradient>
<linearGradient id="paint19_linear_496_40769" x1="35.9839" y1="11.4245" x2="48.0628" y2="23.499" gradientUnits="userSpaceOnUse">
<stop stop-color="#A59AC2"/>
<stop offset="1"/>
</linearGradient>
<linearGradient id="paint20_linear_496_40769" x1="59.7394" y1="55.1107" x2="59.7394" y2="15.6547" gradientUnits="userSpaceOnUse">
<stop offset="0.13" stop-color="#A59AC2"/>
<stop offset="0.28" stop-color="#ACA2C7"/>
<stop offset="0.52" stop-color="#C2BBD6"/>
<stop offset="0.81" stop-color="#E5E2ED"/>
<stop offset="1" stop-color="white"/>
</linearGradient>
<linearGradient id="paint21_linear_496_40769" x1="27.7607" y1="14.4841" x2="72.46" y2="86.6076" gradientUnits="userSpaceOnUse">
<stop stop-color="white"/>
<stop offset="0.22" stop-color="#E5E2ED"/>
<stop offset="0.56" stop-color="#C2BBD6"/>
<stop offset="0.83" stop-color="#ACA2C7"/>
<stop offset="1" stop-color="#A59AC2"/>
</linearGradient>
<linearGradient id="paint22_linear_496_40769" x1="20.7979" y1="39.1474" x2="72.2637" y2="90.5942" gradientUnits="userSpaceOnUse">
<stop stop-color="#F3D6D2"/>
<stop offset="1" stop-color="#A59AC2"/>
</linearGradient>
<linearGradient id="paint23_linear_496_40769" x1="25.1649" y1="52.9344" x2="25.1649" y2="39.3602" gradientUnits="userSpaceOnUse">
<stop stop-color="#A59AC2"/>
<stop offset="1"/>
</linearGradient>
<linearGradient id="paint24_linear_496_40769" x1="51.8563" y1="52.4396" x2="51.8563" y2="39.9563" gradientUnits="userSpaceOnUse">
<stop stop-color="#A59AC2"/>
<stop offset="1"/>
</linearGradient>
<linearGradient id="paint25_linear_496_40769" x1="109.202" y1="90.7888" x2="124.787" y2="77.6567" gradientUnits="userSpaceOnUse">
<stop stop-color="white"/>
<stop offset="0.22" stop-color="#E5E2ED"/>
<stop offset="0.56" stop-color="#C2BBD6"/>
<stop offset="0.83" stop-color="#ACA2C7"/>
<stop offset="1" stop-color="#A59AC2"/>
</linearGradient>
<linearGradient id="paint26_linear_496_40769" x1="38.7606" y1="56.3825" x2="38.7606" y2="33.8582" gradientUnits="userSpaceOnUse">
<stop stop-color="#FFC293"/>
<stop offset="0.14" stop-color="#E2AC82"/>
<stop offset="0.44" stop-color="#987457"/>
<stop offset="0.87" stop-color="#241B14"/>
<stop offset="1"/>
</linearGradient>
<linearGradient id="paint27_linear_496_40769" x1="15.7075" y1="54.2328" x2="44.1964" y2="69.8626" gradientUnits="userSpaceOnUse">
<stop stop-color="white"/>
<stop offset="0.22" stop-color="#E5E2ED"/>
<stop offset="0.56" stop-color="#C2BBD6"/>
<stop offset="0.83" stop-color="#ACA2C7"/>
<stop offset="1" stop-color="#A59AC2"/>
</linearGradient>
<linearGradient id="paint28_linear_496_40769" x1="30.2127" y1="48.3636" x2="93.7098" y2="76.6492" gradientUnits="userSpaceOnUse">
<stop stop-color="white"/>
<stop offset="0.22" stop-color="#E5E2ED"/>
<stop offset="0.56" stop-color="#C2BBD6"/>
<stop offset="0.83" stop-color="#ACA2C7"/>
<stop offset="1" stop-color="#A59AC2"/>
</linearGradient>
<linearGradient id="paint29_linear_496_40769" x1="36.0532" y1="51.8596" x2="36.0532" y2="62.5337" gradientUnits="userSpaceOnUse">
<stop stop-color="#A59AC2"/>
<stop offset="0.17" stop-color="#ACA2C7"/>
<stop offset="0.44" stop-color="#C2BBD6"/>
<stop offset="0.78" stop-color="#E5E2ED"/>
<stop offset="1" stop-color="white"/>
</linearGradient>
<radialGradient id="paint30_radial_496_40769" cx="0" cy="0" r="1" gradientUnits="userSpaceOnUse" gradientTransform="translate(46.7558 58.1379) rotate(60.0091) scale(6.34026 10.6333)">
<stop stop-color="#6800FF"/>
<stop offset="0.03" stop-color="#6100EF"/>
<stop offset="0.14" stop-color="#4B00B8"/>
<stop offset="0.26" stop-color="#370086"/>
<stop offset="0.37" stop-color="#26005D"/>
<stop offset="0.49" stop-color="#18003B"/>
<stop offset="0.61" stop-color="#0D0021"/>
<stop offset="0.73" stop-color="#06000E"/>
<stop offset="0.86" stop-color="#010003"/>
<stop offset="1"/>
</radialGradient>
<radialGradient id="paint31_radial_496_40769" cx="0" cy="0" r="1" gradientUnits="userSpaceOnUse" gradientTransform="translate(30.2361 58.8362) rotate(126.53) scale(6.65999 11.1704)">
<stop stop-color="#6800FF"/>
<stop offset="0.03" stop-color="#6100EF"/>
<stop offset="0.14" stop-color="#4B00B8"/>
<stop offset="0.26" stop-color="#370086"/>
<stop offset="0.37" stop-color="#26005D"/>
<stop offset="0.49" stop-color="#18003B"/>
<stop offset="0.61" stop-color="#0D0021"/>
<stop offset="0.73" stop-color="#06000E"/>
<stop offset="0.86" stop-color="#010003"/>
<stop offset="1"/>
</radialGradient>
<linearGradient id="paint32_linear_496_40769" x1="39.2818" y1="83.6744" x2="39.2818" y2="66.8172" gradientUnits="userSpaceOnUse">
<stop stop-color="white"/>
<stop offset="0.21" stop-color="#F0EEF5"/>
<stop offset="0.63" stop-color="#CAC4DB"/>
<stop offset="1" stop-color="#A59AC2"/>
</linearGradient>
<linearGradient id="paint33_linear_496_40769" x1="30.4202" y1="65.3326" x2="45.3351" y2="65.3326" gradientUnits="userSpaceOnUse">
<stop offset="0.14" stop-color="#FFC293"/>
<stop offset="0.26" stop-color="#E2AC82"/>
<stop offset="0.52" stop-color="#987457"/>
<stop offset="0.89" stop-color="#241B14"/>
<stop offset="1"/>
</linearGradient>
<linearGradient id="paint34_linear_496_40769" x1="81.8884" y1="29.4045" x2="116.46" y2="63.9577" gradientUnits="userSpaceOnUse">
<stop stop-color="#F3D6D2"/>
<stop offset="1" stop-color="#A59AC2"/>
</linearGradient>
<linearGradient id="paint35_linear_496_40769" x1="112.191" y1="71.1007" x2="121.594" y2="80.4996" gradientUnits="userSpaceOnUse">
<stop stop-color="#A59AC2"/>
<stop offset="1"/>
</linearGradient>
<linearGradient id="paint36_linear_496_40769" x1="114.106" y1="91.2039" x2="114.106" y2="34.4277" gradientUnits="userSpaceOnUse">
<stop stop-color="white"/>
<stop offset="0.22" stop-color="#E5E2ED"/>
<stop offset="0.56" stop-color="#C2BBD6"/>
<stop offset="0.83" stop-color="#ACA2C7"/>
<stop offset="1" stop-color="#A59AC2"/>
</linearGradient>
<linearGradient id="paint37_linear_496_40769" x1="102.335" y1="39.371" x2="125.86" y2="62.8816" gradientUnits="userSpaceOnUse">
<stop stop-color="#F3D6D2"/>
<stop offset="1" stop-color="#A59AC2"/>
</linearGradient>
<linearGradient id="paint38_linear_496_40769" x1="120.128" y1="71.5051" x2="120.128" y2="34.9172" gradientUnits="userSpaceOnUse">
<stop stop-color="white"/>
<stop offset="0.22" stop-color="#E5E2ED"/>
<stop offset="0.56" stop-color="#C2BBD6"/>
<stop offset="0.83" stop-color="#ACA2C7"/>
<stop offset="1" stop-color="#A59AC2"/>
</linearGradient>
<linearGradient id="paint39_linear_496_40769" x1="84.1649" y1="28.6382" x2="84.1649" y2="53.2537" gradientUnits="userSpaceOnUse">
<stop stop-color="#A59AC2"/>
<stop offset="0.17" stop-color="#ACA2C7"/>
<stop offset="0.44" stop-color="#C2BBD6"/>
<stop offset="0.78" stop-color="#E5E2ED"/>
<stop offset="1" stop-color="white"/>
</linearGradient>
<linearGradient id="paint40_linear_496_40769" x1="82.1298" y1="38.7108" x2="87.3122" y2="54.3458" gradientUnits="userSpaceOnUse">
<stop stop-color="#3E1E43"/>
<stop offset="0.52" stop-color="#502B74"/>
<stop offset="1" stop-color="#3E1E43"/>
</linearGradient>
<radialGradient id="paint41_radial_496_40769" cx="0" cy="0" r="1" gradientUnits="userSpaceOnUse" gradientTransform="translate(90.0992 42.45) rotate(-31.2993) scale(3.94917 7.44642)">
<stop stop-color="#6800FF"/>
<stop offset="0.1" stop-color="#6500F9"/>
<stop offset="0.22" stop-color="#5F00E9"/>
<stop offset="0.36" stop-color="#5400D0"/>
<stop offset="0.51" stop-color="#4600AC"/>
<stop offset="0.66" stop-color="#33007D"/>
<stop offset="0.83" stop-color="#1C0045"/>
<stop offset="0.99" stop-color="#010004"/>
<stop offset="1"/>
</radialGradient>
<linearGradient id="paint42_linear_496_40769" x1="119.202" y1="43.8757" x2="122.88" y2="65.2646" gradientUnits="userSpaceOnUse">
<stop stop-color="#3E1E43"/>
<stop offset="0.52" stop-color="#502B74"/>
<stop offset="1" stop-color="#3E1E43"/>
</linearGradient>
<radialGradient id="paint43_radial_496_40769" cx="0" cy="0" r="1" gradientUnits="userSpaceOnUse" gradientTransform="translate(133.327 48.4035) rotate(-22.7175) scale(5.20475 9.81478)">
<stop stop-color="#6800FF"/>
<stop offset="0.1" stop-color="#6500F9"/>
<stop offset="0.22" stop-color="#5F00E9"/>
<stop offset="0.36" stop-color="#5400D0"/>
<stop offset="0.51" stop-color="#4600AC"/>
<stop offset="0.66" stop-color="#33007D"/>
<stop offset="0.83" stop-color="#1C0045"/>
<stop offset="0.99" stop-color="#010004"/>
<stop offset="1"/>
</radialGradient>
<linearGradient id="paint44_linear_496_40769" x1="16.3458" y1="27.473" x2="25.4502" y2="36.574" gradientUnits="userSpaceOnUse">
<stop stop-color="white"/>
<stop offset="0.22" stop-color="#E5E2ED"/>
<stop offset="0.56" stop-color="#C2BBD6"/>
<stop offset="0.83" stop-color="#ACA2C7"/>
<stop offset="1" stop-color="#A59AC2"/>
</linearGradient>
<linearGradient id="paint45_linear_496_40769" x1="63.1542" y1="27.558" x2="53.6453" y2="37.0633" gradientUnits="userSpaceOnUse">
<stop stop-color="white"/>
<stop offset="0.22" stop-color="#E5E2ED"/>
<stop offset="0.56" stop-color="#C2BBD6"/>
<stop offset="0.83" stop-color="#ACA2C7"/>
<stop offset="1" stop-color="#A59AC2"/>
</linearGradient>
<linearGradient id="paint46_linear_496_40769" x1="20.1809" y1="41.4302" x2="20.1809" y2="23.1947" gradientUnits="userSpaceOnUse">
<stop/>
<stop offset="1" stop-color="#A59AC2"/>
</linearGradient>
<linearGradient id="paint47_linear_496_40769" x1="53.1756" y1="38.3865" x2="53.1756" y2="24.4665" gradientUnits="userSpaceOnUse">
<stop/>
<stop offset="1" stop-color="#A59AC2"/>
</linearGradient>
<linearGradient id="paint48_linear_496_40769" x1="72.5371" y1="23.2054" x2="103.282" y2="23.2054" gradientUnits="userSpaceOnUse">
<stop stop-color="#FFC293"/>
<stop offset="0.14" stop-color="#E2AC82"/>
<stop offset="0.44" stop-color="#987457"/>
<stop offset="0.87" stop-color="#241B14"/>
<stop offset="1"/>
</linearGradient>
<linearGradient id="paint49_linear_496_40769" x1="58.0904" y1="94.6519" x2="77.7659" y2="94.6519" gradientUnits="userSpaceOnUse">
<stop stop-color="#FFC293"/>
<stop offset="0.14" stop-color="#E2AC82"/>
<stop offset="0.44" stop-color="#987457"/>
<stop offset="0.87" stop-color="#241B14"/>
<stop offset="1"/>
</linearGradient>
<linearGradient id="paint50_linear_496_40769" x1="20.9414" y1="13.106" x2="60.7127" y2="13.106" gradientUnits="userSpaceOnUse">
<stop stop-color="#FFC293"/>
<stop offset="0.14" stop-color="#E2AC82"/>
<stop offset="0.44" stop-color="#987457"/>
<stop offset="0.87" stop-color="#241B14"/>
<stop offset="1"/>
</linearGradient>
<linearGradient id="paint51_linear_496_40769" x1="102.005" y1="40.1052" x2="109.484" y2="40.1052" gradientUnits="userSpaceOnUse">
<stop stop-color="#FFC293"/>
<stop offset="0.14" stop-color="#E2AC82"/>
<stop offset="0.44" stop-color="#987457"/>
<stop offset="0.87" stop-color="#241B14"/>
<stop offset="1"/>
</linearGradient>
<linearGradient id="paint52_linear_496_40769" x1="111.894" y1="44.676" x2="115.846" y2="44.676" gradientUnits="userSpaceOnUse">
<stop stop-color="#FFC293"/>
<stop offset="0.14" stop-color="#E2AC82"/>
<stop offset="0.44" stop-color="#987457"/>
<stop offset="0.87" stop-color="#241B14"/>
<stop offset="1"/>
</linearGradient>
<linearGradient id="paint53_linear_496_40769" x1="76.8512" y1="41.7547" x2="80.3724" y2="41.7547" gradientUnits="userSpaceOnUse">
<stop stop-color="#FFC293"/>
<stop offset="0.14" stop-color="#E2AC82"/>
<stop offset="0.44" stop-color="#987457"/>
<stop offset="0.87" stop-color="#241B14"/>
<stop offset="1"/>
</linearGradient>
<clipPath id="clip0_496_40769">
<rect width="132" height="130" fill="white"/>
</clipPath>
</defs>
</svg>
