<svg width="221" height="149" viewBox="0 0 221 149" fill="none" xmlns="http://www.w3.org/2000/svg">
<g clip-path="url(#clip0_496_41179)">
<path d="M21.5911 28.5871C20.8788 30.6525 20.5923 32.8572 20.7833 35.0325C20.9449 36.8709 21.481 38.8705 23.104 39.9545C23.9265 40.5038 24.9546 40.7455 25.9167 40.4745C26.159 40.4086 26.0709 40.0204 25.8212 40.0863C24.066 40.5844 22.465 39.244 21.7967 37.7206C21.4222 36.8783 21.2606 35.9481 21.1799 35.0398C21.0917 34.0437 21.1064 33.0403 21.2092 32.0515C21.3341 30.9089 21.5911 29.7809 21.973 28.6969C22.0538 28.4552 21.6719 28.338 21.5911 28.5797V28.5871Z" fill="#3E1E43"/>
<path d="M62.5698 43.4116C63.2381 42.855 64.0459 42.2104 64.9566 42.1445C65.7718 42.0859 66.4033 42.5913 66.7632 43.2798C67.5637 44.8179 67.0055 46.649 67.6885 48.2238C67.7913 48.4581 68.1365 48.2677 68.0337 48.0333C67.4241 46.627 67.8354 45.0377 67.3287 43.6021C67.1304 43.0454 66.8219 42.5107 66.3372 42.1518C65.8011 41.749 65.1182 41.6538 64.4792 41.8149C63.6494 42.0273 62.937 42.5767 62.2908 43.1187C62.0925 43.2798 62.3715 43.5654 62.5625 43.4043L62.5698 43.4116Z" fill="#3E1E43"/>
<path d="M197.455 71.1198C200.834 71.4347 210.491 78.0926 214.31 79.8724C218.128 81.6522 216.535 83.1025 213.281 83.1611C210.028 83.2197 206.731 82.3261 205.6 81.4911C205.6 81.4911 203.514 83.7397 194.202 82.2968C194.202 82.2968 193.901 83.5712 186.315 86.2593C178.728 88.9473 174.454 91.8185 174.52 93.4372C174.52 93.4372 183.451 100.879 188.327 103.706C193.203 106.526 197.308 107.573 202.457 107.559C207.605 107.544 210.674 109.58 210.851 110.466C210.851 110.466 215.015 109.287 218.833 111.001C222.652 112.715 221.352 113.294 215.529 113.286C209.705 113.286 198.153 113.403 198.153 113.403L189.84 114.077C189.84 114.077 174.388 108.701 172.728 107.515C171.061 106.328 162.006 91.5841 162.028 90.7711C162.05 89.9581 176.312 74.4304 176.312 74.4304L188.327 70.4679L197.455 71.1271V71.1198Z" fill="#3E1E43"/>
<path d="M152.048 82.9853C152.048 82.9853 156.557 81.4765 169.086 75.9978C181.615 70.5265 182.951 69.8453 194.334 69.7208L197.448 71.1125C197.448 71.1125 187.798 70.9806 181.96 72.9655C176.122 74.9504 174.029 83.8715 169.872 90.837C165.708 97.8025 151.909 84.6992 151.909 84.6992L152.056 82.978L152.048 82.9853Z" fill="url(#paint0_linear_496_41179)"/>
<path style="mix-blend-mode:multiply" d="M169.872 90.8444C173.522 84.7358 175.578 77.1331 179.962 74.0129C176.187 76.43 160.031 89.0646 160.031 89.0646L167.947 92.5656C168.704 92.2507 169.358 91.7013 169.872 90.8517V90.8444Z" fill="url(#paint1_linear_496_41179)"/>
<path style="mix-blend-mode:multiply" d="M166.949 76.9354C156.043 81.6523 152.048 82.9926 152.048 82.9926L151.901 84.7139C151.901 84.7139 165.708 97.8172 169.865 90.8517C173.514 84.7432 175.571 77.1405 179.955 74.0203C167.683 79.2352 155.573 82.6484 166.942 76.9427L166.949 76.9354Z" fill="url(#paint2_linear_496_41179)"/>
<path d="M146.93 78.9349C148.479 77.6678 150.771 77.4115 152.592 78.2391C154.582 79.1474 155.676 81.2495 156.058 83.3076C156.322 84.7359 156.293 86.2007 156.212 87.6436C156.198 87.9 156.594 87.9073 156.609 87.651C156.756 85.1094 156.697 82.3994 155.302 80.1728C154.722 79.2499 153.921 78.4442 152.937 77.9535C152.004 77.492 150.947 77.2943 149.904 77.3675C148.722 77.4554 147.583 77.8802 146.665 78.6346C146.467 78.7958 146.746 79.0814 146.937 78.9203L146.93 78.9349Z" fill="#3E1E43"/>
<path d="M151.909 84.7065C151.909 84.7065 165.231 88.3761 167.654 88.94C170.077 89.504 174.139 98.1175 179.558 105.039C184.978 111.961 188.312 112.854 198.153 113.396L195.686 114.451C195.686 114.451 187.563 114.356 182.584 114.136C177.612 113.916 176.085 114.077 160.67 104.585C145.255 95.0925 151.909 84.7139 151.909 84.7139V84.7065Z" fill="url(#paint3_linear_496_41179)"/>
<g style="mix-blend-mode:multiply">
<path d="M167.411 97.3118L174.094 97.114C174.014 96.9822 173.925 96.8503 173.845 96.7258L167.353 96.9163L165.296 97.9783L164.195 106.724C164.32 106.797 164.445 106.877 164.569 106.951L165.664 98.2347L167.411 97.3118Z" fill="#8880A8"/>
</g>
<path style="mix-blend-mode:color-dodge" opacity="0.52" d="M167.353 96.9163L173.845 96.7258C173.793 96.6379 173.734 96.5574 173.683 96.4695L167.213 96.6599L165.157 97.7219L164.033 106.621C164.092 106.658 164.143 106.687 164.202 106.724L165.304 97.9783L167.36 96.9163H167.353Z" fill="url(#paint4_linear_496_41179)"/>
<path style="mix-blend-mode:multiply" d="M160.67 104.578C176.085 114.07 177.612 113.909 182.584 114.129C187.556 114.348 195.685 114.444 195.685 114.444L198.153 113.389C194.04 113.162 191.081 112.869 188.613 112.107C176.9 109.558 169.556 104.182 154.611 85.4463C154.611 85.4463 152.937 87.7681 150.521 91.152C150.807 94.924 153.01 99.8607 160.677 104.578H160.67Z" fill="url(#paint5_linear_496_41179)"/>
<path style="mix-blend-mode:multiply" d="M188.606 112.107C188.606 112.107 188.577 112.107 188.533 112.085C187.651 111.807 186.836 111.47 186.051 111.052C183.282 109.778 178.648 107.288 174.058 103.179C166.846 96.7185 154.597 85.4463 154.597 85.4463C152.988 85.0068 151.901 84.7065 151.901 84.7065C151.901 84.7065 145.248 95.0852 160.663 104.578C176.077 114.07 177.605 113.909 182.577 114.129C187.549 114.348 195.678 114.444 195.678 114.444L198.146 113.389C194.041 113.162 191.074 112.869 188.606 112.107Z" fill="url(#paint6_linear_496_41179)"/>
<path d="M25.0206 85.0068C22.3107 98.1834 19.2703 111.719 18.2054 116.436C17.1406 121.16 12.2055 123.738 12.2055 123.738L12.0659 129.546C12.0659 129.546 20.1956 129.473 25.116 127.569C30.0364 125.665 45.4366 88.7789 45.4366 88.7789L25.0279 85.0068H25.0206Z" fill="url(#paint7_linear_496_41179)"/>
<g style="mix-blend-mode:multiply">
<path d="M28.0243 103.274L25.0941 105.837L18.6168 114.612C18.5433 114.956 18.4699 115.271 18.4038 115.572L25.3879 106.108L27.9215 103.904L33.6938 114.495C33.7673 114.348 33.8407 114.209 33.9141 114.063L28.1492 103.494L28.0317 103.274H28.0243Z" fill="#8880A8"/>
</g>
<path style="mix-blend-mode:color-dodge" opacity="0.52" d="M28.0316 102.922L25.1014 105.486L18.7269 114.121C18.6901 114.29 18.6534 114.451 18.6167 114.612L25.094 105.837L28.0242 103.274L28.1417 103.494L33.9067 114.063C33.9361 113.997 33.9728 113.938 34.0022 113.872L28.1491 103.142L28.0316 102.922Z" fill="url(#paint8_linear_496_41179)"/>
<path style="mix-blend-mode:multiply" d="M25.116 127.569C28.9202 126.097 38.9887 103.713 43.3583 93.6349L40.3032 87.8267L33.1062 86.4937L26.0634 89.4161C26.0634 89.4161 26.3498 93.7082 28.061 97.2971C28.061 97.2971 28.4502 126.902 21.9655 126.243C19.5053 125.994 13.6963 126.39 12.0953 128.125L12.0586 129.546C12.0586 129.546 20.1883 129.473 25.1087 127.569H25.116Z" fill="url(#paint9_linear_496_41179)"/>
<path d="M26.0562 89.4234C30.2275 101.348 36.2495 109.851 34.7293 94.3527C33.2091 78.8543 26.0562 89.4234 26.0562 89.4234Z" fill="#3E1E43"/>
<path d="M25.4688 62.9164C34.9718 57.2474 48.2055 89.3428 36.8298 93.8473C25.4541 98.3592 13.1384 70.2701 25.4688 62.9164Z" fill="url(#paint10_linear_496_41179)"/>
<path style="mix-blend-mode:multiply" d="M27.8775 61.913C37.3805 56.244 50.6142 88.3394 39.2385 92.8439C27.8628 97.3557 15.5471 69.2667 27.8775 61.913Z" fill="url(#paint11_linear_496_41179)"/>
<path d="M59.1992 115.696C69.5027 118.172 80.592 113.374 93.1133 108.21C105.635 103.039 118.898 100.828 118.898 100.828L124.185 100.52L153.958 96.3084L148.795 83.1025C148.795 83.1025 134.056 66.8424 130.428 65.4434C126.8 64.0444 113.037 63.7734 113.037 63.7734L79.3215 76.6058L60.3302 94.2502L56.8345 104.299L59.1992 115.703V115.696Z" fill="url(#paint12_linear_496_41179)"/>
<g style="mix-blend-mode:multiply">
<path d="M100.09 78.935C102.616 73.6102 104.775 69.4499 106.611 66.2125L105.444 66.652C105.444 66.652 105.407 66.7106 105.392 66.7399C105.289 66.923 105.187 67.1134 105.084 67.3039C104.981 67.487 104.886 67.6701 104.783 67.8532C104.673 68.0509 104.57 68.256 104.46 68.4538C104.357 68.6369 104.261 68.8273 104.159 69.0178C104.048 69.2302 103.931 69.4426 103.821 69.655C103.718 69.8454 103.615 70.0432 103.52 70.2336C103.402 70.4533 103.292 70.6804 103.174 70.9001C103.072 71.0979 102.969 71.2957 102.866 71.5007C102.748 71.7351 102.624 71.9768 102.499 72.2112C102.396 72.409 102.293 72.6067 102.198 72.8118C102.073 73.0608 101.941 73.3172 101.816 73.5735C101.713 73.7786 101.618 73.9764 101.515 74.1815C101.375 74.4525 101.243 74.7381 101.103 75.0164C101.008 75.2069 100.913 75.3973 100.817 75.5951C100.663 75.91 100.509 76.2323 100.354 76.5472C100.274 76.7157 100.185 76.8842 100.105 77.0599C99.8623 77.558 99.6273 78.0634 99.3776 78.5761C99.0619 79.2426 98.7461 79.8872 98.4376 80.5317C98.3348 80.7441 98.232 80.9492 98.1292 81.1616C97.9162 81.5864 97.7106 82.0112 97.4976 82.436C97.3801 82.6777 97.2553 82.9121 97.1378 83.1538C96.9468 83.5347 96.7559 83.9082 96.5649 84.2745C96.4401 84.5162 96.3152 84.7579 96.1904 84.9996C96.0068 85.3585 95.8158 85.7174 95.6323 86.0689C95.5074 86.3033 95.3826 86.5377 95.2651 86.7648C95.0741 87.1236 94.8832 87.4752 94.6996 87.8195C94.5821 88.0319 94.4719 88.2443 94.3544 88.4567C94.1488 88.8302 93.9505 89.1964 93.7449 89.5553C93.6421 89.7311 93.5466 89.9142 93.4438 90.09C93.1647 90.5881 92.8856 91.0715 92.6139 91.5549C92.5919 91.5915 92.5698 91.6281 92.5552 91.6648C92.2614 92.1775 91.9603 92.6829 91.6665 93.1809C91.5784 93.3347 91.4903 93.4812 91.3948 93.6277C91.1892 93.972 90.9909 94.3089 90.7853 94.6458C90.6751 94.8216 90.565 94.9974 90.4621 95.1805C90.2785 95.4808 90.095 95.7738 89.9187 96.0667C89.8085 96.2498 89.691 96.4256 89.5809 96.6087C89.4046 96.8871 89.2284 97.1654 89.0521 97.4364C88.942 97.6122 88.8245 97.788 88.7143 97.9564C88.538 98.2274 88.3618 98.4984 88.1855 98.7621C88.0754 98.9232 87.9726 99.0844 87.8624 99.2455C87.6715 99.5312 87.4805 99.8095 87.2896 100.088C87.2015 100.22 87.1133 100.351 87.0252 100.476C86.7682 100.85 86.5038 101.223 86.2467 101.582C86.2321 101.604 86.21 101.633 86.1953 101.655C85.9163 102.043 85.6445 102.424 85.3728 102.798C85.2994 102.9 85.2259 102.996 85.1525 103.091C84.9542 103.354 84.7559 103.618 84.565 103.882C84.4695 104.006 84.3741 104.131 84.2786 104.255C84.1023 104.482 83.9334 104.702 83.7645 104.922C83.6617 105.054 83.5662 105.178 83.4634 105.303C83.2945 105.515 83.1329 105.72 82.9714 105.925C82.8759 106.05 82.7731 106.167 82.6776 106.292C82.5087 106.497 82.3471 106.694 82.1782 106.892C82.0828 107.002 81.9946 107.119 81.8992 107.229C81.7229 107.441 81.5467 107.639 81.3704 107.844C81.2896 107.932 81.2162 108.027 81.1354 108.115C80.9004 108.379 80.6727 108.643 80.4451 108.892C80.423 108.914 80.4083 108.936 80.3863 108.958C80.1366 109.236 79.8869 109.507 79.6372 109.771C79.5785 109.837 79.5197 109.895 79.4536 109.961C79.27 110.152 79.0864 110.342 78.9102 110.532C78.8294 110.62 78.7486 110.701 78.6605 110.781C78.4989 110.943 78.3447 111.104 78.1905 111.257C78.1024 111.345 78.0142 111.426 77.9335 111.514C77.7792 111.66 77.6324 111.807 77.4855 111.946C77.3973 112.027 77.3092 112.114 77.2284 112.195C77.0816 112.334 76.9273 112.473 76.7805 112.613C76.6997 112.686 76.6189 112.759 76.5381 112.832C76.3765 112.979 76.215 113.118 76.0608 113.257C75.9947 113.316 75.9286 113.374 75.8625 113.426C75.6568 113.609 75.4512 113.784 75.2456 113.953C75.2309 113.96 75.2162 113.975 75.2089 113.99C74.9885 114.173 74.7609 114.356 74.5479 114.531C74.5038 114.561 74.4671 114.597 74.4304 114.627C74.2615 114.759 74.0852 114.898 73.9163 115.022C73.8502 115.074 73.7768 115.125 73.7107 115.176C73.6813 115.198 73.6446 115.227 73.6152 115.249C74.3276 115.081 75.0473 114.89 75.767 114.685C82.3031 109.214 90.6825 98.7548 100.097 78.9277L100.09 78.935Z" fill="#8880A8"/>
</g>
<g style="mix-blend-mode:multiply">
<path d="M117.862 67.5162V67.5821L117.87 67.648C117.899 67.7725 120.543 80.1288 93.0474 108.24C93.0694 108.232 93.0914 108.218 93.1135 108.21C93.6936 107.969 94.2738 107.742 94.854 107.515C120.675 80.7001 118.891 68.6588 118.648 67.5235C118.692 67.0474 118.81 65.6778 118.832 63.9858C118.56 63.9712 118.296 63.9565 118.031 63.9419C118.017 65.2017 117.951 66.4395 117.848 67.5089L117.862 67.5162Z" fill="#8880A8"/>
</g>
<g style="mix-blend-mode:multiply">
<path d="M132.726 66.9743C132.242 66.5788 131.801 66.2492 131.412 65.9928C131.514 66.2125 131.595 66.4103 131.705 66.6373C138.748 81.2495 123.333 95.0193 113.537 101.919C114.242 101.758 114.888 101.619 115.468 101.494C125.25 94.2869 138.91 81.1103 132.726 66.9743Z" fill="#8880A8"/>
</g>
<path style="mix-blend-mode:color-dodge" opacity="0.52" d="M73.7032 115.183C73.7693 115.132 73.8427 115.081 73.9088 115.03C74.0777 114.898 74.2466 114.766 74.4229 114.634C74.467 114.605 74.5037 114.575 74.5404 114.539C74.7607 114.363 74.981 114.187 75.2014 113.997C75.216 113.989 75.2307 113.975 75.2381 113.96C75.4437 113.792 75.6493 113.616 75.855 113.433C75.9211 113.374 75.9871 113.316 76.0532 113.264C76.2148 113.125 76.369 112.986 76.5306 112.84C76.6114 112.766 76.6922 112.693 76.7729 112.62C76.9198 112.481 77.0667 112.349 77.2209 112.202C77.3091 112.122 77.3972 112.041 77.478 111.953C77.6248 111.814 77.7791 111.668 77.9259 111.521C78.0141 111.433 78.1022 111.353 78.183 111.265C78.3372 111.111 78.4988 110.95 78.653 110.789C78.7338 110.708 78.8146 110.62 78.9027 110.54C79.0863 110.357 79.2625 110.166 79.4461 109.968C79.5049 109.902 79.5636 109.844 79.6297 109.778C79.8794 109.514 80.1291 109.243 80.3788 108.965C80.4008 108.943 80.4155 108.921 80.4376 108.899C80.6652 108.643 80.8929 108.386 81.1279 108.123C81.2087 108.035 81.2821 107.94 81.3629 107.852C81.5391 107.647 81.7154 107.449 81.8916 107.236C81.9871 107.127 82.0752 107.017 82.1707 106.899C82.3323 106.702 82.5012 106.504 82.6701 106.299C82.7656 106.182 82.8684 106.057 82.9639 105.933C83.1254 105.728 83.2943 105.522 83.4559 105.31C83.5587 105.186 83.6542 105.054 83.757 104.929C83.9259 104.709 84.1022 104.482 84.2711 104.263C84.3665 104.138 84.462 104.014 84.5575 103.889C84.7558 103.633 84.9467 103.369 85.145 103.098C85.2184 103.003 85.2919 102.9 85.3653 102.805C85.637 102.432 85.9161 102.051 86.1878 101.663C86.2025 101.641 86.2245 101.611 86.2392 101.589C86.4963 101.23 86.7533 100.857 87.0177 100.483C87.1058 100.359 87.1939 100.227 87.2821 100.095C87.473 99.8168 87.664 99.5385 87.8549 99.2528C87.9577 99.0917 88.0679 98.9306 88.178 98.7694C88.3543 98.5057 88.5305 98.2347 88.7068 97.9637C88.8169 97.7953 88.9344 97.6195 89.0446 97.4437C89.2209 97.1727 89.3971 96.8944 89.5734 96.616C89.6835 96.4403 89.801 96.2571 89.9112 96.074C90.0948 95.7811 90.2784 95.4881 90.4546 95.1878C90.5648 95.012 90.675 94.8362 90.7778 94.6531C90.9834 94.3235 91.1817 93.9793 91.3873 93.635C91.4754 93.4885 91.5636 93.3347 91.659 93.1882C91.9528 92.6902 92.2465 92.1848 92.5476 91.6721C92.5697 91.6355 92.5917 91.5988 92.6064 91.5622C92.8855 91.0788 93.1572 90.5954 93.4363 90.0973C93.5317 89.9216 93.6345 89.7384 93.7374 89.5627C93.943 89.1964 94.1413 88.8302 94.3469 88.464C94.4644 88.2516 94.5746 88.0392 94.6921 87.8268C94.883 87.4752 95.0666 87.1236 95.2576 86.7721C95.3824 86.5377 95.5072 86.3106 95.6247 86.0762C95.8083 85.7247 95.9919 85.3658 96.1829 85.0069C96.3077 84.7652 96.4326 84.5235 96.5574 84.2818C96.7484 83.9082 96.9393 83.5347 97.1302 83.1611C97.2477 82.9194 97.3726 82.6851 97.4901 82.4434C97.6957 82.0259 97.9087 81.6011 98.1217 81.1689C98.2245 80.9565 98.3273 80.7514 98.4301 80.539C98.7459 79.8945 99.0543 79.2426 99.3701 78.5834C99.6125 78.0707 99.8548 77.5653 100.097 77.0673C100.178 76.8915 100.266 76.723 100.347 76.5545C100.501 76.2323 100.655 75.91 100.81 75.6024C100.905 75.4046 101 75.2142 101.096 75.0238C101.235 74.7454 101.375 74.4598 101.507 74.1888C101.61 73.9837 101.705 73.7859 101.808 73.5808C101.933 73.3245 102.065 73.0681 102.19 72.8191C102.293 72.614 102.396 72.4163 102.491 72.2185C102.616 71.9768 102.734 71.7424 102.858 71.508C102.961 71.303 103.064 71.1052 103.167 70.9074C103.284 70.6804 103.402 70.4607 103.512 70.2409C103.615 70.0432 103.718 69.8527 103.813 69.6623C103.923 69.4499 104.041 69.2375 104.151 69.0251C104.254 68.8346 104.349 68.6442 104.452 68.4611C104.562 68.256 104.672 68.0583 104.775 67.8605C104.878 67.6774 104.974 67.4943 105.076 67.3112C105.179 67.1207 105.282 66.9303 105.385 66.7472C105.399 66.7179 105.422 66.6886 105.436 66.6593L104.885 66.8717C103.086 70.1237 101.103 74.0276 98.9368 78.5907C88.6774 100.205 79.615 110.525 72.9468 115.41C73.1598 115.359 73.3801 115.308 73.593 115.257C73.6224 115.235 73.6591 115.205 73.6885 115.183H73.7032Z" fill="url(#paint13_linear_496_41179)"/>
<path style="mix-blend-mode:color-dodge" opacity="0.52" d="M117.87 67.648L117.855 67.5821V67.5162C117.965 66.4468 118.031 65.2163 118.046 63.9492C117.899 63.9492 117.76 63.9346 117.62 63.9272C117.605 65.1944 117.539 66.4322 117.436 67.5016V67.5675L117.444 67.6334C117.473 67.7579 120.139 80.2094 92.313 108.54C92.5627 108.438 92.805 108.335 93.0547 108.232C120.55 80.1215 117.906 67.7652 117.877 67.6407L117.87 67.648Z" fill="url(#paint14_linear_496_41179)"/>
<path style="mix-blend-mode:color-dodge" opacity="0.52" d="M112.876 102.065C113.096 102.014 113.317 101.963 113.53 101.919C123.319 95.0192 138.734 81.2421 131.698 66.6372C131.588 66.4102 131.507 66.2124 131.405 65.9927C131.192 65.8535 130.993 65.7217 130.817 65.6265C130.964 65.9561 131.104 66.2783 131.272 66.6226C138.367 81.3446 122.658 95.217 112.876 102.065Z" fill="url(#paint15_linear_496_41179)"/>
<path style="mix-blend-mode:multiply" d="M102.925 80.9491C118.795 69.0397 128.893 63.8833 135.568 71.8156C141.877 79.3158 136.097 67.6334 128.951 65.0332C128.085 64.8501 127.027 64.689 125.874 64.5498C120.058 64.6377 106.508 67.7506 94.6187 70.7829L79.3287 76.5984L61.7694 92.9098L59.8527 95.6345L59.2505 97.3631L63.5907 116.311C72.6458 116.802 82.3544 112.649 93.1206 108.203C98.5404 105.969 104.092 104.285 108.653 103.098C88.8978 106.145 87.0545 92.8512 102.925 80.9418V80.9491Z" fill="url(#paint16_linear_496_41179)"/>
<path d="M130.722 65.9562L133.358 66.0221C133.358 66.0221 144.785 76.4374 148.883 79.3745C152.981 82.3042 153.671 82.9341 157.042 90.7126C160.406 98.4984 160.413 102.549 160.67 104.585C160.67 104.585 156.631 103.574 141.121 102.183C125.61 100.791 121.667 101.509 121.667 101.509L118.898 100.835C118.898 100.835 135.466 96.3744 141.106 94.177C146.746 91.9797 146.239 83.7618 130.722 65.9562Z" fill="url(#paint17_linear_496_41179)"/>
<path style="mix-blend-mode:multiply" d="M133.365 66.0148L130.729 65.9489C146.247 83.7544 146.761 91.9724 141.113 94.1697C135.473 96.367 118.905 100.828 118.905 100.828L121.674 101.501C121.674 101.501 138.073 98.1469 150.345 96.096C162.609 94.0379 146.203 81.6304 133.373 66.0148H133.365Z" fill="url(#paint18_linear_496_41179)"/>
<path d="M118.193 59.0638C118.193 59.0638 126.411 59.6718 131.059 64.7476C135.708 69.8234 123.253 63.9492 115.725 68.732C108.19 73.5149 118.193 59.0638 118.193 59.0638Z" fill="url(#paint19_linear_496_41179)"/>
<path style="mix-blend-mode:multiply" d="M118.193 59.0638C118.193 59.0638 126.411 59.6718 131.059 64.7476C135.708 69.8234 123.253 63.9492 115.725 68.732C108.19 73.5149 118.193 59.0638 118.193 59.0638Z" fill="url(#paint20_linear_496_41179)"/>
<path style="mix-blend-mode:multiply" d="M118.252 67.5528C118.252 67.5528 126.33 61.1147 120.565 59.4227C114.8 57.7308 118.252 67.5528 118.252 67.5528Z" fill="url(#paint21_linear_496_41179)"/>
<path d="M98.783 59.3056C106.964 57.2767 118.744 57.4598 121.123 59.8476C123.503 62.2353 121.402 69.1788 96.5431 80.2313C71.684 91.2838 98.783 59.3129 98.783 59.3129V59.3056Z" fill="url(#paint22_linear_496_41179)"/>
<path style="mix-blend-mode:multiply" d="M99.7304 78.7665C99.7304 78.7665 105.752 73.1194 106.259 64.8868C106.766 56.6542 98.3057 59.02 98.3057 59.02L99.7304 78.7665Z" fill="url(#paint23_linear_496_41179)"/>
<path style="mix-blend-mode:multiply" d="M121.116 59.8402C120.814 59.5399 120.366 59.2763 119.801 59.0419C122.636 60.6313 118.787 62.0669 113.867 61.2832C108.602 60.4482 103.725 58.3827 107.75 58.0018C104.68 58.1849 101.522 58.6171 98.7754 59.2982C98.7754 59.2982 71.6837 91.2692 96.5355 80.2167C121.395 69.1642 123.495 62.228 121.116 59.8329V59.8402Z" fill="url(#paint24_linear_496_41179)"/>
<path d="M70.3913 106.848C70.3913 106.848 74.9665 98.0443 94.0387 84.2525C105.018 76.3128 107.581 62.2866 104.254 59.6425C100.935 56.9984 99.2161 60.602 78.3227 56.4491C57.4293 52.2962 70.3913 106.856 70.3913 106.856V106.848Z" fill="url(#paint25_linear_496_41179)"/>
<g style="mix-blend-mode:multiply">
<path d="M75.4661 78.5687L75.4293 78.7299L75.3779 78.9569L95.3387 83.2417C95.4708 83.1318 95.603 83.0293 95.7279 82.9194L75.4661 78.5687Z" fill="#8880A8"/>
</g>
<path style="mix-blend-mode:color-dodge" opacity="0.52" d="M75.3853 78.7225H75.4293L75.466 78.5687L95.7279 82.9194C95.8013 82.8535 95.8821 82.7949 95.9555 82.729L75.466 78.3344L75.3853 78.7225Z" fill="url(#paint26_linear_496_41179)"/>
<path style="mix-blend-mode:multiply" d="M94.0389 84.2524C105.018 76.3127 107.581 62.2865 104.254 59.6424C102.595 58.3241 101.339 58.5584 97.9018 58.6097C108.822 58.4705 101.985 66.2051 92.9814 63.4511C84.2421 60.7777 82.2519 57.1814 89.6325 58.2215C86.6583 57.9139 82.9643 57.3719 78.3156 56.449C74.4674 55.68 71.7648 56.9178 69.9215 59.43C68.9668 68.1973 67.9607 78.6053 67.1455 87.7901C68.2912 98.0515 70.3842 106.855 70.3842 106.855C70.3842 106.855 74.9594 98.0515 94.0315 84.2597L94.0389 84.2524Z" fill="url(#paint27_linear_496_41179)"/>
<path style="mix-blend-mode:multiply" d="M80.4524 56.8519C83.6396 60.8291 85.7033 62.1255 83.7425 68.8859C81.7816 75.6463 75.4806 72.863 75.3557 72.4529C75.2309 72.0427 80.445 56.8519 80.445 56.8519H80.4524Z" fill="url(#paint28_linear_496_41179)"/>
<path d="M32.6435 100.593C32.3718 102.109 32.4819 103.647 32.8124 105.142C33.1208 106.562 33.5615 108.02 34.3252 109.265C35.0009 110.378 35.9923 111.338 37.2408 111.777C38.3791 112.18 39.6202 112.019 40.6337 111.367C41.7279 110.664 42.4917 109.478 42.5504 108.167C42.5578 107.91 42.1612 107.903 42.1538 108.159C42.0657 110.4 39.6936 112.107 37.5419 111.463C34.9495 110.686 33.8773 107.83 33.2971 105.457C32.9226 103.911 32.7463 102.292 33.0254 100.71C33.0694 100.461 32.6876 100.344 32.6435 100.593Z" fill="#3E1E43"/>
<path d="M38.7464 105.881C38.5187 107.976 38.6289 110.086 38.8566 112.18C39.0255 113.77 39.2384 115.381 39.892 116.853C40.4869 118.208 41.5811 119.512 43.1013 119.834C43.8504 119.995 44.6509 119.893 45.2457 119.38C45.9067 118.809 46.2225 117.871 46.5162 117.08C47.3094 114.986 47.7353 112.759 47.7867 110.525C47.7867 110.269 47.3975 110.261 47.3902 110.518C47.3388 112.4 47.0303 114.26 46.4501 116.055C46.1784 116.89 45.892 117.776 45.4293 118.531C44.9961 119.241 44.3131 119.578 43.4832 119.497C41.9851 119.351 40.8835 118.069 40.296 116.787C39.6791 115.454 39.4514 113.968 39.2898 112.525C39.0402 110.327 38.908 108.101 39.143 105.896C39.1723 105.64 38.7758 105.632 38.7464 105.889V105.881Z" fill="#3E1E43"/>
<path d="M63.8771 46.1584L66.0802 44.5909C66.0802 44.5909 69.3703 48.5901 74.3201 51.2049C79.2699 53.827 80.6799 57.1669 82.1046 59.8403C83.5294 62.5064 83.5808 63.0484 81.3335 74.8187C79.0863 86.589 62.5258 115.572 62.5258 115.572C62.5258 115.572 61.0423 120.874 48.4843 113.543C35.9262 106.211 34.6851 104.607 26.3057 80.1289C17.9263 55.6508 63.8771 46.1584 63.8771 46.1584Z" fill="url(#paint29_linear_496_41179)"/>
<path style="mix-blend-mode:multiply" d="M82.1049 59.8403C80.6802 57.1742 79.2701 53.827 74.3204 51.2049C73.8503 50.9558 73.4024 50.6922 72.9617 50.4212C68.7831 47.8576 66.0805 44.5836 66.0805 44.5836L63.8773 46.151C63.8773 46.151 63.8626 46.151 63.8333 46.1584C63.7672 46.173 63.7304 46.1803 63.679 46.195C63.6643 46.195 63.6497 46.195 63.6276 46.2023C63.4808 46.2316 63.2678 46.2829 62.9961 46.3488C62.8418 46.3854 62.6876 46.422 62.526 46.4587C61.9899 46.5905 61.3363 46.7516 60.5726 46.9494C59.7868 47.1545 58.9128 47.3962 57.9435 47.6818C57.9288 47.6818 57.9214 47.6818 57.9067 47.6892C56.952 47.9675 55.9092 48.2898 54.8003 48.6487C54.7709 48.656 54.7415 48.6706 54.7121 48.678C53.9704 48.9197 53.2066 49.1833 52.4135 49.4617C39.4148 54.0687 20.6952 63.7369 26.3059 80.1142C27.6499 84.0401 28.8102 87.3654 29.8604 90.2365C29.4124 83.8204 44.3572 98.2348 44.3572 98.2348C51.7085 93.6863 57.0475 78.1806 58.3547 75.4193C76.3546 31.4803 84.2934 73.471 69.7084 98.85C68.504 100.952 68.9006 102.344 69.4881 102.71C74.3057 93.43 80.078 81.4033 81.3411 74.804C83.5957 63.0337 83.5369 62.4917 82.1122 59.8257L82.1049 59.8403Z" fill="url(#paint30_linear_496_41179)"/>
<path style="mix-blend-mode:multiply" d="M82.1049 59.8402C81.018 57.7967 79.9311 55.365 77.2652 53.1604C85.3656 60.1112 61.6888 113.411 50.3866 111.77C46.2372 111.17 43.0353 110.042 40.4282 108.291C42.5359 109.998 45.0916 111.565 48.4845 113.543C61.0426 120.874 62.526 115.571 62.526 115.571C62.526 115.571 79.0792 86.5889 81.3338 74.8186C83.5883 63.0483 83.5296 62.5063 82.1049 59.8402Z" fill="url(#paint31_linear_496_41179)"/>
<path d="M23.6255 27.4152L24.1689 32.4984L37.1309 83.6812L43.8139 82.8975L53.8016 34.3661L47.4197 23.9435L23.6255 27.4152Z" fill="#3E1E43"/>
<path style="mix-blend-mode:multiply" d="M26.9666 35.6039C26.9666 35.6039 31.7989 43.4849 43.4464 37.6254C55.0938 31.7659 49.7107 25.8844 49.7107 25.8844L23.9263 23.9069L24.1906 31.4803L26.9593 35.6039H26.9666Z" fill="url(#paint32_linear_496_41179)"/>
<path style="mix-blend-mode:multiply" d="M66.0802 44.5909C66.0802 44.5909 67.4168 46.3781 64.9566 52.1277C62.5037 57.8774 53.9554 72.1966 52.1047 75.8661C50.2541 79.5356 49.4316 83.564 48.9175 89.0939C48.4034 94.6238 39.4365 90.0827 39.4439 89.6799C39.4512 89.277 63.8697 46.1584 63.8697 46.1584L66.0728 44.5909H66.0802Z" fill="url(#paint33_linear_496_41179)"/>
<path d="M52.1565 24.0533C52.1565 24.0533 54.5727 25.0568 55.0868 26.0163C55.6082 26.9758 61.968 39.7642 64.1124 43.2579C66.2642 46.7589 65.2507 49.3664 57.4074 63.4659C49.5641 77.5653 49.2484 77.9608 49.006 87.9879C48.8665 93.5691 44.3573 98.2567 44.3573 98.2567C44.3573 98.2567 39.1872 97.1434 35.787 92.4338C28.12 81.8135 24.3011 80.1948 23.1995 71.1492C22.098 62.1035 24 50.802 24.4113 46.4513C24.8225 42.1006 22.7148 28.4773 22.7148 28.4773C22.7148 28.4773 26.9743 32.8353 28.3623 34.2855C29.7503 35.7357 30.0808 42.9429 33.0551 58.412C36.0293 73.8885 38.3133 76.1737 38.3133 76.1737C38.3133 76.1737 36.9179 66.7179 37.3733 52.2376C37.8286 37.7573 37.0501 36.3949 43.432 32.9671C49.8138 29.5393 52.1492 24.0533 52.1492 24.0533H52.1565Z" fill="url(#paint34_linear_496_41179)"/>
<g style="mix-blend-mode:multiply">
<path d="M34.7441 68.4391L35.2802 68.234C35.2435 68.1095 35.2141 67.9777 35.1774 67.8458L34.7735 67.9997L22.9424 61.686C22.9424 61.8325 22.9278 61.979 22.9204 62.1255L34.6633 68.3952L34.7441 68.4391Z" fill="#8880A8"/>
</g>
<g style="mix-blend-mode:multiply">
<path d="M55.9827 56.3684C55.0207 57.4744 48.8738 63.7075 47.2802 64.667C45.9803 65.4507 39.7747 68.4317 37.6597 69.4425C37.667 69.589 37.6817 69.7281 37.689 69.8673C39.6792 68.9151 46.1198 65.8242 47.4858 65.0039C49.1015 64.0298 55.3144 57.7454 56.2765 56.6248C56.8713 55.9436 59.6032 46.8834 61.8578 39.2147C61.7697 39.0463 61.6816 38.8778 61.5934 38.7094C59.2214 46.8174 56.5115 55.7532 55.9827 56.3684Z" fill="#8880A8"/>
</g>
<path style="mix-blend-mode:color-dodge" opacity="0.52" d="M47.2876 64.6597C48.8738 63.7002 55.028 57.4671 55.9901 56.3611C56.5188 55.7459 59.2287 46.8101 61.6008 38.702C61.5861 38.6727 61.5714 38.6434 61.5494 38.6141C59.192 46.671 56.5188 55.4749 55.9901 56.0828C55.028 57.1888 48.8812 63.4218 47.2876 64.3813C45.9803 65.1724 39.738 68.168 37.645 69.1715C37.645 69.2594 37.6597 69.3473 37.6597 69.4352C39.7748 68.4244 45.9803 65.4434 47.2802 64.6597H47.2876Z" fill="url(#paint35_linear_496_41179)"/>
<path style="mix-blend-mode:color-dodge" opacity="0.52" d="M34.7661 68.007L35.17 67.8532C35.148 67.7726 35.1259 67.6847 35.1039 67.6041L34.7734 67.7287L22.9497 61.415C22.9497 61.5029 22.9424 61.5982 22.9351 61.686L34.7661 67.9997V68.007Z" fill="url(#paint36_linear_496_41179)"/>
<g style="mix-blend-mode:multiply">
<path d="M42.1762 96.3376C39.2313 93.3053 37.3733 89.4088 36.6022 87.1529C36.2717 86.1934 36.1396 85.5195 36.2057 85.3437C36.5288 84.4355 37.9535 77.719 38.2032 76.4446C38.2252 76.3274 38.2326 76.2029 38.2399 76.0784C38.1518 75.9612 37.9902 75.7195 37.7626 75.2947C37.8433 75.6902 37.8727 76.0711 37.814 76.364C37.4982 77.9168 36.1322 84.3696 35.8311 85.2046C35.8164 85.2339 35.8091 85.2778 35.8091 85.3218C35.8091 85.3364 35.8091 85.3657 35.8091 85.3804C35.8091 85.4097 35.8091 85.4463 35.8091 85.4829C35.8091 85.5122 35.8091 85.5488 35.8164 85.5854C35.8164 85.6221 35.8164 85.6514 35.8238 85.688C35.8238 85.7392 35.8385 85.7905 35.8458 85.8418C35.8458 85.8711 35.8531 85.8931 35.8605 85.9224C35.8752 85.9883 35.8899 86.0542 35.9046 86.1274C35.9046 86.1494 35.9119 86.1714 35.9192 86.2007C35.9413 86.2886 35.9633 86.3765 35.9853 86.4717C35.9853 86.4863 35.9853 86.501 35.9927 86.5156C36.0221 86.6255 36.0514 86.7354 36.0882 86.8526C36.1102 86.9258 36.1322 86.9917 36.1542 87.0576C36.9107 89.4454 38.8935 93.5617 42 96.7112C42.4259 97.1433 42.8739 97.5535 43.3366 97.9417C43.9608 98.1541 44.35 98.242 44.35 98.242C43.5716 97.6634 42.8372 97.0115 42.1689 96.323L42.1762 96.3376Z" fill="#8880A8"/>
</g>
<path style="mix-blend-mode:color-dodge" opacity="0.52" d="M36.1614 87.065C36.1393 86.9991 36.1173 86.9259 36.0953 86.8673C36.0586 86.7428 36.0292 86.6329 35.9998 86.523C35.9998 86.5084 35.9998 86.4937 35.9925 86.4791C35.9704 86.3839 35.9411 86.296 35.9264 86.2081C35.9264 86.1861 35.919 86.1641 35.9117 86.1348C35.897 86.0616 35.8823 85.9957 35.8676 85.9298C35.8676 85.9005 35.8603 85.8712 35.8529 85.8492C35.8456 85.7979 35.8309 85.7393 35.8309 85.6954C35.8309 85.6588 35.8309 85.6295 35.8236 85.5928C35.8236 85.5562 35.8236 85.5269 35.8162 85.4903C35.8162 85.4537 35.8162 85.4244 35.8162 85.3878C35.8162 85.3658 35.8162 85.3438 35.8162 85.3292C35.8162 85.2852 35.8309 85.2413 35.8382 85.212C36.1393 84.377 37.5127 77.9242 37.8211 76.3714C37.8799 76.0711 37.8505 75.6976 37.7697 75.3021C37.4686 74.7308 37.0573 73.8225 36.5579 72.4016L36.4772 72.4456C36.4772 72.4456 37.8358 75.1043 37.5861 76.3714C37.2703 77.9242 35.9043 84.377 35.6032 85.212C35.5225 85.4463 35.6253 86.1055 35.919 87.0284C36.6828 89.4528 38.7171 93.7009 41.941 96.8944C41.9631 96.8431 41.9851 96.7845 42.0145 96.7332C38.9007 93.5837 36.9251 89.4674 36.1687 87.0724L36.1614 87.065Z" fill="url(#paint37_linear_496_41179)"/>
<path style="mix-blend-mode:multiply" d="M25.0796 32.3226L27.0257 32.9012C25.2338 31.0482 22.7148 28.4773 22.7148 28.4773C22.7148 28.4773 23.6255 34.3515 24.1322 39.6177C25.0943 33.6703 25.0796 32.3226 25.0796 32.3226Z" fill="url(#paint38_linear_496_41179)"/>
<path style="mix-blend-mode:multiply" d="M64.1195 43.2652C61.9678 39.7641 55.608 26.9831 55.0939 26.0236C57.0474 45.9312 58.3399 58.3314 50.8491 75.9905C52.0241 73.1267 54.0143 69.5963 57.4146 63.4732C65.2579 49.3737 66.2713 46.7662 64.1195 43.2652Z" fill="url(#paint39_linear_496_41179)"/>
<path style="mix-blend-mode:multiply" d="M64.1198 43.2652C61.968 39.7642 55.6082 26.9831 55.0941 26.0236C54.5727 25.0641 52.1639 24.0607 52.1639 24.0607C52.1639 24.0607 50.115 28.8655 44.6144 32.2933L47.0158 31.7586C47.0158 31.7586 48.1541 38.3505 49.6596 48.861C51.1651 59.3715 43.7478 74.7235 39.6205 82.6997C35.5079 90.6613 23.9193 78.8105 22.8911 66.5201C22.9278 68.1022 23.0233 69.6623 23.2069 71.1565C24.3085 80.2021 28.1273 81.8135 35.7943 92.4411C39.1946 97.1507 44.3647 98.264 44.3647 98.264C44.3647 98.264 48.8738 93.5764 49.0134 87.9952C49.2557 77.9682 49.5715 77.5726 57.4148 63.4732C65.2581 49.3738 66.2715 46.7663 64.1198 43.2652Z" fill="url(#paint40_linear_496_41179)"/>
<path style="mix-blend-mode:multiply" d="M43.4392 32.9671C37.0573 36.3949 37.8358 37.7573 37.3805 52.2376C37.1969 58.1996 37.3217 63.3047 37.5347 67.2526C36.8664 53.5926 38.3352 40.8042 40.4576 37.3471C42.5726 33.8827 45.9508 34.2343 49.1527 28.9753C49.1527 28.9753 48.9985 28.9534 48.7415 28.9094C47.4269 30.2937 45.6864 31.7513 43.4465 32.9598L43.4392 32.9671Z" fill="url(#paint41_linear_496_41179)"/>
<path style="mix-blend-mode:multiply" d="M27.716 36.0945C28.1566 39.0389 30.4406 49.337 32.1444 58.8001C33.2386 64.894 35.4858 70.3434 36.9473 73.4562C35.9999 71.0245 34.6266 66.542 33.0697 58.4193C30.0954 42.9428 29.7649 35.743 28.377 34.2927C26.989 32.8425 22.7295 28.4845 22.7295 28.4845C23.552 32.2566 27.2827 33.1575 27.7233 36.1019L27.716 36.0945Z" fill="url(#paint42_linear_496_41179)"/>
<path d="M57.2972 57.1009C56.8933 43.2139 52.6192 32.198 50.9154 28.3307C51.569 27.8253 52.1345 27.32 52.5898 26.8439C57.9729 36.263 60.2421 47.1397 60.2421 47.1397C58.9422 37.391 55.2776 29.8102 53.192 26.1407C53.5004 25.7525 53.7354 25.3936 53.8896 25.0787C55.1748 22.4785 55.0647 14.4657 54.2422 10.5984C53.4196 6.7311 46.7954 -0.527366 36.4185 0.0292869C26.0416 0.58594 22.2742 5.15636 20.8421 9.58029C19.5863 13.4622 16.0832 16.8241 17.1334 21.541C15.7968 23.3282 9.83358 31.8391 7.43213 44.0489C7.43213 44.0489 10.7442 31.9783 17.4492 22.6177C17.5667 22.94 17.6989 23.2622 17.8531 23.5992C18.0514 24.002 18.257 24.3902 18.4774 24.7637C17.273 26.9391 11.1775 38.5922 9.76015 54.1712C9.76015 54.1712 11.7871 38.1747 19.0061 25.6207C19.5275 26.3971 20.1077 27.0929 20.7466 27.7301C19.836 29.5466 15.3562 39.0683 15.1726 51.6735C15.1726 51.6735 16.3109 38.8485 21.4223 28.36C24.4112 30.9602 28.5973 32.2932 34.2961 32.7034C39.6865 33.0916 43.9974 32.0369 47.2067 30.5427C51.6938 41.3388 52.039 54.2737 52.039 54.2737C52.6118 41.9541 48.9178 32.3298 48.0072 30.1618C48.8224 29.737 49.5641 29.2902 50.2177 28.8361C56.2984 41.6538 57.2899 57.0936 57.2899 57.0936L57.2972 57.1009Z" fill="url(#paint43_linear_496_41179)"/>
<path style="mix-blend-mode:screen" opacity="0.74" d="M25.2779 3.35461C25.0796 3.5011 24.9033 3.65491 24.7197 3.8014C24.9107 3.64759 25.109 3.47913 25.3366 3.31799C25.3219 3.33264 25.2999 3.33997 25.2852 3.35461H25.2779Z" fill="url(#paint44_linear_496_41179)"/>
<path style="mix-blend-mode:multiply" d="M57.2972 57.101C56.8933 43.2139 52.6192 32.198 50.9154 28.3308C51.569 27.8254 52.1345 27.32 52.5898 26.8439C57.9729 36.2631 60.2422 47.1398 60.2422 47.1398C58.9423 37.391 55.2777 29.8103 53.192 26.1408C53.5005 25.7526 53.7355 25.3937 53.8897 25.0787C55.1749 22.4786 55.0647 14.4657 54.2422 10.5984C54.0586 9.74147 53.5959 8.71605 52.8615 7.65402C52.7147 7.43429 52.5531 7.22188 52.3842 7.00215C52.3622 6.97285 52.3328 6.93623 52.3107 6.90693C52.1418 6.6872 51.9582 6.46747 51.7673 6.25506C51.7453 6.23309 51.7306 6.21111 51.7085 6.18914C51.5249 5.98406 51.334 5.77898 51.1357 5.58122C51.1063 5.55192 51.0843 5.52262 51.0549 5.50065C50.842 5.28824 50.6216 5.07583 50.3866 4.87075C50.3499 4.83413 50.3059 4.80483 50.2691 4.76821C50.0488 4.57045 49.8212 4.38002 49.5862 4.18958C49.5641 4.16761 49.5421 4.15296 49.5201 4.13099C49.4099 4.0431 49.2997 3.96253 49.1896 3.88196C51.0476 5.65446 50.0121 8.1301 49.2116 9.47047C48.8665 10.0491 48.5654 10.4153 48.5654 10.4153C48.5654 10.4153 50.5409 13.8358 48.7416 18.1425C46.9424 22.442 47.7869 32.3885 31.8433 30.9968C15.7748 29.5906 18.1175 19.8784 22.3109 14.9345C24.6242 12.2098 25.2558 8.59154 25.3586 5.88884C25.2925 5.94744 25.2191 5.99871 25.153 6.06463C22.7148 8.18137 22.0539 6.13787 24.683 3.84534C22.6414 5.52995 21.481 7.58077 20.8274 9.60963C19.5716 13.4916 16.0686 16.8534 17.1188 21.5704C15.7822 23.3575 9.81894 31.8684 7.41748 44.0782C7.41748 44.0782 10.7296 32.0076 17.4346 22.647C17.5521 22.9693 17.6843 23.2916 17.8385 23.6285C18.0368 24.0313 18.2424 24.4195 18.4627 24.7931C17.2583 26.9684 11.1629 38.6215 9.7455 54.2005C9.7455 54.2005 11.7724 38.204 18.9915 25.65C19.5129 26.4264 20.0931 27.1222 20.732 27.7595C19.8213 29.5759 15.3415 39.0976 15.158 51.7029C15.158 51.7029 16.2963 38.8779 21.4076 28.3894C24.3966 30.9895 28.5826 32.3226 34.2815 32.7327C39.6719 33.1209 43.9828 32.0662 47.192 30.572C51.6792 41.3682 52.0243 54.303 52.0243 54.303C52.5972 41.9834 48.9032 32.3592 47.9925 30.1912C48.8077 29.7663 49.5494 29.3196 50.203 28.8654C56.2838 41.6831 57.2752 57.1229 57.2752 57.1229L57.2972 57.101Z" fill="url(#paint45_linear_496_41179)"/>
<path style="mix-blend-mode:screen" opacity="0.74" d="M31.2114 15.4618C35.1183 16.4286 37.5198 18.9043 39.3704 21.1236C39.3704 21.1236 37.7181 18.5087 37.0718 16.0404C36.4329 13.5721 37.5198 11.8655 37.5198 11.8655L30.0804 9.76343L23.0303 16.9047L22.3032 18.0034C23.8748 16.0697 26.2689 14.2386 31.2114 15.4618Z" fill="url(#paint46_linear_496_41179)"/>
<path style="mix-blend-mode:screen" opacity="0.74" d="M25.1603 6.04259C27.2533 4.0943 30.5727 2.61478 35.5078 2.37307C41.3095 2.08742 45.7599 4.84139 48.1173 8.20329C48.1393 8.23258 48.1687 8.25456 48.1834 8.27653C51.7746 13.0154 54.837 10.8767 52.8615 7.64663C50.3058 3.89655 44.4968 -0.402869 36.4185 0.0292695C31.8946 0.270974 28.6266 1.28174 26.2619 2.70267C26.2325 2.71732 26.2104 2.73197 26.1811 2.75394C25.8653 2.9517 25.5568 3.14946 25.2704 3.35454C25.0721 3.50103 24.8959 3.65484 24.7123 3.80133C22.0611 6.10119 22.7221 8.15934 25.1603 6.03527V6.04259Z" fill="url(#paint47_linear_496_41179)"/>
<path style="mix-blend-mode:multiply" d="M94.0387 84.2524C96.2859 82.6264 98.1733 80.7514 99.7302 78.7664C109.299 74.2912 115.035 70.5412 118.251 67.5528C124.325 65.5313 131.772 67.963 132.058 66.4615C127.497 67.3624 120.888 64.5059 120.888 64.5059C110.335 73.1706 104.658 69.4864 104.658 69.4864C94.3398 80.9052 81.6422 75.9758 81.0987 70.38C81.0987 70.38 73.8356 89.2037 69.231 101.326C69.8846 104.709 70.3913 106.848 70.3913 106.848C70.3913 106.848 74.9665 98.0442 94.0387 84.2524Z" fill="url(#paint48_linear_496_41179)"/>
<path style="mix-blend-mode:multiply" d="M35.515 2.3731C44.4599 1.93363 50.2248 8.71602 50.0045 13.8431C49.7769 18.9702 45.6643 21.8486 41.0082 20.2812C37.8504 19.2192 37.0058 15.6449 36.7488 14.2826C36.0585 10.5544 31.9165 9.87327 27.8773 12.9422C23.9116 15.9525 23.0451 16.6483 23.0451 16.6483C23.0451 16.6483 21.6938 15.1615 22.3327 11.2063C22.9716 7.25114 26.6362 2.81256 35.5223 2.3731H35.515Z" fill="url(#paint49_linear_496_41179)"/>
<path d="M35.6325 3.1495C44.5774 2.75398 50.2102 9.58031 49.9899 14.3412C49.7695 19.102 45.6643 21.7608 41.0083 20.3032C37.8504 19.3144 36.9985 15.9965 36.7415 14.7294C36.0438 11.2649 31.9018 10.6277 27.8627 13.4696C23.9043 16.2601 23.0377 16.8974 23.0377 16.8974C23.0377 16.8974 21.6865 15.5131 22.3107 11.8435C22.9423 8.17403 26.7464 3.53769 35.6325 3.1495Z" fill="#3E1E43"/>
<path d="M73.0938 62.9605C66.8295 65.3116 60.7928 76.4813 61.8063 84.2744L57.7598 112.356L73.0938 62.9531V62.9605Z" fill="#6F5175"/>
<path d="M40.3916 7.98363C42.8371 6.89229 46.1933 9.74881 46.1198 12.5833C46.0538 15.4179 44.1957 16.3847 41.3243 15.352C38.4528 14.3192 38.1297 8.99439 40.3843 7.98363H40.3916Z" fill="#D6FFFF"/>
<path d="M30.3965 7.04609C32.6951 7.42696 28.3475 13.0667 25.6523 13.2791C22.9571 13.4915 26.1517 6.33562 30.3965 7.04609Z" fill="#D6FFFF"/>
<path d="M64.9933 81.0736C61.6078 92.1115 56.0264 115.623 53.7938 123.672C51.5686 131.722 51.3704 134.153 61.4976 141.156C71.6248 148.158 79.5195 135.377 79.5195 135.377C79.5195 135.377 75.6566 110.422 75.4437 102.512C75.2307 94.6018 78.0654 84.6699 78.0654 84.6699L64.9933 81.0663V81.0736Z" fill="url(#paint50_linear_496_41179)"/>
<path style="mix-blend-mode:multiply" d="M79.5195 135.377C79.5195 135.377 75.6566 110.423 75.4437 102.512C75.2307 94.6018 78.0654 84.67 78.0654 84.67L72.6677 83.1831L64.347 85.959C64.2295 93.0124 64.986 104.102 69.4878 102.732L71.9847 142.247C76.582 140.13 79.5269 135.377 79.5269 135.377H79.5195Z" fill="url(#paint51_linear_496_41179)"/>
<path d="M64.3472 85.959C66.0656 98.2933 67.1085 111.023 76.3838 91.7892C85.6592 72.5554 64.3472 85.959 64.3472 85.959Z" fill="#3E1E43"/>
<path d="M77.7867 61.8691C88.854 62.1108 82.9422 96.3084 70.9055 94.0891C58.8689 91.8698 63.4294 61.5542 77.7867 61.8691Z" fill="url(#paint52_linear_496_41179)"/>
<path d="M78.5724 149C78.5724 149 78.8442 146.305 76.7952 144.027C76.7952 144.027 82.9494 144.378 85.8943 145.865L85.9237 144.583L87.3925 145.433C87.3925 145.433 88.6923 138.753 83.9041 135.757C79.1159 132.754 76.0535 135.567 76.0535 135.567C76.0535 135.567 72.1539 134.395 70.1931 137.112C70.1931 137.112 67.5346 134.886 63.3045 136.138C59.0744 137.383 59.8088 140.584 62.078 141.917C64.3473 143.25 66.7561 144.466 70.3913 145.426C74.0266 146.392 78.5651 149 78.5651 149H78.5724Z" fill="#3E1E43"/>
<path d="M0 132.44C0 132.44 7.63766 130.462 12.9253 130.052C18.2202 129.642 20.2545 128.741 20.0121 125.628C19.8212 123.152 16.3842 122.12 13.6817 122.786C13.6817 122.786 6.2056 119.417 3.04037 127.107C3.04037 127.107 0.146878 129.07 0 132.44Z" fill="#3E1E43"/>
<path style="mix-blend-mode:multiply" d="M34.3032 32.7108C43.4243 33.37 49.4683 29.9202 52.2884 27.1369C48.1097 30.2278 44.2615 26.3093 41.9335 24.0753C39.5981 21.8414 37.1306 16.9194 31.2187 15.4545C25.3069 13.9897 23.0376 16.8974 21.4807 19.1167C19.9311 21.3287 18.0511 23.8776 17.3828 22.3907C17.515 22.7789 17.6692 23.1818 17.8602 23.5919C20.6655 29.4368 25.8063 32.0955 34.3032 32.7035V32.7108Z" fill="url(#paint53_linear_496_41179)"/>
<path style="mix-blend-mode:color-dodge" d="M48.2052 9.14822C49.7842 12.5834 48.5137 16.5385 45.3631 17.9741C42.22 19.4097 38.3864 17.7837 36.8148 14.3485C35.2433 10.9134 36.5064 6.95823 39.6569 5.52265C42.8001 4.08707 46.6336 5.71308 48.2052 9.14822Z" fill="url(#paint54_radial_496_41179)"/>
<mask id="mask0_496_41179" style="mask-type:luminance" maskUnits="userSpaceOnUse" x="22" y="3" width="28" height="18">
<path d="M35.6325 3.1495C44.5774 2.75398 50.2102 9.58031 49.9899 14.3412C49.7695 19.102 45.6643 21.7608 41.0083 20.3032C37.8504 19.3144 36.9985 15.9965 36.7415 14.7294C36.0438 11.2649 31.9018 10.6277 27.8627 13.4696C23.9043 16.2601 23.0377 16.8974 23.0377 16.8974C23.0377 16.8974 21.6865 15.5131 22.3107 11.8435C22.9423 8.17403 26.7464 3.53769 35.6325 3.1495Z" fill="white"/>
</mask>
<g mask="url(#mask0_496_41179)">
<path style="mix-blend-mode:color-dodge" d="M30.3156 12.3416C27.7893 15.1615 24.5653 16.392 23.1186 15.1029C21.6718 13.8138 22.5458 10.4739 25.0721 7.66135C27.5984 4.84878 30.8223 3.61096 32.2691 4.90005C33.7158 6.19647 32.8419 9.52174 30.3156 12.3416Z" fill="url(#paint55_radial_496_41179)"/>
</g>
<path style="mix-blend-mode:screen" opacity="0.54" d="M46.1786 7.29507C43.6743 4.93662 40.3622 3.62556 36.749 3.53766C36.3818 3.53034 36.0146 3.53766 35.6474 3.55231C27.0918 3.93318 23.3244 8.29852 22.7001 11.9168C22.5973 12.5247 22.5386 13.1033 22.5386 13.6526C27.2166 10.3054 36.4479 6.4015 49.5274 13.3011C49.2777 11.2722 48.0586 9.0749 46.1712 7.3024L46.1786 7.29507Z" fill="url(#paint56_linear_496_41179)"/>
<path style="mix-blend-mode:multiply" d="M76.9787 67.1207C69.3998 72.2258 66.7413 87.1969 71.0669 94.1184C79.1599 95.4002 84.4401 80.2168 83.5515 70.2483C83.2651 67.0329 79.6593 65.3189 76.9787 67.1207Z" fill="url(#paint57_linear_496_41179)"/>
<path style="mix-blend-mode:multiply" d="M57.2972 57.1009C56.8933 43.2139 52.6192 32.198 50.9154 28.3307C51.569 27.8253 52.1345 27.32 52.5898 26.8439C57.9729 36.263 60.2421 47.1397 60.2421 47.1397C58.9422 37.391 55.2776 29.8102 53.192 26.1407C53.5004 25.7525 53.7354 25.3936 53.8896 25.0787C55.1748 22.4785 55.0647 14.4657 54.2422 10.5984C53.4196 6.7311 46.7954 -0.527366 36.4185 0.0292869C26.0416 0.58594 22.2742 5.15636 20.8421 9.58029C19.5863 13.4622 16.0832 16.8241 17.1334 21.541C15.7968 23.3282 9.83358 31.8391 7.43213 44.0489C7.43213 44.0489 10.7442 31.9783 17.4492 22.6177C17.5667 22.94 17.6989 23.2622 17.8531 23.5992C18.0514 24.002 18.257 24.3902 18.4774 24.7637C17.273 26.9391 11.1775 38.5922 9.76015 54.1712C9.76015 54.1712 11.7871 38.1747 19.0061 25.6207C19.5275 26.3971 20.1077 27.0929 20.7466 27.7301C19.836 29.5466 15.3562 39.0683 15.1726 51.6735C15.1726 51.6735 16.3109 38.8485 21.4223 28.36C24.4112 30.9602 28.5973 32.2932 34.2961 32.7034C39.6865 33.0916 43.9974 32.0369 47.2067 30.5427C51.6938 41.3388 52.039 54.2737 52.039 54.2737C52.6118 41.9541 48.9178 32.3298 48.0072 30.1618C48.8224 29.737 49.5641 29.2902 50.2177 28.8361C56.2984 41.6538 57.2899 57.0936 57.2899 57.0936L57.2972 57.1009Z" fill="url(#paint58_linear_496_41179)"/>
<path style="mix-blend-mode:multiply" d="M141.113 94.177C135.473 96.3743 118.905 100.835 118.905 100.835L121.674 101.509C121.674 101.509 125.618 100.791 141.128 102.183C156.638 103.574 160.677 104.585 160.677 104.585C160.457 102.82 160.42 99.5385 158.225 93.6204L154.663 93.0857L144.396 88.8522C144.513 91.6281 143.265 93.342 141.113 94.177Z" fill="url(#paint59_linear_496_41179)"/>
<path d="M81.1718 79.7039C82.3101 74.6648 81.4288 70.4532 79.1963 70.2921C76.9711 70.131 74.2391 74.0861 73.1008 79.118C71.9625 84.1572 72.8438 88.3687 75.0763 88.5298C77.3015 88.691 80.0335 84.7358 81.1718 79.7039Z" fill="url(#paint60_linear_496_41179)"/>
<g style="mix-blend-mode:multiply">
<path d="M74.5331 86.457C76.3617 86.5889 78.5943 83.3515 79.527 79.2205C80.4596 75.0896 79.7326 71.6398 77.9113 71.5079C77.2724 71.464 76.5894 71.8302 75.9211 72.5041C74.7387 74.1154 73.6959 76.4592 73.0937 79.118C72.7265 80.744 72.5723 82.2748 72.6017 83.6225C72.844 85.2851 73.5123 86.3838 74.5258 86.457H74.5331Z" fill="#A59AC2"/>
</g>
<path d="M77.9186 78.9422C78.6677 75.6462 77.7791 72.8629 75.9431 72.7311C75.8844 72.7311 75.8256 72.7311 75.7595 72.7311C74.6433 74.3278 73.6665 76.5764 73.0937 79.1179C72.7265 80.744 72.5723 82.2748 72.6017 83.6224C72.6531 83.974 72.7265 84.289 72.8146 84.5893C72.9542 84.6332 73.0937 84.6698 73.2406 84.6772C75.0766 84.809 77.1696 82.2455 77.9113 78.9422H77.9186Z" fill="#D6FFFF"/>
<mask id="mask1_496_41179" style="mask-type:luminance" maskUnits="userSpaceOnUse" x="72" y="70" width="10" height="19">
<path d="M81.1718 79.7039C82.3101 74.6648 81.4288 70.4532 79.1963 70.2921C76.9711 70.131 74.2391 74.0861 73.1008 79.118C71.9625 84.1572 72.8438 88.3687 75.0763 88.5298C77.3015 88.691 80.0335 84.7358 81.1718 79.7039Z" fill="white"/>
</mask>
<g mask="url(#mask1_496_41179)">
<path style="mix-blend-mode:color-dodge" d="M80.4522 79.1766C79.402 83.8202 75.6346 87.3726 72.0434 87.1089C68.4449 86.8452 66.3813 82.8754 67.4315 78.2317C68.4816 73.5881 72.2491 70.0357 75.8402 70.2994C79.4314 70.5631 81.5024 74.5329 80.4522 79.1766Z" fill="url(#paint61_radial_496_41179)"/>
</g>
<path style="mix-blend-mode:screen" opacity="0.74" d="M47.3607 102.197C59.5589 100.359 59.3312 101.421 59.3312 101.421C59.3312 101.421 59.8306 97.6488 60.2566 94.5212C57.5907 103.53 35.4415 102.593 32.4819 96.9017C34.2298 100.93 35.8454 103.64 37.8283 105.845C37.4831 105.273 37.5566 103.677 47.3607 102.197Z" fill="url(#paint62_linear_496_41179)"/>
<path style="mix-blend-mode:screen" opacity="0.74" d="M37.4247 64.8575C37.6671 59.5473 42.5655 58.1996 46.1933 57.4818C49.6817 56.8006 47.6107 64.0811 47.3904 64.8282C49.2043 59.2616 50.328 53.5706 49.6523 48.8537C49.5862 48.3922 49.5201 47.9528 49.4614 47.5133C50.1297 52.091 47.317 55.6873 41.9339 56.2147C36.5508 56.742 37.5716 53.2263 37.5716 53.2263C37.5716 53.2263 37.4908 53.1604 37.3513 53.0505C37.2338 57.5331 37.2852 61.5175 37.4174 64.8648L37.4247 64.8575Z" fill="url(#paint63_linear_496_41179)"/>
<path style="mix-blend-mode:screen" opacity="0.74" d="M29.0232 57.6796C31.6596 59.0566 32.8934 62.4111 33.2679 63.6343C32.8347 62.0962 32.4454 60.4775 32.1443 58.8075C31.8285 57.0643 31.4981 55.2992 31.1602 53.556C32.4968 60.3017 24.6021 54.2664 24.4993 46.1583L24.4332 46.2462C24.4332 46.3195 24.4259 46.3927 24.4185 46.4586C24.1395 49.4177 23.1701 55.5995 22.9277 62.0962C23.1407 56.8739 25.7919 55.995 29.0232 57.6869V57.6796Z" fill="url(#paint64_linear_496_41179)"/>
<path style="mix-blend-mode:screen" opacity="0.74" d="M69.4148 80.6928C70.061 77.0379 71.427 73.449 73.4319 70.6584C69.7893 74.782 66.4332 70.8195 68.5262 67.0548C66.9252 69.2521 65.7208 71.9548 64.957 74.804C68.673 66.3004 69.4148 80.6928 69.4148 80.6928Z" fill="url(#paint65_linear_496_41179)"/>
<g style="mix-blend-mode:multiply">
<path d="M62.7318 115.542L57.9877 107.317C57.9436 107.5 57.8922 107.69 57.8481 107.874L62.3132 115.623L58.2667 138.812C58.3842 138.9 58.5018 138.995 58.6193 139.083L62.7098 115.615L62.7245 115.542H62.7318Z" fill="#8880A8"/>
</g>
<path style="mix-blend-mode:color-dodge" opacity="0.52" d="M62.313 115.615L57.8479 107.866C57.8185 107.976 57.7891 108.086 57.7671 108.196L62.0412 115.608L58.0315 138.614C58.1122 138.68 58.193 138.738 58.2738 138.804L62.3203 115.615H62.313Z" fill="url(#paint66_linear_496_41179)"/>
<path style="mix-blend-mode:screen" opacity="0.74" d="M70.5306 119.344L69.4804 102.732C69.921 109.998 59.7718 103.347 60.6824 96.7478C59.5294 101.201 58.3691 105.815 57.2969 110.049C61.8942 91.7892 70.5232 119.344 70.5232 119.344H70.5306Z" fill="url(#paint67_linear_496_41179)"/>
<path style="mix-blend-mode:color-dodge" opacity="0.52" d="M76.8024 144.027C76.8024 144.027 74.3054 140.079 70.2002 137.113L71.948 138.914C73.6959 140.716 78.5796 149.007 78.5796 149.007C78.5796 149.007 78.8513 146.312 76.8024 144.034V144.027Z" fill="url(#paint68_linear_496_41179)"/>
<path style="mix-blend-mode:color-dodge" opacity="0.52" d="M87.3997 145.433C87.3997 145.433 88.6995 138.753 83.9113 135.757C82.0974 134.622 80.5405 134.322 79.292 134.38C86.6065 134.974 87.3997 145.433 87.3997 145.433Z" fill="url(#paint69_linear_496_41179)"/>
<path style="mix-blend-mode:color-dodge" opacity="0.52" d="M85.9014 145.865L85.9308 144.583C83.8745 137.157 76.0605 135.56 76.0605 135.56C84.9393 140.995 85.9014 145.865 85.9014 145.865Z" fill="url(#paint70_linear_496_41179)"/>
<path style="mix-blend-mode:color-dodge" opacity="0.52" d="M17.1113 122.808C16.0317 122.522 14.7979 122.508 13.689 122.779C13.689 122.779 8.55562 123.321 4.07585 126.558C4.07585 126.558 6.66824 121.973 12.8004 122.471C10.7294 121.856 5.54463 121.043 3.0477 127.107C3.0477 127.107 0.154202 129.07 0.00732422 132.44C0.00732422 132.44 2.70254 125.525 17.1186 122.808H17.1113Z" fill="url(#paint71_linear_496_41179)"/>
<path d="M64.1784 70.6291C63.7745 71.3909 63.1356 71.845 62.7463 71.6399C62.3571 71.4348 62.3718 70.6511 62.7757 69.8894C63.1796 69.1276 63.8186 68.6735 64.2078 68.8786C64.597 69.0837 64.5823 69.8674 64.1784 70.6291Z" fill="#3E1E43"/>
<path d="M54.0068 20.9624C53.9848 21.8267 53.7204 22.5151 53.4193 22.5078C53.1182 22.5005 52.8906 21.7974 52.9126 20.9331C52.9346 20.0688 53.199 19.3803 53.5001 19.3876C53.8012 19.395 54.0289 20.0981 54.0068 20.9624Z" fill="#3E1E43"/>
<path d="M151.695 83.2271C152.224 83.9083 152.459 84.6114 152.224 84.7945C151.989 84.9776 151.365 84.5821 150.829 83.9009C150.3 83.2198 150.065 82.5166 150.3 82.3335C150.542 82.1504 151.159 82.5459 151.695 83.2271Z" fill="#3E1E43"/>
<path d="M175.71 96.5354C177.37 96.6673 178.949 95.8103 179.97 94.5359C181.005 93.2394 181.563 91.4889 181.593 89.8336C181.607 88.9034 181.424 87.9586 180.924 87.1602C180.792 86.9405 180.44 87.1309 180.579 87.3506C181.409 88.691 181.291 90.3756 180.88 91.8332C180.454 93.3347 179.595 94.7556 178.214 95.5466C177.458 95.9861 176.599 96.2058 175.725 96.1399C175.468 96.1179 175.46 96.5134 175.717 96.5354H175.71Z" fill="#3E1E43"/>
<path d="M174.373 95.261C175.629 94.1184 177.627 93.928 179.096 94.7776C179.962 95.283 180.55 96.1326 181.056 96.9749C181.6 97.8685 182.048 98.8207 182.393 99.8095C182.782 100.937 183.047 102.102 183.157 103.289C183.179 103.538 183.583 103.552 183.553 103.296C183.333 101.055 182.635 98.872 181.49 96.9237C180.954 96.0155 180.329 95.0779 179.419 94.5066C178.67 94.0379 177.759 93.8181 176.878 93.8548C175.85 93.8987 174.858 94.2722 174.094 94.9681C173.903 95.1439 174.182 95.4295 174.366 95.2537L174.373 95.261Z" fill="#3E1E43"/>
</g>
<defs>
<linearGradient id="paint0_linear_496_41179" x1="170.775" y1="67.6633" x2="178.81" y2="88.8268" gradientUnits="userSpaceOnUse">
<stop stop-color="#F3D6D2"/>
<stop offset="1" stop-color="#A59AC2"/>
</linearGradient>
<linearGradient id="paint1_linear_496_41179" x1="155.985" y1="82.845" x2="175.543" y2="83.3209" gradientUnits="userSpaceOnUse">
<stop stop-color="#A59AC2"/>
<stop offset="0.99" stop-color="white"/>
</linearGradient>
<linearGradient id="paint2_linear_496_41179" x1="151.957" y1="82.9307" x2="179.738" y2="83.6066" gradientUnits="userSpaceOnUse">
<stop stop-color="#A59AC2"/>
<stop offset="0.99" stop-color="white"/>
</linearGradient>
<linearGradient id="paint3_linear_496_41179" x1="171.95" y1="113.563" x2="177.361" y2="85.3578" gradientUnits="userSpaceOnUse">
<stop stop-color="#A59AC2"/>
<stop offset="0.99" stop-color="#F3D6D2"/>
</linearGradient>
<linearGradient id="paint4_linear_496_41179" x1="165.181" y1="97.6913" x2="169.224" y2="101.947" gradientUnits="userSpaceOnUse">
<stop stop-color="#A59AC2"/>
<stop offset="1"/>
</linearGradient>
<linearGradient id="paint5_linear_496_41179" x1="150.323" y1="99.3612" x2="198.47" y2="100.533" gradientUnits="userSpaceOnUse">
<stop stop-color="#A59AC2"/>
<stop offset="0.99" stop-color="white"/>
</linearGradient>
<linearGradient id="paint6_linear_496_41179" x1="138.622" y1="98.741" x2="186.835" y2="99.914" gradientUnits="userSpaceOnUse">
<stop stop-color="#A59AC2"/>
<stop offset="0.99" stop-color="white"/>
</linearGradient>
<linearGradient id="paint7_linear_496_41179" x1="11.4024" y1="104.777" x2="34.2474" y2="110.59" gradientUnits="userSpaceOnUse">
<stop stop-color="#F3D6D2"/>
<stop offset="1" stop-color="#A59AC2"/>
</linearGradient>
<linearGradient id="paint8_linear_496_41179" x1="22.5284" y1="107.932" x2="30.9937" y2="116.835" gradientUnits="userSpaceOnUse">
<stop/>
<stop offset="1" stop-color="#A59AC2"/>
</linearGradient>
<linearGradient id="paint9_linear_496_41179" x1="16.4763" y1="98.5252" x2="35.1997" y2="118.232" gradientUnits="userSpaceOnUse">
<stop stop-color="#A59AC2"/>
<stop offset="0.99" stop-color="white"/>
</linearGradient>
<linearGradient id="paint10_linear_496_41179" x1="14.7464" y1="74.1988" x2="38.1731" y2="80.1643" gradientUnits="userSpaceOnUse">
<stop stop-color="#F3D6D2"/>
<stop offset="1" stop-color="#A59AC2"/>
</linearGradient>
<linearGradient id="paint11_linear_496_41179" x1="8.93777" y1="71.1085" x2="32.3645" y2="77.074" gradientUnits="userSpaceOnUse">
<stop stop-color="#A59AC2"/>
<stop offset="0.99" stop-color="white"/>
</linearGradient>
<linearGradient id="paint12_linear_496_41179" x1="57.2071" y1="89.2977" x2="154.081" y2="91.6546" gradientUnits="userSpaceOnUse">
<stop offset="0.37" stop-color="#3E1E43"/>
<stop offset="1" stop-color="#4F395F"/>
</linearGradient>
<linearGradient id="paint13_linear_496_41179" x1="88.6061" y1="115.781" x2="89.8042" y2="66.2754" gradientUnits="userSpaceOnUse">
<stop/>
<stop offset="1" stop-color="#A59AC2"/>
</linearGradient>
<linearGradient id="paint14_linear_496_41179" x1="104.643" y1="108.843" x2="105.737" y2="63.635" gradientUnits="userSpaceOnUse">
<stop/>
<stop offset="1" stop-color="#A59AC2"/>
</linearGradient>
<linearGradient id="paint15_linear_496_41179" x1="122.844" y1="102.301" x2="123.736" y2="65.4479" gradientUnits="userSpaceOnUse">
<stop/>
<stop offset="1" stop-color="#A59AC2"/>
</linearGradient>
<linearGradient id="paint16_linear_496_41179" x1="59.4407" y1="89.5789" x2="137.85" y2="91.4865" gradientUnits="userSpaceOnUse">
<stop stop-color="#A59AC2"/>
<stop offset="0.99" stop-color="white"/>
</linearGradient>
<linearGradient id="paint17_linear_496_41179" x1="161.018" y1="72.2408" x2="140.369" y2="89.8908" gradientUnits="userSpaceOnUse">
<stop stop-color="#F3D6D2"/>
<stop offset="1" stop-color="#A59AC2"/>
</linearGradient>
<linearGradient id="paint18_linear_496_41179" x1="119.326" y1="83.5624" x2="154.874" y2="84.4273" gradientUnits="userSpaceOnUse">
<stop stop-color="white"/>
<stop offset="1" stop-color="#A59AC2"/>
</linearGradient>
<linearGradient id="paint19_linear_496_41179" x1="183.201" y1="66.0079" x2="114.6" y2="64.3388" gradientUnits="userSpaceOnUse">
<stop offset="0.34" stop-color="#F3D6D2"/>
<stop offset="1" stop-color="#A59AC2"/>
</linearGradient>
<linearGradient id="paint20_linear_496_41179" x1="108.425" y1="64.1983" x2="127.513" y2="64.6627" gradientUnits="userSpaceOnUse">
<stop stop-color="#A59AC2"/>
<stop offset="0.99" stop-color="white"/>
</linearGradient>
<linearGradient id="paint21_linear_496_41179" x1="119.802" y1="67.5874" x2="120.004" y2="59.24" gradientUnits="userSpaceOnUse">
<stop stop-color="#A59AC2"/>
<stop offset="0.99" stop-color="white"/>
</linearGradient>
<linearGradient id="paint22_linear_496_41179" x1="49.8222" y1="74.5978" x2="128.115" y2="67.5611" gradientUnits="userSpaceOnUse">
<stop stop-color="#F3D6D2"/>
<stop offset="1" stop-color="#A59AC2"/>
</linearGradient>
<linearGradient id="paint23_linear_496_41179" x1="101.884" y1="78.8177" x2="102.37" y2="58.74" gradientUnits="userSpaceOnUse">
<stop stop-color="#A59AC2"/>
<stop offset="0.99" stop-color="white"/>
</linearGradient>
<linearGradient id="paint24_linear_496_41179" x1="86.2971" y1="69.9856" x2="121.647" y2="70.8456" gradientUnits="userSpaceOnUse">
<stop offset="0.14" stop-color="#A59AC2"/>
<stop offset="0.99" stop-color="white"/>
</linearGradient>
<linearGradient id="paint25_linear_496_41179" x1="31.8581" y1="77.7311" x2="127.017" y2="86.4615" gradientUnits="userSpaceOnUse">
<stop stop-color="#F3D6D2"/>
<stop offset="0.16" stop-color="#E5CBCF"/>
<stop offset="0.72" stop-color="#B6A7C5"/>
<stop offset="1" stop-color="#A59AC2"/>
</linearGradient>
<linearGradient id="paint26_linear_496_41179" x1="79.6302" y1="74.3887" x2="91.5384" y2="86.93" gradientUnits="userSpaceOnUse">
<stop/>
<stop offset="1" stop-color="#A59AC2"/>
</linearGradient>
<linearGradient id="paint27_linear_496_41179" x1="74.6954" y1="81.5664" x2="112.549" y2="82.4874" gradientUnits="userSpaceOnUse">
<stop offset="0.14" stop-color="#A59AC2"/>
<stop offset="0.99" stop-color="white"/>
</linearGradient>
<linearGradient id="paint28_linear_496_41179" x1="79.768" y1="75.3591" x2="80.1685" y2="58.8109" gradientUnits="userSpaceOnUse">
<stop stop-color="white"/>
<stop offset="1" stop-color="#A59AC2"/>
</linearGradient>
<linearGradient id="paint29_linear_496_41179" x1="11.3419" y1="88.8399" x2="141.053" y2="68.9883" gradientUnits="userSpaceOnUse">
<stop stop-color="#F3D6D2"/>
<stop offset="0.12" stop-color="#E1C8CE"/>
<stop offset="0.33" stop-color="#C6B4C8"/>
<stop offset="0.54" stop-color="#B3A5C5"/>
<stop offset="0.76" stop-color="#A89CC2"/>
<stop offset="1" stop-color="#A59AC2"/>
</linearGradient>
<linearGradient id="paint30_linear_496_41179" x1="7.589" y1="72.2057" x2="93.2375" y2="74.2895" gradientUnits="userSpaceOnUse">
<stop stop-color="white"/>
<stop offset="1" stop-color="#A59AC2"/>
</linearGradient>
<linearGradient id="paint31_linear_496_41179" x1="65.0613" y1="78.9815" x2="40.7916" y2="154.427" gradientUnits="userSpaceOnUse">
<stop stop-color="white"/>
<stop offset="1" stop-color="#A59AC2"/>
</linearGradient>
<linearGradient id="paint32_linear_496_41179" x1="23.7364" y1="31.7071" x2="50.8787" y2="32.3674" gradientUnits="userSpaceOnUse">
<stop stop-color="#A59AC2"/>
<stop offset="0.99" stop-color="white"/>
</linearGradient>
<linearGradient id="paint33_linear_496_41179" x1="52.6656" y1="79.6927" x2="54.7497" y2="-6.42435" gradientUnits="userSpaceOnUse">
<stop stop-color="#A59AC2"/>
<stop offset="0.99" stop-color="white"/>
</linearGradient>
<linearGradient id="paint34_linear_496_41179" x1="24.0947" y1="68.3191" x2="90.8674" y2="33.1212" gradientUnits="userSpaceOnUse">
<stop stop-color="#F3D6D2"/>
<stop offset="0.09" stop-color="#E7CDCF"/>
<stop offset="0.32" stop-color="#CAB6C9"/>
<stop offset="0.55" stop-color="#B5A6C5"/>
<stop offset="0.78" stop-color="#A99DC2"/>
<stop offset="1" stop-color="#A59AC2"/>
</linearGradient>
<linearGradient id="paint35_linear_496_41179" x1="47.5756" y1="51.897" x2="53.9549" y2="58.6114" gradientUnits="userSpaceOnUse">
<stop/>
<stop offset="1" stop-color="#A59AC2"/>
</linearGradient>
<linearGradient id="paint36_linear_496_41179" x1="24.5192" y1="59.9259" x2="33.5345" y2="69.4147" gradientUnits="userSpaceOnUse">
<stop/>
<stop offset="1" stop-color="#A59AC2"/>
</linearGradient>
<linearGradient id="paint37_linear_496_41179" x1="38.652" y1="96.8053" x2="39.2412" y2="72.4588" gradientUnits="userSpaceOnUse">
<stop/>
<stop offset="1" stop-color="#A59AC2"/>
</linearGradient>
<linearGradient id="paint38_linear_496_41179" x1="22.5856" y1="34.031" x2="27.0053" y2="34.1386" gradientUnits="userSpaceOnUse">
<stop stop-color="white"/>
<stop offset="1" stop-color="#A59AC2"/>
</linearGradient>
<linearGradient id="paint39_linear_496_41179" x1="57.8189" y1="67.7725" x2="59.0297" y2="17.7395" gradientUnits="userSpaceOnUse">
<stop stop-color="white"/>
<stop offset="1" stop-color="#A59AC2"/>
</linearGradient>
<linearGradient id="paint40_linear_496_41179" x1="33.2756" y1="62.3504" x2="86.5774" y2="58.079" gradientUnits="userSpaceOnUse">
<stop stop-color="white"/>
<stop offset="1" stop-color="#A59AC2"/>
</linearGradient>
<linearGradient id="paint41_linear_496_41179" x1="42.6148" y1="67.3826" x2="43.5486" y2="28.7943" gradientUnits="userSpaceOnUse">
<stop stop-color="white"/>
<stop offset="1" stop-color="#A59AC2"/>
</linearGradient>
<linearGradient id="paint42_linear_496_41179" x1="29.2927" y1="73.273" x2="30.3722" y2="28.6658" gradientUnits="userSpaceOnUse">
<stop stop-color="white"/>
<stop offset="1" stop-color="#A59AC2"/>
</linearGradient>
<linearGradient id="paint43_linear_496_41179" x1="37.9465" y1="48.2059" x2="22.7823" y2="7.39759" gradientUnits="userSpaceOnUse">
<stop offset="0.22" stop-color="#A59AC2"/>
<stop offset="0.99" stop-color="#F3D6D2"/>
</linearGradient>
<linearGradient id="paint44_linear_496_41179" x1="25.0176" y1="3.81659" x2="25.0359" y2="3.0624" gradientUnits="userSpaceOnUse">
<stop stop-color="white"/>
<stop offset="1" stop-color="#A59AC2"/>
</linearGradient>
<linearGradient id="paint45_linear_496_41179" x1="24.0692" y1="8.98082" x2="40.1778" y2="56.6181" gradientUnits="userSpaceOnUse">
<stop stop-color="white"/>
<stop offset="1" stop-color="#A59AC2"/>
</linearGradient>
<linearGradient id="paint46_linear_496_41179" x1="22.3837" y1="15.1383" x2="39.5119" y2="15.555" gradientUnits="userSpaceOnUse">
<stop offset="0.28" stop-color="#FFC293"/>
<stop offset="0.36" stop-color="#E2AC82"/>
<stop offset="0.54" stop-color="#987457"/>
<stop offset="0.8" stop-color="#241B14"/>
<stop offset="0.88"/>
</linearGradient>
<linearGradient id="paint47_linear_496_41179" x1="38.183" y1="10.707" x2="38.4417" y2="0.0165408" gradientUnits="userSpaceOnUse">
<stop offset="0.12"/>
<stop offset="0.22" stop-color="#241B14"/>
<stop offset="0.54" stop-color="#987457"/>
<stop offset="0.76" stop-color="#E2AC82"/>
<stop offset="0.86" stop-color="#FFC293"/>
</linearGradient>
<linearGradient id="paint48_linear_496_41179" x1="126.565" y1="86.4191" x2="51.0043" y2="84.5807" gradientUnits="userSpaceOnUse">
<stop stop-color="white"/>
<stop offset="1" stop-color="#A59AC2"/>
</linearGradient>
<linearGradient id="paint49_linear_496_41179" x1="35.9092" y1="20.5209" x2="36.3286" y2="3.18911" gradientUnits="userSpaceOnUse">
<stop stop-color="white"/>
<stop offset="1" stop-color="#A59AC2"/>
</linearGradient>
<linearGradient id="paint50_linear_496_41179" x1="51.1816" y1="94.1925" x2="85.585" y2="130.411" gradientUnits="userSpaceOnUse">
<stop stop-color="#F3D6D2"/>
<stop offset="1" stop-color="#A59AC2"/>
</linearGradient>
<linearGradient id="paint51_linear_496_41179" x1="56.1809" y1="93.7275" x2="88.4486" y2="127.69" gradientUnits="userSpaceOnUse">
<stop stop-color="#A59AC2"/>
<stop offset="0.99" stop-color="white"/>
</linearGradient>
<linearGradient id="paint52_linear_496_41179" x1="65.9403" y1="69.1266" x2="88.8213" y2="93.2096" gradientUnits="userSpaceOnUse">
<stop stop-color="#F3D6D2"/>
<stop offset="1" stop-color="#A59AC2"/>
</linearGradient>
<linearGradient id="paint53_linear_496_41179" x1="34.7576" y1="27.9955" x2="35.1818" y2="10.466" gradientUnits="userSpaceOnUse">
<stop stop-color="white"/>
<stop offset="1" stop-color="#A59AC2"/>
</linearGradient>
<radialGradient id="paint54_radial_496_41179" cx="0" cy="0" r="1" gradientUnits="userSpaceOnUse" gradientTransform="translate(43.4177 11.8263) rotate(-24.5324) scale(6.28613 6.83123)">
<stop stop-color="#6800FF"/>
<stop offset="0.1" stop-color="#6500F9"/>
<stop offset="0.22" stop-color="#5F00E9"/>
<stop offset="0.36" stop-color="#5400D0"/>
<stop offset="0.51" stop-color="#4600AC"/>
<stop offset="0.66" stop-color="#33007D"/>
<stop offset="0.83" stop-color="#1C0045"/>
<stop offset="0.99" stop-color="#010004"/>
<stop offset="1"/>
</radialGradient>
<radialGradient id="paint55_radial_496_41179" cx="0" cy="0" r="1" gradientUnits="userSpaceOnUse" gradientTransform="translate(27.5234 9.85348) rotate(41.7643) scale(3.49861 6.83616)">
<stop stop-color="#6800FF"/>
<stop offset="0.1" stop-color="#6500F9"/>
<stop offset="0.22" stop-color="#5F00E9"/>
<stop offset="0.36" stop-color="#5400D0"/>
<stop offset="0.51" stop-color="#4600AC"/>
<stop offset="0.66" stop-color="#33007D"/>
<stop offset="0.83" stop-color="#1C0045"/>
<stop offset="0.99" stop-color="#010004"/>
<stop offset="1"/>
</radialGradient>
<linearGradient id="paint56_linear_496_41179" x1="36.0246" y1="13.9737" x2="36.2775" y2="3.52488" gradientUnits="userSpaceOnUse">
<stop/>
<stop offset="0.49" stop-color="#6C3A71"/>
<stop offset="0.84" stop-color="#B260BB"/>
<stop offset="1" stop-color="#CE6FD8"/>
</linearGradient>
<linearGradient id="paint57_linear_496_41179" x1="76.17" y1="85.2582" x2="76.6731" y2="64.4703" gradientUnits="userSpaceOnUse">
<stop stop-color="white"/>
<stop offset="1" stop-color="#A59AC2"/>
</linearGradient>
<linearGradient id="paint58_linear_496_41179" x1="44.1839" y1="55.427" x2="33.3212" y2="34.5444" gradientUnits="userSpaceOnUse">
<stop stop-color="#A59AC2"/>
<stop offset="0.25" stop-color="#A79DC3"/>
<stop offset="0.44" stop-color="#B0A6C9"/>
<stop offset="0.61" stop-color="#BEB6D3"/>
<stop offset="0.76" stop-color="#D3CDE1"/>
<stop offset="0.91" stop-color="#EDEBF3"/>
<stop offset="0.99" stop-color="white"/>
</linearGradient>
<linearGradient id="paint59_linear_496_41179" x1="139.468" y1="104.103" x2="144.001" y2="84.4186" gradientUnits="userSpaceOnUse">
<stop stop-color="#A59AC2"/>
<stop offset="0.99" stop-color="white"/>
</linearGradient>
<linearGradient id="paint60_linear_496_41179" x1="78.8586" y1="70.6614" x2="75.3533" y2="88.6246" gradientUnits="userSpaceOnUse">
<stop stop-color="#3E1E43"/>
<stop offset="0.52" stop-color="#502B74"/>
<stop offset="1" stop-color="#3E1E43"/>
</linearGradient>
<radialGradient id="paint61_radial_496_41179" cx="0" cy="0" r="1" gradientUnits="userSpaceOnUse" gradientTransform="translate(118.192 81.7457) rotate(4.14898) scale(6.53011 8.51692)">
<stop stop-color="#6800FF"/>
<stop offset="0.1" stop-color="#6500F9"/>
<stop offset="0.22" stop-color="#5F00E9"/>
<stop offset="0.36" stop-color="#5400D0"/>
<stop offset="0.51" stop-color="#4600AC"/>
<stop offset="0.66" stop-color="#33007D"/>
<stop offset="0.83" stop-color="#1C0045"/>
<stop offset="0.99" stop-color="#010004"/>
<stop offset="1"/>
</radialGradient>
<linearGradient id="paint62_linear_496_41179" x1="25.1037" y1="99.6059" x2="52.8113" y2="100.28" gradientUnits="userSpaceOnUse">
<stop stop-color="#FFC293"/>
<stop offset="0.14" stop-color="#E2AC82"/>
<stop offset="0.44" stop-color="#987457"/>
<stop offset="0.87" stop-color="#241B14"/>
<stop offset="1"/>
</linearGradient>
<linearGradient id="paint63_linear_496_41179" x1="37.286" y1="56.0367" x2="49.7522" y2="56.34" gradientUnits="userSpaceOnUse">
<stop stop-color="#FFC293"/>
<stop offset="0.14" stop-color="#E2AC82"/>
<stop offset="0.44" stop-color="#987457"/>
<stop offset="0.87" stop-color="#241B14"/>
<stop offset="1"/>
</linearGradient>
<linearGradient id="paint64_linear_496_41179" x1="23.1025" y1="54.7483" x2="33.4764" y2="55.0007" gradientUnits="userSpaceOnUse">
<stop stop-color="#FFC293"/>
<stop offset="0.14" stop-color="#E2AC82"/>
<stop offset="0.44" stop-color="#987457"/>
<stop offset="0.87" stop-color="#241B14"/>
<stop offset="1"/>
</linearGradient>
<linearGradient id="paint65_linear_496_41179" x1="64.9898" y1="73.778" x2="73.352" y2="73.9814" gradientUnits="userSpaceOnUse">
<stop stop-color="#FFC293"/>
<stop offset="0.14" stop-color="#E2AC82"/>
<stop offset="0.44" stop-color="#987457"/>
<stop offset="0.87" stop-color="#241B14"/>
<stop offset="1"/>
</linearGradient>
<linearGradient id="paint66_linear_496_41179" x1="50.202" y1="115.137" x2="65.8539" y2="131.604" gradientUnits="userSpaceOnUse">
<stop/>
<stop offset="1" stop-color="#A59AC2"/>
</linearGradient>
<linearGradient id="paint67_linear_496_41179" x1="57.358" y1="107.845" x2="70.808" y2="108.172" gradientUnits="userSpaceOnUse">
<stop stop-color="#FFC293"/>
<stop offset="0.14" stop-color="#E2AC82"/>
<stop offset="0.44" stop-color="#987457"/>
<stop offset="0.87" stop-color="#241B14"/>
<stop offset="1"/>
</linearGradient>
<linearGradient id="paint68_linear_496_41179" x1="70.0576" y1="142.946" x2="78.7282" y2="143.157" gradientUnits="userSpaceOnUse">
<stop/>
<stop offset="1" stop-color="#A59AC2"/>
</linearGradient>
<linearGradient id="paint69_linear_496_41179" x1="79.1701" y1="139.789" x2="87.6571" y2="139.995" gradientUnits="userSpaceOnUse">
<stop/>
<stop offset="1" stop-color="#A59AC2"/>
</linearGradient>
<linearGradient id="paint70_linear_496_41179" x1="75.9403" y1="140.59" x2="86.0278" y2="140.835" gradientUnits="userSpaceOnUse">
<stop/>
<stop offset="1" stop-color="#A59AC2"/>
</linearGradient>
<linearGradient id="paint71_linear_496_41179" x1="0.13358" y1="127.121" x2="17.0048" y2="127.531" gradientUnits="userSpaceOnUse">
<stop stop-color="#A59AC2"/>
<stop offset="1"/>
</linearGradient>
<clipPath id="clip0_496_41179">
<rect width="221" height="149" fill="white"/>
</clipPath>
</defs>
</svg>
