<svg width="12" height="18" viewBox="0 0 12 18" fill="none" xmlns="http://www.w3.org/2000/svg">
<path d="M11.7967 9.49995C11.7859 9.16455 12.0875 8.75869 11.7967 8.49995L2.79666 0.499949C2.54886 0.289126 2.15219 0.499949 1.79666 0.499949C1.07481 0.499949 0.796655 0.857897 0.796655 1.49995C0.796655 1.8066 0.548859 2.27954 0.796655 2.49995L8.79665 9.49995L0.796655 15.4999C0.548859 15.7204 0.796655 16.1837 0.796655 16.4999C0.796655 17.142 1.07481 17.4999 1.79666 17.4999C2.14142 17.4999 2.54886 17.7108 2.79666 17.4999L11.7967 9.49995C12.0983 9.2508 11.7967 9.83535 11.7967 9.49995Z" fill="#5D5A88"/>
</svg>
