<svg width="12" height="18" viewBox="0 0 12 18" fill="none" xmlns="http://www.w3.org/2000/svg">
<path d="M0.134073 9.49995C-0.167592 9.2508 0.134073 9.83535 0.134073 9.49995L9.13407 17.4999C9.3711 17.7108 9.77854 17.4999 10.1341 17.4999C10.8451 17.4999 11.1341 17.142 11.1341 16.4999C11.1341 16.1837 11.3711 15.7204 11.1341 15.4999L3.13407 9.49995L11.1341 2.49995C11.3711 2.27954 11.1341 1.8066 11.1341 1.49995C11.1341 0.857897 10.8451 0.499949 10.1341 0.499949C9.77854 0.499949 9.3711 0.289126 9.13407 0.499949L0.134073 8.49995C-0.167592 8.75869 0.134073 9.16455 0.134073 9.49995Z" fill="#5D5A88"/>
</svg>
