<svg width="1440" height="1024" viewBox="0 0 1440 1024" fill="none" xmlns="http://www.w3.org/2000/svg">
<g opacity="0.2">
<path d="M323.15 386.563L202.52 467.736L283.641 588.442L404.272 507.27L323.15 386.563Z" fill="url(#paint0_linear_494_40396)"/>
<path d="M326.747 367.741L215.089 442.875L290.177 554.604L401.835 479.469L326.747 367.741Z" stroke="url(#paint1_linear_494_40396)" stroke-width="1.52" stroke-miterlimit="10"/>
<path d="M622.969 606.187L488.576 696.62L578.953 831.097L713.346 740.664L622.969 606.187Z" fill="url(#paint2_linear_494_40396)"/>
<path d="M600.876 600.854L476.484 684.558L560.135 809.027L684.526 725.324L600.876 600.854Z" stroke="url(#paint3_linear_494_40396)" stroke-width="1.52" stroke-miterlimit="10"/>
<path d="M959.102 257.994L909.534 291.348L942.867 340.947L992.435 307.593L959.102 257.994Z" fill="url(#paint4_linear_494_40396)"/>
<path d="M950.951 256.021L905.074 286.892L935.925 332.798L981.803 301.927L950.951 256.021Z" stroke="url(#paint5_linear_494_40396)" stroke-width="1.52" stroke-miterlimit="10"/>
<path d="M1048.03 7.45607L913.642 97.8889L1004.02 232.366L1138.41 141.933L1048.03 7.45607Z" fill="url(#paint6_linear_494_40396)"/>
<path d="M1037.89 40.0887L913.503 123.792L997.154 248.262L1121.55 164.558L1037.89 40.0887Z" stroke="url(#paint7_linear_494_40396)" stroke-width="1.52" stroke-miterlimit="10"/>
<path d="M1270.61 86.3784L1238.71 245.26L1397.5 277.18L1429.4 118.299L1270.61 86.3784Z" fill="url(#paint8_linear_494_40396)"/>
<path d="M1251.13 98.1326L1221.6 245.19L1368.57 274.736L1398.09 127.678L1251.13 98.1326Z" stroke="url(#paint9_linear_494_40396)" stroke-width="1.52" stroke-miterlimit="10"/>
<path d="M984.584 422.405L911.285 671.608L1160.33 744.952L1233.63 495.749L984.584 422.405Z" fill="url(#paint10_linear_494_40396)"/>
<path d="M968.112 392.454L900.267 623.114L1130.78 691.001L1198.63 460.341L968.112 392.454Z" stroke="url(#paint11_linear_494_40396)" stroke-width="1.52" stroke-miterlimit="10"/>
<path d="M870.717 575.461C904.446 541.711 904.446 486.993 870.717 453.243C836.989 419.494 782.305 419.494 748.576 453.243C714.848 486.993 714.848 541.711 748.576 575.461C782.305 609.21 836.989 609.21 870.717 575.461Z" fill="url(#paint12_linear_494_40396)"/>
<path d="M881.731 566.618C915.459 532.869 915.459 478.15 881.731 444.401C848.002 410.651 793.318 410.651 759.59 444.401C725.861 478.15 725.861 532.869 759.59 566.618C793.318 600.368 848.002 600.368 881.731 566.618Z" stroke="url(#paint13_linear_494_40396)" stroke-width="2" stroke-miterlimit="10"/>
<path d="M788.89 177.525C809.871 177.525 826.879 160.507 826.879 139.513C826.879 118.519 809.871 101.5 788.89 101.5C767.909 101.5 750.901 118.519 750.901 139.513C750.901 160.507 767.909 177.525 788.89 177.525Z" fill="url(#paint14_linear_494_40396)"/>
<path d="M811.351 135.54C812.31 114.568 796.097 96.7892 775.138 95.8295C754.179 94.8699 736.411 111.093 735.452 132.065C734.493 153.037 750.706 170.816 771.665 171.776C792.624 172.736 810.392 156.512 811.351 135.54Z" stroke="url(#paint15_linear_494_40396)" stroke-width="2" stroke-miterlimit="10"/>
<path d="M576.724 1086.57C641.823 1086.57 694.596 1033.77 694.596 968.629C694.596 903.49 641.823 850.684 576.724 850.684C511.626 850.684 458.853 903.49 458.853 968.629C458.853 1033.77 511.626 1086.57 576.724 1086.57Z" fill="url(#paint16_linear_494_40396)"/>
<path d="M591.747 1074.5C656.846 1074.5 709.618 1021.69 709.618 956.553C709.618 891.413 656.846 838.607 591.747 838.607C526.648 838.607 473.875 891.413 473.875 956.553C473.875 1021.69 526.648 1074.5 591.747 1074.5Z" stroke="url(#paint17_linear_494_40396)" stroke-width="2" stroke-miterlimit="10"/>
<path d="M69.1839 699.312C134.283 699.312 187.055 646.506 187.055 581.366C187.055 516.227 134.283 463.421 69.1839 463.421C4.08518 463.421 -48.6877 516.227 -48.6877 581.366C-48.6877 646.506 4.08518 699.312 69.1839 699.312Z" fill="url(#paint18_linear_494_40396)"/>
<path d="M84.2063 687.235C149.305 687.235 202.078 634.429 202.078 569.29C202.078 504.15 149.305 451.344 84.2063 451.344C19.1076 451.344 -33.6653 504.15 -33.6653 569.29C-33.6653 634.429 19.1076 687.235 84.2063 687.235Z" stroke="url(#paint19_linear_494_40396)" stroke-width="2" stroke-miterlimit="10"/>
<path d="M204.522 719.762L13.6431 1217.51L539.873 1134.05L204.522 719.762Z" fill="url(#paint20_linear_494_40396)"/>
<path d="M177.584 719.082L21.4854 1126.13L451.825 1057.87L177.584 719.082Z" stroke="url(#paint21_linear_494_40396)" stroke-width="2" stroke-miterlimit="10"/>
<path d="M821.193 832.238L894.166 1156.5L1138.33 931.126L821.193 832.238Z" fill="url(#paint22_linear_494_40396)"/>
<path d="M852.477 819.091L912.142 1084.26L1111.81 899.958L852.477 819.091Z" stroke="url(#paint23_linear_494_40396)" stroke-width="2" stroke-miterlimit="10"/>
<path d="M1122.63 295.233L1151.35 422.809L1247.41 334.146L1122.63 295.233Z" fill="url(#paint24_linear_494_40396)"/>
<path d="M1134.95 290.053L1158.43 394.376L1236.97 321.883L1134.95 290.053Z" stroke="url(#paint25_linear_494_40396)" stroke-width="2" stroke-miterlimit="10"/>
<path d="M233.498 164.549L395.045 217.356L359.976 50.9517L233.498 164.549Z" fill="url(#paint26_linear_494_40396)"/>
<path d="M235.908 147.343L368.022 190.536L339.352 54.4506L235.908 147.343Z" stroke="url(#paint27_linear_494_40396)" stroke-width="2" stroke-miterlimit="10"/>
<path d="M426.601 163.309L506.161 516.788L772.306 271.114L426.601 163.309Z" fill="url(#paint28_linear_494_40396)"/>
<path d="M447.039 155.292L519.86 478.86L763.496 253.976L447.039 155.292Z" stroke="url(#paint29_linear_494_40396)" stroke-width="2" stroke-miterlimit="10"/>
<path d="M1350.09 444.041L1253.01 793.104L1603.65 702.692L1350.09 444.041Z" fill="url(#paint30_linear_494_40396)"/>
<path d="M1371.88 446.639L1283.02 766.182L1604.01 683.413L1371.88 446.639Z" stroke="url(#paint31_linear_494_40396)" stroke-width="2" stroke-miterlimit="10"/>
<path d="M435.988 447.285L606.277 565.876L623.761 359.013L435.988 447.285Z" fill="url(#paint32_linear_494_40396)"/>
<path d="M441.522 435.973L597.399 544.542L613.423 355.174L441.522 435.973Z" stroke="url(#paint33_linear_494_40396)" stroke-width="2" stroke-miterlimit="10"/>
<path d="M459.405 555.727L325.162 706.28L344.199 723.276L478.442 572.723L459.405 555.727Z" fill="url(#paint34_linear_494_40396)"/>
<path d="M459.407 540.652L325.164 691.206L344.201 708.202L478.444 557.648L459.407 540.652Z" stroke="url(#paint35_linear_494_40396)" stroke-width="2" stroke-miterlimit="10"/>
<path d="M852.074 666.931L717.832 817.485L736.869 834.48L871.111 683.927L852.074 666.931Z" fill="url(#paint36_linear_494_40396)"/>
<path d="M852.077 651.873L717.834 802.427L736.871 819.423L871.114 668.869L852.077 651.873Z" stroke="url(#paint37_linear_494_40396)" stroke-width="2" stroke-miterlimit="10"/>
<path d="M1140.61 196.829L1006.36 347.382L1025.4 364.378L1159.64 213.825L1140.61 196.829Z" fill="url(#paint38_linear_494_40396)"/>
<path d="M1140.59 181.754L1006.35 332.308L1025.39 349.303L1159.63 198.75L1140.59 181.754Z" stroke="url(#paint39_linear_494_40396)" stroke-width="2" stroke-miterlimit="10"/>
<path d="M1234.38 725.409L1100.14 875.962L1119.17 892.958L1253.42 742.405L1234.38 725.409Z" fill="url(#paint40_linear_494_40396)"/>
<path d="M1234.38 710.334L1100.14 860.888L1119.18 877.883L1253.42 727.33L1234.38 710.334Z" stroke="url(#paint41_linear_494_40396)" stroke-width="2" stroke-miterlimit="10"/>
<path d="M1448.24 248.117L1314 398.671L1333.04 415.667L1467.28 265.113L1448.24 248.117Z" fill="url(#paint42_linear_494_40396)"/>
<path d="M1448.24 233.059L1314 383.613L1333.04 400.609L1467.28 250.055L1448.24 233.059Z" stroke="url(#paint43_linear_494_40396)" stroke-width="2" stroke-miterlimit="10"/>
<path d="M279.678 312.883L86.1812 256.118L79.0035 280.616L272.5 337.38L279.678 312.883Z" fill="url(#paint44_linear_494_40396)"/>
<path d="M293.267 306.423L99.7703 249.658L92.5926 274.156L286.089 330.921L293.267 306.423Z" stroke="url(#paint45_linear_494_40396)" stroke-width="2" stroke-miterlimit="10"/>
<path d="M1418.84 1034.87C1464.87 988.805 1464.87 914.126 1418.84 868.066C1372.81 822.005 1298.18 822.005 1252.15 868.066C1206.11 914.126 1206.11 988.805 1252.15 1034.87C1298.18 1080.93 1372.81 1080.93 1418.84 1034.87Z" fill="url(#paint46_linear_494_40396)"/>
<path d="M1466.92 958.337C1477.35 894.039 1433.71 833.454 1369.45 823.017C1305.2 812.58 1244.65 856.243 1234.22 920.541C1223.79 984.839 1267.43 1045.42 1331.68 1055.86C1395.94 1066.3 1456.49 1022.63 1466.92 958.337Z" stroke="url(#paint47_linear_494_40396)" stroke-width="2" stroke-miterlimit="10"/>
<path d="M866.277 388.227C879.908 388.227 890.958 377.17 890.958 363.531C890.958 349.891 879.908 338.834 866.277 338.834C852.646 338.834 841.596 349.891 841.596 363.531C841.596 377.17 852.646 388.227 866.277 388.227Z" fill="url(#paint48_linear_494_40396)"/>
<path d="M873.714 377.313C883.353 367.669 883.353 352.032 873.714 342.387C864.076 332.742 848.449 332.742 838.81 342.387C829.171 352.032 829.171 367.669 838.81 377.313C848.449 386.958 864.076 386.958 873.714 377.313Z" stroke="url(#paint49_linear_494_40396)" stroke-width="2" stroke-miterlimit="10"/>
<path d="M993.502 820.688C1007.13 820.688 1018.18 809.631 1018.18 795.991C1018.18 782.352 1007.13 771.295 993.502 771.295C979.871 771.295 968.821 782.352 968.821 795.991C968.821 809.631 979.871 820.688 993.502 820.688Z" fill="url(#paint50_linear_494_40396)"/>
<path d="M1000.95 809.772C1010.58 800.127 1010.58 784.49 1000.95 774.846C991.307 765.201 975.68 765.201 966.041 774.846C956.403 784.49 956.403 800.127 966.042 809.772C975.68 819.417 991.307 819.417 1000.95 809.772Z" stroke="url(#paint51_linear_494_40396)" stroke-width="2" stroke-miterlimit="10"/>
<path d="M1270.36 483.939C1283.99 483.939 1295.04 472.882 1295.04 459.242C1295.04 445.603 1283.99 434.546 1270.36 434.546C1256.73 434.546 1245.68 445.603 1245.68 459.242C1245.68 472.882 1256.73 483.939 1270.36 483.939Z" fill="url(#paint52_linear_494_40396)"/>
<path d="M1284.31 461.176C1287.44 447.901 1279.23 434.6 1265.96 431.467C1252.7 428.334 1239.4 436.555 1236.27 449.83C1233.14 463.105 1241.36 476.406 1254.62 479.539C1267.89 482.672 1281.18 474.451 1284.31 461.176Z" stroke="url(#paint53_linear_494_40396)" stroke-width="2" stroke-miterlimit="10"/>
<path d="M297.582 661.709C300.924 648.486 292.92 635.056 279.705 631.712C266.489 628.368 253.068 636.378 249.726 649.601C246.385 662.824 254.389 676.254 267.604 679.598C280.819 682.942 294.241 674.932 297.582 661.709Z" fill="url(#paint54_linear_494_40396)"/>
<path d="M287.998 655.637C290.086 642.158 280.858 629.538 267.388 627.449C253.918 625.36 241.306 634.593 239.218 648.072C237.13 661.55 246.358 674.17 259.828 676.259C273.298 678.348 285.91 669.115 287.998 655.637Z" stroke="url(#paint55_linear_494_40396)" stroke-width="2" stroke-miterlimit="10"/>
<path d="M214.173 221.952C224.445 212.985 225.507 197.385 216.547 187.106C207.586 176.828 191.995 175.765 181.723 184.731C171.451 193.697 170.389 209.298 179.349 219.576C188.31 229.854 203.901 230.918 214.173 221.952Z" fill="url(#paint56_linear_494_40396)"/>
<path d="M206.531 215.916C215.499 205.644 214.447 190.042 204.182 181.069C193.916 172.095 178.324 173.148 169.357 183.42C160.389 193.692 161.441 209.293 171.706 218.267C181.972 227.24 197.564 226.188 206.531 215.916Z" stroke="url(#paint57_linear_494_40396)" stroke-width="2" stroke-miterlimit="10"/>
</g>
<defs>
<linearGradient id="paint0_linear_494_40396" x1="355.219" y1="388.127" x2="246.475" y2="596.429" gradientUnits="userSpaceOnUse">
<stop stop-color="#4A148C"/>
<stop offset="1" stop-color="#0B0523"/>
</linearGradient>
<linearGradient id="paint1_linear_494_40396" x1="251.567" y1="499.467" x2="365.411" y2="422.957" gradientUnits="userSpaceOnUse">
<stop stop-color="#D500F9"/>
<stop offset="0.52" stop-color="#18FFFF"/>
<stop offset="1" stop-color="#64FFDA"/>
</linearGradient>
<linearGradient id="paint2_linear_494_40396" x1="658.725" y1="607.947" x2="537.577" y2="839.988" gradientUnits="userSpaceOnUse">
<stop stop-color="#4A148C"/>
<stop offset="1" stop-color="#0B0523"/>
</linearGradient>
<linearGradient id="paint3_linear_494_40396" x1="517.224" y1="747.492" x2="643.807" y2="662.421" gradientUnits="userSpaceOnUse">
<stop stop-color="#D500F9"/>
<stop offset="0.52" stop-color="#18FFFF"/>
<stop offset="1" stop-color="#64FFDA"/>
</linearGradient>
<linearGradient id="paint4_linear_494_40396" x1="972.282" y1="258.594" x2="927.612" y2="344.176" gradientUnits="userSpaceOnUse">
<stop stop-color="#4A148C"/>
<stop offset="1" stop-color="#0B0523"/>
</linearGradient>
<linearGradient id="paint5_linear_494_40396" x1="919.424" y1="310.558" x2="967.462" y2="278.274" gradientUnits="userSpaceOnUse">
<stop stop-color="#D500F9"/>
<stop offset="0.52" stop-color="#18FFFF"/>
<stop offset="1" stop-color="#64FFDA"/>
</linearGradient>
<linearGradient id="paint6_linear_494_40396" x1="926.304" y1="242.563" x2="1052.01" y2="88.0745" gradientUnits="userSpaceOnUse">
<stop stop-color="#4A148C"/>
<stop offset="1" stop-color="#0B0523"/>
</linearGradient>
<linearGradient id="paint7_linear_494_40396" x1="954.262" y1="186.754" x2="1080.84" y2="101.684" gradientUnits="userSpaceOnUse">
<stop stop-color="#D500F9"/>
<stop offset="0.52" stop-color="#18FFFF"/>
<stop offset="1" stop-color="#64FFDA"/>
</linearGradient>
<linearGradient id="paint8_linear_494_40396" x1="1222.38" y1="225.001" x2="1526.83" y2="107.371" gradientUnits="userSpaceOnUse">
<stop stop-color="#4A148C"/>
<stop offset="1" stop-color="#0B0523"/>
</linearGradient>
<linearGradient id="paint9_linear_494_40396" x1="1294.84" y1="261.247" x2="1324.91" y2="111.649" gradientUnits="userSpaceOnUse">
<stop stop-color="#D500F9"/>
<stop offset="0.52" stop-color="#18FFFF"/>
<stop offset="1" stop-color="#64FFDA"/>
</linearGradient>
<linearGradient id="paint10_linear_494_40396" x1="1030.45" y1="388.001" x2="1118.67" y2="798.287" gradientUnits="userSpaceOnUse">
<stop stop-color="#4A148C"/>
<stop offset="1" stop-color="#0B0523"/>
</linearGradient>
<linearGradient id="paint11_linear_494_40396" x1="1015.17" y1="658.279" x2="1083.82" y2="425.166" gradientUnits="userSpaceOnUse">
<stop stop-color="#D500F9"/>
<stop offset="0.52" stop-color="#18FFFF"/>
<stop offset="1" stop-color="#64FFDA"/>
</linearGradient>
<linearGradient id="paint12_linear_494_40396" x1="723.271" y1="514.357" x2="896.005" y2="514.357" gradientUnits="userSpaceOnUse">
<stop stop-color="#4A148C"/>
<stop offset="1" stop-color="#0B0523"/>
</linearGradient>
<linearGradient id="paint13_linear_494_40396" x1="732.592" y1="505.505" x2="908.72" y2="505.505" gradientUnits="userSpaceOnUse">
<stop stop-color="#D500F9"/>
<stop offset="0.52" stop-color="#18FFFF"/>
<stop offset="1" stop-color="#64FFDA"/>
</linearGradient>
<linearGradient id="paint14_linear_494_40396" x1="766.721" y1="171.835" x2="806.357" y2="114.109" gradientUnits="userSpaceOnUse">
<stop stop-color="#4A148C"/>
<stop offset="1" stop-color="#0B0523"/>
</linearGradient>
<linearGradient id="paint15_linear_494_40396" x1="733.713" y1="133.859" x2="813.086" y2="133.859" gradientUnits="userSpaceOnUse">
<stop stop-color="#D500F9"/>
<stop offset="0.52" stop-color="#18FFFF"/>
<stop offset="1" stop-color="#64FFDA"/>
</linearGradient>
<linearGradient id="paint16_linear_494_40396" x1="585.042" y1="846.845" x2="569.168" y2="1078.98" gradientUnits="userSpaceOnUse">
<stop stop-color="#4A148C"/>
<stop offset="1" stop-color="#0B0523"/>
</linearGradient>
<linearGradient id="paint17_linear_494_40396" x1="472.178" y1="956.553" x2="711.316" y2="956.553" gradientUnits="userSpaceOnUse">
<stop stop-color="#D500F9"/>
<stop offset="0.52" stop-color="#18FFFF"/>
<stop offset="1" stop-color="#64FFDA"/>
</linearGradient>
<linearGradient id="paint18_linear_494_40396" x1="145.977" y1="473.102" x2="21.3986" y2="648.537" gradientUnits="userSpaceOnUse">
<stop stop-color="#4A148C"/>
<stop offset="1" stop-color="#0B0523"/>
</linearGradient>
<linearGradient id="paint19_linear_494_40396" x1="-35.3627" y1="569.29" x2="203.775" y2="569.29" gradientUnits="userSpaceOnUse">
<stop stop-color="#D500F9"/>
<stop offset="0.52" stop-color="#18FFFF"/>
<stop offset="1" stop-color="#64FFDA"/>
</linearGradient>
<linearGradient id="paint20_linear_494_40396" x1="382.739" y1="909.045" x2="216.233" y2="1190.91" gradientUnits="userSpaceOnUse">
<stop stop-color="#4A148C"/>
<stop offset="1" stop-color="#0B0523"/>
</linearGradient>
<linearGradient id="paint21_linear_494_40396" x1="-11.1373" y1="939.274" x2="425.017" y2="870.238" gradientUnits="userSpaceOnUse">
<stop stop-color="#D500F9"/>
<stop offset="0.52" stop-color="#18FFFF"/>
<stop offset="1" stop-color="#64FFDA"/>
</linearGradient>
<linearGradient id="paint22_linear_494_40396" x1="941.488" y1="829.281" x2="1056.31" y2="1158.42" gradientUnits="userSpaceOnUse">
<stop stop-color="#4A148C"/>
<stop offset="1" stop-color="#0B0523"/>
</linearGradient>
<linearGradient id="paint23_linear_494_40396" x1="829.693" y1="999.115" x2="1033.81" y2="810.948" gradientUnits="userSpaceOnUse">
<stop stop-color="#D500F9"/>
<stop offset="0.52" stop-color="#18FFFF"/>
<stop offset="1" stop-color="#64FFDA"/>
</linearGradient>
<linearGradient id="paint24_linear_494_40396" x1="1169.93" y1="294.07" x2="1215.11" y2="423.568" gradientUnits="userSpaceOnUse">
<stop stop-color="#4A148C"/>
<stop offset="1" stop-color="#0B0523"/>
</linearGradient>
<linearGradient id="paint25_linear_494_40396" x1="1124.36" y1="361.694" x2="1207.28" y2="285.253" gradientUnits="userSpaceOnUse">
<stop stop-color="#D500F9"/>
<stop offset="0.52" stop-color="#18FFFF"/>
<stop offset="1" stop-color="#64FFDA"/>
</linearGradient>
<linearGradient id="paint26_linear_494_40396" x1="263.663" y1="110.889" x2="438.317" y2="146.587" gradientUnits="userSpaceOnUse">
<stop stop-color="#4A148C"/>
<stop offset="1" stop-color="#0B0523"/>
</linearGradient>
<linearGradient id="paint27_linear_494_40396" x1="308.96" y1="205.978" x2="279.028" y2="64.1541" gradientUnits="userSpaceOnUse">
<stop stop-color="#D500F9"/>
<stop offset="0.52" stop-color="#18FFFF"/>
<stop offset="1" stop-color="#64FFDA"/>
</linearGradient>
<linearGradient id="paint28_linear_494_40396" x1="557.744" y1="160.141" x2="682.912" y2="518.91" gradientUnits="userSpaceOnUse">
<stop stop-color="#4A148C"/>
<stop offset="1" stop-color="#0B0523"/>
</linearGradient>
<linearGradient id="paint29_linear_494_40396" x1="419.819" y1="374.641" x2="667.94" y2="145.905" gradientUnits="userSpaceOnUse">
<stop stop-color="#D500F9"/>
<stop offset="0.52" stop-color="#18FFFF"/>
<stop offset="1" stop-color="#64FFDA"/>
</linearGradient>
<linearGradient id="paint30_linear_494_40396" x1="1467.13" y1="503.253" x2="1407.51" y2="878.557" gradientUnits="userSpaceOnUse">
<stop stop-color="#4A148C"/>
<stop offset="1" stop-color="#0B0523"/>
</linearGradient>
<linearGradient id="paint31_linear_494_40396" x1="1244.13" y1="626.925" x2="1570.84" y2="542.79" gradientUnits="userSpaceOnUse">
<stop stop-color="#D500F9"/>
<stop offset="0.52" stop-color="#18FFFF"/>
<stop offset="1" stop-color="#64FFDA"/>
</linearGradient>
<linearGradient id="paint32_linear_494_40396" x1="490.162" y1="395.12" x2="681.809" y2="498.277" gradientUnits="userSpaceOnUse">
<stop stop-color="#4A148C"/>
<stop offset="1" stop-color="#0B0523"/>
</linearGradient>
<linearGradient id="paint33_linear_494_40396" x1="514.356" y1="540.406" x2="530.897" y2="345.182" gradientUnits="userSpaceOnUse">
<stop stop-color="#D500F9"/>
<stop offset="0.52" stop-color="#18FFFF"/>
<stop offset="1" stop-color="#64FFDA"/>
</linearGradient>
<linearGradient id="paint34_linear_494_40396" x1="325.141" y1="639.516" x2="478.439" y2="639.516" gradientUnits="userSpaceOnUse">
<stop stop-color="#4A148C"/>
<stop offset="1" stop-color="#0B0523"/>
</linearGradient>
<linearGradient id="paint35_linear_494_40396" x1="333.545" y1="700.941" x2="470.132" y2="547.951" gradientUnits="userSpaceOnUse">
<stop stop-color="#D500F9"/>
<stop offset="0.52" stop-color="#18FFFF"/>
<stop offset="1" stop-color="#64FFDA"/>
</linearGradient>
<linearGradient id="paint36_linear_494_40396" x1="717.817" y1="750.728" x2="871.114" y2="750.728" gradientUnits="userSpaceOnUse">
<stop stop-color="#4A148C"/>
<stop offset="1" stop-color="#0B0523"/>
</linearGradient>
<linearGradient id="paint37_linear_494_40396" x1="726.203" y1="812.175" x2="862.802" y2="659.172" gradientUnits="userSpaceOnUse">
<stop stop-color="#D500F9"/>
<stop offset="0.52" stop-color="#18FFFF"/>
<stop offset="1" stop-color="#64FFDA"/>
</linearGradient>
<linearGradient id="paint38_linear_494_40396" x1="1006.38" y1="280.635" x2="1159.66" y2="280.635" gradientUnits="userSpaceOnUse">
<stop stop-color="#4A148C"/>
<stop offset="1" stop-color="#0B0523"/>
</linearGradient>
<linearGradient id="paint39_linear_494_40396" x1="1014.71" y1="342.069" x2="1151.29" y2="189.078" gradientUnits="userSpaceOnUse">
<stop stop-color="#D500F9"/>
<stop offset="0.52" stop-color="#18FFFF"/>
<stop offset="1" stop-color="#64FFDA"/>
</linearGradient>
<linearGradient id="paint40_linear_494_40396" x1="1100.12" y1="809.225" x2="1253.4" y2="809.225" gradientUnits="userSpaceOnUse">
<stop stop-color="#4A148C"/>
<stop offset="1" stop-color="#0B0523"/>
</linearGradient>
<linearGradient id="paint41_linear_494_40396" x1="1108.47" y1="870.626" x2="1245.07" y2="717.622" gradientUnits="userSpaceOnUse">
<stop stop-color="#D500F9"/>
<stop offset="0.52" stop-color="#18FFFF"/>
<stop offset="1" stop-color="#64FFDA"/>
</linearGradient>
<linearGradient id="paint42_linear_494_40396" x1="1313.98" y1="331.936" x2="1467.26" y2="331.936" gradientUnits="userSpaceOnUse">
<stop stop-color="#4A148C"/>
<stop offset="1" stop-color="#0B0523"/>
</linearGradient>
<linearGradient id="paint43_linear_494_40396" x1="1322.34" y1="393.375" x2="1458.93" y2="240.372" gradientUnits="userSpaceOnUse">
<stop stop-color="#D500F9"/>
<stop offset="0.52" stop-color="#18FFFF"/>
<stop offset="1" stop-color="#64FFDA"/>
</linearGradient>
<linearGradient id="paint44_linear_494_40396" x1="146.434" y1="227.506" x2="212.248" y2="366.025" gradientUnits="userSpaceOnUse">
<stop stop-color="#4A148C"/>
<stop offset="1" stop-color="#0B0523"/>
</linearGradient>
<linearGradient id="paint45_linear_494_40396" x1="94.5664" y1="261.442" x2="291.34" y2="319.096" gradientUnits="userSpaceOnUse">
<stop stop-color="#D500F9"/>
<stop offset="0.52" stop-color="#18FFFF"/>
<stop offset="1" stop-color="#64FFDA"/>
</linearGradient>
<linearGradient id="paint46_linear_494_40396" x1="1217.63" y1="951.463" x2="1453.37" y2="951.463" gradientUnits="userSpaceOnUse">
<stop stop-color="#4A148C"/>
<stop offset="1" stop-color="#0B0523"/>
</linearGradient>
<linearGradient id="paint47_linear_494_40396" x1="1231.03" y1="939.382" x2="1470.17" y2="939.382" gradientUnits="userSpaceOnUse">
<stop stop-color="#D500F9"/>
<stop offset="0.52" stop-color="#18FFFF"/>
<stop offset="1" stop-color="#64FFDA"/>
</linearGradient>
<linearGradient id="paint48_linear_494_40396" x1="849.88" y1="388.669" x2="877.063" y2="347.07" gradientUnits="userSpaceOnUse">
<stop stop-color="#4A148C"/>
<stop offset="1" stop-color="#0B0523"/>
</linearGradient>
<linearGradient id="paint49_linear_494_40396" x1="829.897" y1="359.854" x2="882.637" y2="359.854" gradientUnits="userSpaceOnUse">
<stop stop-color="#D500F9"/>
<stop offset="0.52" stop-color="#18FFFF"/>
<stop offset="1" stop-color="#64FFDA"/>
</linearGradient>
<linearGradient id="paint50_linear_494_40396" x1="978.411" y1="769.274" x2="1007.86" y2="821.335" gradientUnits="userSpaceOnUse">
<stop stop-color="#4A148C"/>
<stop offset="1" stop-color="#0B0523"/>
</linearGradient>
<linearGradient id="paint51_linear_494_40396" x1="957.123" y1="792.304" x2="1009.86" y2="792.304" gradientUnits="userSpaceOnUse">
<stop stop-color="#D500F9"/>
<stop offset="0.52" stop-color="#18FFFF"/>
<stop offset="1" stop-color="#64FFDA"/>
</linearGradient>
<linearGradient id="paint52_linear_494_40396" x1="1256.86" y1="436.329" x2="1287.45" y2="488.117" gradientUnits="userSpaceOnUse">
<stop stop-color="#4A148C"/>
<stop offset="1" stop-color="#0B0523"/>
</linearGradient>
<linearGradient id="paint53_linear_494_40396" x1="1233.91" y1="455.559" x2="1286.65" y2="455.559" gradientUnits="userSpaceOnUse">
<stop stop-color="#D500F9"/>
<stop offset="0.52" stop-color="#18FFFF"/>
<stop offset="1" stop-color="#64FFDA"/>
</linearGradient>
<linearGradient id="paint54_linear_494_40396" x1="249.045" y1="655.615" x2="298.39" y2="655.615" gradientUnits="userSpaceOnUse">
<stop stop-color="#4A148C"/>
<stop offset="1" stop-color="#0B0523"/>
</linearGradient>
<linearGradient id="paint55_linear_494_40396" x1="237.182" y1="651.887" x2="289.922" y2="651.887" gradientUnits="userSpaceOnUse">
<stop stop-color="#D500F9"/>
<stop offset="0.52" stop-color="#18FFFF"/>
<stop offset="1" stop-color="#64FFDA"/>
</linearGradient>
<linearGradient id="paint56_linear_494_40396" x1="218.81" y1="238.738" x2="178.033" y2="169.682" gradientUnits="userSpaceOnUse">
<stop stop-color="#4A148C"/>
<stop offset="1" stop-color="#0B0523"/>
</linearGradient>
<linearGradient id="paint57_linear_494_40396" x1="161.584" y1="199.655" x2="214.324" y2="199.655" gradientUnits="userSpaceOnUse">
<stop stop-color="#D500F9"/>
<stop offset="0.52" stop-color="#18FFFF"/>
<stop offset="1" stop-color="#64FFDA"/>
</linearGradient>
</defs>
</svg>
