<svg width="24" height="24" viewBox="0 0 24 24" fill="none" xmlns="http://www.w3.org/2000/svg">
<path d="M11.6877 1.6001C13.6298 1.6001 15.2123 3.13949 15.2817 5.06465L15.2841 5.19707L19.1682 5.1965C19.7243 5.1965 20.1752 5.64734 20.1752 6.20349C20.1752 6.73183 19.7683 7.16513 19.2508 7.20714L19.1682 7.21048H18.4967L17.5604 19.6223C17.4641 20.8979 16.401 21.8838 15.1218 21.8838H8.25363C6.97439 21.8838 5.91129 20.8979 5.81502 19.6223L4.87813 7.21048H4.20719C3.67885 7.21048 3.24554 6.80359 3.20353 6.28608L3.2002 6.20349C3.2002 5.67515 3.60708 5.24184 4.1246 5.19983L4.20719 5.1965H8.0913C8.0913 3.29854 9.56151 1.74397 11.4252 1.60953L11.5559 1.60247L11.6877 1.6001ZM13.8455 9.08061C13.4731 9.08061 13.1668 9.36364 13.13 9.72634L13.1263 9.79989V16.705L13.13 16.7785C13.1668 17.1412 13.4731 17.4243 13.8455 17.4243C14.218 17.4243 14.5243 17.1412 14.5611 16.7785L14.5648 16.705V9.79989L14.5611 9.72634C14.5243 9.36364 14.218 9.08061 13.8455 9.08061ZM9.52986 9.08061C9.15744 9.08061 8.85112 9.36364 8.81429 9.72634L8.81058 9.79989V16.705L8.81429 16.7785C8.85112 17.1412 9.15744 17.4243 9.52986 17.4243C9.90227 17.4243 10.2086 17.1412 10.2454 16.7785L10.2491 16.705V9.79989L10.2454 9.72634C10.2086 9.36364 9.90227 9.08061 9.52986 9.08061ZM11.7841 3.61697L11.6877 3.61408C10.8461 3.61408 10.158 4.27104 10.1082 5.1001L10.1053 5.19707L13.2701 5.1965C13.2701 4.35492 12.6131 3.66679 11.7841 3.61697Z" fill="#5D5A88"/>
</svg>
