<svg width="200" height="247" viewBox="0 0 200 247" fill="none" xmlns="http://www.w3.org/2000/svg">
<g clip-path="url(#clip0_715_3056)">
<path d="M22.21 116.16C15.98 124.86 28.75 146.46 43.34 140.74C57.92 135.02 22.21 116.16 22.21 116.16Z" fill="url(#paint0_linear_715_3056)"/>
<path style="mix-blend-mode:multiply" d="M25.31 114.78C19.08 123.48 31.85 145.08 46.44 139.36C61.02 133.64 25.31 114.78 25.31 114.78Z" fill="url(#paint1_linear_715_3056)"/>
<path d="M52.77 231.23C52.77 231.23 54.46 224.98 51.78 215.27C50.49 210.6 50.31 206.6 45.19 189.79C42.17 179.87 41.02 178.63 44.62 177.91C48.67 177.1 52.27 177.56 53.33 181.56C55.56 189.95 56.32 199.91 58.7 206.88C59.92 210.44 64.32 215.79 64.79 225.63C65.21 234.37 64.79 236.17 64.79 236.17L52.78 231.23H52.77Z" fill="#3E1E43"/>
<path d="M64.78 236.17C64.78 236.17 61.02 224.87 55.71 228.49C55.71 228.49 52.6 222.56 47.33 227.77C47.33 227.77 43.38 223.55 40.64 236.17C40.64 236.17 50.3 240.78 64.78 236.17Z" fill="#6F5175"/>
<g style="mix-blend-mode:multiply" opacity="0.71">
<path d="M64.02 236.39C61.24 236.97 55.72 236.17 55.72 236.17C54.37 233.18 55.72 228.49 55.72 228.49C52.06 231.98 53.12 236.17 53.12 236.17C49.58 237.3 47.34 235.8 47.34 235.8C46.17 232.61 47.34 227.78 47.34 227.78C44.03 232.94 45.05 235.71 45.05 235.71C42.34 236.2 41.01 234.69 41 234.68C40.88 235.16 40.76 235.65 40.64 236.18C40.64 236.18 49.96 240.6 64.01 236.4L64.02 236.39Z" fill="#A59AC2"/>
</g>
<path d="M48.74 201.47C42.93 193.76 35.35 168.41 32.28 155.05C30.43 147.02 32.77 141.27 37.59 140.15C38.53 139.93 39.27 139.92 39.63 140.24C42.25 142.57 43.15 139.69 46.6 140.48C46.86 140.54 47.09 140.58 47.3 140.62C47.78 142.14 48.32 144.04 48.94 146.37C53.63 164.19 56.86 212.22 48.75 201.46L48.74 201.47Z" fill="url(#paint2_linear_715_3056)"/>
<path d="M39.59 137.98C38.36 140.41 35.4 148.39 33.99 149.11C32.58 149.82 32.8 144.13 32.54 142.18C32.28 140.23 29.76 135.87 29.76 135.87C29.76 135.87 34.53 140.42 36.96 139.21C40.39 137.49 39.59 137.99 39.59 137.99V137.98Z" fill="#3E1E43"/>
<path d="M46.49 138.25C45.21 137.22 43.76 136.26 43.76 136.26C43.76 136.26 44.06 131.45 46.49 138.25Z" fill="url(#paint3_linear_715_3056)"/>
<path d="M47.29 140.64C47.01 139.71 46.74 138.93 46.49 138.25C48.13 139.55 49.49 140.96 47.29 140.64Z" fill="url(#paint4_linear_715_3056)"/>
<path style="mix-blend-mode:multiply" d="M48.93 146.39C48.31 144.06 47.77 142.16 47.29 140.64C47.08 140.6 46.85 140.56 46.59 140.5C43.13 139.7 42.23 142.59 39.62 140.26C39.46 140.11 44.25 141.14 43.94 141.12C43.66 141.58 42.96 141.91 42.11 142.16C38.77 143.12 36.49 146.24 36.75 149.71C37.13 154.91 38.56 163.36 41.87 176.66C47.65 199.88 51.77 204.49 52.91 199.63C55.09 189.53 52.41 159.63 48.93 146.4V146.39Z" fill="url(#paint5_linear_715_3056)"/>
<path d="M48.93 146.39C48.31 144.06 47.77 142.16 47.29 140.64C47.08 140.6 46.85 140.56 46.59 140.5C43.13 139.7 42.23 142.59 39.62 140.26C39.46 140.11 44.25 141.14 43.94 141.12C43.65 141.6 42.89 141.94 41.98 142.19C38.7 143.08 36.49 146.18 36.73 149.57C36.76 150.02 36.8 150.49 36.85 150.98L50.88 156.08C50.28 152.38 49.61 149.05 48.91 146.39H48.93Z" fill="#6F5175"/>
<path d="M58.56 24.2301C59.9 25.0901 61.05 26.2601 61.71 27.7301C62.41 29.2801 62.46 31.1301 61.7 32.6701C61.52 33.0401 62.07 33.3701 62.26 33.0001C63.1 31.3101 63.09 29.3301 62.36 27.6001C61.67 25.9501 60.39 24.6301 58.9 23.6801C58.55 23.4601 58.23 24.0101 58.57 24.2401L58.56 24.2301Z" fill="#3E1E43"/>
<path d="M57.19 16.0102C58.29 16.4702 59.37 16.9602 60.26 17.7802C61.03 18.4902 61.66 19.3702 62.01 20.3602C62.72 22.3902 62.18 24.8902 60.3 26.1102C59.33 26.7402 58.15 26.9702 57.02 26.6702C56.62 26.5602 56.45 27.1802 56.85 27.2902C59.14 27.9002 61.56 26.6002 62.48 24.4502C63.47 22.1602 62.81 19.5502 61.15 17.7502C60.1 16.6202 58.76 15.9702 57.36 15.3802C56.98 15.2202 56.81 15.8402 57.19 16.0002V16.0102Z" fill="#3E1E43"/>
<path d="M135.35 137.76C135.35 137.76 142.61 175.79 166.47 181.33C180.2 184.52 189.55 181.83 195.29 177.67C202.8 172.22 200.33 160.16 191.27 158.12C190.87 158.03 190.46 157.95 190.04 157.87C178.17 155.77 163.17 155.65 155.4 139.25C147.63 122.85 135.35 137.75 135.35 137.75V137.76Z" fill="#3E1E43"/>
<path d="M149.21 130.82C149.21 130.82 148.32 161.4 171.7 170.25C202.42 181.88 198.4 161.27 198.4 161.27L196 158.29C196 158.29 173.67 156.15 165.46 149.79C154.42 141.23 158.43 121.34 138.78 110.45C119.13 99.56 149.2 130.81 149.2 130.81L149.21 130.82Z" fill="url(#paint6_linear_715_3056)"/>
<path d="M127.32 187.66C130.78 187.66 133.08 215.16 127.98 224.54L112.67 223.22C112.67 223.22 117.61 220.15 120.57 205.22C123.53 190.29 124.85 187.67 127.32 187.66Z" fill="url(#paint7_linear_715_3056)"/>
<g style="mix-blend-mode:multiply">
<path d="M183.76 165.17L183.3 161.62L174.8 154.16C174.27 153.99 173.74 153.82 173.22 153.64L182.28 161.59L182.69 161.95L183.09 165.03L179.56 170.76L175.28 171.52C175.73 171.67 176.17 171.81 176.6 171.94L179.95 171.34L183.75 165.17H183.76Z" fill="#8880A8"/>
</g>
<g style="mix-blend-mode:multiply">
<path d="M117.32 219.49L117.64 219.74L117.83 219.89C117.88 219.82 123.24 212.86 123.7 203.05L123.06 203.02C122.61 212.61 117.38 219.42 117.32 219.49Z" fill="#8880A8"/>
</g>
<path style="mix-blend-mode:color-dodge" opacity="0.52" d="M117.12 219.35L117.63 219.75L117.31 219.49C117.36 219.42 122.6 212.61 123.05 203.02L123.49 203.04C123.49 203.04 123.49 202.96 123.49 202.91L122.85 202.88C122.4 212.47 117.17 219.28 117.11 219.35H117.12Z" fill="url(#paint8_linear_715_3056)"/>
<path style="mix-blend-mode:color-dodge" opacity="0.52" d="M182.69 161.95L182.28 161.59L182.68 164.66L179.15 170.39L174.39 171.24C174.7 171.34 174.98 171.43 175.28 171.53L179.56 170.77L183.09 165.04L182.69 161.96V161.95Z" fill="url(#paint9_linear_715_3056)"/>
<path d="M54 146.63C53.9 148.34 54.08 150.06 54.55 151.7C54.98 153.22 55.64 154.84 56.71 156.03C57.75 157.19 59.45 157.97 60.98 158.18C61.75 158.29 62.54 158.2 63.23 157.83C63.88 157.48 64.38 156.92 64.82 156.34C65.96 154.86 66.77 153.14 67.22 151.33C67.32 150.93 66.7 150.76 66.6 151.16C66.24 152.61 65.64 153.99 64.82 155.24C63.99 156.49 62.99 157.68 61.35 157.57C60.58 157.52 59.83 157.25 59.14 156.93C58.47 156.62 57.83 156.25 57.31 155.72C56.27 154.65 55.66 153.13 55.24 151.73C54.74 150.07 54.55 148.35 54.66 146.62C54.69 146.21 54.04 146.21 54.02 146.62L54 146.63Z" fill="#3E1E43"/>
<path d="M112.67 181.23C119.14 189.46 122.65 205.97 122.65 208.69C122.65 208.69 126.37 201.73 126.26 190.71C126.26 190.71 124.4 189.79 124.4 185.73C124.4 181.67 112.66 181.23 112.66 181.23H112.67Z" fill="#3E1E43"/>
<path d="M93.23 146.27C95.57 163.49 103.13 179.42 116.62 185.02C130.12 190.62 126.95 186.5 122.11 180.25C117.27 174 115.4 159.58 118.81 151.31C122.21 143.05 108.23 138 108.23 138L93.23 146.27Z" fill="url(#paint10_linear_715_3056)"/>
<path d="M157.44 189.95C161.39 190.17 168.14 215.61 164.35 230.93L144.27 229.13C144.27 229.13 149 220.82 151.41 206.87C153.82 192.92 154.48 189.8 157.44 189.96V189.95Z" fill="url(#paint11_linear_715_3056)"/>
<path style="mix-blend-mode:multiply" d="M189.26 163.95C189.26 163.95 171.29 159.26 163.09 147.53C154.92 138.11 156.86 120.48 138.79 110.47C138.22 110.15 137.69 109.88 137.2 109.63C135.73 110.12 134.28 110.7 132.98 111.31C136.42 117.53 149.22 130.83 149.22 130.83C149.22 130.83 148.33 161.41 171.71 170.26C179.14 173.07 184.52 173.99 188.44 173.78L191.81 167.78L189.28 163.95H189.26Z" fill="url(#paint12_linear_715_3056)"/>
<path style="mix-blend-mode:multiply" d="M198.4 161.28L196 158.3C191.25 169.36 164.53 166.4 159.6 154.15C154.67 141.9 153.12 125.78 156.29 133.54C153.33 125.4 149.73 116.53 138.78 110.45C119.13 99.56 149.2 130.81 149.2 130.81C149.2 130.81 148.92 140.46 152.82 150.49C155.86 158.31 161.45 166.37 171.69 170.25C202.41 181.88 198.39 161.27 198.39 161.27L198.4 161.28Z" fill="url(#paint13_linear_715_3056)"/>
<path style="mix-blend-mode:multiply" d="M171.7 170.26C202.42 181.89 198.4 161.28 198.4 161.28C198.4 161.28 189.06 175.71 174.08 169.62C159.16 163.55 152.87 150.6 152.82 150.5C155.86 158.32 161.45 166.38 171.69 170.26H171.7Z" fill="url(#paint14_linear_715_3056)"/>
<path d="M76.56 192.42C77.45 197.46 77.05 208.33 77.92 215.13C78.8 221.93 72.61 240.15 72.61 240.15L90.06 243.66C90.06 243.66 91.76 220.89 89.84 216.12C84.07 201.78 90.18 198.18 92.95 173.33C95.71 148.48 76.56 192.42 76.56 192.42Z" fill="#3E1E43"/>
<g style="mix-blend-mode:multiply">
<path d="M155.67 207.62C155.67 207.78 155.64 207.95 155.63 208.11C155.6 208.65 155.56 209.19 155.51 209.73C155.49 209.89 155.47 210.05 155.45 210.21C155.39 210.74 155.33 211.28 155.25 211.8C155.23 211.95 155.2 212.09 155.18 212.24C155.1 212.77 155.02 213.31 154.92 213.83C154.89 213.98 154.86 214.12 154.83 214.27C154.73 214.79 154.63 215.3 154.52 215.8C154.5 215.91 154.47 216.01 154.45 216.12C154.33 216.65 154.21 217.18 154.08 217.69C154.06 217.75 154.05 217.81 154.03 217.87C153.89 218.42 153.75 218.96 153.6 219.48C153.59 219.52 153.58 219.56 153.56 219.6C153.41 220.13 153.26 220.65 153.1 221.15C153.09 221.19 153.07 221.23 153.06 221.28C152.91 221.77 152.75 222.25 152.6 222.7C152.6 222.72 152.59 222.74 152.58 222.76C152.42 223.23 152.27 223.68 152.12 224.1C152.11 224.14 152.09 224.17 152.08 224.21C151.94 224.6 151.8 224.98 151.67 225.33C151.65 225.37 151.64 225.4 151.63 225.45C151.5 225.78 151.38 226.1 151.27 226.38C151.25 226.43 151.23 226.47 151.22 226.52C151.12 226.78 151.02 227.03 150.93 227.24C150.93 227.26 150.91 227.28 150.9 227.3C150.81 227.52 150.73 227.71 150.66 227.87C150.64 227.92 150.63 227.94 150.61 227.98C150.56 228.1 150.51 228.2 150.48 228.27C150.45 228.34 150.44 228.36 150.43 228.39C150.41 228.43 151 228.7 151 228.7C151.05 228.58 156.42 216.98 156.37 205.52H155.73C155.73 206.23 155.72 206.94 155.68 207.64L155.67 207.62Z" fill="#8880A8"/>
</g>
<path style="mix-blend-mode:color-dodge" opacity="0.52" d="M150.09 228.24L150.42 228.39C150.44 228.34 150.46 228.3 150.49 228.24C150.52 228.17 150.57 228.06 150.62 227.95C150.64 227.91 150.65 227.89 150.67 227.84C150.74 227.68 150.82 227.49 150.91 227.27C150.91 227.25 150.93 227.23 150.94 227.21C151.03 227 151.13 226.75 151.23 226.49C151.25 226.44 151.27 226.4 151.28 226.35C151.39 226.07 151.51 225.75 151.64 225.42C151.66 225.38 151.67 225.35 151.68 225.3C151.81 224.95 151.95 224.58 152.09 224.18C152.1 224.14 152.12 224.11 152.13 224.07C152.28 223.65 152.43 223.2 152.59 222.73C152.59 222.71 152.6 222.69 152.61 222.67C152.76 222.22 152.91 221.74 153.07 221.25C153.08 221.21 153.1 221.17 153.11 221.12C153.26 220.62 153.42 220.1 153.57 219.57C153.58 219.53 153.59 219.49 153.61 219.45C153.76 218.93 153.9 218.39 154.04 217.84C154.06 217.78 154.07 217.72 154.09 217.66C154.22 217.15 154.34 216.62 154.46 216.09C154.48 215.98 154.51 215.88 154.53 215.77C154.64 215.27 154.74 214.75 154.84 214.24C154.87 214.09 154.9 213.95 154.93 213.8C155.03 213.28 155.11 212.75 155.19 212.21C155.21 212.06 155.24 211.92 155.26 211.77C155.34 211.24 155.4 210.71 155.46 210.18C155.48 210.02 155.5 209.86 155.52 209.7C155.57 209.16 155.61 208.62 155.64 208.08C155.65 207.92 155.67 207.75 155.68 207.59C155.72 206.89 155.73 206.18 155.73 205.47H156.05C156.05 205.41 156.05 205.36 156.05 205.3H155.41C155.47 216.62 150.16 228.09 150.1 228.2L150.09 228.24Z" fill="url(#paint15_linear_715_3056)"/>
<path style="mix-blend-mode:multiply" d="M118.81 151.31C121.91 143.79 110.58 138.93 108.54 138.12L96.15 144.95C98.49 162.17 106.05 178.1 119.54 183.7C122.44 184.9 124.57 185.65 126.08 186.04C125.55 184.7 123.95 182.63 122.11 180.25C117.27 174 115.4 159.58 118.81 151.31Z" fill="url(#paint16_linear_715_3056)"/>
<path d="M118.81 151.31C121.91 143.79 110.58 138.93 108.54 138.12L96.15 144.95C96.66 148.71 97.44 152.39 98.45 155.93L117.2 158.63C117.42 155.95 117.94 153.42 118.81 151.3V151.31Z" fill="#6F5175"/>
<path d="M22.64 65.69L21.16 73.26L28.24 114.08C28.24 114.08 40.42 137.45 47.66 146.83C54.9 156.21 75.15 157.69 88.15 153.91C101.15 150.12 102.47 143.61 112.01 148.35C121.56 153.09 133.24 155.84 133.24 155.84V111.77L69.55 82.64L65.55 53.23L56.38 48.74L22.64 65.69Z" fill="#3E1E43"/>
<path d="M113.33 107.33C119.33 113.21 124.19 121.15 124.85 134.65C125.51 148.15 130.61 158.35 139.66 160.16C148.71 161.97 155.62 130.58 148.38 118.71C141.14 106.84 136.53 105.85 109.54 97.62C82.55 89.39 113.33 107.33 113.33 107.33Z" fill="url(#paint17_linear_715_3056)"/>
<path style="mix-blend-mode:multiply" d="M27.72 86.7201C27.72 86.7201 45.86 113.4 62.24 81.1101C78.62 48.8201 58.85 44.8801 58.85 44.8801L23.79 63.2801L22.96 76.6301L27.72 86.7201Z" fill="url(#paint18_linear_715_3056)"/>
<path style="mix-blend-mode:multiply" d="M121.09 113.33C120.98 102.47 114.75 99.3701 114.75 99.3701C114.75 99.3701 114.43 102.82 113.98 107.99C119.67 113.81 124.21 121.65 124.85 134.65C125.32 144.21 128.02 152.09 132.77 156.54C128.66 151.75 127.35 146.56 127.02 133.54C126.69 120.42 121.1 113.33 121.1 113.33H121.09Z" fill="url(#paint19_linear_715_3056)"/>
<path style="mix-blend-mode:multiply" d="M148.38 118.71C146.12 115 144.11 112.35 141.6 110.21C148.79 116.79 138.15 122.53 129.65 117.61C120.27 112.18 117.96 100.19 123.76 102C119.84 100.75 115.19 99.34 109.54 97.62C82.55 89.39 113.33 107.33 113.33 107.33C119.33 113.21 124.19 121.15 124.85 134.65C125.51 148.15 130.61 158.35 139.66 160.16C148.71 161.97 155.62 130.58 148.38 118.71Z" fill="url(#paint20_linear_715_3056)"/>
<path d="M144.93 181.89C144.93 181.89 153.88 200.98 154.87 215.46C154.87 215.46 158.65 208.88 157.44 193.19C157.44 193.19 151.78 189.02 152.77 176.29C153.22 170.49 144.94 181.89 144.94 181.89H144.93Z" fill="#3E1E43"/>
<path d="M61.65 143.54C61.65 143.54 67.41 152.92 83.87 152.26C100.33 151.6 114.81 139.42 118.6 118.36C122.39 97.3002 114.49 98.9402 87.16 86.6002C59.84 74.2602 61.65 143.55 61.65 143.55V143.54Z" fill="url(#paint21_linear_715_3056)"/>
<path d="M46.6 143.94C46.39 145.23 46.51 146.51 46.72 147.79C46.91 148.95 47.14 150.11 47.38 151.27C47.83 153.4 48.42 155.52 49.43 157.46C49.91 158.39 50.5 159.26 51.2 160.04C51.87 160.79 52.76 161.72 53.86 161.67C54.85 161.62 55.6 160.86 56.11 160.07C56.74 159.08 57.15 157.9 57.47 156.78C58.23 154.09 58.37 151.27 58.51 148.49C58.53 148.08 57.89 148.08 57.87 148.49C57.76 150.79 57.65 153.11 57.16 155.37C56.93 156.45 56.62 157.52 56.18 158.53C55.8 159.4 55.3 160.46 54.39 160.89C53.33 161.39 52.4 160.4 51.74 159.68C51.1 158.98 50.56 158.19 50.1 157.35C49.13 155.58 48.56 153.62 48.12 151.66C47.87 150.58 47.67 149.48 47.47 148.39C47.21 146.98 46.99 145.55 47.22 144.12C47.29 143.71 46.66 143.54 46.6 143.95V143.94Z" fill="#3E1E43"/>
<g style="mix-blend-mode:multiply">
<path d="M136.43 116.3C135.69 113.58 134.75 110.87 133.57 108.21C133.07 107.08 132.52 105.95 131.93 104.84C131.63 104.72 131.31 104.6 131 104.48C131.67 105.7 132.3 106.93 132.86 108.18C133.85 110.38 134.66 112.61 135.34 114.85C140.35 131.39 137.56 148.61 135.1 158.35C135.29 158.47 135.49 158.56 135.68 158.67C138.09 149.2 140.86 132.56 136.44 116.3H136.43Z" fill="#8880A8"/>
</g>
<g style="mix-blend-mode:multiply">
<path d="M107.02 96.8801C106.45 95.9701 105.88 95.1201 105.32 94.3101C104.95 94.1501 104.59 93.9901 104.21 93.8301C104.82 94.6901 105.46 95.6201 106.11 96.6201C107.86 99.3401 109.66 102.53 111.13 106C112.78 109.91 114 114.18 114.23 118.51L113.28 124.99C113.23 125.18 108.25 142.42 94.97 149.92C96.29 149.4 97.58 148.81 98.83 148.13C109.71 139.75 113.86 125.32 113.91 125.12L114.87 118.54C114.65 114.39 113.55 110.32 112.04 106.55C110.61 102.99 108.81 99.6901 107.04 96.8801H107.02Z" fill="#8880A8"/>
</g>
<path style="mix-blend-mode:multiply" d="M93.23 89.26C93.23 89.26 100.49 103.92 98.46 121.9C96.43 139.88 93.23 89.26 93.23 89.26Z" fill="url(#paint22_linear_715_3056)"/>
<path style="mix-blend-mode:color-dodge" opacity="0.52" d="M132.85 108.18C132.29 106.93 131.66 105.7 130.99 104.48C130.9 104.45 130.82 104.41 130.73 104.38C131.42 105.65 132.05 106.94 132.62 108.24C133.47 110.19 134.2 112.16 134.81 114.15C139.97 130.84 137.14 148.27 134.65 158.05C134.79 158.15 134.93 158.25 135.08 158.34C137.54 148.6 140.33 131.39 135.32 114.84C134.64 112.6 133.83 110.37 132.84 108.17L132.85 108.18Z" fill="url(#paint23_linear_715_3056)"/>
<path style="mix-blend-mode:color-dodge" opacity="0.52" d="M106.1 96.63C105.45 95.63 104.82 94.7 104.2 93.84C104.13 93.81 104.06 93.78 103.99 93.75C104.61 94.62 105.24 95.57 105.89 96.58C107.61 99.27 109.35 102.4 110.77 105.8C112.39 109.67 113.58 113.88 113.81 118.16L112.86 124.64C112.8 124.84 107.07 144.74 91.44 151.08C91.42 151.08 91.4 151.1 91.38 151.11C92.6 150.78 93.79 150.4 94.97 149.94C108.26 142.44 113.23 125.19 113.28 125.01L114.23 118.53C114 114.2 112.78 109.93 111.13 106.02C109.67 102.55 107.87 99.36 106.11 96.64L106.1 96.63Z" fill="url(#paint24_linear_715_3056)"/>
<path style="mix-blend-mode:multiply" d="M117 101.61C122.27 109.46 119.1 126.17 107.43 114.64C95.74 103.11 93.91 89.5502 98.45 91.4502C95.13 90.0802 91.37 88.5002 87.15 86.6002C59.83 74.2602 61.64 143.55 61.64 143.55C61.64 143.55 67.4 152.93 83.86 152.27C100.32 151.61 114.8 139.43 118.59 118.37C120.11 109.92 119.74 105.13 117 101.62V101.61Z" fill="url(#paint25_linear_715_3056)"/>
<path d="M67.41 69.6401C67.41 69.6401 82.55 77.0501 90.45 84.2901C98.35 91.5301 95.72 128.23 95.72 128.23H78.6L67.41 69.6401Z" fill="url(#paint26_linear_715_3056)"/>
<path style="mix-blend-mode:multiply" d="M94 91.5601C94.45 98.5201 94.2 112.89 86.55 103.9C78.89 94.9001 73.42 72.8101 80.07 76.7101C73.56 72.6501 67.41 69.6401 67.41 69.6401L78.6 128.23H95.72C95.72 128.23 97.41 104.64 94.01 91.5501L94 91.5601Z" fill="url(#paint27_linear_715_3056)"/>
<path style="mix-blend-mode:multiply" d="M84.45 118.63C85.28 113.79 85.58 109.49 85.37 107.08L75.83 108.16L64.64 146.73C64.64 146.73 68.93 148.95 75.83 141.35C79.57 137.23 82.22 129.44 83.78 122.12C86.19 123 92.34 121.85 92.34 121.74C92.34 121.58 93.22 115.05 93.22 115.05C93.22 115.05 88.34 114.91 84.45 118.65V118.63Z" fill="url(#paint28_linear_715_3056)"/>
<path style="mix-blend-mode:multiply" d="M61.65 143.54C61.65 143.54 67.41 152.92 83.87 152.26C98.71 151.67 111.91 141.68 117.15 124.29C103.88 129.1 96.1 111.18 96.1 111.18C96.1 111.18 87.19 113 85.51 108.15L62.46 122.84C61.4 134.11 61.64 143.53 61.64 143.53L61.65 143.54Z" fill="url(#paint29_linear_715_3056)"/>
<path d="M69.55 50.55C69.55 50.55 67.9 46.44 64.94 44.95C63.63 44.3 54.43 48.2 44.56 52.76L61.49 50.71C61.49 50.71 65.6 58.12 64.29 63.55C62.97 68.98 51.45 106.83 50.47 113.25C49.48 119.67 48.99 124.28 48.99 124.28C42.57 116.22 26.61 83.79 25.62 78.03C25.06 74.77 24.5 67.91 24.12 62.58C20.72 64.26 18.54 65.36 18.54 65.36C23.31 87.08 21.5 112.43 21.5 115.56C21.5 118.69 31.87 137.12 41.58 144.53C51.29 151.94 48.49 146.67 55.08 144.53C61.66 142.39 63.64 152.59 72.69 141.4C81.74 130.21 85.53 109.47 85.53 106.01C85.53 102.55 71.54 95.15 69.57 50.55H69.55Z" fill="url(#paint30_linear_715_3056)"/>
<g style="mix-blend-mode:multiply">
<path d="M34.88 99.5401C34.71 99.2001 34.54 98.8501 34.37 98.5101L31.47 96.8701L21.8 105.27C21.8 105.57 21.8 105.85 21.78 106.14L31.54 97.6501L34.88 99.5301V99.5401Z" fill="#8880A8"/>
</g>
<g style="mix-blend-mode:multiply">
<path d="M78.72 94.6201C78.72 94.6201 78.65 94.6201 78.62 94.6301C78.39 94.6501 78.16 94.6801 77.93 94.7201C77.84 94.7401 77.75 94.7601 77.66 94.7801C77.47 94.8201 77.28 94.8601 77.1 94.9201C76.96 94.9601 76.83 95.0201 76.7 95.0701C76.57 95.1201 76.43 95.1601 76.3 95.2201C76.04 95.3301 75.78 95.4601 75.52 95.6101C72.59 97.3001 71.39 100.55 71.03 101.76L67.16 98.9801L57.6 92.1101L55.57 93.8501C55.46 94.2301 55.36 94.6001 55.25 94.9701L57.63 92.9301L66.93 99.6201L71.42 102.85L71.53 102.37C71.53 102.37 72.51 98.0901 75.84 96.1701C76.8 95.6201 77.86 95.3101 79.03 95.2501C78.93 95.0501 78.82 94.8401 78.72 94.6301V94.6201Z" fill="#8880A8"/>
</g>
<path style="mix-blend-mode:multiply" d="M41.57 144.53C51.28 151.94 48.48 146.67 55.07 144.53C61.65 142.39 63.63 152.59 72.68 141.4C81.73 130.21 85.52 109.47 85.52 106.02C85.52 106.02 42.92 151.37 21.5 115.57C21.5 118.7 31.87 137.13 41.58 144.54L41.57 144.53Z" fill="url(#paint31_linear_715_3056)"/>
<path style="mix-blend-mode:multiply" d="M22.96 76.6301L25.27 75.7201C24.83 72.1201 24.41 66.8601 24.1 62.5801C20.7 64.2601 18.52 65.3601 18.52 65.3601C19.44 69.5501 20.11 73.8701 20.6 78.1401L22.95 76.6301H22.96Z" fill="url(#paint32_linear_715_3056)"/>
<path style="mix-blend-mode:multiply" d="M64.94 44.9602C63.84 44.4102 57.11 47.1002 49.11 50.7002L49.91 52.1302L61.48 50.7302C61.48 50.7302 65.59 58.1402 64.28 63.5702C63.94 64.9602 62.94 68.4602 61.62 73.0102L63.86 73.6502C63.86 73.6502 62.5 85.0102 71.22 102.31C79.94 119.61 61.75 137.06 54.72 141C47.7 144.94 32.35 136.24 26.44 126.13C30.36 132.61 36.07 140.35 41.57 144.54C51.28 151.95 48.48 146.68 55.07 144.54C61.65 142.4 63.63 152.6 72.68 141.41C81.73 130.22 85.52 109.48 85.52 106.03C85.52 102.58 71.53 95.1702 69.56 50.5702C69.56 50.5702 67.91 46.4602 64.95 44.9702L64.94 44.9602Z" fill="url(#paint33_linear_715_3056)"/>
<path style="mix-blend-mode:color-dodge" opacity="0.52" d="M31.05 96.5L21.81 104.54C21.81 104.79 21.81 105.04 21.8 105.28L31.47 96.88L34.37 98.52C34.34 98.46 34.31 98.39 34.28 98.33L31.06 96.51L31.05 96.5Z" fill="url(#paint34_linear_715_3056)"/>
<path style="mix-blend-mode:color-dodge" opacity="0.52" d="M75.11 95.24C72.18 96.93 70.98 100.18 70.62 101.39L67.18 98.92L57.19 91.73L55.85 92.88C55.76 93.2 55.67 93.52 55.58 93.84L57.61 92.1L67.17 98.97L71.04 101.75C71.4 100.54 72.6 97.29 75.53 95.6C75.78 95.45 76.04 95.33 76.31 95.21C76.44 95.15 76.58 95.11 76.71 95.06C76.84 95.01 76.98 94.96 77.11 94.91C77.29 94.85 77.48 94.81 77.67 94.77C77.76 94.75 77.85 94.73 77.94 94.71C78.16 94.67 78.4 94.64 78.63 94.62C78.66 94.62 78.7 94.61 78.73 94.61C78.67 94.48 78.6 94.35 78.54 94.22C77.3 94.3 76.16 94.63 75.12 95.23L75.11 95.24Z" fill="url(#paint35_linear_715_3056)"/>
<path style="mix-blend-mode:multiply" d="M64.94 44.96C63.63 44.31 54.43 48.21 44.56 52.77L61.49 50.72C61.49 50.72 65.6 58.13 64.29 63.56C62.97 68.99 51.45 106.84 50.47 113.26C49.48 119.68 48.99 124.29 48.99 124.29C52.65 101.43 69.26 63.64 69.56 50.56C69.56 50.56 67.91 46.45 64.95 44.96H64.94Z" fill="url(#paint36_linear_715_3056)"/>
<path d="M75.04 138L75.3 137.66C79.27 131.26 81.97 123.2 83.59 116.74C73.84 123.52 75.03 137.99 75.03 137.99L75.04 138Z" fill="#6F5175"/>
<path style="mix-blend-mode:multiply" d="M27.72 90.1802C33.44 101.74 42.81 115.51 46.92 121.39C39.67 110.33 26.5 83.2502 25.6 78.0402C25.14 75.3302 24.67 70.1502 24.31 65.4202C23.41 66.5502 22.94 67.6202 23.05 68.5702C24.1 76.9602 20.21 75.0402 27.71 90.1902L27.72 90.1802Z" fill="url(#paint37_linear_715_3056)"/>
<path d="M18.06 65.9301C18.24 68.1601 18.4 70.4001 18.6 72.6301C18.77 74.5201 19 76.4301 19.5 78.2601C19.98 80.0401 20.74 81.7501 21.9 83.2001C22.99 84.5601 24.7 85.7901 26.53 85.2101C28.5 84.5901 28.71 82.3501 28.69 80.6001C28.69 80.1901 28.04 80.1801 28.05 80.6001C28.06 82.0001 28.01 84.0201 26.42 84.5701C24.62 85.1901 23.02 83.6901 22.06 82.3501C20.05 79.5401 19.55 75.9901 19.24 72.6301C19.04 70.4001 18.88 68.1701 18.7 65.9301C18.67 65.5201 18.02 65.5201 18.06 65.9301Z" fill="url(#paint38_linear_715_3056)"/>
<path d="M4.87 45.4502C4.87 45.4502 9.26 40.7602 10.3 36.7302C13.43 24.5502 34.49 18.1302 45.36 20.2702C56.22 22.4102 60.24 32.1202 67.97 31.7902C67.97 31.7902 68.64 39.8402 65.1 55.2602C64.74 56.8502 63.85 58.2702 62.57 59.2702C60.15 61.1502 56.08 65.0502 54.71 70.8002C53.18 77.2102 51.56 83.5102 45.42 86.8802C34.01 93.1302 31.38 88.9102 31.21 87.2602C31.05 85.6102 30.05 79.1202 29.85 76.9002C29.71 75.2802 25.83 72.4402 19.47 69.5902C18.13 68.9902 16.84 68.1602 15.9 67.0302C13.25 63.8502 8.85 55.1402 4.88 45.4502H4.87Z" fill="url(#paint39_linear_715_3056)"/>
<g style="mix-blend-mode:multiply">
<path d="M22.95 44.2101V44.3501L32.34 53.1701L39.15 41.1701L39.11 41.0401C39.08 40.9301 35.9 30.9101 34.67 20.3901C34.46 20.4201 34.25 20.4601 34.04 20.5001C35.21 30.4101 38.08 39.8601 38.46 41.1001L32.2 52.1401L31.79 51.7601L23.6 44.0701C23.6 35.6301 25.01 27.3201 25.95 22.7301C25.71 22.8201 25.47 22.9101 25.24 23.0101C24.29 27.7301 22.94 35.9101 22.96 44.2101H22.95Z" fill="#8880A8"/>
</g>
<path style="mix-blend-mode:multiply" d="M54.72 70.74C56.11 65.02 60.15 61.14 62.57 59.26C63.85 58.26 64.74 56.84 65.1 55.25C68.64 39.84 67.97 31.78 67.97 31.78C63.18 31.98 59.81 28.34 55.36 25.02L57.62 38.01C59.13 43.73 56.08 62.86 54.72 70.73V70.74Z" fill="url(#paint40_linear_715_3056)"/>
<path style="mix-blend-mode:multiply" d="M15.89 67.03C16.83 68.16 18.13 68.99 19.46 69.59C21.38 70.45 23.07 71.31 24.51 72.14C18.47 68.24 11.12 46.44 11.12 46.44L9.29 39.27C7.63 42.5 4.87 45.46 4.87 45.46C8.84 55.15 13.24 63.86 15.89 67.04V67.03Z" fill="url(#paint41_linear_715_3056)"/>
<path style="mix-blend-mode:multiply" d="M67.97 31.7902C60.23 32.1202 56.22 22.4102 45.36 20.2702C34.5 18.1302 13.43 24.5502 10.3 36.7302C9.26 40.7702 4.87 45.4502 4.87 45.4502C8.84 55.1402 13.24 63.8502 15.89 67.0302C16.83 68.1602 18.13 68.9902 19.46 69.5902C25.14 72.1402 28.83 74.6702 29.66 76.3302C27.96 71.2502 19.82 66.0302 18.52 59.9002V58.9802C18.52 58.9802 16.08 56.6402 17.64 53.1802C18.44 51.4102 18.51 45.8702 20.03 40.5902C21.09 35.7002 23.94 31.2302 28.59 29.9702C29.12 29.8202 29.66 29.7402 30.2 29.6902C37.3 28.4302 44.56 37.2402 49.48 42.5602C54.4 47.8802 51.69 51.2902 51.69 51.2902C51.69 51.2902 55.43 47.1102 52.44 54.0002C49.76 60.1702 55.07 74.2502 50.65 81.9902C52.76 78.7602 53.75 74.8002 54.7 70.7902C56.08 65.0402 60.14 61.1502 62.56 59.2602C63.84 58.2602 64.73 56.8402 65.09 55.2502C68.63 39.8402 67.96 31.7802 67.96 31.7802L67.97 31.7902Z" fill="url(#paint42_linear_715_3056)"/>
<path d="M77.89 145.35L78.66 148.78L79.97 160.82H89.74L95.55 142.17L99.5 131.71L77.89 145.35Z" fill="#3E1E43"/>
<path style="mix-blend-mode:screen" opacity="0.74" d="M42.03 83.8602C41.82 81.4202 41.36 75.9102 41.24 71.6202C41.21 70.5802 41.26 69.5402 41.36 68.5402C41.27 68.4502 41.19 68.0802 41.13 67.2902C40.75 62.6302 31.09 57.1302 31.12 67.9402L29.97 66.3302L29.72 67.1002L31.12 72.9402C31.12 72.9402 30.55 82.3802 31.44 88.0702C31.17 86.3402 35.59 84.3402 42.03 83.8702V83.8602Z" fill="url(#paint43_linear_715_3056)"/>
<path style="mix-blend-mode:color-dodge" opacity="0.52" d="M33.67 20.57C34.87 30.32 37.66 39.52 38.04 40.73L31.78 51.76L32.19 52.14L38.45 41.1C38.07 39.86 35.2 30.41 34.03 20.5C33.91 20.52 33.79 20.54 33.67 20.57Z" fill="url(#paint44_linear_715_3056)"/>
<path style="mix-blend-mode:color-dodge" opacity="0.52" d="M31.93 52.8L22.95 44.35V44.21C22.93 35.91 24.28 27.73 25.23 23.01C25.05 23.08 24.88 23.15 24.7 23.22C23.76 28.02 22.52 35.88 22.54 43.83V43.97L31.93 52.79V52.8Z" fill="url(#paint45_linear_715_3056)"/>
<path d="M98.45 115.73C108.69 121.37 95.05 152.83 80.41 148.35C65.76 143.87 84.4 107.99 98.45 115.73Z" fill="url(#paint46_linear_715_3056)"/>
<path d="M77.33 151.16L78.68 148.93C78.68 148.93 80.43 156.32 84.11 155.31C87.79 154.3 95.55 142.17 95.55 142.17L97.26 144.62C97.26 144.62 97.38 178.2 87.93 199.65C77.31 223.76 75.59 194.62 75.87 175.5C76.15 156.38 77.34 151.16 77.34 151.16H77.33Z" fill="url(#paint47_linear_715_3056)"/>
<path style="mix-blend-mode:multiply" d="M57.62 38.0201C57.62 38.0201 65.79 44.0201 60.42 29.0301C55.04 14.0401 57.62 38.0201 57.62 38.0201Z" fill="url(#paint48_linear_715_3056)"/>
<path style="mix-blend-mode:multiply" d="M28.45 21.8701C23.69 23.3601 19.11 25.6401 15.69 28.6201C17.89 32.3901 20.54 36.1901 20.54 36.1901C21.52 29.4101 24.79 23.5601 28.45 21.8701Z" fill="url(#paint49_linear_715_3056)"/>
<path style="mix-blend-mode:multiply" d="M44.87 35.05C44.87 35.05 52.82 34.22 57.62 38.02L59.87 32.77C59.87 32.77 50.3 22.73 49.49 22.73C48.68 22.73 41.7 27.17 41.7 27.17L44.87 35.05Z" fill="url(#paint50_linear_715_3056)"/>
<path style="mix-blend-mode:multiply" d="M18.35 39.8501C18.35 39.8501 14.79 39.5301 11.12 46.4301L9.57999 42.3101L13.96 32.5201L18.34 31.3701V39.8501H18.35Z" fill="url(#paint51_linear_715_3056)"/>
<path style="mix-blend-mode:multiply" d="M19.59 57.89C21.98 55.76 22.53 55.49 29.17 56.39C35.81 57.2901 33.28 57.79 39.81 53.51C46.34 49.23 45.68 50.2201 51.69 51.2901C57.7 52.3601 42.39 62.3401 42.39 62.3401C42.39 62.3401 41.51 71.9401 41.13 67.2801C40.75 62.6201 31.09 57.1201 31.12 67.9301L28.79 64.6601L19.6 57.89H19.59Z" fill="url(#paint52_linear_715_3056)"/>
<path d="M90.07 243.66C90.07 243.66 87.74 232.58 81.77 234.66C81.77 234.66 78.77 227.81 73.06 232.66C73.06 232.66 68.95 227.75 63.05 243.66C63.05 243.66 72.62 250.35 90.07 243.66Z" fill="#6F5175"/>
<path d="M41.24 71.62C41.24 71.62 40.99 63.56 41.24 59.03C41.49 54.5 41.4 53.93 44.2 52.61C47 51.29 48.31 51.29 51.69 51.29L54.73 46.27C54.73 46.27 54.48 47.75 53.58 51.21C52.68 54.67 52.26 55 47.49 60.02C42.72 65.04 42.39 65.53 41.24 71.62Z" fill="#3E1E43"/>
<path d="M31.12 72.9401C31.12 72.9401 31.04 70.4401 31.12 67.9401C31.2 65.4401 31.12 64.9201 29.06 61.2201C27 57.5201 26.34 56.9101 23.3 57.0001C20.26 57.0901 19.93 57.4301 18.53 58.9801L15.4 56.4001C15.4 56.4001 16.22 57.9501 17.95 59.7601C19.68 61.5701 20.09 61.8301 23.79 63.2901C27.49 64.7501 28.4 65.4401 31.11 72.9401H31.12Z" fill="#3E1E43"/>
<path d="M44.87 35.0501C44.87 35.0501 42.77 34.4001 41.03 32.8701C39.29 31.3401 38.78 26.5201 38.03 19.9801C38.03 19.9801 42.02 13.2801 48.4 5.5401C54.29 -1.5999 56.26 -2.4099 57.66 6.5001C59.06 15.4101 60.76 30.9501 60.94 32.6101C61.11 34.2701 57.62 38.0201 57.62 38.0201C57.62 38.0201 57.45 35.7501 54.74 33.3001C52.03 30.8501 44.97 31.2401 44.97 31.2401L44.86 35.0501H44.87Z" fill="url(#paint53_linear_715_3056)"/>
<path d="M18.35 39.8502C18.35 39.8502 19.57 38.1002 20.53 36.1802C21.49 34.2602 18.93 29.2302 23.05 23.9402C23.05 23.9402 13.29 17.7602 6.03999 13.0402C-1.20001 8.33017 -0.850005 14.5302 1.50999 23.2602C3.86999 31.9902 7.71999 42.7802 8.41999 44.5202C9.11999 46.2702 11.13 46.4302 11.13 46.4302C11.13 46.4302 12.23 37.8702 16.53 36.6202L18.36 39.8502H18.35Z" fill="url(#paint54_linear_715_3056)"/>
<mask id="mask0_715_3056" style="mask-type:luminance" maskUnits="userSpaceOnUse" x="0" y="13" width="17" height="34">
<path d="M0.0199945 14.4601C0.0199945 14.5601 0.00999451 14.6601 0.00999451 14.7701C0.00999451 14.9601 0.00999451 15.1601 0.0199945 15.3601C0.0199945 15.5701 0.0299945 15.7701 0.0499945 15.9901C0.0499945 16.0901 0.0699945 16.1901 0.0799945 16.2901C0.209994 17.5601 0.479995 19.0301 0.849995 20.6301C2.42999 27.2401 6.11999 36.6901 11.12 46.4301C11.12 46.4301 12.22 37.8701 16.52 36.6201C12.05 26.3001 0.389995 9.29008 0.0199945 14.4601Z" fill="white"/>
</mask>
<g mask="url(#mask0_715_3056)">
<path style="mix-blend-mode:multiply" d="M14.09 36.58C15.96 34.21 14.12 25.5 10.69 25.57C4.47999 25.71 11.35 40.06 14.09 36.58Z" fill="url(#paint55_linear_715_3056)"/>
<path d="M14.09 36.58C16.55 34.74 13.47 24.19 10.42 25.84C7.36999 27.48 12.13 38.05 14.09 36.58Z" fill="url(#paint56_linear_715_3056)"/>
<path d="M12.22 39.9001C13.33 38.9401 11 36.6801 9.96999 37.4501C8.93999 38.2201 11.11 40.8601 12.22 39.9001Z" fill="#3E1E43"/>
<g style="mix-blend-mode:multiply" opacity="0.46">
<path d="M11.6 25.77C9.4 27.46 12.28 34.81 14.39 36.26C16.01 34.12 14.04 26.74 11.6 25.77Z" fill="#3E1E43"/>
</g>
<g style="mix-blend-mode:multiply" opacity="0.46">
<path d="M12.22 39.9001C13.11 39.1301 11.8 37.5401 10.71 37.3201C10.64 37.3501 10.57 37.3801 10.51 37.4301C9.69999 38.0401 10.87 39.8001 11.95 40.0501C12.04 40.0201 12.13 39.9701 12.22 39.9001Z" fill="#3E1E43"/>
</g>
</g>
<path d="M132.65 155.7C127.02 142.72 124.99 122.16 136.37 117.79C147.75 113.42 132.65 155.7 132.65 155.7Z" fill="#6F5175"/>
<path d="M43.87 57.7401C44.47 58.6701 47.93 55.16 49.41 53.68C50.45 52.64 50.49 51.74 50.42 51.3C47.93 51.32 46.62 51.4801 44.2 52.6101C42.82 53.3701 43.27 56.8101 43.87 57.7401Z" fill="#D6FFFF"/>
<path d="M23.06 59.7302C27.51 61.2202 28.49 62.3702 27.19 58.3002C26.21 57.1802 25.24 56.9402 23.3 57.0002C21.9 57.0402 21.09 57.1402 20.47 57.3802C20.42 58.1502 21.06 59.0602 23.06 59.7302Z" fill="#D6FFFF"/>
<mask id="mask1_715_3056" style="mask-type:luminance" maskUnits="userSpaceOnUse" x="41" y="46" width="14" height="26">
<path d="M41.24 71.62C41.24 71.62 40.99 63.56 41.24 59.03C41.49 54.5 41.4 53.93 44.2 52.61C47 51.29 48.31 51.29 51.69 51.29L54.73 46.27C54.73 46.27 54.48 47.75 53.58 51.21C52.68 54.67 52.26 55 47.49 60.02C42.72 65.04 42.39 65.53 41.24 71.62Z" fill="white"/>
</mask>
<g mask="url(#mask1_715_3056)">
<path style="mix-blend-mode:color-dodge" d="M51.63 60.4601C44.51 65.6901 36.61 67.0301 33.98 63.4501C31.35 59.8701 34.99 52.7301 42.11 47.5001C49.23 42.2701 57.13 40.9301 59.76 44.5101C62.39 48.0901 58.75 55.2301 51.63 60.4601Z" fill="url(#paint57_radial_715_3056)"/>
</g>
<path style="mix-blend-mode:multiply" d="M97.67 117.58C87.52 118.21 77.17 135.92 79.31 145.57C79.73 147.45 81.41 148.79 83.34 148.78C94.22 148.73 103.65 130.55 101.78 120.83C101.41 118.89 99.64 117.45 97.67 117.57V117.58Z" fill="url(#paint58_linear_715_3056)"/>
<mask id="mask2_715_3056" style="mask-type:luminance" maskUnits="userSpaceOnUse" x="15" y="56" width="17" height="17">
<path d="M31.12 72.9401C31.12 72.9401 31.04 70.4401 31.12 67.9401C31.2 65.4401 31.12 64.9201 29.06 61.2201C27 57.5201 26.34 56.9101 23.3 57.0001C20.26 57.0901 19.93 57.4301 18.53 58.9801L15.4 56.4001C15.4 56.4001 16.22 57.9501 17.95 59.7601C19.68 61.5701 20.09 61.8301 23.79 63.2901C27.49 64.7501 28.4 65.4401 31.11 72.9401H31.12Z" fill="white"/>
</mask>
<g mask="url(#mask2_715_3056)">
<path style="mix-blend-mode:color-dodge" d="M21.27 65.5C13.15 62.0201 7.97999 55.8901 9.72999 51.8101C11.48 47.7301 19.48 47.24 27.6 50.71C35.72 54.19 40.89 60.3201 39.14 64.4001C37.39 68.4801 29.39 68.97 21.27 65.5Z" fill="url(#paint59_radial_715_3056)"/>
</g>
<path style="mix-blend-mode:multiply" d="M45.41 86.8701C48.63 85.1101 50.59 82.5301 51.97 79.5701C50.5 82.1501 48.8 83.8901 46.87 83.8001C37.92 83.3801 31.11 85.9301 31.44 88.0601C31.6 88.3901 31.84 88.7401 32.18 89.0701C33.72 90.4901 37.4 91.2601 45.41 86.8701Z" fill="url(#paint60_linear_715_3056)"/>
<path d="M138.51 116.88C150.93 114.4 156.78 146.01 155.79 159.51C154.8 173.01 152.76 175.03 153.77 181.23C154.44 185.34 160.34 192.99 147.23 184.41C138.43 178.65 131.59 159.14 130.61 140.56C129.62 121.98 135.22 117.54 138.51 116.88Z" fill="url(#paint61_linear_715_3056)"/>
<path style="mix-blend-mode:multiply" d="M0.0199945 14.4601C0.0199945 14.5601 0.00999451 14.6601 0.00999451 14.7701C0.00999451 14.9601 0.00999451 15.1601 0.0199945 15.3601C0.0199945 15.5701 0.0299945 15.7701 0.0499945 15.9901C0.0499945 16.0901 0.0699945 16.1901 0.0799945 16.2901C0.209994 17.5601 0.479995 19.0301 0.849995 20.6301C2.42999 27.2401 6.11999 36.6901 11.12 46.4301C11.12 46.4301 12.22 37.8701 16.52 36.6201C12.05 26.3001 0.389995 9.29008 0.0199945 14.4601Z" fill="url(#paint62_linear_715_3056)"/>
<path style="mix-blend-mode:multiply" d="M135.98 141.36C136.97 159.94 143.8 179.45 152.6 185.21C153.75 185.97 154.75 186.59 155.63 187.11C155.41 185.62 154.06 183.08 153.76 181.24C152.75 175.03 154.79 173.01 155.78 159.52C156.52 149.47 153.46 129.39 146.72 120.81C144.85 118.43 141.12 118.47 139.39 120.96C137.16 124.16 135.38 130.22 135.98 141.37V141.36Z" fill="url(#paint63_linear_715_3056)"/>
<path d="M96.65 134.84C99.85 129.19 100.68 124.04 98.5 123.32C96.32 122.61 91.96 126.61 88.76 132.26C85.56 137.91 84.73 143.06 86.91 143.78C89.09 144.49 93.45 140.49 96.65 134.84Z" fill="url(#paint64_linear_715_3056)"/>
<g style="mix-blend-mode:multiply">
<path d="M87.21 141.21C89 141.79 92.57 138.52 95.19 133.89C97.81 129.26 98.49 125.04 96.7 124.45C96.08 124.25 95.23 124.52 94.29 125.15C92.45 126.76 90.44 129.27 88.75 132.25C87.72 134.07 86.94 135.84 86.42 137.42C85.98 139.43 86.21 140.88 87.2 141.2L87.21 141.21Z" fill="#A59AC2"/>
</g>
<path d="M93.69 133.18C95.79 129.48 96.03 126.01 94.23 125.42C94.17 125.4 94.11 125.39 94.05 125.38C92.28 127 90.37 129.41 88.76 132.25C87.73 134.07 86.95 135.84 86.43 137.42C86.34 137.84 86.28 138.23 86.25 138.6C86.37 138.68 86.5 138.76 86.64 138.81C88.44 139.4 91.59 136.87 93.69 133.18Z" fill="#D6FFFF"/>
<mask id="mask3_715_3056" style="mask-type:luminance" maskUnits="userSpaceOnUse" x="85" y="123" width="15" height="21">
<path d="M96.65 134.84C99.85 129.19 100.68 124.04 98.5 123.32C96.32 122.61 91.96 126.61 88.76 132.26C85.56 137.91 84.73 143.06 86.91 143.78C89.09 144.49 93.45 140.49 96.65 134.84Z" fill="white"/>
</mask>
<g mask="url(#mask3_715_3056)">
<path style="mix-blend-mode:color-dodge" d="M96.15 134.04C93.2 139.25 87.96 142.53 84.44 141.38C80.92 140.23 80.46 135.08 83.41 129.87C86.36 124.66 91.6 121.38 95.12 122.53C98.64 123.68 99.1 128.83 96.15 134.04Z" fill="url(#paint65_radial_715_3056)"/>
</g>
<path d="M151.26 136.32C149.27 128.51 145.37 123.25 142.54 124.57C139.71 125.89 139.03 133.29 141.02 141.1C143.01 148.91 146.91 154.17 149.74 152.85C152.57 151.53 153.25 144.13 151.26 136.32Z" fill="url(#paint66_linear_715_3056)"/>
<g style="mix-blend-mode:multiply">
<path d="M147.68 150.33C150 149.25 150.56 143.18 148.93 136.78C147.3 130.38 144.1 126.07 141.78 127.15C140.97 127.53 140.38 128.52 140.02 129.92C139.66 132.98 139.96 136.97 141.01 141.09C141.65 143.61 142.49 145.85 143.43 147.71C144.84 149.87 146.4 150.93 147.68 150.33Z" fill="#A59AC2"/>
</g>
<path d="M146.78 137.51C145.48 132.4 142.53 129.13 140.2 130.22C140.12 130.26 140.05 130.31 139.98 130.35C139.69 133.35 140 137.16 141 141.1C141.64 143.62 142.48 145.86 143.42 147.72C143.72 148.17 144.02 148.57 144.33 148.92C144.53 148.89 144.72 148.84 144.91 148.75C147.24 147.66 148.07 142.64 146.77 137.52L146.78 137.51Z" fill="#D6FFFF"/>
<mask id="mask4_715_3056" style="mask-type:luminance" maskUnits="userSpaceOnUse" x="139" y="124" width="14" height="30">
<path d="M151.26 136.32C149.27 128.51 145.37 123.25 142.54 124.57C139.71 125.89 139.03 133.29 141.02 141.1C143.01 148.91 146.91 154.17 149.74 152.85C152.57 151.53 153.25 144.13 151.26 136.32Z" fill="white"/>
</mask>
<g mask="url(#mask4_715_3056)">
<path style="mix-blend-mode:color-dodge" d="M143.21 153.489C148.065 152.969 151.35 146.476 150.548 138.986C149.747 131.495 145.161 125.844 140.307 126.364C135.452 126.884 132.167 133.377 132.969 140.867C133.771 148.358 138.356 154.009 143.21 153.489Z" fill="url(#paint67_radial_715_3056)"/>
</g>
<path style="mix-blend-mode:screen" opacity="0.74" d="M39.81 53.51C52.18 45.52 39.78 26.92 28.59 29.97C17.4 33.02 16.59 54.59 26.27 56.04C27.1 56.12 28.04 56.24 29.17 56.4C35.81 57.31 33.28 57.8 39.81 53.52V53.51Z" fill="url(#paint68_linear_715_3056)"/>
<path style="mix-blend-mode:screen" opacity="0.74" d="M55.21 0.190182C55.14 0.150182 55.07 0.100182 54.99 0.0601824C53.57 -0.249818 51.55 1.73018 48.4 5.54018C42.02 13.2802 38.03 19.9802 38.03 19.9802C38.77 26.5302 39.28 31.3502 41.03 32.8702C39.11 30.4602 51.93 0.380182 55.21 0.190182Z" fill="url(#paint69_linear_715_3056)"/>
<path style="mix-blend-mode:multiply" d="M23.06 23.9402C23.06 23.9402 13.3 17.7602 6.04999 13.0402C4.57999 12.0802 3.42999 11.5902 2.53999 11.4702C7.63999 12.4202 20.74 35.3702 20.18 36.8702C20.3 36.6502 20.42 36.4202 20.54 36.1802C21.5 34.2602 18.94 29.2302 23.06 23.9402Z" fill="url(#paint70_linear_715_3056)"/>
<path style="mix-blend-mode:multiply" d="M127.32 187.66C126.76 187.66 126.26 187.81 125.79 188.19C128.74 191.97 130.3 215.57 125.73 224.35L127.97 224.54C133.07 215.16 130.77 187.65 127.31 187.66H127.32Z" fill="url(#paint71_linear_715_3056)"/>
<path style="mix-blend-mode:multiply" d="M157.44 189.95C156.91 189.92 156.45 190 156.04 190.23C160.01 192.99 165.78 216.27 162.3 230.74L164.34 230.92C168.13 215.61 161.37 190.16 157.43 189.94L157.44 189.95Z" fill="url(#paint72_linear_715_3056)"/>
<path style="mix-blend-mode:multiply" d="M95.55 142.17C95.55 142.17 94.71 143.48 93.47 145.26L93.64 145.5C93.64 145.5 89.68 150.86 83.6 195.05C83.03 199.2 81.15 206.84 79.89 208.24C81.72 209.91 84.3 207.89 87.93 199.65C97.38 178.2 97.26 144.62 97.26 144.62L95.55 142.17Z" fill="url(#paint73_linear_715_3056)"/>
<path d="M127.98 224.53C127.98 224.53 124.83 215.72 119.89 218.6C119.89 218.6 118.37 214.83 114.85 216.1C111.33 217.37 108.94 220.99 108.7 224.53C108.7 224.53 110.31 229.88 127.98 224.53Z" fill="#6F5175"/>
<path d="M164.35 230.93C164.35 230.93 163.12 225.26 160.15 226.82C160.15 226.82 157.27 221.47 152.74 223.86C152.74 223.86 147.96 220.07 143.19 230.36C143.19 230.36 143.36 235.63 153.23 235.79C163.1 235.95 164.34 230.93 164.34 230.93H164.35Z" fill="#6F5175"/>
<g style="mix-blend-mode:multiply" opacity="0.71">
<path d="M88.26 244.31C84.78 245.13 80.27 244.17 80.27 244.17C78.87 239.07 81.77 234.66 81.77 234.66C76.93 237.24 77.64 244.25 77.64 244.25C74.18 245.24 70.73 244.25 70.73 244.25C70.07 238.57 73.07 232.66 73.07 232.66C68.08 236.62 68.1 243.66 68.1 243.66C65.32 244.21 64 241.33 63.99 241.3C63.69 242.03 63.38 242.81 63.06 243.66C63.06 243.66 71.97 249.89 88.27 244.31H88.26Z" fill="#A59AC2"/>
</g>
<g style="mix-blend-mode:multiply" opacity="0.71">
<path d="M127.98 224.53C119.97 226.2 116.24 225.25 116.24 225.25C116.65 220.39 119.89 218.61 119.89 218.61C114.33 220.36 114.01 225.17 114.01 225.17C110.97 225.42 108.9 223.19 108.89 223.18C108.79 223.63 108.72 224.08 108.69 224.54C108.69 224.54 110.3 229.89 127.97 224.54L127.98 224.53Z" fill="#A59AC2"/>
</g>
<g style="mix-blend-mode:multiply" opacity="0.71">
<path d="M153.24 235.79C163.11 235.95 164.35 230.93 164.35 230.93C162.92 233.97 158.21 233.65 158.21 233.65C158.13 229.7 160.16 226.83 160.16 226.83C156.51 228.56 155.91 233.9 155.91 233.9C152.95 234.72 149.91 233.41 149.91 233.41C149.91 228.55 152.76 223.87 152.76 223.87C148.54 226.84 148.01 232.92 148.01 232.92C144.81 232.67 143.98 228.87 143.97 228.84C143.71 229.31 143.46 229.82 143.2 230.37C143.2 230.37 143.37 235.64 153.24 235.8V235.79Z" fill="#A59AC2"/>
</g>
<g style="mix-blend-mode:screen" opacity="0.74">
<path d="M67.36 93.3801C69.52 100.54 65.35 104.34 57.78 109.62C52.14 113.55 52.29 110.22 52.73 108.27C51.28 113.36 50.06 118.22 49.27 122.6C51.62 113.27 60.53 110.04 67.41 105.33C70.01 103.55 71.52 103.93 72.39 105.09C72.07 104.16 71.69 103.23 71.22 102.29C69.61 99.1101 68.36 96.1301 67.36 93.3801Z" fill="url(#paint74_linear_715_3056)"/>
<path d="M38.45 108.74C45.34 120.14 22.67 105.14 21.78 96.3201C21.93 103.62 21.71 109.65 21.58 113C21.58 113 22.68 106.64 27.06 108.72C31.45 110.8 46.6 120.92 46.6 120.92C44.63 118.1 41.65 113.74 38.45 108.73V108.74Z" fill="url(#paint75_linear_715_3056)"/>
<path d="M85.36 118.73C84.18 119.78 83.06 121 82.02 122.33C81.41 123.11 80.83 123.92 80.28 124.76C80.84 124.12 81.28 123.73 81.63 123.55C84.41 122.1 80.93 134.01 80.93 134.01C82.86 129.14 86.09 124.35 89.82 121.21C89.69 121.31 89.54 121.43 89.36 121.6C84.84 125.69 82.48 123.11 85.37 118.73H85.36Z" fill="url(#paint76_linear_715_3056)"/>
<path d="M76.85 154.69C76.5 158.06 76.05 164.21 75.88 174.64C77.74 156.09 84.42 189.21 84.42 189.21C85.57 181.27 86.63 174.74 87.6 169.4C84.16 185.68 77.09 161.62 76.85 154.69Z" fill="url(#paint77_linear_715_3056)"/>
<path d="M135.98 141.36C135.78 137.51 135.86 134.27 136.14 131.54C133.82 140.56 131.74 125.31 133.24 121.44C131.63 124.47 130.42 129.35 130.5 137.11C131.36 123.14 136.23 144.76 136.23 144.79C136.13 143.64 136.04 142.5 135.98 141.36Z" fill="url(#paint78_linear_715_3056)"/>
</g>
<path style="mix-blend-mode:multiply" d="M50.46 18.3402C57.3 13.9002 58.01 29.8202 52.74 30.7502C48.66 31.4702 46.34 21.0102 50.46 18.3402Z" fill="url(#paint79_linear_715_3056)"/>
<path d="M50.46 18.3402C54.43 15.5502 56.81 29.9702 52.74 30.7502C48.67 31.5302 46.44 21.1702 50.46 18.3402Z" fill="url(#paint80_linear_715_3056)"/>
<path d="M54.9 32.0302C53.61 31.9402 55.18 28.7502 55.93 28.6702C56.97 28.5502 56.1 32.1102 54.9 32.0302Z" fill="#3E1E43"/>
<g style="mix-blend-mode:multiply" opacity="0.46">
<path d="M49.99 18.7402C46.84 21.8402 48.62 30.4202 52.09 30.7702C54.2 28.1302 52.74 19.3102 49.99 18.7402Z" fill="#3E1E43"/>
</g>
<g style="mix-blend-mode:multiply" opacity="0.46">
<path d="M56.07 28.6702C56.07 28.6702 55.99 28.6602 55.94 28.6702C55.36 28.7402 54.31 30.6202 54.43 31.5402C54.48 31.5602 54.53 31.5802 54.6 31.5802C55.51 31.6402 56.23 29.6202 56.08 28.6802L56.07 28.6702Z" fill="#3E1E43"/>
</g>
<path style="mix-blend-mode:multiply" d="M58.56 12.8102C58.26 10.5402 57.95 8.3702 57.65 6.5002C57.48 5.3802 57.29 4.4202 57.09 3.6102C55.17 -1.3698 45.02 23.8402 44.96 31.2502C44.96 31.2502 52.02 30.8702 54.73 33.3102C57.44 35.7502 57.61 38.0302 57.61 38.0302C58.92 31.0502 59.11 20.6002 58.55 12.8202L58.56 12.8102Z" fill="url(#paint81_linear_715_3056)"/>
<path d="M74.31 91.9501C74.66 93.3101 74.39 94.5601 73.71 94.7401C73.03 94.9201 72.19 93.9501 71.84 92.5901C71.49 91.2301 71.76 89.9801 72.44 89.8001C73.12 89.6201 73.96 90.5901 74.31 91.9501Z" fill="#3E1E43"/>
<path d="M140.7 111.63C140.43 112 139.48 111.77 138.58 111.12C137.68 110.47 137.17 109.63 137.44 109.26C137.71 108.89 138.66 109.12 139.56 109.77C140.46 110.42 140.97 111.26 140.7 111.63Z" fill="#3E1E43"/>
<path d="M152.02 158.5C152.22 159.67 151.9 160.69 151.31 160.79C150.72 160.89 150.08 160.02 149.89 158.86C149.69 157.69 150.01 156.67 150.6 156.57C151.19 156.47 151.83 157.34 152.02 158.5Z" fill="#3E1E43"/>
<path d="M115.49 158.56C115.49 159.67 115.06 160.57 114.53 160.57C114 160.57 113.57 159.67 113.57 158.56C113.57 157.45 114 156.55 114.53 156.55C115.06 156.55 115.49 157.45 115.49 158.56Z" fill="#3E1E43"/>
<path d="M94.48 165.98C94.33 167.03 93.93 167.84 93.58 167.79C93.24 167.74 93.08 166.85 93.23 165.8C93.38 164.75 93.78 163.94 94.13 163.99C94.47 164.04 94.63 164.93 94.48 165.98Z" fill="#3E1E43"/>
<path d="M94.5 165.65C97.55 166.34 99.46 163.27 100.59 160.95C101.9 158.26 102.71 155.35 103 152.38C103.17 150.68 103.15 148.96 102.96 147.26C102.91 146.85 102.27 146.85 102.32 147.26C102.63 150.03 102.47 152.84 101.83 155.55C101.51 156.94 101.06 158.3 100.5 159.6C99.97 160.83 99.36 162.08 98.56 163.15C97.66 164.35 96.24 165.37 94.67 165.02C94.27 164.93 94.09 165.55 94.5 165.64V165.65Z" fill="#3E1E43"/>
<path d="M151.18 114.65C150.33 111.77 147.77 109.93 144.87 109.5C142.99 109.22 141.08 109.47 139.25 109.97C138.85 110.08 139.02 110.7 139.42 110.59C142.24 109.82 145.42 109.66 147.96 111.32C149.1 112.06 149.97 113.13 150.43 114.41C150.91 115.75 151.04 117.23 151.03 118.65C151.03 120.03 150.78 121.4 150.07 122.58C150.15 122.85 150.23 123.13 150.3 123.41C150.32 123.4 150.33 123.39 150.35 123.37C151.25 122.18 151.59 120.7 151.66 119.24C151.73 117.72 151.61 116.1 151.17 114.63L151.18 114.65Z" fill="#3E1E43"/>
</g>
<defs>
<linearGradient id="paint0_linear_715_3056" x1="12.0752" y1="129.699" x2="43.0376" y2="128.391" gradientUnits="userSpaceOnUse">
<stop stop-color="#F3D6D2"/>
<stop offset="1" stop-color="#A59AC2"/>
</linearGradient>
<linearGradient id="paint1_linear_715_3056" x1="19.1964" y1="128.157" x2="50.1588" y2="126.849" gradientUnits="userSpaceOnUse">
<stop stop-color="white"/>
<stop offset="0.66" stop-color="#C5BDD7"/>
<stop offset="1" stop-color="#A59AC2"/>
</linearGradient>
<linearGradient id="paint2_linear_715_3056" x1="32.56" y1="172.03" x2="53.08" y2="171.16" gradientUnits="userSpaceOnUse">
<stop stop-color="#F3D6D2"/>
<stop offset="1" stop-color="#A59AC2"/>
</linearGradient>
<linearGradient id="paint3_linear_715_3056" x1="42.99" y1="136.43" x2="47.28" y2="136.43" gradientUnits="userSpaceOnUse">
<stop stop-color="#F3D6D2"/>
<stop offset="1" stop-color="#A59AC2"/>
</linearGradient>
<linearGradient id="paint4_linear_715_3056" x1="45.95" y1="139.47" x2="49" y2="139.47" gradientUnits="userSpaceOnUse">
<stop stop-color="#F3D6D2"/>
<stop offset="1" stop-color="#A59AC2"/>
</linearGradient>
<linearGradient id="paint5_linear_715_3056" x1="45.21" y1="188.56" x2="45.21" y2="127.44" gradientUnits="userSpaceOnUse">
<stop stop-color="white"/>
<stop offset="0.66" stop-color="#C5BDD7"/>
<stop offset="1" stop-color="#A59AC2"/>
</linearGradient>
<linearGradient id="paint6_linear_715_3056" x1="152.31" y1="140.99" x2="239.69" y2="140.99" gradientUnits="userSpaceOnUse">
<stop stop-color="#A59AC2"/>
<stop offset="0.99" stop-color="#F3D6D2"/>
</linearGradient>
<linearGradient id="paint7_linear_715_3056" x1="131.56" y1="201.67" x2="106.29" y2="226.93" gradientUnits="userSpaceOnUse">
<stop stop-color="#A59AC2"/>
<stop offset="1" stop-color="#F3D6D2"/>
</linearGradient>
<linearGradient id="paint8_linear_715_3056" x1="117.38" y1="206.04" x2="123.37" y2="216.43" gradientUnits="userSpaceOnUse">
<stop stop-color="#A59AC2"/>
<stop offset="1"/>
</linearGradient>
<linearGradient id="paint9_linear_715_3056" x1="177.31" y1="164.45" x2="180.6" y2="170.15" gradientUnits="userSpaceOnUse">
<stop stop-color="#A59AC2"/>
<stop offset="1"/>
</linearGradient>
<linearGradient id="paint10_linear_715_3056" x1="78.96" y1="162.76" x2="119.63" y2="162.83" gradientUnits="userSpaceOnUse">
<stop offset="0.15" stop-color="#F3D6D2"/>
<stop offset="1" stop-color="#A59AC2"/>
</linearGradient>
<linearGradient id="paint11_linear_715_3056" x1="145.3" y1="227.68" x2="168.94" y2="200.38" gradientUnits="userSpaceOnUse">
<stop stop-color="#F3D6D2"/>
<stop offset="1" stop-color="#A59AC2"/>
</linearGradient>
<linearGradient id="paint12_linear_715_3056" x1="132.97" y1="141.71" x2="191.79" y2="141.71" gradientUnits="userSpaceOnUse">
<stop stop-color="#A59AC2"/>
<stop offset="0.63" stop-color="#E1DDEA"/>
<stop offset="0.99" stop-color="white"/>
</linearGradient>
<linearGradient id="paint13_linear_715_3056" x1="132.12" y1="140.99" x2="198.57" y2="140.99" gradientUnits="userSpaceOnUse">
<stop stop-color="#A59AC2"/>
<stop offset="0.63" stop-color="#E1DDEA"/>
<stop offset="0.99" stop-color="white"/>
</linearGradient>
<linearGradient id="paint14_linear_715_3056" x1="152.83" y1="162.16" x2="231.93" y2="162.16" gradientUnits="userSpaceOnUse">
<stop stop-color="#A59AC2"/>
<stop offset="0.63" stop-color="#E1DDEA"/>
<stop offset="0.99" stop-color="white"/>
</linearGradient>
<linearGradient id="paint15_linear_715_3056" x1="148.69" y1="209.21" x2="157.43" y2="224.34" gradientUnits="userSpaceOnUse">
<stop stop-color="#A59AC2"/>
<stop offset="1"/>
</linearGradient>
<linearGradient id="paint16_linear_715_3056" x1="111.11" y1="186.03" x2="111.11" y2="138.12" gradientUnits="userSpaceOnUse">
<stop stop-color="white"/>
<stop offset="0.66" stop-color="#C5BDD7"/>
<stop offset="1" stop-color="#A59AC2"/>
</linearGradient>
<linearGradient id="paint17_linear_715_3056" x1="15.72" y1="127.85" x2="145.92" y2="127.85" gradientUnits="userSpaceOnUse">
<stop stop-color="#F3D6D2"/>
<stop offset="1" stop-color="#A59AC2"/>
</linearGradient>
<linearGradient id="paint18_linear_715_3056" x1="70.82" y1="70.9801" x2="12.77" y2="70.9801" gradientUnits="userSpaceOnUse">
<stop stop-color="white"/>
<stop offset="0.66" stop-color="#C5BDD7"/>
<stop offset="1" stop-color="#A59AC2"/>
</linearGradient>
<linearGradient id="paint19_linear_715_3056" x1="123.37" y1="156.54" x2="123.37" y2="99.3701" gradientUnits="userSpaceOnUse">
<stop stop-color="white"/>
<stop offset="0.66" stop-color="#C5BDD7"/>
<stop offset="1" stop-color="#A59AC2"/>
</linearGradient>
<linearGradient id="paint20_linear_715_3056" x1="98.45" y1="127.85" x2="151.41" y2="127.85" gradientUnits="userSpaceOnUse">
<stop stop-color="#A59AC2"/>
<stop offset="0.34" stop-color="#C5BDD7"/>
<stop offset="0.99" stop-color="white"/>
</linearGradient>
<linearGradient id="paint21_linear_715_3056" x1="20.81" y1="118.71" x2="133.41" y2="118.71" gradientUnits="userSpaceOnUse">
<stop stop-color="#F3D6D2"/>
<stop offset="1" stop-color="#A59AC2"/>
</linearGradient>
<linearGradient id="paint22_linear_715_3056" x1="76.07" y1="132.04" x2="106.66" y2="93.2" gradientUnits="userSpaceOnUse">
<stop stop-color="white"/>
<stop offset="0.66" stop-color="#C5BDD7"/>
<stop offset="1" stop-color="#A59AC2"/>
</linearGradient>
<linearGradient id="paint23_linear_715_3056" x1="120.66" y1="110.2" x2="145.12" y2="152.56" gradientUnits="userSpaceOnUse">
<stop stop-color="#A59AC2"/>
<stop offset="1"/>
</linearGradient>
<linearGradient id="paint24_linear_715_3056" x1="87.04" y1="103.53" x2="109.11" y2="141.75" gradientUnits="userSpaceOnUse">
<stop stop-color="#A59AC2"/>
<stop offset="1"/>
</linearGradient>
<linearGradient id="paint25_linear_715_3056" x1="73.94" y1="123.73" x2="126.15" y2="98.8002" gradientUnits="userSpaceOnUse">
<stop offset="0.21" stop-color="#A59AC2"/>
<stop offset="0.48" stop-color="#C5BDD7"/>
<stop offset="0.99" stop-color="white"/>
</linearGradient>
<linearGradient id="paint26_linear_715_3056" x1="2.73002" y1="98.9401" x2="111.8" y2="98.9401" gradientUnits="userSpaceOnUse">
<stop stop-color="#F3D6D2"/>
<stop offset="0.28" stop-color="#E2C8CE"/>
<stop offset="0.81" stop-color="#B5A7C5"/>
<stop offset="1" stop-color="#A59AC2"/>
</linearGradient>
<linearGradient id="paint27_linear_715_3056" x1="68.05" y1="101.88" x2="99.73" y2="94.9801" gradientUnits="userSpaceOnUse">
<stop offset="0.21" stop-color="#A59AC2"/>
<stop offset="0.48" stop-color="#C5BDD7"/>
<stop offset="0.99" stop-color="white"/>
</linearGradient>
<linearGradient id="paint28_linear_715_3056" x1="78.94" y1="150.81" x2="78.94" y2="65.7401" gradientUnits="userSpaceOnUse">
<stop stop-color="white"/>
<stop offset="0.52" stop-color="#C5BDD7"/>
<stop offset="0.79" stop-color="#A59AC2"/>
</linearGradient>
<linearGradient id="paint29_linear_715_3056" x1="48.59" y1="178.46" x2="116.84" y2="91.8201" gradientUnits="userSpaceOnUse">
<stop stop-color="#A59AC2"/>
<stop offset="0.63" stop-color="#E1DDEA"/>
<stop offset="0.99" stop-color="white"/>
</linearGradient>
<linearGradient id="paint30_linear_715_3056" x1="21.96" y1="117.79" x2="127.18" y2="57.55" gradientUnits="userSpaceOnUse">
<stop stop-color="#F3D6D2"/>
<stop offset="1" stop-color="#A59AC2"/>
</linearGradient>
<linearGradient id="paint31_linear_715_3056" x1="48.08" y1="102.28" x2="75.19" y2="149.71" gradientUnits="userSpaceOnUse">
<stop stop-color="white"/>
<stop offset="0.66" stop-color="#C5BDD7"/>
<stop offset="1" stop-color="#A59AC2"/>
</linearGradient>
<linearGradient id="paint32_linear_715_3056" x1="17.87" y1="75.0801" x2="26.62" y2="65.2401" gradientUnits="userSpaceOnUse">
<stop stop-color="white"/>
<stop offset="0.66" stop-color="#C5BDD7"/>
<stop offset="1" stop-color="#A59AC2"/>
</linearGradient>
<linearGradient id="paint33_linear_715_3056" x1="39.67" y1="154.97" x2="96.82" y2="4.38019" gradientUnits="userSpaceOnUse">
<stop stop-color="white"/>
<stop offset="0.66" stop-color="#C5BDD7"/>
<stop offset="1" stop-color="#A59AC2"/>
</linearGradient>
<linearGradient id="paint34_linear_715_3056" x1="26.49" y1="99.13" x2="28.19" y2="102.07" gradientUnits="userSpaceOnUse">
<stop stop-color="#A59AC2"/>
<stop offset="1"/>
</linearGradient>
<linearGradient id="paint35_linear_715_3056" x1="63.59" y1="88.04" x2="71.39" y2="101.55" gradientUnits="userSpaceOnUse">
<stop stop-color="#A59AC2"/>
<stop offset="1"/>
</linearGradient>
<linearGradient id="paint36_linear_715_3056" x1="57.05" y1="124.28" x2="57.05" y2="44.88" gradientUnits="userSpaceOnUse">
<stop stop-color="white"/>
<stop offset="0.66" stop-color="#C5BDD7"/>
<stop offset="1" stop-color="#A59AC2"/>
</linearGradient>
<linearGradient id="paint37_linear_715_3056" x1="34.94" y1="121.39" x2="34.94" y2="72.8702" gradientUnits="userSpaceOnUse">
<stop stop-color="white"/>
<stop offset="0.66" stop-color="#C5BDD7"/>
<stop offset="1" stop-color="#A59AC2"/>
</linearGradient>
<linearGradient id="paint38_linear_715_3056" x1="18.06" y1="75.4801" x2="28.71" y2="75.4801" gradientUnits="userSpaceOnUse">
<stop offset="0.31" stop-color="#3E1E43"/>
<stop offset="1" stop-color="#2D1536"/>
</linearGradient>
<linearGradient id="paint39_linear_715_3056" x1="10.99" y1="37.3102" x2="79.47" y2="77.9002" gradientUnits="userSpaceOnUse">
<stop offset="0.04" stop-color="#F3D6D2"/>
<stop offset="1" stop-color="#A59AC2"/>
</linearGradient>
<linearGradient id="paint40_linear_715_3056" x1="61.37" y1="78.31" x2="61.37" y2="32.6" gradientUnits="userSpaceOnUse">
<stop stop-color="#A59AC2"/>
<stop offset="0.34" stop-color="#C5BDD7"/>
<stop offset="0.99" stop-color="white"/>
</linearGradient>
<linearGradient id="paint41_linear_715_3056" x1="14.69" y1="76.3" x2="14.69" y2="43.43" gradientUnits="userSpaceOnUse">
<stop stop-color="#A59AC2"/>
<stop offset="0.34" stop-color="#C5BDD7"/>
<stop offset="0.99" stop-color="white"/>
</linearGradient>
<linearGradient id="paint42_linear_715_3056" x1="22.67" y1="31.6602" x2="69.05" y2="74.5202" gradientUnits="userSpaceOnUse">
<stop stop-color="white"/>
<stop offset="0.66" stop-color="#C5BDD7"/>
<stop offset="1" stop-color="#A59AC2"/>
</linearGradient>
<linearGradient id="paint43_linear_715_3056" x1="42.96" y1="71.9902" x2="31.02" y2="75.4202" gradientUnits="userSpaceOnUse">
<stop offset="0.2"/>
<stop offset="0.27" stop-color="#0A0705"/>
<stop offset="0.39" stop-color="#251C15"/>
<stop offset="0.54" stop-color="#523E2F"/>
<stop offset="0.72" stop-color="#906E53"/>
<stop offset="0.92" stop-color="#DEA980"/>
<stop offset="1" stop-color="#FFC293"/>
</linearGradient>
<linearGradient id="paint44_linear_715_3056" x1="26.36" y1="24.79" x2="39.66" y2="47.83" gradientUnits="userSpaceOnUse">
<stop stop-color="#A59AC2"/>
<stop offset="1"/>
</linearGradient>
<linearGradient id="paint45_linear_715_3056" x1="19.64" y1="26.15" x2="34.25" y2="51.46" gradientUnits="userSpaceOnUse">
<stop stop-color="#A59AC2"/>
<stop offset="1"/>
</linearGradient>
<linearGradient id="paint46_linear_715_3056" x1="79.39" y1="125.08" x2="98.38" y2="138.67" gradientUnits="userSpaceOnUse">
<stop stop-color="#F3D6D2"/>
<stop offset="1" stop-color="#A59AC2"/>
</linearGradient>
<linearGradient id="paint47_linear_715_3056" x1="75.4444" y1="176.083" x2="98.6887" y2="174.991" gradientUnits="userSpaceOnUse">
<stop stop-color="#F3D6D2"/>
<stop offset="1" stop-color="#A59AC2"/>
</linearGradient>
<linearGradient id="paint48_linear_715_3056" x1="59.62" y1="39.2101" x2="59.62" y2="24.1001" gradientUnits="userSpaceOnUse">
<stop stop-color="white"/>
<stop offset="0.03" stop-color="#FCFBFD"/>
<stop offset="0.33" stop-color="#D6D1E3"/>
<stop offset="0.6" stop-color="#BBB3D1"/>
<stop offset="0.84" stop-color="#AAA0C6"/>
<stop offset="1" stop-color="#A59AC2"/>
</linearGradient>
<linearGradient id="paint49_linear_715_3056" x1="15.99" y1="30.6501" x2="30.7" y2="27.8501" gradientUnits="userSpaceOnUse">
<stop offset="0.28" stop-color="#A59AC2"/>
<stop offset="0.53" stop-color="#C5BDD7"/>
<stop offset="1" stop-color="white"/>
</linearGradient>
<linearGradient id="paint50_linear_715_3056" x1="50.78" y1="46.49" x2="50.78" y2="31.2" gradientUnits="userSpaceOnUse">
<stop stop-color="white"/>
<stop offset="0.66" stop-color="#C5BDD7"/>
<stop offset="1" stop-color="#A59AC2"/>
</linearGradient>
<linearGradient id="paint51_linear_715_3056" x1="13.97" y1="62.2101" x2="13.97" y2="47.1401" gradientUnits="userSpaceOnUse">
<stop stop-color="white"/>
<stop offset="0.66" stop-color="#C5BDD7"/>
<stop offset="1" stop-color="#A59AC2"/>
</linearGradient>
<linearGradient id="paint52_linear_715_3056" x1="37.98" y1="68.36" x2="36" y2="52.35" gradientUnits="userSpaceOnUse">
<stop offset="0.2" stop-color="white"/>
<stop offset="0.73" stop-color="#C5BDD7"/>
<stop offset="1" stop-color="#A59AC2"/>
</linearGradient>
<linearGradient id="paint53_linear_715_3056" x1="42.4" y1="15.1901" x2="71.89" y2="24.4001" gradientUnits="userSpaceOnUse">
<stop stop-color="#F3D6D2"/>
<stop offset="1" stop-color="#A59AC2"/>
</linearGradient>
<linearGradient id="paint54_linear_715_3056" x1="-0.760006" y1="26.2202" x2="31.02" y2="37.6502" gradientUnits="userSpaceOnUse">
<stop offset="0.12" stop-color="#F3D6D2"/>
<stop offset="1" stop-color="#A59AC2"/>
</linearGradient>
<linearGradient id="paint55_linear_715_3056" x1="7.82973" y1="30.7702" x2="15.2027" y2="31.8096" gradientUnits="userSpaceOnUse">
<stop stop-color="#A59AC2"/>
<stop offset="0.99" stop-color="white"/>
</linearGradient>
<linearGradient id="paint56_linear_715_3056" x1="14.5369" y1="36.4444" x2="10.2868" y2="25.8986" gradientUnits="userSpaceOnUse">
<stop stop-color="#4F395F"/>
<stop offset="1" stop-color="#3E1E43"/>
</linearGradient>
<radialGradient id="paint57_radial_715_3056" cx="0" cy="0" r="1" gradientUnits="userSpaceOnUse" gradientTransform="translate(46.4879 53.2148) rotate(53.69) scale(7.998 15.996)">
<stop stop-color="#6800FF"/>
<stop offset="0.03" stop-color="#6200F0"/>
<stop offset="0.19" stop-color="#4800B1"/>
<stop offset="0.35" stop-color="#32007B"/>
<stop offset="0.5" stop-color="#20004F"/>
<stop offset="0.64" stop-color="#12002C"/>
<stop offset="0.77" stop-color="#080014"/>
<stop offset="0.9" stop-color="#020005"/>
<stop offset="1"/>
</radialGradient>
<linearGradient id="paint58_linear_715_3056" x1="90.52" y1="148.78" x2="90.52" y2="117.57" gradientUnits="userSpaceOnUse">
<stop stop-color="white"/>
<stop offset="0.66" stop-color="#C5BDD7"/>
<stop offset="1" stop-color="#A59AC2"/>
</linearGradient>
<radialGradient id="paint59_radial_715_3056" cx="0" cy="0" r="1" gradientUnits="userSpaceOnUse" gradientTransform="translate(24.5346 58.1989) rotate(113.18) scale(7.998 15.996)">
<stop stop-color="#6800FF"/>
<stop offset="0.03" stop-color="#6200F0"/>
<stop offset="0.19" stop-color="#4800B1"/>
<stop offset="0.35" stop-color="#32007B"/>
<stop offset="0.5" stop-color="#20004F"/>
<stop offset="0.64" stop-color="#12002C"/>
<stop offset="0.77" stop-color="#080014"/>
<stop offset="0.9" stop-color="#020005"/>
<stop offset="1"/>
</radialGradient>
<linearGradient id="paint60_linear_715_3056" x1="43.74" y1="88.2701" x2="40.28" y2="80.7001" gradientUnits="userSpaceOnUse">
<stop stop-color="white"/>
<stop offset="0.66" stop-color="#C5BDD7"/>
<stop offset="1" stop-color="#A59AC2"/>
</linearGradient>
<linearGradient id="paint61_linear_715_3056" x1="99.21" y1="120.97" x2="168.11" y2="165.95" gradientUnits="userSpaceOnUse">
<stop stop-color="#F3D6D2"/>
<stop offset="1" stop-color="#A59AC2"/>
</linearGradient>
<linearGradient id="paint62_linear_715_3056" x1="-0.600005" y1="25.4201" x2="26.62" y2="43.9701" gradientUnits="userSpaceOnUse">
<stop stop-color="#A59AC2"/>
<stop offset="0.34" stop-color="#C5BDD7"/>
<stop offset="1" stop-color="white"/>
</linearGradient>
<linearGradient id="paint63_linear_715_3056" x1="145.88" y1="187.1" x2="145.88" y2="119.04" gradientUnits="userSpaceOnUse">
<stop stop-color="white"/>
<stop offset="0.66" stop-color="#C5BDD7"/>
<stop offset="1" stop-color="#A59AC2"/>
</linearGradient>
<linearGradient id="paint64_linear_715_3056" x1="97.8836" y1="123.595" x2="87.2668" y2="144.012" gradientUnits="userSpaceOnUse">
<stop stop-color="#3E1E43"/>
<stop offset="0.52" stop-color="#502B74"/>
<stop offset="1" stop-color="#3E1E43"/>
</linearGradient>
<radialGradient id="paint65_radial_715_3056" cx="0" cy="0" r="1" gradientUnits="userSpaceOnUse" gradientTransform="translate(135.821 146.132) rotate(18.09) scale(6.6896 10.5768)">
<stop stop-color="#6800FF"/>
<stop offset="0.1" stop-color="#6500F9"/>
<stop offset="0.22" stop-color="#5F00E9"/>
<stop offset="0.36" stop-color="#5400D0"/>
<stop offset="0.51" stop-color="#4600AC"/>
<stop offset="0.66" stop-color="#33007D"/>
<stop offset="0.83" stop-color="#1C0045"/>
<stop offset="0.99" stop-color="#010004"/>
<stop offset="1"/>
</radialGradient>
<linearGradient id="paint66_linear_715_3056" x1="142.172" y1="125.359" x2="150.26" y2="152.752" gradientUnits="userSpaceOnUse">
<stop stop-color="#3E1E43"/>
<stop offset="0.52" stop-color="#502B74"/>
<stop offset="1" stop-color="#3E1E43"/>
</linearGradient>
<radialGradient id="paint67_radial_715_3056" cx="0" cy="0" r="1" gradientUnits="userSpaceOnUse" gradientTransform="translate(203.335 112.3) rotate(-24.99) scale(9.0963 13.2514)">
<stop stop-color="#6800FF"/>
<stop offset="0.1" stop-color="#6500F9"/>
<stop offset="0.22" stop-color="#5F00E9"/>
<stop offset="0.36" stop-color="#5400D0"/>
<stop offset="0.51" stop-color="#4600AC"/>
<stop offset="0.66" stop-color="#33007D"/>
<stop offset="0.83" stop-color="#1C0045"/>
<stop offset="0.99" stop-color="#010004"/>
<stop offset="1"/>
</radialGradient>
<linearGradient id="paint68_linear_715_3056" x1="32.26" y1="62.93" x2="32.26" y2="35.56" gradientUnits="userSpaceOnUse">
<stop stop-color="#FFC293"/>
<stop offset="0.14" stop-color="#E2AC82"/>
<stop offset="0.44" stop-color="#987457"/>
<stop offset="0.87" stop-color="#241B14"/>
<stop offset="1"/>
</linearGradient>
<linearGradient id="paint69_linear_715_3056" x1="38.03" y1="16.4502" x2="55.21" y2="16.4502" gradientUnits="userSpaceOnUse">
<stop stop-color="#FFC293"/>
<stop offset="0.14" stop-color="#E2AC82"/>
<stop offset="0.44" stop-color="#987457"/>
<stop offset="0.87" stop-color="#241B14"/>
<stop offset="1"/>
</linearGradient>
<linearGradient id="paint70_linear_715_3056" x1="0.479993" y1="24.1702" x2="19.98" y2="24.1702" gradientUnits="userSpaceOnUse">
<stop stop-color="#A59AC2"/>
<stop offset="0.34" stop-color="#C5BDD7"/>
<stop offset="0.99" stop-color="white"/>
</linearGradient>
<linearGradient id="paint71_linear_715_3056" x1="128.34" y1="217.07" x2="128.34" y2="180.19" gradientUnits="userSpaceOnUse">
<stop stop-color="white"/>
<stop offset="0.66" stop-color="#C5BDD7"/>
<stop offset="1" stop-color="#A59AC2"/>
</linearGradient>
<linearGradient id="paint72_linear_715_3056" x1="160.75" y1="230.93" x2="160.75" y2="189.95" gradientUnits="userSpaceOnUse">
<stop stop-color="white"/>
<stop offset="0.66" stop-color="#C5BDD7"/>
<stop offset="1" stop-color="#A59AC2"/>
</linearGradient>
<linearGradient id="paint73_linear_715_3056" x1="88.57" y1="208.78" x2="88.57" y2="99.8402" gradientUnits="userSpaceOnUse">
<stop stop-color="white"/>
<stop offset="0.66" stop-color="#C5BDD7"/>
<stop offset="1" stop-color="#A59AC2"/>
</linearGradient>
<linearGradient id="paint74_linear_715_3056" x1="49.27" y1="107.99" x2="72.39" y2="107.99" gradientUnits="userSpaceOnUse">
<stop stop-color="#FFC293"/>
<stop offset="0.1" stop-color="#DEA980"/>
<stop offset="0.35" stop-color="#906E53"/>
<stop offset="0.58" stop-color="#523E2F"/>
<stop offset="0.77" stop-color="#251C15"/>
<stop offset="0.91" stop-color="#0A0705"/>
<stop offset="1"/>
</linearGradient>
<linearGradient id="paint75_linear_715_3056" x1="21.57" y1="108.63" x2="46.6" y2="108.63" gradientUnits="userSpaceOnUse">
<stop stop-color="#FFC293"/>
<stop offset="0.1" stop-color="#DEA980"/>
<stop offset="0.35" stop-color="#906E53"/>
<stop offset="0.58" stop-color="#523E2F"/>
<stop offset="0.77" stop-color="#251C15"/>
<stop offset="0.91" stop-color="#0A0705"/>
<stop offset="1"/>
</linearGradient>
<linearGradient id="paint76_linear_715_3056" x1="80.28" y1="126.37" x2="89.82" y2="126.37" gradientUnits="userSpaceOnUse">
<stop stop-color="#FFC293"/>
<stop offset="0.1" stop-color="#DEA980"/>
<stop offset="0.35" stop-color="#906E53"/>
<stop offset="0.58" stop-color="#523E2F"/>
<stop offset="0.77" stop-color="#251C15"/>
<stop offset="0.91" stop-color="#0A0705"/>
<stop offset="1"/>
</linearGradient>
<linearGradient id="paint77_linear_715_3056" x1="75.88" y1="171.95" x2="87.6" y2="171.95" gradientUnits="userSpaceOnUse">
<stop stop-color="#FFC293"/>
<stop offset="0.1" stop-color="#DEA980"/>
<stop offset="0.35" stop-color="#906E53"/>
<stop offset="0.58" stop-color="#523E2F"/>
<stop offset="0.77" stop-color="#251C15"/>
<stop offset="0.91" stop-color="#0A0705"/>
<stop offset="1"/>
</linearGradient>
<linearGradient id="paint78_linear_715_3056" x1="130.49" y1="133.11" x2="136.23" y2="133.11" gradientUnits="userSpaceOnUse">
<stop stop-color="#FFC293"/>
<stop offset="0.1" stop-color="#DEA980"/>
<stop offset="0.35" stop-color="#906E53"/>
<stop offset="0.58" stop-color="#523E2F"/>
<stop offset="0.77" stop-color="#251C15"/>
<stop offset="0.91" stop-color="#0A0705"/>
<stop offset="1"/>
</linearGradient>
<linearGradient id="paint79_linear_715_3056" x1="55.9847" y1="19.4935" x2="48.7305" y2="28.5499" gradientUnits="userSpaceOnUse">
<stop stop-color="#A59AC2"/>
<stop offset="0.99" stop-color="white"/>
</linearGradient>
<linearGradient id="paint80_linear_715_3056" x1="52.2808" y1="30.8016" x2="50.8629" y2="18.0402" gradientUnits="userSpaceOnUse">
<stop stop-color="#4F395F"/>
<stop offset="1" stop-color="#3E1E43"/>
</linearGradient>
<linearGradient id="paint81_linear_715_3056" x1="46.43" y1="4.9902" x2="61.11" y2="44.6502" gradientUnits="userSpaceOnUse">
<stop offset="0.06" stop-color="#A59AC2"/>
<stop offset="0.39" stop-color="#C5BDD7"/>
<stop offset="1" stop-color="white"/>
</linearGradient>
<clipPath id="clip0_715_3056">
<rect width="199.73" height="246.64" fill="white"/>
</clipPath>
</defs>
</svg>
