<svg width="50" height="50" viewBox="0 0 50 50" fill="none" xmlns="http://www.w3.org/2000/svg">
<rect width="50" height="50" rx="10" fill="#4D42EC"/>
<g clip-path="url(#clip0_986_3997)">
<path d="M29.1667 29.1669C27.9777 29.0889 27.7779 27.5936 27.7779 26.3891C27.7779 26.3489 27.7755 26.4293 27.7779 26.3891V26.3891C27.7755 26.3513 27.7779 26.4341 27.7779 26.3891C27.7779 25.187 27.9848 23.6831 29.1667 23.6113V23.6113C30.3542 23.676 31.9445 25.1894 31.9445 26.3891C31.9445 26.438 31.9477 26.341 31.9445 26.3891V26.3891C31.9469 26.4285 31.9445 26.3426 31.9445 26.3891C31.9445 27.5897 30.3487 29.0991 29.1667 29.1669V29.1669V29.1669ZM22.2223 29.1669C21.0333 29.0889 19.4445 27.5936 19.4445 26.3891C19.4445 26.3489 19.4422 26.4293 19.4445 26.3891V26.3891C19.4422 26.3513 19.4445 26.4341 19.4445 26.3891C19.4445 25.187 21.0404 23.6831 22.2223 23.6113V23.6113C23.4097 23.676 23.6112 25.1894 23.6112 26.3891C23.6112 26.438 23.6143 26.341 23.6112 26.3891V26.3891C23.6136 26.427 23.6112 26.3442 23.6112 26.3891C23.6112 27.5912 23.4042 29.0952 22.2223 29.1669V29.1669ZM33.3334 18.0558C31.9461 17.3999 30.8539 16.9672 29.1667 16.6669V16.6669C29.1628 16.6661 29.1715 16.6669 29.1667 16.6669C29.1392 16.6669 29.1793 16.6448 29.1667 16.6669C28.9826 16.9909 27.9581 17.6412 27.7779 18.0558V18.0558C26.9673 17.9257 27.3411 18.0558 26.389 18.0558C25.4368 18.0558 23.1343 17.9131 22.2223 18.0558H23.6112C23.3987 17.5592 22.4466 17.0579 22.2223 16.6669V16.6669C22.2089 16.644 22.2498 16.6669 22.2223 16.6669C22.2184 16.6669 22.2262 16.6661 22.2223 16.6669C20.4179 16.9846 19.5618 17.3487 18.0556 18.0558V18.0558C18.0423 18.0613 18.0627 18.044 18.0556 18.0558C15.8098 21.2412 13.889 24.8889 13.889 29.1669C13.889 29.8819 13.8158 31.2494 13.889 31.9447V31.9447C13.8913 31.9675 13.8724 31.9313 13.889 31.9447C15.5729 33.2067 17.3317 34.0548 19.4445 34.7225V34.7225C19.4508 34.7248 19.4367 34.7225 19.4445 34.7225C19.4697 34.7225 19.4311 34.7406 19.4445 34.7225C19.8655 34.1549 20.4864 34.0083 20.8334 33.3336V33.3336C20.8381 33.3241 20.8334 33.3462 20.8334 33.3336C20.8334 33.3012 20.8617 31.9557 20.8334 31.9447V31.9447C20.1158 31.6672 20.0221 32.2836 19.4445 31.9447V31.9447C19.4217 31.9313 19.4445 31.9723 19.4445 31.9447C19.4445 31.9202 19.4264 31.9581 19.4445 31.9447C19.5681 31.8517 19.3265 32.0424 19.4445 31.9447C19.4571 31.9344 19.4272 31.9447 19.4445 31.9447C19.4555 31.9447 19.4359 31.9407 19.4445 31.9447V31.9447C21.182 32.781 22.8471 31.9447 25.0001 31.9447C27.1531 31.9447 30.1236 32.8173 31.9445 31.9447V31.9447C31.954 31.9399 31.9327 31.9447 31.9445 31.9447C31.9618 31.9447 31.9319 31.9344 31.9445 31.9447C32.0626 32.0424 31.8194 31.8524 31.9445 31.9447C31.9626 31.9589 31.9445 31.9202 31.9445 31.9447C31.9445 31.9723 31.9658 31.9313 31.9445 31.9447C31.4244 32.256 31.1875 31.7011 30.5556 31.9447V31.9447C30.5273 31.9557 30.5556 33.302 30.5556 33.3336C30.5556 33.3462 30.5501 33.3233 30.5556 33.3336C30.9499 34.0903 31.5023 34.1131 31.9445 34.7225V34.7225C31.9579 34.7414 31.9201 34.7225 31.9445 34.7225C31.9524 34.7225 31.9374 34.724 31.9445 34.7225C34.199 34.0193 35.7626 33.2453 37.5001 31.9447V31.9447C37.5174 31.9321 37.4977 31.9667 37.5001 31.9447C37.5685 31.3267 37.5001 29.8929 37.5001 29.1669C37.5001 24.8984 35.6241 21.2909 33.3334 18.0558V18.0558C33.3271 18.0432 33.346 18.0613 33.3334 18.0558V18.0558Z" fill="white"/>
</g>
<defs>
<clipPath id="clip0_986_3997">
<rect width="25" height="25" fill="white" transform="translate(12.5 12.5)"/>
</clipPath>
</defs>
</svg>
