<svg width="50" height="50" viewBox="0 0 50 50" fill="none" xmlns="http://www.w3.org/2000/svg">
<rect width="50" height="50" rx="10" fill="white"/>
<g clip-path="url(#clip0_715_3366)">
<g clip-path="url(#clip1_715_3366)">
<path d="M36.556 22.8266L26.3587 22.8261C25.9084 22.8261 25.5435 23.1911 25.5435 23.6414V26.8989C25.5435 27.3491 25.9084 27.7142 26.3587 27.7142H32.1012C31.4724 29.346 30.2987 30.7127 28.8014 31.5811L31.25 35.8198C35.1778 33.5481 37.5 29.5624 37.5 25.1005C37.5 24.4652 37.4531 24.0111 37.3595 23.4997C37.2883 23.1112 36.951 22.8266 36.556 22.8266Z" fill="#167EE6"/>
<path d="M24.9999 32.6087C22.1897 32.6087 19.7364 31.0732 18.4187 28.8011L14.1802 31.2442C16.3372 34.9826 20.3779 37.5 24.9999 37.5C27.2674 37.5 29.4069 36.8895 31.2499 35.8256V35.8198L28.8014 31.581C27.6813 32.2306 26.3853 32.6087 24.9999 32.6087Z" fill="#12B347"/>
<path d="M31.25 35.8256V35.8198L28.8014 31.581C27.6814 32.2306 26.3854 32.6087 25 32.6087V37.5C27.2674 37.5 29.407 36.8895 31.25 35.8256Z" fill="#0F993E"/>
<path d="M17.3913 25C17.3913 23.6148 17.7693 22.3188 18.4188 21.1989L14.1802 18.7558C13.1104 20.5931 12.5 22.7268 12.5 25C12.5 27.2732 13.1104 29.4069 14.1802 31.2442L18.4188 28.8011C17.7693 27.6812 17.3913 26.3852 17.3913 25Z" fill="#FFD500"/>
<path d="M25 17.3913C26.8325 17.3913 28.5158 18.0425 29.8306 19.1256C30.155 19.3928 30.6264 19.3735 30.9235 19.0764L33.2316 16.7683C33.5687 16.4312 33.5447 15.8794 33.1846 15.567C30.9817 13.6559 28.1155 12.5 25 12.5C20.3779 12.5 16.3372 15.0174 14.1802 18.7558L18.4187 21.1989C19.7364 18.9268 22.1897 17.3913 25 17.3913Z" fill="#FF4B26"/>
<path d="M29.8307 19.1256C30.155 19.3928 30.6265 19.3735 30.9236 19.0764L33.2317 16.7683C33.5688 16.4312 33.5447 15.8794 33.1847 15.567C30.9818 13.6559 28.1156 12.5 25 12.5V17.3913C26.8325 17.3913 28.5159 18.0425 29.8307 19.1256Z" fill="#D93F21"/>
</g>
</g>
<defs>
<clipPath id="clip0_715_3366">
<rect width="25" height="25" fill="white" transform="translate(12.5 12.5)"/>
</clipPath>
<clipPath id="clip1_715_3366">
<rect width="25" height="25" fill="white" transform="translate(12.5 12.5)"/>
</clipPath>
</defs>
</svg>
