<svg width="50" height="50" viewBox="0 0 50 50" fill="none" xmlns="http://www.w3.org/2000/svg">
<rect width="50" height="50" rx="10" fill="#E4405F"/>
<path d="M24.4899 12.245C19.0565 12.245 14.2158 11.2728 12.245 16.3266C11.431 18.4139 11.2246 21.6287 11.2246 25.5103C11.2246 28.9164 11.44 32.6231 12.245 34.694C14.2113 39.7508 19.0969 38.7756 24.4899 38.7756C29.6929 38.7756 34.7401 39.8076 36.7348 34.694C37.5504 32.5857 37.7552 29.4098 37.7552 25.5103C37.7552 20.3338 38.2269 16.7948 35.7144 14.2858C33.1705 11.7439 29.5403 12.245 24.4899 12.245V12.245ZM23.4695 14.2858C34.8033 14.2678 36.5105 13.1227 35.7144 30.6123C35.4316 36.7981 30.284 36.7348 24.4899 36.7348C13.9253 36.7348 13.2654 36.071 13.2654 25.5103C13.2654 14.8269 14.6287 14.2948 23.4695 14.2858V14.2858ZM31.6328 17.347C30.7544 17.347 29.592 17.4897 29.592 18.3674C29.592 19.2451 30.7544 20.4082 31.6328 20.4082C32.5112 20.4082 32.6532 19.2451 32.6532 18.3674C32.6532 17.4897 32.5112 17.347 31.6328 17.347V17.347ZM24.4899 18.3674C20.7294 18.3674 17.3471 21.7528 17.3471 25.5103C17.3471 29.2678 20.7294 32.6531 24.4899 32.6531C28.2504 32.6531 31.6328 29.2678 31.6328 25.5103C31.6328 21.7528 28.2504 18.3674 24.4899 18.3674V18.3674ZM24.4899 21.4286C30.3334 21.4286 30.3409 29.5919 24.4899 29.5919C18.6479 29.5919 18.639 21.4286 24.4899 21.4286Z" fill="#F9F9FF"/>
</svg>
