<svg width="50" height="50" viewBox="0 0 50 50" fill="none" xmlns="http://www.w3.org/2000/svg">
<rect width="50" height="50" rx="10" fill="#6015FF"/>
<path d="M34.7223 13.8888H15.2779C15.0892 13.8888 15.3443 13.6971 15.2779 13.8888L13.889 18.0555C13.8699 18.1108 13.889 17.9963 13.889 18.0555V34.7221C13.889 34.9938 13.6389 34.7221 13.889 34.7221H19.4446V37.4999C19.4446 37.7716 19.1944 37.4999 19.4446 37.4999H22.2223C22.3425 37.5001 22.1372 37.5921 22.2223 37.4999L25.0001 34.7221H29.1668C29.287 34.7224 29.0817 34.8144 29.1668 34.7221L34.7223 29.1666C34.8072 29.0742 34.7225 27.9082 34.7223 27.7777V13.8888C34.7223 13.6171 34.9725 13.8888 34.7223 13.8888ZM33.3334 27.7777C33.3337 27.9082 33.4184 27.6853 33.3334 27.7777L29.1668 31.9444C29.0817 32.0365 29.287 31.9446 29.1668 31.9444H25.0001L22.2223 34.7221C22.0457 34.9145 21.0105 34.914 20.8334 34.7221C20.7481 34.6296 20.8332 34.8531 20.8334 34.7221V31.9444H16.6668C16.4167 31.9444 16.6668 30.8271 16.6668 30.5555V16.6666C16.6668 16.3949 16.4167 15.2777 16.6668 15.2777H31.9446C32.1947 15.2777 33.3334 16.3949 33.3334 16.6666V27.7777Z" fill="#F9F9FF"/>
<path d="M22.2222 27.7778C21.8387 27.7778 22.2222 28.1065 22.2222 27.7778V19.4444C22.2222 19.1157 21.8387 19.4444 22.2222 19.4444C22.6057 19.4444 23.6111 19.1157 23.6111 19.4444V27.7778C23.6111 28.1066 22.6057 27.7778 22.2222 27.7778Z" fill="#F9F9FF"/>
<path d="M27.778 27.7778C27.3945 27.7778 26.3892 28.1065 26.3892 27.7778V19.4444C26.3892 19.1157 27.3945 19.4444 27.778 19.4444C28.1616 19.4444 27.778 19.1157 27.778 19.4444V27.7778C27.778 28.1065 28.1616 27.7778 27.778 27.7778Z" fill="#F9F9FF"/>
</svg>
