<svg width="50" height="50" viewBox="0 0 50 50" fill="none" xmlns="http://www.w3.org/2000/svg">
<rect width="50" height="50" rx="10" fill="#4C75A3"/>
<path fill-rule="evenodd" clip-rule="evenodd" d="M23.611 34.7221H26.3888C26.3888 34.7221 26.12 35.0366 26.3888 34.7221C26.6363 34.4334 26.3888 33.3332 26.3888 33.3332C26.3888 33.3332 26.692 30.9292 27.7777 30.5554C28.848 30.1872 30.4876 33.6372 31.9444 34.7221C33.0459 35.5432 33.3333 34.7221 33.3333 34.7221H37.4999C37.4999 34.7221 39.855 35.0716 38.8888 33.3332C38.8096 33.191 38.4444 31.5168 36.111 29.1665C33.6688 26.7067 33.1691 26.4771 36.111 22.2221C37.9027 19.6308 39.1125 18.733 38.8888 18.0554C38.6754 17.4101 37.4999 18.0554 37.4999 18.0554H33.3333C33.3333 18.0554 32.1855 17.899 31.9444 18.0554C31.7088 18.2088 31.9444 18.0554 31.9444 18.0554C31.9444 18.0554 31.4812 20.5168 30.5555 22.2221C28.6026 25.8205 28.0969 25.2233 27.7777 24.9999C27.0353 24.4791 26.3888 23.3384 26.3888 22.2221C26.3888 18.7349 27.8254 17.0429 26.3888 16.6665C25.9121 16.5415 24.8302 16.6799 23.611 16.6665C22.0462 16.6489 20.1943 16.2678 19.4444 16.6665C18.9455 16.9316 19.21 18.0215 19.4444 18.0554C19.7342 18.0975 20.4852 17.5411 20.8333 18.0554C21.2827 18.7188 20.8333 20.8332 20.8333 20.8332C20.8333 20.8332 21.6945 24.4899 20.8333 24.9999C20.2421 25.3496 19.7965 25.4867 18.0555 22.2221C17.1634 20.5498 15.2777 18.0554 15.2777 18.0554C15.2777 18.0554 15.5093 18.2402 15.2777 18.0554C14.9966 17.8316 15.2777 18.0554 15.2777 18.0554H11.111C11.111 18.0554 9.95181 17.7603 9.72215 18.0554C9.51784 18.318 9.72215 18.0554 9.72215 18.0554C9.72215 18.0554 12.9723 26.3812 16.6666 30.5554C20.054 34.3824 23.611 34.7221 23.611 34.7221Z" fill="#F9F9FF"/>
</svg>
