<svg width="50" height="50" viewBox="0 0 50 50" fill="none" xmlns="http://www.w3.org/2000/svg">
<rect width="50" height="50" rx="10" fill="#FF0000"/>
<g clip-path="url(#clip0_986_1242)">
<path fill-rule="evenodd" clip-rule="evenodd" d="M22.2222 27.7781V20.8337L29.1667 23.6115L22.2222 27.7781ZM37.5 19.4448C37.5 19.4448 36.8603 17.446 36.1111 16.667C35.1603 15.6442 33.8216 15.3375 33.3333 15.2781C29.8349 15.0182 25 15.2781 25 15.2781V15.2781C25 15.2781 20.1651 15.0182 16.6667 15.2781C16.1776 15.3375 14.8405 15.6442 13.8889 16.667C13.1397 17.446 12.5 19.4448 12.5 19.4448C12.5 19.4448 12.5 21.5345 12.5 23.6115V25.0003C12.5 27.0781 12.5 29.167 12.5 29.167C12.5 29.167 13.1397 31.1658 13.8889 31.9448C14.8405 32.9676 16.1104 33.227 16.6667 33.3337C18.6667 33.531 25 33.3337 25 33.3337C25 33.3337 29.8349 33.5936 33.3333 33.3337C33.8216 33.2735 35.1603 32.9676 36.1111 31.9448C36.8603 31.1658 37.5 29.167 37.5 29.167C37.5 29.167 37.5 27.0781 37.5 25.0003V23.6115C37.5 21.5345 37.5 19.4448 37.5 19.4448Z" fill="#F9F9FF"/>
</g>
<defs>
<clipPath id="clip0_986_1242">
<rect width="25" height="25" fill="white" transform="translate(12.5 11.1113)"/>
</clipPath>
</defs>
</svg>
