<svg width="50" height="50" viewBox="0 0 50 50" fill="none" xmlns="http://www.w3.org/2000/svg">
<rect width="50" height="50" rx="10" fill="#190061"/>
<g opacity="0.2">
<path d="M24.9159 35.4063C21.5231 35.4063 18.1303 35.4063 14.7375 35.4063C14.5717 35.4063 14.4039 35.4063 14.2374 35.3892C13.388 35.3099 13.0465 34.7377 13.4087 33.964C13.7231 33.296 14.066 32.6452 14.3989 31.9844C15.9705 28.8731 17.5421 25.7622 19.1138 22.6518C19.1623 22.5568 19.2131 22.4618 19.2695 22.371C19.6653 21.7367 20.3082 21.6474 20.8147 22.1946C21.1719 22.5775 21.4741 23.0076 21.7927 23.4226C23.4119 25.5386 25.0312 27.6555 26.6505 29.7734C27.3577 30.695 28.2485 30.745 29.0794 29.9163C29.4915 29.5048 29.8945 29.0826 30.3117 28.6747C31.0639 27.9389 31.9176 27.9832 32.5319 28.8412C33.765 30.5628 34.9673 32.3073 36.1753 34.0461C36.2697 34.1826 36.342 34.333 36.3896 34.4919C36.5068 34.8913 36.341 35.2127 35.936 35.3192C35.682 35.38 35.4213 35.4081 35.1601 35.4028C31.7473 35.4085 28.3326 35.4097 24.9159 35.4063Z" fill="white"/>
<path d="M32.5248 18.3577C32.5239 19.0218 32.3259 19.6707 31.9558 20.2221C31.5857 20.7735 31.0602 21.2026 30.4459 21.455C29.8317 21.7074 29.1563 21.7717 28.5054 21.6398C27.8546 21.5079 27.2575 21.1857 26.79 20.714C26.3225 20.2424 26.0055 19.6425 25.8793 18.9905C25.7531 18.3386 25.8233 17.6638 26.0811 17.0517C26.3389 16.4397 26.7726 15.918 27.3272 15.5527C27.8818 15.1875 28.5324 14.9951 29.1965 15.0001C30.0808 15.0113 30.9253 15.3696 31.5478 15.9977C32.1704 16.6257 32.5213 17.4733 32.5248 18.3577Z" fill="white"/>
</g>
</svg>
