<svg width="16" height="16" viewBox="0 0 16 16" fill="none" xmlns="http://www.w3.org/2000/svg">
<path d="M8 0C3.58184 0 0 3.58167 0 8C0 12.4183 3.58184 16 8 16C12.4183 16 16 12.4183 16 8C16 3.58167 12.4183 0 8 0ZM9.17461 13.3421C9.17461 13.4799 9.06323 13.5914 8.92526 13.5914H7.07458C6.93677 13.5914 6.82523 13.4799 6.82523 13.3421V6.28846C6.82523 6.15065 6.93677 6.03911 7.07458 6.03911H8.92559C9.06323 6.03911 9.17494 6.15065 9.17494 6.28846V13.3421H9.17461ZM8 5.31749C7.19792 5.31749 6.54545 4.66502 6.54545 3.86294C6.54545 3.06086 7.19792 2.40839 8 2.40839C8.80208 2.40839 9.45455 3.06086 9.45455 3.86294C9.45455 4.66502 8.80208 5.31749 8 5.31749Z" fill="white"/>
</svg>
