<svg width="25" height="25" viewBox="0 0 25 25" fill="none" xmlns="http://www.w3.org/2000/svg">
<path fill-rule="evenodd" clip-rule="evenodd" d="M14.8737 2.24196C14.488 2.08337 13.999 2.08337 13.0208 2.08337C12.0427 2.08337 11.5536 2.08337 11.1679 2.24196C10.6535 2.45341 10.2449 2.85898 10.0318 3.36945C9.93457 3.60248 9.89651 3.87348 9.88161 4.26878C9.85973 4.84971 9.55954 5.38743 9.05226 5.67809C8.54498 5.96875 7.92566 5.95789 7.4078 5.68625C7.05539 5.50139 6.79988 5.3986 6.5479 5.36569C5.99593 5.29356 5.43769 5.44201 4.996 5.77837C4.66473 6.03064 4.4202 6.45098 3.93114 7.29163C3.44209 8.1323 3.19757 8.55262 3.14307 8.96349C3.07039 9.51129 3.21998 10.0653 3.5589 10.5037C3.7136 10.7038 3.93101 10.8719 4.26844 11.0823C4.76449 11.3917 5.08366 11.9187 5.08363 12.5C5.0836 13.0814 4.76444 13.6083 4.26844 13.9175C3.93096 14.1281 3.71351 14.2963 3.5588 14.4964C3.21987 14.9347 3.0703 15.4887 3.14297 16.0365C3.19747 16.4473 3.442 16.8677 3.93104 17.7084C4.42009 18.549 4.66462 18.9694 4.99589 19.2216C5.43758 19.558 5.99582 19.7064 6.5478 19.6343C6.79977 19.6014 7.05526 19.4986 7.40763 19.3138C7.92554 19.0421 8.54489 19.0313 9.05221 19.3219C9.55952 19.6126 9.85972 20.1504 9.88161 20.7314C9.89651 21.1266 9.93457 21.3976 10.0318 21.6307C10.2449 22.1411 10.6535 22.5467 11.1679 22.7582C11.5536 22.9167 12.0427 22.9167 13.0208 22.9167C13.999 22.9167 14.488 22.9167 14.8737 22.7582C15.3881 22.5467 15.7968 22.1411 16.0098 21.6307C16.1071 21.3976 16.1452 21.1266 16.1601 20.7313C16.182 20.1504 16.4821 19.6126 16.9894 19.3219C17.4967 19.0312 18.116 19.0421 18.634 19.3138C18.9864 19.4986 19.2418 19.6013 19.4937 19.6342C20.0457 19.7064 20.604 19.558 21.0456 19.2216C21.377 18.9693 21.6215 18.549 22.1105 17.7083C22.5996 16.8676 22.8441 16.4473 22.8986 16.0365C22.9713 15.4887 22.8217 14.9346 22.4828 14.4963C22.328 14.2962 22.1106 14.128 21.7731 13.9175C21.2772 13.6083 20.958 13.0813 20.958 12.4999C20.958 11.9186 21.2772 11.3918 21.7731 11.0825C22.1107 10.872 22.3281 10.7039 22.4829 10.5037C22.8218 10.0654 22.9714 9.51136 22.8987 8.96355C22.8442 8.5527 22.5997 8.13236 22.1106 7.29171C21.6216 6.45105 21.3771 6.03072 21.0457 5.77845C20.6041 5.44208 20.0458 5.29363 19.4939 5.36576C19.2419 5.39868 18.9864 5.50146 18.6341 5.68629C18.1161 5.95795 17.4968 5.96881 16.9895 5.67812C16.4822 5.38745 16.182 4.84969 16.16 4.26873C16.1451 3.87346 16.1071 3.60247 16.0098 3.36945C15.7968 2.85898 15.3881 2.45341 14.8737 2.24196ZM13.0208 15.625C14.7599 15.625 16.1696 14.226 16.1696 12.5C16.1696 10.7741 14.7599 9.37504 13.0208 9.37504C11.2818 9.37504 9.87204 10.7741 9.87204 12.5C9.87204 14.226 11.2818 15.625 13.0208 15.625Z" fill="white"/>
</svg>
