<svg width="103" height="61" viewBox="0 0 103 61" fill="none" xmlns="http://www.w3.org/2000/svg">
<path d="M99.3605 12.6611L99.3579 12.6474C99.3523 12.6202 99.3467 12.593 99.3409 12.5658C99.1005 11.4746 98.3498 10.5502 97.3255 10.0407L91.2326 7.00704C89.6062 6.2363 87.6884 6.38115 86.225 7.38491L82.9197 9.65213C82.4913 9.94338 82.0089 10.1456 81.5009 10.2468C80.9929 10.3481 80.4698 10.3462 79.9625 10.2414L75.7241 9.37743L71.4857 8.51344C70.9779 8.41129 70.4958 8.20817 70.068 7.91614C69.6402 7.6241 69.2755 7.2491 68.9954 6.8134L66.8412 3.43366C65.8875 1.93691 64.1794 1.05285 62.3812 1.12501C62.3812 1.12501 56.5755 1.19261 54.7364 1.59818C53.9292 1.85101 53.2292 2.36558 52.747 3.06061L52.7375 3.07434C52.2786 3.74292 49.9542 7.33967 47.6298 11.1806C47.3356 11.104 47.0332 11.0627 46.7292 11.0576L40.8653 10.9585L40.3138 10.9402C40.2206 10.9402 40.1276 10.9402 40.0343 10.9448C38.2738 10.955 36.6477 11.9013 35.786 13.4186L33.8336 16.854C33.581 17.296 33.2416 17.6822 32.8358 17.9895C32.43 18.2968 31.9662 18.5189 31.4724 18.6422L27.358 19.6775L23.2438 20.7128C22.7504 20.8379 22.2368 20.8619 21.7339 20.7833C21.2309 20.7047 20.7491 20.5251 20.3174 20.2554L16.9705 18.1518C15.6046 17.2936 13.8957 17.1745 12.4157 17.812C11.8562 17.9024 11.3167 18.089 10.8209 18.3635C10.8209 18.3635 5.46868 21.1156 3.95237 22.3732C3.31218 23.0197 2.9031 23.8593 2.78851 24.7619L2.78597 24.7799C2.57251 26.4317 1.0778 41.3737 1.43687 46.3798C1.44348 46.4634 1.44831 46.5498 1.45517 46.6339C1.45445 46.6396 1.45506 46.6454 1.45695 46.6509C1.54004 47.735 1.84498 49.8632 1.85387 49.9087C2.69246 54.7735 4.61688 58.4188 8.34806 59.6769C9.85777 60.1887 12.684 59.8248 14.4723 57.6213C16.3273 55.3343 20.8506 47.6867 20.9014 47.5838C20.9057 47.5746 20.91 47.5662 20.9144 47.5584C22.3628 48.5911 24.2087 49.0083 26.0348 48.5494C28.657 47.8887 30.4617 45.6172 30.7171 43.0021L35.5199 41.7932C35.7865 42.2125 36.0991 42.6007 36.452 42.9505C37.6464 44.2932 39.4041 45.0279 41.206 44.8276C41.634 44.81 42.059 44.7485 42.4743 44.6439C44.6966 44.0848 46.3415 42.3863 46.9788 40.2967C47.462 40.5114 47.9176 40.7837 48.3355 41.1076C51.7877 43.5385 55.1265 45.7849 57.8232 46.9975C59.2795 47.6509 60.9579 47.3261 62.0433 46.1607C64.2002 43.8544 64.6081 40.748 63.88 37.1935C63.8211 36.7332 63.7387 36.2641 63.633 35.7862C65.7216 35.6789 67.6315 34.5006 68.7275 32.686C70.2817 32.9774 71.8748 33.2877 73.4178 33.599C73.8752 36.1427 75.778 38.2564 78.3946 38.7898C80.6448 39.2488 82.8671 38.4252 84.3465 36.8105C86.3917 40.3552 89.1671 46.0858 90.9568 48.0851C91.984 49.2312 93.542 49.3644 95.0674 49.1306C106.461 47.3807 100.688 19.2219 99.3605 12.6611Z" fill="black" stroke="url(#paint0_linear_1097_867)" stroke-width="2" stroke-linejoin="round"/>
<path d="M69.5438 30.5625C70.2593 27.0521 68.0829 23.6446 64.6828 22.9516C61.2827 22.2586 57.9464 24.5426 57.2309 28.053C56.5154 31.5634 58.6918 34.9709 62.0919 35.6639C65.492 36.3569 68.8283 34.0729 69.5438 30.5625Z" fill="black"/>
<path d="M85.9673 33.5927C86.6951 30.022 84.4813 26.5558 81.0228 25.8509C77.5642 25.146 74.1705 27.4693 73.4427 31.04C72.715 34.6108 74.9287 38.0769 78.3872 38.7818C81.8458 39.4868 85.2395 37.1635 85.9673 33.5927Z" fill="black"/>
<path d="M101.872 32.2744C101.987 26.3845 100.688 19.2217 99.3605 12.6604C99.3605 12.6559 99.3587 12.6513 99.3579 12.6467C99.3523 12.6195 99.3467 12.5923 99.3409 12.5652C99.1005 11.474 98.3498 10.5495 97.3255 10.04L91.2326 7.00636C89.6062 6.23563 87.6884 6.38048 86.2249 7.38423L82.9197 9.65146C82.4913 9.94271 82.0089 10.1449 81.5009 10.2462C80.9929 10.3474 80.4698 10.3456 79.9625 10.2408L75.7241 9.37676L71.4857 8.51276C70.9779 8.41062 70.4958 8.2075 70.068 7.91546C69.6402 7.62343 69.2755 7.24843 68.9954 6.81273L66.8412 3.43299C65.8875 1.93624 64.1794 1.05217 62.3812 1.12434C62.3812 1.12434 56.5755 1.19194 54.7364 1.59751C53.9292 1.85034 53.2291 2.36492 52.7469 3.05995L52.7375 3.07367C51.8799 4.32341 44.5057 15.8003 42.7884 19.9922C42.7604 20.0623 42.7294 20.1343 42.7015 20.2044C42.6988 20.2088 42.6969 20.2137 42.6962 20.2189C42.329 21.1289 41.7323 22.9722 41.7219 23.0124C40.4841 27.282 40.6874 31.0041 43.4466 33.5239C44.5614 34.5462 46.1956 34.7924 47.5632 34.1627C50.0228 33.023 56.2863 28.6441 56.3727 28.5813C57.1498 27.973 57.7429 27.5527 58.5034 27.3468C58.8661 29.426 60.5064 31.1852 62.7553 31.6439C65.2202 32.1468 67.6254 30.9245 68.6508 28.8209L74.6185 30.0382C74.7392 32.376 76.4735 34.4417 78.9384 34.9446C81.1337 35.3924 83.281 34.4722 84.4494 32.7801C85.0743 33.2606 85.5899 33.8626 86.0125 34.6262C88.0503 37.9828 90.0636 41.1446 91.9334 43.212C92.944 44.3271 94.5462 44.7408 95.97 44.2364C100.249 42.7313 101.76 38.131 101.872 32.2744Z" fill="black"/>
<path d="M101.104 36.7923C101.235 30.7258 99.9284 23.3511 98.5918 16.5964C98.5918 16.5916 98.59 16.587 98.5889 16.5822C98.5836 16.5543 98.5778 16.5263 98.5719 16.4983C98.3295 15.3752 97.5661 14.4248 96.5245 13.9023L90.3241 10.7919C88.6688 10.0021 86.7144 10.1566 85.2212 11.1932L81.8478 13.5364C81.4128 13.8369 80.9215 14.0462 80.4034 14.1517C79.8854 14.2572 79.3513 14.2567 78.8335 14.1503L74.5165 13.2708L70.1999 12.3906C69.6817 12.2857 69.19 12.0771 68.7547 11.7771C68.3193 11.4772 67.9492 11.0922 67.6666 10.6453L65.4797 7.16848C64.5117 5.62904 62.7733 4.72236 60.9412 4.80113C60.9412 4.80113 55.0253 4.88448 53.1505 5.30657C52.3247 5.57099 51.6104 6.10266 51.1201 6.8178L51.1104 6.83177C50.2335 8.12116 42.6928 19.9597 40.9331 24.2812C40.9041 24.3536 40.8726 24.4278 40.8439 24.4999C40.841 24.5045 40.8391 24.5096 40.8386 24.5149C40.4622 25.4531 39.8498 27.3532 39.8389 27.3946C38.5665 31.7971 38.767 35.6302 41.5714 38.2199C42.7048 39.2704 44.3692 39.52 45.7643 38.8682C48.2732 37.6886 57.5045 31.157 57.5937 31.0922C58.387 30.4638 83.5425 35.3891 83.9709 36.1745C86.0394 39.6267 89.0532 45.958 90.9535 48.0832C91.9807 49.2292 93.6123 49.6518 95.0641 49.1286C99.4258 47.5666 100.976 42.8245 101.104 36.7923Z" fill="black"/>
<path d="M101.433 34.4095C101.583 28.3468 100.326 20.9823 99.0362 14.2373C99.0362 14.2325 99.0344 14.2279 99.0334 14.2231C99.0283 14.1951 99.0228 14.1672 99.0169 14.1392C98.7829 13.0178 98.036 12.0707 97.0145 11.5523L90.9322 8.46657C90.1349 8.08203 89.2492 7.91809 88.367 7.99178C87.4849 8.06547 86.6387 8.37411 85.9162 8.88561L82.5931 11.2392C82.1679 11.5403 81.6855 11.7511 81.1757 11.8584C80.6658 11.9657 80.1394 11.9674 79.6289 11.8633L75.3902 10.9993L71.1518 10.1354C70.6413 10.0312 70.1575 9.82351 69.7304 9.52508C69.3033 9.22665 68.942 8.84382 68.6686 8.40025L66.531 4.9336C66.0665 4.18009 65.4086 3.56475 64.6258 3.15155C63.843 2.73836 62.9638 2.5424 62.0796 2.58404C62.0796 2.58404 56.266 2.68874 54.4224 3.11768C53.6058 3.3878 52.902 3.92152 52.4217 4.63501L52.412 4.64899C51.5458 5.9404 44.0936 17.7972 42.349 22.122C42.3203 22.1944 42.2891 22.2684 42.2606 22.3408C42.2579 22.3454 42.2561 22.3505 42.2553 22.3558C41.882 23.2945 41.2736 25.1955 41.2642 25.237C39.998 29.6408 40.1814 33.4703 42.9279 36.0486C44.0379 37.094 45.6724 37.3374 47.0466 36.6811C49.5164 35.4933 55.8136 30.9487 55.9005 30.8837C56.6825 30.2527 57.2786 29.8164 58.0415 29.6004C58.2182 30.6756 58.7175 31.6718 59.4731 32.4568C60.2287 33.2419 61.2051 33.7789 62.2728 33.9966C64.7377 34.4992 67.1533 33.2266 68.1937 31.0555L74.1616 32.2724C74.2683 34.6771 75.9925 36.7936 78.4579 37.2963C79.5002 37.5088 80.5821 37.4073 81.5666 37.0047C82.5512 36.6021 83.3942 35.9165 83.989 35.0346C84.6118 35.5256 85.1244 36.1421 85.5427 36.9255C87.5629 40.368 89.5597 43.6088 91.4201 45.7268C92.4254 46.8683 94.0271 47.2846 95.4555 46.7565C99.7452 45.1818 101.285 40.4382 101.433 34.4095Z" fill="url(#paint1_linear_1097_867)" stroke="black" stroke-width="0.8" stroke-linejoin="round"/>
<g style="mix-blend-mode:multiply" opacity="0.29">
<path d="M78.3756 35.8791C77.3117 35.6583 76.3787 35.0246 75.7814 34.1169C75.1841 33.2093 74.971 32.1018 75.1891 31.0373C75.4071 29.9728 76.0384 29.0382 76.9444 28.4385C77.8505 27.8388 78.9574 27.6229 80.0225 27.8381L80.0299 27.8396C81.0962 28.0581 82.032 28.6911 82.6316 29.5996C83.2311 30.508 83.4452 31.6174 83.2268 32.6837C83.0083 33.75 82.3753 34.6859 81.4668 35.2854C80.5584 35.8849 79.449 36.0991 78.3827 35.8806L78.3756 35.8791Z" fill="#333333"/>
</g>
<g style="mix-blend-mode:multiply" opacity="0.29">
<path d="M62.1909 32.5794C61.126 32.3603 60.1916 31.7276 59.5928 30.8203C58.994 29.9129 58.7797 28.805 58.9969 27.7397C59.449 25.5223 61.6207 24.086 63.8381 24.5379H63.8452C64.9104 24.757 65.8451 25.3899 66.4439 26.2977C67.0428 27.2055 67.2569 28.3138 67.0392 29.3793C66.5871 31.5967 64.4152 33.0327 62.198 32.5811L62.1909 32.5794Z" fill="#333333"/>
<path d="M60.5661 30.781C60.2029 30.2295 60.0111 29.5828 60.0149 28.9225C60.0188 28.2622 60.2182 27.6178 60.5879 27.0706C60.9575 26.5235 61.481 26.098 62.0922 25.848C62.7034 25.598 63.3749 25.5347 64.0221 25.6659L64.0279 25.6671C64.6493 25.7933 65.2215 26.0948 65.6769 26.536C65.1893 25.8915 64.4832 25.4471 63.6912 25.2865L63.6851 25.2852C63.0378 25.1533 62.3659 25.2163 61.7544 25.4661C61.1428 25.7159 60.619 26.1414 60.2492 26.6888C59.8794 27.2362 59.6801 27.8809 59.6765 28.5415C59.6729 29.2021 59.8652 29.849 60.2291 30.4003C60.3638 30.6044 60.5202 30.7932 60.6954 30.9637C60.6507 30.9045 60.6073 30.8435 60.5661 30.781Z" fill="#333333"/>
</g>
<path d="M78.806 35.5525C77.7421 35.3317 76.8092 34.698 76.2119 33.7903C75.6145 32.8827 75.4015 31.7752 75.6195 30.7107C75.8376 29.6462 76.4688 28.7117 77.3749 28.1119C78.281 27.5122 79.3879 27.2963 80.453 27.5115L80.4603 27.513C81.5266 27.7315 82.4625 28.3645 83.062 29.273C83.6616 30.1814 83.8757 31.2908 83.6572 32.3571C83.4388 33.4234 82.8057 34.3593 81.8973 34.9588C80.9888 35.5584 79.8794 35.7725 78.8131 35.554L78.806 35.5525Z" fill="black"/>
<path d="M62.6214 32.2534C61.5565 32.0342 60.6221 31.4015 60.0232 30.4941C59.4243 29.5867 59.21 28.4788 59.4272 27.4135C59.8795 25.1963 62.0512 23.76 64.2683 24.2116L64.2757 24.2131C65.3406 24.4322 66.275 25.0649 66.8738 25.9723C67.4726 26.8796 67.6869 27.9875 67.4697 29.0528C67.0176 31.2702 64.8459 32.7062 62.6285 32.2546L62.6214 32.2534Z" fill="black"/>
<path d="M60.9963 30.4544C60.6331 29.903 60.4413 29.2563 60.4452 28.596C60.4491 27.9356 60.6484 27.2912 61.0181 26.7441C61.3878 26.1969 61.9112 25.7715 62.5224 25.5215C63.1336 25.2715 63.8051 25.2081 64.4523 25.3393H64.4584C65.0798 25.4655 65.652 25.767 66.1074 26.2082C65.6196 25.5643 64.9137 25.1205 64.122 24.9602H64.1161C63.4688 24.8283 62.7969 24.8913 62.1854 25.1411C61.5738 25.3909 61.05 25.8164 60.6802 26.3638C60.3104 26.9112 60.1111 27.5559 60.1075 28.2165C60.1039 28.8771 60.2962 29.524 60.6601 30.0753C60.7947 30.2795 60.951 30.4684 61.1264 30.6387C61.0812 30.5785 61.0378 30.5171 60.9963 30.4544Z" fill="white"/>
<g style="mix-blend-mode:multiply" opacity="0.29">
<path d="M58.8424 7.56242H58.8391C58.3618 7.47487 57.8691 7.57791 57.4668 7.84943C57.0645 8.12095 56.7846 8.53932 56.6872 9.0148C56.5898 9.49028 56.6827 9.985 56.9458 10.3928C57.209 10.8006 57.6215 11.0891 58.0948 11.1963H58.0981C58.5755 11.2838 59.0682 11.1808 59.4705 10.9093C59.8728 10.6377 60.1527 10.2194 60.2501 9.74389C60.3475 9.26841 60.2546 8.7737 59.9915 8.36588C59.7283 7.95806 59.3158 7.66961 58.8424 7.56242Z" fill="#333333"/>
<path d="M57.2962 15.0786H57.2928C56.8155 14.991 56.3228 15.0941 55.9205 15.3656C55.5182 15.6371 55.2383 16.0555 55.1409 16.531C55.0435 17.0065 55.1364 17.5012 55.3995 17.909C55.6627 18.3168 56.0752 18.6053 56.5485 18.7125H56.5518C57.0292 18.8 57.5219 18.697 57.9242 18.4254C58.3265 18.1539 58.6064 17.7355 58.7038 17.2601C58.8012 16.7846 58.7083 16.2899 58.4452 15.882C58.182 15.4742 57.7695 15.1858 57.2962 15.0786Z" fill="#333333"/>
<path d="M54.3141 10.548C53.8326 10.4483 53.3312 10.5439 52.9202 10.8137C52.5091 11.0834 52.2219 11.5054 52.1218 11.9868V11.9901C52.0382 12.4653 52.143 12.9545 52.414 13.3537C52.685 13.7529 53.101 14.0308 53.5735 14.1284C54.0461 14.226 54.5381 14.1357 54.9451 13.8765C55.3522 13.6173 55.6422 13.2097 55.7536 12.7402V12.7372C55.8524 12.2561 55.7563 11.7554 55.4865 11.345C55.2166 10.9346 54.795 10.648 54.3141 10.548Z" fill="#333333"/>
<path d="M63.0031 12.8912C62.8015 12.5852 62.5138 12.3457 62.1762 12.2031C61.8387 12.0604 61.4665 12.0209 61.1065 12.0895C60.7466 12.1582 60.415 12.3319 60.1537 12.5887C59.8923 12.8456 59.7129 13.1741 59.6381 13.5328V13.5361C59.5567 14.0103 59.6627 14.4975 59.9337 14.8949C60.2047 15.2924 60.6195 15.569 61.0906 15.6665C61.5617 15.764 62.0522 15.6746 62.4587 15.4173C62.8651 15.16 63.1557 14.7548 63.2691 14.2873V14.284C63.319 14.0458 63.3211 13.8 63.2755 13.561C63.2298 13.3219 63.1372 13.0943 63.0031 12.8912Z" fill="#333333"/>
</g>
<path d="M58.5355 10.8184C58.0621 10.7112 57.6496 10.4228 57.3864 10.015C57.1233 9.60713 57.0304 9.11242 57.1278 8.63693C57.2252 8.16145 57.5051 7.74308 57.9074 7.47156C58.3097 7.20004 58.8024 7.097 59.2798 7.18455H59.2831C59.7564 7.29174 60.1689 7.58019 60.4321 7.98801C60.6952 8.39583 60.7881 8.89054 60.6907 9.36602C60.5933 9.8415 60.3134 10.2599 59.9111 10.5314C59.5088 10.8029 59.0161 10.906 58.5388 10.8184H58.5355Z" fill="black"/>
<path d="M57.8013 10.006C57.6367 9.7568 57.5497 9.46442 57.5513 9.16579C57.5528 8.86717 57.6429 8.57571 57.81 8.32824C57.9772 8.08077 58.2139 7.88839 58.4903 7.77542C58.7668 7.66245 59.0705 7.63396 59.3631 7.69354H59.3657C59.6464 7.75053 59.905 7.88678 60.1107 8.08615C59.8905 7.79489 59.5713 7.59417 59.2134 7.52176H59.2109C58.9182 7.46191 58.6144 7.49023 58.3378 7.60313C58.0612 7.71603 57.8243 7.90843 57.6571 8.156C57.4899 8.40356 57.3999 8.69515 57.3985 8.99388C57.3971 9.29262 57.4843 9.58506 57.6491 9.83421C57.71 9.92623 57.7806 10.0114 57.8598 10.0883C57.8402 10.0616 57.8199 10.0342 57.8013 10.006Z" fill="white"/>
<path d="M56.9892 18.3346C56.5158 18.2275 56.1033 17.939 55.8401 17.5312C55.577 17.1234 55.4841 16.6287 55.5815 16.1532C55.6789 15.6777 55.9588 15.2593 56.3611 14.9878C56.7634 14.7163 57.2561 14.6132 57.7335 14.7008H57.7368C58.2101 14.808 58.6226 15.0964 58.8858 15.5042C59.1489 15.9121 59.2418 16.4068 59.1444 16.8823C59.047 17.3577 58.7671 17.7761 58.3648 18.0476C57.9625 18.3192 57.4698 18.4222 56.9925 18.3346H56.9892Z" fill="black"/>
<path d="M56.255 17.5222C56.0906 17.273 56.0037 16.9807 56.0053 16.6821C56.0069 16.3835 56.097 16.0921 56.2641 15.8447C56.4312 15.5973 56.6679 15.4049 56.9442 15.2919C57.2206 15.1789 57.5242 15.1503 57.8168 15.2098H57.8194C58.1002 15.2669 58.3588 15.4031 58.5647 15.6024C58.3443 15.3112 58.0253 15.1104 57.6674 15.0377H57.6646C57.3719 14.9779 57.0681 15.0062 56.7915 15.1191C56.5149 15.232 56.278 15.4244 56.1108 15.672C55.9436 15.9195 55.8536 16.2111 55.8522 16.5099C55.8508 16.8086 55.938 17.1011 56.1028 17.3502C56.1637 17.4423 56.2344 17.5275 56.3137 17.6043C56.2934 17.5784 56.2738 17.551 56.255 17.5222Z" fill="white"/>
<path d="M56.1943 12.3608C56.2782 11.8855 56.1736 11.3962 55.9026 10.9967C55.6316 10.5973 55.2156 10.3192 54.7429 10.2215C54.2702 10.1239 53.778 10.2143 53.3709 10.4736C52.9638 10.733 52.6738 11.1408 52.5625 11.6104V11.6137C52.4788 12.089 52.5836 12.5781 52.8546 12.9773C53.1257 13.3766 53.5416 13.6545 54.0142 13.7521C54.4867 13.8497 54.9787 13.7593 55.3858 13.5001C55.7928 13.241 56.0828 12.8334 56.1943 12.3639V12.3608Z" fill="black"/>
<path d="M55.7376 11.365C55.5735 11.1158 55.3392 10.9208 55.0643 10.8046C54.7895 10.6884 54.4863 10.6562 54.1932 10.7121C53.9 10.7681 53.63 10.9096 53.4172 11.1188C53.2044 11.328 53.0584 11.5956 52.9975 11.8877V11.8903C52.9394 12.1704 52.9625 12.4614 53.0641 12.7288C52.8836 12.4114 52.8251 12.0391 52.8997 11.6816V11.6788C52.9665 11.3592 53.1351 11.0697 53.3802 10.8539C53.6253 10.6381 53.9337 10.5076 54.2593 10.4818C54.5849 10.4561 54.91 10.5365 55.186 10.7111C55.462 10.8856 55.674 11.1449 55.7903 11.4501C55.7737 11.4227 55.7565 11.3937 55.7376 11.365Z" fill="white"/>
<path d="M63.7103 13.9061C63.7942 13.4308 63.6896 12.9415 63.4186 12.542C63.1476 12.1426 62.7316 11.8645 62.2589 11.7668C61.7862 11.6692 61.294 11.7596 60.8869 12.0189C60.4798 12.2782 60.1898 12.686 60.0785 13.1557V13.159C59.9936 13.6347 60.0977 14.1247 60.3686 14.5248C60.6395 14.9249 61.0558 15.2035 61.529 15.3013C62.0021 15.3992 62.4948 15.3086 62.9022 15.0488C63.3095 14.789 63.5995 14.3805 63.7103 13.9102V13.9061Z" fill="black"/>
<path d="M63.2529 12.9118C63.0888 12.6626 62.8545 12.4675 62.5796 12.3513C62.3048 12.2351 62.0016 12.2029 61.7085 12.2588C61.4154 12.3147 61.1454 12.4562 60.9326 12.6654C60.7197 12.8746 60.5737 13.1421 60.5127 13.4342V13.437C60.4545 13.7172 60.4776 14.0082 60.5793 14.2756C60.3988 13.9581 60.3403 13.5857 60.4149 13.2281V13.2256C60.4756 12.9334 60.6216 12.6657 60.8344 12.4564C61.0471 12.247 61.3172 12.1055 61.6103 12.0495C61.9035 11.9936 62.2067 12.0258 62.4816 12.1421C62.7565 12.2584 62.9908 12.4535 63.1548 12.7029C63.2155 12.7951 63.2661 12.8937 63.3055 12.9969C63.2897 12.9684 63.2722 12.9401 63.2529 12.9118Z" fill="white"/>
<path d="M77.181 33.7544C76.8171 33.203 76.6248 32.5562 76.6284 31.8956C76.632 31.235 76.8313 30.5903 77.2011 30.0429C77.571 29.4955 78.0947 29.07 78.7062 28.8201C79.3178 28.5703 79.9896 28.5072 80.637 28.639L80.6428 28.6403C81.2642 28.7666 81.8365 29.0681 82.292 29.5094C81.8044 28.8648 81.0982 28.4205 80.3061 28.2599H80.3002C79.6529 28.128 78.981 28.191 78.3695 28.4408C77.7579 28.6906 77.2342 29.1161 76.8643 29.6635C76.4945 30.2109 76.2952 30.8556 76.2916 31.5162C76.2881 32.1768 76.4804 32.8236 76.8443 33.375C76.9787 33.5791 77.1351 33.7679 77.3106 33.9381C77.2657 33.8781 77.2225 33.8169 77.181 33.7544Z" fill="white"/>
<g style="mix-blend-mode:multiply" opacity="0.29">
<path d="M66.7954 20.783L66.6797 21.3455C66.6128 21.6713 66.8226 21.9897 67.1484 22.0567L69.5528 22.5512C69.8786 22.6182 70.197 22.4084 70.264 22.0826L70.3797 21.52C70.4467 21.1942 70.2369 20.8758 69.9111 20.8088L67.5066 20.3144C67.1808 20.2474 66.8624 20.4572 66.7954 20.783Z" fill="#333333"/>
<path d="M75.4067 22.5546L75.291 23.1172C75.224 23.443 75.4338 23.7614 75.7596 23.8284L78.1641 24.3228C78.4899 24.3898 78.8083 24.18 78.8753 23.8542L78.991 23.2917C79.058 22.9659 78.8482 22.6475 78.5224 22.5805L76.1179 22.086C75.7921 22.019 75.4737 22.2288 75.4067 22.5546Z" fill="#333333"/>
</g>
<path d="M70.243 20.5117L67.8386 20.0173C67.5128 19.9503 67.1943 20.1601 67.1274 20.4859L67.0117 21.0484C66.9447 21.3742 67.1545 21.6927 67.4803 21.7597L69.8847 22.2541C70.2105 22.3211 70.529 22.1113 70.5959 21.7855L70.7116 21.223C70.7786 20.8972 70.5688 20.5787 70.243 20.5117Z" fill="black"/>
<path d="M67.2735 21.1617L67.3792 20.6473C67.4086 20.5043 67.4937 20.3788 67.6156 20.2984C67.7376 20.2181 67.8864 20.1895 68.0295 20.2189L70.2278 20.6712C70.3008 20.6861 70.37 20.7157 70.4311 20.7581C70.3514 20.662 70.2414 20.596 70.1191 20.5708L67.9207 20.1188C67.7777 20.0894 67.6288 20.118 67.5068 20.1983C67.3849 20.2787 67.2999 20.4042 67.2704 20.5472L67.1647 21.0613C67.1429 21.1669 67.1526 21.2766 67.1926 21.3768C67.2327 21.477 67.3012 21.5632 67.3899 21.6247C67.3369 21.5612 67.2989 21.4866 67.2788 21.4065C67.2586 21.3263 67.2568 21.2426 67.2735 21.1617Z" fill="white"/>
<path d="M78.8553 22.2827L76.4508 21.7883C76.125 21.7213 75.8066 21.9311 75.7396 22.2569L75.6239 22.8194C75.557 23.1452 75.7668 23.4637 76.0926 23.5307L78.497 24.0251C78.8228 24.0921 79.1412 23.8823 79.2082 23.5565L79.3239 22.994C79.3909 22.6682 79.1811 22.3497 78.8553 22.2827Z" fill="black"/>
<path d="M75.8855 22.9334L75.9912 22.419C76.0207 22.276 76.1058 22.1505 76.2278 22.0701C76.3498 21.9898 76.4987 21.9612 76.6417 21.9906L78.8398 22.4429C78.9128 22.4579 78.9819 22.4874 79.0431 22.5298C78.9634 22.4337 78.8532 22.3676 78.7308 22.3426L76.5325 21.8905C76.4616 21.8759 76.3886 21.8754 76.3176 21.889C76.2466 21.9027 76.1789 21.9302 76.1185 21.9699C76.0581 22.0097 76.0062 22.061 75.9656 22.1209C75.9251 22.1808 75.8967 22.2481 75.8822 22.3189L75.7765 22.833C75.7548 22.9386 75.7645 23.0483 75.8046 23.1484C75.8446 23.2486 75.9131 23.3348 76.0016 23.3964C75.9487 23.3329 75.9108 23.2583 75.8907 23.1781C75.8706 23.098 75.8688 23.0143 75.8855 22.9334Z" fill="white"/>
<g style="mix-blend-mode:multiply" opacity="0.29">
<path d="M90.782 17.1843L89.8469 17.9057C89.7577 17.9744 89.6548 18.0231 89.5451 18.0484C89.4353 18.0737 89.3215 18.075 89.2112 18.0522C89.101 18.0294 88.9969 17.983 88.9063 17.9163C88.8156 17.8496 88.7404 17.764 88.6858 17.6656L88.1151 16.6354C88.0246 16.4722 87.9956 16.282 88.0332 16.0992L88.5804 13.4394C88.6222 13.2363 88.7429 13.0582 88.9161 12.9442C89.0892 12.8301 89.3005 12.7895 89.5036 12.8313L91.0089 13.141C91.1095 13.1617 91.205 13.2019 91.2899 13.2595C91.3749 13.3171 91.4477 13.3908 91.5042 13.4765C91.5607 13.5622 91.5997 13.6582 91.6191 13.759C91.6384 13.8598 91.6377 13.9634 91.617 14.064L91.0702 16.723C91.0323 16.9063 90.9301 17.0699 90.782 17.1843Z" fill="#333333"/>
<path d="M88.9798 17.5545L88.497 16.5482C88.445 16.4373 88.4307 16.3124 88.4561 16.1925L88.9997 13.5497C89.0578 13.2666 89.3097 13.0785 89.561 13.1301L90.1777 13.2318L89.4527 13.0826C89.3849 13.0686 89.315 13.0682 89.2469 13.0812C89.1789 13.0943 89.1141 13.1207 89.0563 13.1588C88.9985 13.1969 88.9487 13.246 88.9098 13.3034C88.871 13.3607 88.8438 13.4252 88.8299 13.493L88.2833 16.1513C88.2579 16.2746 88.2774 16.403 88.3384 16.5132L88.9092 17.5434C88.9669 17.6478 89.0584 17.7295 89.1686 17.7751C89.1458 17.7599 89.0116 17.6209 88.9798 17.5545Z" fill="#333333"/>
<path d="M87.3342 20.437L88.2693 19.7158C88.3585 19.647 88.4614 19.5983 88.5711 19.573C88.6809 19.5477 88.7947 19.5464 88.905 19.5692C89.0153 19.592 89.1193 19.6383 89.21 19.7051C89.3007 19.7718 89.3758 19.8574 89.4304 19.9559L90.0011 20.9861C90.0915 21.1494 90.1205 21.3395 90.0829 21.5223L89.5356 24.1821C89.5149 24.2827 89.4747 24.3782 89.4171 24.4631C89.3595 24.5481 89.2858 24.6209 89.2001 24.6774C89.1144 24.7338 89.0184 24.7729 88.9176 24.7922C88.8168 24.8116 88.7132 24.8109 88.6126 24.7902L87.1072 24.4805C87.0067 24.4598 86.9112 24.4195 86.8263 24.362C86.7413 24.3044 86.6685 24.2307 86.612 24.145C86.5555 24.0592 86.5165 23.9633 86.4971 23.8625C86.4778 23.7617 86.4785 23.658 86.4992 23.5575L87.046 20.8984C87.0838 20.7151 87.1861 20.5514 87.3342 20.437Z" fill="#333333"/>
<path d="M90.6842 20.5353L89.9628 19.6002C89.894 19.511 89.8453 19.408 89.82 19.2983C89.7948 19.1886 89.7935 19.0747 89.8163 18.9645C89.8391 18.8542 89.8854 18.7502 89.9522 18.6595C90.0189 18.5689 90.1044 18.4937 90.2029 18.4391L91.2331 17.8686C91.3963 17.7782 91.5865 17.7491 91.7693 17.7865L94.4291 18.3339C94.5296 18.3545 94.6251 18.3948 94.7101 18.4524C94.7951 18.5099 94.8679 18.5837 94.9243 18.6694C94.9808 18.7551 95.0199 18.8511 95.0392 18.9519C95.0586 19.0527 95.0579 19.1563 95.0372 19.2568L94.7277 20.7625C94.6858 20.9655 94.565 21.1435 94.3919 21.2576C94.2188 21.3716 94.0075 21.4122 93.8045 21.3706L91.1457 20.8235C90.9623 20.7858 90.7985 20.6836 90.6842 20.5353Z" fill="#333333"/>
<path d="M90.2463 19.3412C90.1869 19.2513 90.1874 19.1229 90.2034 19.0447C90.2049 19.0383 90.2064 19.0317 90.2082 19.0251C90.2222 18.975 90.2468 18.9284 90.2804 18.8887C90.314 18.849 90.3558 18.817 90.4029 18.7949C90.4029 18.7949 91.2575 18.2612 91.6666 18.203C91.7087 18.1971 91.7515 18.1971 91.7936 18.203L94.0108 18.5062L91.7746 18.0465C91.6146 18.0135 91.4481 18.0389 91.3052 18.1182L90.335 18.6556C90.2337 18.7101 90.1524 18.7956 90.103 18.8996C90.062 18.9874 90.046 19.0849 90.0567 19.1813C90.0674 19.2776 90.1044 19.3692 90.1638 19.4459L90.8852 20.3808C90.9357 20.4458 91.0007 20.498 91.075 20.5333L90.2463 19.3412Z" fill="#333333"/>
<path d="M87.432 17.0877L88.1532 18.0226C88.222 18.1118 88.2707 18.2147 88.296 18.3244C88.3213 18.4342 88.3226 18.548 88.2998 18.6583C88.277 18.7686 88.2306 18.8726 88.1639 18.9633C88.0971 19.054 88.0116 19.1291 87.9131 19.1837L86.8831 19.7544C86.7198 19.8449 86.5295 19.8739 86.3467 19.8363L83.6869 19.2891C83.4838 19.2473 83.3057 19.1266 83.1917 18.9534C83.0776 18.7803 83.037 18.569 83.0787 18.3659L83.3885 16.8606C83.4304 16.6575 83.5511 16.4794 83.7242 16.3654C83.8973 16.2513 84.1087 16.2107 84.3117 16.2525L86.9705 16.7996C87.154 16.8371 87.3177 16.9394 87.432 17.0877Z" fill="#333333"/>
<path d="M83.7908 16.9235C83.821 16.7759 84.0032 16.656 84.1509 16.6864C84.1509 16.6864 87.0191 17.1207 87.2567 17.2762L87.2313 17.2427C87.154 17.1428 87.0436 17.0738 86.92 17.0483L84.2609 16.5014C84.1239 16.4733 83.9813 16.5007 83.8645 16.5777C83.7477 16.6547 83.6663 16.7748 83.6381 16.9118L83.328 18.4172C83.3252 18.4315 83.3232 18.4454 83.3214 18.4594L83.7908 16.9235Z" fill="#333333"/>
<path d="M88.4902 19.9353L87.648 20.6692C87.5564 20.7509 87.4939 20.8603 87.4701 20.9808L86.9263 23.6236C86.8681 23.9066 87.0252 24.1791 87.2765 24.2306L87.8828 24.3813L87.1581 24.2322C87.0902 24.2182 87.0258 24.1911 86.9684 24.1522C86.9111 24.1134 86.862 24.0636 86.8238 24.0058C86.7857 23.9479 86.7594 23.8832 86.7463 23.8151C86.7333 23.7471 86.7337 23.6772 86.7477 23.6093L87.2948 20.9495C87.3203 20.8262 87.389 20.716 87.4884 20.6387L88.4195 19.9175C88.514 19.8444 88.6304 19.8055 88.7499 19.8072C88.7234 19.8123 88.5456 19.887 88.4902 19.9353Z" fill="#333333"/>
</g>
<path d="M91.2211 17.0681L90.286 17.7896C90.1968 17.8583 90.0939 17.907 89.9842 17.9323C89.8745 17.9576 89.7606 17.9589 89.6503 17.9361C89.5401 17.9133 89.4361 17.8669 89.3454 17.8002C89.2547 17.7335 89.1795 17.6479 89.1249 17.5494L88.5544 16.5193C88.4639 16.3561 88.4348 16.1659 88.4724 15.9831L89.0202 13.3232C89.0409 13.2227 89.0812 13.1272 89.1387 13.0422C89.1963 12.9573 89.27 12.8845 89.3557 12.828C89.4415 12.7715 89.5374 12.7325 89.6382 12.7131C89.739 12.6938 89.8427 12.6944 89.9432 12.7151L91.4488 13.0247C91.6519 13.0665 91.8299 13.1873 91.9439 13.3604C92.0579 13.5335 92.0985 13.7448 92.0567 13.9479L91.5106 16.6067C91.4726 16.7902 91.3699 16.954 91.2211 17.0681Z" fill="black"/>
<path d="M89.4189 17.4383L88.9361 16.432C88.8843 16.321 88.8699 16.1962 88.8952 16.0763L89.4388 13.4335C89.4972 13.1504 89.749 12.9621 90.0004 13.0139L90.6168 13.1156L89.8921 12.9664C89.8242 12.9524 89.7543 12.952 89.6863 12.965C89.6182 12.9781 89.5534 13.0044 89.4956 13.0425C89.4377 13.0807 89.3879 13.1298 89.349 13.1871C89.3102 13.2445 89.283 13.3089 89.269 13.3768L88.7219 16.0366C88.6965 16.16 88.716 16.2883 88.777 16.3985L89.3478 17.4287C89.4056 17.5331 89.4972 17.6147 89.6075 17.6602C89.5849 17.6416 89.4522 17.5036 89.4189 17.4383Z" fill="white"/>
<path d="M87.7735 20.3203L88.7084 19.5991C88.7976 19.5303 88.9005 19.4816 89.0102 19.4563C89.1199 19.431 89.2338 19.4297 89.3441 19.4525C89.4544 19.4753 89.5584 19.5216 89.6491 19.5884C89.7398 19.6552 89.8149 19.7407 89.8695 19.8392L90.4402 20.8692C90.5307 21.0325 90.5597 21.2227 90.522 21.4056L89.9749 24.0654C89.9331 24.2685 89.8123 24.4466 89.6392 24.5606C89.4661 24.6746 89.2548 24.7152 89.0517 24.6735L87.5463 24.3638C87.3433 24.3219 87.1652 24.2012 87.0512 24.028C86.9371 23.8549 86.8965 23.6436 86.9382 23.4406L87.4854 20.7817C87.5229 20.5983 87.6252 20.4345 87.7735 20.3203Z" fill="black"/>
<path d="M91.1233 20.4181L90.4021 19.4829C90.3333 19.3938 90.2846 19.2908 90.2593 19.1811C90.234 19.0714 90.2327 18.9575 90.2555 18.8473C90.2783 18.737 90.3247 18.633 90.3914 18.5423C90.4582 18.4516 90.5437 18.3764 90.6423 18.3219L91.6724 17.7511C91.8357 17.6608 92.0259 17.6318 92.2086 17.6693L94.8685 18.2167C94.969 18.2373 95.0645 18.2776 95.1494 18.3352C95.2344 18.3927 95.3072 18.4665 95.3637 18.5522C95.4202 18.6379 95.4592 18.7339 95.4786 18.8347C95.4979 18.9355 95.4972 19.0391 95.4765 19.1396L95.1668 20.645C95.1461 20.7456 95.1058 20.841 95.0482 20.926C94.9906 21.011 94.9169 21.0838 94.8311 21.1403C94.7454 21.1967 94.6494 21.2358 94.5486 21.2551C94.4478 21.2745 94.3441 21.2738 94.2436 21.2531L91.5848 20.7063C91.4014 20.6684 91.2377 20.5662 91.1233 20.4181Z" fill="black"/>
<path d="M90.6854 19.224C90.6262 19.134 90.6265 19.0057 90.6428 18.9274C90.644 18.9211 90.6456 18.9145 90.6473 18.9079C90.6613 18.8577 90.6859 18.8112 90.7195 18.7715C90.7531 18.7317 90.7949 18.6997 90.842 18.6776C90.842 18.6776 91.6966 18.144 92.106 18.0858C92.1481 18.0797 92.1909 18.0797 92.233 18.0858L94.4502 18.389L92.214 17.9293C92.054 17.8962 91.8874 17.9217 91.7446 18.0009L90.7736 18.5392C90.6724 18.5937 90.5912 18.679 90.5419 18.7829C90.501 18.8705 90.4851 18.9677 90.4958 19.0638C90.5065 19.1599 90.5435 19.2512 90.6026 19.3277L91.3238 20.2628C91.3743 20.3278 91.4393 20.38 91.5136 20.4153L90.6854 19.224Z" fill="white"/>
<path d="M87.8711 16.9703L88.5926 17.9054C88.6613 17.9946 88.71 18.0975 88.7353 18.2072C88.7605 18.3169 88.7618 18.4308 88.739 18.5411C88.7162 18.6513 88.6699 18.7554 88.6031 18.846C88.5364 18.9367 88.4509 19.0119 88.3524 19.0665L87.3222 19.6372C87.159 19.7277 86.9688 19.7567 86.786 19.719L84.1262 19.1719C83.9232 19.1301 83.7451 19.0093 83.631 18.8362C83.517 18.6631 83.4764 18.4518 83.5181 18.2487L83.8279 16.7433C83.8485 16.6428 83.8888 16.5473 83.9464 16.4623C84.0039 16.3774 84.0777 16.3046 84.1634 16.2481C84.2491 16.1916 84.3451 16.1526 84.4459 16.1332C84.5467 16.1139 84.6503 16.1146 84.7508 16.1352L87.4099 16.6821C87.5931 16.7199 87.7568 16.8222 87.8711 16.9703Z" fill="black"/>
<path d="M84.2299 16.8063C84.2604 16.6587 84.4423 16.5387 84.59 16.569C84.59 16.569 87.4582 17.0035 87.6958 17.159L87.6704 17.1255C87.5932 17.0255 87.4828 16.9565 87.3591 16.9311L84.7003 16.384C84.5632 16.356 84.4207 16.3835 84.3039 16.4604C84.1871 16.5373 84.1055 16.6574 84.0772 16.7944L83.7674 18.3C83.7646 18.314 83.7628 18.3282 83.761 18.3422L84.2299 16.8063Z" fill="white"/>
<path d="M88.9293 19.8181L88.0879 20.5518C87.9964 20.6336 87.934 20.7429 87.91 20.8633L87.3664 23.5061C87.308 23.7892 87.4653 24.0616 87.7166 24.1132L88.3229 24.2639L87.5979 24.1147C87.5301 24.1008 87.4657 24.0736 87.4084 24.0347C87.3511 23.9959 87.3019 23.9461 87.2639 23.8883C87.2258 23.8304 87.1995 23.7656 87.1864 23.6976C87.1734 23.6296 87.1738 23.5597 87.1878 23.4919L87.7349 20.8321C87.7603 20.7087 87.829 20.5984 87.9285 20.5213L88.8594 19.8001C88.9538 19.727 89.0703 19.6882 89.1897 19.6898C89.1628 19.6951 88.9847 19.7699 88.9293 19.8181Z" fill="white"/>
<path d="M68.6147 28.9526C68.6236 29.7068 68.4601 30.4531 68.1367 31.1345C68.1161 31.1777 68.0976 31.2219 68.0745 31.2638L68.0069 31.3909C67.9632 31.4765 67.9126 31.5578 67.8633 31.6407C67.814 31.7235 67.7588 31.8025 67.7052 31.8828L67.6643 31.9428L67.6209 32.0007L67.5337 32.1169C67.2953 32.4257 67.0231 32.707 66.7223 32.9554C66.1104 33.4619 65.3939 33.8264 64.6243 34.0227C63.8457 34.221 63.0322 34.2396 62.2453 34.0771C62.1477 34.0545 62.0501 34.0326 61.9531 34.0083C61.857 33.98 61.7604 33.9539 61.6649 33.9236L61.5233 33.8728L61.4524 33.8474C61.4288 33.8393 61.4052 33.8306 61.3823 33.822L61.2433 33.7648C61.1973 33.7452 61.1503 33.728 61.1056 33.7053C60.7417 33.539 60.3977 33.3321 60.0802 33.0886C59.4502 32.6049 58.9353 31.9874 58.5726 31.2808C58.3947 30.933 58.2558 30.5665 58.1583 30.1881C58.1357 30.0938 58.1101 30.0008 58.0933 29.9056C58.0765 29.8103 58.0544 29.7165 58.0425 29.6204L58.0229 29.4776C58.0165 29.4301 58.0137 29.3818 58.0092 29.3343L57.9967 29.191C57.9939 29.1432 57.9924 29.0954 57.9911 29.0477C57.9657 28.2835 58.1103 27.5252 58.4145 26.8541C58.4031 26.9456 58.3937 27.0368 58.3853 27.1278L58.3743 27.264C58.3713 27.3092 58.37 27.355 58.3677 27.4002L58.3606 27.5354C58.3583 27.5804 58.3606 27.6256 58.3591 27.6706C58.3576 27.7156 58.3591 27.7606 58.3578 27.805C58.3566 27.8495 58.3604 27.8947 58.3616 27.9395C58.3722 28.2924 58.4142 28.6437 58.4872 28.9892L58.5141 29.1163L58.5464 29.2433C58.5576 29.2853 58.567 29.3277 58.5794 29.3704L58.6178 29.4944L58.6366 29.5564L58.646 29.5874L58.6567 29.6179L58.6991 29.7399C58.7245 29.8217 58.7603 29.9005 58.7919 29.98C58.9219 30.2944 59.0804 30.5963 59.2653 30.8819C59.6303 31.4426 60.1003 31.9275 60.6492 32.31C61.1909 32.686 61.8032 32.9485 62.4491 33.0815C63.0949 33.2146 63.7611 33.2155 64.4073 33.0843C65.0628 32.9494 65.6861 32.6893 66.243 32.3181C66.5261 32.1292 66.7911 31.9145 67.0346 31.6767C67.1574 31.5571 67.2742 31.4305 67.3863 31.2991C67.4417 31.2328 67.4991 31.1675 67.5502 31.0974L67.6295 30.9937C67.643 30.9766 67.6549 30.9586 67.6674 30.9406L67.705 30.8872C67.9082 30.5985 68.0855 30.2924 68.2346 29.9724L68.2912 29.8504C68.308 29.809 68.325 29.7678 68.342 29.7264L68.3944 29.6014L68.4409 29.4743L68.4887 29.3473L68.5321 29.2177C68.5608 29.1296 68.5883 29.0412 68.6147 28.9526Z" fill="black"/>
<path d="M84.8337 32.2894C84.8427 33.0436 84.6792 33.7899 84.3557 34.4712C84.3353 34.5144 84.3165 34.5587 84.2934 34.6006L84.2258 34.7277C84.1824 34.8133 84.1315 34.8946 84.0822 34.9774C84.033 35.0603 83.9781 35.1393 83.9242 35.2196L83.8835 35.2796L83.8401 35.3375L83.7527 35.4537C83.5143 35.7625 83.2421 36.0438 82.9413 36.2922C82.3294 36.7987 81.6129 37.1632 80.8433 37.3595C80.0647 37.5578 79.2511 37.5764 78.4643 37.4139C78.3667 37.3913 78.2691 37.3694 78.172 37.345C78.076 37.3168 77.9794 37.2907 77.8841 37.2604L77.7423 37.2096L77.6714 37.1842C77.6478 37.1761 77.6244 37.1674 77.6013 37.1575L77.4623 37.1003C77.4163 37.0808 77.3693 37.0635 77.3245 37.0409C76.9606 36.8745 76.6167 36.6676 76.2992 36.4241C75.6692 35.9404 75.1543 35.323 74.7915 34.6163C74.6137 34.2689 74.4748 33.9029 74.3773 33.5249C74.3547 33.4306 74.329 33.3376 74.3123 33.2423C74.2955 33.147 74.2734 33.0533 74.2614 32.9572L74.2421 32.8144C74.2358 32.7669 74.233 32.7186 74.2281 32.6711L74.2157 32.5278C74.2129 32.48 74.2114 32.4322 74.2101 32.3844C74.1847 31.6203 74.3293 30.862 74.6335 30.1909C74.6223 30.2824 74.6125 30.3735 74.6042 30.4643L74.5933 30.6005C74.5903 30.646 74.589 30.6915 74.5867 30.7368L74.5798 30.8722C74.5773 30.9172 74.5798 30.9624 74.5781 31.0074C74.5763 31.0524 74.5781 31.0973 74.5781 31.1418C74.5781 31.1863 74.5806 31.2315 74.5816 31.2762C74.5923 31.6292 74.6343 31.9805 74.7072 32.326L74.7341 32.4531L74.7664 32.5801C74.7775 32.622 74.7869 32.6642 74.7996 32.7072L74.8378 32.8312L74.8568 32.8932L74.866 32.9242L74.8766 32.9547L74.9193 33.0767C74.9448 33.1585 74.9806 33.2373 75.0118 33.3168C75.142 33.6312 75.3006 33.933 75.4855 34.2187C75.8504 34.7795 76.3204 35.2644 76.8694 35.6468C77.4111 36.0227 78.0234 36.2851 78.6692 36.4182C79.315 36.5512 79.9811 36.5521 80.6273 36.4208C81.2828 36.2861 81.9062 36.0259 82.463 35.6547C82.7462 35.4658 83.0112 35.2511 83.2546 35.0133C83.3773 34.8936 83.4942 34.767 83.6063 34.6354C83.6617 34.5693 83.7194 34.504 83.7704 34.4339L83.8495 34.3302C83.8629 34.3132 83.8749 34.2951 83.8876 34.2771L83.9252 34.2237C84.1283 33.935 84.3054 33.6289 84.4545 33.3089L84.5112 33.1869C84.528 33.1455 84.5453 33.1044 84.562 33.0627L84.6128 32.9379L84.6593 32.8109L84.7071 32.6838L84.7506 32.5542C84.7802 32.4661 84.8079 32.3778 84.8337 32.2894Z" fill="black"/>
<path d="M79.0561 15.546L80.2736 12.0036C80.2809 11.982 80.2878 11.9604 80.2946 11.9388C80.0709 11.9329 79.8481 11.9074 79.6289 11.8625L75.3902 10.9986L71.1518 10.1346C70.726 10.0475 70.3182 9.88835 69.946 9.66394C69.9364 9.73306 69.9285 9.80294 69.9232 9.87384L69.6436 13.6093C69.5846 14.3973 69.8146 15.1797 70.2907 15.8103C70.7667 16.441 71.4561 16.8766 72.23 17.0358L75.3277 17.6732C76.1015 17.8323 76.9068 17.7041 77.593 17.3126C78.2792 16.9211 78.7993 16.2931 79.0561 15.546Z" fill="black" stroke="black" stroke-width="0.8" stroke-linejoin="round"/>
<path d="M26.0381 48.5449C29.4032 47.6978 31.4221 44.1947 30.5475 40.7205C29.6729 37.2463 26.236 35.1167 22.871 35.9638C19.5059 36.8109 17.487 40.314 18.3616 43.7882C19.2362 47.2624 22.6731 49.392 26.0381 48.5449Z" fill="black"/>
<path d="M42.4757 44.6384C45.8985 43.7767 47.9521 40.2134 47.0625 36.6795C46.1729 33.1455 42.6769 30.9793 39.2541 31.8409C35.8312 32.7026 33.7776 36.2659 34.6672 39.7999C35.5568 43.3338 39.0528 45.5001 42.4757 44.6384Z" fill="black"/>
<path d="M60.2403 28.9946C57.8262 23.68 53.6198 17.8305 49.6455 12.5306L49.6371 12.5195C49.6206 12.4974 49.604 12.4755 49.5863 12.4539C48.908 11.581 47.8491 11.0751 46.7272 11.0563L40.048 10.9432C38.2819 10.948 36.6492 11.8956 35.785 13.4172L33.8336 16.8539C33.581 17.2958 33.2415 17.682 32.8357 17.9893C32.4299 18.2966 31.9662 18.5187 31.4724 18.6421L27.358 19.6774L23.2438 20.7127C22.7504 20.8378 22.2368 20.8618 21.7339 20.7832C21.2309 20.7046 20.7491 20.525 20.3174 20.2553L16.9705 18.1517C15.4885 17.2206 13.6017 17.1586 12.0437 17.9903C12.0437 17.9903 6.94254 20.5274 5.49078 21.675C4.8841 22.2481 4.48536 23.0067 4.35742 23.8314L4.35513 23.8474C4.131 25.3307 2.51635 38.7371 2.78876 43.2172C2.7941 43.2919 2.7974 43.3696 2.80274 43.4441C2.80207 43.4492 2.80259 43.4544 2.80426 43.4593C2.8683 44.4296 3.12826 46.3321 3.13614 46.3725C3.86571 50.72 5.63664 53.9599 9.1503 55.0379C10.5718 55.4765 12.1209 54.9993 13.0611 53.8524C14.748 51.7844 18.4121 45.1975 18.4616 45.1045C18.8885 44.2291 19.2331 43.6004 19.8173 43.0919C21.0256 44.796 23.2263 45.6694 25.4079 45.12C27.8037 44.5162 29.4046 42.3976 29.4133 40.0801L35.2071 38.6222C36.3115 40.6603 38.7266 41.768 41.1199 41.1657C43.2509 40.6295 44.7553 38.8906 45.065 36.8795C45.8223 37.0427 46.5351 37.3608 47.2344 37.8635C50.4685 39.995 53.5975 41.9626 56.133 43.0131C57.5022 43.5788 59.0948 43.2652 60.1371 42.2068C63.2719 39.0354 62.643 34.2784 60.2403 28.9946Z" fill="black"/>
<path d="M61.9419 31.4109C59.3059 25.4392 54.7669 18.8426 50.4812 12.863C50.4784 12.8587 50.4754 12.8546 50.4723 12.8503C50.4546 12.8249 50.4368 12.7995 50.4185 12.7764C50.0647 12.2968 49.6072 11.9034 49.0801 11.6253C48.553 11.3473 47.97 11.1919 47.3744 11.1706L40.3123 10.9386C38.4455 10.9162 36.7346 11.9482 35.8449 13.6322L33.8356 17.4386C33.316 18.4231 32.4227 19.1321 31.3679 19.3976L27.0352 20.4885L22.7033 21.5805C21.6485 21.846 20.5261 21.6442 19.6031 21.0232L16.032 18.622C14.4509 17.5588 12.4553 17.46 10.8226 18.3636C10.8226 18.3636 5.47044 21.1157 3.95413 22.3733C3.31395 23.0198 2.90487 23.8594 2.79028 24.762L2.78774 24.78C2.57428 26.4318 1.07957 41.3738 1.43864 46.3799C1.44525 46.4635 1.45008 46.5499 1.45694 46.634C1.45622 46.6397 1.45683 46.6456 1.45872 46.651C1.54181 47.7351 1.84675 49.8633 1.85564 49.9088C2.69423 54.7736 4.61865 58.4189 8.34983 59.677C9.85953 60.1888 12.6858 59.8249 14.474 57.6215C16.3291 55.3344 20.8523 47.6868 20.9032 47.5839C21.3407 46.6132 23.1788 48.4166 25.4772 47.838C27.9976 47.2027 29.5619 45.8869 29.5337 43.299L35.6304 41.7634C36.8301 44.056 39.4005 45.3309 41.9208 44.6964C44.1649 44.1315 45.7277 42.2139 46.0233 39.9734C46.8265 40.1675 47.5848 40.5342 48.3322 41.1062C51.7843 43.5371 55.1232 45.7835 57.8199 46.9961C59.2762 47.6495 60.9546 47.3247 62.04 46.1593C65.3051 42.669 64.5641 37.3481 61.9419 31.4109Z" fill="black"/>
<path d="M61.8763 30.7098C59.386 25.1797 55.066 19.0853 50.9834 13.5633L50.975 13.5516C50.958 13.5285 50.941 13.5059 50.9242 13.4833C50.2277 12.5735 49.1454 12.0432 47.9991 12.018L41.1806 11.8694C40.2954 11.8679 39.426 12.1035 38.6627 12.5518C37.8994 13.0001 37.2702 13.6446 36.8403 14.4184L34.8636 17.9786C34.6106 18.4341 34.2669 18.8328 33.8538 19.1503C33.4407 19.4677 32.9669 19.6971 32.4617 19.8242L28.2667 20.8801L24.0712 21.9362C23.566 22.0634 23.04 22.0856 22.5258 22.0015C22.0115 21.9174 21.52 21.7288 21.0816 21.4473L17.6551 19.2471C16.9102 18.769 16.0508 18.499 15.1663 18.4654C14.2818 18.4318 13.4044 18.6358 12.6254 19.056C12.6254 19.056 7.42996 21.6668 5.95354 22.851C5.33419 23.448 4.93062 24.2338 4.80621 25.0849L4.80367 25.1017C4.58183 26.6409 2.99665 40.555 3.296 45.2089C3.30159 45.2864 3.30565 45.367 3.31124 45.4445C3.31072 45.4498 3.31123 45.4551 3.31277 45.4602C3.38291 46.468 3.6571 48.4451 3.66548 48.4873C4.43088 53.0049 6.25467 56.3778 9.84584 57.5124C11.2989 57.9744 12.8779 57.487 13.8327 56.2998C15.5446 54.1599 19.254 47.3371 19.3043 47.2408C19.7363 46.3339 20.0847 45.6826 20.6785 45.1571C21.9202 46.9323 24.1706 47.8494 26.3962 47.2893C28.8357 46.6751 30.462 44.4826 30.4597 42.0754L36.3664 40.5888C37.5036 42.7104 39.9748 43.872 42.4144 43.257C43.4458 42.9975 44.3771 42.4379 45.0904 41.6489C45.8037 40.8599 46.267 39.8771 46.4215 38.8247C47.1953 38.9975 47.9244 39.3314 48.6407 39.8565C51.9521 42.0853 55.1555 44.1434 57.7487 45.246C59.1489 45.8399 60.7727 45.522 61.8324 44.4275C65.018 41.1512 64.353 36.2084 61.8763 30.7098Z" fill="#6D068E" stroke="black" stroke-width="0.8" stroke-linejoin="round"/>
<path d="M61.8763 30.7098C59.386 25.1797 55.066 19.0853 50.9834 13.5633L50.975 13.5516C50.958 13.5285 50.941 13.5059 50.9242 13.4833C50.2277 12.5735 49.1454 12.0432 47.9991 12.018L41.1806 11.8694C40.2954 11.8679 39.426 12.1035 38.6627 12.5518C37.8994 13.0001 37.2702 13.6446 36.8403 14.4184L34.8636 17.9786C34.6106 18.4341 34.2669 18.8328 33.8538 19.1503C33.4407 19.4677 32.9669 19.6971 32.4617 19.8242L28.2667 20.8801L24.0712 21.9362C23.566 22.0634 23.04 22.0856 22.5258 22.0015C22.0115 21.9174 21.52 21.7288 21.0816 21.4473L17.6551 19.2471C16.9102 18.769 16.0508 18.499 15.1663 18.4654C14.2818 18.4318 13.4044 18.6358 12.6254 19.056C12.6254 19.056 7.42996 21.6668 5.95354 22.851C5.33419 23.448 4.93062 24.2338 4.80621 25.0849L4.80367 25.1017C4.58183 26.6409 2.99665 40.555 3.296 45.2089C3.30159 45.2864 3.30565 45.367 3.31124 45.4445C3.31072 45.4498 3.31123 45.4551 3.31277 45.4602C3.38291 46.468 3.6571 48.4451 3.66548 48.4873C4.43088 53.0049 6.25467 56.3778 9.84584 57.5124C11.2989 57.9744 12.8779 57.487 13.8327 56.2998C15.5446 54.1599 19.254 47.3371 19.3043 47.2408C19.7363 46.3339 20.0847 45.6826 20.6785 45.1571C21.9202 46.9323 24.1706 47.8494 26.3962 47.2893C28.8357 46.6751 30.462 44.4826 30.4597 42.0754L36.3664 40.5888C37.5036 42.7104 39.9748 43.872 42.4144 43.257C43.4458 42.9975 44.3771 42.4379 45.0904 41.6489C45.8037 40.8599 46.267 39.8771 46.4215 38.8247C47.1953 38.9975 47.9244 39.3314 48.6407 39.8565C51.9521 42.0853 55.1555 44.1434 57.7487 45.246C59.1489 45.8399 60.7727 45.522 61.8324 44.4275C65.018 41.1512 64.353 36.2084 61.8763 30.7098Z" fill="url(#paint2_linear_1097_867)" stroke="black" stroke-width="0.8" stroke-linejoin="round"/>
<g style="mix-blend-mode:multiply" opacity="0.29">
<path d="M41.7272 42.0159C40.6733 42.2753 39.5596 42.1066 38.6298 41.5468C37.7 40.987 37.0298 40.0816 36.7659 39.0289C36.5019 37.9762 36.6657 36.8617 37.2215 35.9295C37.7772 34.9972 38.6795 34.323 39.7311 34.0545L39.7382 34.0527C40.7921 33.7934 41.9058 33.9621 42.8356 34.5219C43.7654 35.0817 44.4356 35.987 44.6996 37.0398C44.9635 38.0925 44.7997 39.2069 44.244 40.1392C43.6883 41.0714 42.7859 41.7456 41.7343 42.0142L41.7272 42.0159Z" fill="#333333"/>
</g>
<g style="mix-blend-mode:multiply" opacity="0.29">
<path d="M25.7093 46.0473C24.6545 46.3108 23.5383 46.145 22.6057 45.5862C21.673 45.0275 21.0002 44.1216 20.735 43.0672C20.1825 40.8727 21.5187 38.638 23.7132 38.0866L23.7203 38.0848C24.7751 37.8213 25.8913 37.9872 26.8239 38.5459C27.7565 39.1046 28.4293 40.0105 28.6946 41.0648C29.2468 43.2593 27.9109 45.494 25.7164 46.0455L25.7093 46.0473Z" fill="#333333"/>
<path d="M23.4659 45.1296C22.8997 44.7898 22.4469 44.2898 22.1645 43.6928C21.8822 43.0958 21.783 42.4286 21.8794 41.7753C21.9759 41.122 22.2636 40.5119 22.7065 40.022C23.1493 39.532 23.7273 39.1843 24.3675 39.0225L24.3734 39.021C24.9881 38.8657 25.6345 38.8898 26.236 39.0903C25.5175 38.7205 24.6886 38.6256 23.905 38.8235L23.8992 38.825C23.2582 38.9861 22.6793 39.3337 22.2359 39.8237C21.7924 40.3138 21.5041 40.9243 21.4076 41.5782C21.3111 42.232 21.4107 42.8998 21.6937 43.4971C21.9767 44.0944 22.4305 44.5943 22.9976 44.9337C23.2073 45.0591 23.43 45.1614 23.6618 45.2387C23.5958 45.2044 23.5302 45.1683 23.4659 45.1296Z" fill="#333333"/>
</g>
<path d="M41.9739 41.5351C40.92 41.7944 39.8064 41.6257 38.8765 41.0659C37.9467 40.5061 37.2765 39.6008 37.0126 38.5481C36.7487 37.4953 36.9125 36.3809 37.4682 35.4486C38.0239 34.5164 38.9263 33.8422 39.9779 33.5737L39.985 33.5719C41.0389 33.3126 42.1526 33.4813 43.0824 34.0411C44.0122 34.6009 44.6824 35.5062 44.9463 36.5589C45.2103 37.6117 45.0464 38.7261 44.4907 39.6584C43.935 40.5906 43.0326 41.2648 41.9811 41.5333L41.9739 41.5351Z" fill="black"/>
<path d="M25.9558 45.5667C24.901 45.8302 23.7848 45.6643 22.8522 45.1056C21.9196 44.5469 21.2468 43.641 20.9815 42.5867C20.4293 40.3922 21.7651 38.1575 23.9597 37.606L23.9671 37.6043C25.0218 37.3408 26.138 37.5067 27.0706 38.0654C28.0032 38.6241 28.676 39.53 28.9414 40.5843C29.4936 42.7788 28.1574 45.0135 25.9631 45.5649L25.9558 45.5667Z" fill="black"/>
<path d="M23.7124 44.6491C23.1463 44.3092 22.6934 43.8092 22.4111 43.2122C22.1288 42.6152 22.0296 41.9479 22.126 41.2946C22.2225 40.6413 22.5102 40.0312 22.953 39.5413C23.3958 39.0513 23.9738 38.7035 24.614 38.5417L24.6199 38.5401C25.2347 38.385 25.8811 38.4091 26.4825 38.6098C25.764 38.2397 24.9351 38.1448 24.1515 38.343L24.1454 38.3445C23.5051 38.506 22.9269 38.8537 22.484 39.3435C22.0411 39.8334 21.7532 40.4435 21.6568 41.0969C21.5603 41.7502 21.6596 42.4175 21.9421 43.0144C22.2247 43.6114 22.6777 44.1112 23.2441 44.4509C23.4538 44.5763 23.6766 44.6785 23.9084 44.7558C23.8423 44.723 23.777 44.6874 23.7124 44.6491Z" fill="white"/>
<g style="mix-blend-mode:multiply" opacity="0.29">
<path d="M11.8612 24.9455H11.8579C11.3905 25.074 10.9919 25.3803 10.7475 25.7989C10.5031 26.2175 10.4323 26.7152 10.5502 27.1854C10.6681 27.6556 10.9654 28.0609 11.3784 28.3147C11.7914 28.5685 12.2873 28.6505 12.76 28.5433H12.7633C13.2282 28.4126 13.6237 28.1058 13.866 27.6881C14.1082 27.2704 14.178 26.7747 14.0606 26.3063C13.9432 25.838 13.6478 25.4339 13.2371 25.1798C12.8265 24.9258 12.333 24.8419 11.8615 24.946L11.8612 24.9455Z" fill="#333333"/>
<path d="M13.7211 32.3903H13.7178C13.2457 32.5146 12.8417 32.82 12.5934 33.2402C12.345 33.6605 12.2722 34.1616 12.3909 34.6351C12.5096 35.1086 12.8101 35.5163 13.2273 35.7697C13.6445 36.0231 14.1448 36.1018 14.6196 35.9888H14.6229C15.0868 35.8573 15.4812 35.5503 15.7226 35.133C15.964 34.7156 16.0334 34.2207 15.9162 33.753C15.7989 33.2854 15.5042 32.8817 15.0944 32.6276C14.6847 32.3736 14.1921 32.289 13.7211 32.3918V32.3903Z" fill="#333333"/>
<path d="M9.07178 29.5968C8.59476 29.7157 8.18438 30.019 7.93062 30.44C7.67685 30.8611 7.60043 31.3656 7.71811 31.8429V31.8462C7.84886 32.3103 8.15516 32.7052 8.5721 32.9473C8.98904 33.1895 9.48386 33.2597 9.95172 33.1433C10.4196 33.0268 10.8237 32.7328 11.0785 32.3234C11.3333 31.9141 11.4187 31.4217 11.3166 30.9505V30.9472C11.1974 30.4707 10.8941 30.061 10.4732 29.8079C10.0524 29.5547 9.54828 29.4788 9.07153 29.5968H9.07178Z" fill="#333333"/>
<path d="M17.9186 27.9479C17.6044 27.7593 17.2413 27.668 16.8753 27.6855C16.5093 27.703 16.1566 27.8285 15.8618 28.0462C15.567 28.2639 15.3434 28.5641 15.219 28.9088C15.0946 29.2535 15.0751 29.6273 15.1629 29.9831V29.9864C15.2928 30.4514 15.599 30.8475 16.0162 31.0905C16.4335 31.3334 16.9291 31.4041 17.3977 31.2875C17.8662 31.1708 18.2709 30.8761 18.5256 30.4659C18.7803 30.0557 18.865 29.5623 18.7617 29.0906V29.0873C18.7034 28.8511 18.5988 28.6289 18.4541 28.4333C18.3094 28.2377 18.1274 28.0727 17.9186 27.9479Z" fill="#333333"/>
</g>
<path d="M12.9941 28.0134C12.5225 28.1175 12.029 28.0336 11.6184 27.7796C11.2078 27.5256 10.9123 27.1214 10.7949 26.6531C10.6775 26.1847 10.7473 25.689 10.9896 25.2713C11.2318 24.8536 11.6274 24.5468 12.0922 24.4162H12.0955C12.567 24.3121 13.0605 24.396 13.4712 24.65C13.8818 24.904 14.1772 25.3081 14.2946 25.7765C14.4121 26.2449 14.3422 26.7406 14.1 27.1583C13.8578 27.5759 13.4622 27.8827 12.9974 28.0134H12.9941Z" fill="black"/>
<path d="M11.9806 27.5989C11.7247 27.4455 11.52 27.2196 11.3923 26.9499C11.2646 26.6802 11.2196 26.3787 11.2631 26.0835C11.3066 25.7883 11.4366 25.5126 11.6367 25.2912C11.8367 25.0698 12.0979 24.9126 12.3872 24.8395H12.3898C12.6676 24.7694 12.9596 24.7802 13.2314 24.8707C12.9067 24.7036 12.5321 24.6608 12.1781 24.7503H12.1756C11.8861 24.8232 11.6247 24.9803 11.4245 25.2017C11.2242 25.4231 11.0942 25.6989 11.0506 25.9942C11.0071 26.2895 11.0521 26.5911 11.18 26.8609C11.3079 27.1306 11.5128 27.3564 11.769 27.5097C11.8637 27.5665 11.9643 27.6128 12.0691 27.6477C12.0384 27.6325 12.0089 27.6162 11.9806 27.5989Z" fill="white"/>
<path d="M14.854 35.4582C14.3824 35.5623 13.8889 35.4784 13.4783 35.2244C13.0676 34.9704 12.7722 34.5663 12.6548 34.0979C12.5374 33.6295 12.6072 33.1338 12.8495 32.7161C13.0917 32.2984 13.4873 31.9917 13.9521 31.861H13.9554C14.4269 31.7569 14.9204 31.8408 15.3311 32.0948C15.7417 32.3488 16.0371 32.753 16.1545 33.2213C16.272 33.6897 16.2021 34.1854 15.9599 34.6031C15.7176 35.0208 15.3221 35.3276 14.8573 35.4582H14.854Z" fill="black"/>
<path d="M13.8403 35.0436C13.5845 34.89 13.3798 34.6642 13.2522 34.3945C13.1246 34.1248 13.0797 33.8234 13.1232 33.5282C13.1667 33.2331 13.2966 32.9574 13.4966 32.736C13.6966 32.5146 13.9576 32.3573 14.2469 32.2841H14.2497C14.5274 32.2139 14.8195 32.2248 15.0913 32.3154C14.7666 32.1483 14.392 32.1055 14.038 32.1949H14.0354C13.746 32.2678 13.4846 32.4249 13.2844 32.6463C13.0841 32.8677 12.9541 33.1435 12.9105 33.4389C12.867 33.7342 12.912 34.0358 13.0399 34.3055C13.1678 34.5753 13.3727 34.8011 13.6289 34.9544C13.7235 35.0111 13.8241 35.0574 13.9287 35.0924C13.899 35.0774 13.8695 35.0611 13.8403 35.0436Z" fill="white"/>
<path d="M11.5512 30.4171C11.4215 29.9518 11.1154 29.5554 10.698 29.3123C10.2806 29.0691 9.78485 28.9984 9.31611 29.1151C8.84737 29.2318 8.44264 29.5267 8.18798 29.9372C7.93332 30.3477 7.84881 30.8413 7.95243 31.3131V31.3164C8.08318 31.7805 8.38948 32.1754 8.80642 32.4175C9.22336 32.6596 9.71818 32.7299 10.186 32.6134C10.6539 32.497 11.058 32.2029 11.3128 31.7936C11.5676 31.3843 11.653 30.8918 11.551 30.4206L11.5512 30.4171Z" fill="black"/>
<path d="M10.7088 29.7177C10.453 29.5642 10.1574 29.4898 9.85932 29.504C9.56127 29.5183 9.27411 29.6205 9.03407 29.7977C8.79404 29.975 8.61189 30.2194 8.51061 30.5001C8.40932 30.7807 8.39343 31.0851 8.46496 31.3748V31.3776C8.53366 31.6557 8.68058 31.9082 8.88831 32.1054C8.58841 31.8975 8.37479 31.5871 8.28758 31.2328V31.23C8.21567 30.9402 8.23129 30.6356 8.33246 30.3547C8.43363 30.0739 8.61581 29.8293 8.85597 29.6519C9.09614 29.4745 9.38349 29.3724 9.68172 29.3583C9.97994 29.3442 10.2756 29.4189 10.5314 29.5729C10.626 29.6298 10.7142 29.6968 10.7944 29.7726C10.766 29.7536 10.7378 29.735 10.7088 29.7177Z" fill="white"/>
<path d="M18.996 28.5575C18.8661 28.0924 18.56 27.6964 18.1427 27.4534C17.7254 27.2105 17.2299 27.1398 16.7613 27.2564C16.2927 27.373 15.8881 27.6678 15.6334 28.078C15.3787 28.4882 15.294 28.9816 15.3972 29.4533V29.4566C15.528 29.9206 15.8343 30.3156 16.2512 30.5577C16.6682 30.7998 17.163 30.8701 17.6309 30.7536C18.0987 30.6371 18.5029 30.3431 18.7576 29.9338C19.0124 29.5244 19.0978 29.032 18.9958 28.5608L18.996 28.5575Z" fill="black"/>
<path d="M18.1536 27.8571C17.8978 27.7036 17.6022 27.6293 17.3041 27.6436C17.0061 27.6579 16.719 27.7602 16.479 27.9374C16.239 28.1147 16.0569 28.3591 15.9556 28.6397C15.8543 28.9204 15.8383 29.2247 15.9098 29.5144V29.517C15.9785 29.7951 16.1254 30.0478 16.3332 30.245C16.033 30.037 15.8192 29.7266 15.7317 29.3721V29.3696C15.6599 29.0799 15.6755 28.7754 15.7767 28.4945C15.8779 28.2137 16.06 27.9692 16.3001 27.7918C16.5402 27.6145 16.8275 27.5123 17.1256 27.4981C17.4238 27.4839 17.7194 27.5585 17.9752 27.7122C18.07 27.7691 18.1583 27.8362 18.2385 27.9122C18.2108 27.8937 18.1826 27.8754 18.1536 27.8571Z" fill="white"/>
<path d="M39.7306 40.6175C39.1639 40.278 38.7105 39.7782 38.4278 39.1811C38.145 38.584 38.0456 37.9165 38.1421 37.2629C38.2386 36.6093 38.5266 35.999 38.9699 35.5091C39.4131 35.0192 39.9916 34.6716 40.6322 34.5104L40.6381 34.5089C41.2529 34.3536 41.8992 34.3777 42.5008 34.5782C41.7822 34.2083 40.9533 34.1135 40.1697 34.3117L40.1639 34.3129C39.5232 34.4742 38.9448 34.8218 38.5016 35.3118C38.0584 35.8017 37.7703 36.412 37.6739 37.0656C37.5774 37.7192 37.6768 38.3867 37.9595 38.9838C38.2422 39.5809 38.6956 40.0808 39.2623 40.4204C39.472 40.5458 39.6947 40.6481 39.9266 40.7253C39.8603 40.6921 39.795 40.6562 39.7306 40.6175Z" fill="white"/>
<g style="mix-blend-mode:multiply" opacity="0.29">
<path d="M27.5845 32.0943L25.203 32.6894C24.8803 32.77 24.6841 33.097 24.7647 33.4197L24.9039 33.9768C24.9846 34.2995 25.3115 34.4958 25.6342 34.4151L28.0157 33.82C28.3384 33.7394 28.5347 33.4124 28.454 33.0897L28.3148 32.5326C28.2342 32.2099 27.9072 32.0136 27.5845 32.0943Z" fill="#333333"/>
<path d="M36.1148 29.9625L33.7333 30.5576C33.4106 30.6382 33.2144 30.9652 33.295 31.2879L33.4342 31.8451C33.5149 32.1678 33.8418 32.364 34.1645 32.2834L36.546 31.6882C36.8687 31.6076 37.065 31.2807 36.9843 30.958L36.8451 30.4008C36.7645 30.0781 36.4375 29.8819 36.1148 29.9625Z" fill="#333333"/>
</g>
<path d="M27.7449 31.6874L25.3633 32.2825C25.0406 32.3631 24.8444 32.6901 24.9251 33.0128L25.0643 33.5699C25.1449 33.8926 25.4719 34.0888 25.7946 34.0082L28.1761 33.4131C28.4988 33.3325 28.695 33.0055 28.6144 32.6828L28.4752 32.1256C28.3945 31.8029 28.0676 31.6067 27.7449 31.6874Z" fill="black"/>
<path d="M25.3484 33.5549L25.2214 33.0467C25.2038 32.9765 25.2003 32.9036 25.2109 32.8321C25.2216 32.7606 25.2462 32.6919 25.2834 32.6299C25.3207 32.5679 25.3697 32.5138 25.4278 32.4708C25.4859 32.4278 25.552 32.3966 25.6221 32.3791L27.7996 31.8351C27.8718 31.8169 27.947 31.8137 28.0205 31.8256C27.907 31.7734 27.779 31.7615 27.6578 31.7919L25.4803 32.3359C25.4102 32.3534 25.3441 32.3846 25.286 32.4276C25.2279 32.4706 25.1789 32.5247 25.1416 32.5867C25.1044 32.6487 25.0798 32.7174 25.0691 32.7889C25.0585 32.8604 25.062 32.9333 25.0796 33.0035L25.2066 33.513C25.2328 33.6176 25.2891 33.7123 25.3685 33.7852C25.448 33.8581 25.5471 33.9061 25.6536 33.9231C25.5783 33.8887 25.5117 33.8377 25.4589 33.7739C25.406 33.7102 25.3683 33.6353 25.3484 33.5549Z" fill="white"/>
<path d="M36.2749 29.5558L33.8934 30.1509C33.5707 30.2316 33.3745 30.5585 33.4551 30.8812L33.5943 31.4384C33.675 31.7611 34.0019 31.9573 34.3246 31.8767L36.7062 31.2816C37.0289 31.2009 37.2251 30.874 37.1445 30.5513L37.0052 29.9941C36.9246 29.6714 36.5976 29.4752 36.2749 29.5558Z" fill="black"/>
<path d="M33.8786 31.4239L33.7515 30.9144C33.7162 30.7727 33.7386 30.6227 33.8138 30.4975C33.889 30.3724 34.0108 30.2822 34.1525 30.2468L36.3298 29.7027C36.402 29.6847 36.4771 29.6816 36.5506 29.6933C36.4371 29.6412 36.3092 29.6293 36.188 29.6598L34.0107 30.2036C33.9406 30.2211 33.8745 30.2523 33.8164 30.2954C33.7583 30.3384 33.7092 30.3925 33.672 30.4545C33.6348 30.5165 33.6102 30.5853 33.5995 30.6568C33.5889 30.7283 33.5924 30.8013 33.61 30.8714L33.737 31.3797C33.7632 31.4843 33.8195 31.579 33.899 31.6519C33.9784 31.7249 34.0775 31.7729 34.184 31.7901C34.1089 31.7559 34.0424 31.7052 33.9895 31.6418C33.9366 31.5784 33.8987 31.5039 33.8786 31.4239Z" fill="white"/>
<g style="mix-blend-mode:multiply" opacity="0.29">
<path d="M44.8188 19.7938L44.2882 20.8489C44.2376 20.9495 44.1659 21.0379 44.0779 21.1082C43.9899 21.1785 43.8878 21.2289 43.7786 21.2561C43.6693 21.2833 43.5555 21.2865 43.4448 21.2656C43.3342 21.2447 43.2294 21.2002 43.1376 21.135L42.1773 20.4535C42.0254 20.3453 41.9172 20.1864 41.8723 20.0055L41.2142 17.371C41.1639 17.1699 41.1956 16.9571 41.3022 16.7793C41.4089 16.6016 41.5818 16.4735 41.7829 16.4232L43.2743 16.0507C43.4754 16.0005 43.6882 16.0322 43.8659 16.1389C44.0436 16.2456 44.1716 16.4185 44.2219 16.6196L44.8798 19.2533C44.9249 19.4349 44.9033 19.6268 44.8188 19.7938Z" fill="#333333"/>
<path d="M43.3541 20.9068L42.4829 20.2082C42.3875 20.1302 42.3203 20.0231 42.2913 19.9033L41.6375 17.2859C41.5676 17.0063 41.7137 16.7268 41.962 16.6646L42.5615 16.4887L41.8436 16.6666C41.7079 16.7005 41.5912 16.7869 41.5192 16.9069C41.4471 17.0268 41.4257 17.1705 41.4596 17.3062L42.1178 19.9409C42.1483 20.0631 42.2215 20.1703 42.3241 20.2433L43.2847 20.9248C43.3819 20.9939 43.4998 21.0278 43.6189 21.0211C43.5924 21.0214 43.4115 20.9528 43.3541 20.9068Z" fill="#333333"/>
<path d="M43.1188 24.2182L43.6494 23.1631C43.6999 23.0625 43.7717 22.974 43.8596 22.9037C43.9476 22.8334 44.0497 22.7829 44.1589 22.7558C44.2682 22.7286 44.3821 22.7254 44.4927 22.7463C44.6034 22.7672 44.7082 22.8118 44.8 22.877L45.7603 23.5585C45.9121 23.6667 46.0203 23.8256 46.0652 24.0065L46.7234 26.641C46.7736 26.8421 46.7418 27.0549 46.6351 27.2327C46.5285 27.4104 46.3555 27.5385 46.1544 27.5888L44.6633 27.9614C44.5637 27.9862 44.4602 27.9913 44.3586 27.9761C44.2571 27.961 44.1595 27.926 44.0715 27.8732C43.9835 27.8204 43.9067 27.7507 43.8456 27.6682C43.7845 27.5857 43.7403 27.492 43.7154 27.3924L43.0575 24.7587C43.0126 24.577 43.0343 24.3853 43.1188 24.2182Z" fill="#333333"/>
<path d="M46.1809 22.8561L45.1258 22.3252C45.0251 22.2747 44.9365 22.2029 44.8661 22.1149C44.7957 22.0269 44.7452 21.9247 44.718 21.8153C44.6908 21.706 44.6876 21.592 44.7086 21.4813C44.7296 21.3705 44.7743 21.2657 44.8396 21.1738L45.5212 20.2133C45.6294 20.0615 45.7883 19.9534 45.9692 19.9083L48.6039 19.2502C48.7034 19.2253 48.8069 19.2202 48.9084 19.2353C49.01 19.2504 49.1075 19.2854 49.1955 19.3382C49.2835 19.391 49.3602 19.4606 49.4213 19.5431C49.4824 19.6256 49.5266 19.7193 49.5515 19.8189L49.924 21.31C49.9743 21.5112 49.9426 21.724 49.8359 21.9017C49.7293 22.0795 49.5564 22.2076 49.3553 22.2579L46.7214 22.9158C46.5399 22.9612 46.3481 22.94 46.1809 22.8561Z" fill="#333333"/>
<path d="M45.2691 21.9693C45.1769 21.9139 45.1215 21.798 45.1024 21.7205C45.1007 21.7142 45.0992 21.7076 45.0978 21.7006C45.0888 21.6494 45.091 21.5968 45.1041 21.5465C45.1173 21.4961 45.1411 21.4492 45.1741 21.4089C45.1741 21.4089 45.7136 20.5581 46.0571 20.3282C46.0924 20.305 46.1309 20.287 46.1712 20.2746L48.301 19.5884L46.0874 20.1414C45.9289 20.181 45.7898 20.276 45.6953 20.4092L45.0531 21.3139C44.9856 21.4069 44.9493 21.5191 44.9497 21.6341C44.9509 21.7308 44.9786 21.8252 45.0299 21.9072C45.0812 21.9892 45.154 22.0555 45.2404 22.0988L46.2952 22.6294C46.3689 22.6664 46.4502 22.6855 46.5326 22.6853L45.2691 21.9693Z" fill="#333333"/>
<path d="M41.7567 21.1558L42.8115 21.6867C42.9121 21.7373 43.0006 21.809 43.0709 21.8969C43.1412 21.9849 43.1917 22.087 43.2189 22.1962C43.2461 22.3055 43.2494 22.4194 43.2285 22.53C43.2076 22.6406 43.1631 22.7455 43.0979 22.8373L42.4154 23.7976C42.3072 23.9494 42.1484 24.0576 41.9676 24.1026L39.3329 24.7607C39.1318 24.8109 38.919 24.7792 38.7412 24.6725C38.5635 24.5658 38.4354 24.3929 38.3851 24.1918L38.0126 22.7006C37.9624 22.4995 37.9941 22.2866 38.1008 22.1089C38.2075 21.9311 38.3804 21.803 38.5815 21.7527L41.2152 21.0948C41.3972 21.0498 41.5893 21.0714 41.7567 21.1558Z" fill="#333333"/>
<path d="M38.4031 22.5843C38.3668 22.4382 38.4794 22.2511 38.6252 22.2145C38.6252 22.2145 41.3989 21.3645 41.6802 21.4014L41.6424 21.3823C41.5296 21.3256 41.4002 21.3112 41.2777 21.3417L38.6438 21.9996C38.5082 22.0337 38.3916 22.1201 38.3197 22.24C38.2478 22.3599 38.2263 22.5035 38.2601 22.6392L38.6326 24.1306C38.6359 24.1446 38.6405 24.158 38.6451 24.1715L38.4031 22.5843Z" fill="#333333"/>
<path d="M43.9431 23.265L43.5025 24.2906C43.4553 24.404 43.4464 24.5297 43.4771 24.6486L44.1309 27.266C44.2008 27.5456 44.4613 27.7235 44.7093 27.6617L45.3212 27.5346L44.6033 27.7141C44.4676 27.7479 44.3239 27.7265 44.204 27.6545C44.0841 27.5825 43.9976 27.4658 43.9637 27.3301L43.3048 24.6962C43.2742 24.574 43.2884 24.4449 43.3447 24.3323L43.8717 23.2792C43.9251 23.1725 44.0132 23.0871 44.1215 23.037C44.1004 23.0543 43.9724 23.1974 43.9431 23.265Z" fill="#333333"/>
</g>
<path d="M45.1639 19.4982L44.6333 20.5531C44.5827 20.6537 44.511 20.7422 44.423 20.8125C44.3351 20.8828 44.233 20.9333 44.1237 20.9604C44.0144 20.9876 43.9006 20.9908 43.7899 20.9699C43.6793 20.949 43.5745 20.9044 43.4826 20.8392L42.5223 20.1574C42.3705 20.0492 42.2623 19.8903 42.2174 19.7094L41.5592 17.075C41.5091 16.8738 41.5408 16.661 41.6475 16.4833C41.7542 16.3055 41.9271 16.1774 42.1282 16.1271L43.6194 15.7546C43.8205 15.7044 44.0333 15.7361 44.2111 15.8428C44.3888 15.9495 44.5169 16.1224 44.5672 16.3236L45.2251 18.9572C45.2701 19.1391 45.2484 19.331 45.1639 19.4982Z" fill="black"/>
<path d="M43.6994 20.611L42.828 19.9132C42.7329 19.8354 42.6658 19.7288 42.6367 19.6095L41.9829 16.9921C41.9127 16.7126 42.0591 16.4331 42.3071 16.3708L42.9068 16.1949L42.1887 16.3728C42.053 16.4068 41.9363 16.4932 41.8643 16.6132C41.7923 16.7331 41.7709 16.8767 41.8047 17.0124L42.4629 19.6471C42.4935 19.7693 42.5667 19.8766 42.6695 19.9495L43.6298 20.631C43.727 20.7001 43.8449 20.734 43.9639 20.7274C43.9378 20.7243 43.7566 20.657 43.6994 20.611Z" fill="white"/>
<path d="M43.4638 23.9224L43.9944 22.8673C44.045 22.7667 44.1168 22.6783 44.2047 22.608C44.2927 22.5377 44.3948 22.4872 44.5041 22.4601C44.6133 22.4329 44.7272 22.4296 44.8378 22.4505C44.9484 22.4714 45.0532 22.516 45.1451 22.5812L46.1054 23.2627C46.2572 23.3709 46.3654 23.5298 46.4103 23.7107L47.0685 26.3454C47.0934 26.4449 47.0984 26.5484 47.0833 26.6499C47.0682 26.7514 47.0332 26.849 46.9804 26.937C46.9276 27.025 46.858 27.1017 46.7755 27.1628C46.693 27.2239 46.5993 27.2681 46.4998 27.293L45.0084 27.6655C44.9088 27.6904 44.8053 27.6954 44.7037 27.6803C44.6022 27.6651 44.5047 27.6302 44.4167 27.5773C44.3287 27.5245 44.252 27.4548 44.1909 27.3723C44.1298 27.2898 44.0856 27.1961 44.0608 27.0965L43.4029 24.4629C43.3577 24.2812 43.3794 24.0894 43.4638 23.9224Z" fill="black"/>
<path d="M46.5259 22.5603L45.4711 22.0297C45.3706 21.9791 45.2821 21.9073 45.2119 21.8193C45.1416 21.7314 45.0912 21.6293 45.064 21.52C45.0369 21.4107 45.0336 21.2969 45.0546 21.1863C45.0755 21.0757 45.1201 20.9709 45.1852 20.8791L45.867 19.9185C45.9752 19.7668 46.134 19.6586 46.3148 19.6136L48.9494 18.9554C49.1506 18.9051 49.3634 18.9368 49.5412 19.0435C49.7189 19.1501 49.847 19.323 49.8973 19.5241L50.2698 21.0155C50.32 21.2166 50.2883 21.4294 50.1816 21.6071C50.0749 21.7848 49.902 21.9129 49.7009 21.9631L47.0657 22.6203C46.8844 22.6655 46.6929 22.6442 46.5259 22.5603Z" fill="black"/>
<path d="M45.6144 21.6735C45.5219 21.6181 45.4668 21.5022 45.4475 21.4247C45.4459 21.4183 45.4444 21.4117 45.4431 21.4049C45.434 21.3536 45.4362 21.301 45.4493 21.2507C45.4625 21.2003 45.4864 21.1534 45.5194 21.1132C45.5194 21.1132 46.0589 20.2626 46.4024 20.0324C46.4378 20.0094 46.4762 19.9913 46.5165 19.9788L48.6465 19.2927L46.4327 19.8459C46.2742 19.8854 46.1351 19.9803 46.0406 20.1135L45.3987 21.0181C45.3309 21.1111 45.2946 21.2233 45.295 21.3383C45.2962 21.435 45.324 21.5294 45.3753 21.6114C45.4265 21.6934 45.4993 21.7597 45.5857 21.8031L46.6408 22.3337C46.7144 22.3706 46.7957 22.3898 46.8781 22.3896L45.6144 21.6735Z" fill="white"/>
<path d="M42.1018 20.8603L43.1569 21.3909C43.2575 21.4415 43.3459 21.5132 43.4162 21.6012C43.4865 21.6891 43.5369 21.7912 43.5641 21.9005C43.5913 22.0098 43.5945 22.1236 43.5736 22.2342C43.5527 22.3449 43.5082 22.4497 43.443 22.5415L42.7615 23.5018C42.6533 23.6536 42.4944 23.7618 42.3135 23.8068L39.6788 24.4649C39.4777 24.5151 39.2649 24.4833 39.0872 24.3767C38.9095 24.27 38.7814 24.097 38.7312 23.896L38.3587 22.4048C38.3084 22.2037 38.3401 21.9908 38.4467 21.8131C38.5534 21.6353 38.7263 21.5072 38.9274 21.4569L41.5613 20.799C41.743 20.7541 41.9347 20.7759 42.1018 20.8603Z" fill="black"/>
<path d="M38.7485 22.2886C38.7119 22.1423 38.8247 21.9552 38.9703 21.9187C38.9703 21.9187 41.744 21.0686 42.0255 21.1055L41.9877 21.0864C41.8748 21.0297 41.7454 21.0153 41.6228 21.0458L38.9891 21.7039C38.8535 21.7379 38.7369 21.8243 38.6649 21.9442C38.5929 22.064 38.5714 22.2076 38.6051 22.3433L38.9777 23.8347C38.9812 23.8487 38.9855 23.8621 38.9901 23.8756L38.7485 22.2886Z" fill="white"/>
<path d="M44.2884 22.9692L43.8475 23.9945C43.8005 24.108 43.7915 24.2336 43.8221 24.3526L44.476 26.97C44.5461 27.2495 44.8063 27.4274 45.0546 27.3656L45.6662 27.2386L44.9484 27.418C44.8126 27.4519 44.669 27.4305 44.549 27.3585C44.4291 27.2865 44.3427 27.1698 44.3088 27.034L43.6501 24.4011C43.6196 24.2789 43.6338 24.1498 43.6902 24.0372L44.217 22.9842C44.2705 22.8775 44.3585 22.7921 44.4668 22.742C44.4455 22.7573 44.3174 22.9018 44.2884 22.9692Z" fill="white"/>
<path d="M29.9291 39.9978C30.2637 40.6738 30.4394 41.4173 30.4427 42.1715C30.4427 42.2193 30.4452 42.2673 30.4427 42.3151L30.4366 42.4587C30.4343 42.5547 30.4236 42.65 30.4152 42.7461C30.4069 42.8421 30.3898 42.9369 30.3776 43.0327L30.3667 43.1044L30.3527 43.1755L30.3243 43.3178C30.2431 43.6995 30.1195 44.0708 29.9558 44.425C29.6233 45.1462 29.135 45.7847 28.5261 46.2945C27.9103 46.81 27.1853 47.1789 26.4061 47.3733C26.3085 47.3951 26.2109 47.4175 26.1131 47.4376C26.0142 47.4538 25.9156 47.4719 25.8165 47.4861L25.6673 47.5024L25.5926 47.5105C25.5672 47.5135 25.5418 47.5158 25.5179 47.5168L25.3677 47.5257C25.3169 47.528 25.2679 47.5326 25.2178 47.5316C24.8178 47.5391 24.4183 47.5016 24.0268 47.4195C23.2494 47.2562 22.518 46.9225 21.8851 46.4424C21.5743 46.2062 21.2906 45.9364 21.0391 45.6379C20.9779 45.5617 20.9146 45.49 20.8582 45.4112C20.8018 45.3325 20.7413 45.2588 20.69 45.1759L20.6104 45.0555C20.585 45.0153 20.5596 44.9731 20.536 44.9322L20.4628 44.8087C20.4397 44.7668 20.4176 44.7244 20.3955 44.6817C20.0417 44.0042 19.844 43.2586 19.8278 42.5217C19.857 42.6091 19.888 42.6955 19.9197 42.7809L19.9688 42.9079C19.9858 42.9501 20.0044 42.9918 20.0219 43.0335L20.0743 43.1585C20.0915 43.2002 20.1124 43.2403 20.1312 43.2812C20.15 43.3221 20.1695 43.3623 20.1883 43.403C20.2072 43.4436 20.2295 43.4825 20.2498 43.5224C20.4122 43.836 20.6022 44.1345 20.8175 44.4143L20.8971 44.5178L20.9809 44.6179C21.0091 44.6509 21.0358 44.685 21.065 44.7167L21.1532 44.8123L21.1972 44.8598L21.219 44.8837L21.2419 44.9066L21.3331 44.998C21.3921 45.0603 21.4577 45.1165 21.5204 45.1747C21.7739 45.4016 22.0476 45.6051 22.3379 45.7825C22.9097 46.1299 23.5432 46.3637 24.2036 46.4709C24.8544 46.5754 25.5196 46.5471 26.1592 46.3878C26.7988 46.2284 27.3995 45.9413 27.9252 45.5436C28.4577 45.1383 28.907 44.634 29.2483 44.0583C29.4219 43.7655 29.5679 43.4572 29.6844 43.1374C29.7431 42.9763 29.7939 42.8116 29.8369 42.6447C29.8582 42.5611 29.8819 42.4772 29.8974 42.3918L29.9228 42.2648C29.9279 42.2434 29.9309 42.2218 29.9342 42.2005L29.9449 42.1359C30.0032 41.7876 30.0303 41.4348 30.0259 41.0816L30.0244 40.9472C30.0216 40.9027 30.0191 40.858 30.017 40.813L30.0099 40.6778L29.9967 40.5431L29.9845 40.4072L29.9677 40.2717C29.9576 40.1795 29.9441 40.0885 29.9291 39.9978Z" fill="black"/>
<path d="M45.9951 35.9842C46.3297 36.6602 46.5054 37.4038 46.5087 38.1582C46.5087 38.2059 46.5112 38.254 46.5087 38.3015L46.5026 38.445C46.5003 38.5411 46.4898 38.6364 46.4812 38.7325C46.4726 38.8285 46.4571 38.9235 46.4436 39.0191L46.4327 39.091L46.4187 39.1619L46.3902 39.3045C46.309 39.6861 46.1854 40.0575 46.0218 40.4117C45.6891 41.1327 45.2008 41.7712 44.5921 42.2812C43.9759 42.7968 43.2506 43.1657 42.471 43.3599C42.3734 43.3818 42.2758 43.4041 42.178 43.4242C42.0792 43.4405 41.9806 43.4585 41.8815 43.4727L41.7323 43.4892L41.6576 43.4971C41.6322 43.5002 41.6068 43.5027 41.5829 43.5037L41.4329 43.5124C41.3821 43.5147 41.3328 43.5195 41.2828 43.5182C40.8828 43.5258 40.4832 43.4882 40.0917 43.4062C39.3144 43.2428 38.5829 42.9091 37.95 42.4291C37.6394 42.193 37.3557 41.9232 37.1043 41.6248C37.0428 41.5486 36.9796 41.4767 36.9231 41.3981C36.8667 41.3196 36.8062 41.2457 36.7549 41.1628L36.6754 41.0424C36.65 41.0022 36.6258 40.96 36.6009 40.9189L36.5277 40.7954C36.5046 40.7534 36.4825 40.711 36.4607 40.6683C36.1067 39.9906 35.909 39.2453 35.8927 38.5083C35.9222 38.5957 35.9528 38.6821 35.9847 38.7675L36.0337 38.8946C36.0508 38.937 36.0693 38.9784 36.0868 39.0216L36.1392 39.1467C36.1565 39.1881 36.1773 39.2285 36.1961 39.2691C36.2149 39.3098 36.2347 39.3505 36.2533 39.3909C36.2718 39.4313 36.2945 39.4707 36.3148 39.5103C36.4772 39.8239 36.6671 40.1224 36.8825 40.4022L36.962 40.5059L37.0459 40.6058C37.0741 40.6388 37.1008 40.6729 37.13 40.7049L37.2182 40.8002L37.2621 40.8477L37.284 40.8716L37.3069 40.8945L37.3981 40.9862C37.457 41.0485 37.5229 41.1044 37.5854 41.1626C37.8389 41.3896 38.1125 41.5932 38.4029 41.7707C38.9746 42.1181 39.6081 42.3518 40.2686 42.4588C40.9197 42.563 41.5852 42.5343 42.2249 42.3744C42.8646 42.2145 43.4653 41.9268 43.9909 41.5285C44.5234 41.1232 44.9727 40.6189 45.3141 40.0432C45.4876 39.7504 45.6336 39.4421 45.7501 39.1223C45.8091 38.9612 45.8596 38.7967 45.9026 38.6295C45.9239 38.5459 45.9476 38.4621 45.9631 38.3769L45.9897 38.2499C45.9946 38.2285 45.9979 38.2072 46.0009 38.1856L46.0119 38.121C46.0699 37.7727 46.097 37.4199 46.0927 37.0667L46.0911 36.9325C46.0883 36.8878 46.0858 36.8431 46.0838 36.7981L46.0769 36.6629L46.0637 36.5283L46.0512 36.3926L46.0345 36.2569C46.0231 36.1661 46.01 36.0752 45.9951 35.9842Z" fill="black"/>
<path d="M33.5388 23.3918L33.1028 19.6718C33.1002 19.6492 33.0972 19.6266 33.0941 19.6042C32.89 19.6961 32.6782 19.7698 32.4611 19.8243L28.2662 20.8802L24.0712 21.9363C23.6497 22.0423 23.2132 22.0754 22.7806 22.0341C22.8018 22.1007 22.8252 22.167 22.851 22.2331L24.2156 25.7213C24.5034 26.4571 25.0494 27.0629 25.7515 27.4253C26.4535 27.7877 27.2636 27.882 28.0301 27.6905L31.0986 26.9238C31.8651 26.7323 32.5357 26.2681 32.9848 25.6181C33.434 24.968 33.6309 24.1766 33.5388 23.3918Z" fill="black" stroke="black" stroke-width="0.8" stroke-linejoin="round"/>
<defs>
<linearGradient id="paint0_linear_1097_867" x1="51.6906" y1="61.1523" x2="51.6906" y2="-0.152172" gradientUnits="userSpaceOnUse">
<stop stop-color="#93278F"/>
<stop offset="1" stop-color="#29ABE2"/>
</linearGradient>
<linearGradient id="paint1_linear_1097_867" x1="40.5095" y1="24.7813" x2="101.445" y2="24.7813" gradientUnits="userSpaceOnUse">
<stop stop-color="#666666"/>
<stop offset="0.28" stop-color="#686868"/>
<stop offset="0.43" stop-color="#707070"/>
<stop offset="0.55" stop-color="#7D7D7D"/>
<stop offset="0.65" stop-color="#919191"/>
<stop offset="0.73" stop-color="#A9A9A9"/>
<stop offset="0.81" stop-color="#C7C7C7"/>
<stop offset="0.88" stop-color="#E6E6E6"/>
<stop offset="0.93" stop-color="#E2E2E2"/>
<stop offset="0.97" stop-color="#D6D6D6"/>
<stop offset="1" stop-color="#CCCCCC"/>
</linearGradient>
<linearGradient id="paint2_linear_1097_867" x1="3.03477" y1="32.8434" x2="63.5377" y2="37.4441" gradientUnits="userSpaceOnUse">
<stop stop-color="#CCCCCC"/>
<stop offset="0.07" stop-color="#D6D6D6"/>
<stop offset="0.2" stop-color="#E2E2E2"/>
<stop offset="0.33" stop-color="#E6E6E6"/>
<stop offset="0.35" stop-color="#E2E2E2"/>
<stop offset="0.64" stop-color="#BBBBBB"/>
<stop offset="0.86" stop-color="#A2A2A2"/>
<stop offset="1" stop-color="#999999"/>
</linearGradient>
</defs>
</svg>
