<svg width="27" height="23" viewBox="0 0 27 23" fill="none" xmlns="http://www.w3.org/2000/svg">
<path d="M22.8155 3.28942C20.2408 0.718086 16.1829 0.614552 13.0865 2.65723C11.7034 1.60526 10.2669 1 8.83746 1L8.83689 1C6.75518 1.00118 4.75954 1.83015 3.28956 3.30392C1.81954 4.77774 0.995981 6.77543 1.00001 8.85682C1.00401 10.9383 1.83555 12.9329 3.31125 14.4009L3.3207 14.4103L3.3304 14.4194L10.1455 20.8463L10.1455 20.8464C10.9315 21.5875 11.971 22 13.0509 22C14.1309 22 15.17 21.5875 15.9559 20.8466C15.956 20.8465 15.9561 20.8464 15.9561 20.8464L22.7946 14.4018L22.8065 14.3906L22.8179 14.3791C24.2827 12.9061 25.105 10.9129 25.105 8.83561C25.105 6.75805 24.2827 4.76506 22.8179 3.29191L22.8155 3.28942Z" stroke="white" stroke-width="2"/>
</svg>
