<svg width="26" height="26" viewBox="0 0 26 26" fill="none" xmlns="http://www.w3.org/2000/svg">
<path d="M25.8987 0.556835C25.7128 0.185612 25.434 0 25.0622 0H0.897519C0.525754 0 0.246931 0.185612 0.0610488 0.556835C-0.0318924 0.835253 -0.0318924 1.20648 0.15399 1.48489L9.26222 13.2712V25.0576C9.26222 25.4288 9.4481 25.7072 9.72692 25.8928C10.0057 26.0784 10.3775 25.9856 10.6563 25.8928L16.2328 22.1806C16.5116 21.995 16.6975 21.7166 16.6975 21.4382V13.364L25.8057 1.5777C25.9916 1.20648 26.0846 0.835253 25.8987 0.556835ZM14.8387 20.8813L11.121 23.3871V13.9209H14.8387V20.8813ZM15.3034 12.0648H10.6563L2.75634 1.85612H23.2034L15.3034 12.0648Z" fill="black"/>
</svg>
