<svg width="344" height="70" viewBox="0 0 344 70" fill="none" xmlns="http://www.w3.org/2000/svg">
<g clip-path="url(#clip0_2_478)">
<path d="M320.618 58.309C320.618 51.879 315.504 46.7642 309.074 46.7642C302.644 46.7642 297.529 51.879 297.529 58.309C297.529 64.7391 302.79 69.8539 309.074 69.8539C315.504 70.0001 320.618 64.7391 320.618 58.309Z" fill="#0030A8"/>
<path d="M320.618 23.3818V69.9998C333.478 69.9998 344 59.624 344 46.7639C344 33.7576 333.478 23.3818 320.618 23.3818Z" fill="#0094CE"/>
<path d="M344 23.382V0H320.618C320.618 12.8601 330.994 23.382 344 23.382Z" fill="#51B749"/>
<path d="M320.765 23.3818H297.383V46.7639C310.243 46.6177 320.765 36.242 320.765 23.3818Z" fill="#FFB03B"/>
<path d="M320.765 0H297.383V23.382H320.765V0Z" fill="#FF624D"/>
<path d="M285.839 23.382H262.457L285.839 0V23.382Z" fill="#0030A8"/>
<path d="M285.839 23.3818H262.457V46.7639H285.839V23.3818Z" fill="#FFB03B"/>
<path d="M285.839 46.7642H262.457V70.1462H285.839V46.7642Z" fill="#FFB03B"/>
<path d="M8.47579 48.0795V25.8665H0V23.5283H19.7281V25.8665H11.1062V48.2256H8.47579V48.0795Z" fill="black"/>
<path d="M31.5649 48.0795V23.5283H42.2327C46.6168 23.5283 49.3933 25.8665 49.3933 29.52C49.3933 32.1504 48.2242 34.0502 46.1784 34.7809C49.3933 35.3655 51.5853 37.7037 51.5853 41.3571C51.5853 45.449 48.5165 48.2256 43.4018 48.2256H31.5649V48.0795ZM34.0492 33.9041H41.6482C44.717 33.9041 46.6168 32.4427 46.6168 29.9584C46.6168 27.3279 44.8632 25.8665 41.6482 25.8665H34.0492V33.9041ZM34.0492 45.7413H42.8173C46.4706 45.7413 48.6626 43.9876 48.6626 40.9187C48.6626 37.8498 46.6168 36.0962 42.8173 36.0962H34.0492V45.7413Z" fill="black"/>
<path d="M64.1528 48.0795V23.5283H81.1044V25.8665H66.7832V33.758H78.474V36.0962H66.7832V45.7413H81.6889V48.0795H64.1528Z" fill="black"/>
<path d="M93.8184 48.0795V23.5283H104.194C109.162 23.5283 112.085 26.3049 112.085 30.3968C112.085 34.6348 109.162 37.4114 104.194 37.4114H96.4488V48.3717H93.8184V48.0795ZM96.4488 34.9271H104.048C107.555 34.9271 109.601 33.3196 109.601 30.3968C109.601 27.474 107.555 25.8665 104.048 25.8665H96.4488V34.9271Z" fill="black"/>
<path d="M126.845 45.0107C124.507 42.6725 123.191 39.6036 123.191 35.804C123.191 32.1505 124.36 29.0816 126.845 26.5973C129.329 24.113 132.252 22.9438 135.905 22.9438C138.535 22.9438 140.874 23.5284 142.773 24.8436V27.4741C140.581 26.1589 138.389 25.4282 135.905 25.4282C132.982 25.4282 130.644 26.4512 128.745 28.3509C126.845 30.2507 125.822 32.7351 125.822 35.6578C125.822 38.7267 126.845 41.0649 128.745 43.1109C130.644 45.0107 133.129 46.0336 135.905 46.0336C138.682 46.0336 141.166 45.1568 143.212 43.5493V46.3259C141.166 47.7873 138.682 48.518 135.759 48.518C132.252 48.518 129.329 47.3489 126.845 45.0107Z" fill="black"/>
<path d="M158.263 23.5283V34.1964L169.662 23.5283H173.169L161.04 34.7809L175.069 48.2256H171.415L158.263 35.6578V48.2256H155.633V23.5283H158.263Z" fill="black"/>
<path d="M183.691 48.0798L194.651 23.2363H197.135L208.241 48.0798H205.465L202.396 41.2113H189.39L186.321 48.0798H183.691ZM190.267 39.0192H201.519L195.966 26.5975L190.267 39.0192Z" fill="black"/>
<path d="M217.302 48.0796L225.339 36.6809C221.686 36.0963 219.494 33.612 219.494 30.1047C219.494 26.0128 222.416 23.3823 227.239 23.3823H238.345V48.0796H235.715V36.9731H228.116L220.371 48.0796H217.302ZM235.715 34.6349V25.7205H227.385C224.024 25.7205 221.978 27.328 221.978 30.1047C221.978 32.8813 224.024 34.4888 227.385 34.4888H235.715V34.6349Z" fill="black"/>
</g>
<defs>
<clipPath id="clip0_2_478">
<rect width="344" height="70" fill="white"/>
</clipPath>
</defs>
</svg>
