<!-- Generated by IcoMoon.io -->
<svg version="1.1" xmlns="http://www.w3.org/2000/svg" width="32" height="32" viewBox="0 0 32 32">
<title>s</title>
<path d="M20.511 8.421c0-3.378-2.662-6.021-5.829-6.021s-5.829 2.643-5.829 6.021c0 3.378 2.662 6.021 5.829 6.021s5.829-2.643 5.829-6.021zM22.911 8.421c0 4.651-3.684 8.421-8.229 8.421s-8.229-3.77-8.229-8.421 3.684-8.421 8.229-8.421c4.545 0 8.229 3.77 8.229 8.421zM4.034 32c0-5.727 5.229-10.59 11.966-10.59s11.966 4.862 11.966 10.59h2.4c0-7.295-6.56-12.99-14.366-12.99s-14.366 5.695-14.366 12.99h2.4z"></path>
</svg>
