<svg width="32" height="28" viewBox="0 0 32 28" fill="none" xmlns="http://www.w3.org/2000/svg">
<path d="M15.9998 2.8262C13.8708 0.949137 11.8015 0 9.89818 0C7.26898 0.00151179 4.74844 1.06733 2.89177 2.96228C1.03511 4.85722 -0.00507584 7.42575 1.86253e-05 10.1019C0.00506792 12.7781 1.05533 15.3428 2.91914 17.2301L12.7849 26.7014C13.654 27.5356 14.8035 28 15.9978 28C17.1921 28 18.3412 27.5356 19.2103 26.7014L29.1103 17.2038C30.961 15.3092 32 12.7455 32 10.0735C32 7.40129 30.961 4.8378 29.1103 2.94293C25.7207 -0.50313 20.0961 -0.50762 15.9993 2.82592L15.9998 2.8262Z" fill="#FF624D"/>
</svg>
